<?xml version="1.0" encoding="utf-8"?>
<!-- Generator: Adobe Illustrator 24.1.2, SVG Export Plug-In . SVG Version: 6.00 Build 0)  -->
<svg version="1.1" id="Layer_1" xmlns="http://www.w3.org/2000/svg" xmlns:xlink="http://www.w3.org/1999/xlink" x="0px" y="0px"
	 viewBox="0 0 174 174" style="enable-background:new 0 0 174 174;" xml:space="preserve">
<style type="text/css">
	.st0{fill:#0047BF;}
	.st1{fill:#003FC1;}
	.st2{fill:#FFFFFF;}
	.st3{fill:none;stroke:#96D5CE;stroke-width:2;stroke-linecap:round;stroke-linejoin:round;stroke-miterlimit:10;}
	.st4{fill:none;stroke:#FF704C;stroke-width:2;stroke-linecap:round;stroke-linejoin:round;stroke-miterlimit:10;}
	.st5{fill:none;stroke:#FFFFFF;stroke-width:2;stroke-linecap:round;stroke-linejoin:round;stroke-miterlimit:10;}
	.st6{fill:none;stroke:#FF804C;stroke-width:2;stroke-linecap:round;stroke-linejoin:round;stroke-miterlimit:10;}
	.st7{fill:none;stroke:#0047BF;stroke-width:2;stroke-linecap:round;stroke-linejoin:round;stroke-miterlimit:10;}
	.st8{fill:#F1D439;}
	.st9{fill:#0047BF;stroke:#BEC8C8;stroke-width:2;stroke-linecap:round;stroke-linejoin:round;stroke-miterlimit:10;}
	.st10{fill:none;stroke:#FF7E51;stroke-width:2;stroke-linecap:round;stroke-linejoin:round;stroke-miterlimit:10;}
	.st11{fill:none;stroke:#A3D5D0;stroke-width:2;stroke-linecap:round;stroke-linejoin:round;stroke-miterlimit:10;}
	.st12{fill:none;stroke:#F1D439;stroke-width:2;stroke-linecap:round;stroke-linejoin:round;stroke-miterlimit:10;}
	.st13{fill:none;stroke:#E2E6E6;stroke-width:2;stroke-linecap:round;stroke-linejoin:round;stroke-miterlimit:10;}
	.st14{fill:#A3D5D0;}
	.st15{fill:#FF804C;}
	.st16{fill:none;stroke:#BEC8C8;stroke-width:2;stroke-linecap:round;stroke-linejoin:round;stroke-miterlimit:10;}
	.st17{fill:#0047BF;stroke:#0047BF;stroke-width:2;stroke-linecap:round;stroke-linejoin:round;stroke-miterlimit:10;}
	.st18{fill:#FF704C;}
	.st19{fill:none;}
	.st20{fill:#0041BD;}
	.st21{fill:none;stroke:#FFFFFF;stroke-width:1.5;stroke-linecap:round;stroke-linejoin:round;stroke-miterlimit:10;}
	.st22{fill:#0041BD;stroke:#A3D5D0;stroke-width:1.5;stroke-linecap:round;stroke-linejoin:round;stroke-miterlimit:10;}
	.st23{fill:#0041BD;stroke:#FFFFFF;stroke-width:2;stroke-linecap:round;stroke-linejoin:round;stroke-miterlimit:10;}
	.st24{fill:#0041BD;stroke:#FF804C;stroke-width:2;stroke-linecap:round;stroke-linejoin:round;stroke-miterlimit:10;}
	.st25{fill:#0041BD;stroke:#A3D5D0;stroke-width:2;stroke-linecap:round;stroke-linejoin:round;stroke-miterlimit:10;}
	.st26{fill:#0041BD;stroke:#F1D439;stroke-width:2;stroke-linecap:round;stroke-linejoin:round;stroke-miterlimit:10;}
	.st27{fill:#FF804C;stroke:#FF804C;stroke-width:2;stroke-linecap:round;stroke-linejoin:round;stroke-miterlimit:10;}
	.st28{fill:none;stroke:#FFFFFF;stroke-width:2.5;stroke-linecap:round;stroke-linejoin:round;stroke-miterlimit:10;}
	.st29{fill:#0041BD;stroke:#FF804C;stroke-width:1.5;stroke-linecap:round;stroke-linejoin:round;stroke-miterlimit:10;}
	.st30{fill:none;stroke:#FF704C;stroke-width:1.5;stroke-linecap:round;stroke-linejoin:round;stroke-miterlimit:10;}
	.st31{fill:none;stroke:#FF804C;stroke-width:1.5;stroke-linecap:round;stroke-linejoin:round;stroke-miterlimit:10;}
	.st32{fill:none;stroke:#A3D5D0;stroke-width:1.4377;stroke-linecap:round;stroke-linejoin:round;stroke-miterlimit:10;}
	.st33{fill:#0041BD;stroke:#F1D439;stroke-width:1.5;stroke-linecap:round;stroke-linejoin:round;stroke-miterlimit:10;}
	.st34{fill:none;stroke:#F1D439;stroke-width:1.5;stroke-linecap:round;stroke-linejoin:round;stroke-miterlimit:10;}
	.st35{fill:none;stroke:#A3D5D0;stroke-width:1.5;stroke-linecap:round;stroke-linejoin:round;stroke-miterlimit:10;}
	.st36{fill:none;stroke:#96D5CE;stroke-width:1.4377;stroke-linecap:round;stroke-linejoin:round;stroke-miterlimit:10;}
	.st37{fill:none;stroke:#0047BF;stroke-width:1.5;stroke-linecap:round;stroke-linejoin:round;stroke-miterlimit:10;}
	.st38{fill:#0047BF;stroke:#FF704C;stroke-width:2;stroke-linecap:round;stroke-linejoin:round;stroke-miterlimit:10;}
	.st39{fill:#0047BF;stroke:#FF804C;stroke-width:2;stroke-linecap:round;stroke-linejoin:round;stroke-miterlimit:10;}
	.st40{fill:#0047BF;stroke:#E2E6E6;stroke-width:2;stroke-linecap:round;stroke-linejoin:round;stroke-miterlimit:10;}
	.st41{fill:#0047BF;stroke:#A3D5D0;stroke-width:2;stroke-linecap:round;stroke-linejoin:round;stroke-miterlimit:10;}
	.st42{fill:#0047BF;stroke:#F1D439;stroke-width:2;stroke-linecap:round;stroke-linejoin:round;stroke-miterlimit:10;}
	.st43{fill:#0041BD;stroke:#E2E6E6;stroke-width:2;stroke-linecap:round;stroke-linejoin:round;stroke-miterlimit:10;}
	.st44{fill:#E2E6E6;}
	.st45{fill:none;stroke:#0047BF;stroke-width:1.4377;stroke-linecap:round;stroke-linejoin:round;stroke-miterlimit:10;}
	.st46{fill:#0047BF;stroke:#A3D5D0;stroke-width:1.5;stroke-linecap:round;stroke-linejoin:round;stroke-miterlimit:10;}
	.st47{fill:none;stroke:#E2E6E6;stroke-width:1.5;stroke-linecap:round;stroke-linejoin:round;stroke-miterlimit:10;}
	.st48{fill:#0047BF;stroke:#FF704C;stroke-width:1.5;stroke-linecap:round;stroke-linejoin:round;stroke-miterlimit:10;}
	.st49{fill:#0047BF;stroke:#FF804C;stroke-width:1.5;stroke-linecap:round;stroke-linejoin:round;stroke-miterlimit:10;}
	.st50{fill:#0047BF;stroke:#F1D439;stroke-width:1.5;stroke-linecap:round;stroke-linejoin:round;stroke-miterlimit:10;}
	.st51{fill:#0041BD;stroke:#0047BF;stroke-width:2;stroke-linecap:round;stroke-linejoin:round;stroke-miterlimit:10;}
	
		.st52{fill:none;stroke:#FFFFFF;stroke-width:2;stroke-linecap:round;stroke-linejoin:round;stroke-miterlimit:10;stroke-dasharray:15,5;}
	.st53{fill:#1B3570;}
	.st54{fill:#B5C0C0;}
	.st55{fill:#0047BF;stroke:#B5C0C0;stroke-width:2;stroke-linecap:round;stroke-linejoin:round;stroke-miterlimit:10;}
	.st56{fill:none;stroke:#B5C0C0;stroke-width:2;stroke-linecap:round;stroke-linejoin:round;stroke-miterlimit:10;}
	.st57{fill:#0047BF;stroke:#96D5CE;stroke-width:2;stroke-linecap:round;stroke-linejoin:round;stroke-miterlimit:10;}
	.st58{fill:#96D5CE;}
	.st59{fill:#FF7E51;}
	.st60{fill:#0B0069;}
	.st61{fill:#0047BF;stroke:#FFFFFF;stroke-width:2;stroke-linecap:round;stroke-linejoin:round;stroke-miterlimit:10;}
	.st62{fill:none;stroke:#FF7E51;stroke-width:1.5;stroke-linecap:round;stroke-linejoin:round;stroke-miterlimit:10;}
	.st63{fill:#0B0069;stroke:#FFFFFF;stroke-width:1.5;stroke-linecap:round;stroke-linejoin:round;stroke-miterlimit:10;}
</style>
<path class="st14" d="M84.4,76.7c-0.2,0-0.5-0.1-0.7-0.3c-0.4-0.4-0.4-1-0.1-1.4c0.6-0.6,0-2.8-0.6-4.2c-0.2-0.4-0.1-0.9,0.2-1.2
	c0.3-0.3,0.8-0.3,1.2-0.1l9.4,5.3c0.5,0.3,0.7,0.9,0.4,1.4c-0.3,0.5-0.9,0.7-1.4,0.4l-7.1-4c0.3,1.3,0.3,2.9-0.6,3.8
	C85,76.6,84.7,76.7,84.4,76.7z"/>
<path class="st14" d="M56,81.2c-0.3,0-0.5-0.1-0.7-0.3c-0.4-0.4-0.4-1,0.1-1.4l3.7-3.4c0.3-0.3,0.7-0.3,1.1-0.2c0.1,0.1,3,1.3,4,1.9
	c0.5,0.2,0.7,0.8,0.4,1.3c-0.2,0.5-0.8,0.7-1.3,0.4c-0.8-0.4-2.5-1.1-3.4-1.6l-3.2,3C56.5,81.1,56.3,81.2,56,81.2z"/>
<path class="st14" d="M72.3,78.2c-0.3,0-0.5-0.1-0.7-0.3c-0.4-0.4-0.4-1,0-1.4c1.2-1.2-0.3-3.4-0.4-3.4c-0.3-0.4-0.2-0.9,0-1.2
	c0.3-0.3,0.8-0.5,1.2-0.3l8,3.7c0.5,0.2,0.7,0.8,0.5,1.3s-0.8,0.7-1.3,0.5L74,74.5c0.2,1.2,0,2.4-1,3.4
	C72.8,78.1,72.6,78.2,72.3,78.2z"/>
<path class="st14" d="M87.3,93.1c-0.2,0-0.4,0-0.6-0.1c-1-0.1-12-1.6-21.7-5.9c-0.5-0.2-0.7-0.8-0.5-1.3c0.2-0.5,0.8-0.7,1.3-0.5
	c9.7,4.3,21.1,5.7,21.2,5.7c0,0,0.1,0,0.1,0c0.2,0,0.3,0,0.5-0.1l4-2.5c0.5-0.3,1.1-0.2,1.4,0.3c0.3,0.5,0.2,1.1-0.3,1.4l-4,2.5
	C88.3,93,87.8,93.1,87.3,93.1z"/>
<path class="st14" d="M40,88.4c-0.2,0-0.4-0.1-0.6-0.2C39.2,88,39,87.7,39,87.4c0-0.5,0.4-1,1-1c2.9-0.8,4.1-2.6,4.1-3.6
	c0-1.1-1.3-2.9-4.2-3.6c-0.5,0-0.9-0.5-0.9-1c0-0.3,0.1-0.6,0.4-0.8c0.2-0.2,0.5-0.3,0.8-0.2c5.2,0,9.8,1.3,11.8,3.2
	c0.4,0.4,0.4,1,0,1.4c-0.4,0.4-1,0.4-1.4,0c-1-0.9-3.1-1.8-6-2.3c1,1,1.5,2.2,1.5,3.3c0,1.1-0.5,2.3-1.5,3.3c3-0.5,5.3-1.5,7.1-3.1
	c0.4-0.4,1-0.3,1.4,0.1c0.4,0.4,0.3,1-0.1,1.4c-2.9,2.6-7.1,3.9-12.8,3.9C40.2,88.4,40.1,88.4,40,88.4z"/>
<path class="st2" d="M110.9,84.3c-0.4,0-0.7-0.2-0.9-0.5c-0.3-0.5-0.1-1.1,0.4-1.4c1.6-0.9,3.3-1.8,4.6-2.6
	c-2.6-0.6-7.3-1.5-12.4-2.2c-0.5-0.1-0.9-0.6-0.9-1.1s0.6-0.9,1.1-0.9c4.9,0.7,14.7,2.5,15.4,3.1c0.2,0.2,0.3,0.5,0.3,0.9
	c-0.1,0.6-0.1,0.8-7.1,4.6C111.2,84.3,111.1,84.3,110.9,84.3z"/>
<path class="st14" d="M62,89.5c-0.2,0-0.4-0.1-0.6-0.2l-5.2-3.9c-0.4-0.3-0.5-1-0.2-1.4c0.3-0.4,1-0.5,1.4-0.2l4.7,3.4l2.1-1.6
	c0.4-0.3,1.1-0.2,1.4,0.2c0.3,0.4,0.2,1.1-0.2,1.4l-2.7,2.1C62.4,89.4,62.2,89.5,62,89.5z"/>
<path class="st2" d="M96.5,75.3c-0.5-0.3-1.1-0.1-1.4,0.4l-1.9,3.5c0.2,0,0.4,0,0.6,0.1c0.5,0.1,1,0.2,1.4,0.4l1.7-3
	C97.2,76.2,97,75.6,96.5,75.3z"/>
<path class="st2" d="M93.6,82.6C93.6,82.6,93.6,82.6,93.6,82.6c-0.4-0.1-0.7-0.2-1.1-0.3c-0.3-0.1-0.5-0.2-0.8-0.3l-3.4,6.3
	c-0.3,0.5-0.1,1.1,0.4,1.4c0.2,0.1,0.3,0.1,0.5,0.1c0.4,0,0.7-0.2,0.9-0.5L93.6,82.6C93.6,82.6,93.6,82.6,93.6,82.6z"/>
<path class="st2" d="M89.7,90.1c-12.2,0-32-4.3-39.9-6.1c-0.8-0.2-1.3-0.9-1.3-1.7s0.5-1.5,1.3-1.7c8-1.8,27.8-6.1,39.9-6.1
	c3.6,0,8.1,0.4,13.2,1.1c0.5,0.1,0.9,0.6,0.9,1.1c-0.1,0.5-0.6,0.9-1.1,0.9c-5-0.7-9.4-1.1-12.9-1.1c-11.4,0-29.7,3.8-38.2,5.8
	c8.6,1.9,26.9,5.8,38.2,5.8c8.5,0,14.7-1.6,18.7-2.6l0.6-0.2c1.6-0.4,3.7-1,5.3-1.4c-0.7-0.1-1.3-0.3-1.8-0.4
	c-0.5-0.1-0.9-0.7-0.7-1.2c0.1-0.5,0.7-0.9,1.2-0.7c0.6,0.1,1.5,0.3,2.3,0.5c3.1,0.6,3.7,0.7,3.6,1.8c-0.1,0.7-0.1,1.1-9.5,3.4
	l-0.6,0.2C104.8,88.5,98.5,90.1,89.7,90.1z M117.5,84.6L117.5,84.6L117.5,84.6z"/>
<g>
	<path class="st14" d="M98.1,85.1c-1,0-2.3-0.2-3.3-0.3c-1.6-0.3-3.1-0.9-4.2-1.8c-1.3-1-1.9-2.1-1.7-3.1c0.3-1.7,1.9-2,2.7-2
		c0.1,0,0.1,0,0.2,0l7,1.4c0.5,0.1,0.9,0.6,0.8,1.2c-0.1,0.5-0.6,0.9-1.2,0.8l-6.9-1.4c-0.2,0-0.5,0.1-0.6,0.4
		c0,0.4,1.5,2.2,4.3,2.7c1,0.2,2.5,0.3,3.2,0.3c0.6,0,1,0.4,1.1,0.9c0,0.6-0.4,1-0.9,1.1C98.4,85.1,98.3,85.1,98.1,85.1z"/>
</g>
<g>
	<path class="st2" d="M104.5,88.3c-2,0-3.8-0.6-5.2-1.8c-1.4-1.2-2.2-2.8-2.2-4.4c0-3.6,4.6-5.9,8.9-5.9c0.6,0,1,0.4,1,1s-0.4,1-1,1
		c-3.7,0-6.9,1.8-6.9,3.9c0,1,0.5,2.1,1.5,2.9c1.3,1.1,3.1,1.6,5.1,1.3c0.6-0.1,1.1,0.3,1.1,0.8c0.1,0.5-0.3,1.1-0.8,1.1
		C105.4,88.3,104.9,88.3,104.5,88.3z"/>
</g>
<path class="st8" d="M108.1,77.7c-1.2,0-2.3,1-2.3,2.3c0,1.2,1,2.3,2.3,2.3c1.2,0,2.3-1,2.3-2.3C110.4,78.7,109.3,77.7,108.1,77.7z
	 M108.1,81c-0.6,0-1.1-0.5-1.1-1.1c0-0.6,0.5-1.1,1.1-1.1c0.6,0,1.1,0.5,1.1,1.1C109.2,80.5,108.7,81,108.1,81z"/>
<path class="st2" d="M77.7,58.2c-0.2,0-0.3,0-0.5-0.1c-0.5-0.3-0.7-0.9-0.4-1.4l2.7-4.9c0.3-0.5,0.9-0.7,1.4-0.4
	c0.5,0.3,0.7,0.9,0.4,1.4l-2.7,4.9C78.4,58.1,78.1,58.2,77.7,58.2z"/>
<path class="st2" d="M72.7,52.1c-0.4-0.1-0.8-0.3-1.1-0.5c0,0-0.1-0.1-0.1-0.1l-2.3,4.3c-0.3,0.5-0.1,1.1,0.4,1.4
	c0.2,0.1,0.3,0.1,0.5,0.1c0.4,0,0.7-0.2,0.9-0.5l2.5-4.6C73.2,52.2,72.9,52.2,72.7,52.1z"/>
<path class="st2" d="M79.1,39.6c-0.5-0.3-1.1-0.1-1.4,0.4l-4.6,8.5c0.7-0.1,1.5,0,2.1,0c0,0,0.1,0,0.1,0l4.1-7.6
	C79.8,40.5,79.6,39.9,79.1,39.6z"/>
<path class="st2" d="M63.3,56c-0.2,0-0.3,0-0.5-0.1c-0.5-0.3-0.7-0.9-0.4-1.4l7.6-14c0.3-0.5,0.9-0.7,1.4-0.4
	c0.5,0.3,0.7,0.9,0.4,1.4l-7.6,14C64,55.8,63.6,56,63.3,56z"/>
<path class="st2" d="M56.9,54c-0.2,0-0.3,0-0.5-0.1c-0.5-0.3-0.7-0.9-0.4-1.4l5.2-9.5c0.3-0.5,0.9-0.7,1.4-0.4
	c0.5,0.3,0.7,0.9,0.4,1.4l-5.2,9.5C57.6,53.8,57.2,54,56.9,54z"/>
<path class="st2" d="M50.8,52.6c-0.2,0-0.3,0-0.5-0.1c-0.5-0.3-0.7-0.9-0.4-1.4l2.7-5c0.3-0.5,0.9-0.7,1.4-0.4
	c0.5,0.3,0.7,0.9,0.4,1.4l-2.7,5C51.5,52.4,51.2,52.6,50.8,52.6z"/>
<g>
	<path class="st15" d="M75.7,54.3c-0.8,0-1.5-0.1-2.2-0.3c-4.2-1.6-6.2-2.7-6.7-4c-0.2-0.5-0.2-1-0.1-1.4c0.6-1.6,2.7-2.1,6.5-1.6
		c3.1,0.4,6.6,1,6.6,1c0.5,0.1,0.9,0.6,0.8,1.1c-0.1,0.5-0.6,0.9-1.1,0.8c0,0-3.4-0.5-6.5-1c-2.8-0.4-4.1,0-4.3,0.2
		c0.2,0.3,1.1,1.2,5.6,2.9c1.2,0.5,3.4,0.1,5-0.2l0.8-0.1c0.6-0.1,1.1,0.3,1.2,0.8c0.1,0.5-0.3,1.1-0.8,1.2l-0.7,0.1
		C78.4,54,77,54.3,75.7,54.3z"/>
</g>
<path class="st2" d="M86.9,57.3c-1.7,0-3.4-0.5-4.8-1.6c-2.2-1.5-3.5-4-3.5-6.2c0-4.4,3.7-7,6.8-8c0.5-0.2,1.1,0.1,1.3,0.7
	c0.2,0.5-0.1,1.1-0.7,1.3c-2.5,0.8-5.4,2.8-5.4,6.1c0,1.6,1,3.4,2.7,4.6c1,0.7,3.1,1.8,5.8,0.8c0.5-0.2,1.1,0.1,1.3,0.6
	s-0.1,1.1-0.6,1.3C88.8,57.1,87.9,57.3,86.9,57.3z"/>
<g>
	<path class="st18" d="M43,54c-1.2,0-2.4-0.1-3.6-0.3c-0.4-0.1-0.8-0.4-0.8-0.8c-0.1-0.4,0.1-0.9,0.5-1c0.7-0.4,1.3-1.4,1.3-2.5
		s-0.5-2.2-1.3-2.5c-0.4-0.2-0.6-0.6-0.5-1.1s0.4-0.8,0.8-0.8c1.2-0.2,2.4-0.3,3.6-0.3c2.9,0,5.7,0.5,7.6,1.4
		c0.5,0.2,0.7,0.8,0.5,1.3s-0.8,0.7-1.3,0.5c-1.9-0.9-5-1.4-8.1-1.2c0.4,0.8,0.7,1.7,0.7,2.7s-0.2,1.9-0.7,2.7c3,0.2,6-0.3,8-1.1
		c0.5-0.2,1.1,0,1.3,0.5c0.2,0.5,0,1.1-0.5,1.3C48.6,53.5,45.8,54,43,54z"/>
</g>
<path class="st15" d="M54.9,46.8c-0.1,0-0.1,0-0.2,0c-1.2-0.3-2-0.8-2.3-1.5c-0.5-1.1,0.2-2.3,0.6-2.9c0.1-0.1,0.2-0.3,0.3-0.5
	c0.7-1.3,1.9-3.4,4.4-2.7c1.8,0.5,3.9,1.6,5.7,2.5l0.8,0.4c0.5,0.2,0.7,0.9,0.4,1.3c-0.2,0.5-0.9,0.7-1.3,0.4l-0.8-0.4
	c-1.6-0.8-3.7-1.9-5.3-2.3c-0.8-0.2-1.3,0.3-2.1,1.8c-0.1,0.2-0.2,0.3-0.3,0.5c-0.5,0.8-0.5,1.1-0.5,1.1l0,0c0,0,0.2,0.2,0.9,0.3
	c0.5,0.1,0.9,0.7,0.8,1.2C55.7,46.5,55.3,46.8,54.9,46.8z"/>
<path class="st15" d="M64.7,43.5c-0.1,0-0.3,0-0.4-0.1c-0.5-0.2-0.7-0.8-0.5-1.3c0.1-0.2,0.2-0.5,0.2-0.8c0.3-1.2,0.8-2.9,3.2-3.7
	c2.2-0.7,5.9-1.7,8.2-2.2c1.9-0.4,3.4-0.1,4.7,0.8c2,1.4,2.3,3.9,2.4,4c0.1,0.5-0.3,1.1-0.9,1.1c-0.5,0.1-1-0.3-1.1-0.9
	c0,0-0.3-1.8-1.6-2.7c-0.8-0.6-1.8-0.7-3.1-0.5c-2.1,0.4-5.9,1.4-8,2.1c-1.4,0.5-1.7,1.3-1.9,2.4c-0.1,0.3-0.2,0.7-0.3,1
	C65.5,43.2,65.1,43.5,64.7,43.5z"/>
<path class="st18" d="M56.9,57.7c-2.2,0-3.2-1.1-3.9-2.4c-0.2-0.3-0.8-1.5-0.5-2.7c0.1-0.5,0.5-1.2,1.5-1.6c0.5-0.2,1.1,0,1.3,0.5
	c0.2,0.5,0,1.1-0.5,1.3c-0.3,0.2-0.4,0.3-0.4,0.4c-0.1,0.3,0.1,0.7,0.3,1c0.6,1,1,1.5,2.6,1.4c0.9-0.1,1.6-0.1,2.2-0.2
	c1-0.1,1.8-0.1,3.4-0.2c0.2,0,0.2,0,0.4-0.3c0.1-0.2,0.3-0.6,0.8-0.7c0.3-0.1,0.6,0,0.8,0.1c0.5,0.3,0.6,0.9,0.3,1.4
	C65,55.9,64.9,56,64.8,56c-0.3,0.5-0.8,1.2-2,1.3c-1.6,0.1-2.3,0.1-3.3,0.2c-0.6,0-1.2,0.1-2.2,0.2C57.2,57.7,57.1,57.7,56.9,57.7z"
	/>
<path class="st2" d="M77.8,58.3c-2.3,0-13.8-1-24.2-5.5c-0.4-0.2-0.9-0.4-2.4-0.2c-1,0.2-2.2-0.2-3.1-1C47.4,51,47,50.1,47,49.3
	c0-1.9,2.2-3.3,4.1-3.3c0.5,0,1.6-0.1,2.1-0.3l1.3-0.5c1-0.4,1.9-0.7,3-1.2c6.3-2.6,16.8-5.2,20.8-5.2c3.5,0,6.1,1.6,8.9,3.3
	c2.3,1.4,4.8,2.8,8,3.7c0.4,0.1,0.6,0.4,0.7,0.7c0.1,0.4,0,0.7-0.3,1l-1.9,1.8l3-0.3c0.4,0,0.8,0.2,1,0.6c0.2,0.4,0.1,0.8-0.2,1.1
	C91.1,57,89.3,58.3,77.8,58.3z M52.4,50.5c1,0,1.6,0.2,2.1,0.4c11.3,5,23.2,5.4,23.4,5.4c9.5,0,11.7-0.8,16.3-5l-2.7,0.3l-0.7,0.7
	c-0.4,0.4-1,0.4-1.4,0c-0.4-0.4-0.4-1,0-1.4l1-0.9c0,0,0,0,0,0l2.8-2.7c-2.7-0.9-4.9-2.2-6.9-3.4c-2.7-1.6-5-3-7.9-3
	c-3.5,0-13.4,2.3-20.1,5.1c-1.1,0.5-2.1,0.8-3.1,1.2l-1.2,0.5c-1,0.4-2.4,0.4-2.9,0.4c-1,0-2.1,0.8-2.1,1.3c0,0.2,0.2,0.6,0.5,0.8
	c0.4,0.4,1,0.6,1.4,0.5C51.5,50.5,51.9,50.5,52.4,50.5z"/>
<path class="st8" d="M87.9,44.1c-1.4,0-2.6,1.2-2.6,2.6c0,1.4,1.2,2.6,2.6,2.6c1.4,0,2.6-1.2,2.6-2.6C90.5,45.2,89.4,44.1,87.9,44.1
	z M87.9,47.9c-0.7,0-1.3-0.6-1.3-1.3c0-0.7,0.6-1.3,1.3-1.3c0.7,0,1.3,0.6,1.3,1.3C89.2,47.3,88.6,47.9,87.9,47.9z"/>
<path class="st8" d="M57,116.9c-0.1,0-0.3,0-0.4-0.1c-0.8-0.3-1.2-0.8-1.4-1.4c-0.3-0.9,0.2-1.8,0.6-2.5l0.2-0.3
	c0.8-1.4,2.3-3.9,4.7-3.3c1.9,0.5,7.3,2.6,9.1,3.5c0.5,0.2,0.7,0.9,0.4,1.3c-0.2,0.5-0.8,0.7-1.3,0.4c-1.7-0.8-6.9-2.9-8.7-3.4
	c-0.9-0.3-1.9,1.4-2.4,2.4l-0.2,0.4c-0.4,0.6-0.4,0.9-0.4,0.9l0,0c0,0,0.1,0.1,0.3,0.2c0.5,0.2,0.7,0.8,0.5,1.3
	C57.7,116.7,57.3,116.9,57,116.9z"/>
<path class="st8" d="M71.7,113.8c-0.2,0-0.3,0-0.5-0.1c-1.1-0.6-1.6-1.3-1.6-2.1c0-0.6,0.2-1.4,1.4-2.3c4.7-3.2,8-4.6,10-4.4
	c1.7,0.2,4.8,1.7,9.6,4.8c0.5,0.3,0.6,0.9,0.3,1.4c-0.3,0.5-0.9,0.6-1.4,0.3c-6-3.9-8.1-4.4-8.7-4.5c-0.8-0.1-3.1,0.3-8.7,4.1
	c-0.4,0.3-0.5,0.5-0.5,0.5c0,0,0,0,0,0c0,0,0.1,0.2,0.6,0.5c0.5,0.3,0.7,0.9,0.4,1.4C72.4,113.6,72.1,113.8,71.7,113.8z"/>
<path class="st8" d="M102.8,111.6c-0.2,0-0.5-0.1-0.7-0.2l-0.7-0.6c-1.6-1.4-6.5-5.7-8.1-6.1c-0.1,0-0.1,0-0.3,0.1
	c-0.7,0.7-1.1,3.4-0.6,5.2c0.1,0.5-0.2,1.1-0.7,1.2c-0.5,0.1-1.1-0.2-1.2-0.7c-0.5-2-0.3-5.6,1.2-7.1c0.6-0.6,1.4-0.8,2.2-0.6
	c1.9,0.5,5.4,3.4,9,6.5l0.7,0.6c0.4,0.4,0.5,1,0.1,1.4C103.4,111.5,103.1,111.6,102.8,111.6z"/>
<path class="st8" d="M78,131c-0.2,0-0.3,0-0.4,0c-2.4-0.2-5.6-3.4-8.5-6.3l-0.4-0.4c-0.3-0.3-0.5-0.6-0.7-1c-0.2-0.5,0-1.1,0.5-1.3
	c0.5-0.2,1.1,0,1.3,0.5c0,0.1,0.1,0.2,0.3,0.4l0.4,0.4c1.5,1.5,5.5,5.6,7.3,5.7c0.5,0,2.1-0.1,7.1-2.2c0.5-0.2,1.1,0,1.3,0.5
	c0.2,0.5,0,1.1-0.5,1.3C80.7,130.7,78.8,131,78,131z"/>
<path class="st8" d="M59.9,125.5c-0.1,0-0.2,0-0.3,0c-1.7-0.2-3.2-2.1-4.7-4.2c-0.3-0.5-0.2-1.1,0.2-1.4c0.5-0.3,1.1-0.2,1.4,0.2
	c1.5,2.1,2.6,3.3,3.3,3.3c0.7,0.1,3.7-0.8,6.2-1.8c0.5-0.2,1.1,0,1.3,0.5c0.2,0.5,0,1.1-0.5,1.3C66.8,123.6,62.1,125.5,59.9,125.5z"
	/>
<path class="st8" d="M42,126.9c-0.3,0-0.6-0.1-0.9-0.3c-0.5-0.3-0.8-0.8-0.8-1.4c0,0,0-0.1,0-0.1l0.1-1.4c0.2-3.1,0.1-6.2-0.5-9.2
	l-0.3-1.3c0,0,0-0.1,0-0.1c0-0.6,0.2-1.1,0.7-1.5c0.4-0.3,1-0.5,1.5-0.3l14.6,4.1c0.5,0.1,0.8,0.7,0.7,1.2c-0.1,0.5-0.7,0.8-1.2,0.7
	l-14.2-4l0.2,0.9c0.6,3.2,0.8,6.5,0.5,9.7l-0.1,1l13.1-5c0.5-0.2,1.1,0.1,1.3,0.6c0.2,0.5-0.1,1.1-0.6,1.3l-13.5,5.2
	C42.4,126.9,42.2,126.9,42,126.9z"/>
<path class="st2" d="M81.1,89.3c-0.2,0-0.3,0-0.5-0.1c-0.5-0.3-0.7-0.9-0.4-1.4L87,75.3c0.3-0.5,0.9-0.7,1.4-0.4
	c0.5,0.3,0.7,0.9,0.4,1.4L82,88.8C81.8,89.1,81.4,89.3,81.1,89.3z"/>
<path class="st2" d="M73.4,87.7c-0.2,0-0.3,0-0.5-0.1c-0.5-0.3-0.7-0.9-0.4-1.4l5.4-9.7c0.3-0.5,0.9-0.7,1.4-0.4
	c0.5,0.3,0.7,0.9,0.4,1.4l-5.4,9.7C74.1,87.5,73.8,87.7,73.4,87.7z"/>
<path class="st2" d="M65.3,87c-0.2,0-0.3,0-0.5-0.1c-0.5-0.3-0.7-0.9-0.4-1.4l4.1-7.5c0.3-0.5,0.9-0.7,1.4-0.4
	c0.5,0.3,0.7,0.9,0.4,1.4l-4.1,7.5C66,86.8,65.7,87,65.3,87z"/>
<path class="st2" d="M58.3,85.4c-0.2,0-0.3,0-0.5-0.1c-0.5-0.3-0.7-0.9-0.4-1.4l2.4-4.3c0.3-0.5,0.9-0.7,1.4-0.4
	c0.5,0.3,0.7,0.9,0.4,1.4l-2.4,4.3C59,85.2,58.7,85.4,58.3,85.4z"/>
<path class="st2" d="M93.9,125.6c-0.3,0.1-0.7,0-0.9-0.2l-1.6,3c-0.3,0.5-0.1,1.1,0.4,1.4c0.2,0.1,0.3,0.1,0.5,0.1
	c0.4,0,0.7-0.2,0.9-0.5l1.6-3c-0.2-0.1-0.4-0.2-0.5-0.4C94.1,125.8,94,125.7,93.9,125.6z"/>
<path class="st2" d="M102.4,110.2c-0.5-0.3-1.1-0.1-1.4,0.4l-6.7,12.2c0.5-0.1,1-0.2,1.5-0.2c0.3,0,0.7-0.1,1-0.1l6-10.9
	C103.1,111,102.9,110.4,102.4,110.2z"/>
<path class="st2" d="M83.9,128c-0.2,0-0.3,0-0.5-0.1c-0.5-0.3-0.7-0.9-0.4-1.4l9-16.5c0.3-0.5,0.9-0.7,1.4-0.4s0.7,0.9,0.4,1.4
	l-9,16.5C84.6,127.8,84.3,128,83.9,128z"/>
<path class="st2" d="M75.9,125.5c-0.2,0-0.3,0-0.5-0.1c-0.5-0.3-0.7-0.9-0.4-1.4l6.9-12.6c0.3-0.5,0.9-0.7,1.4-0.4
	c0.5,0.3,0.7,0.9,0.4,1.4L76.8,125C76.6,125.4,76.2,125.5,75.9,125.5z"/>
<path class="st2" d="M67.7,124c-0.2,0-0.3,0-0.5-0.1c-0.5-0.3-0.7-0.9-0.4-1.4l5.4-9.9c0.3-0.5,0.9-0.7,1.4-0.4
	c0.5,0.3,0.7,0.9,0.4,1.4l-5.4,9.9C68.4,123.8,68.1,124,67.7,124z"/>
<path class="st2" d="M60.3,121.7c-0.2,0-0.3,0-0.5-0.1c-0.5-0.3-0.7-0.9-0.4-1.4l2.9-5.4c0.3-0.5,0.9-0.7,1.4-0.4
	c0.5,0.3,0.7,0.9,0.4,1.4l-2.9,5.4C61,121.5,60.7,121.7,60.3,121.7z"/>
<g>
	<path class="st8" d="M97.8,127.8C97.8,127.8,97.8,127.8,97.8,127.8c-1.9,0-6.1-0.7-6.6-3c-0.1-0.6,0-1.1,0.3-1.6
		c0.8-1.1,2.8-1.9,6.2-2.3c1.5-0.2,3.7-0.2,4.6-0.2l0.3,0c0.6,0,1,0.4,1,1s-0.4,1-1,1l-0.3,0c-0.9,0-3,0-4.3,0.2
		c-3.4,0.4-4.7,1.2-4.8,1.5c0.1,0.5,2.5,1.4,4.6,1.4c0,0,0,0,0,0c3.7,0,7.1-1.1,7.1-1.1c0.5-0.2,1.1,0.1,1.3,0.7
		c0.2,0.5-0.1,1.1-0.7,1.3C105.4,126.7,101.7,127.8,97.8,127.8z"/>
</g>
<path class="st8" d="M126.1,128.4C126.1,128.4,126.1,128.4,126.1,128.4c-0.6,0-1-0.5-1-1l0.1-4.6c0-0.5,0.5-1,1-1c0,0,0,0,0,0
	c0.6,0,1,0.5,1,1l-0.1,4.6C127.1,128,126.6,128.4,126.1,128.4z"/>
<path class="st8" d="M101.9,134.8c-0.2,0-0.3,0-0.5-0.1c-0.5-0.3-0.7-0.9-0.4-1.4l2.1-4c0.3-0.5,0.9-0.7,1.4-0.4
	c0.5,0.3,0.7,0.9,0.4,1.4l-2.1,4C102.6,134.6,102.2,134.8,101.9,134.8z"/>
<path class="st8" d="M98.2,135.4c-0.3,0-0.6-0.1-0.8-0.4c-0.3-0.4-0.3-1.1,0.2-1.4l5.5-4.2c0.4-0.3,1.1-0.3,1.4,0.2
	c0.3,0.4,0.3,1.1-0.2,1.4l-5.5,4.2C98.6,135.3,98.4,135.4,98.2,135.4z"/>
<path class="st2" d="M100.7,130.7c-1,0-2.1,0-3.3-0.1c-6.5-0.2-12.3-1.9-19-3.8c-8-2.3-17-4.9-30.1-6c-0.8-0.1-1.5-0.7-1.5-1.6
	c-0.1-1,0.5-1.8,1.4-2c9.1-2.3,32-7.6,47.3-7.9c11-0.3,19.8,3.5,27.5,6.8c2.2,0.9,4.4,1.8,6.4,2.6c0.4,0.1,0.7,0.5,0.7,1
	s-0.3,0.8-0.7,0.9l-0.7,0.2c0.1,0.1,0.2,0.3,0.2,0.4c0.2,0.5,0,1-0.4,1.3c-0.6,0.5-8.5,4.6-10.7,5.4
	C113.8,129.4,109.5,130.7,100.7,130.7z M49.6,118.9c12.7,1.2,21.6,3.7,29.4,6c6.6,1.9,12.3,3.5,18.5,3.7c10.6,0.4,15.1-1,19.5-2.6
	c1.7-0.7,5.9-2.8,8.4-4.1c-0.1,0-0.2,0-0.2,0c-0.1,0-0.3-0.1-0.4-0.1l-1.9,0.5c-0.5,0.1-1.1-0.2-1.2-0.7c-0.1-0.5,0.2-1.1,0.7-1.2
	l3.5-0.9c-1.2-0.5-2.4-1-3.6-1.5c-7.5-3.2-16.1-6.8-26.7-6.6C80.6,111.6,57.6,117,49.6,118.9z M127.4,122.3L127.4,122.3L127.4,122.3
	z"/>
<path class="st2" d="M112.5,128.9c-3.1,0-5.8-0.9-7.9-2.5c-1.9-1.5-3-3.5-3.1-5.5c-0.1-1.7,0.8-3.4,2.4-4.8
	c2.9-2.5,7.5-3.8,11.4-3.1c0.5,0.1,0.9,0.6,0.8,1.2c-0.1,0.5-0.6,0.9-1.2,0.8c-3.3-0.6-7.3,0.5-9.7,2.6c-1.2,1-1.8,2.2-1.8,3.2
	c0.1,1.4,0.9,2.9,2.3,4c2.3,1.8,5.7,2.5,9.3,1.9c0.5-0.1,1.1,0.3,1.2,0.8c0.1,0.5-0.3,1.1-0.8,1.2
	C114.5,128.8,113.5,128.9,112.5,128.9z"/>
<path class="st8" d="M118.5,115.8c-1.5,0-2.8,1.2-2.8,2.8s1.2,2.8,2.8,2.8c1.5,0,2.8-1.2,2.8-2.8S120,115.8,118.5,115.8z M118.5,120
	c-0.8,0-1.4-0.6-1.4-1.4c0-0.8,0.6-1.4,1.4-1.4c0.8,0,1.4,0.6,1.4,1.4C119.8,119.4,119.2,120,118.5,120z"/>
<path class="st8" d="M136.5,113.1c-1.5,0-2.8,1.2-2.8,2.8s1.2,2.8,2.8,2.8c1.5,0,2.8-1.2,2.8-2.8S138,113.1,136.5,113.1z
	 M136.5,117.3c-0.8,0-1.4-0.6-1.4-1.4c0-0.8,0.6-1.4,1.4-1.4c0.8,0,1.4,0.6,1.4,1.4C137.8,116.7,137.2,117.3,136.5,117.3z"/>
<path class="st8" d="M144.8,121.4c-1.5,0-2.8,1.2-2.8,2.8s1.2,2.8,2.8,2.8c1.5,0,2.8-1.2,2.8-2.8S146.3,121.4,144.8,121.4z
	 M144.8,125.6c-0.8,0-1.4-0.6-1.4-1.4c0-0.8,0.6-1.4,1.4-1.4c0.8,0,1.4,0.6,1.4,1.4C146.1,124.9,145.5,125.6,144.8,125.6z"/>
<path class="st2" d="M29.6,141.9c-0.6,0-1-0.4-1-1V34.4c0-0.6,0.4-1,1-1s1,0.4,1,1v106.5C30.6,141.4,30.2,141.9,29.6,141.9z"/>
<path class="st2" d="M131.2,141.9H29.6c-0.6,0-1-0.4-1-1s0.4-1,1-1h101.5c0.6,0,1,0.4,1,1S131.7,141.9,131.2,141.9z"/>
<path class="st2" d="M32.9,50h-2.3c-0.6,0-1-0.4-1-1s0.4-1,1-1h2.3c0.6,0,1,0.4,1,1S33.4,50,32.9,50z"/>
<path class="st2" d="M32.9,84.3h-2.3c-0.6,0-1-0.4-1-1s0.4-1,1-1h2.3c0.6,0,1,0.4,1,1S33.4,84.3,32.9,84.3z"/>
<path class="st2" d="M32.9,118.7h-2.3c-0.6,0-1-0.4-1-1s0.4-1,1-1h2.3c0.6,0,1,0.4,1,1S33.4,118.7,32.9,118.7z"/>
<path class="st2" d="M134.9,126.7c-0.3,0-0.5-0.1-0.7-0.3c-0.4-0.4-0.4-1,0-1.4l11.6-11.4c0.4-0.4,1-0.4,1.4,0c0.4,0.4,0.4,1,0,1.4
	l-11.6,11.4C135.4,126.6,135.2,126.7,134.9,126.7z"/>
<path class="st14" d="M127.1,75.5c-1.5,0-2.8,1.2-2.8,2.8c0,1.5,1.2,2.8,2.8,2.8c1.5,0,2.8-1.2,2.8-2.8
	C129.9,76.7,128.7,75.5,127.1,75.5z M127.1,79.6c-0.8,0-1.4-0.6-1.4-1.4c0-0.8,0.6-1.4,1.4-1.4c0.8,0,1.4,0.6,1.4,1.4
	C128.5,79,127.9,79.6,127.1,79.6z"/>
<path class="st14" d="M135.4,83.8c-1.5,0-2.8,1.2-2.8,2.8s1.2,2.8,2.8,2.8c1.5,0,2.8-1.2,2.8-2.8S137,83.8,135.4,83.8z M135.4,87.9
	c-0.8,0-1.4-0.6-1.4-1.4c0-0.8,0.6-1.4,1.4-1.4c0.8,0,1.4,0.6,1.4,1.4C136.8,87.3,136.2,87.9,135.4,87.9z"/>
<path class="st2" d="M125.6,89.1c-0.3,0-0.5-0.1-0.7-0.3c-0.4-0.4-0.4-1,0-1.4l11.6-11.4c0.4-0.4,1-0.4,1.4,0c0.4,0.4,0.4,1,0,1.4
	l-11.6,11.4C126.1,89,125.8,89.1,125.6,89.1z"/>
<path class="st15" d="M104,42.4c-1.5,0-2.8,1.2-2.8,2.8c0,1.5,1.2,2.8,2.8,2.8c1.5,0,2.8-1.2,2.8-2.8
	C106.8,43.7,105.5,42.4,104,42.4z M104,46.6c-0.8,0-1.4-0.6-1.4-1.4c0-0.8,0.6-1.4,1.4-1.4c0.8,0,1.4,0.6,1.4,1.4
	C105.4,46,104.8,46.6,104,46.6z"/>
<path class="st15" d="M112.3,50.7c-1.5,0-2.8,1.2-2.8,2.8c0,1.5,1.2,2.8,2.8,2.8c1.5,0,2.8-1.2,2.8-2.8
	C115.1,52,113.8,50.7,112.3,50.7z M112.3,54.9c-0.8,0-1.4-0.6-1.4-1.4c0-0.8,0.6-1.4,1.4-1.4c0.8,0,1.4,0.6,1.4,1.4
	C113.7,54.2,113.1,54.9,112.3,54.9z"/>
<path class="st2" d="M102.4,56c-0.3,0-0.5-0.1-0.7-0.3c-0.4-0.4-0.4-1,0-1.4l11.6-11.4c0.4-0.4,1-0.4,1.4,0c0.4,0.4,0.4,1,0,1.4
	l-11.6,11.4C102.9,55.9,102.7,56,102.4,56z"/>
</svg>
