<?xml version="1.0" encoding="utf-8"?>
<!-- Generator: Adobe Illustrator 24.1.2, SVG Export Plug-In . SVG Version: 6.00 Build 0)  -->
<svg version="1.1" id="Layer_1" xmlns="http://www.w3.org/2000/svg" xmlns:xlink="http://www.w3.org/1999/xlink" x="0px" y="0px"
	 viewBox="0 0 174 174" style="enable-background:new 0 0 174 174;" xml:space="preserve">
<style type="text/css">
	.st0{fill:#0047BF;}
	.st1{fill:#003FC1;}
	.st2{fill:#FFFFFF;}
	.st3{fill:none;stroke:#96D5CE;stroke-width:2;stroke-linecap:round;stroke-linejoin:round;stroke-miterlimit:10;}
	.st4{fill:none;stroke:#FF704C;stroke-width:2;stroke-linecap:round;stroke-linejoin:round;stroke-miterlimit:10;}
	.st5{fill:none;stroke:#FFFFFF;stroke-width:2;stroke-linecap:round;stroke-linejoin:round;stroke-miterlimit:10;}
	.st6{fill:none;stroke:#FF804C;stroke-width:2;stroke-linecap:round;stroke-linejoin:round;stroke-miterlimit:10;}
	.st7{fill:none;stroke:#0047BF;stroke-width:2;stroke-linecap:round;stroke-linejoin:round;stroke-miterlimit:10;}
	.st8{fill:#F1D439;}
	.st9{fill:#0047BF;stroke:#BEC8C8;stroke-width:2;stroke-linecap:round;stroke-linejoin:round;stroke-miterlimit:10;}
	.st10{fill:none;stroke:#FF7E51;stroke-width:2;stroke-linecap:round;stroke-linejoin:round;stroke-miterlimit:10;}
	.st11{fill:none;stroke:#A3D5D0;stroke-width:2;stroke-linecap:round;stroke-linejoin:round;stroke-miterlimit:10;}
	.st12{fill:none;stroke:#F1D439;stroke-width:2;stroke-linecap:round;stroke-linejoin:round;stroke-miterlimit:10;}
	.st13{fill:none;stroke:#E2E6E6;stroke-width:2;stroke-linecap:round;stroke-linejoin:round;stroke-miterlimit:10;}
	.st14{fill:#A3D5D0;}
	.st15{fill:#FF804C;}
	.st16{fill:none;stroke:#BEC8C8;stroke-width:2;stroke-linecap:round;stroke-linejoin:round;stroke-miterlimit:10;}
	.st17{fill:#0047BF;stroke:#0047BF;stroke-width:2;stroke-linecap:round;stroke-linejoin:round;stroke-miterlimit:10;}
	.st18{fill:#FF704C;}
	.st19{fill:none;}
	.st20{fill:#0041BD;}
	.st21{fill:none;stroke:#FFFFFF;stroke-width:1.5;stroke-linecap:round;stroke-linejoin:round;stroke-miterlimit:10;}
	.st22{fill:#0041BD;stroke:#A3D5D0;stroke-width:1.5;stroke-linecap:round;stroke-linejoin:round;stroke-miterlimit:10;}
	.st23{fill:#0041BD;stroke:#FFFFFF;stroke-width:2;stroke-linecap:round;stroke-linejoin:round;stroke-miterlimit:10;}
	.st24{fill:#0041BD;stroke:#FF804C;stroke-width:2;stroke-linecap:round;stroke-linejoin:round;stroke-miterlimit:10;}
	.st25{fill:#0041BD;stroke:#A3D5D0;stroke-width:2;stroke-linecap:round;stroke-linejoin:round;stroke-miterlimit:10;}
	.st26{fill:#0041BD;stroke:#F1D439;stroke-width:2;stroke-linecap:round;stroke-linejoin:round;stroke-miterlimit:10;}
	.st27{fill:#FF804C;stroke:#FF804C;stroke-width:2;stroke-linecap:round;stroke-linejoin:round;stroke-miterlimit:10;}
	.st28{fill:none;stroke:#FFFFFF;stroke-width:2.5;stroke-linecap:round;stroke-linejoin:round;stroke-miterlimit:10;}
	.st29{fill:#0041BD;stroke:#FF804C;stroke-width:1.5;stroke-linecap:round;stroke-linejoin:round;stroke-miterlimit:10;}
	.st30{fill:none;stroke:#FF704C;stroke-width:1.5;stroke-linecap:round;stroke-linejoin:round;stroke-miterlimit:10;}
	.st31{fill:none;stroke:#FF804C;stroke-width:1.5;stroke-linecap:round;stroke-linejoin:round;stroke-miterlimit:10;}
	.st32{fill:none;stroke:#A3D5D0;stroke-width:1.4377;stroke-linecap:round;stroke-linejoin:round;stroke-miterlimit:10;}
	.st33{fill:#0041BD;stroke:#F1D439;stroke-width:1.5;stroke-linecap:round;stroke-linejoin:round;stroke-miterlimit:10;}
	.st34{fill:none;stroke:#F1D439;stroke-width:1.5;stroke-linecap:round;stroke-linejoin:round;stroke-miterlimit:10;}
	.st35{fill:none;stroke:#A3D5D0;stroke-width:1.5;stroke-linecap:round;stroke-linejoin:round;stroke-miterlimit:10;}
	.st36{fill:none;stroke:#96D5CE;stroke-width:1.4377;stroke-linecap:round;stroke-linejoin:round;stroke-miterlimit:10;}
	.st37{fill:none;stroke:#0047BF;stroke-width:1.5;stroke-linecap:round;stroke-linejoin:round;stroke-miterlimit:10;}
	.st38{fill:#0047BF;stroke:#FF704C;stroke-width:2;stroke-linecap:round;stroke-linejoin:round;stroke-miterlimit:10;}
	.st39{fill:#0047BF;stroke:#FF804C;stroke-width:2;stroke-linecap:round;stroke-linejoin:round;stroke-miterlimit:10;}
	.st40{fill:#0047BF;stroke:#E2E6E6;stroke-width:2;stroke-linecap:round;stroke-linejoin:round;stroke-miterlimit:10;}
	.st41{fill:#0047BF;stroke:#A3D5D0;stroke-width:2;stroke-linecap:round;stroke-linejoin:round;stroke-miterlimit:10;}
	.st42{fill:#0047BF;stroke:#F1D439;stroke-width:2;stroke-linecap:round;stroke-linejoin:round;stroke-miterlimit:10;}
	.st43{fill:#0041BD;stroke:#E2E6E6;stroke-width:2;stroke-linecap:round;stroke-linejoin:round;stroke-miterlimit:10;}
	.st44{fill:#E2E6E6;}
	.st45{fill:none;stroke:#0047BF;stroke-width:1.4377;stroke-linecap:round;stroke-linejoin:round;stroke-miterlimit:10;}
	.st46{fill:#0047BF;stroke:#A3D5D0;stroke-width:1.5;stroke-linecap:round;stroke-linejoin:round;stroke-miterlimit:10;}
	.st47{fill:none;stroke:#E2E6E6;stroke-width:1.5;stroke-linecap:round;stroke-linejoin:round;stroke-miterlimit:10;}
	.st48{fill:#0047BF;stroke:#FF704C;stroke-width:1.5;stroke-linecap:round;stroke-linejoin:round;stroke-miterlimit:10;}
	.st49{fill:#0047BF;stroke:#FF804C;stroke-width:1.5;stroke-linecap:round;stroke-linejoin:round;stroke-miterlimit:10;}
	.st50{fill:#0047BF;stroke:#F1D439;stroke-width:1.5;stroke-linecap:round;stroke-linejoin:round;stroke-miterlimit:10;}
	.st51{fill:#0041BD;stroke:#0047BF;stroke-width:2;stroke-linecap:round;stroke-linejoin:round;stroke-miterlimit:10;}
	
		.st52{fill:none;stroke:#FFFFFF;stroke-width:2;stroke-linecap:round;stroke-linejoin:round;stroke-miterlimit:10;stroke-dasharray:15,5;}
	.st53{fill:#1B3570;}
	.st54{fill:#B5C0C0;}
	.st55{fill:#0047BF;stroke:#B5C0C0;stroke-width:2;stroke-linecap:round;stroke-linejoin:round;stroke-miterlimit:10;}
	.st56{fill:none;stroke:#B5C0C0;stroke-width:2;stroke-linecap:round;stroke-linejoin:round;stroke-miterlimit:10;}
	.st57{fill:#0047BF;stroke:#96D5CE;stroke-width:2;stroke-linecap:round;stroke-linejoin:round;stroke-miterlimit:10;}
	.st58{fill:#96D5CE;}
	.st59{fill:#FF7E51;}
	.st60{fill:#0B0069;}
	.st61{fill:#0047BF;stroke:#FFFFFF;stroke-width:2;stroke-linecap:round;stroke-linejoin:round;stroke-miterlimit:10;}
	.st62{fill:none;stroke:#FF7E51;stroke-width:1.5;stroke-linecap:round;stroke-linejoin:round;stroke-miterlimit:10;}
	.st63{fill:#0B0069;stroke:#FFFFFF;stroke-width:1.5;stroke-linecap:round;stroke-linejoin:round;stroke-miterlimit:10;}
</style>
<path class="st14" d="M138,44.8c-2.6,0-4-0.8-5.2-1.5c-1.2-0.6-2.1-1.2-4.3-1.2c-2.1,0-3.1,0.6-4.3,1.2c-1.2,0.7-2.6,1.5-5.2,1.5
	c-2.6,0-4-0.8-5.2-1.5c-1.2-0.6-2.1-1.2-4.3-1.2s-3.1,0.6-4.3,1.2c-1.2,0.7-2.6,1.5-5.2,1.5c-2.6,0-4-0.8-5.2-1.5
	c-1.2-0.6-2.1-1.2-4.3-1.2s-3.1,0.6-4.3,1.2c-1.2,0.7-2.6,1.5-5.2,1.5s-4-0.8-5.2-1.5c-1.2-0.6-2.1-1.2-4.3-1.2
	c-2.1,0-3.1,0.6-4.3,1.2c-1.2,0.7-2.6,1.5-5.2,1.5c-2.6,0-4-0.8-5.2-1.5c-1.2-0.6-2.1-1.2-4.3-1.2c-2.1,0-3.1,0.6-4.3,1.2
	c-1.2,0.7-2.6,1.5-5.2,1.5s-4-0.8-5.2-1.5c-1.2-0.6-2.1-1.2-4.3-1.2c-0.6,0-1-0.4-1-1s0.4-1,1-1c2.6,0,4,0.8,5.2,1.5
	c1.2,0.6,2.1,1.2,4.3,1.2c2.1,0,3.1-0.6,4.3-1.2c1.2-0.7,2.6-1.5,5.2-1.5s4,0.8,5.2,1.5c1.2,0.6,2.1,1.2,4.3,1.2
	c2.1,0,3.1-0.6,4.3-1.2c1.2-0.7,2.6-1.5,5.2-1.5c2.6,0,4,0.8,5.2,1.5c1.2,0.6,2.1,1.2,4.3,1.2s3.1-0.6,4.3-1.2
	c1.2-0.7,2.6-1.5,5.2-1.5s4,0.8,5.2,1.5c1.2,0.6,2.1,1.2,4.3,1.2s3.1-0.6,4.3-1.2c1.2-0.7,2.6-1.5,5.2-1.5c2.6,0,4,0.8,5.2,1.5
	c1.2,0.6,2.1,1.2,4.3,1.2c2.1,0,3.1-0.6,4.3-1.2c1.2-0.7,2.6-1.5,5.2-1.5c2.6,0,4,0.8,5.2,1.5c1.2,0.6,2.1,1.2,4.3,1.2
	c0.6,0,1,0.4,1,1S138.5,44.8,138,44.8z"/>
<path class="st14" d="M138,58.6c-2.6,0-4-0.8-5.2-1.5c-1.2-0.6-2.1-1.2-4.3-1.2c-2.1,0-3.1,0.6-4.3,1.2c-1.2,0.7-2.6,1.5-5.2,1.5
	c-2.6,0-4-0.8-5.2-1.5c-1.2-0.6-2.1-1.2-4.3-1.2s-3.1,0.6-4.3,1.2c-1.2,0.7-2.6,1.5-5.2,1.5c-2.6,0-4-0.8-5.2-1.5
	c-1.2-0.6-2.1-1.2-4.3-1.2s-3.1,0.6-4.3,1.2c-1.2,0.7-2.6,1.5-5.2,1.5s-4-0.8-5.2-1.5c-1.2-0.6-2.1-1.2-4.3-1.2
	c-2.1,0-3.1,0.6-4.3,1.2c-1.2,0.7-2.6,1.5-5.2,1.5c-2.6,0-4-0.8-5.2-1.5c-1.2-0.6-2.1-1.2-4.3-1.2c-2.1,0-3.1,0.6-4.3,1.2
	c-1.2,0.7-2.6,1.5-5.2,1.5s-4-0.8-5.2-1.5c-1.2-0.6-2.1-1.2-4.3-1.2c-0.6,0-1-0.4-1-1s0.4-1,1-1c2.6,0,4,0.8,5.2,1.5
	c1.2,0.6,2.1,1.2,4.3,1.2c2.1,0,3.1-0.6,4.3-1.2c1.2-0.7,2.6-1.5,5.2-1.5s4,0.8,5.2,1.5c1.2,0.6,2.1,1.2,4.3,1.2
	c2.1,0,3.1-0.6,4.3-1.2c1.2-0.7,2.6-1.5,5.2-1.5c2.6,0,4,0.8,5.2,1.5c1.2,0.6,2.1,1.2,4.3,1.2s3.1-0.6,4.3-1.2
	c1.2-0.7,2.6-1.5,5.2-1.5s4,0.8,5.2,1.5c1.2,0.6,2.1,1.2,4.3,1.2s3.1-0.6,4.3-1.2c1.2-0.7,2.6-1.5,5.2-1.5c2.6,0,4,0.8,5.2,1.5
	c1.2,0.6,2.1,1.2,4.3,1.2c2.1,0,3.1-0.6,4.3-1.2c1.2-0.7,2.6-1.5,5.2-1.5c2.6,0,4,0.8,5.2,1.5c1.2,0.6,2.1,1.2,4.3,1.2
	c0.6,0,1,0.4,1,1S138.5,58.6,138,58.6z"/>
<path class="st14" d="M138,72.3c-2.6,0-4-0.8-5.2-1.5c-1.2-0.6-2.1-1.2-4.3-1.2c-2.1,0-3.1,0.6-4.3,1.2c-1.2,0.7-2.6,1.5-5.2,1.5
	c-2.6,0-4-0.8-5.2-1.5c-1.2-0.6-2.1-1.2-4.3-1.2s-3.1,0.6-4.3,1.2c-1.2,0.7-2.6,1.5-5.2,1.5c-2.6,0-4-0.8-5.2-1.5
	c-1.2-0.6-2.1-1.2-4.3-1.2s-3.1,0.6-4.3,1.2c-1.2,0.7-2.6,1.5-5.2,1.5s-4-0.8-5.2-1.5c-1.2-0.6-2.1-1.2-4.3-1.2
	c-2.1,0-3.1,0.6-4.3,1.2c-1.2,0.7-2.6,1.5-5.2,1.5c-2.6,0-4-0.8-5.2-1.5c-1.2-0.6-2.1-1.2-4.3-1.2c-2.1,0-3.1,0.6-4.3,1.2
	c-1.2,0.7-2.6,1.5-5.2,1.5s-4-0.8-5.2-1.5c-1.2-0.6-2.1-1.2-4.3-1.2c-0.6,0-1-0.4-1-1s0.4-1,1-1c2.6,0,4,0.8,5.2,1.5
	c1.2,0.6,2.1,1.2,4.3,1.2c2.1,0,3.1-0.6,4.3-1.2c1.2-0.7,2.6-1.5,5.2-1.5s4,0.8,5.2,1.5c1.2,0.6,2.1,1.2,4.3,1.2
	c2.1,0,3.1-0.6,4.3-1.2c1.2-0.7,2.6-1.5,5.2-1.5c2.6,0,4,0.8,5.2,1.5c1.2,0.6,2.1,1.2,4.3,1.2s3.1-0.6,4.3-1.2
	c1.2-0.7,2.6-1.5,5.2-1.5s4,0.8,5.2,1.5c1.2,0.6,2.1,1.2,4.3,1.2s3.1-0.6,4.3-1.2c1.2-0.7,2.6-1.5,5.2-1.5c2.6,0,4,0.8,5.2,1.5
	c1.2,0.6,2.1,1.2,4.3,1.2c2.1,0,3.1-0.6,4.3-1.2c1.2-0.7,2.6-1.5,5.2-1.5c2.6,0,4,0.8,5.2,1.5c1.2,0.6,2.1,1.2,4.3,1.2
	c0.6,0,1,0.4,1,1S138.5,72.3,138,72.3z"/>
<g>
	<path class="st14" d="M138,86c-2.6,0-4-0.8-5.2-1.5c-1.2-0.6-2.1-1.2-4.3-1.2c-2.1,0-3.1,0.6-4.3,1.2c-1.2,0.7-2.6,1.5-5.2,1.5
		c-0.6,0-1-0.4-1-1s0.4-1,1-1c2.1,0,3.1-0.6,4.3-1.2c1.2-0.7,2.6-1.5,5.2-1.5c2.6,0,4,0.8,5.2,1.5c1.2,0.6,2.1,1.2,4.3,1.2
		c0.6,0,1,0.4,1,1S138.5,86,138,86z"/>
	<path class="st14" d="M62,86c-2.6,0-4-0.8-5.2-1.5c-1.2-0.6-2.1-1.2-4.3-1.2c-2.1,0-3.1,0.6-4.3,1.2C47,85.2,45.6,86,43,86
		s-4-0.8-5.2-1.5c-1.2-0.6-2.1-1.2-4.3-1.2c-0.6,0-1-0.4-1-1s0.4-1,1-1c2.6,0,4,0.8,5.2,1.5c1.2,0.6,2.1,1.2,4.3,1.2
		c2.1,0,3.1-0.6,4.3-1.2c1.2-0.7,2.6-1.5,5.2-1.5s4,0.8,5.2,1.5c1.2,0.6,2.1,1.2,4.3,1.2c2.1,0,3.1-0.6,4.3-1.2
		c1.2-0.7,2.6-1.5,5.2-1.5c2.6,0,4,0.8,5.2,1.5c0.5,0.3,0.7,0.9,0.4,1.4c-0.3,0.5-0.9,0.7-1.4,0.4c-1.2-0.6-2.1-1.2-4.3-1.2
		c-2.1,0-3.1,0.6-4.3,1.2C66,85.2,64.6,86,62,86z"/>
</g>
<path class="st18" d="M90.4,126.4c-0.7,0-1.3-0.3-1.8-0.9c-0.5-0.7-0.7-1.5-0.4-2.3l1-3.1c0.2-0.5,0.7-0.8,1.3-0.7
	c0.5,0.2,0.8,0.7,0.7,1.3l-1,3.2c0,0,0,0.1,0,0.1c0,0.1,0,0.2,0.1,0.3c0.1,0.1,0.2,0.2,0.2,0.1c0,0,3-0.7,5.2-1.2
	c2-0.4,8.4-2.1,8.4-2.1c0.5-0.1,1.1,0.2,1.2,0.7c0.1,0.5-0.2,1.1-0.7,1.2c-0.3,0.1-6.5,1.8-8.6,2.2c-2.2,0.4-5.1,1.2-5.2,1.2
	C90.7,126.4,90.6,126.4,90.4,126.4z"/>
<g>
	<path class="st2" d="M103,122.6c-0.2,0-0.3,0-0.5-0.1c-0.5-0.3-0.7-0.9-0.4-1.4l4.6-8.4c0.3-0.5,0.9-0.7,1.4-0.4
		c0.5,0.3,0.7,0.9,0.4,1.4l-4.6,8.4C103.7,122.4,103.4,122.6,103,122.6z"/>
	<path class="st2" d="M92.2,120.2c-0.3,0.5-0.1,1.1,0.4,1.4c0.2,0.1,0.3,0.1,0.5,0.1c0.4,0,0.7-0.2,0.9-0.5l3.6-6.6l-1.8-0.9
		L92.2,120.2z"/>
	<path class="st2" d="M109,91.5c-0.5-0.3-1.1-0.1-1.4,0.4l-7.7,14.2l2.2,0.2l7.3-13.4C109.7,92.4,109.5,91.8,109,91.5z"/>
	<path class="st2" d="M99.2,92.4c0.3-0.5,0.1-1.1-0.4-1.4c-0.5-0.3-1.1-0.1-1.4,0.4L90,105.3l2.2,0.2L99.2,92.4z"/>
	<path class="st2" d="M87.5,109.8l-4.7,8.7c-0.3,0.5-0.1,1.1,0.4,1.4c0.2,0.1,0.3,0.1,0.5,0.1c0.4,0,0.7-0.2,0.9-0.5l4.8-8.8
		L87.5,109.8z"/>
	<path class="st2" d="M74.4,117.7c-0.2,0-0.3,0-0.5-0.1c-0.5-0.3-0.7-0.9-0.4-1.4l12.2-22.3c0.3-0.5,0.9-0.7,1.4-0.4
		c0.5,0.3,0.7,0.9,0.4,1.4l-12.2,22.3C75.1,117.5,74.8,117.7,74.4,117.7z"/>
	<path class="st2" d="M65.7,114.7c-0.2,0-0.3,0-0.5-0.1c-0.5-0.3-0.7-0.9-0.4-1.4l8.5-15.6c0.3-0.5,0.9-0.7,1.4-0.4
		c0.5,0.3,0.7,0.9,0.4,1.4l-8.5,15.6C66.4,114.5,66,114.7,65.7,114.7z"/>
	<path class="st2" d="M56.3,112.8c-0.2,0-0.3,0-0.5-0.1c-0.5-0.3-0.7-0.9-0.4-1.4l4.8-8.8c0.3-0.5,0.9-0.7,1.4-0.4
		c0.5,0.3,0.7,0.9,0.4,1.4l-4.8,8.8C57,112.6,56.7,112.8,56.3,112.8z"/>
	<g>
		<path class="st15" d="M99.6,115.6c-1.3,0-2.5-0.1-3.5-0.5c-7-2.6-10.4-4.6-11.3-6.5c-0.3-0.6-0.3-1.3-0.1-1.9
			c0.9-2.3,4.4-3.1,10.5-2.3c5.4,0.7,11.4,1.7,11.4,1.7c0.5,0.1,0.9,0.6,0.8,1.1c-0.1,0.5-0.6,0.9-1.1,0.8c-0.1,0-6-0.9-11.4-1.7
			c-5.6-0.8-8,0-8.4,1c0,0-0.1,0.1,0,0.3c0.6,1.3,4,3.2,10.1,5.5c2.3,0.9,6.1,0.2,9.1-0.4c0.5-0.1,0.9-0.2,1.3-0.2
			c0.6-0.1,1.1,0.3,1.2,0.8c0.1,0.5-0.3,1.1-0.8,1.2c-0.4,0.1-0.8,0.1-1.3,0.2C104.1,115.2,101.8,115.6,99.6,115.6z"/>
	</g>
	<path class="st2" d="M119,120.9c-2.8,0-5.5-0.9-8-2.6c-3.6-2.5-5.8-6.5-5.8-10.2c0.1-7.2,6.1-11.6,11.3-13.2
		c0.5-0.2,1.1,0.1,1.3,0.7c0.2,0.5-0.1,1.1-0.7,1.3c-4.5,1.4-9.9,5.2-9.9,11.3c0,3,1.9,6.4,5,8.5c1.9,1.3,5.8,3.3,10.8,1.5
		c0.5-0.2,1.1,0.1,1.3,0.6c0.2,0.5-0.1,1.1-0.6,1.3C122.2,120.6,120.6,120.9,119,120.9z"/>
	<g>
		<path class="st18" d="M42.7,115.2c-2.1,0-4.1-0.2-6.1-0.5c-0.4-0.1-0.8-0.4-0.8-0.8s0.1-0.9,0.5-1.1c1.5-0.8,2.6-2.8,2.6-5.1
			c0-2.3-1-4.3-2.6-5.1c-0.4-0.2-0.6-0.6-0.5-1.1s0.4-0.8,0.8-0.8c2-0.3,4-0.5,6.1-0.5c5,0,9.7,0.9,13,2.4c0.5,0.2,0.7,0.8,0.5,1.3
			c-0.2,0.5-0.8,0.7-1.3,0.5c-3-1.4-7.4-2.2-12.1-2.2c-1.2,0-2.4,0.1-3.5,0.2c1.1,1.4,1.7,3.2,1.7,5.3s-0.6,3.9-1.7,5.3
			c1.2,0.1,2.3,0.2,3.5,0.2c4.6,0,9-0.8,12-2.1c0.5-0.2,1.1,0,1.3,0.5c0.2,0.5,0,1.1-0.5,1.3C52.2,114.3,47.6,115.2,42.7,115.2z"/>
	</g>
	<path class="st15" d="M63.3,102.7c-0.1,0-0.1,0-0.2,0c-1.9-0.4-3-1.1-3.4-2.2c-0.6-1.5,0.2-3.1,1-4.4c0.2-0.3,0.3-0.5,0.5-0.8
		c1.2-2.2,3-5.4,6.8-4.4c3,0.8,6.7,2.7,9.7,4.2c0.5,0.3,1,0.5,1.4,0.7c0.5,0.2,0.7,0.9,0.4,1.3c-0.2,0.5-0.8,0.7-1.3,0.4
		c-0.5-0.2-0.9-0.5-1.5-0.7c-2.9-1.5-6.5-3.3-9.3-4.1c-2-0.6-3.2,1.1-4.5,3.5c-0.2,0.3-0.3,0.6-0.5,0.9c-0.4,0.6-1.2,2-0.9,2.6
		c0.2,0.4,0.9,0.8,2,1c0.5,0.1,0.9,0.7,0.8,1.2C64.2,102.4,63.8,102.7,63.3,102.7z"/>
	<path class="st15" d="M80.5,96.9c-0.1,0-0.3,0-0.4-0.1c-0.5-0.2-0.7-0.8-0.5-1.3c0.2-0.4,0.3-0.9,0.4-1.4c0.5-2,1.2-4.7,5.1-6
		c3.8-1.3,10.3-3,14.2-3.8c3-0.6,5.6-0.2,7.6,1.3c3.2,2.3,3.8,6.3,3.8,6.5c0.1,0.5-0.3,1.1-0.9,1.1c-0.5,0.1-1-0.3-1.1-0.9
		c0,0-0.5-3.3-3-5.1c-1.5-1.1-3.6-1.4-6-0.9C95.9,87,89.4,88.7,85.8,90c-2.9,1-3.4,2.7-3.8,4.6c-0.2,0.6-0.3,1.2-0.5,1.7
		C81.2,96.7,80.9,96.9,80.5,96.9z"/>
	<path class="st18" d="M66.9,121.6c-3.6,0-5.1-1.9-6.2-3.8c-0.3-0.5-1.3-2.3-0.7-4c0.2-0.7,0.7-1.7,2.1-2.3c0.5-0.2,1.1,0,1.3,0.5
		c0.2,0.5,0,1.1-0.5,1.3c-0.6,0.3-0.9,0.6-1.1,1.1c-0.2,0.8,0.2,1.9,0.5,2.4c1.1,1.8,2.1,3,5.2,2.8c1.6-0.1,2.7-0.2,3.7-0.3
		c1.7-0.1,3-0.3,5.8-0.4c0.7,0,1-0.4,1.3-1c0.2-0.3,0.4-0.7,0.9-0.8c0.3-0.1,0.6,0,0.8,0.1c0.5,0.3,0.6,0.9,0.3,1.4
		c-0.1,0.1-0.2,0.2-0.3,0.3c-0.3,0.6-1.1,1.9-2.9,2c-2.7,0.1-4.1,0.3-5.7,0.4c-1,0.1-2.1,0.2-3.8,0.3
		C67.4,121.6,67.2,121.6,66.9,121.6z"/>
	<path class="st2" d="M103.2,122.7c-4,0-23.9-1.7-41.7-9.6c-0.9-0.4-2-0.8-4.6-0.4c-1.5,0.2-3.3-0.3-4.7-1.5c-1.2-1-1.8-2.3-1.8-3.5
		c0-2.8,3.4-5,6.4-5c1,0,2.9-0.1,4-0.5c0.7-0.3,1.4-0.6,2.2-0.8c1.7-0.6,3.4-1.3,5.3-2.1c10.9-4.5,29-9,35.9-9
		c5.9,0,10.4,2.7,15.2,5.6c4.1,2.5,8.4,5,14.2,6.5c0.4,0.1,0.6,0.4,0.7,0.7c0.1,0.4,0,0.7-0.3,1l-4.9,4.6l7.4-0.8
		c0.4,0,0.8,0.2,1,0.6c0.2,0.4,0.1,0.8-0.2,1.1C125.8,120.6,123,122.7,103.2,122.7z M59,110.6c1.6,0,2.6,0.3,3.4,0.7
		c17.5,7.7,37,9.4,40.9,9.4c17.8,0,21.1-1.5,30.4-10.5l-7.2,0.8l-1.5,1.4c-0.4,0.4-1,0.4-1.4,0c-0.4-0.4-0.4-1,0-1.4l7.6-7.1
		c-5.2-1.6-9.3-4.1-13-6.3c-4.7-2.8-8.8-5.3-14.1-5.3c-6.1,0-23.6,4.1-35.2,8.9c-1.9,0.8-3.6,1.4-5.3,2.1c-0.7,0.3-1.4,0.5-2.1,0.8
		c-1.7,0.6-4.2,0.7-4.7,0.7c-1.9,0-4.4,1.4-4.4,3c0,0.6,0.4,1.4,1.1,2c0.9,0.8,2.1,1.2,3.1,1.1C57.5,110.6,58.3,110.6,59,110.6z"/>
	<path class="st8" d="M120.8,98.6c-2.5,0-4.5,2-4.5,4.5s2,4.5,4.5,4.5c2.5,0,4.5-2,4.5-4.5S123.3,98.6,120.8,98.6z M120.8,105.3
		c-1.2,0-2.2-1-2.2-2.2c0-1.2,1-2.2,2.2-2.2c1.2,0,2.2,1,2.2,2.2C123,104.3,122.1,105.3,120.8,105.3z"/>
</g>
<path class="st14" d="M137.7,136.4H34.2c-0.6,0-1-0.4-1-1s0.4-1,1-1h103.4c0.6,0,1,0.4,1,1S138.2,136.4,137.7,136.4z"/>
</svg>
