<?xml version="1.0" encoding="utf-8"?>
<!-- Generator: Adobe Illustrator 24.1.2, SVG Export Plug-In . SVG Version: 6.00 Build 0)  -->
<svg version="1.1" id="Layer_1" xmlns="http://www.w3.org/2000/svg" xmlns:xlink="http://www.w3.org/1999/xlink" x="0px" y="0px"
	 viewBox="0 0 174 174" style="enable-background:new 0 0 174 174;" xml:space="preserve">
<style type="text/css">
	.st0{fill:#0047BF;}
	.st1{fill:#003FC1;}
	.st2{fill:#FFFFFF;}
	.st3{fill:none;stroke:#96D5CE;stroke-width:2;stroke-linecap:round;stroke-linejoin:round;stroke-miterlimit:10;}
	.st4{fill:none;stroke:#FF704C;stroke-width:2;stroke-linecap:round;stroke-linejoin:round;stroke-miterlimit:10;}
	.st5{fill:none;stroke:#FFFFFF;stroke-width:2;stroke-linecap:round;stroke-linejoin:round;stroke-miterlimit:10;}
	.st6{fill:none;stroke:#FF804C;stroke-width:2;stroke-linecap:round;stroke-linejoin:round;stroke-miterlimit:10;}
	.st7{fill:none;stroke:#0047BF;stroke-width:2;stroke-linecap:round;stroke-linejoin:round;stroke-miterlimit:10;}
	.st8{fill:#F1D439;}
	.st9{fill:#0047BF;stroke:#BEC8C8;stroke-width:2;stroke-linecap:round;stroke-linejoin:round;stroke-miterlimit:10;}
	.st10{fill:none;stroke:#FF7E51;stroke-width:2;stroke-linecap:round;stroke-linejoin:round;stroke-miterlimit:10;}
	.st11{fill:none;stroke:#A3D5D0;stroke-width:2;stroke-linecap:round;stroke-linejoin:round;stroke-miterlimit:10;}
	.st12{fill:none;stroke:#F1D439;stroke-width:2;stroke-linecap:round;stroke-linejoin:round;stroke-miterlimit:10;}
	.st13{fill:none;stroke:#E2E6E6;stroke-width:2;stroke-linecap:round;stroke-linejoin:round;stroke-miterlimit:10;}
	.st14{fill:#A3D5D0;}
	.st15{fill:#FF804C;}
	.st16{fill:none;stroke:#BEC8C8;stroke-width:2;stroke-linecap:round;stroke-linejoin:round;stroke-miterlimit:10;}
	.st17{fill:#0047BF;stroke:#0047BF;stroke-width:2;stroke-linecap:round;stroke-linejoin:round;stroke-miterlimit:10;}
	.st18{fill:#FF704C;}
	.st19{fill:none;}
	.st20{fill:#0041BD;}
	.st21{fill:none;stroke:#FFFFFF;stroke-width:1.5;stroke-linecap:round;stroke-linejoin:round;stroke-miterlimit:10;}
	.st22{fill:#0041BD;stroke:#A3D5D0;stroke-width:1.5;stroke-linecap:round;stroke-linejoin:round;stroke-miterlimit:10;}
	.st23{fill:#0041BD;stroke:#FFFFFF;stroke-width:2;stroke-linecap:round;stroke-linejoin:round;stroke-miterlimit:10;}
	.st24{fill:#0041BD;stroke:#FF804C;stroke-width:2;stroke-linecap:round;stroke-linejoin:round;stroke-miterlimit:10;}
	.st25{fill:#0041BD;stroke:#A3D5D0;stroke-width:2;stroke-linecap:round;stroke-linejoin:round;stroke-miterlimit:10;}
	.st26{fill:#0041BD;stroke:#F1D439;stroke-width:2;stroke-linecap:round;stroke-linejoin:round;stroke-miterlimit:10;}
	.st27{fill:#FF804C;stroke:#FF804C;stroke-width:2;stroke-linecap:round;stroke-linejoin:round;stroke-miterlimit:10;}
	.st28{fill:none;stroke:#FFFFFF;stroke-width:2.5;stroke-linecap:round;stroke-linejoin:round;stroke-miterlimit:10;}
	.st29{fill:#0041BD;stroke:#FF804C;stroke-width:1.5;stroke-linecap:round;stroke-linejoin:round;stroke-miterlimit:10;}
	.st30{fill:none;stroke:#FF704C;stroke-width:1.5;stroke-linecap:round;stroke-linejoin:round;stroke-miterlimit:10;}
	.st31{fill:none;stroke:#FF804C;stroke-width:1.5;stroke-linecap:round;stroke-linejoin:round;stroke-miterlimit:10;}
	.st32{fill:none;stroke:#A3D5D0;stroke-width:1.4377;stroke-linecap:round;stroke-linejoin:round;stroke-miterlimit:10;}
	.st33{fill:#0041BD;stroke:#F1D439;stroke-width:1.5;stroke-linecap:round;stroke-linejoin:round;stroke-miterlimit:10;}
	.st34{fill:none;stroke:#F1D439;stroke-width:1.5;stroke-linecap:round;stroke-linejoin:round;stroke-miterlimit:10;}
	.st35{fill:none;stroke:#A3D5D0;stroke-width:1.5;stroke-linecap:round;stroke-linejoin:round;stroke-miterlimit:10;}
	.st36{fill:none;stroke:#96D5CE;stroke-width:1.4377;stroke-linecap:round;stroke-linejoin:round;stroke-miterlimit:10;}
	.st37{fill:none;stroke:#0047BF;stroke-width:1.5;stroke-linecap:round;stroke-linejoin:round;stroke-miterlimit:10;}
	.st38{fill:#0047BF;stroke:#FF704C;stroke-width:2;stroke-linecap:round;stroke-linejoin:round;stroke-miterlimit:10;}
	.st39{fill:#0047BF;stroke:#FF804C;stroke-width:2;stroke-linecap:round;stroke-linejoin:round;stroke-miterlimit:10;}
	.st40{fill:#0047BF;stroke:#E2E6E6;stroke-width:2;stroke-linecap:round;stroke-linejoin:round;stroke-miterlimit:10;}
	.st41{fill:#0047BF;stroke:#A3D5D0;stroke-width:2;stroke-linecap:round;stroke-linejoin:round;stroke-miterlimit:10;}
	.st42{fill:#0047BF;stroke:#F1D439;stroke-width:2;stroke-linecap:round;stroke-linejoin:round;stroke-miterlimit:10;}
	.st43{fill:#0041BD;stroke:#E2E6E6;stroke-width:2;stroke-linecap:round;stroke-linejoin:round;stroke-miterlimit:10;}
	.st44{fill:#E2E6E6;}
	.st45{fill:none;stroke:#0047BF;stroke-width:1.4377;stroke-linecap:round;stroke-linejoin:round;stroke-miterlimit:10;}
	.st46{fill:#0047BF;stroke:#A3D5D0;stroke-width:1.5;stroke-linecap:round;stroke-linejoin:round;stroke-miterlimit:10;}
	.st47{fill:none;stroke:#E2E6E6;stroke-width:1.5;stroke-linecap:round;stroke-linejoin:round;stroke-miterlimit:10;}
	.st48{fill:#0047BF;stroke:#FF704C;stroke-width:1.5;stroke-linecap:round;stroke-linejoin:round;stroke-miterlimit:10;}
	.st49{fill:#0047BF;stroke:#FF804C;stroke-width:1.5;stroke-linecap:round;stroke-linejoin:round;stroke-miterlimit:10;}
	.st50{fill:#0047BF;stroke:#F1D439;stroke-width:1.5;stroke-linecap:round;stroke-linejoin:round;stroke-miterlimit:10;}
	.st51{fill:#0041BD;stroke:#0047BF;stroke-width:2;stroke-linecap:round;stroke-linejoin:round;stroke-miterlimit:10;}
	
		.st52{fill:none;stroke:#FFFFFF;stroke-width:2;stroke-linecap:round;stroke-linejoin:round;stroke-miterlimit:10;stroke-dasharray:15,5;}
	.st53{fill:#1B3570;}
	.st54{fill:#B5C0C0;}
	.st55{fill:#0047BF;stroke:#B5C0C0;stroke-width:2;stroke-linecap:round;stroke-linejoin:round;stroke-miterlimit:10;}
	.st56{fill:none;stroke:#B5C0C0;stroke-width:2;stroke-linecap:round;stroke-linejoin:round;stroke-miterlimit:10;}
	.st57{fill:#0047BF;stroke:#96D5CE;stroke-width:2;stroke-linecap:round;stroke-linejoin:round;stroke-miterlimit:10;}
	.st58{fill:#96D5CE;}
	.st59{fill:#FF7E51;}
	.st60{fill:#0B0069;}
	.st61{fill:#0047BF;stroke:#FFFFFF;stroke-width:2;stroke-linecap:round;stroke-linejoin:round;stroke-miterlimit:10;}
	.st62{fill:none;stroke:#FF7E51;stroke-width:1.5;stroke-linecap:round;stroke-linejoin:round;stroke-miterlimit:10;}
	.st63{fill:#0B0069;stroke:#FFFFFF;stroke-width:1.5;stroke-linecap:round;stroke-linejoin:round;stroke-miterlimit:10;}
</style>
<g>
	<path class="st14" d="M48.7,98.8c-0.4,0-0.8-0.1-1.1-0.2c-0.7-0.3-1.2-0.9-1.5-1.6l-0.7-1.7c-0.3-0.7-0.3-1.5,0-2.2
		c0.3-0.7,0.9-1.2,1.6-1.5l1.7-0.7c1.5-0.6,3.1,0.1,3.7,1.6l0.7,1.7c0.6,1.5-0.1,3.1-1.6,3.7l0,0l-1.7,0.7
		C49.4,98.7,49.1,98.8,48.7,98.8z M51,97L51,97L51,97z M49.7,92.8c-0.1,0-0.2,0-0.3,0.1l-1.7,0.7c-0.2,0.1-0.4,0.2-0.5,0.4
		c-0.1,0.2-0.1,0.4,0,0.6l0.7,1.7c0.1,0.2,0.2,0.4,0.4,0.5c0.2,0.1,0.4,0.1,0.6,0l1.7-0.7c0.4-0.2,0.6-0.7,0.5-1.1l-0.7-1.7
		C50.4,93,50,92.8,49.7,92.8z"/>
</g>
<g>
	<path class="st14" d="M45.5,64c-1.1,0-2.2-0.7-2.6-1.8l-0.7-1.7c-0.3-0.7-0.3-1.5,0-2.2s0.9-1.2,1.6-1.5l1.7-0.7
		c1.4-0.6,3.1,0.1,3.7,1.6l0.7,1.7c0.6,1.5-0.1,3.1-1.6,3.7l0,0l-1.7,0.7C46.2,63.9,45.9,64,45.5,64z M47.9,62.2L47.9,62.2
		L47.9,62.2z M46.5,58c-0.1,0-0.2,0-0.3,0.1l-1.7,0.7c-0.2,0.1-0.4,0.2-0.5,0.4c-0.1,0.2-0.1,0.4,0,0.6l0.7,1.7
		c0.2,0.4,0.7,0.6,1.1,0.5l1.7-0.7c0.4-0.2,0.6-0.7,0.5-1.1l-0.7-1.7C47.2,58.2,46.9,58,46.5,58z"/>
</g>
<g>
	<path class="st14" d="M40.6,73.6c-1.4,0-2.6-1.1-2.8-2.5l-0.2-1.8c-0.1-0.8,0.1-1.5,0.6-2.1c0.5-0.6,1.1-1,1.9-1.1l1.8-0.2
		c1.6-0.2,3,0.9,3.2,2.5l0.2,1.8c0.1,0.8-0.1,1.5-0.6,2.1c-0.5,0.6-1.1,1-1.9,1.1l-1.8,0.2C40.8,73.6,40.7,73.6,40.6,73.6z
		 M42.1,67.9c0,0-0.1,0-0.1,0l-1.8,0.2c-0.2,0-0.4,0.1-0.6,0.3s-0.2,0.4-0.2,0.6l0.2,1.8c0.1,0.5,0.5,0.8,0.9,0.7l1.8-0.2l0,0
		c0.2,0,0.4-0.1,0.6-0.3s0.2-0.4,0.2-0.6l-0.2-1.8C42.9,68.2,42.5,67.9,42.1,67.9z"/>
</g>
<g>
	<path class="st14" d="M52.8,108.2c-0.7,0-1.4-0.3-1.9-0.7c-0.6-0.5-0.9-1.2-0.9-2l-0.2-3.2c-0.1-1.6,1.1-2.9,2.7-3l3.2-0.2
		c0.8,0,1.5,0.2,2,0.7c0.6,0.5,0.9,1.2,0.9,2l0.2,3.2c0.1,1.6-1.1,2.9-2.7,3c0,0,0,0,0,0l-3.2,0.2C52.9,108.2,52.9,108.2,52.8,108.2
		z M56.1,107.1L56.1,107.1L56.1,107.1z M55.8,101.3C55.8,101.3,55.8,101.3,55.8,101.3l-3.2,0.2c-0.5,0-0.8,0.4-0.8,0.9l0.2,3.2
		c0,0.2,0.1,0.4,0.3,0.6c0.2,0.1,0.4,0.2,0.6,0.2l3.2-0.2c0.5,0,0.8-0.4,0.8-0.9l-0.2-3.2c0-0.2-0.1-0.4-0.3-0.6
		C56.2,101.3,56,101.3,55.8,101.3z"/>
</g>
<g>
	<path class="st14" d="M69.8,67.2c-0.2,0-0.5,0-0.7-0.1c-0.7-0.2-1.3-0.7-1.7-1.3l-1.6-2.7c-0.8-1.4-0.3-3.1,1-3.9l2.7-1.6
		c1.4-0.8,3.1-0.3,3.9,1l1.6,2.7c0.4,0.7,0.5,1.4,0.3,2.2c-0.2,0.7-0.7,1.3-1.3,1.7l0,0l-2.7,1.6C70.8,67.1,70.3,67.2,69.8,67.2z
		 M71,59.3c-0.1,0-0.3,0-0.4,0.1L67.8,61c-0.4,0.2-0.5,0.7-0.3,1.1l1.6,2.7c0.1,0.2,0.3,0.3,0.5,0.4c0.2,0.1,0.4,0,0.6-0.1l2.7-1.6
		c0.2-0.1,0.3-0.3,0.4-0.5c0.1-0.2,0-0.4-0.1-0.6l-1.6-2.7C71.5,59.4,71.2,59.3,71,59.3z M73.5,64.4L73.5,64.4L73.5,64.4z"/>
</g>
<g>
	<path class="st14" d="M90,108.2c-0.5,0-1.1-0.2-1.6-0.5l0,0l-2.6-1.7c-0.6-0.4-1.1-1.1-1.2-1.8s0-1.5,0.4-2.1l1.7-2.6
		c0.4-0.6,1.1-1.1,1.8-1.2c0.7-0.2,1.5,0,2.1,0.4l2.6,1.7c1.3,0.9,1.7,2.6,0.8,3.9l-1.7,2.6C91.9,107.8,90.9,108.2,90,108.2z
		 M89.6,106.1c0.4,0.3,0.9,0.1,1.2-0.2l1.7-2.6c0.3-0.4,0.1-0.9-0.2-1.2l-2.6-1.7c-0.2-0.1-0.4-0.2-0.6-0.1c-0.2,0-0.4,0.2-0.5,0.4
		l-1.7,2.6c-0.1,0.2-0.2,0.4-0.1,0.6c0,0.2,0.2,0.4,0.4,0.5L89.6,106.1z"/>
</g>
<g>
	<path class="st14" d="M121.6,107.8c-0.4,0-0.8-0.1-1.2-0.3l-1.6-0.8c-1.4-0.7-2-2.4-1.3-3.8l0.8-1.6c0.7-1.4,2.4-2,3.8-1.3l1.6,0.8
		c0.7,0.3,1.2,0.9,1.5,1.6c0.3,0.7,0.2,1.5-0.1,2.2l-0.8,1.6C123.7,107.2,122.7,107.8,121.6,107.8z M120.8,101.7
		c-0.3,0-0.6,0.2-0.8,0.5l-0.8,1.6c-0.2,0.4,0,0.9,0.4,1.1l1.6,0.8l0,0c0.4,0.2,0.9,0,1.1-0.4l0.8-1.6c0.1-0.2,0.1-0.4,0-0.6
		c-0.1-0.2-0.2-0.4-0.4-0.5l-1.6-0.8C121,101.8,120.9,101.7,120.8,101.7z"/>
</g>
<g>
	<path class="st14" d="M53.2,73.3c-0.1,0-0.2,0-0.2,0l0,0l-1.8-0.2c-0.8-0.1-1.4-0.4-1.9-1c-0.5-0.6-0.7-1.3-0.7-2.1l0.2-1.8
		c0.1-1.6,1.5-2.7,3.1-2.6l1.8,0.2c1.6,0.1,2.7,1.5,2.6,3.1L56,70.7c-0.1,0.8-0.4,1.4-1,1.9C54.5,73.1,53.9,73.3,53.2,73.3z
		 M53.1,71.3c0.2,0,0.4,0,0.6-0.2c0.2-0.1,0.3-0.3,0.3-0.6l0.2-1.8c0-0.5-0.3-0.9-0.8-0.9l-1.8-0.2c-0.5-0.1-0.9,0.3-0.9,0.8
		l-0.2,1.8c0,0.2,0,0.4,0.2,0.6c0.1,0.2,0.3,0.3,0.6,0.3L53.1,71.3z"/>
</g>
<g>
	<path class="st14" d="M78.2,106c-1.2,0-2.4-0.8-2.7-2.1l-0.5-1.7c-0.4-1.5,0.5-3.1,2-3.5l1.7-0.5c0.7-0.2,1.5-0.1,2.2,0.3
		c0.7,0.4,1.1,1,1.3,1.7l0.5,1.7c0.4,1.5-0.5,3.1-2,3.5l-1.7,0.5C78.7,106,78.5,106,78.2,106z M79.4,100.2c-0.1,0-0.2,0-0.2,0
		l-1.7,0.5c-0.4,0.1-0.7,0.6-0.6,1l0.5,1.7l0,0c0.1,0.4,0.6,0.7,1,0.6l1.7-0.5c0.4-0.1,0.7-0.6,0.6-1l-0.5-1.7
		c-0.1-0.2-0.2-0.4-0.4-0.5C79.7,100.2,79.6,100.2,79.4,100.2z"/>
</g>
<g>
	<path class="st14" d="M118.5,69.5c-0.4,0-0.9-0.1-1.3-0.3l0,0l-1.6-0.8c-1.4-0.7-1.9-2.4-1.2-3.8l0.8-1.6c0.3-0.7,0.9-1.2,1.7-1.4
		c0.7-0.2,1.5-0.2,2.2,0.2l1.6,0.8c0.7,0.3,1.2,0.9,1.4,1.7c0.2,0.7,0.2,1.5-0.2,2.2l-0.8,1.6c-0.3,0.7-0.9,1.2-1.7,1.4
		C119.1,69.4,118.8,69.5,118.5,69.5z M118.1,67.4c0.2,0.1,0.4,0.1,0.6,0.1c0.2-0.1,0.4-0.2,0.5-0.4l0.8-1.6c0.1-0.2,0.1-0.4,0.1-0.6
		s-0.2-0.4-0.4-0.5l-1.6-0.8c-0.2-0.1-0.4-0.1-0.6-0.1c-0.2,0.1-0.4,0.2-0.5,0.4l-0.8,1.6c-0.2,0.4-0.1,0.9,0.4,1.1L118.1,67.4z"/>
</g>
<g>
	<path class="st14" d="M106.3,65.8c-1.4,0-2.6-1.1-2.8-2.5l-0.2-1.8c-0.1-0.8,0.1-1.5,0.6-2.1c0.5-0.6,1.1-1,1.9-1.1l1.8-0.2
		c0.8-0.1,1.5,0.1,2.1,0.6c0.6,0.5,1,1.1,1.1,1.9l0.2,1.8c0.1,0.8-0.1,1.5-0.6,2.1s-1.1,1-1.9,1.1l-1.8,0.2
		C106.5,65.8,106.4,65.8,106.3,65.8z M107.8,60.2c0,0-0.1,0-0.1,0l-1.8,0.2c-0.2,0-0.4,0.1-0.6,0.3s-0.2,0.4-0.2,0.6l0.2,1.8
		c0.1,0.5,0.5,0.8,0.9,0.7l1.8-0.2l0,0c0.2,0,0.4-0.1,0.6-0.3c0.1-0.2,0.2-0.4,0.2-0.6l-0.2-1.8c0-0.2-0.1-0.4-0.3-0.6
		C108.2,60.2,108,60.2,107.8,60.2z"/>
</g>
<g>
	<path class="st14" d="M81.9,66.1c-0.2,0-0.5,0-0.7-0.1l-1.7-0.5c-1.5-0.4-2.4-2-2-3.5l0.5-1.7c0.2-0.7,0.7-1.3,1.3-1.7
		c0.7-0.4,1.4-0.5,2.2-0.3l1.7,0.5c0.7,0.2,1.3,0.7,1.7,1.3c0.4,0.7,0.5,1.4,0.3,2.2L84.6,64c-0.2,0.7-0.7,1.3-1.3,1.7
		C82.9,66,82.4,66.1,81.9,66.1z M80.6,60.2c-0.1,0-0.3,0-0.4,0.1c-0.2,0.1-0.3,0.3-0.4,0.5l-0.5,1.7c-0.1,0.4,0.1,0.9,0.6,1l1.7,0.5
		l0,0c0.2,0.1,0.4,0,0.6-0.1c0.2-0.1,0.3-0.3,0.4-0.5l0.5-1.7c0.1-0.2,0-0.4-0.1-0.6c-0.1-0.2-0.3-0.3-0.5-0.4l-1.7-0.5
		C80.8,60.2,80.7,60.2,80.6,60.2z"/>
</g>
<g>
	<path class="st14" d="M40.7,105.8c-1.2,0-2.4-0.8-2.7-2.1l-0.5-1.7c-0.4-1.5,0.5-3.1,2-3.5l1.7-0.5c0.7-0.2,1.5-0.1,2.2,0.3
		c0.7,0.4,1.1,1,1.3,1.7l0.5,1.7c0.2,0.7,0.1,1.5-0.3,2.2s-1,1.1-1.7,1.3l-1.7,0.5C41.2,105.8,41,105.8,40.7,105.8z M41.9,99.9
		c-0.1,0-0.2,0-0.2,0l-1.7,0.5c-0.2,0.1-0.4,0.2-0.5,0.4s-0.1,0.4-0.1,0.6l0.5,1.7c0.1,0.4,0.6,0.7,1,0.6l1.7-0.5l0,0
		c0.4-0.1,0.7-0.6,0.6-1l-0.5-1.7c-0.1-0.2-0.2-0.4-0.4-0.5C42.2,100,42.1,99.9,41.9,99.9z"/>
</g>
<g>
	<path class="st14" d="M111.7,108.2c-0.8,0-1.6-0.3-2.2-1l-1.1-1.4c-1-1.2-0.9-3,0.3-4l1.4-1.1c1.2-1,3-0.9,4,0.3l1.1,1.4
		c0.5,0.6,0.7,1.3,0.7,2.1c-0.1,0.8-0.4,1.4-1,1.9l-1.4,1.1C113,107.9,112.4,108.2,111.7,108.2z M111.9,102c-0.2,0-0.4,0.1-0.5,0.2
		l-1.4,1.1c-0.4,0.3-0.4,0.8-0.1,1.2l1.1,1.4c0.3,0.4,0.8,0.4,1.2,0.1l1.4-1.1v0c0.2-0.1,0.3-0.3,0.3-0.6c0-0.2,0-0.4-0.2-0.6
		l-1.1-1.4C112.4,102.1,112.2,102,111.9,102z"/>
</g>
<g>
	<g>
		<path class="st54" d="M101.7,92.5c-0.2-0.4-0.5-0.6-0.9-0.6c-0.2,0.2-0.5,0.2-0.7,0.2c-0.2,0.1-0.4,0.2-0.6,0.3
			c0-0.1,0.1-0.2,0.1-0.3c-0.1,0-0.3,0-0.4,0c-0.3,0-0.7,0-1,0c-0.7,0-1.4,0-2.1,0.1c-0.1,0-0.1,0-0.2,0c-3.1,1.3-4.7,2.4-4.8,2.4
			c-0.4,0.2-0.6,0.7-0.4,1.1c0.1,0.4,0.5,0.7,1,0.7c0,0,0,0,0,0c0.1,0,2.8-0.1,6.1-1.1c1.4-0.4,3.5-1.3,3.6-1.4
			C101.7,93.6,101.9,93,101.7,92.5z"/>
	</g>
	<g>
		<path class="st54" d="M33.5,91.2c-0.3,0-0.6-0.2-0.8-0.4c-0.2-0.3-0.3-0.6-0.1-1l0.9-2.3c0.9-2.2,0.9-4.7,0.1-7l-1-2.6
			c-0.1-0.3-0.1-0.7,0.2-1s0.6-0.4,0.9-0.4l3.5,0.5c3.4,0.4,6.8,1.3,9.9,2.6c0,0,0.1,0,0.1,0l1.8,0.9c0.5,0.3,0.7,0.9,0.4,1.3
			c-0.3,0.5-0.9,0.7-1.3,0.4l-1.7-0.9c-3-1.2-6.2-2-9.4-2.5L35,78.9l0.4,1c1,2.7,1,5.7-0.1,8.4L35,89.1l3.8-0.3
			c2.5-0.2,4.9-0.9,7.1-2.2l2.9-1.6c0.5-0.3,1.1-0.1,1.4,0.4s0.1,1.1-0.4,1.4l-2.9,1.6c-2.4,1.4-5.2,2.2-7.9,2.4L33.5,91.2
			C33.5,91.2,33.5,91.2,33.5,91.2z"/>
	</g>
	<path class="st2" d="M93.4,93.8c-0.2,0-0.3,0-0.5-0.1c-0.5-0.3-0.7-0.9-0.4-1.4l3.9-7.4c0.3-0.5,0.9-0.7,1.4-0.4
		c0.5,0.3,0.7,0.9,0.4,1.4l-3.9,7.4C94.1,93.6,93.8,93.8,93.4,93.8z"/>
	<path class="st2" d="M99.4,82.7c-0.2,0-0.3,0-0.5-0.1c-0.5-0.3-0.7-0.9-0.4-1.4l4-7.6c0.3-0.5,0.9-0.7,1.4-0.4
		c0.5,0.3,0.7,0.9,0.4,1.4l-4,7.6C100.1,82.5,99.7,82.7,99.4,82.7z"/>
	<path class="st2" d="M85.9,92.6c-0.2,0-0.3,0-0.5-0.1c-0.5-0.3-0.7-0.9-0.4-1.4l5.4-9.9c0.3-0.5,0.9-0.7,1.4-0.4
		c0.5,0.3,0.7,0.9,0.4,1.4l-5.4,9.9C86.6,92.4,86.3,92.6,85.9,92.6z"/>
	<path class="st2" d="M92.5,80.5c-0.2,0-0.3,0-0.5-0.1c-0.5-0.3-0.7-0.9-0.4-1.4l3.8-6.9c0.3-0.5,0.9-0.7,1.4-0.4
		c0.5,0.3,0.7,0.9,0.4,1.4L93.4,80C93.2,80.3,92.9,80.5,92.5,80.5z"/>
	<path class="st54" d="M99.5,87.5c-0.1,0-0.3,0-0.4-0.1c-0.1-0.1-3.1-1.4-4.6-2.4c-3.5-2.3-5.6-5.4-5.7-5.5c-0.2-0.3-0.2-0.8,0-1.1
		c0.2-0.3,0.6-0.5,1-0.4c0.3,0.1,7.5,1.5,12.7,4.1c0.5,0.2,0.7,0.9,0.4,1.3c-0.3,0.5-0.9,0.7-1.3,0.4c-3-1.5-6.8-2.6-9.4-3.3
		c0.9,0.9,2,1.9,3.3,2.8c1.3,0.9,4.3,2.2,4.3,2.2c0.5,0.2,0.7,0.8,0.5,1.3C100.2,87.2,99.9,87.5,99.5,87.5z"/>
	<g>
		<path class="st54" d="M66.2,77c-0.1-0.3-0.2-0.6-0.2-0.9L58,75c-0.9-0.1-1.8,0.2-2.5,0.8l-4.7,4.5c-0.4,0.4-0.4,1,0,1.4
			c0.2,0.2,0.5,0.3,0.7,0.3c0.2,0,0.5-0.1,0.7-0.3l4.7-4.5c0.2-0.2,0.6-0.3,0.9-0.3l9.1,1.2C66.6,77.9,66.4,77.5,66.2,77z"/>
	</g>
	<path class="st54" d="M58.6,90.9c-1,0-2-0.3-2.8-0.9l-4.5-3.2c-0.5-0.3-0.6-0.9-0.2-1.4c0.3-0.4,0.9-0.6,1.4-0.2l4.5,3.2
		c0.7,0.5,1.5,0.6,2.3,0.4l6.4-1.6c0.5-0.1,1.1,0.2,1.2,0.7s-0.2,1.1-0.7,1.2l-6.4,1.6C59.4,90.8,59,90.9,58.6,90.9z"/>
	<g>
		<path class="st54" d="M74.4,95.8c-0.6,0-1.2-0.2-1.6-0.7l-5.7-5.9c-0.4-0.4-0.4-1,0-1.4c0.4-0.4,1-0.4,1.4,0l5.7,5.9
			c0.1,0.1,0.1,0.1,0.2,0.1l13.3-2.7c0.5-0.1,1.1,0.2,1.2,0.8c0.1,0.5-0.2,1.1-0.8,1.2l-13.3,2.7C74.7,95.8,74.6,95.8,74.4,95.8z"/>
	</g>
	<g>
		<path class="st54" d="M88.8,71.8l-9.7-3c-1.7-0.5-3.5-0.1-4.7,1.1l-3.7,3.5c0.7,0.1,1.3,0.4,1.8,0.9c0.1,0,0.1,0,0.2,0.1l3.1-2.9
			c0.7-0.7,1.8-1,2.8-0.7l9.7,3c0.5,0.2,1.1-0.1,1.3-0.7S89.3,71.9,88.8,71.8z"/>
	</g>
	<g>
		<path class="st54" d="M106.5,75.2c-0.3,0-0.6-0.1-0.8-0.4l-1.9-2.4c-2.8-3.5-6.2-6.2-10.2-8.3l0,0c0.8,2.6,0.5,5.5-1,7.9l-0.7,1.2
			c-0.3,0.5-0.9,0.6-1.4,0.3c-0.5-0.3-0.6-0.9-0.3-1.4l0.7-1.2c1.3-2.1,1.5-4.7,0.5-7l-0.7-1.6c-0.2-0.4-0.1-0.8,0.2-1.1
			c0.3-0.3,0.8-0.4,1.1-0.2l2.4,1.2c4.2,2.1,7.9,5.1,10.9,8.8l1.9,2.4c0.3,0.4,0.3,1.1-0.1,1.4C106.9,75.1,106.7,75.2,106.5,75.2z"
			/>
	</g>
	<path class="st2" d="M78.8,91.1c-0.2,0-0.3,0-0.5-0.1c-0.5-0.3-0.7-0.9-0.4-1.4l9.2-16.7c0.3-0.5,0.9-0.7,1.4-0.4
		c0.5,0.3,0.7,0.9,0.4,1.4l-9.2,16.7C79.5,90.9,79.2,91.1,78.8,91.1z"/>
	<path class="st2" d="M101.9,93c-0.2,0-0.3,0-0.5-0.1c-0.5-0.3-0.7-0.9-0.4-1.4l3.4-6.1c0.3-0.5,0.9-0.7,1.4-0.4
		c0.5,0.3,0.7,0.9,0.4,1.4l-3.4,6.1C102.6,92.9,102.3,93,101.9,93z"/>
	<path class="st2" d="M71.3,90.1c-0.2,0-0.3,0-0.5-0.1c-0.5-0.3-0.7-0.9-0.4-1.4l7.9-14.3c0.3-0.5,0.9-0.7,1.4-0.4
		c0.5,0.3,0.7,0.9,0.4,1.4l-7.9,14.3C72,89.9,71.7,90.1,71.3,90.1z"/>
	<path class="st2" d="M68.5,80.5c-0.4-0.3-0.7-0.7-1-1.1L63.4,87c-0.3,0.5-0.1,1.1,0.4,1.4c0.2,0.1,0.3,0.1,0.5,0.1
		c0.4,0,0.7-0.2,0.9-0.5l3.9-7.2C68.8,80.7,68.7,80.7,68.5,80.5z"/>
	<path class="st2" d="M57.1,87.3c-0.2,0-0.3,0-0.5-0.1c-0.5-0.3-0.7-0.9-0.4-1.4l4-7.4c0.3-0.5,0.9-0.7,1.4-0.4
		c0.5,0.3,0.7,0.9,0.4,1.4l-4,7.4C57.8,87.1,57.4,87.3,57.1,87.3z"/>
	<path class="st2" d="M128.7,84.8c-1.2-0.7-2.4-1.6-3.7-2.4c-7.3-4.8-16.4-10.8-30-10.8c-6.3,0-14,1.5-21.7,3.2
		c0,0.1,0.1,0.3,0.1,0.4c0.1,0.2,0.2,0.5,0.2,0.7c0,0.3,0,0.5,0,0.8c7.6-1.8,15.2-3.2,21.3-3.2c13.1,0,21.9,5.8,28.9,10.5
		c0.5,0.3,1,0.7,1.5,1l-5.2,0.8c-0.5,0.1-0.9,0.6-0.8,1.1c0.1,0.5,0.6,0.9,1.1,0.8l3.5-0.5c0.1,0.1,0.3,0.2,0.4,0.3
		c-0.3,0.1-0.5,0.1-0.8,0.2c-2.7,0.7-6.4,1.7-9.5,2.2c-3.3,0.6-11.6,1.8-14.8,1.8c-0.4,0-1.2,0-2.1,0c-1.6,0-3.4,0-3.8,0
		c-5.9-0.8-11.2-1.7-17.3-2.9c-9.1-1.7-19.3-3.5-34.5-5.3c0.8-0.1,1.8-0.3,2.9-0.5c2.7-0.4,6.1-0.9,9.5-1.7c3.1-0.7,6.5-1.5,10-2.4
		c0.9-0.2,1.9-0.5,2.8-0.7c0,0,0,0,0,0c-0.2-0.4-0.4-0.9-0.6-1.3c-0.1-0.2-0.1-0.3-0.2-0.5c-0.9,0.2-1.7,0.4-2.6,0.6
		c-3.5,0.9-6.8,1.7-9.9,2.4c-3.3,0.7-6.7,1.3-9.3,1.7c-1.7,0.3-3.3,0.5-4.4,0.7c-0.9,0.2-1.5,1-1.5,1.9c0,0.9,0.7,1.5,1.6,1.6
		c16,1.8,26.5,3.7,35.8,5.4c6.2,1.1,11.6,2.1,17.5,2.9c0,0,0.1,0,0.1,0c0,0,4.7,0,5.9,0c0.1,0,0.2,0,0.3,0c1.3,0,3.3-0.2,5.4-0.4
		c0-0.1-0.1-0.2-0.1-0.4c0-0.2,0.1-0.5,0.3-0.7c0.2-0.2,0.5-0.3,0.7-0.3h1.1c0.1,0,0.2-0.1,0.3-0.1c0.2-0.1,0.5-0.1,0.7-0.1
		c0.4,0,0.8,0,1.2,0.1c0.3,0.1,0.5,0.2,0.6,0.5c0.1,0.1,0.1,0.2,0.1,0.4c1.8-0.3,3.4-0.5,4.5-0.7c3.2-0.6,6.9-1.6,9.6-2.3
		c1.3-0.4,2.5-0.7,3.3-0.8c0.5-0.1,0.9-0.6,1-1.1c0-0.4-0.1-0.8-0.5-1l0.4-0.1c0.4-0.1,0.7-0.4,0.8-0.8
		C129.2,85.5,129,85,128.7,84.8z"/>
	<path class="st2" d="M113.5,92c-3.9,0-6.2-1.8-7.4-3c-2.1-2.2-3-5.4-2.2-7.8c0.6-1.7,2-3.2,3.9-4c2.9-1.2,6.5-1,9.9,0.7
		c0.5,0.2,0.7,0.8,0.4,1.3s-0.8,0.7-1.3,0.4c-2.8-1.4-5.9-1.6-8.2-0.7c-1.4,0.6-2.4,1.6-2.8,2.8c-0.5,1.4,0,3.9,1.8,5.8
		c1.3,1.3,4.2,3.3,9.4,1.9c0.5-0.1,1.1,0.2,1.2,0.7c0.1,0.5-0.2,1.1-0.7,1.2C116,91.8,114.7,92,113.5,92z"/>
	<path class="st8" d="M117.8,79.8c-1.4,0-2.6,1.2-2.6,2.6c0,1.4,1.2,2.6,2.6,2.6c1.4,0,2.6-1.2,2.6-2.6
		C120.4,81,119.2,79.8,117.8,79.8z M117.8,83.7c-0.7,0-1.3-0.6-1.3-1.3c0-0.7,0.6-1.3,1.3-1.3c0.7,0,1.3,0.6,1.3,1.3
		C119,83.1,118.5,83.7,117.8,83.7z"/>
</g>
<path class="st2" d="M120.3,114.7H42.5c-8.8,0-16-7.2-16-16V66.8c0-8.8,7.2-16,16-16h77.9c8.8,0,16,7.2,16,16v31.9
	C136.3,107.5,129.2,114.7,120.3,114.7z M42.5,52.8c-7.7,0-14,6.3-14,14v31.9c0,7.7,6.3,14,14,14h77.9c7.7,0,14-6.3,14-14V66.8
	c0-7.7-6.3-14-14-14H42.5z"/>
<g>
	<path class="st14" d="M69.5,81.8c-0.2,0-0.5,0-0.7-0.1c-0.7-0.2-1.3-0.7-1.7-1.3l-1.6-2.7c-0.4-0.7-0.5-1.4-0.3-2.2
		c0.2-0.7,0.7-1.3,1.3-1.7l2.7-1.6c1.4-0.8,3.1-0.3,3.9,1l1.6,2.7c0.4,0.7,0.5,1.4,0.3,2.2c-0.2,0.7-0.7,1.3-1.3,1.7l-2.7,1.6
		C70.5,81.6,70,81.8,69.5,81.8z M70.7,73.8c-0.1,0-0.3,0-0.4,0.1l-2.7,1.6c-0.2,0.1-0.3,0.3-0.4,0.5s0,0.4,0.1,0.6l1.6,2.7
		c0.1,0.2,0.3,0.3,0.5,0.4c0.2,0.1,0.4,0,0.6-0.1l2.7-1.6l0,0c0.2-0.1,0.3-0.3,0.4-0.5s0-0.4-0.1-0.6l-1.6-2.7
		C71.2,73.9,71,73.8,70.7,73.8z"/>
</g>
<g>
	<path class="st14" d="M107.6,98.3c-0.5,0-1-0.1-1.4-0.4c-0.7-0.4-1.1-1-1.3-1.7l-0.5-1.7c-0.2-0.7-0.1-1.5,0.3-2.2
		c0.4-0.7,1-1.1,1.7-1.3l1.7-0.5c0.7-0.2,1.5-0.1,2.2,0.3c0.7,0.4,1.1,1,1.3,1.7l0.5,1.7c0.4,1.5-0.5,3.1-2,3.5l-1.7,0.5
		C108.1,98.3,107.8,98.3,107.6,98.3z M108.8,92.5c-0.1,0-0.2,0-0.2,0l-1.7,0.5c-0.2,0.1-0.4,0.2-0.5,0.4s-0.1,0.4-0.1,0.6l0.5,1.7
		c0.1,0.2,0.2,0.4,0.4,0.5c0.2,0.1,0.4,0.1,0.6,0.1l1.7-0.5l0,0c0.4-0.1,0.7-0.6,0.6-1l-0.5-1.7C109.5,92.7,109.2,92.5,108.8,92.5z"
		/>
</g>
<path class="st2" d="M54.6,124.1c-5.9,0-9.6-2.8-13.2-5.5c-0.5-0.4-1.1-0.8-1.7-1.2c0,0-0.1,0-0.1-0.1l-9.2-8.5
	c-0.4-0.4-0.4-1-0.1-1.4c0.4-0.4,1-0.4,1.4-0.1l9.1,8.5c0.6,0.4,1.1,0.8,1.6,1.2c3.6,2.7,6.8,5.1,12,5.1l67.2-0.4
	c5.8,0,11.2-2.3,15.3-6.4c4.1-4.1,6.3-9.5,6.3-15.3l-0.1-20.5c0-4.7-1.2-8.6-3.8-12.5c-2.4-3.5-10-11-10.1-11.1
	c-0.4-0.4-0.4-1,0-1.4c0.4-0.4,1-0.4,1.4,0c0.3,0.3,7.8,7.7,10.4,11.4c2.8,4.2,4.2,8.5,4.2,13.6l0.1,20.5c0,6.3-2.4,12.3-6.9,16.8
	c-4.5,4.5-10.4,7-16.7,7L54.6,124.1z"/>
</svg>
