<?xml version="1.0" encoding="utf-8"?>
<!-- Generator: Adobe Illustrator 24.1.2, SVG Export Plug-In . SVG Version: 6.00 Build 0)  -->
<svg version="1.1" id="Layer_1" xmlns="http://www.w3.org/2000/svg" xmlns:xlink="http://www.w3.org/1999/xlink" x="0px" y="0px"
	 viewBox="0 0 174 174" style="enable-background:new 0 0 174 174;" xml:space="preserve">
<style type="text/css">
	.st0{fill:#0047BF;}
	.st1{fill:#003FC1;}
	.st2{fill:#FFFFFF;}
	.st3{fill:none;stroke:#96D5CE;stroke-width:2;stroke-linecap:round;stroke-linejoin:round;stroke-miterlimit:10;}
	.st4{fill:none;stroke:#FF704C;stroke-width:2;stroke-linecap:round;stroke-linejoin:round;stroke-miterlimit:10;}
	.st5{fill:none;stroke:#FFFFFF;stroke-width:2;stroke-linecap:round;stroke-linejoin:round;stroke-miterlimit:10;}
	.st6{fill:none;stroke:#FF804C;stroke-width:2;stroke-linecap:round;stroke-linejoin:round;stroke-miterlimit:10;}
	.st7{fill:none;stroke:#0047BF;stroke-width:2;stroke-linecap:round;stroke-linejoin:round;stroke-miterlimit:10;}
	.st8{fill:#F1D439;}
	.st9{fill:#0047BF;stroke:#BEC8C8;stroke-width:2;stroke-linecap:round;stroke-linejoin:round;stroke-miterlimit:10;}
	.st10{fill:none;stroke:#FF7E51;stroke-width:2;stroke-linecap:round;stroke-linejoin:round;stroke-miterlimit:10;}
	.st11{fill:none;stroke:#A3D5D0;stroke-width:2;stroke-linecap:round;stroke-linejoin:round;stroke-miterlimit:10;}
	.st12{fill:none;stroke:#F1D439;stroke-width:2;stroke-linecap:round;stroke-linejoin:round;stroke-miterlimit:10;}
	.st13{fill:none;stroke:#E2E6E6;stroke-width:2;stroke-linecap:round;stroke-linejoin:round;stroke-miterlimit:10;}
	.st14{fill:#A3D5D0;}
	.st15{fill:#FF804C;}
	.st16{fill:none;stroke:#BEC8C8;stroke-width:2;stroke-linecap:round;stroke-linejoin:round;stroke-miterlimit:10;}
	.st17{fill:#0047BF;stroke:#0047BF;stroke-width:2;stroke-linecap:round;stroke-linejoin:round;stroke-miterlimit:10;}
	.st18{fill:#FF704C;}
	.st19{fill:none;}
	.st20{fill:#0041BD;}
	.st21{fill:none;stroke:#FFFFFF;stroke-width:1.5;stroke-linecap:round;stroke-linejoin:round;stroke-miterlimit:10;}
	.st22{fill:#0041BD;stroke:#A3D5D0;stroke-width:1.5;stroke-linecap:round;stroke-linejoin:round;stroke-miterlimit:10;}
	.st23{fill:#0041BD;stroke:#FFFFFF;stroke-width:2;stroke-linecap:round;stroke-linejoin:round;stroke-miterlimit:10;}
	.st24{fill:#0041BD;stroke:#FF804C;stroke-width:2;stroke-linecap:round;stroke-linejoin:round;stroke-miterlimit:10;}
	.st25{fill:#0041BD;stroke:#A3D5D0;stroke-width:2;stroke-linecap:round;stroke-linejoin:round;stroke-miterlimit:10;}
	.st26{fill:#0041BD;stroke:#F1D439;stroke-width:2;stroke-linecap:round;stroke-linejoin:round;stroke-miterlimit:10;}
	.st27{fill:#FF804C;stroke:#FF804C;stroke-width:2;stroke-linecap:round;stroke-linejoin:round;stroke-miterlimit:10;}
	.st28{fill:none;stroke:#FFFFFF;stroke-width:2.5;stroke-linecap:round;stroke-linejoin:round;stroke-miterlimit:10;}
	.st29{fill:#0041BD;stroke:#FF804C;stroke-width:1.5;stroke-linecap:round;stroke-linejoin:round;stroke-miterlimit:10;}
	.st30{fill:none;stroke:#FF704C;stroke-width:1.5;stroke-linecap:round;stroke-linejoin:round;stroke-miterlimit:10;}
	.st31{fill:none;stroke:#FF804C;stroke-width:1.5;stroke-linecap:round;stroke-linejoin:round;stroke-miterlimit:10;}
	.st32{fill:none;stroke:#A3D5D0;stroke-width:1.4377;stroke-linecap:round;stroke-linejoin:round;stroke-miterlimit:10;}
	.st33{fill:#0041BD;stroke:#F1D439;stroke-width:1.5;stroke-linecap:round;stroke-linejoin:round;stroke-miterlimit:10;}
	.st34{fill:none;stroke:#F1D439;stroke-width:1.5;stroke-linecap:round;stroke-linejoin:round;stroke-miterlimit:10;}
	.st35{fill:none;stroke:#A3D5D0;stroke-width:1.5;stroke-linecap:round;stroke-linejoin:round;stroke-miterlimit:10;}
	.st36{fill:none;stroke:#96D5CE;stroke-width:1.4377;stroke-linecap:round;stroke-linejoin:round;stroke-miterlimit:10;}
	.st37{fill:none;stroke:#0047BF;stroke-width:1.5;stroke-linecap:round;stroke-linejoin:round;stroke-miterlimit:10;}
	.st38{fill:#0047BF;stroke:#FF704C;stroke-width:2;stroke-linecap:round;stroke-linejoin:round;stroke-miterlimit:10;}
	.st39{fill:#0047BF;stroke:#FF804C;stroke-width:2;stroke-linecap:round;stroke-linejoin:round;stroke-miterlimit:10;}
	.st40{fill:#0047BF;stroke:#E2E6E6;stroke-width:2;stroke-linecap:round;stroke-linejoin:round;stroke-miterlimit:10;}
	.st41{fill:#0047BF;stroke:#A3D5D0;stroke-width:2;stroke-linecap:round;stroke-linejoin:round;stroke-miterlimit:10;}
	.st42{fill:#0047BF;stroke:#F1D439;stroke-width:2;stroke-linecap:round;stroke-linejoin:round;stroke-miterlimit:10;}
	.st43{fill:#0041BD;stroke:#E2E6E6;stroke-width:2;stroke-linecap:round;stroke-linejoin:round;stroke-miterlimit:10;}
	.st44{fill:#E2E6E6;}
	.st45{fill:none;stroke:#0047BF;stroke-width:1.4377;stroke-linecap:round;stroke-linejoin:round;stroke-miterlimit:10;}
	.st46{fill:#0047BF;stroke:#A3D5D0;stroke-width:1.5;stroke-linecap:round;stroke-linejoin:round;stroke-miterlimit:10;}
	.st47{fill:none;stroke:#E2E6E6;stroke-width:1.5;stroke-linecap:round;stroke-linejoin:round;stroke-miterlimit:10;}
	.st48{fill:#0047BF;stroke:#FF704C;stroke-width:1.5;stroke-linecap:round;stroke-linejoin:round;stroke-miterlimit:10;}
	.st49{fill:#0047BF;stroke:#FF804C;stroke-width:1.5;stroke-linecap:round;stroke-linejoin:round;stroke-miterlimit:10;}
	.st50{fill:#0047BF;stroke:#F1D439;stroke-width:1.5;stroke-linecap:round;stroke-linejoin:round;stroke-miterlimit:10;}
	.st51{fill:#0041BD;stroke:#0047BF;stroke-width:2;stroke-linecap:round;stroke-linejoin:round;stroke-miterlimit:10;}
	
		.st52{fill:none;stroke:#FFFFFF;stroke-width:2;stroke-linecap:round;stroke-linejoin:round;stroke-miterlimit:10;stroke-dasharray:15,5;}
	.st53{fill:#1B3570;}
	.st54{fill:#B5C0C0;}
	.st55{fill:#0047BF;stroke:#B5C0C0;stroke-width:2;stroke-linecap:round;stroke-linejoin:round;stroke-miterlimit:10;}
	.st56{fill:none;stroke:#B5C0C0;stroke-width:2;stroke-linecap:round;stroke-linejoin:round;stroke-miterlimit:10;}
	.st57{fill:#0047BF;stroke:#96D5CE;stroke-width:2;stroke-linecap:round;stroke-linejoin:round;stroke-miterlimit:10;}
	.st58{fill:#96D5CE;}
	.st59{fill:#FF7E51;}
	.st60{fill:#0B0069;}
	.st61{fill:#0047BF;stroke:#FFFFFF;stroke-width:2;stroke-linecap:round;stroke-linejoin:round;stroke-miterlimit:10;}
	.st62{fill:none;stroke:#FF7E51;stroke-width:1.5;stroke-linecap:round;stroke-linejoin:round;stroke-miterlimit:10;}
	.st63{fill:#0B0069;stroke:#FFFFFF;stroke-width:1.5;stroke-linecap:round;stroke-linejoin:round;stroke-miterlimit:10;}
</style>
<path class="st2" d="M134.3,61.4l0-6c0-0.1,0-0.1,0-0.2c0-0.1,0-0.2,0-0.3c0-4.9-15.7-6.7-26.3-6.7s-26.3,1.8-26.3,6.7
	c0,0.1,0,0.3,0,0.4c0,0.1,0,0.1,0,0.2l0,6.1c0,0,0,0,0,0l0,1.2c0,0,0,0,0,0c0,0,0,0,0,0l0,6.8c0,0,0,0,0,0l0,1.2c0,0,0,0,0,0
	c0,0,0,0,0,0l0,5.6c0.7,0.5,1.4,1.2,2,1.8c0,0,0,0,0,0l0-4.6c4.6,2.8,16,4,24.3,4c8.3,0,19.7-1.1,24.3-4l0,5.2c0,0,0,0,0,0
	c-0.1,1.7-8.4,4.7-24.3,4.7c-8.4,0-14.7-0.9-18.7-1.9c0.8,0.6,1.5,1.3,1.8,2.3c0,0,0,0.1,0,0.1c5.2,1,11.7,1.5,17,1.5
	c8.3,0,19.7-1.1,24.3-4l0,5.2c0,0,0,0,0,0c-0.1,1.7-8.4,4.7-24.3,4.7c-5.3,0-9.7-0.3-13.3-0.9c0.2,0.6,0.4,1.3,0.5,2
	c4.3,0.6,8.9,0.8,12.8,0.8c8.3,0,19.7-1.1,24.3-4l0,5.2c0,0,0,0,0,0c-0.1,1.6-8.7,4.7-24.3,4.7c-4.3,0-8-0.2-11.1-0.6
	c0,0.5,0,1,0,1.6c0,0.1,0,0.2,0,0.4c0,0,0,0,0,0.1c3.8,0.4,7.7,0.6,11.1,0.6c8.3,0,19.7-1.1,24.3-4l0,5.2c0,0,0,0,0,0
	c-0.1,1.6-8.7,4.7-24.3,4.7c-4.1,0-7.7-0.2-10.8-0.6c0,0.7,0,1.3-0.1,2c3.7,0.4,7.6,0.6,10.9,0.6c8.3,0,19.7-1.1,24.3-4l0,5.2
	c0,0,0,0,0,0c-0.1,1.6-8.7,4.7-24.3,4.7c-4.7,0-8.8-0.3-12.2-0.7c-0.2,0.6-0.5,1.3-0.7,1.9c4.3,0.6,9,0.8,12.9,0.8
	c8.3,0,19.7-1.1,24.3-4l0,5.2c0,0,0,0,0,0c-0.1,1.6-8.7,4.7-24.3,4.7c-6.6,0-11.9-0.6-15.9-1.3c-0.4,0.6-0.8,1.2-1.2,1.8
	c5.2,1.1,11.8,1.5,17,1.5c8.3,0,19.7-1.1,24.3-4l0,5.2c0,0,0,0,0,0c-0.1,1.6-8.7,4.7-24.3,4.7c-10.1,0-17.2-1.3-21-2.6
	c-0.1,0.1-0.3,0.3-0.4,0.4c-0.4,0.4-0.9,0.7-1.3,1c5.2,2.3,15.3,3.2,22.8,3.2c10.6,0,26.3-1.8,26.3-6.7c0,0,0,0,0-0.1l0-9.2
	c0,0,0,0,0,0l0-7.9c0,0,0,0,0,0l0-7.9c0,0,0,0,0,0l0-7.9c0,0,0,0,0,0l0-7.9c0,0,0,0,0,0l0-7.9c0,0,0,0,0,0l0-7.9c0,0,0,0,0,0
	L134.3,61.4C134.3,61.4,134.3,61.4,134.3,61.4z M108.1,50.2c15.7,0,24.3,3.1,24.3,4.7s-8.6,4.7-24.3,4.7s-24.3-3.1-24.3-4.7
	S92.4,50.2,108.1,50.2z M132.3,70.7C132.3,70.7,132.3,70.7,132.3,70.7c-0.1,1.7-8.4,4.7-24.3,4.7c-15.8,0-24.2-3-24.3-4.7
	c0,0,0,0,0-0.1l0-5.2c4.6,2.8,16,4,24.3,4c8.3,0,19.7-1.1,24.3-4L132.3,70.7z M132.3,62.7C132.3,62.7,132.3,62.7,132.3,62.7
	c-0.1,1.7-8.7,4.7-24.3,4.7c-15.6,0-24.1-3.1-24.3-4.7c0,0,0,0,0-0.1l0-5c4.6,2.9,16,4,24.3,4c8.3,0,19.7-1.1,24.3-4L132.3,62.7z"/>
<g>
	<g>
		<path class="st2" d="M64.2,139c-19,0-34.4-15.4-34.4-34.4c0-19,15.4-34.4,34.4-34.4c19,0,34.4,15.4,34.4,34.4
			C98.5,123.6,83.1,139,64.2,139z M64.2,72.2c-17.9,0-32.4,14.5-32.4,32.4S46.3,137,64.2,137s32.4-14.5,32.4-32.4S82,72.2,64.2,72.2
			z"/>
	</g>
	<path class="st8" d="M82.8,106.9c-0.2,0-0.3,0-0.5-0.1c-0.5-0.3-0.7-0.9-0.4-1.4c0.2-0.3,0.5-0.9,0.8-1.6c0.5-1,1-2.1,1.3-2.6
		c1.1-1.8,3.1-0.7,3.7-0.4c0.1,0.1,0.2,0.1,0.3,0.1c0.5,0.2,0.7,0.8,0.5,1.3c-0.2,0.5-0.8,0.7-1.3,0.5c-0.1,0-0.2-0.1-0.4-0.2
		c-0.2-0.1-0.8-0.5-1-0.4c-0.3,0.5-0.8,1.6-1.3,2.5c-0.3,0.7-0.7,1.3-0.8,1.6C83.5,106.7,83.1,106.9,82.8,106.9z"/>
	<path class="st8" d="M79.6,107.1c-0.3,0-0.6-0.1-0.8-0.3c-0.4-0.4-0.3-1,0.1-1.4c0.5-0.4,0.6-0.7,0.6-0.9c0-0.1-0.1-0.2-0.1-0.2
		c-3.4-3-4.4-2.9-4.4-2.9c-0.1,0-1,0.3-4.2,3.7c-0.4,0.4-1,0.4-1.4,0c-0.4-0.4-0.4-1,0-1.4c3.3-3.5,4.5-4.1,5.3-4.2
		c1.3-0.3,3.2,0.8,6.1,3.3c0.5,0.5,0.8,1.1,0.8,1.7c0,0.8-0.4,1.6-1.3,2.4C80.1,107,79.9,107.1,79.6,107.1z"/>
	<path class="st8" d="M68.8,105.4c-0.5,0-0.9-0.3-1-0.8c-0.7-3.8-1.9-4.9-2.2-5.1c-0.3-0.2-0.5-0.2-0.6-0.1c-1.2,0.2-5,3.3-6.3,4.3
		l-0.5,0.4c-0.4,0.3-1.1,0.3-1.4-0.2c-0.3-0.4-0.3-1.1,0.2-1.4l0.5-0.4c3.3-2.6,5.7-4.4,7.1-4.7c0.7-0.1,1.4,0,2.1,0.5
		c1.8,1.2,2.6,4.1,3.1,6.4c0.1,0.5-0.3,1.1-0.8,1.2C68.9,105.4,68.8,105.4,68.8,105.4z"/>
	<path class="st8" d="M78.8,122.6c-1.6,0-5.3-1.7-5.3-1.7c-0.5-0.2-0.7-0.8-0.5-1.3c0.2-0.5,0.8-0.7,1.3-0.5
		c1.6,0.8,3.7,1.5,4.4,1.5c0.7-0.5,2.8-3.3,3.6-4.6c0.4-0.6,0.8-1.1,1-1.4c0.3-0.4,1-0.5,1.4-0.2c0.4,0.3,0.5,1,0.2,1.4
		c-0.2,0.3-0.6,0.8-1,1.4c-3,4.2-4,5.3-5,5.4C78.9,122.6,78.9,122.6,78.8,122.6z M78.6,120.6L78.6,120.6L78.6,120.6z"/>
	<path class="st8" d="M91.1,101.9c-0.1,0-0.2,0-0.3,0c-0.2,0-0.3-0.1-0.4-0.2c-0.1,0-0.1,0.1-0.2,0.1c-0.5,0.2-1.1-0.1-1.3-0.6
		c0,0-0.3-0.6-1.2-1.2c-2.2-1.2-5.2,0.1-5.2,0.1c-0.5,0.2-1,0.1-1.4-0.2c-0.5-0.3-0.7-0.9-0.7-1.5c0,0,0-0.1,0-0.1l0.2-1.2
		c0.3-2,0.2-3.3,0-5c-0.1-0.6-0.1-1.2-0.2-1.9L80.3,89c0,0,0-0.1,0-0.1c0-0.6,0.3-1.1,0.8-1.4c0.4-0.2,0.8-0.3,1.2-0.1
		c0.6,0.2,5.2,1.5,7.7,5.8c2.8,4.9,2.1,8,2,8.1C91.9,101.6,91.5,101.9,91.1,101.9z M85.4,97.5c1,0,2.2,0.2,3.2,0.8
		c0.7,0.4,1.1,0.8,1.5,1.2c-0.1-1.1-0.5-3-1.9-5.4c-1.7-3-4.7-4.3-5.9-4.7l0.1,0.7c0.1,0.7,0.1,1.3,0.2,1.8c0.2,1.8,0.3,3.3,0,5.5
		l-0.1,0.5C83.2,97.7,84.2,97.5,85.4,97.5z"/>
	<path class="st2" d="M62.7,103.5c-0.5-0.2-1.1,0-1.3,0.5l-4.3,8.7c0.5,0,0.9,0,1.4,0c0.2,0,0.5,0.1,0.7,0.1l3.9-8
		C63.4,104.3,63.2,103.7,62.7,103.5z"/>
	<path class="st2" d="M55.7,115.6l-1.4,3c-0.2,0.5,0,1.1,0.5,1.3c0.1,0.1,0.3,0.1,0.4,0.1c0.4,0,0.7-0.2,0.9-0.6l1.8-3.7
		C57.1,115.7,56.4,115.6,55.7,115.6z"/>
	<path class="st2" d="M68.8,103.9c-0.5-0.2-1.1,0-1.3,0.5l-4.8,9.7c0.7,0.5,0.6,1.8-0.5,1.8c-0.1,0-0.2,0-0.3-0.1l-1.9,3.9
		c-0.2,0.5,0,1.1,0.5,1.3c0.1,0.1,0.3,0.1,0.4,0.1c0.4,0,0.7-0.2,0.9-0.6l7.6-15.5C69.5,104.7,69.3,104.1,68.8,103.9z"/>
	<path class="st2" d="M67,121.4c-0.1,0-0.3,0-0.4-0.1c-0.5-0.2-0.7-0.8-0.5-1.3l7.2-14.7c0.2-0.5,0.8-0.7,1.3-0.5
		c0.5,0.2,0.7,0.8,0.5,1.3l-7.2,14.7C67.8,121.2,67.4,121.4,67,121.4z"/>
	<path class="st2" d="M73.8,120.4c-0.1,0-0.3,0-0.4-0.1c-0.5-0.2-0.7-0.8-0.5-1.3l6.1-12.3c0.2-0.5,0.8-0.7,1.3-0.5
		c0.5,0.2,0.7,0.8,0.5,1.3l-6.1,12.3C74.5,120.2,74.1,120.4,73.8,120.4z"/>
	<path class="st2" d="M80.8,117.5c-0.1,0-0.3,0-0.4-0.1c-0.5-0.2-0.7-0.8-0.5-1.3l5.7-11.9c0.2-0.5,0.8-0.7,1.3-0.5
		c0.5,0.2,0.7,0.8,0.5,1.3l-5.7,11.9C81.5,117.3,81.2,117.5,80.8,117.5z"/>
	<g>
		<path class="st8" d="M59.7,117.2c-0.1,0-0.2,0-0.3,0c-3-0.1-5.8-1.1-5.9-1.2c-0.5-0.2-0.8-0.8-0.6-1.3c0.2-0.5,0.8-0.8,1.3-0.6
			c0,0,2.6,0.9,5.3,1.1c1.3,0.1,2.8-0.3,3.2-0.7c-0.3-0.2-1.2-0.7-3.3-1.1c-1-0.2-2.6-0.2-3.2-0.3l-0.2,0c-0.6,0-1-0.5-1-1
			c0-0.6,0.5-1,1-1l0.2,0c0.7,0,2.4,0.1,3.5,0.3c2.6,0.5,4.2,1.2,4.7,2.1c0.3,0.4,0.4,0.9,0.2,1.4C64.3,116.7,61.3,117.2,59.7,117.2
			z M62.8,114.6L62.8,114.6L62.8,114.6z"/>
	</g>
	<path class="st8" d="M39.2,118c-0.4,0-0.7-0.2-0.9-0.6l-1.4-3c-0.2-0.5,0-1.1,0.5-1.3c0.5-0.2,1.1,0,1.3,0.5l1.4,3
		c0.2,0.5,0,1.1-0.5,1.3C39.5,118,39.3,118,39.2,118z"/>
	<path class="st8" d="M57.5,126.6c-0.3,0-0.6-0.2-0.8-0.4l-3.9-5.8c-0.3-0.5-0.2-1.1,0.3-1.4c0.5-0.3,1.1-0.2,1.4,0.3l2.1,3.1
		c0.1-0.6,0.4-1.2,0.8-1.7c0.4-0.4,1-0.4,1.4-0.1c0.4,0.4,0.4,1,0.1,1.4c-0.5,0.5-0.4,2.4-0.3,3.4c0.1,0.5-0.2,0.9-0.6,1.1
		C57.7,126.6,57.6,126.6,57.5,126.6z"/>
	<path class="st2" d="M63.2,121.9c-0.1,0-0.3,0-0.4,0c-6.4-0.1-11.7-2.4-15.2-3.9c-1.1-0.5-2-0.9-2.8-1.1c-0.9-0.3-3-0.8-4.8-1.3
		c-3.4-0.8-3.5-0.9-3.8-1.1c-0.3-0.3-0.5-0.8-0.3-1.3c0.2-0.5,0.6-0.8,1.2-0.8c0.2,0,1.5-0.1,2.6-0.3l-3.8-3c-0.3-0.2-0.4-0.6-0.4-1
		c0.1-0.4,0.3-0.7,0.7-0.8c0.9-0.3,1.8-0.6,2.7-0.9c6.3-2.1,13.5-4.4,23-3.7c3,0.2,6.4,0.8,9.9,1.5c2.4,0.5,4.8,0.9,7.2,1.3
		c3.9,0.6,6.7-1.7,9.1-4.2c1.2-1.3,2.3-1.7,3.3-1.2c0.6,0.3,1.4,1.1,1.1,3.6C90.6,116.3,74.4,121.9,63.2,121.9z M41.6,113.9
		c1.5,0.4,3,0.8,3.8,1c0.8,0.3,1.8,0.7,2.9,1.2c3.5,1.6,8.4,3.7,14.4,3.8c10.2,0.2,26-5,27.6-16.5c0.1-0.8,0-1.2,0-1.5
		c-0.2,0.1-0.5,0.3-0.9,0.7c-2.7,2.8-6.1,5.5-10.8,4.8c-2.4-0.3-4.9-0.8-7.3-1.3c-3.5-0.7-6.8-1.3-9.7-1.5c-9-0.6-16,1.7-22.2,3.7
		c-0.3,0.1-0.6,0.2-0.9,0.3l4.4,3.4c0.4,0.3,0.5,1,0.2,1.4c-0.3,0.4-0.7,0.5-1.1,0.3c-0.1,0-0.2,0-0.2,0.1L41.6,113.9z"/>
	<path class="st2" d="M48.7,117.5c-0.9,0-1.9-0.1-2.8-0.3c-0.5-0.1-0.9-0.7-0.8-1.2c0.1-0.5,0.7-0.9,1.2-0.8
		c2.6,0.6,5.2,0.2,6.9-1.1c1-0.8,1.7-1.8,1.8-2.8c0.1-0.8-0.5-1.9-1.5-2.9c-1.8-1.7-4.4-2.6-6.6-2.3c-0.6,0.1-1-0.3-1.1-0.9
		c-0.1-0.5,0.3-1,0.9-1.1c3.4-0.4,6.4,1.2,8.2,2.9c1.5,1.4,2.3,3.1,2.1,4.5c-0.1,1.6-1.1,3.1-2.6,4.2
		C52.9,116.9,50.9,117.5,48.7,117.5z"/>
	<path class="st8" d="M44.1,108.8c-0.1,1.2,0.9,2.2,2,2.2c1.2,0.1,2.2-0.9,2.2-2c0.1-1.2-0.9-2.2-2-2.2
		C45.1,106.8,44.1,107.7,44.1,108.8z M45.2,108.9c0-0.6,0.5-1,1.1-1c0.6,0,1,0.5,1,1.1c0,0.6-0.5,1-1.1,1
		C45.6,109.9,45.1,109.4,45.2,108.9z"/>
	<g>
		<path class="st2" d="M54.4,92.9c-0.2,0-0.3-0.1-0.3-0.3v-7.1c0-0.2,0.1-0.3,0.3-0.3h1.3c0.2,0,0.3,0.1,0.3,0.3v3
			c0,0.1,0.1,0.2,0.2,0.1l3.7-3.2c0.2-0.2,0.4-0.3,0.7-0.3h0.8c0.2,0,0.4,0.1,0.5,0.3c0.1,0.2,0,0.4-0.2,0.6l-2.5,2.1
			c-0.1,0.1-0.1,0.1,0,0.2l2.9,3.9c0.1,0.2,0.1,0.3,0.1,0.5c-0.1,0.2-0.2,0.2-0.4,0.2h-1.1c-0.3,0-0.4,0-0.5-0.1
			c-0.1-0.1-0.2-0.1-0.3-0.3l-2.1-2.9c-0.1-0.1-0.1-0.1-0.2,0l-1.5,1.3c-0.1,0.1-0.1,0.1-0.1,0.1v1.5c0,0.2-0.1,0.3-0.3,0.3H54.4z"
			/>
		<path class="st2" d="M64.5,92.9c-0.2,0-0.3-0.1-0.3-0.3v-7.1c0-0.2,0.1-0.3,0.3-0.3h4.6c1,0,1.8,0.2,2.3,0.6
			c0.5,0.4,0.8,1.1,0.8,2.1c0,1.3-0.5,2.1-1.6,2.5c-0.1,0-0.1,0.1-0.1,0.2l1.4,1.7c0.1,0.2,0.2,0.3,0.1,0.5
			c-0.1,0.2-0.2,0.2-0.4,0.2h-1c-0.3,0-0.4-0.1-0.6-0.3l-1.6-2c0,0-0.1-0.1-0.1-0.1h-0.7h-1.3c-0.1,0-0.1,0-0.1,0.1v1.9
			c0,0.2-0.2,0.3-0.4,0.3H64.5z M68.9,88.8c0.8,0,1.2-0.3,1.2-1c0-0.6-0.4-0.9-1.2-0.9h-2.7c-0.1,0-0.1,0-0.1,0.1v1.6
			c0,0.1,0,0.1,0.1,0.1H68.9z"/>
	</g>
</g>
</svg>
