<?xml version="1.0" encoding="utf-8"?>
<!-- Generator: Adobe Illustrator 24.1.2, SVG Export Plug-In . SVG Version: 6.00 Build 0)  -->
<svg version="1.1" id="Layer_1" xmlns="http://www.w3.org/2000/svg" xmlns:xlink="http://www.w3.org/1999/xlink" x="0px" y="0px"
	 viewBox="0 0 174 174.3" style="enable-background:new 0 0 174 174.3;" xml:space="preserve">
<style type="text/css">
	.st0{fill:#0047BF;}
	.st1{fill:#003FC1;}
	.st2{fill:#FFFFFF;}
	.st3{fill:none;stroke:#96D5CE;stroke-width:2;stroke-linecap:round;stroke-linejoin:round;stroke-miterlimit:10;}
	.st4{fill:none;stroke:#FF704C;stroke-width:2;stroke-linecap:round;stroke-linejoin:round;stroke-miterlimit:10;}
	.st5{fill:none;stroke:#FFFFFF;stroke-width:2;stroke-linecap:round;stroke-linejoin:round;stroke-miterlimit:10;}
	.st6{fill:none;stroke:#FF804C;stroke-width:2;stroke-linecap:round;stroke-linejoin:round;stroke-miterlimit:10;}
	.st7{fill:none;stroke:#0047BF;stroke-width:2;stroke-linecap:round;stroke-linejoin:round;stroke-miterlimit:10;}
	.st8{fill:#F1D439;}
	.st9{fill:#0047BF;stroke:#BEC8C8;stroke-width:2;stroke-linecap:round;stroke-linejoin:round;stroke-miterlimit:10;}
	.st10{fill:none;stroke:#FF7E51;stroke-width:2;stroke-linecap:round;stroke-linejoin:round;stroke-miterlimit:10;}
	.st11{fill:none;stroke:#A3D5D0;stroke-width:2;stroke-linecap:round;stroke-linejoin:round;stroke-miterlimit:10;}
	.st12{fill:none;stroke:#F1D439;stroke-width:2;stroke-linecap:round;stroke-linejoin:round;stroke-miterlimit:10;}
	.st13{fill:none;stroke:#E2E6E6;stroke-width:2;stroke-linecap:round;stroke-linejoin:round;stroke-miterlimit:10;}
	.st14{fill:#A3D5D0;}
	.st15{fill:#FF804C;}
	.st16{fill:none;stroke:#BEC8C8;stroke-width:2;stroke-linecap:round;stroke-linejoin:round;stroke-miterlimit:10;}
	.st17{fill:#0047BF;stroke:#0047BF;stroke-width:2;stroke-linecap:round;stroke-linejoin:round;stroke-miterlimit:10;}
	.st18{fill:#FF704C;}
	.st19{fill:none;}
	.st20{fill:#0041BD;}
	.st21{fill:none;stroke:#FFFFFF;stroke-width:1.5;stroke-linecap:round;stroke-linejoin:round;stroke-miterlimit:10;}
	.st22{fill:#0041BD;stroke:#A3D5D0;stroke-width:1.5;stroke-linecap:round;stroke-linejoin:round;stroke-miterlimit:10;}
	.st23{fill:#0041BD;stroke:#FFFFFF;stroke-width:2;stroke-linecap:round;stroke-linejoin:round;stroke-miterlimit:10;}
	.st24{fill:#0041BD;stroke:#FF804C;stroke-width:2;stroke-linecap:round;stroke-linejoin:round;stroke-miterlimit:10;}
	.st25{fill:#0041BD;stroke:#A3D5D0;stroke-width:2;stroke-linecap:round;stroke-linejoin:round;stroke-miterlimit:10;}
	.st26{fill:#0041BD;stroke:#F1D439;stroke-width:2;stroke-linecap:round;stroke-linejoin:round;stroke-miterlimit:10;}
	.st27{fill:#FF804C;stroke:#FF804C;stroke-width:2;stroke-linecap:round;stroke-linejoin:round;stroke-miterlimit:10;}
	.st28{fill:none;stroke:#FFFFFF;stroke-width:2.5;stroke-linecap:round;stroke-linejoin:round;stroke-miterlimit:10;}
	.st29{fill:#0041BD;stroke:#FF804C;stroke-width:1.5;stroke-linecap:round;stroke-linejoin:round;stroke-miterlimit:10;}
	.st30{fill:none;stroke:#FF704C;stroke-width:1.5;stroke-linecap:round;stroke-linejoin:round;stroke-miterlimit:10;}
	.st31{fill:none;stroke:#FF804C;stroke-width:1.5;stroke-linecap:round;stroke-linejoin:round;stroke-miterlimit:10;}
	.st32{fill:none;stroke:#A3D5D0;stroke-width:1.4377;stroke-linecap:round;stroke-linejoin:round;stroke-miterlimit:10;}
	.st33{fill:#0041BD;stroke:#F1D439;stroke-width:1.5;stroke-linecap:round;stroke-linejoin:round;stroke-miterlimit:10;}
	.st34{fill:none;stroke:#F1D439;stroke-width:1.5;stroke-linecap:round;stroke-linejoin:round;stroke-miterlimit:10;}
	.st35{fill:none;stroke:#A3D5D0;stroke-width:1.5;stroke-linecap:round;stroke-linejoin:round;stroke-miterlimit:10;}
	.st36{fill:none;stroke:#96D5CE;stroke-width:1.4377;stroke-linecap:round;stroke-linejoin:round;stroke-miterlimit:10;}
	.st37{fill:none;stroke:#0047BF;stroke-width:1.5;stroke-linecap:round;stroke-linejoin:round;stroke-miterlimit:10;}
	.st38{fill:#0047BF;stroke:#FF704C;stroke-width:2;stroke-linecap:round;stroke-linejoin:round;stroke-miterlimit:10;}
	.st39{fill:#0047BF;stroke:#FF804C;stroke-width:2;stroke-linecap:round;stroke-linejoin:round;stroke-miterlimit:10;}
	.st40{fill:#0047BF;stroke:#E2E6E6;stroke-width:2;stroke-linecap:round;stroke-linejoin:round;stroke-miterlimit:10;}
	.st41{fill:#0047BF;stroke:#A3D5D0;stroke-width:2;stroke-linecap:round;stroke-linejoin:round;stroke-miterlimit:10;}
	.st42{fill:#0047BF;stroke:#F1D439;stroke-width:2;stroke-linecap:round;stroke-linejoin:round;stroke-miterlimit:10;}
	.st43{fill:#0041BD;stroke:#E2E6E6;stroke-width:2;stroke-linecap:round;stroke-linejoin:round;stroke-miterlimit:10;}
	.st44{fill:#E2E6E6;}
	.st45{fill:none;stroke:#0047BF;stroke-width:1.4377;stroke-linecap:round;stroke-linejoin:round;stroke-miterlimit:10;}
	.st46{fill:#0047BF;stroke:#A3D5D0;stroke-width:1.5;stroke-linecap:round;stroke-linejoin:round;stroke-miterlimit:10;}
	.st47{fill:none;stroke:#E2E6E6;stroke-width:1.5;stroke-linecap:round;stroke-linejoin:round;stroke-miterlimit:10;}
	.st48{fill:#0047BF;stroke:#FF704C;stroke-width:1.5;stroke-linecap:round;stroke-linejoin:round;stroke-miterlimit:10;}
	.st49{fill:#0047BF;stroke:#FF804C;stroke-width:1.5;stroke-linecap:round;stroke-linejoin:round;stroke-miterlimit:10;}
	.st50{fill:#0047BF;stroke:#F1D439;stroke-width:1.5;stroke-linecap:round;stroke-linejoin:round;stroke-miterlimit:10;}
	.st51{fill:#0041BD;stroke:#0047BF;stroke-width:2;stroke-linecap:round;stroke-linejoin:round;stroke-miterlimit:10;}
	
		.st52{fill:none;stroke:#FFFFFF;stroke-width:2;stroke-linecap:round;stroke-linejoin:round;stroke-miterlimit:10;stroke-dasharray:15,5;}
	.st53{fill:#1B3570;}
	.st54{fill:#B5C0C0;}
	.st55{fill:#0047BF;stroke:#B5C0C0;stroke-width:2;stroke-linecap:round;stroke-linejoin:round;stroke-miterlimit:10;}
	.st56{fill:none;stroke:#B5C0C0;stroke-width:2;stroke-linecap:round;stroke-linejoin:round;stroke-miterlimit:10;}
	.st57{fill:#0047BF;stroke:#96D5CE;stroke-width:2;stroke-linecap:round;stroke-linejoin:round;stroke-miterlimit:10;}
	.st58{fill:#96D5CE;}
	.st59{fill:#FF7E51;}
	.st60{fill:#0B0069;}
	.st61{fill:#0047BF;stroke:#FFFFFF;stroke-width:2;stroke-linecap:round;stroke-linejoin:round;stroke-miterlimit:10;}
	.st62{fill:none;stroke:#FF7E51;stroke-width:1.5;stroke-linecap:round;stroke-linejoin:round;stroke-miterlimit:10;}
	.st63{fill:#0B0069;stroke:#FFFFFF;stroke-width:1.5;stroke-linecap:round;stroke-linejoin:round;stroke-miterlimit:10;}
</style>
<g>
	<g>
		<path class="st8" d="M95.1,44c-0.2,0-0.4-0.1-0.6-0.2c-0.4-0.3-0.5-1-0.2-1.4l6.2-8.3c0.3-0.4,1-0.5,1.4-0.2
			c0.4,0.3,0.5,1,0.2,1.4l-6.2,8.3C95.7,43.9,95.4,44,95.1,44z"/>
		<path class="st8" d="M87.1,40.3c-0.1,0-0.2,0-0.3,0c-0.5-0.2-0.8-0.7-0.7-1.2l1.1-3.8c0.1-0.5,0.7-0.8,1.2-0.7
			c0.5,0.2,0.8,0.7,0.7,1.2l-1.1,3.8C88,40,87.6,40.3,87.1,40.3z"/>
		<path class="st8" d="M101.5,50.9c-0.3,0-0.7-0.2-0.8-0.5c-0.3-0.5-0.2-1.1,0.3-1.4l4.8-3c0.5-0.3,1.1-0.2,1.4,0.3
			c0.3,0.5,0.2,1.1-0.3,1.4l-4.8,3C101.9,50.9,101.7,50.9,101.5,50.9z"/>
		<path class="st8" d="M78.4,39.4c-0.5,0-0.9-0.4-1-0.9l-1.2-8.2c-0.1-0.5,0.3-1.1,0.8-1.1c0.5-0.1,1.1,0.3,1.1,0.8l1.2,8.2
			c0.1,0.5-0.3,1.1-0.8,1.1C78.5,39.4,78.4,39.4,78.4,39.4z"/>
		<path class="st8" d="M63.6,48.6c-0.2,0-0.4-0.1-0.6-0.2l-8.3-6.2c-0.4-0.3-0.5-1-0.2-1.4c0.3-0.4,1-0.5,1.4-0.2l8.3,6.2
			c0.4,0.3,0.5,1,0.2,1.4C64.2,48.4,63.9,48.6,63.6,48.6z"/>
		<path class="st8" d="M70.2,42.8c-0.3,0-0.7-0.2-0.8-0.5l-2.5-3.9c-0.3-0.5-0.2-1.1,0.3-1.4c0.5-0.3,1.1-0.2,1.4,0.3l2.5,3.9
			c0.3,0.5,0.2,1.1-0.3,1.4C70.6,42.7,70.4,42.8,70.2,42.8z"/>
		<path class="st8" d="M60.3,56.5c-0.1,0-0.2,0-0.2,0l-7.7-1.8c-0.5-0.1-0.9-0.7-0.7-1.2s0.7-0.9,1.2-0.7l7.7,1.8
			c0.5,0.1,0.9,0.7,0.7,1.2C61.1,56.2,60.7,56.5,60.3,56.5z"/>
	</g>
</g>
<path class="st8" d="M67.1,59.8c0-8.3,6.7-15,15-15s15,6.7,15,15c0,0.7-0.1,1.4-0.2,2c0.8-0.6,1.5-1.2,2.2-2c0,0,0,0,0,0
	c0-9.4-7.6-17-17-17s-17,7.6-17,17c0,1.3,0.2,2.5,0.4,3.7c0.7,0.2,1.5,0.4,2.2,0.5C67.3,62.7,67.1,61.3,67.1,59.8z"/>
<path class="st2" d="M87.5,129.9c-0.2-0.1-0.4-0.2-0.6-0.3c-0.1,0-0.2-0.1-0.3-0.1c0,0-0.2-0.1-0.2-0.1c-0.7-0.3-1.5-0.5-2.2-0.8
	H39.3V70.5h6.1c0-0.7,0-1.3-0.1-2h-7c-0.6,0-1,0.4-1,1v60.2c0,0.6,0.4,1,1,1H87c0.4,0,0.7-0.2,0.9-0.5
	C87.7,130.1,87.6,130,87.5,129.9z"/>
<path class="st2" d="M135.7,68.5h-8.1c0,0.7,0,1.3,0,2h7.1v58.2H88V71c-0.4-0.2-0.5-0.5-0.6-0.9c-0.4-0.1-0.7-0.3-1-0.5
	c-0.2-0.1-0.3-0.3-0.4-0.4c0,0.1,0,0.2,0,0.2v60.2c0,0.6,0.4,1,1,1h48.7c0.6,0,1-0.4,1-1V69.5C136.7,68.9,136.2,68.5,135.7,68.5z"/>
<g>
	<path class="st2" d="M128.4,59.7c-0.2-0.2-0.5-0.3-0.8-0.2l-5.5,0.8c-0.6,0.1-1.3,0.2-1.9,0.3c-0.1,0.3-0.1,0.6-0.2,0.9
		c0,0.2-0.1,0.4-0.1,0.6c0,0.1,0,0.2-0.1,0.4c0,0,0,0,0,0c0,0,0,0.1,0,0.1c0,0,0,0,0,0c0.9-0.1,1.7-0.3,2.6-0.4l4.4-0.6v57.1
		l-2.5,0.3c-11.3,1.5-22.3,3.9-32.6,7.2l-3.6,1.2V71.4c0,0,0,0,0-0.1c0,0,0-0.1,0-0.1c-0.1-0.1-0.1-0.2-0.2-0.3
		c-0.1-0.1-0.2-0.2-0.3-0.3c0.1,0,0.1,0.1,0.2,0.1c-0.1-0.1-0.3-0.2-0.4-0.4c0-0.1-0.1-0.2-0.1-0.2c0-0.1,0-0.2,0-0.3
		c-0.4,0-0.8-0.1-1.2-0.2v59.1c0,0.3,0.2,0.6,0.4,0.8c0.2,0.1,0.4,0.2,0.6,0.2c0.1,0,0.2,0,0.3,0l4.9-1.6
		c10.2-3.3,21.1-5.7,32.3-7.2l3.4-0.4c0.5-0.1,0.9-0.5,0.9-1V60.4C128.7,60.1,128.6,59.9,128.4,59.7z"/>
</g>
<g>
	<path class="st2" d="M87,130.7c-0.1,0-0.3,0-0.4-0.1c-0.3-0.2-0.6-0.5-0.6-0.9V69.5c0-0.3,0.1-0.6,0.4-0.8l2.7-2.2
		c8-6.4,16.4-12.1,25.2-17l4.4-2.4c0.3-0.2,0.7-0.2,1,0c0.3,0.2,0.5,0.5,0.5,0.9v60.2c0,0.4-0.2,0.7-0.5,0.9l-2.7,1.5
		c-8.8,4.8-17.4,10.4-25.4,16.8l-3.8,3C87.4,130.6,87.2,130.7,87,130.7z M88,70v57.6l2.2-1.8c8.1-6.5,16.8-12.2,25.7-17l2.2-1.2
		V49.8l-2.9,1.6c-8.6,4.8-17,10.4-24.9,16.8L88,70z"/>
</g>
<path class="st14" d="M96.8,73.7c-0.3,0-0.6-0.1-0.8-0.4c-0.3-0.4-0.2-1.1,0.2-1.4c3.5-2.6,7.2-4.9,11-7l2.7-1.5
	c0.5-0.3,1.1-0.1,1.4,0.4c0.3,0.5,0.1,1.1-0.4,1.4l-2.7,1.5c-3.7,2-7.3,4.3-10.8,6.8C97.2,73.6,97,73.7,96.8,73.7z"/>
<path class="st14" d="M96.8,81.4c-0.3,0-0.6-0.1-0.8-0.4c-0.3-0.4-0.2-1.1,0.2-1.4c3.5-2.6,7.2-4.9,11-7l2.7-1.5
	c0.5-0.3,1.1-0.1,1.4,0.4s0.1,1.1-0.4,1.4l-2.7,1.5c-3.7,2-7.3,4.3-10.8,6.8C97.2,81.4,97,81.4,96.8,81.4z"/>
<path class="st8" d="M106.4,106.9c-0.6,0-1-0.4-1-1V85.1c0-0.6,0.3-1.2,0.9-1.5l2.1-1.4c0.5-0.4,1.3-0.4,1.8-0.1
	c0.5,0.3,0.8,0.8,0.8,1.3v20.1c0,0.6-0.4,1-1,1s-1-0.4-1-1V84.1l-1.6,1.1v20.7C107.4,106.5,106.9,106.9,106.4,106.9z"/>
<path class="st18" d="M99.1,111.4c-0.6,0-1-0.4-1-1V97.7c0-0.6,0.3-1.2,0.9-1.5l2.1-1.4c0.5-0.4,1.3-0.4,1.8-0.1
	c0.5,0.3,0.8,0.8,0.8,1.3V108c0,0.6-0.4,1-1,1s-1-0.4-1-1V96.7l-1.6,1.1v12.7C100.1,111,99.6,111.4,99.1,111.4z"/>
<path class="st2" d="M94.5,115.7c-0.1,0-0.3,0-0.4-0.1c-0.3-0.2-0.6-0.5-0.6-0.9V89.4c0-0.6,0.4-1,1-1s1,0.4,1,1v23.3
	c5.2-3.9,12.9-8.9,16.8-11c0.5-0.3,1.1-0.1,1.4,0.4c0.3,0.5,0.1,1.1-0.4,1.4c-4.3,2.4-13.2,8.2-18.2,12.1
	C94.9,115.7,94.7,115.7,94.5,115.7z"/>
<g>
	<path class="st2" d="M87,129.8c-0.1,0-0.2,0-0.3,0l-4.9-1.6c-10.2-3.3-21.1-5.7-32.3-7.2l-3.4-0.4c-0.5-0.1-0.9-0.5-0.9-1V60.4
		c0-0.3,0.1-0.6,0.3-0.8c0.2-0.2,0.5-0.3,0.8-0.2l5.5,0.8c11.1,1.5,21.8,4,32,7.4l3.4,1.1c0.4,0.1,0.7,0.5,0.7,0.9v59.1
		c0,0.3-0.2,0.6-0.4,0.8C87.4,129.7,87.2,129.8,87,129.8z M47.3,118.7l2.5,0.3c11.3,1.5,22.3,3.9,32.6,7.2l3.6,1.2v-57l-2.7-0.9
		c-10-3.3-20.6-5.8-31.6-7.3l-4.4-0.6V118.7z"/>
</g>
<path class="st14" d="M78.3,117.3c-0.1,0-0.2,0-0.3-0.1c-6.9-2.3-14.1-3.9-21.6-4.7l-2.3-0.3c-0.5-0.1-0.9-0.6-0.9-1.1
	s0.6-0.9,1.1-0.9l2.3,0.3c7.6,0.8,15.1,2.5,22.1,4.8c0.5,0.2,0.8,0.7,0.6,1.3C79.1,117,78.7,117.3,78.3,117.3z"/>
<path class="st14" d="M78.3,110.1c-0.1,0-0.2,0-0.3-0.1c-6.9-2.3-14.1-3.9-21.6-4.7l-2.3-0.3c-0.5-0.1-0.9-0.6-0.9-1.1
	c0.1-0.5,0.6-0.9,1.1-0.9l2.3,0.3c7.6,0.8,15.1,2.5,22.1,4.8c0.5,0.2,0.8,0.7,0.6,1.3C79.1,109.9,78.7,110.1,78.3,110.1z"/>
<path class="st14" d="M78.3,103c-0.1,0-0.2,0-0.3-0.1c-6.9-2.3-14.1-3.9-21.6-4.7L54,98c-0.5-0.1-0.9-0.6-0.9-1.1
	c0.1-0.5,0.6-0.9,1.1-0.9l2.3,0.3c7.6,0.8,15.1,2.5,22.1,4.8c0.5,0.2,0.8,0.7,0.6,1.3C79.1,102.8,78.7,103,78.3,103z"/>
<path class="st14" d="M78.3,95.9c-0.1,0-0.2,0-0.3-0.1c-6.9-2.3-14.1-3.9-21.6-4.7L54,90.9c-0.5-0.1-0.9-0.6-0.9-1.1
	c0.1-0.5,0.6-0.9,1.1-0.9l2.3,0.3c7.6,0.8,15.1,2.5,22.1,4.8c0.5,0.2,0.8,0.7,0.6,1.3C79.1,95.7,78.7,95.9,78.3,95.9z"/>
<g>
	<path class="st8" d="M58.6,77.2c-0.2,0-0.4-0.1-0.5-0.2c-0.4-0.3-0.6-0.6-0.7-1c-0.1-0.6,0.2-1.1,0.3-1.3l0.1-0.1
		c0.7-1.2,1.5-1.6,2.4-1.2c0.7,0.3,2.5,1.4,3.1,1.7c0.5,0.3,0.6,0.9,0.3,1.4c-0.3,0.5-0.9,0.6-1.4,0.3c-0.5-0.3-1.8-1.1-2.5-1.4
		c0,0.1-0.1,0.1-0.1,0.2c0.2,0.3,0.2,0.7,0,1.1C59.2,77,58.9,77.2,58.6,77.2z"/>
	<path class="st8" d="M69.5,77.2c-0.2,0-0.5-0.1-0.6-0.2c-2-1.7-2.6-1.9-2.6-1.9c0,0-0.4-0.1-1.9,0.6c0.1,0.3,0,0.6-0.1,0.8
		c-0.3,0.4-0.9,0.6-1.4,0.2c-0.7-0.5-0.8-1.1-0.8-1.4c0-0.3,0.2-0.8,0.9-1.2c1.8-0.9,2.9-1.2,3.8-1c0.4,0.1,1.2,0.5,3.4,2.3
		c0.4,0.4,0.5,1,0.1,1.4C70,77.1,69.7,77.2,69.5,77.2z"/>
	<path class="st8" d="M73.6,77.9c-0.3,0-0.5-0.1-0.7-0.3l-0.2-0.2c-0.9-0.9-1.5-1.5-1.8-1.9c0,0.2,0,0.3,0,0.5
		c0.1,0.5-0.2,1.1-0.8,1.2c-0.5,0.1-1.1-0.2-1.2-0.8c-0.2-0.8-0.2-2.4,0.6-3c0.4-0.3,0.9-0.4,1.4-0.2c0.7,0.3,1.7,1.3,3.1,2.8
		l0.2,0.2c0.4,0.4,0.4,1,0,1.4C74.1,77.8,73.9,77.9,73.6,77.9z"/>
	<path class="st8" d="M65.1,83.8c-0.3,0-0.5,0-0.6-0.1c-0.9-0.2-1.8-1.2-3.1-2.8l-0.1-0.1c-0.4-0.4-0.3-1.1,0.1-1.4
		c0.4-0.4,1.1-0.3,1.4,0.1l0.1,0.1c1.3,1.6,1.9,2.1,2.1,2.2c0,0,0,0,0.1,0c0.2,0,0.7,0,1.9-0.3c0.5-0.1,1.1,0.2,1.2,0.7
		c0.1,0.5-0.2,1.1-0.7,1.2C66.3,83.7,65.6,83.8,65.1,83.8z"/>
	<path class="st8" d="M60.1,81.3c-0.2,0-0.3,0-0.4-0.1c-0.6-0.2-1-0.9-1.4-2c-0.2-0.5,0.1-1.1,0.6-1.3c0.5-0.2,1.1,0.1,1.3,0.6
		c0.1,0.3,0.2,0.5,0.3,0.7c0.2-0.1,0.5-0.2,0.7-0.3c0.5-0.2,1.1,0,1.3,0.5c0.2,0.5,0,1.1-0.5,1.3C61.4,81,60.6,81.3,60.1,81.3z"/>
	<path class="st8" d="M52.8,80.8c-0.3,0-0.6-0.1-0.8-0.3c-0.3-0.2-0.5-0.6-0.5-1c0,0,0-0.1,0-0.1l0.1-0.5c0.1-0.9,0.3-2.5,0.2-3.6
		l-0.1-0.5c0,0,0-0.1,0-0.1c0-0.5,0.2-0.9,0.6-1.1c0.4-0.2,0.8-0.2,1.2,0l4.5,2.5c0.5,0.3,0.6,0.8,0.4,1.3c0.2,0.1,0.4,0.3,0.5,0.6
		c0.2,0.5-0.1,1.1-0.7,1.2l-5.2,1.5C53,80.8,52.9,80.8,52.8,80.8z M53.8,76.1c0,0.8-0.1,1.6-0.1,2.4l3-0.9L53.8,76.1z"/>
	<path class="st8" d="M81.6,85.6C81.6,85.6,81.6,85.6,81.6,85.6c-0.6,0-1-0.5-1-1l0-1.6c0-0.6,0.5-1,1-1c0.6,0,1,0.5,1,1l0,1.6
		C82.6,85.2,82.2,85.6,81.6,85.6z"/>
	<path class="st8" d="M73.7,86.5c-0.2,0-0.3,0-0.5-0.1c-0.5-0.3-0.7-0.9-0.4-1.4l0.7-1.2c0.3-0.5,0.9-0.7,1.4-0.4
		c0.5,0.3,0.7,0.9,0.4,1.4l-0.7,1.2C74.3,86.3,74,86.5,73.7,86.5z"/>
	<path class="st8" d="M72.4,86.4c-0.3,0-0.7-0.2-0.8-0.5c-0.3-0.5-0.1-1.1,0.3-1.4l1.8-1.1c0.5-0.3,1.1-0.1,1.4,0.3s0.1,1.1-0.3,1.4
		L73,86.3C72.8,86.4,72.6,86.4,72.4,86.4z"/>
	<path class="st2" d="M76.2,85.3c-1.1,0-2.4-0.1-4.2-0.5c-2.2-0.4-4.1-1.3-6.4-2.4c-2.6-1.2-5.5-2.6-9.8-3.7c-0.6-0.2-1-0.7-1-1.4
		c0.1-0.6,0.5-1.1,1.1-1.2c3-0.3,10.6-0.8,15.7-0.1c3.8,0.5,6.8,2.4,9.3,3.9c0.7,0.4,1.4,0.9,2.1,1.2c0.4,0.2,0.6,0.6,0.5,1.1
		c0,0.3-0.2,0.5-0.4,0.6c-0.1,0.3-0.2,0.5-0.4,0.7c-0.4,0.3-3.2,1.2-3.8,1.4C78.2,85.1,77.3,85.3,76.2,85.3z M81.8,83.6
		C81.8,83.6,81.8,83.6,81.8,83.6C81.8,83.6,81.8,83.6,81.8,83.6z M60.1,77.9c2.5,0.9,4.5,1.8,6.4,2.7c2.1,1,4,1.8,5.9,2.2
		c3.4,0.7,4.8,0.5,6.1,0.2c0.2,0,0.6-0.2,1-0.3c0-0.1,0-0.2-0.1-0.2c0-0.3,0.1-0.6,0.3-0.8c-2.4-1.4-5.1-3.1-8.4-3.5
		C68.1,77.6,63.5,77.7,60.1,77.9z"/>
</g>
</svg>
