<?xml version="1.0" encoding="utf-8"?>
<!-- Generator: Adobe Illustrator 24.1.2, SVG Export Plug-In . SVG Version: 6.00 Build 0)  -->
<svg version="1.1" id="Layer_1" xmlns="http://www.w3.org/2000/svg" xmlns:xlink="http://www.w3.org/1999/xlink" x="0px" y="0px"
	 viewBox="0 0 174 174.3" style="enable-background:new 0 0 174 174.3;" xml:space="preserve">
<style type="text/css">
	.st0{fill:#0047BF;}
	.st1{fill:#003FC1;}
	.st2{fill:#FFFFFF;}
	.st3{fill:none;stroke:#96D5CE;stroke-width:2;stroke-linecap:round;stroke-linejoin:round;stroke-miterlimit:10;}
	.st4{fill:none;stroke:#FF704C;stroke-width:2;stroke-linecap:round;stroke-linejoin:round;stroke-miterlimit:10;}
	.st5{fill:none;stroke:#FFFFFF;stroke-width:2;stroke-linecap:round;stroke-linejoin:round;stroke-miterlimit:10;}
	.st6{fill:none;stroke:#FF804C;stroke-width:2;stroke-linecap:round;stroke-linejoin:round;stroke-miterlimit:10;}
	.st7{fill:none;stroke:#0047BF;stroke-width:2;stroke-linecap:round;stroke-linejoin:round;stroke-miterlimit:10;}
	.st8{fill:#F1D439;}
	.st9{fill:#0047BF;stroke:#BEC8C8;stroke-width:2;stroke-linecap:round;stroke-linejoin:round;stroke-miterlimit:10;}
	.st10{fill:none;stroke:#FF7E51;stroke-width:2;stroke-linecap:round;stroke-linejoin:round;stroke-miterlimit:10;}
	.st11{fill:none;stroke:#A3D5D0;stroke-width:2;stroke-linecap:round;stroke-linejoin:round;stroke-miterlimit:10;}
	.st12{fill:none;stroke:#F1D439;stroke-width:2;stroke-linecap:round;stroke-linejoin:round;stroke-miterlimit:10;}
	.st13{fill:none;stroke:#E2E6E6;stroke-width:2;stroke-linecap:round;stroke-linejoin:round;stroke-miterlimit:10;}
	.st14{fill:#A3D5D0;}
	.st15{fill:#FF804C;}
	.st16{fill:none;stroke:#BEC8C8;stroke-width:2;stroke-linecap:round;stroke-linejoin:round;stroke-miterlimit:10;}
	.st17{fill:#0047BF;stroke:#0047BF;stroke-width:2;stroke-linecap:round;stroke-linejoin:round;stroke-miterlimit:10;}
	.st18{fill:#FF704C;}
	.st19{fill:none;}
	.st20{fill:#0041BD;}
	.st21{fill:none;stroke:#FFFFFF;stroke-width:1.5;stroke-linecap:round;stroke-linejoin:round;stroke-miterlimit:10;}
	.st22{fill:#0041BD;stroke:#A3D5D0;stroke-width:1.5;stroke-linecap:round;stroke-linejoin:round;stroke-miterlimit:10;}
	.st23{fill:#0041BD;stroke:#FFFFFF;stroke-width:2;stroke-linecap:round;stroke-linejoin:round;stroke-miterlimit:10;}
	.st24{fill:#0041BD;stroke:#FF804C;stroke-width:2;stroke-linecap:round;stroke-linejoin:round;stroke-miterlimit:10;}
	.st25{fill:#0041BD;stroke:#A3D5D0;stroke-width:2;stroke-linecap:round;stroke-linejoin:round;stroke-miterlimit:10;}
	.st26{fill:#0041BD;stroke:#F1D439;stroke-width:2;stroke-linecap:round;stroke-linejoin:round;stroke-miterlimit:10;}
	.st27{fill:#FF804C;stroke:#FF804C;stroke-width:2;stroke-linecap:round;stroke-linejoin:round;stroke-miterlimit:10;}
	.st28{fill:none;stroke:#FFFFFF;stroke-width:2.5;stroke-linecap:round;stroke-linejoin:round;stroke-miterlimit:10;}
	.st29{fill:#0041BD;stroke:#FF804C;stroke-width:1.5;stroke-linecap:round;stroke-linejoin:round;stroke-miterlimit:10;}
	.st30{fill:none;stroke:#FF704C;stroke-width:1.5;stroke-linecap:round;stroke-linejoin:round;stroke-miterlimit:10;}
	.st31{fill:none;stroke:#FF804C;stroke-width:1.5;stroke-linecap:round;stroke-linejoin:round;stroke-miterlimit:10;}
	.st32{fill:none;stroke:#A3D5D0;stroke-width:1.4377;stroke-linecap:round;stroke-linejoin:round;stroke-miterlimit:10;}
	.st33{fill:#0041BD;stroke:#F1D439;stroke-width:1.5;stroke-linecap:round;stroke-linejoin:round;stroke-miterlimit:10;}
	.st34{fill:none;stroke:#F1D439;stroke-width:1.5;stroke-linecap:round;stroke-linejoin:round;stroke-miterlimit:10;}
	.st35{fill:none;stroke:#A3D5D0;stroke-width:1.5;stroke-linecap:round;stroke-linejoin:round;stroke-miterlimit:10;}
	.st36{fill:none;stroke:#96D5CE;stroke-width:1.4377;stroke-linecap:round;stroke-linejoin:round;stroke-miterlimit:10;}
	.st37{fill:none;stroke:#0047BF;stroke-width:1.5;stroke-linecap:round;stroke-linejoin:round;stroke-miterlimit:10;}
	.st38{fill:#0047BF;stroke:#FF704C;stroke-width:2;stroke-linecap:round;stroke-linejoin:round;stroke-miterlimit:10;}
	.st39{fill:#0047BF;stroke:#FF804C;stroke-width:2;stroke-linecap:round;stroke-linejoin:round;stroke-miterlimit:10;}
	.st40{fill:#0047BF;stroke:#E2E6E6;stroke-width:2;stroke-linecap:round;stroke-linejoin:round;stroke-miterlimit:10;}
	.st41{fill:#0047BF;stroke:#A3D5D0;stroke-width:2;stroke-linecap:round;stroke-linejoin:round;stroke-miterlimit:10;}
	.st42{fill:#0047BF;stroke:#F1D439;stroke-width:2;stroke-linecap:round;stroke-linejoin:round;stroke-miterlimit:10;}
	.st43{fill:#0041BD;stroke:#E2E6E6;stroke-width:2;stroke-linecap:round;stroke-linejoin:round;stroke-miterlimit:10;}
	.st44{fill:#E2E6E6;}
	.st45{fill:none;stroke:#0047BF;stroke-width:1.4377;stroke-linecap:round;stroke-linejoin:round;stroke-miterlimit:10;}
	.st46{fill:#0047BF;stroke:#A3D5D0;stroke-width:1.5;stroke-linecap:round;stroke-linejoin:round;stroke-miterlimit:10;}
	.st47{fill:none;stroke:#E2E6E6;stroke-width:1.5;stroke-linecap:round;stroke-linejoin:round;stroke-miterlimit:10;}
	.st48{fill:#0047BF;stroke:#FF704C;stroke-width:1.5;stroke-linecap:round;stroke-linejoin:round;stroke-miterlimit:10;}
	.st49{fill:#0047BF;stroke:#FF804C;stroke-width:1.5;stroke-linecap:round;stroke-linejoin:round;stroke-miterlimit:10;}
	.st50{fill:#0047BF;stroke:#F1D439;stroke-width:1.5;stroke-linecap:round;stroke-linejoin:round;stroke-miterlimit:10;}
	.st51{fill:#0041BD;stroke:#0047BF;stroke-width:2;stroke-linecap:round;stroke-linejoin:round;stroke-miterlimit:10;}
	
		.st52{fill:none;stroke:#FFFFFF;stroke-width:2;stroke-linecap:round;stroke-linejoin:round;stroke-miterlimit:10;stroke-dasharray:15,5;}
	.st53{fill:#1B3570;}
	.st54{fill:#B5C0C0;}
	.st55{fill:#0047BF;stroke:#B5C0C0;stroke-width:2;stroke-linecap:round;stroke-linejoin:round;stroke-miterlimit:10;}
	.st56{fill:none;stroke:#B5C0C0;stroke-width:2;stroke-linecap:round;stroke-linejoin:round;stroke-miterlimit:10;}
	.st57{fill:#0047BF;stroke:#96D5CE;stroke-width:2;stroke-linecap:round;stroke-linejoin:round;stroke-miterlimit:10;}
	.st58{fill:#96D5CE;}
	.st59{fill:#FF7E51;}
	.st60{fill:#0B0069;}
	.st61{fill:#0047BF;stroke:#FFFFFF;stroke-width:2;stroke-linecap:round;stroke-linejoin:round;stroke-miterlimit:10;}
	.st62{fill:none;stroke:#FF7E51;stroke-width:1.5;stroke-linecap:round;stroke-linejoin:round;stroke-miterlimit:10;}
	.st63{fill:#0B0069;stroke:#FFFFFF;stroke-width:1.5;stroke-linecap:round;stroke-linejoin:round;stroke-miterlimit:10;}
</style>
<g>
	<path class="st2" d="M133.6,53.6H45.2c-1.1,0-2.1,0.4-2.8,1.2L26.6,70.6c-0.7,0.7-1.2,1.7-1.2,2.8v50.2c0,2.2,1.8,4,4,4h71
		c0.1-0.7,0.3-1.4,0.5-2H29.4c-1.1,0-2-0.9-2-2V73.4c0-0.5,0.2-1,0.6-1.4v0l6-6c0,0-0.1-0.1-0.1-0.1c-0.2-0.2-0.3-0.5-0.3-0.7
		c0-0.3,0.1-0.5,0.3-0.7c0.5-0.6,1.1-1.3,1.7-1.8c0.2-0.2,0.3-0.3,0.5-0.5c0,0,0,0,0,0c0.2-0.2,0.3-0.4,0.6-0.4
		c0.2-0.1,0.5,0,0.7,0.1c0.1,0,0.2,0,0.2-0.1c0.3,0,0.5,0,0.7,0.1l5.6-5.7c0.4-0.4,0.9-0.6,1.4-0.6h88.4c1.1,0,2,0.9,2,2v50.2
		c0,0.5-0.2,1-0.6,1.4l-5.7,5.7c0.7,0.7-0.2,2.1-1.2,1.5c0,0,0,0,0,0c0.4,0.3,0.8,0.6,1.1,1c0.1,0.1,0.1,0.2,0.2,0.3l7.1-7.1
		c0.7-0.7,1.2-1.7,1.2-2.8V57.5C137.6,55.3,135.8,53.6,133.6,53.6z"/>
</g>
<g>
	<path class="st2" d="M117.4,75.9v36.6c0.7-0.1,1.3-0.1,2-0.2V75.9c0-2.2-1.8-4-4-4H27.3c-0.6,0-1,0.4-1,1s0.4,1,1,1h88.1
		C116.5,73.9,117.4,74.8,117.4,75.9z"/>
</g>
<g>
	<path class="st18" d="M50.5,66.8h-19c-0.4,0-0.8-0.2-0.9-0.6c-0.2-0.4-0.1-0.8,0.2-1.1l4.4-4.4l0,0c0.4-0.4,1-0.6,1.5-0.6h19.5
		c0.4,0,0.8,0.2,0.9,0.6c0.2,0.4,0.1,0.8-0.2,1.1l-4.1,4.1C52.1,66.4,51.3,66.8,50.5,66.8z M33.8,64.8h16.6c0.3,0,0.6-0.1,0.9-0.4
		l2.4-2.4H36.7c0,0-0.1,0-0.1,0.1L33.8,64.8z"/>
</g>
<g>
	<g>
		<path class="st58" d="M118.4,148.6c-10.1,0-18.4-8.2-18.4-18.4s8.2-18.4,18.4-18.4s18.4,8.2,18.4,18.4S128.5,148.6,118.4,148.6z
			 M118.4,113.9c-9,0-16.4,7.3-16.4,16.4s7.3,16.4,16.4,16.4s16.4-7.3,16.4-16.4S127.4,113.9,118.4,113.9z"/>
	</g>
	<g>
		<g>
			<path class="st2" d="M117.4,117.1c0-0.6,0.4-1,1-1s1,0.4,1,1v26.3c0,0.6-0.4,1-1,1s-1-0.4-1-1"/>
			<path class="st2" d="M118.4,122.9c-0.3,0-0.7-0.2-0.9-0.5c-0.3-0.5-0.1-1.1,0.4-1.4l4.3-2.5c0.5-0.3,1.1-0.1,1.4,0.4
				s0.1,1.1-0.4,1.4l-4.3,2.5C118.7,122.9,118.5,122.9,118.4,122.9z"/>
			<path class="st2" d="M118.4,122.9c-0.2,0-0.3,0-0.5-0.1l-4.3-2.5c-0.5-0.3-0.6-0.9-0.4-1.4c0.3-0.5,0.9-0.6,1.4-0.4l4.3,2.5
				c0.5,0.3,0.6,0.9,0.4,1.4C119.1,122.8,118.7,122.9,118.4,122.9z"/>
			<path class="st2" d="M114.1,142c-0.3,0-0.7-0.2-0.9-0.5c-0.3-0.5-0.1-1.1,0.4-1.4l4.3-2.5c0.5-0.3,1.1-0.1,1.4,0.4
				c0.3,0.5,0.1,1.1-0.4,1.4l-4.3,2.5C114.4,142,114.2,142,114.1,142z"/>
			<path class="st2" d="M122.7,142c-0.2,0-0.3,0-0.5-0.1l-4.3-2.5c-0.5-0.3-0.6-0.9-0.4-1.4s0.9-0.6,1.4-0.4l4.3,2.5
				c0.5,0.3,0.6,0.9,0.4,1.4C123.4,141.9,123,142,122.7,142z"/>
		</g>
		<g>
			<path class="st2" d="M129.8,137.8c-0.2,0-0.3,0-0.5-0.1l-22.8-13.2c-0.5-0.3-0.6-0.9-0.4-1.4c0.3-0.5,0.9-0.6,1.4-0.4l22.8,13.2
				c0.5,0.3,0.6,0.9,0.4,1.4C130.4,137.7,130.1,137.8,129.8,137.8z"/>
			<path class="st2" d="M111.2,127.1C111.2,127.1,111.2,127.1,111.2,127.1c-0.6,0-1-0.5-1-1l0-5c0-0.6,0.4-1,1-1c0,0,0,0,0,0
				c0.6,0,1,0.5,1,1l0,5C112.2,126.7,111.7,127.1,111.2,127.1z"/>
			<path class="st2" d="M106.9,129.6c-0.3,0-0.7-0.2-0.9-0.5c-0.3-0.5-0.1-1.1,0.4-1.4l4.3-2.5c0.5-0.3,1.1-0.1,1.4,0.4
				c0.3,0.5,0.1,1.1-0.4,1.4l-4.3,2.5C107.2,129.6,107,129.6,106.9,129.6z"/>
			<path class="st2" d="M125.5,140.4C125.5,140.4,125.5,140.4,125.5,140.4c-0.6,0-1-0.5-1-1l0-5c0-0.6,0.4-1,1-1c0,0,0,0,0,0
				c0.6,0,1,0.5,1,1l0,5C126.5,139.9,126.1,140.4,125.5,140.4z"/>
			<path class="st2" d="M125.6,135.4c-0.3,0-0.7-0.2-0.9-0.5c-0.3-0.5-0.1-1.1,0.4-1.4l4.3-2.5c0.5-0.3,1.1-0.1,1.4,0.4
				c0.3,0.5,0.1,1.1-0.4,1.4l-4.3,2.5C125.9,135.4,125.7,135.4,125.6,135.4z"/>
		</g>
		<g>
			<path class="st2" d="M107,137.8c-0.3,0-0.7-0.2-0.9-0.5c-0.3-0.5-0.1-1.1,0.4-1.4l22.8-13.2c0.5-0.3,1.1-0.1,1.4,0.4
				c0.3,0.5,0.1,1.1-0.4,1.4l-22.8,13.2C107.3,137.8,107.1,137.8,107,137.8z"/>
			<path class="st2" d="M111.2,135.4c-0.2,0-0.3,0-0.5-0.1l-4.3-2.5c-0.5-0.3-0.6-0.9-0.4-1.4c0.3-0.5,0.9-0.6,1.4-0.4l4.3,2.5
				c0.5,0.3,0.6,0.9,0.4,1.4C111.8,135.3,111.5,135.4,111.2,135.4z"/>
			<path class="st2" d="M111.2,140.4c-0.6,0-1-0.4-1-1l0-5c0-0.6,0.4-1,1-1c0,0,0,0,0,0c0.6,0,1,0.4,1,1l0,5
				C112.2,140,111.7,140.4,111.2,140.4C111.2,140.4,111.2,140.4,111.2,140.4z"/>
			<path class="st2" d="M129.9,129.6c-0.2,0-0.3,0-0.5-0.1l-4.3-2.5c-0.5-0.3-0.6-0.9-0.4-1.4c0.3-0.5,0.9-0.6,1.4-0.4l4.3,2.5
				c0.5,0.3,0.6,0.9,0.4,1.4C130.5,129.4,130.2,129.6,129.9,129.6z"/>
			<path class="st2" d="M125.6,127.1c-0.6,0-1-0.4-1-1l0-5c0-0.6,0.4-1,1-1c0,0,0,0,0,0c0.6,0,1,0.4,1,1l0,5
				C126.6,126.7,126.1,127.1,125.6,127.1C125.6,127.1,125.6,127.1,125.6,127.1z"/>
		</g>
	</g>
</g>
<g>
	<path class="st8" d="M49.4,95.2c-0.1,0-0.3,0-0.4-0.1c-0.7-0.3-1.1-0.7-1.3-1.3c-0.3-0.8,0.1-1.6,0.5-2.3l0.2-0.3
		c0.6-1.1,2-3.4,4.1-2.8c1.6,0.4,6.1,2.2,7.6,2.9c0.5,0.2,0.7,0.9,0.4,1.3c-0.2,0.5-0.8,0.7-1.3,0.4c-1.4-0.7-5.8-2.4-7.3-2.8
		c-0.7-0.2-1.4,1.2-1.9,1.9l-0.2,0.3c-0.2,0.3-0.3,0.5-0.3,0.6c0,0,0.1,0.1,0.2,0.1c0.5,0.2,0.7,0.8,0.5,1.3
		C50.1,95,49.8,95.2,49.4,95.2z"/>
	<path class="st8" d="M61.7,92.7c-0.2,0-0.3,0-0.5-0.1c-0.9-0.5-1.4-1.2-1.5-1.9c0-0.5,0.2-1.3,1.3-2c4.1-2.7,6.8-3.9,8.5-3.7
		c1.4,0.1,4.1,1.5,8.1,4c0.5,0.3,0.6,0.9,0.3,1.4c-0.3,0.5-0.9,0.6-1.4,0.3c-5-3.2-6.7-3.7-7.2-3.7c-0.7-0.1-2.5,0.3-7.2,3.4
		c-0.2,0.1-0.3,0.2-0.3,0.3c0.1,0.1,0.2,0.1,0.4,0.3c0.5,0.3,0.7,0.9,0.4,1.4C62.4,92.5,62.1,92.7,61.7,92.7z"/>
	<path class="st8" d="M87.8,90.8c-0.2,0-0.5-0.1-0.7-0.2l-0.6-0.5c-1.3-1.2-5.4-4.7-6.7-5c-0.5,0.2-1,2.4-0.6,4.2
		c0.1,0.5-0.2,1.1-0.7,1.2c-0.5,0.1-1.1-0.2-1.2-0.7c-0.4-1.7-0.3-4.8,1-6.1c0.5-0.5,1.2-0.7,2-0.6c1.6,0.4,4.6,2.9,7.6,5.5l0.6,0.5
		c0.4,0.4,0.5,1,0.1,1.4C88.4,90.7,88.1,90.8,87.8,90.8z"/>
	<path class="st8" d="M67,107c-0.1,0-0.2,0-0.3,0c-2-0.2-4.8-2.8-7.2-5.3l-0.3-0.3c-0.3-0.3-0.5-0.6-0.6-0.9c-0.2-0.5,0-1.1,0.5-1.3
		c0.5-0.2,1.1,0,1.3,0.5c0,0.1,0.1,0.2,0.2,0.3l0.3,0.3c1.2,1.3,4.5,4.6,6,4.7c0.4,0,1.7-0.1,5.9-1.8c0.5-0.2,1.1,0,1.3,0.5
		c0.2,0.5,0,1.1-0.5,1.3C69.3,106.8,67.7,107,67,107z"/>
	<path class="st8" d="M51.9,102.4c-0.1,0-0.2,0-0.3,0c-1.5-0.2-2.8-1.8-4-3.6c-0.3-0.5-0.2-1.1,0.2-1.4c0.5-0.3,1.1-0.2,1.4,0.2
		c1.5,2.2,2.3,2.7,2.7,2.7c0.6,0.1,3.1-0.7,5.1-1.5c0.5-0.2,1.1,0,1.3,0.5c0.2,0.5,0,1.1-0.5,1.3C57.6,100.8,53.7,102.4,51.9,102.4z
		"/>
	<path class="st8" d="M36.8,103.6c-0.3,0-0.6-0.1-0.9-0.3c-0.4-0.3-0.7-0.8-0.8-1.3c0,0,0-0.1,0-0.1l0.1-1.2
		c0.2-2.6,0.1-5.1-0.4-7.7l-0.2-1.1c0,0,0-0.1,0-0.1c0-0.5,0.2-1.1,0.6-1.4c0.4-0.3,0.9-0.4,1.4-0.3l12.2,3.4
		c0.5,0.1,0.8,0.7,0.7,1.2c-0.1,0.5-0.7,0.8-1.2,0.7l-11.6-3.3l0.1,0.5c0.5,2.7,0.7,5.5,0.4,8.2l0,0.6L48,97.3
		c0.5-0.2,1.1,0.1,1.3,0.6c0.2,0.5-0.1,1.1-0.6,1.3l-11.3,4.3C37.2,103.6,37,103.6,36.8,103.6z"/>
	<path class="st2" d="M87.5,89.3c-0.5-0.3-1.1-0.1-1.4,0.4L78,104.6c-0.3,0.5-0.1,1.1,0.4,1.4c0.2,0.1,0.3,0.1,0.5,0.1
		c0.4,0,0.7-0.2,0.9-0.5l1.5-2.7c-0.1,0-0.2,0-0.4-0.1c-0.2-0.1-0.4-0.1-0.6-0.2c-0.3-0.1-0.4-0.4-0.5-0.7c0-0.3,0-0.6,0.3-0.8
		c0.7-0.6,1.5-1.1,2.5-1.3c0.1,0,0.2,0,0.4,0l4.9-9C88.2,90.1,88,89.5,87.5,89.3z"/>
	<path class="st2" d="M72,104.5c-0.2,0-0.3,0-0.5-0.1c-0.5-0.3-0.7-0.9-0.4-1.4l7.6-13.8c0.3-0.5,0.9-0.7,1.4-0.4
		c0.5,0.3,0.7,0.9,0.4,1.4L72.8,104C72.7,104.3,72.3,104.5,72,104.5z"/>
	<path class="st2" d="M65.2,102.5c-0.2,0-0.3,0-0.5-0.1c-0.5-0.3-0.7-0.9-0.4-1.4l5.8-10.5c0.3-0.5,0.9-0.7,1.4-0.4
		c0.5,0.3,0.7,0.9,0.4,1.4l-5.8,10.5C65.9,102.3,65.6,102.5,65.2,102.5z"/>
	<path class="st2" d="M58.4,101.1c-0.2,0-0.3,0-0.5-0.1c-0.5-0.3-0.7-0.9-0.4-1.4l4.5-8.3c0.3-0.5,0.9-0.7,1.4-0.4
		c0.5,0.3,0.7,0.9,0.4,1.4l-4.5,8.3C59.1,101,58.8,101.1,58.4,101.1z"/>
	<path class="st2" d="M52.2,99.2c-0.2,0-0.3,0-0.5-0.1c-0.5-0.3-0.7-0.9-0.4-1.4l2.5-4.5c0.3-0.5,0.9-0.7,1.4-0.4s0.7,0.9,0.4,1.4
		l-2.5,4.5C52.9,99.1,52.5,99.2,52.2,99.2z"/>
	<g>
		<path class="st8" d="M83.6,104.4C83.6,104.4,83.6,104.4,83.6,104.4c-1.7,0-5.2-0.6-5.7-2.6c-0.1-0.5,0-1,0.3-1.5
			c0.7-1,2.4-1.6,5.3-2c1.2-0.2,3.1-0.2,3.9-0.1l0.2,0c0.6,0,1,0.4,1,1s-0.4,1-1,1l-0.2,0c-0.7,0-2.5,0-3.6,0.1
			c-2.5,0.3-3.6,0.9-3.8,1.1c0.3,0.4,2,1,3.7,1c0,0,0,0,0,0c3,0,5.9-0.9,5.9-0.9c0.5-0.2,1.1,0.1,1.3,0.7c0.2,0.5-0.1,1.1-0.7,1.3
			C90,103.4,86.9,104.4,83.6,104.4z"/>
	</g>
	<path class="st8" d="M107.3,104.8C107.3,104.8,107.2,104.8,107.3,104.8c-0.6,0-1-0.5-1-1l0.1-3.8c0-0.5,0.5-1,1-1c0,0,0,0,0,0
		c0.6,0,1,0.5,1,1l-0.1,3.8C108.2,104.4,107.8,104.8,107.3,104.8z"/>
	<path class="st8" d="M87,110.2c-0.2,0-0.3,0-0.5-0.1c-0.5-0.3-0.7-0.9-0.4-1.4l1.8-3.4c0.3-0.5,0.9-0.7,1.4-0.4
		c0.5,0.3,0.7,0.9,0.4,1.4l-1.8,3.4C87.7,110,87.4,110.2,87,110.2z"/>
	<path class="st8" d="M83.9,110.7c-0.3,0-0.6-0.1-0.8-0.4c-0.3-0.4-0.3-1.1,0.2-1.4l4.6-3.5c0.4-0.3,1.1-0.3,1.4,0.2
		c0.3,0.4,0.3,1.1-0.2,1.4l-4.6,3.5C84.3,110.6,84.1,110.7,83.9,110.7z"/>
	<path class="st2" d="M86,106.8c-0.9,0-1.8,0-2.8,0c-5.4-0.2-10.3-1.6-15.9-3.2c-6.7-1.9-14.2-4.1-25.2-5c-0.8-0.1-1.4-0.7-1.4-1.5
		c-0.1-0.9,0.5-1.7,1.3-1.9c7.6-1.9,26.8-6.3,39.6-6.6c9.2-0.2,16.9,3,23.1,5.7c1.9,0.8,3.6,1.5,5.3,2.1c0.4,0.1,0.7,0.5,0.7,1
		s-0.3,0.8-0.7,0.9l-0.4,0.1c0,0.1,0.1,0.1,0.1,0.2c0.2,0.5,0,1-0.3,1.3c-0.5,0.4-7.1,3.8-9,4.5C97,105.7,93.4,106.8,86,106.8z
		 M44.2,96.7c10.2,1,17.3,3.1,23.7,4.9c5.5,1.6,10.3,2.9,15.4,3.1c8.9,0.3,12.6-0.8,16.3-2.2c1.3-0.5,4.5-2.1,6.6-3.2
		c0,0-0.1,0-0.1,0l-1.5,0.4c-0.5,0.1-1.1-0.2-1.2-0.7c-0.1-0.5,0.2-1.1,0.7-1.2l2.5-0.7c-0.8-0.3-1.7-0.7-2.6-1.1
		c-6.3-2.7-13.5-5.7-22.3-5.5C69.8,90.8,51.6,94.9,44.2,96.7z M108.4,99.7L108.4,99.7L108.4,99.7z"/>
	<path class="st2" d="M95.9,105.3c-2.6,0-5-0.7-6.7-2.2c-1.6-1.3-2.5-3-2.6-4.7c-0.1-1.4,0.7-2.9,2.1-4.2c2.5-2.2,6.3-3.2,9.7-2.6
		c0.5,0.1,0.9,0.6,0.8,1.2c-0.1,0.5-0.6,0.9-1.2,0.8c-3.2-0.6-6.3,0.7-8,2.2c-1,0.8-1.5,1.7-1.4,2.6c0.1,1.1,0.7,2.3,1.9,3.2
		c1.9,1.5,4.7,2.1,7.6,1.5c0.5-0.1,1.1,0.3,1.2,0.8c0.1,0.5-0.3,1.1-0.8,1.2C97.6,105.2,96.7,105.3,95.9,105.3z"/>
	<path class="st8" d="M100.9,94.2c-1.3,0-2.3,1-2.3,2.3c0,1.3,1,2.3,2.3,2.3c1.3,0,2.3-1,2.3-2.3C103.2,95.2,102.2,94.2,100.9,94.2z
		 M100.9,97.6c-0.6,0-1.1-0.5-1.1-1.1c0-0.6,0.5-1.1,1.1-1.1c0.6,0,1.1,0.5,1.1,1.1C102,97.1,101.5,97.6,100.9,97.6z"/>
</g>
<path class="st2" d="M125,64.9l-8.3,8.3c-0.4,0.4-0.4,1,0,1.4c0.2,0.2,0.5,0.3,0.7,0.3s0.5-0.1,0.7-0.3l8-8
	C125.8,66,125.4,65.4,125,64.9z"/>
<path class="st2" d="M136.5,54.8c-0.4-0.4-1-0.4-1.4,0l-6,6c-0.1,0.1-0.2,0.2-0.2,0.3c0.7,0.1,1.3,0.5,1.8,0.9l5.9-5.9
	C136.9,55.8,136.9,55.2,136.5,54.8z"/>
<g>
	<path class="st18" d="M126.1,83.2c-0.1,0-0.3,0-0.4-0.1c-0.4-0.2-0.6-0.5-0.6-0.9l0-15c0-0.3-0.2-0.5-0.5-0.5h-15.2
		c-0.4,0-0.8-0.2-0.9-0.6c-0.2-0.4-0.1-0.8,0.2-1.1l4.4-4.4c0.4-0.4,0.9-0.6,1.5-0.6h14.3c1.9,0,3.5,1.6,3.5,3.5l0,13
		c0,0.6-0.2,1.1-0.6,1.5l-5,5C126.6,83.1,126.3,83.2,126.1,83.2z M111.8,64.8h12.7c1.4,0,2.5,1.1,2.5,2.5l0,12.6l3.3-3.3l0-13.1
		c0-0.8-0.7-1.5-1.5-1.5h-14.3L111.8,64.8z"/>
</g>
</svg>
