<?xml version="1.0" encoding="utf-8"?>
<!-- Generator: Adobe Illustrator 24.1.2, SVG Export Plug-In . SVG Version: 6.00 Build 0)  -->
<svg version="1.1" id="Layer_1" xmlns="http://www.w3.org/2000/svg" xmlns:xlink="http://www.w3.org/1999/xlink" x="0px" y="0px"
	 viewBox="0 0 174 174" style="enable-background:new 0 0 174 174;" xml:space="preserve">
<style type="text/css">
	.st0{fill:#0047BF;}
	.st1{fill:#003FC1;}
	.st2{fill:#FFFFFF;}
	.st3{fill:none;stroke:#96D5CE;stroke-width:2;stroke-linecap:round;stroke-linejoin:round;stroke-miterlimit:10;}
	.st4{fill:none;stroke:#FF704C;stroke-width:2;stroke-linecap:round;stroke-linejoin:round;stroke-miterlimit:10;}
	.st5{fill:none;stroke:#FFFFFF;stroke-width:2;stroke-linecap:round;stroke-linejoin:round;stroke-miterlimit:10;}
	.st6{fill:none;stroke:#FF804C;stroke-width:2;stroke-linecap:round;stroke-linejoin:round;stroke-miterlimit:10;}
	.st7{fill:none;stroke:#0047BF;stroke-width:2;stroke-linecap:round;stroke-linejoin:round;stroke-miterlimit:10;}
	.st8{fill:#F1D439;}
	.st9{fill:#0047BF;stroke:#BEC8C8;stroke-width:2;stroke-linecap:round;stroke-linejoin:round;stroke-miterlimit:10;}
	.st10{fill:none;stroke:#FF7E51;stroke-width:2;stroke-linecap:round;stroke-linejoin:round;stroke-miterlimit:10;}
	.st11{fill:none;stroke:#A3D5D0;stroke-width:2;stroke-linecap:round;stroke-linejoin:round;stroke-miterlimit:10;}
	.st12{fill:none;stroke:#F1D439;stroke-width:2;stroke-linecap:round;stroke-linejoin:round;stroke-miterlimit:10;}
	.st13{fill:none;stroke:#E2E6E6;stroke-width:2;stroke-linecap:round;stroke-linejoin:round;stroke-miterlimit:10;}
	.st14{fill:#A3D5D0;}
	.st15{fill:#FF804C;}
	.st16{fill:none;stroke:#BEC8C8;stroke-width:2;stroke-linecap:round;stroke-linejoin:round;stroke-miterlimit:10;}
	.st17{fill:#0047BF;stroke:#0047BF;stroke-width:2;stroke-linecap:round;stroke-linejoin:round;stroke-miterlimit:10;}
	.st18{fill:#FF704C;}
	.st19{fill:none;}
	.st20{fill:#0041BD;}
	.st21{fill:none;stroke:#FFFFFF;stroke-width:1.5;stroke-linecap:round;stroke-linejoin:round;stroke-miterlimit:10;}
	.st22{fill:#0041BD;stroke:#A3D5D0;stroke-width:1.5;stroke-linecap:round;stroke-linejoin:round;stroke-miterlimit:10;}
	.st23{fill:#0041BD;stroke:#FFFFFF;stroke-width:2;stroke-linecap:round;stroke-linejoin:round;stroke-miterlimit:10;}
	.st24{fill:#0041BD;stroke:#FF804C;stroke-width:2;stroke-linecap:round;stroke-linejoin:round;stroke-miterlimit:10;}
	.st25{fill:#0041BD;stroke:#A3D5D0;stroke-width:2;stroke-linecap:round;stroke-linejoin:round;stroke-miterlimit:10;}
	.st26{fill:#0041BD;stroke:#F1D439;stroke-width:2;stroke-linecap:round;stroke-linejoin:round;stroke-miterlimit:10;}
	.st27{fill:#FF804C;stroke:#FF804C;stroke-width:2;stroke-linecap:round;stroke-linejoin:round;stroke-miterlimit:10;}
	.st28{fill:none;stroke:#FFFFFF;stroke-width:2.5;stroke-linecap:round;stroke-linejoin:round;stroke-miterlimit:10;}
	.st29{fill:#0041BD;stroke:#FF804C;stroke-width:1.5;stroke-linecap:round;stroke-linejoin:round;stroke-miterlimit:10;}
	.st30{fill:none;stroke:#FF704C;stroke-width:1.5;stroke-linecap:round;stroke-linejoin:round;stroke-miterlimit:10;}
	.st31{fill:none;stroke:#FF804C;stroke-width:1.5;stroke-linecap:round;stroke-linejoin:round;stroke-miterlimit:10;}
	.st32{fill:none;stroke:#A3D5D0;stroke-width:1.4377;stroke-linecap:round;stroke-linejoin:round;stroke-miterlimit:10;}
	.st33{fill:#0041BD;stroke:#F1D439;stroke-width:1.5;stroke-linecap:round;stroke-linejoin:round;stroke-miterlimit:10;}
	.st34{fill:none;stroke:#F1D439;stroke-width:1.5;stroke-linecap:round;stroke-linejoin:round;stroke-miterlimit:10;}
	.st35{fill:none;stroke:#A3D5D0;stroke-width:1.5;stroke-linecap:round;stroke-linejoin:round;stroke-miterlimit:10;}
	.st36{fill:none;stroke:#96D5CE;stroke-width:1.4377;stroke-linecap:round;stroke-linejoin:round;stroke-miterlimit:10;}
	.st37{fill:none;stroke:#0047BF;stroke-width:1.5;stroke-linecap:round;stroke-linejoin:round;stroke-miterlimit:10;}
	.st38{fill:#0047BF;stroke:#FF704C;stroke-width:2;stroke-linecap:round;stroke-linejoin:round;stroke-miterlimit:10;}
	.st39{fill:#0047BF;stroke:#FF804C;stroke-width:2;stroke-linecap:round;stroke-linejoin:round;stroke-miterlimit:10;}
	.st40{fill:#0047BF;stroke:#E2E6E6;stroke-width:2;stroke-linecap:round;stroke-linejoin:round;stroke-miterlimit:10;}
	.st41{fill:#0047BF;stroke:#A3D5D0;stroke-width:2;stroke-linecap:round;stroke-linejoin:round;stroke-miterlimit:10;}
	.st42{fill:#0047BF;stroke:#F1D439;stroke-width:2;stroke-linecap:round;stroke-linejoin:round;stroke-miterlimit:10;}
	.st43{fill:#0041BD;stroke:#E2E6E6;stroke-width:2;stroke-linecap:round;stroke-linejoin:round;stroke-miterlimit:10;}
	.st44{fill:#E2E6E6;}
	.st45{fill:none;stroke:#0047BF;stroke-width:1.4377;stroke-linecap:round;stroke-linejoin:round;stroke-miterlimit:10;}
	.st46{fill:#0047BF;stroke:#A3D5D0;stroke-width:1.5;stroke-linecap:round;stroke-linejoin:round;stroke-miterlimit:10;}
	.st47{fill:none;stroke:#E2E6E6;stroke-width:1.5;stroke-linecap:round;stroke-linejoin:round;stroke-miterlimit:10;}
	.st48{fill:#0047BF;stroke:#FF704C;stroke-width:1.5;stroke-linecap:round;stroke-linejoin:round;stroke-miterlimit:10;}
	.st49{fill:#0047BF;stroke:#FF804C;stroke-width:1.5;stroke-linecap:round;stroke-linejoin:round;stroke-miterlimit:10;}
	.st50{fill:#0047BF;stroke:#F1D439;stroke-width:1.5;stroke-linecap:round;stroke-linejoin:round;stroke-miterlimit:10;}
	.st51{fill:#0041BD;stroke:#0047BF;stroke-width:2;stroke-linecap:round;stroke-linejoin:round;stroke-miterlimit:10;}
	
		.st52{fill:none;stroke:#FFFFFF;stroke-width:2;stroke-linecap:round;stroke-linejoin:round;stroke-miterlimit:10;stroke-dasharray:15,5;}
	.st53{fill:#1B3570;}
	.st54{fill:#B5C0C0;}
	.st55{fill:#0047BF;stroke:#B5C0C0;stroke-width:2;stroke-linecap:round;stroke-linejoin:round;stroke-miterlimit:10;}
	.st56{fill:none;stroke:#B5C0C0;stroke-width:2;stroke-linecap:round;stroke-linejoin:round;stroke-miterlimit:10;}
	.st57{fill:#0047BF;stroke:#96D5CE;stroke-width:2;stroke-linecap:round;stroke-linejoin:round;stroke-miterlimit:10;}
	.st58{fill:#96D5CE;}
	.st59{fill:#FF7E51;}
	.st60{fill:#0B0069;}
	.st61{fill:#0047BF;stroke:#FFFFFF;stroke-width:2;stroke-linecap:round;stroke-linejoin:round;stroke-miterlimit:10;}
	.st62{fill:none;stroke:#FF7E51;stroke-width:1.5;stroke-linecap:round;stroke-linejoin:round;stroke-miterlimit:10;}
	.st63{fill:#0B0069;stroke:#FFFFFF;stroke-width:1.5;stroke-linecap:round;stroke-linejoin:round;stroke-miterlimit:10;}
</style>
<g>
	<g>
		<path class="st59" d="M62.4,130.7c-0.2,0-0.3-0.1-0.5-0.2c-0.2-0.1-0.3-0.4-0.3-0.6v-3.8c0-0.2,0.1-0.4,0.3-0.6
			c0.2-0.1,0.4-0.2,0.6-0.1c0.5,0.1,3.3,0.8,3.9,1.1c0.4,0.2,0.5,0.6,0.4,1c-0.2,0.4-0.6,0.5-1,0.4c-0.3-0.1-1.6-0.5-2.7-0.8v1.9
			c1.1-0.3,2.4-0.6,2.7-0.8c0.4-0.2,0.8,0,1,0.4c0.2,0.4,0,0.8-0.4,1c-0.6,0.3-3.3,1-3.9,1.1C62.5,130.7,62.5,130.7,62.4,130.7z"/>
	</g>
	<path class="st59" d="M67.5,126.5c-0.1,0-0.2,0-0.4-0.1c-0.4-0.2-0.5-0.7-0.3-1l0.1-0.2c0.2-0.4,0.8-1.5,1.9-1.2
		c0.4,0.1,1.1,0.2,1.6,0.3c0.3-0.3,0.7-0.6,1.3-0.8c0.7-0.3,2-0.6,2.7-0.8c0.9-0.2,1.5,0.1,1.8,0.3c0.8,0.6,1,1.6,1,1.7
		c0.1,0.4-0.2,0.8-0.7,0.8c-0.4,0-0.8-0.2-0.8-0.6c0-0.1-0.1-0.5-0.4-0.7c-0.1,0-0.2-0.2-0.6-0.1c-0.7,0.1-1.9,0.5-2.5,0.7
		c-0.6,0.2-0.9,0.7-0.9,0.7c-0.2,0.2-0.4,0.3-0.7,0.3c-0.1,0-1.4-0.2-2.1-0.4c-0.1,0.1-0.2,0.3-0.2,0.4l-0.1,0.2
		C68,126.3,67.8,126.5,67.5,126.5z"/>
	<path class="st59" d="M68.6,131.5c-1.1,0-1.5-0.7-1.7-1c-0.2-0.4-0.1-0.8,0.2-1c0.4-0.2,0.8-0.1,1,0.2c0.2,0.3,0.2,0.3,0.5,0.3
		l0.8-0.1c0.3,0,0.6,0,1-0.1c0.1-0.1,0.2-0.3,0.5-0.4c0.2,0,0.4,0,0.6,0.1c0.3,0.2,0.5,0.7,0.2,1c0,0-0.1,0.1-0.1,0.1
		c-0.2,0.4-0.6,0.6-1,0.6c-0.5,0-0.8,0.1-1.1,0.1l-0.8,0.1C68.7,131.5,68.7,131.5,68.6,131.5z"/>
	<path class="st2" d="M75.1,131.4c-5.1,0-10.5-2-10.5-3.4c0-1.4,6.2-3.8,10.7-3.8c1.5,0,4.1,1.4,6.1,2.6l0,0
		c0.4,0.3,0.7,0.7,0.7,1.2c0,0.5-0.2,1-0.6,1.3C80.1,130.2,78,131.4,75.1,131.4z M66.5,128c1.3,0.7,4.5,1.9,8.6,1.9
		c2.5,0,4.4-1,5.5-1.8l0.4-0.7l-0.4,0.6c-2.5-1.5-4.4-2.4-5.3-2.4C71.5,125.6,67.9,127.2,66.5,128z"/>
</g>
<g>
	<g>
		<path class="st59" d="M89.9,131c-0.2,0-0.3-0.1-0.5-0.2c-0.2-0.1-0.3-0.4-0.3-0.6v-3.8c0-0.2,0.1-0.4,0.3-0.6
			c0.2-0.1,0.4-0.2,0.6-0.1c0.5,0.1,3.3,0.8,3.9,1.1c0.4,0.2,0.5,0.6,0.4,1c-0.2,0.4-0.6,0.5-1,0.4c-0.3-0.1-1.6-0.5-2.7-0.8v1.9
			c1.1-0.3,2.4-0.6,2.7-0.8c0.4-0.2,0.8,0,1,0.4c0.2,0.4,0,0.8-0.4,1c-0.6,0.3-3.3,1-3.9,1.1C90,131,89.9,131,89.9,131z"/>
	</g>
	<path class="st59" d="M95,126.8c-0.1,0-0.2,0-0.4-0.1c-0.4-0.2-0.5-0.7-0.3-1l0.1-0.2c0.2-0.5,0.8-1.5,1.9-1.2
		c0.4,0.1,1.1,0.2,1.6,0.3c0.3-0.3,0.7-0.6,1.3-0.8c0.7-0.3,2-0.6,2.7-0.8c0.9-0.2,1.5,0.1,1.8,0.3c0.8,0.6,1,1.6,1,1.7
		c0.1,0.4-0.2,0.8-0.7,0.8c-0.4,0.1-0.8-0.2-0.8-0.6c0-0.1-0.1-0.5-0.4-0.7c-0.1,0-0.2-0.2-0.6-0.1c-0.7,0.1-1.9,0.5-2.5,0.7
		c-0.6,0.2-0.9,0.7-0.9,0.7c-0.2,0.2-0.4,0.4-0.7,0.3c-0.1,0-1.4-0.2-2.1-0.4c-0.1,0.1-0.2,0.3-0.2,0.4l-0.1,0.2
		C95.5,126.7,95.2,126.8,95,126.8z"/>
	<path class="st59" d="M96.1,131.9c-1.1,0-1.5-0.7-1.7-1c-0.2-0.4-0.1-0.8,0.2-1c0.4-0.2,0.8-0.1,1,0.2c0.2,0.3,0.2,0.3,0.5,0.3
		l0.8-0.1c0.3,0,0.6,0,1-0.1c0.1-0.1,0.2-0.3,0.5-0.4c0.2,0,0.4,0,0.6,0.1c0.3,0.2,0.5,0.7,0.2,1c0,0-0.1,0.1-0.1,0.1
		c-0.2,0.4-0.6,0.6-1,0.6c-0.5,0-0.8,0.1-1.1,0.1c-0.2,0-0.4,0-0.8,0.1C96.2,131.9,96.1,131.9,96.1,131.9z"/>
	<path class="st2" d="M102.5,131.7c-5.1,0-10.5-2-10.5-3.4c0-1.4,6.2-3.8,10.7-3.8c1.5,0,4.1,1.4,6.1,2.6c0,0,0,0,0,0
		c0.4,0.3,0.7,0.7,0.7,1.2c0,0.5-0.2,1-0.6,1.3C107.6,130.5,105.4,131.7,102.5,131.7z M94,128.3c1.3,0.7,4.5,1.9,8.6,1.9
		c2.5,0,4.4-1,5.5-1.8l0.4-0.7l-0.4,0.6c-2.5-1.5-4.4-2.4-5.3-2.4C99,126,95.4,127.5,94,128.3z"/>
</g>
<path class="st14" d="M136.4,104.8c-2.6,0-3.9-0.8-5.1-1.5c-1.1-0.6-2.1-1.2-4.1-1.2s-3,0.6-4.1,1.2c-1.2,0.7-2.5,1.5-5.1,1.5
	c-2.6,0-3.9-0.8-5.1-1.5c-1.1-0.6-2.1-1.2-4.1-1.2c-0.6,0-1-0.4-1-1s0.4-1,1-1c2.6,0,3.9,0.8,5.1,1.5c1.1,0.6,2.1,1.2,4.1,1.2
	c2,0,3-0.6,4.1-1.2c1.2-0.7,2.5-1.5,5.1-1.5s3.9,0.8,5.1,1.5c1.1,0.6,2.1,1.2,4.1,1.2c0.6,0,1,0.4,1,1S136.9,104.8,136.4,104.8z"/>
<path class="st14" d="M62.9,104.8c-2.6,0-3.9-0.8-5.1-1.5c-1.1-0.6-2.1-1.2-4.1-1.2s-3,0.6-4.1,1.2c-1.2,0.7-2.5,1.5-5.1,1.5
	c-2.6,0-3.9-0.8-5.1-1.5c-1.1-0.6-2.1-1.2-4.1-1.2c-0.6,0-1-0.4-1-1s0.4-1,1-1c2.6,0,3.9,0.8,5.1,1.5c1.1,0.6,2.1,1.2,4.1,1.2
	s3-0.6,4.1-1.2c1.2-0.7,2.5-1.5,5.1-1.5c2.6,0,3.9,0.8,5.1,1.5c1.1,0.6,2.1,1.2,4.1,1.2c0.6,0,1,0.4,1,1S63.5,104.8,62.9,104.8z"/>
<path class="st14" d="M136.4,130.8c-2.6,0-3.9-0.8-5.1-1.5c-1.1-0.6-2.1-1.2-4.1-1.2s-3,0.6-4.1,1.2c-1.2,0.7-2.5,1.5-5.1,1.5
	c-0.6,0-1-0.4-1-1s0.4-1,1-1c2,0,3-0.6,4.1-1.2c1.2-0.7,2.5-1.5,5.1-1.5s3.9,0.8,5.1,1.5c1.1,0.6,2.1,1.2,4.1,1.2c0.6,0,1,0.4,1,1
	S136.9,130.8,136.4,130.8z"/>
<path class="st14" d="M44.6,130.8c-2.6,0-3.9-0.8-5.1-1.5c-1.1-0.6-2.1-1.2-4.1-1.2c-0.6,0-1-0.4-1-1s0.4-1,1-1
	c2.6,0,3.9,0.8,5.1,1.5c1.1,0.6,2.1,1.2,4.1,1.2c2,0,3-0.6,4.1-1.2c0.5-0.3,1.1-0.1,1.4,0.4c0.3,0.5,0.1,1.1-0.4,1.4
	C48.5,130,47.1,130.8,44.6,130.8z"/>
<path class="st15" d="M27,131.3H11.7c-0.4,0-0.7-0.2-0.9-0.5c-0.2-0.3-0.2-0.7,0-1l17.9-31.7V81.9c0-0.6,0.4-1,1-1s1,0.4,1,1v16.5
	c0,0.1,0,0.2-0.1,0.3l0,0c0,0,0,0,0,0c0,0,0,0,0,0l-6.8,19.1L28,130c0.1,0.3,0.1,0.6-0.1,0.9C27.7,131.2,27.4,131.3,27,131.3z
	 M13.4,129.3h12.3l-3.8-11.2c-0.1-0.2-0.1-0.4,0-0.7l3-8.4L13.4,129.3z"/>
<g>
	<path class="st14" d="M55.9,114.6c-0.2,0-0.4-0.1-0.5-0.2c-0.3-0.3-0.3-0.7-0.1-1c0-0.2-0.1-0.7-0.3-1.1c-0.1-0.3-0.1-0.6,0.2-0.9
		c0.2-0.2,0.6-0.3,0.9-0.1l3.3,1.9c0.4,0.2,0.5,0.7,0.3,1c-0.2,0.4-0.7,0.5-1,0.3l-1.9-1.1c0,0.3-0.1,0.7-0.4,0.9
		C56.3,114.5,56.1,114.6,55.9,114.6z M55.4,113.4L55.4,113.4L55.4,113.4z"/>
	<path class="st14" d="M45.9,116.2c-0.2,0-0.4-0.1-0.5-0.2c-0.3-0.3-0.3-0.8,0-1.1l1.3-1.2c0.2-0.2,0.5-0.3,0.8-0.1
		c0,0,1.1,0.5,1.4,0.7c0.4,0.2,0.5,0.6,0.3,1c-0.2,0.4-0.6,0.5-1,0.3c-0.2-0.1-0.6-0.3-0.9-0.4l-0.9,0.9
		C46.2,116.2,46.1,116.2,45.9,116.2z"/>
	<path class="st14" d="M51.7,115.1c-0.2,0-0.4-0.1-0.5-0.2c-0.3-0.3-0.3-0.8,0-1.1c0.1-0.1-0.1-0.6-0.2-0.7c-0.2-0.3-0.2-0.7,0-0.9
		c0.2-0.3,0.6-0.3,0.9-0.2l2.8,1.3c0.4,0.2,0.5,0.6,0.4,1c-0.2,0.4-0.6,0.5-1,0.4l-1.4-0.7c-0.1,0.3-0.2,0.6-0.5,0.9
		C52,115.1,51.8,115.1,51.7,115.1z"/>
	<path class="st14" d="M57,120.4c-0.1,0-0.2,0-0.3,0c-0.5,0-3.9-0.4-7.3-1.9c-0.4-0.2-0.6-0.6-0.4-1c0.2-0.4,0.6-0.5,1-0.4
		c3.4,1.5,6.9,1.8,6.9,1.8c0,0,0,0,0.1,0l1.4-0.9c0.4-0.2,0.8-0.1,1,0.2c0.2,0.4,0.1,0.8-0.2,1l-1.4,0.9
		C57.4,120.4,57.2,120.4,57,120.4z"/>
	<path class="st14" d="M40.7,118.8c-0.4,0-0.8-0.3-0.8-0.8v-3.3c0-0.4,0.4-0.8,0.8-0.7c1.8,0,3.3,0.5,4,1.3c0.2,0.2,0.3,0.5,0.1,0.8
		c0.1,0,0.1,0.1,0.2,0.1c0.3,0.3,0.3,0.8,0,1.1c-1,1-2.4,1.5-4.3,1.5C40.7,118.7,40.7,118.8,40.7,118.8z M41.4,115.5v1.7
		c1-0.1,1.8-0.4,2.4-0.8c0,0-0.1-0.1-0.1-0.1C43.4,115.9,42.6,115.6,41.4,115.5z"/>
	<path class="st14" d="M48,119.1c-0.2,0-0.3,0-0.4-0.1l-1.7-1.3c-0.3-0.2-0.4-0.7-0.2-1c0.2-0.3,0.7-0.4,1-0.2l1.3,1l0.5-0.3
		c0.4-0.2,0.8-0.1,1,0.3c0.2,0.4,0.1,0.8-0.3,1l-0.9,0.5C48.2,119.1,48.1,119.1,48,119.1z"/>
	<path class="st2" d="M56.5,119.3c-3.9,0-10.3-1.4-12.8-2.1c-0.4-0.1-0.7-0.5-0.7-1c0-0.5,0.3-0.9,0.7-1c2.5-0.6,8.9-2.1,12.8-2.1
		c5.3,0,10.3,2.2,10.5,2.3c0.3,0.1,0.5,0.5,0.4,0.8c0,0.4-0.1,0.8-4.5,2l-0.2,0.1C61.4,118.8,59.3,119.3,56.5,119.3z M46.2,116.3
		c2.9,0.6,7.4,1.5,10.3,1.5c2.7,0,4.6-0.5,5.8-0.9l0.2-0.1c0.2-0.1,1.1-0.3,2-0.6c-1.9-0.6-4.9-1.5-8-1.5
		C53.6,114.8,49.1,115.7,46.2,116.3z M44,116.8C44,116.8,44,116.8,44,116.8C44,116.8,44,116.8,44,116.8z"/>
</g>
<g>
	<path class="st14" d="M88.5,114.6c-0.2,0-0.4-0.1-0.5-0.2c-0.3-0.3-0.3-0.7-0.1-1c0-0.2-0.1-0.7-0.2-1.1c-0.1-0.3-0.1-0.6,0.2-0.9
		c0.2-0.2,0.6-0.3,0.9-0.1l3.3,1.9c0.4,0.2,0.5,0.7,0.3,1c-0.2,0.4-0.7,0.5-1,0.3l-1.9-1.1c0,0.3-0.1,0.7-0.4,0.9
		C88.9,114.5,88.7,114.6,88.5,114.6z M87.9,113.4L87.9,113.4L87.9,113.4z"/>
	<path class="st14" d="M78.4,116.2c-0.2,0-0.4-0.1-0.5-0.2c-0.3-0.3-0.3-0.8,0-1.1l1.3-1.2c0.2-0.2,0.5-0.3,0.8-0.1
		c0,0,1.1,0.5,1.4,0.7c0.4,0.2,0.5,0.6,0.3,1c-0.2,0.4-0.6,0.5-1,0.3c-0.2-0.1-0.6-0.3-0.9-0.4l-0.9,0.9
		C78.8,116.2,78.6,116.2,78.4,116.2z"/>
	<path class="st14" d="M84.2,115.1c-0.2,0-0.4-0.1-0.5-0.2c-0.3-0.3-0.3-0.8,0-1.1c0.1-0.1-0.1-0.6-0.2-0.7c-0.2-0.3-0.2-0.7,0-0.9
		c0.2-0.3,0.6-0.3,0.9-0.2l2.8,1.3c0.4,0.2,0.5,0.6,0.4,1s-0.6,0.5-1,0.4l-1.4-0.7c-0.1,0.3-0.2,0.6-0.5,0.9
		C84.5,115.1,84.4,115.1,84.2,115.1z"/>
	<path class="st14" d="M89.5,120.4c-0.1,0-0.2,0-0.3,0c-0.5,0-3.9-0.4-7.3-1.9c-0.4-0.2-0.6-0.6-0.4-1c0.2-0.4,0.6-0.5,1-0.4
		c3.4,1.5,6.9,1.8,6.9,1.8c0,0,0,0,0.1,0l1.4-0.9c0.4-0.2,0.8-0.1,1,0.2c0.2,0.4,0.1,0.8-0.2,1l-1.4,0.9
		C90,120.4,89.7,120.4,89.5,120.4z"/>
	<path class="st14" d="M73.2,118.8c-0.4,0-0.8-0.3-0.8-0.8v-3.3c0-0.4,0.4-0.8,0.8-0.7c1.8,0,3.3,0.5,4,1.3c0.2,0.2,0.3,0.5,0.1,0.8
		c0.1,0,0.1,0.1,0.2,0.1c0.3,0.3,0.3,0.8,0,1.1c-1,1-2.4,1.5-4.3,1.5C73.3,118.7,73.2,118.8,73.2,118.8z M73.9,115.5v1.7
		c1-0.1,1.8-0.4,2.4-0.8c0,0-0.1-0.1-0.1-0.1C75.9,115.9,75.1,115.6,73.9,115.5z"/>
	<path class="st14" d="M80.5,119.1c-0.2,0-0.3,0-0.4-0.1l-1.7-1.3c-0.3-0.2-0.4-0.7-0.2-1c0.2-0.3,0.7-0.4,1-0.2l1.3,1l0.5-0.3
		c0.4-0.2,0.8-0.1,1,0.3c0.2,0.4,0.1,0.8-0.3,1l-0.9,0.5C80.7,119.1,80.6,119.1,80.5,119.1z"/>
	<path class="st2" d="M89,119.3c-3.9,0-10.3-1.4-12.8-2.1c-0.4-0.1-0.7-0.5-0.7-1c0-0.5,0.3-0.9,0.7-1c2.5-0.6,8.9-2.1,12.8-2.1
		c5.3,0,10.3,2.2,10.5,2.3c0.3,0.1,0.5,0.5,0.4,0.8c0,0.4-0.1,0.8-4.5,2l-0.2,0.1C93.9,118.8,91.9,119.3,89,119.3z M78.7,116.3
		c3,0.7,7.4,1.5,10.3,1.5c2.7,0,4.6-0.5,5.8-0.9l0.2-0.1c0.2-0.1,1.1-0.3,2-0.6c-1.9-0.6-4.9-1.5-8-1.5
		C86.1,114.8,81.7,115.7,78.7,116.3z"/>
</g>
<g>
	<path class="st14" d="M88.5,100.9c-0.2,0-0.4-0.1-0.5-0.2c-0.3-0.3-0.3-0.7-0.1-1c0-0.2-0.1-0.7-0.2-1.1c-0.1-0.3-0.1-0.6,0.2-0.9
		c0.2-0.2,0.6-0.3,0.9-0.1l3.3,1.9c0.4,0.2,0.5,0.7,0.3,1c-0.2,0.4-0.7,0.5-1,0.3l-1.9-1.1c0,0.3-0.1,0.7-0.4,0.9
		C88.9,100.8,88.7,100.9,88.5,100.9z M87.9,99.7L87.9,99.7L87.9,99.7z"/>
	<path class="st14" d="M78.4,102.5c-0.2,0-0.4-0.1-0.5-0.2c-0.3-0.3-0.3-0.8,0-1.1l1.3-1.2c0.2-0.2,0.5-0.3,0.8-0.1
		c0,0,1.1,0.5,1.4,0.7c0.4,0.2,0.5,0.6,0.3,1c-0.2,0.4-0.6,0.5-1,0.3c-0.2-0.1-0.6-0.3-0.9-0.4l-0.9,0.9
		C78.8,102.4,78.6,102.5,78.4,102.5z"/>
	<path class="st14" d="M84.2,101.4c-0.2,0-0.4-0.1-0.5-0.2c-0.3-0.3-0.3-0.8,0-1.1c0.1-0.1-0.1-0.6-0.2-0.7c-0.2-0.3-0.2-0.7,0-0.9
		c0.2-0.3,0.6-0.3,0.9-0.2l2.8,1.3c0.4,0.2,0.5,0.6,0.4,1c-0.2,0.4-0.6,0.5-1,0.4l-1.4-0.7c-0.1,0.3-0.2,0.6-0.5,0.9
		C84.5,101.3,84.4,101.4,84.2,101.4z"/>
	<path class="st14" d="M89.5,106.7c-0.1,0-0.2,0-0.3,0c-0.5,0-3.9-0.4-7.3-1.9c-0.4-0.2-0.6-0.6-0.4-1c0.2-0.4,0.6-0.5,1-0.4
		c3.4,1.5,6.9,1.8,6.9,1.8c0,0,0,0,0.1,0l1.4-0.9c0.4-0.2,0.8-0.1,1,0.2c0.2,0.4,0.1,0.8-0.2,1l-1.4,0.9
		C90,106.6,89.7,106.7,89.5,106.7z"/>
	<path class="st14" d="M73.2,105c-0.4,0-0.8-0.3-0.8-0.8V101c0-0.4,0.4-0.8,0.8-0.7c1.8,0,3.3,0.5,4,1.3c0.2,0.2,0.3,0.5,0.1,0.8
		c0.1,0,0.1,0.1,0.2,0.1c0.3,0.3,0.3,0.8,0,1.1c-1,1-2.4,1.5-4.3,1.5C73.3,105,73.2,105,73.2,105z M73.9,101.8v1.7
		c1-0.1,1.8-0.4,2.4-0.8c0,0-0.1-0.1-0.1-0.1C75.9,102.2,75.1,101.9,73.9,101.8z"/>
	<path class="st14" d="M80.5,105.4c-0.2,0-0.3,0-0.4-0.1l-1.7-1.3c-0.3-0.2-0.4-0.7-0.2-1c0.2-0.3,0.7-0.4,1-0.2l1.3,1l0.5-0.3
		c0.4-0.2,0.8-0.1,1,0.3c0.2,0.4,0.1,0.8-0.3,1l-0.9,0.5C80.7,105.4,80.6,105.4,80.5,105.4z"/>
	<path class="st2" d="M89,105.6c-3.9,0-10.3-1.4-12.8-2.1c-0.4-0.1-0.7-0.5-0.7-1c0-0.5,0.3-0.9,0.7-1c2.5-0.6,8.9-2.1,12.8-2.1
		c5.3,0,10.3,2.2,10.5,2.3c0.3,0.1,0.5,0.5,0.4,0.8c0,0.3-0.1,0.8-4.5,2l-0.2,0C93.9,105.1,91.9,105.6,89,105.6z M78.7,102.6
		c3,0.7,7.4,1.5,10.3,1.5c2.7,0,4.6-0.5,5.8-0.9l0.2-0.1c0.2-0.1,1.1-0.3,2-0.6c-1.9-0.6-4.9-1.5-8-1.5
		C86.1,101.1,81.7,102,78.7,102.6z"/>
</g>
<g>
	<path class="st14" d="M121.9,114.6c-0.2,0-0.4-0.1-0.5-0.2c-0.3-0.3-0.3-0.7-0.1-1c0-0.2-0.1-0.7-0.2-1.1c-0.1-0.3-0.1-0.6,0.2-0.9
		c0.2-0.2,0.6-0.3,0.9-0.1l3.3,1.9c0.4,0.2,0.5,0.7,0.3,1c-0.2,0.4-0.7,0.5-1,0.3l-1.9-1.1c0,0.3-0.1,0.7-0.4,0.9
		C122.3,114.5,122.1,114.6,121.9,114.6z"/>
	<path class="st14" d="M111.8,116.2c-0.2,0-0.4-0.1-0.5-0.2c-0.3-0.3-0.3-0.8,0-1.1l1.3-1.2c0.2-0.2,0.5-0.3,0.8-0.1
		c0,0,1.1,0.5,1.4,0.7c0.4,0.2,0.5,0.6,0.3,1c-0.2,0.4-0.6,0.5-1,0.3c-0.2-0.1-0.6-0.3-0.9-0.4l-0.9,0.9
		C112.2,116.2,112,116.2,111.8,116.2z"/>
	<path class="st14" d="M117.6,115.1c-0.2,0-0.4-0.1-0.5-0.2c-0.3-0.3-0.3-0.8,0-1.1c0.1-0.1-0.1-0.6-0.2-0.7c-0.2-0.3-0.2-0.7,0-0.9
		c0.2-0.3,0.6-0.3,0.9-0.2l2.8,1.3c0.4,0.2,0.5,0.6,0.4,1s-0.6,0.5-1,0.4l-1.4-0.7c-0.1,0.3-0.2,0.6-0.5,0.9
		C118,115.1,117.8,115.1,117.6,115.1z"/>
	<path class="st14" d="M122.9,120.4c-0.1,0-0.2,0-0.3,0c-0.5,0-3.9-0.4-7.3-1.9c-0.4-0.2-0.6-0.6-0.4-1c0.2-0.4,0.6-0.5,1-0.4
		c3.4,1.5,6.9,1.8,6.9,1.8c0,0,0,0,0.1,0l1.4-0.9c0.4-0.2,0.8-0.1,1,0.2s0.1,0.8-0.2,1l-1.4,0.9
		C123.4,120.4,123.1,120.4,122.9,120.4z M122.8,119C122.8,119,122.8,119,122.8,119L122.8,119z"/>
	<path class="st14" d="M106.6,118.8c-0.4,0-0.8-0.3-0.8-0.8v-3.3c0-0.4,0.4-0.8,0.8-0.7c1.8,0,3.3,0.5,4,1.3
		c0.2,0.2,0.3,0.5,0.1,0.8c0.1,0,0.1,0.1,0.2,0.1c0.3,0.3,0.3,0.8,0,1.1c-1,1-2.4,1.5-4.3,1.5C106.7,118.7,106.6,118.8,106.6,118.8z
		 M107.3,115.5v1.7c1-0.1,1.8-0.4,2.4-0.8c0,0-0.1-0.1-0.1-0.1C109.3,115.9,108.5,115.6,107.3,115.5z"/>
	<path class="st14" d="M113.9,119.1c-0.2,0-0.3,0-0.4-0.1l-1.7-1.3c-0.3-0.2-0.4-0.7-0.2-1c0.2-0.3,0.7-0.4,1-0.2l1.3,1l0.5-0.3
		c0.4-0.2,0.8-0.1,1,0.3c0.2,0.4,0.1,0.8-0.3,1l-0.9,0.5C114.2,119.1,114,119.1,113.9,119.1z"/>
	<path class="st2" d="M122.4,119.3c-3.9,0-10.3-1.4-12.8-2.1c-0.4-0.1-0.7-0.5-0.7-1c0-0.5,0.3-0.9,0.7-1c2.5-0.6,8.9-2.1,12.8-2.1
		c5.3,0,10.3,2.2,10.5,2.3c0.3,0.1,0.5,0.5,0.4,0.8c0,0.3-0.1,0.8-4.5,2l-0.2,0C127.3,118.8,125.3,119.3,122.4,119.3z M112.1,116.3
		c3,0.7,7.4,1.5,10.3,1.5c2.7,0,4.6-0.5,5.8-0.9l0.2-0.1c0.2-0.1,1.1-0.3,2-0.6c-1.9-0.6-4.9-1.5-8-1.5
		C119.5,114.8,115.1,115.7,112.1,116.3z"/>
</g>
<path class="st2" d="M42.7,94.8c-0.6,0-1-0.4-1-1V81.9c0-0.6,0.4-1,1-1l72.1,0l4.5-1.8c0.1,0,0.2-0.1,0.3-0.1l21.3-2
	c0.4,0,0.8,0.2,1,0.5c0.2,0.4,0.1,0.8-0.1,1.1l-12.2,13.8c-0.4,0.4-1,0.5-1.4,0.1c-0.4-0.4-0.5-1-0.1-1.4l10.5-11.9L120,81l-4.6,1.8
	c-0.1,0-0.2,0.1-0.4,0.1l-71.3,0v10.9C43.7,94.3,43.3,94.8,42.7,94.8z"/>
<path class="st8" d="M53.6,53c-1.2,0-2.2,1-2.2,2.3s1,2.3,2.2,2.3c1.2,0,2.2-1,2.2-2.3S54.9,53,53.6,53z M53.6,56.4
	c-0.6,0-1.1-0.5-1.1-1.1c0-0.6,0.5-1.1,1.1-1.1c0.6,0,1.1,0.5,1.1,1.1C54.7,55.9,54.2,56.4,53.6,56.4z"/>
<path class="st8" d="M53.6,64.1c-0.6,0-1-0.4-1-1v-5.5c0-0.6,0.4-1,1-1s1,0.4,1,1v5.5C54.6,63.6,54.2,64.1,53.6,64.1z"/>
<path class="st8" d="M55.6,60.7h-4.1c-0.6,0-1-0.4-1-1s0.4-1,1-1h4.1c0.6,0,1,0.4,1,1S56.2,60.7,55.6,60.7z"/>
<path class="st2" d="M51.6,82.9c-0.1,0-0.2,0-0.2,0c-0.5-0.1-0.9-0.7-0.7-1.2l1.8-7.2l-1.8-10.6c0-0.3,0-0.6,0.2-0.8
	c0.2-0.2,0.5-0.4,0.8-0.4h3.6c0.5,0,0.9,0.4,1,0.8l2.7,17.2c0.1,0.5-0.3,1.1-0.8,1.1c-0.5,0.1-1.1-0.3-1.1-0.8l-2.5-16.4h-1.5
	l1.7,9.6c0,0.1,0,0.3,0,0.4l-1.9,7.4C52.4,82.6,52,82.9,51.6,82.9z"/>
<path class="st2" d="M96.5,82.9c-0.1,0-0.3,0-0.4-0.1c-0.5-0.2-0.7-0.8-0.5-1.3l3.8-8.2l-0.5-2.6c-0.1-0.3,0-0.5,0.2-0.8
	c0.2-0.2,0.4-0.4,0.7-0.4l16.5-2.3c0.3,0,0.6,0.1,0.9,0.3l2,2.1c0.3,0.3,0.4,0.7,0.2,1.1l-1.4,3l2.7,5.8c0.2,0.5,0,1.1-0.5,1.3
	c-0.5,0.2-1.1,0-1.3-0.5l-2.9-6.3c-0.1-0.3-0.1-0.6,0-0.8l1.3-2.8l-1.2-1.2l-15,2.1l0.3,1.8c0,0.2,0,0.4-0.1,0.6l-3.9,8.5
	C97.3,82.6,96.9,82.9,96.5,82.9z"/>
<path class="st2" d="M113.1,93.4c-0.2,0-0.4-0.1-0.6-0.2c-0.4-0.3-0.5-1-0.2-1.4l3-3.8H51c-0.6,0-1-0.4-1-1s0.4-1,1-1h66.5
	c0.4,0,0.7,0.2,0.9,0.6s0.1,0.8-0.1,1.1l-4.3,5.4C113.7,93.3,113.4,93.4,113.1,93.4z"/>
<path class="st2" d="M116.7,74.4h-16.3c-0.6,0-1-0.4-1-1s0.4-1,1-1h16.3c0.6,0,1,0.4,1,1S117.3,74.4,116.7,74.4z"/>
<path class="st2" d="M108.6,74.4c-0.6,0-1-0.4-1-1v-3.6c0-0.6,0.4-1,1-1s1,0.4,1,1v3.6C109.6,73.9,109.1,74.4,108.6,74.4z"/>
<path class="st2" d="M112.6,74.1c-0.1,0-0.1,0-0.2,0c-0.5-0.1-0.9-0.7-0.8-1.2l1-4.5c0.1-0.5,0.7-0.9,1.2-0.8
	c0.5,0.1,0.9,0.7,0.8,1.2l-1,4.5C113.5,73.8,113.1,74.1,112.6,74.1z"/>
<path class="st2" d="M104.5,74.1c-0.5,0-0.9-0.4-1-0.9l-0.5-3.2c-0.1-0.5,0.3-1.1,0.8-1.1c0.5-0.1,1.1,0.3,1.1,0.8l0.5,3.2
	c0.1,0.5-0.3,1.1-0.8,1.1C104.6,74.1,104.5,74.1,104.5,74.1z"/>
<path class="st14" d="M136.4,95.4c-2.6,0-3.9-0.8-5.1-1.5c-1.1-0.6-2.1-1.2-4.1-1.2s-3,0.6-4.1,1.2c-1.2,0.7-2.5,1.5-5.1,1.5
	c-2.6,0-3.9-0.8-5.1-1.5c-1.1-0.6-2.1-1.2-4.1-1.2c-2,0-3,0.6-4.1,1.2c-1.2,0.7-2.5,1.5-5.1,1.5c-2.6,0-3.9-0.8-5.1-1.5
	c-1.1-0.6-2.1-1.2-4.1-1.2c-2,0-3,0.6-4.1,1.2c-1.2,0.7-2.5,1.5-5.1,1.5s-3.9-0.8-5.1-1.5c-1.1-0.6-2.1-1.2-4.1-1.2
	c-2,0-3,0.6-4.1,1.2c-1.2,0.7-2.5,1.5-5.1,1.5s-3.9-0.8-5.1-1.5c-1.1-0.6-2.1-1.2-4.1-1.2s-3,0.6-4.1,1.2c-1.2,0.7-2.5,1.5-5.1,1.5
	c-2.6,0-3.9-0.8-5.1-1.5c-1.1-0.6-2.1-1.2-4.1-1.2c-0.6,0-1-0.4-1-1s0.4-1,1-1c2.6,0,3.9,0.8,5.1,1.5c1.1,0.6,2.1,1.2,4.1,1.2
	s3-0.6,4.1-1.2c1.2-0.7,2.5-1.5,5.1-1.5c2.6,0,3.9,0.8,5.1,1.5c1.1,0.6,2.1,1.2,4.1,1.2c2,0,3-0.6,4.1-1.2c1.2-0.7,2.5-1.5,5.1-1.5
	s3.9,0.8,5.1,1.5c1.1,0.6,2.1,1.2,4.1,1.2c2,0,3-0.6,4.1-1.2c1.2-0.7,2.5-1.5,5.1-1.5c2.6,0,3.9,0.8,5.1,1.5
	c1.1,0.6,2.1,1.2,4.1,1.2c2,0,3-0.6,4.1-1.2c1.2-0.7,2.5-1.5,5.1-1.5s3.9,0.8,5.1,1.5c1.1,0.6,2.1,1.2,4.1,1.2c2,0,3-0.6,4.1-1.2
	c1.2-0.7,2.5-1.5,5.1-1.5s3.9,0.8,5.1,1.5c1.1,0.6,2.1,1.2,4.1,1.2c0.6,0,1,0.4,1,1S137,95.4,136.4,95.4z"/>
<path class="st14" d="M136.4,140.9c-2.6,0-3.9-0.8-5.1-1.5c-1.1-0.6-2.1-1.2-4.1-1.2s-3,0.6-4.1,1.2c-1.2,0.7-2.5,1.5-5.1,1.5
	c-2.6,0-3.9-0.8-5.1-1.5c-1.1-0.6-2.1-1.2-4.1-1.2c-2,0-3,0.6-4.1,1.2c-1.2,0.7-2.5,1.5-5.1,1.5c-2.6,0-3.9-0.8-5.1-1.5
	c-1.1-0.6-2.1-1.2-4.1-1.2c-2,0-3,0.6-4.1,1.2c-1.2,0.7-2.5,1.5-5.1,1.5s-3.9-0.8-5.1-1.5c-1.1-0.6-2.1-1.2-4.1-1.2
	c-2,0-3,0.6-4.1,1.2c-1.2,0.7-2.5,1.5-5.1,1.5s-3.9-0.8-5.1-1.5c-1.1-0.6-2.1-1.2-4.1-1.2s-3,0.6-4.1,1.2c-1.2,0.7-2.5,1.5-5.1,1.5
	c-2.6,0-3.9-0.8-5.1-1.5c-1.1-0.6-2.1-1.2-4.1-1.2c-0.6,0-1-0.4-1-1s0.4-1,1-1c2.6,0,3.9,0.8,5.1,1.5c1.1,0.6,2.1,1.2,4.1,1.2
	s3-0.6,4.1-1.2c1.2-0.7,2.5-1.5,5.1-1.5c2.6,0,3.9,0.8,5.1,1.5c1.1,0.6,2.1,1.2,4.1,1.2c2,0,3-0.6,4.1-1.2c1.2-0.7,2.5-1.5,5.1-1.5
	s3.9,0.8,5.1,1.5c1.1,0.6,2.1,1.2,4.1,1.2c2,0,3-0.6,4.1-1.2c1.2-0.7,2.5-1.5,5.1-1.5c2.6,0,3.9,0.8,5.1,1.5
	c1.1,0.6,2.1,1.2,4.1,1.2c2,0,3-0.6,4.1-1.2c1.2-0.7,2.5-1.5,5.1-1.5s3.9,0.8,5.1,1.5c1.1,0.6,2.1,1.2,4.1,1.2c2,0,3-0.6,4.1-1.2
	c1.2-0.7,2.5-1.5,5.1-1.5s3.9,0.8,5.1,1.5c1.1,0.6,2.1,1.2,4.1,1.2c0.6,0,1,0.4,1,1S137,140.9,136.4,140.9z"/>
<path class="st2" d="M109,61.5h-4.7c-0.6,0-1-0.4-1-1s0.4-1,1-1h4.7c0.6,0,1,0.4,1,1S109.5,61.5,109,61.5z"/>
<path class="st2" d="M108.4,69.7c-0.5,0-0.9-0.3-1-0.8l-2.5-12c-0.1-0.5,0.2-1.1,0.8-1.2c0.5-0.1,1.1,0.2,1.2,0.8l2.5,12
	c0.1,0.5-0.2,1.1-0.8,1.2C108.5,69.7,108.4,69.7,108.4,69.7z"/>
<path class="st2" d="M109.7,65.3H105c-0.6,0-1-0.4-1-1s0.4-1,1-1h4.7c0.6,0,1,0.4,1,1S110.3,65.3,109.7,65.3z"/>
<g>
	<g>
		<path class="st58" d="M129,62.1c-6.6,0-12-5.4-12-12c0-6.6,5.4-12,12-12c6.6,0,12,5.4,12,12C141.1,56.7,135.7,62.1,129,62.1z
			 M129,40c-5.5,0-10,4.5-10,10c0,5.5,4.5,10,10,10s10-4.5,10-10C139.1,44.5,134.6,40,129,40z"/>
	</g>
	<g>
		<g>
			<path class="st2" d="M129,58.3c-0.4,0-0.8-0.3-0.8-0.8V42.6c0-0.4,0.3-0.8,0.8-0.8s0.8,0.3,0.8,0.8v14.9
				C129.8,58,129.4,58.3,129,58.3z"/>
			<g>
				<path class="st2" d="M129,46.4c-0.1,0-0.3,0-0.4-0.1l-2.2-1.3c-0.4-0.2-0.5-0.7-0.3-1s0.7-0.5,1-0.3l2.2,1.3
					c0.4,0.2,0.5,0.7,0.3,1C129.5,46.3,129.3,46.4,129,46.4z"/>
				<path class="st2" d="M129,46.4c-0.3,0-0.5-0.1-0.7-0.4c-0.2-0.4-0.1-0.8,0.3-1l2.2-1.3c0.4-0.2,0.8-0.1,1,0.3
					c0.2,0.4,0.1,0.8-0.3,1l-2.2,1.3C129.3,46.4,129.1,46.4,129,46.4z"/>
			</g>
			<g>
				<path class="st2" d="M131.2,56.4c-0.1,0-0.3,0-0.4-0.1l-2.2-1.3c-0.4-0.2-0.5-0.7-0.3-1s0.7-0.5,1-0.3l2.2,1.3
					c0.4,0.2,0.5,0.7,0.3,1C131.7,56.3,131.5,56.4,131.2,56.4z"/>
				<path class="st2" d="M126.8,56.4c-0.3,0-0.5-0.1-0.7-0.4c-0.2-0.4-0.1-0.8,0.3-1l2.2-1.3c0.4-0.2,0.8-0.1,1,0.3
					c0.2,0.4,0.1,0.8-0.3,1l-2.2,1.3C127.1,56.4,126.9,56.4,126.8,56.4z"/>
			</g>
		</g>
	</g>
	<g>
		<g>
			<path class="st2" d="M131.4,53.2c-0.2,0-0.4-0.1-0.5-0.2l-4.7-4.7c-0.3-0.3-0.3-0.8,0-1.1s0.8-0.3,1.1,0l4.7,4.7
				c0.3,0.3,0.3,0.8,0,1.1C131.7,53.1,131.5,53.2,131.4,53.2z"/>
		</g>
	</g>
	<g>
		<g>
			<g>
				<line class="st60" x1="131.3" y1="47.7" x2="126.7" y2="52.4"/>
				<path class="st2" d="M126.7,53.2c-0.2,0-0.4-0.1-0.5-0.2c-0.3-0.3-0.3-0.8,0-1.1l4.7-4.7c0.3-0.3,0.8-0.3,1.1,0s0.3,0.8,0,1.1
					l-4.7,4.7C127,53.1,126.8,53.2,126.7,53.2z"/>
			</g>
		</g>
	</g>
	<g>
		<g>
			<path class="st2" d="M136.5,50.8h-14.9c-0.4,0-0.8-0.3-0.8-0.8s0.3-0.8,0.8-0.8h14.9c0.4,0,0.8,0.3,0.8,0.8
				S136.9,50.8,136.5,50.8z"/>
			<g>
				<path class="st2" d="M123.3,53.1c-0.1,0-0.3,0-0.4-0.1c-0.4-0.2-0.5-0.7-0.3-1l1.3-2.2c0.2-0.4,0.7-0.5,1-0.3
					c0.4,0.2,0.5,0.7,0.3,1l-1.3,2.2C123.9,52.9,123.6,53.1,123.3,53.1z"/>
				<path class="st2" d="M124.6,50.8c-0.3,0-0.5-0.1-0.7-0.4l-1.3-2.2c-0.2-0.4-0.1-0.8,0.3-1c0.4-0.2,0.8-0.1,1,0.3l1.3,2.2
					c0.2,0.4,0.1,0.8-0.3,1C124.9,50.8,124.7,50.8,124.6,50.8z"/>
			</g>
			<g>
				<path class="st2" d="M133.4,50.8c-0.1,0-0.3,0-0.4-0.1c-0.4-0.2-0.5-0.7-0.3-1l1.3-2.2c0.2-0.4,0.7-0.5,1-0.3
					c0.4,0.2,0.5,0.7,0.3,1l-1.3,2.2C133.9,50.7,133.6,50.8,133.4,50.8z"/>
				<path class="st2" d="M134.6,53.1c-0.3,0-0.5-0.1-0.7-0.4l-1.3-2.2c-0.2-0.4-0.1-0.8,0.3-1c0.4-0.2,0.8-0.1,1,0.3l1.3,2.2
					c0.2,0.4,0.1,0.8-0.3,1C134.9,53,134.8,53.1,134.6,53.1z"/>
			</g>
		</g>
	</g>
</g>
<path class="st2" d="M29.7,82.9c-0.3,0-0.6-0.1-0.8-0.4c-0.4-0.4-0.3-1.1,0.1-1.4l21.8-18.2c0.4-0.4,1.1-0.3,1.4,0.1
	c0.4,0.4,0.3,1.1-0.1,1.4L30.4,82.6C30.2,82.8,30,82.9,29.7,82.9z"/>
</svg>
