<?xml version="1.0" encoding="utf-8"?>
<!-- Generator: Adobe Illustrator 24.1.2, SVG Export Plug-In . SVG Version: 6.00 Build 0)  -->
<svg version="1.1" id="Layer_1" xmlns="http://www.w3.org/2000/svg" xmlns:xlink="http://www.w3.org/1999/xlink" x="0px" y="0px"
	 viewBox="0 0 174 174" style="enable-background:new 0 0 174 174;" xml:space="preserve">
<style type="text/css">
	.st0{fill:#0047BF;}
	.st1{fill:#003FC1;}
	.st2{fill:#FFFFFF;}
	.st3{fill:none;stroke:#96D5CE;stroke-width:2;stroke-linecap:round;stroke-linejoin:round;stroke-miterlimit:10;}
	.st4{fill:none;stroke:#FF704C;stroke-width:2;stroke-linecap:round;stroke-linejoin:round;stroke-miterlimit:10;}
	.st5{fill:none;stroke:#FFFFFF;stroke-width:2;stroke-linecap:round;stroke-linejoin:round;stroke-miterlimit:10;}
	.st6{fill:none;stroke:#FF804C;stroke-width:2;stroke-linecap:round;stroke-linejoin:round;stroke-miterlimit:10;}
	.st7{fill:none;stroke:#0047BF;stroke-width:2;stroke-linecap:round;stroke-linejoin:round;stroke-miterlimit:10;}
	.st8{fill:#F1D439;}
	.st9{fill:#0047BF;stroke:#BEC8C8;stroke-width:2;stroke-linecap:round;stroke-linejoin:round;stroke-miterlimit:10;}
	.st10{fill:none;stroke:#FF7E51;stroke-width:2;stroke-linecap:round;stroke-linejoin:round;stroke-miterlimit:10;}
	.st11{fill:none;stroke:#A3D5D0;stroke-width:2;stroke-linecap:round;stroke-linejoin:round;stroke-miterlimit:10;}
	.st12{fill:none;stroke:#F1D439;stroke-width:2;stroke-linecap:round;stroke-linejoin:round;stroke-miterlimit:10;}
	.st13{fill:none;stroke:#E2E6E6;stroke-width:2;stroke-linecap:round;stroke-linejoin:round;stroke-miterlimit:10;}
	.st14{fill:#A3D5D0;}
	.st15{fill:#FF804C;}
	.st16{fill:none;stroke:#BEC8C8;stroke-width:2;stroke-linecap:round;stroke-linejoin:round;stroke-miterlimit:10;}
	.st17{fill:#0047BF;stroke:#0047BF;stroke-width:2;stroke-linecap:round;stroke-linejoin:round;stroke-miterlimit:10;}
	.st18{fill:#FF704C;}
	.st19{fill:none;}
	.st20{fill:#0041BD;}
	.st21{fill:none;stroke:#FFFFFF;stroke-width:1.5;stroke-linecap:round;stroke-linejoin:round;stroke-miterlimit:10;}
	.st22{fill:#0041BD;stroke:#A3D5D0;stroke-width:1.5;stroke-linecap:round;stroke-linejoin:round;stroke-miterlimit:10;}
	.st23{fill:#0041BD;stroke:#FFFFFF;stroke-width:2;stroke-linecap:round;stroke-linejoin:round;stroke-miterlimit:10;}
	.st24{fill:#0041BD;stroke:#FF804C;stroke-width:2;stroke-linecap:round;stroke-linejoin:round;stroke-miterlimit:10;}
	.st25{fill:#0041BD;stroke:#A3D5D0;stroke-width:2;stroke-linecap:round;stroke-linejoin:round;stroke-miterlimit:10;}
	.st26{fill:#0041BD;stroke:#F1D439;stroke-width:2;stroke-linecap:round;stroke-linejoin:round;stroke-miterlimit:10;}
	.st27{fill:#FF804C;stroke:#FF804C;stroke-width:2;stroke-linecap:round;stroke-linejoin:round;stroke-miterlimit:10;}
	.st28{fill:none;stroke:#FFFFFF;stroke-width:2.5;stroke-linecap:round;stroke-linejoin:round;stroke-miterlimit:10;}
	.st29{fill:#0041BD;stroke:#FF804C;stroke-width:1.5;stroke-linecap:round;stroke-linejoin:round;stroke-miterlimit:10;}
	.st30{fill:none;stroke:#FF704C;stroke-width:1.5;stroke-linecap:round;stroke-linejoin:round;stroke-miterlimit:10;}
	.st31{fill:none;stroke:#FF804C;stroke-width:1.5;stroke-linecap:round;stroke-linejoin:round;stroke-miterlimit:10;}
	.st32{fill:none;stroke:#A3D5D0;stroke-width:1.4377;stroke-linecap:round;stroke-linejoin:round;stroke-miterlimit:10;}
	.st33{fill:#0041BD;stroke:#F1D439;stroke-width:1.5;stroke-linecap:round;stroke-linejoin:round;stroke-miterlimit:10;}
	.st34{fill:none;stroke:#F1D439;stroke-width:1.5;stroke-linecap:round;stroke-linejoin:round;stroke-miterlimit:10;}
	.st35{fill:none;stroke:#A3D5D0;stroke-width:1.5;stroke-linecap:round;stroke-linejoin:round;stroke-miterlimit:10;}
	.st36{fill:none;stroke:#96D5CE;stroke-width:1.4377;stroke-linecap:round;stroke-linejoin:round;stroke-miterlimit:10;}
	.st37{fill:none;stroke:#0047BF;stroke-width:1.5;stroke-linecap:round;stroke-linejoin:round;stroke-miterlimit:10;}
	.st38{fill:#0047BF;stroke:#FF704C;stroke-width:2;stroke-linecap:round;stroke-linejoin:round;stroke-miterlimit:10;}
	.st39{fill:#0047BF;stroke:#FF804C;stroke-width:2;stroke-linecap:round;stroke-linejoin:round;stroke-miterlimit:10;}
	.st40{fill:#0047BF;stroke:#E2E6E6;stroke-width:2;stroke-linecap:round;stroke-linejoin:round;stroke-miterlimit:10;}
	.st41{fill:#0047BF;stroke:#A3D5D0;stroke-width:2;stroke-linecap:round;stroke-linejoin:round;stroke-miterlimit:10;}
	.st42{fill:#0047BF;stroke:#F1D439;stroke-width:2;stroke-linecap:round;stroke-linejoin:round;stroke-miterlimit:10;}
	.st43{fill:#0041BD;stroke:#E2E6E6;stroke-width:2;stroke-linecap:round;stroke-linejoin:round;stroke-miterlimit:10;}
	.st44{fill:#E2E6E6;}
	.st45{fill:none;stroke:#0047BF;stroke-width:1.4377;stroke-linecap:round;stroke-linejoin:round;stroke-miterlimit:10;}
	.st46{fill:#0047BF;stroke:#A3D5D0;stroke-width:1.5;stroke-linecap:round;stroke-linejoin:round;stroke-miterlimit:10;}
	.st47{fill:none;stroke:#E2E6E6;stroke-width:1.5;stroke-linecap:round;stroke-linejoin:round;stroke-miterlimit:10;}
	.st48{fill:#0047BF;stroke:#FF704C;stroke-width:1.5;stroke-linecap:round;stroke-linejoin:round;stroke-miterlimit:10;}
	.st49{fill:#0047BF;stroke:#FF804C;stroke-width:1.5;stroke-linecap:round;stroke-linejoin:round;stroke-miterlimit:10;}
	.st50{fill:#0047BF;stroke:#F1D439;stroke-width:1.5;stroke-linecap:round;stroke-linejoin:round;stroke-miterlimit:10;}
	.st51{fill:#0041BD;stroke:#0047BF;stroke-width:2;stroke-linecap:round;stroke-linejoin:round;stroke-miterlimit:10;}
	
		.st52{fill:none;stroke:#FFFFFF;stroke-width:2;stroke-linecap:round;stroke-linejoin:round;stroke-miterlimit:10;stroke-dasharray:15,5;}
	.st53{fill:#1B3570;}
	.st54{fill:#B5C0C0;}
	.st55{fill:#0047BF;stroke:#B5C0C0;stroke-width:2;stroke-linecap:round;stroke-linejoin:round;stroke-miterlimit:10;}
	.st56{fill:none;stroke:#B5C0C0;stroke-width:2;stroke-linecap:round;stroke-linejoin:round;stroke-miterlimit:10;}
	.st57{fill:#0047BF;stroke:#96D5CE;stroke-width:2;stroke-linecap:round;stroke-linejoin:round;stroke-miterlimit:10;}
	.st58{fill:#96D5CE;}
	.st59{fill:#FF7E51;}
	.st60{fill:#0B0069;}
	.st61{fill:#0047BF;stroke:#FFFFFF;stroke-width:2;stroke-linecap:round;stroke-linejoin:round;stroke-miterlimit:10;}
	.st62{fill:none;stroke:#FF7E51;stroke-width:1.5;stroke-linecap:round;stroke-linejoin:round;stroke-miterlimit:10;}
	.st63{fill:#0B0069;stroke:#FFFFFF;stroke-width:1.5;stroke-linecap:round;stroke-linejoin:round;stroke-miterlimit:10;}
</style>
<path class="st2" d="M116.8,67.2c-0.4,0-0.8-0.3-1-0.7c-0.2-0.5,0.1-1.1,0.7-1.3l12.8-4c0.5-0.2,1.1,0.1,1.3,0.7
	c0.2,0.5-0.1,1.1-0.7,1.3l-12.8,4C116.9,67.2,116.8,67.2,116.8,67.2z"/>
<path class="st2" d="M94.7,48c-0.4,0-0.8-0.3-1-0.7c-0.2-0.5,0.1-1.1,0.7-1.2l6.1-1.9c0.5-0.2,1.1,0.1,1.2,0.7
	c0.2,0.5-0.1,1.1-0.7,1.2L95,48C94.9,48,94.8,48,94.7,48z"/>
<path class="st14" d="M105.4,47.3c-0.5,0-1.1-0.1-1.6-0.3c-0.5-0.2-0.7-0.8-0.5-1.3c0.2-0.5,0.8-0.7,1.3-0.5c0.5,0.2,1,0.2,1.5,0
	c0.5-0.2,0.8-0.6,0.9-1.1c0.2-0.7-0.1-1.5-0.8-1.9c-0.4-0.3-0.9-0.3-1.4-0.2c-0.5,0.1-0.9,0.5-1.1,0.9c-0.2,0.5-0.8,0.7-1.3,0.5
	c-0.5-0.2-0.7-0.8-0.5-1.3c0.5-1,1.3-1.7,2.3-2c1-0.3,2.1-0.2,3,0.4c1.4,0.9,2,2.5,1.6,4.1c-0.3,1.1-1,2-2,2.4
	C106.5,47.2,106,47.3,105.4,47.3z"/>
<path class="st2" d="M85.7,45.5c-0.3,0-0.6-0.1-0.8-0.4l-4.1-4.9c-0.4-0.4-0.3-1.1,0.1-1.4c0.4-0.4,1.1-0.3,1.4,0.1l4.1,4.9
	c0.4,0.4,0.3,1.1-0.1,1.4C86.2,45.4,86,45.5,85.7,45.5z"/>
<path class="st14" d="M78.2,39.8C78.1,39.8,78.1,39.8,78.2,39.8c-1.1-0.1-2.1-0.6-2.8-1.4c-0.7-0.8-0.9-1.9-0.7-3
	c0.3-1.6,1.6-2.8,3.2-3c1.1-0.1,2.2,0.2,3,1c0.8,0.8,1.2,1.8,1.2,2.9c0,0.6-0.5,1-1.1,0.9c-0.6,0-1-0.5-0.9-1.1c0-0.5-0.2-1-0.5-1.4
	c-0.4-0.4-0.9-0.5-1.4-0.5c-0.7,0.1-1.3,0.7-1.5,1.4c-0.1,0.5,0,1,0.3,1.4c0.3,0.4,0.8,0.6,1.3,0.7c0.6,0,1,0.5,0.9,1.1
	C79.1,39.4,78.7,39.8,78.2,39.8z"/>
<path class="st14" d="M90.9,109.5c-0.2,0-0.5,0-0.7-0.1c-1-0.2-1.8-0.7-2.4-1.6c-0.6-0.8-0.8-1.8-0.6-2.8c0.2-1,0.7-1.8,1.6-2.4
	c0.8-0.6,1.8-0.8,2.8-0.6c0.5,0.1,0.9,0.6,0.8,1.2c-0.1,0.5-0.6,0.9-1.2,0.8c-0.5-0.1-0.9,0-1.3,0.3c-0.4,0.3-0.6,0.7-0.7,1.1
	c-0.1,0.5,0,0.9,0.3,1.3c0.3,0.4,0.7,0.6,1.1,0.7c0.5,0.1,0.9,0,1.3-0.3c0.4-0.3,0.6-0.7,0.7-1.1c0.1-0.5,0.6-0.9,1.2-0.8
	c0.5,0.1,0.9,0.6,0.8,1.2c-0.2,1-0.7,1.8-1.6,2.4C92.3,109.3,91.6,109.5,90.9,109.5z"/>
<path class="st2" d="M113.9,103.2c-0.2,0-0.5-0.1-0.6-0.2l-4.4-3.7c-0.4-0.4-0.5-1-0.1-1.4c0.4-0.4,1-0.5,1.4-0.1l4.4,3.7
	c0.4,0.4,0.5,1,0.1,1.4C114.5,103.1,114.2,103.2,113.9,103.2z"/>
<path class="st2" d="M95.3,103.7c-0.3,0-0.7-0.2-0.8-0.5c-0.3-0.5-0.2-1.1,0.3-1.4l6.2-3.9c0.5-0.3,1.1-0.2,1.4,0.3
	c0.3,0.5,0.2,1.1-0.3,1.4l-6.2,3.9C95.7,103.7,95.5,103.7,95.3,103.7z"/>
<path class="st2" d="M105.9,93.9C105.9,93.9,105.9,93.9,105.9,93.9c-0.6,0-1-0.5-1-1.1l0.7-12.4c0-0.6,0.5-1,1.1-0.9
	c0.6,0,1,0.5,0.9,1.1L106.9,93C106.9,93.5,106.4,93.9,105.9,93.9z"/>
<path class="st14" d="M117.6,108.7c-1.8,0-3.5-1.4-3.7-3.3c-0.1-0.5,0.3-1,0.9-1.1c0.5-0.1,1,0.3,1.1,0.9c0.1,0.9,1,1.6,1.9,1.5
	c0.9-0.1,1.6-1,1.5-1.9c-0.1-0.9-1-1.6-1.9-1.5c-0.5,0.1-1-0.3-1.1-0.9c-0.1-0.5,0.3-1,0.9-1.1c2-0.3,3.9,1.2,4.2,3.2
	c0.3,2-1.2,3.9-3.2,4.2C117.9,108.7,117.8,108.7,117.6,108.7z"/>
<path class="st14" d="M131.2,68.2c-1.1,0-2.1-0.3-3.1-0.8c-0.5-0.3-0.7-0.9-0.4-1.4c0.3-0.5,0.9-0.7,1.4-0.4c2.1,1.2,4.8,0.4,6-1.7
	c1.2-2.1,0.4-4.8-1.7-6c-1-0.6-2.2-0.7-3.3-0.4c-1.1,0.3-2.1,1.1-2.6,2.1c-0.3,0.5-0.9,0.7-1.4,0.4c-0.5-0.3-0.7-0.9-0.4-1.4
	c0.8-1.5,2.2-2.6,3.8-3c1.6-0.5,3.4-0.3,4.8,0.6c3.1,1.7,4.2,5.6,2.5,8.7C135.6,67,133.4,68.2,131.2,68.2z"/>
<path class="st14" d="M105.7,101c-1.9,0-3.7-0.8-5-2.4c-1.1-1.3-1.6-3-1.4-4.7c0.2-1.7,1-3.2,2.3-4.3c0.4-0.3,1.1-0.3,1.4,0.2
	s0.3,1.1-0.2,1.4c-0.9,0.7-1.5,1.8-1.6,2.9c-0.1,1.2,0.2,2.3,0.9,3.2c1.5,1.9,4.3,2.2,6.2,0.7c0.9-0.7,1.5-1.8,1.6-2.9
	c0.1-1.2-0.2-2.3-0.9-3.2c-0.3-0.4-0.3-1.1,0.2-1.4c0.4-0.3,1.1-0.3,1.4,0.2c1.1,1.3,1.6,3,1.4,4.7c-0.2,1.7-1,3.2-2.3,4.3
	C108.5,100.6,107.1,101,105.7,101z"/>
<path class="st2" d="M100,61.9c-0.3,0-0.5-0.1-0.7-0.3l-9.3-9.7c-0.4-0.4-0.4-1,0-1.4c0.4-0.4,1-0.4,1.4,0l9.3,9.7
	c0.4,0.4,0.4,1,0,1.4C100.5,61.8,100.2,61.9,100,61.9z"/>
<path class="st14" d="M89.2,56.2C89.2,56.2,89.2,56.2,89.2,56.2c-2-0.1-3.7-1.1-4.9-2.7s-1.5-3.6-1-5.5c0.7-2.4,2.7-4.2,5.2-4.6
	c1.9-0.3,3.9,0.3,5.3,1.6c1.4,1.3,2.2,3.2,2,5.1c0,0.6-0.5,1-1.1,0.9c-0.6,0-1-0.5-0.9-1.1c0.1-1.3-0.4-2.6-1.4-3.5
	c-1-0.9-2.3-1.3-3.7-1.1c-1.7,0.2-3.1,1.5-3.5,3.1C85,50,85.2,51.3,86,52.4c0.8,1.1,2,1.7,3.3,1.8c0.6,0,1,0.5,0.9,1.1
	C90.2,55.8,89.7,56.2,89.2,56.2z"/>
<path class="st8" d="M110.9,57.5c-6.6-2.3-13.8,1.1-16.2,7.7c-2.3,6.6,1.1,13.8,7.7,16.2c6.6,2.3,13.8-1.1,16.2-7.7
	C120.9,67.1,117.5,59.9,110.9,57.5z M104.6,75.3c-3.2-1.2-4.9-4.7-3.8-7.9c1.2-3.2,4.7-4.9,7.9-3.8c3.2,1.2,4.9,4.7,3.8,7.9
	C111.4,74.7,107.8,76.4,104.6,75.3z"/>
<path class="st14" d="M37,140.5c-0.2,0-0.4-0.1-0.6-0.2c-0.2-0.2-0.4-0.5-0.4-0.8c0-0.6,0.4-1,1-1c0,0,0,0,0,0
	c5.6-1.5,8.6-5.1,8.6-7.8c0-2.7-3-6.3-8.7-7.8c-0.5,0-1-0.5-1-1c0-0.3,0.1-0.6,0.4-0.8c0.2-0.2,0.5-0.3,0.8-0.2
	c10.2,0.1,20.6,6,23.9,9.1c0.2,0.2,0.3,0.5,0.3,0.8c0,0.3-0.2,0.6-0.4,0.7c-6.2,4.4-15.9,8.9-23.7,9c0,0,0,0-0.1,0
	C37.2,140.5,37.1,140.5,37,140.5z M43.4,123.6c2.9,2.1,4.3,4.8,4.3,7.1c0,2.2-1.4,4.8-4.1,6.9c5.4-1.4,10.9-4.1,15.2-6.9
	C55.9,128.3,49.9,125.1,43.4,123.6z"/>
<g>
	<path class="st2" d="M120.5,142.1c-4.3,0-7.2-4.6-7.2-11.4s2.9-11.4,7.2-11.4c4.3,0,15.8,9.5,17.1,10.6c0.2,0.2,0.4,0.5,0.4,0.8
		s-0.1,0.6-0.4,0.8C136.3,132.6,124.7,142.1,120.5,142.1z M120.5,121.3c-3.6,0-5.2,4.7-5.2,9.4s1.6,9.4,5.2,9.4
		c2.5,0,10.1-5.5,14.9-9.4C130.6,126.8,123,121.3,120.5,121.3z"/>
</g>
<path class="st14" d="M56.9,96.6h-2.6c-7.1,0-14.8-1.5-14.8-4.7c0-0.6,0.4-1,1-1s1,0.4,1,1c0,0.8,4.5,2.7,12.8,2.7h2.6
	c8.3,0,12.8-2,12.8-2.7c0-0.6,0.4-1,1-1s1,0.4,1,1C71.7,95.1,64.1,96.6,56.9,96.6z"/>
<path class="st14" d="M56.9,75.9h-2.6c-7.1,0-14.8-1.5-14.8-4.7c0-0.6,0.4-1,1-1s1,0.4,1,1c0,0.8,4.5,2.7,12.8,2.7h2.6
	c8.3,0,12.8-2,12.8-2.7c0-0.6,0.4-1,1-1s1,0.4,1,1C71.7,74.4,64.1,75.9,56.9,75.9z"/>
<path class="st14" d="M53.8,80.8c-8-0.1-12.3-2-12.3-2.7c0-0.6-0.4-1-1-1s-1,0.4-1,1c0,3,6.7,4.5,13.4,4.7
	C53.1,82.1,53.4,81.4,53.8,80.8z"/>
<path class="st14" d="M70.7,77c-0.6,0-1,0.4-1,1c0,0.7-3.7,2.4-10.7,2.7c0.1,0.2,0.1,0.4,0.2,0.7c0.3,0.4,0.5,0.9,0.8,1.3
	c6.1-0.4,11.8-1.9,11.8-4.7C71.7,77.5,71.3,77,70.7,77z"/>
<path class="st14" d="M50.1,87.5c-5.6-0.5-8.6-1.9-8.6-2.6c0-0.6-0.4-1-1-1s-1,0.4-1,1c0,2.7,5.1,4.1,10.9,4.6
	C50.1,88.9,50,88.2,50.1,87.5z"/>
<path class="st14" d="M70.7,83.9c-0.6,0-1,0.4-1,1c0,0.6-2.8,1.9-7.9,2.5c0,0.7-0.1,1.4-0.4,2c5.5-0.5,10.3-2,10.3-4.5
	C71.7,84.4,71.3,83.9,70.7,83.9z"/>
<g>
	<path class="st2" d="M113.2,131.7H59c-0.6,0-1-0.4-1-1s0.4-1,1-1h54.2c0.6,0,1,0.4,1,1S113.7,131.7,113.2,131.7z"/>
</g>
<path class="st2" d="M66,137.1c-0.6,0-1-0.4-1-1v-10.8c0-0.6,0.4-1,1-1s1,0.4,1,1v10.8C67,136.6,66.5,137.1,66,137.1z"/>
<path class="st2" d="M97.6,139.1c-0.6,0-1-0.4-1-1v-14.8c0-0.6,0.4-1,1-1s1,0.4,1,1v14.8C98.6,138.6,98.1,139.1,97.6,139.1z"/>
<path class="st2" d="M105.5,137.1c-0.6,0-1-0.4-1-1v-10.8c0-0.6,0.4-1,1-1s1,0.4,1,1v10.8C106.5,136.6,106,137.1,105.5,137.1z"/>
<path class="st2" d="M73.9,143.4c-0.6,0-1-0.4-1-1V119c0-0.6,0.4-1,1-1s1,0.4,1,1v23.3C74.9,142.9,74.4,143.4,73.9,143.4z"/>
<path class="st2" d="M89.7,143.4c-0.6,0-1-0.4-1-1V119c0-0.6,0.4-1,1-1s1,0.4,1,1v23.3C90.7,142.9,90.2,143.4,89.7,143.4z"/>
<path class="st2" d="M81.8,145.6c-0.6,0-1-0.4-1-1v-27.9c0-0.6,0.4-1,1-1s1,0.4,1,1v27.9C82.8,145.2,82.3,145.6,81.8,145.6z"/>
<path class="st8" d="M125.5,127.2c-1.6-0.7-3.5,0-4.2,1.6s0,3.5,1.6,4.2c1.6,0.7,3.5,0,4.2-1.6S127.1,128,125.5,127.2z M123.5,131.6
	c-0.8-0.4-1.1-1.3-0.8-2.1c0.4-0.8,1.3-1.1,2.1-0.8c0.8,0.4,1.1,1.3,0.8,2.1C125.2,131.6,124.3,131.9,123.5,131.6z"/>
<path class="st2" d="M56.9,103.8h-2.6c-7.1,0-14.8-1.5-14.8-4.7V72.4c0-0.4-0.6-11.7,7.1-15.5c0.5-0.2,1.1-0.1,1.3,0.4
	c0.2,0.5,0,1.1-0.4,1.3c-6.5,3.3-6,13.6-6,13.7l0,26.6c0,0.8,4.5,2.7,12.8,2.7h2.6c8.3,0,12.8-2,12.8-2.7V72.4
	c0-0.2,0.5-10.6-6.1-13.8c-0.5-0.2-0.7-0.8-0.5-1.3c0.2-0.5,0.8-0.7,1.3-0.5c7.9,3.8,7.3,15.2,7.3,15.7l0,26.5
	C71.7,102.3,64.1,103.8,56.9,103.8z"/>
<g>
	<path class="st15" d="M55.6,54.1c-4.4,0-11.9-0.8-11.9-3.9s7.5-3.9,11.9-3.9s11.9,0.8,11.9,3.9S60,54.1,55.6,54.1z M55.6,48.2
		c-5.9,0-9.6,1.3-9.9,2c0.3,0.6,3.9,1.9,9.9,1.9c5.8,0,9.4-1.2,9.8-1.9C65,49.4,61.4,48.2,55.6,48.2z M65.5,50.2L65.5,50.2
		L65.5,50.2z"/>
	<path class="st15" d="M64.2,58.3c-0.4,0-0.8-0.3-0.9-0.7c-0.2-0.5,0.1-1.1,0.6-1.3c1.4-0.5,1.6-0.9,1.6-0.9l0-5.3c0-0.6,0.4-1,1-1
		s1,0.4,1,1v5.3c0,1.1-1,2.1-3,2.8C64.4,58.2,64.3,58.3,64.2,58.3z"/>
	<path class="st15" d="M55.6,59.4c-4.4,0-11.9-0.8-11.9-3.9v-5.3c0-0.6,0.4-1,1-1s1,0.4,1,1v5.3c0.3,0.6,3.9,1.9,9.9,1.9
		c3.2,0,6.3-0.4,8.2-1.1c0.5-0.2,1.1,0.1,1.3,0.6c0.2,0.5-0.1,1.1-0.6,1.3C62.3,59,59.1,59.4,55.6,59.4z"/>
</g>
<g>
	<path class="st14" d="M56.2,94c-3.8,0-6.9-3.1-6.9-6.9c0-3.5,5.5-10,6.1-10.8c0.4-0.4,1.1-0.4,1.5,0c0.6,0.7,6.1,7.3,6.1,10.8
		C63.1,90.9,60,94,56.2,94z M56.2,78.6c-2.1,2.7-4.9,6.7-4.9,8.5c0,2.7,2.2,4.9,4.9,4.9s4.9-2.2,4.9-4.9
		C61.1,85.3,58.3,81.3,56.2,78.6z"/>
</g>
</svg>
