<?xml version="1.0" encoding="utf-8"?>
<!-- Generator: Adobe Illustrator 24.1.2, SVG Export Plug-In . SVG Version: 6.00 Build 0)  -->
<svg version="1.1" id="Layer_1" xmlns="http://www.w3.org/2000/svg" xmlns:xlink="http://www.w3.org/1999/xlink" x="0px" y="0px"
	 viewBox="0 0 174 174" style="enable-background:new 0 0 174 174;" xml:space="preserve">
<style type="text/css">
	.st0{fill:#0047BF;}
	.st1{fill:#003FC1;}
	.st2{fill:#FFFFFF;}
	.st3{fill:none;stroke:#96D5CE;stroke-width:2;stroke-linecap:round;stroke-linejoin:round;stroke-miterlimit:10;}
	.st4{fill:none;stroke:#FF704C;stroke-width:2;stroke-linecap:round;stroke-linejoin:round;stroke-miterlimit:10;}
	.st5{fill:none;stroke:#FFFFFF;stroke-width:2;stroke-linecap:round;stroke-linejoin:round;stroke-miterlimit:10;}
	.st6{fill:none;stroke:#FF804C;stroke-width:2;stroke-linecap:round;stroke-linejoin:round;stroke-miterlimit:10;}
	.st7{fill:none;stroke:#0047BF;stroke-width:2;stroke-linecap:round;stroke-linejoin:round;stroke-miterlimit:10;}
	.st8{fill:#F1D439;}
	.st9{fill:#0047BF;stroke:#BEC8C8;stroke-width:2;stroke-linecap:round;stroke-linejoin:round;stroke-miterlimit:10;}
	.st10{fill:none;stroke:#FF7E51;stroke-width:2;stroke-linecap:round;stroke-linejoin:round;stroke-miterlimit:10;}
	.st11{fill:none;stroke:#A3D5D0;stroke-width:2;stroke-linecap:round;stroke-linejoin:round;stroke-miterlimit:10;}
	.st12{fill:none;stroke:#F1D439;stroke-width:2;stroke-linecap:round;stroke-linejoin:round;stroke-miterlimit:10;}
	.st13{fill:none;stroke:#E2E6E6;stroke-width:2;stroke-linecap:round;stroke-linejoin:round;stroke-miterlimit:10;}
	.st14{fill:#A3D5D0;}
	.st15{fill:#FF804C;}
	.st16{fill:none;stroke:#BEC8C8;stroke-width:2;stroke-linecap:round;stroke-linejoin:round;stroke-miterlimit:10;}
	.st17{fill:#0047BF;stroke:#0047BF;stroke-width:2;stroke-linecap:round;stroke-linejoin:round;stroke-miterlimit:10;}
	.st18{fill:#FF704C;}
	.st19{fill:none;}
	.st20{fill:#0041BD;}
	.st21{fill:none;stroke:#FFFFFF;stroke-width:1.5;stroke-linecap:round;stroke-linejoin:round;stroke-miterlimit:10;}
	.st22{fill:#0041BD;stroke:#A3D5D0;stroke-width:1.5;stroke-linecap:round;stroke-linejoin:round;stroke-miterlimit:10;}
	.st23{fill:#0041BD;stroke:#FFFFFF;stroke-width:2;stroke-linecap:round;stroke-linejoin:round;stroke-miterlimit:10;}
	.st24{fill:#0041BD;stroke:#FF804C;stroke-width:2;stroke-linecap:round;stroke-linejoin:round;stroke-miterlimit:10;}
	.st25{fill:#0041BD;stroke:#A3D5D0;stroke-width:2;stroke-linecap:round;stroke-linejoin:round;stroke-miterlimit:10;}
	.st26{fill:#0041BD;stroke:#F1D439;stroke-width:2;stroke-linecap:round;stroke-linejoin:round;stroke-miterlimit:10;}
	.st27{fill:#FF804C;stroke:#FF804C;stroke-width:2;stroke-linecap:round;stroke-linejoin:round;stroke-miterlimit:10;}
	.st28{fill:none;stroke:#FFFFFF;stroke-width:2.5;stroke-linecap:round;stroke-linejoin:round;stroke-miterlimit:10;}
	.st29{fill:#0041BD;stroke:#FF804C;stroke-width:1.5;stroke-linecap:round;stroke-linejoin:round;stroke-miterlimit:10;}
	.st30{fill:none;stroke:#FF704C;stroke-width:1.5;stroke-linecap:round;stroke-linejoin:round;stroke-miterlimit:10;}
	.st31{fill:none;stroke:#FF804C;stroke-width:1.5;stroke-linecap:round;stroke-linejoin:round;stroke-miterlimit:10;}
	.st32{fill:none;stroke:#A3D5D0;stroke-width:1.4377;stroke-linecap:round;stroke-linejoin:round;stroke-miterlimit:10;}
	.st33{fill:#0041BD;stroke:#F1D439;stroke-width:1.5;stroke-linecap:round;stroke-linejoin:round;stroke-miterlimit:10;}
	.st34{fill:none;stroke:#F1D439;stroke-width:1.5;stroke-linecap:round;stroke-linejoin:round;stroke-miterlimit:10;}
	.st35{fill:none;stroke:#A3D5D0;stroke-width:1.5;stroke-linecap:round;stroke-linejoin:round;stroke-miterlimit:10;}
	.st36{fill:none;stroke:#96D5CE;stroke-width:1.4377;stroke-linecap:round;stroke-linejoin:round;stroke-miterlimit:10;}
	.st37{fill:none;stroke:#0047BF;stroke-width:1.5;stroke-linecap:round;stroke-linejoin:round;stroke-miterlimit:10;}
	.st38{fill:#0047BF;stroke:#FF704C;stroke-width:2;stroke-linecap:round;stroke-linejoin:round;stroke-miterlimit:10;}
	.st39{fill:#0047BF;stroke:#FF804C;stroke-width:2;stroke-linecap:round;stroke-linejoin:round;stroke-miterlimit:10;}
	.st40{fill:#0047BF;stroke:#E2E6E6;stroke-width:2;stroke-linecap:round;stroke-linejoin:round;stroke-miterlimit:10;}
	.st41{fill:#0047BF;stroke:#A3D5D0;stroke-width:2;stroke-linecap:round;stroke-linejoin:round;stroke-miterlimit:10;}
	.st42{fill:#0047BF;stroke:#F1D439;stroke-width:2;stroke-linecap:round;stroke-linejoin:round;stroke-miterlimit:10;}
	.st43{fill:#0041BD;stroke:#E2E6E6;stroke-width:2;stroke-linecap:round;stroke-linejoin:round;stroke-miterlimit:10;}
	.st44{fill:#E2E6E6;}
	.st45{fill:none;stroke:#0047BF;stroke-width:1.4377;stroke-linecap:round;stroke-linejoin:round;stroke-miterlimit:10;}
	.st46{fill:#0047BF;stroke:#A3D5D0;stroke-width:1.5;stroke-linecap:round;stroke-linejoin:round;stroke-miterlimit:10;}
	.st47{fill:none;stroke:#E2E6E6;stroke-width:1.5;stroke-linecap:round;stroke-linejoin:round;stroke-miterlimit:10;}
	.st48{fill:#0047BF;stroke:#FF704C;stroke-width:1.5;stroke-linecap:round;stroke-linejoin:round;stroke-miterlimit:10;}
	.st49{fill:#0047BF;stroke:#FF804C;stroke-width:1.5;stroke-linecap:round;stroke-linejoin:round;stroke-miterlimit:10;}
	.st50{fill:#0047BF;stroke:#F1D439;stroke-width:1.5;stroke-linecap:round;stroke-linejoin:round;stroke-miterlimit:10;}
	.st51{fill:#0041BD;stroke:#0047BF;stroke-width:2;stroke-linecap:round;stroke-linejoin:round;stroke-miterlimit:10;}
	
		.st52{fill:none;stroke:#FFFFFF;stroke-width:2;stroke-linecap:round;stroke-linejoin:round;stroke-miterlimit:10;stroke-dasharray:15,5;}
	.st53{fill:#1B3570;}
	.st54{fill:#B5C0C0;}
	.st55{fill:#0047BF;stroke:#B5C0C0;stroke-width:2;stroke-linecap:round;stroke-linejoin:round;stroke-miterlimit:10;}
	.st56{fill:none;stroke:#B5C0C0;stroke-width:2;stroke-linecap:round;stroke-linejoin:round;stroke-miterlimit:10;}
	.st57{fill:#0047BF;stroke:#96D5CE;stroke-width:2;stroke-linecap:round;stroke-linejoin:round;stroke-miterlimit:10;}
	.st58{fill:#96D5CE;}
	.st59{fill:#FF7E51;}
	.st60{fill:#0B0069;}
	.st61{fill:#0047BF;stroke:#FFFFFF;stroke-width:2;stroke-linecap:round;stroke-linejoin:round;stroke-miterlimit:10;}
	.st62{fill:none;stroke:#FF7E51;stroke-width:1.5;stroke-linecap:round;stroke-linejoin:round;stroke-miterlimit:10;}
	.st63{fill:#0B0069;stroke:#FFFFFF;stroke-width:1.5;stroke-linecap:round;stroke-linejoin:round;stroke-miterlimit:10;}
</style>
<path class="st2" d="M53.5,94c-0.2,0-0.4-0.1-0.6-0.2c-5.6-3.8-7.7-9.8-7.8-13.8c-0.1-2.4,0-6.2,0-6.3c0-0.5,0.5-1,1-1h7.6l2.4-2.1
	l-0.7-13.1c0-0.3,0.1-0.5,0.3-0.7c0.2-0.2,0.5-0.3,0.7-0.3h3.8c0.4,0,0.7,0.2,0.9,0.5l7.1,13.1h5.7c0.3,0,0.5,0.1,0.7,0.3l3.2,3.4h9
	l4.1-5.4c0.2-0.2,0.5-0.4,0.8-0.4h4.2l3.4-4c0.2-0.2,0.5-0.4,0.8-0.4h17.5c0.2,0,0.4,0.1,0.6,0.2l5,3.3h8c0.3,0,0.6,0.1,0.8,0.4
	c0.2,0.2,0.3,0.5,0.2,0.8l-0.4,2.1c0.7,0.9,2.8,3.4,4.7,5.7c4,4.9,2.3,9.4,2.1,9.9c-1.5,3.6-2.3,4.6-2.4,4.7c-0.4,0.4-1,0.4-1.4,0
	c-0.4-0.4-0.4-1,0-1.4c0,0,0.7-0.8,2-4.1c0.2-0.4,1.5-3.9-1.8-7.9c-2.4-2.9-5-6-5-6c-0.2-0.2-0.3-0.5-0.2-0.8l0.2-1.4h-7.1
	c-0.2,0-0.4-0.1-0.6-0.2l-5-3.3h-16.7l-3.4,4c-0.2,0.2-0.5,0.4-0.8,0.4h-4.1L88,75.6c-0.2,0.2-0.5,0.4-0.8,0.4h-9.9
	c-0.3,0-0.5-0.1-0.7-0.3l-3.2-3.4h-5.9c-0.4,0-0.7-0.2-0.9-0.5l-7.1-13.1h-2.1l0.7,12.5c0,0.3-0.1,0.6-0.3,0.8l-3,2.6
	c-0.2,0.2-0.4,0.2-0.7,0.2h-6.9c0,1.3,0,3.6,0,5.2c0.1,3.5,2,8.8,7,12.2c0.5,0.3,0.6,0.9,0.3,1.4C54.2,93.9,53.8,94,53.5,94z"/>
<path class="st2" d="M103,92.1c-0.2,0-0.4-0.1-0.6-0.2c-0.4-0.4-0.5-1-0.1-1.4l7.9-9.6H52.2c-0.6,0-1-0.4-1-1s0.4-1,1-1h60
	c0.4,0,0.7,0.2,0.9,0.6c0.2,0.3,0.1,0.8-0.1,1.1l-9.2,11.3C103.6,91.9,103.3,92.1,103,92.1z"/>
<path class="st2" d="M108,94c-0.2,0-0.5-0.1-0.6-0.2c-0.4-0.4-0.5-1-0.1-1.4l13.7-16.3H96c-0.6,0-1-0.4-1-1s0.4-1,1-1h27.1
	c0.4,0,0.7,0.2,0.9,0.6s0.1,0.8-0.1,1.1l-15.1,18C108.6,93.9,108.3,94,108,94z"/>
<path class="st2" d="M113,65.8c-0.1,0-0.2,0-0.4-0.1c-0.5-0.2-0.8-0.8-0.6-1.3l1.6-4H99.2l1.7,4c0.2,0.5,0,1.1-0.5,1.3
	c-0.5,0.2-1.1,0-1.3-0.5l-2.3-5.4c-0.1-0.3-0.1-0.7,0.1-0.9c0.2-0.3,0.5-0.4,0.8-0.4h17.4c0.3,0,0.6,0.2,0.8,0.4
	c0.2,0.3,0.2,0.6,0.1,0.9l-2.1,5.4C113.7,65.5,113.4,65.8,113,65.8z"/>
<path class="st8" d="M107.2,50.9h-5.8c-0.6,0-1-0.4-1-1s0.4-1,1-1h5.8c0.6,0,1,0.4,1,1S107.8,50.9,107.2,50.9z"/>
<path class="st8" d="M105.5,55.1c-0.4,0-0.8-0.3-1-0.7l-2.4-7.4c-0.2-0.5,0.1-1.1,0.6-1.3c0.5-0.2,1.1,0.1,1.3,0.6l2.4,7.4
	c0.2,0.5-0.1,1.1-0.6,1.3C105.7,55,105.6,55.1,105.5,55.1z"/>
<path class="st8" d="M103,46.8c-0.6,0-1-0.4-1-1v-3c0-0.6,0.4-1,1-1s1,0.4,1,1v3C104,46.4,103.6,46.8,103,46.8z"/>
<path class="st14" d="M144.8,94.2c-2.6,0-3.9-0.8-5.1-1.5c-1.1-0.6-2.1-1.2-4.1-1.2s-3,0.6-4.1,1.2c-1.2,0.7-2.5,1.5-5.1,1.5
	c-2.6,0-3.9-0.8-5.1-1.5c-1.1-0.6-2.1-1.2-4.1-1.2c-2,0-3,0.6-4.1,1.2c-1.2,0.7-2.5,1.5-5.1,1.5c-2.6,0-3.9-0.8-5.1-1.5
	c-1.1-0.6-2.1-1.2-4.1-1.2c-2,0-3,0.6-4.1,1.2c-1.2,0.7-2.5,1.5-5.1,1.5s-3.9-0.8-5.1-1.5c-1.1-0.6-2.1-1.2-4.1-1.2
	c-2,0-3,0.6-4.1,1.2c-1.2,0.7-2.5,1.5-5.1,1.5s-3.9-0.8-5.1-1.5c-1.1-0.6-2.1-1.2-4.1-1.2c-2,0-3,0.6-4.1,1.2
	c-1.2,0.7-2.5,1.5-5.1,1.5c-2.6,0-3.9-0.8-5.1-1.5c-1.1-0.6-2.1-1.2-4.1-1.2c-0.6,0-1-0.4-1-1s0.4-1,1-1c2.6,0,3.9,0.8,5.1,1.5
	c1.1,0.6,2.1,1.2,4.1,1.2s3-0.6,4.1-1.2c1.2-0.7,2.5-1.5,5.1-1.5c2.6,0,3.9,0.8,5.1,1.5c1.1,0.6,2.1,1.2,4.1,1.2c2,0,3-0.6,4.1-1.2
	c1.2-0.7,2.5-1.5,5.1-1.5s3.9,0.8,5.1,1.5c1.1,0.6,2.1,1.2,4.1,1.2c2,0,3-0.6,4.1-1.2c1.2-0.7,2.5-1.5,5.1-1.5
	c2.6,0,3.9,0.8,5.1,1.5c1.1,0.6,2.1,1.2,4.1,1.2c2,0,3-0.6,4.1-1.2c1.2-0.7,2.5-1.5,5.1-1.5s3.9,0.8,5.1,1.5
	c1.1,0.6,2.1,1.2,4.1,1.2c2,0,3-0.6,4.1-1.2c1.2-0.7,2.5-1.5,5.1-1.5s3.9,0.8,5.1,1.5c1.1,0.6,2.1,1.2,4.1,1.2c0.6,0,1,0.4,1,1
	S145.4,94.2,144.8,94.2z"/>
<path class="st14" d="M144.8,105.1c-2.6,0-3.9-0.8-5.1-1.5c-1.1-0.6-2.1-1.2-4.1-1.2s-3,0.6-4.1,1.2c-1.2,0.7-2.5,1.5-5.1,1.5
	c-2.6,0-3.9-0.8-5.1-1.5c-1.1-0.6-2.1-1.2-4.1-1.2c-2,0-3,0.6-4.1,1.2c-1.2,0.7-2.5,1.5-5.1,1.5c-2.6,0-3.9-0.8-5.1-1.5
	c-1.1-0.6-2.1-1.2-4.1-1.2c-2,0-3,0.6-4.1,1.2c-1.2,0.7-2.5,1.5-5.1,1.5s-3.9-0.8-5.1-1.5c-1.1-0.6-2.1-1.2-4.1-1.2
	c-2,0-3,0.6-4.1,1.2c-1.2,0.7-2.5,1.5-5.1,1.5s-3.9-0.8-5.1-1.5c-1.1-0.6-2.1-1.2-4.1-1.2c-2,0-3,0.6-4.1,1.2
	c-1.2,0.7-2.5,1.5-5.1,1.5c-2.6,0-3.9-0.8-5.1-1.5c-1.1-0.6-2.1-1.2-4.1-1.2c-0.6,0-1-0.4-1-1s0.4-1,1-1c2.6,0,3.9,0.8,5.1,1.5
	c1.1,0.6,2.1,1.2,4.1,1.2s3-0.6,4.1-1.2c1.2-0.7,2.5-1.5,5.1-1.5c2.6,0,3.9,0.8,5.1,1.5c1.1,0.6,2.1,1.2,4.1,1.2c2,0,3-0.6,4.1-1.2
	c1.2-0.7,2.5-1.5,5.1-1.5s3.9,0.8,5.1,1.5c1.1,0.6,2.1,1.2,4.1,1.2c2,0,3-0.6,4.1-1.2c1.2-0.7,2.5-1.5,5.1-1.5
	c2.6,0,3.9,0.8,5.1,1.5c1.1,0.6,2.1,1.2,4.1,1.2c2,0,3-0.6,4.1-1.2c1.2-0.7,2.5-1.5,5.1-1.5s3.9,0.8,5.1,1.5
	c1.1,0.6,2.1,1.2,4.1,1.2c2,0,3-0.6,4.1-1.2c1.2-0.7,2.5-1.5,5.1-1.5s3.9,0.8,5.1,1.5c1.1,0.6,2.1,1.2,4.1,1.2c0.6,0,1,0.4,1,1
	S145.4,105.1,144.8,105.1z"/>
<path class="st14" d="M144.8,116.1c-2.6,0-3.9-0.8-5.1-1.5c-1.1-0.6-2.1-1.2-4.1-1.2s-3,0.6-4.1,1.2c-1.2,0.7-2.5,1.5-5.1,1.5
	c-2.6,0-3.9-0.8-5.1-1.5c-1.1-0.6-2.1-1.2-4.1-1.2c-2,0-3,0.6-4.1,1.2c-1.2,0.7-2.5,1.5-5.1,1.5c-2.6,0-3.9-0.8-5.1-1.5
	c-1.1-0.6-2.1-1.2-4.1-1.2c-2,0-3,0.6-4.1,1.2c-1.2,0.7-2.5,1.5-5.1,1.5s-3.9-0.8-5.1-1.5c-1.1-0.6-2.1-1.2-4.1-1.2
	c-2,0-3,0.6-4.1,1.2c-1.2,0.7-2.5,1.5-5.1,1.5s-3.9-0.8-5.1-1.5c-1.1-0.6-2.1-1.2-4.1-1.2c-2,0-3,0.6-4.1,1.2
	c-1.2,0.7-2.5,1.5-5.1,1.5c-2.6,0-3.9-0.8-5.1-1.5c-1.1-0.6-2.1-1.2-4.1-1.2c-0.6,0-1-0.4-1-1s0.4-1,1-1c2.6,0,3.9,0.8,5.1,1.5
	c1.1,0.6,2.1,1.2,4.1,1.2s3-0.6,4.1-1.2c1.2-0.7,2.5-1.5,5.1-1.5c2.6,0,3.9,0.8,5.1,1.5c1.1,0.6,2.1,1.2,4.1,1.2c2,0,3-0.6,4.1-1.2
	c1.2-0.7,2.5-1.5,5.1-1.5s3.9,0.8,5.1,1.5c1.1,0.6,2.1,1.2,4.1,1.2c2,0,3-0.6,4.1-1.2c1.2-0.7,2.5-1.5,5.1-1.5
	c2.6,0,3.9,0.8,5.1,1.5c1.1,0.6,2.1,1.2,4.1,1.2c2,0,3-0.6,4.1-1.2c1.2-0.7,2.5-1.5,5.1-1.5s3.9,0.8,5.1,1.5
	c1.1,0.6,2.1,1.2,4.1,1.2c2,0,3-0.6,4.1-1.2c1.2-0.7,2.5-1.5,5.1-1.5s3.9,0.8,5.1,1.5c1.1,0.6,2.1,1.2,4.1,1.2c0.6,0,1,0.4,1,1
	S145.4,116.1,144.8,116.1z"/>
<path class="st14" d="M144.8,140.9c-2.6,0-3.9-0.8-5.1-1.5c-1.1-0.6-2.1-1.2-4.1-1.2s-3,0.6-4.1,1.2c-1.2,0.7-2.5,1.5-5.1,1.5
	c-2.6,0-3.9-0.8-5.1-1.5c-1.1-0.6-2.1-1.2-4.1-1.2c-2,0-3,0.6-4.1,1.2c-1.2,0.7-2.5,1.5-5.1,1.5c-2.6,0-3.9-0.8-5.1-1.5
	c-1.1-0.6-2.1-1.2-4.1-1.2c-2,0-3,0.6-4.1,1.2c-1.2,0.7-2.5,1.5-5.1,1.5s-3.9-0.8-5.1-1.5c-1.1-0.6-2.1-1.2-4.1-1.2
	c-2,0-3,0.6-4.1,1.2c-1.2,0.7-2.5,1.5-5.1,1.5s-3.9-0.8-5.1-1.5c-1.1-0.6-2.1-1.2-4.1-1.2c-2,0-3,0.6-4.1,1.2
	c-1.2,0.7-2.5,1.5-5.1,1.5c-2.6,0-3.9-0.8-5.1-1.5c-1.1-0.6-2.1-1.2-4.1-1.2c-0.6,0-1-0.4-1-1s0.4-1,1-1c2.6,0,3.9,0.8,5.1,1.5
	c1.1,0.6,2.1,1.2,4.1,1.2s3-0.6,4.1-1.2c1.2-0.7,2.5-1.5,5.1-1.5c2.6,0,3.9,0.8,5.1,1.5c1.1,0.6,2.1,1.2,4.1,1.2c2,0,3-0.6,4.1-1.2
	c1.2-0.7,2.5-1.5,5.1-1.5s3.9,0.8,5.1,1.5c1.1,0.6,2.1,1.2,4.1,1.2c2,0,3-0.6,4.1-1.2c1.2-0.7,2.5-1.5,5.1-1.5
	c2.6,0,3.9,0.8,5.1,1.5c1.1,0.6,2.1,1.2,4.1,1.2c2,0,3-0.6,4.1-1.2c1.2-0.7,2.5-1.5,5.1-1.5s3.9,0.8,5.1,1.5
	c1.1,0.6,2.1,1.2,4.1,1.2c2,0,3-0.6,4.1-1.2c1.2-0.7,2.5-1.5,5.1-1.5s3.9,0.8,5.1,1.5c1.1,0.6,2.1,1.2,4.1,1.2c0.6,0,1,0.4,1,1
	S145.4,140.9,144.8,140.9z"/>
<path class="st8" d="M103,37.4c-1.7,0-3,1.3-3,3s1.3,3,3,3c1.7,0,3-1.3,3-3S104.7,37.4,103,37.4z M103,41.9c-0.8,0-1.5-0.7-1.5-1.5
	c0-0.8,0.7-1.5,1.5-1.5c0.8,0,1.5,0.7,1.5,1.5C104.5,41.2,103.8,41.9,103,41.9z"/>
<path class="st2" d="M111.1,55.1h-9.7c-0.6,0-1-0.4-1-1s0.4-1,1-1h9.7c0.6,0,1,0.4,1,1S111.6,55.1,111.1,55.1z"/>
<path class="st8" d="M106.3,47.4h-5.8c-0.6,0-1-0.4-1-1s0.4-1,1-1h5.8c0.6,0,1,0.4,1,1S106.8,47.4,106.3,47.4z"/>
<path class="st2" d="M104,65.1c-0.5,0-0.9-0.4-1-0.9l-0.5-4.3c-0.1-0.5,0.3-1,0.9-1.1c0.6-0.1,1,0.3,1.1,0.9L105,64
	c0.1,0.5-0.3,1-0.9,1.1C104.1,65.1,104.1,65.1,104,65.1z"/>
<path class="st2" d="M108.9,65.1c0,0-0.1,0-0.1,0c-0.5-0.1-0.9-0.6-0.9-1.1l0.5-4.3c0.1-0.5,0.5-0.9,1.1-0.9
	c0.5,0.1,0.9,0.6,0.9,1.1l-0.5,4.3C109.8,64.7,109.4,65.1,108.9,65.1z"/>
<path class="st2" d="M104,59.7c-0.5,0-0.9-0.4-1-0.9l-0.5-4.3c-0.1-0.5,0.3-1,0.9-1.1c0.6-0.1,1,0.3,1.1,0.9l0.5,4.3
	c0.1,0.5-0.3,1-0.9,1.1C104.1,59.7,104.1,59.7,104,59.7z"/>
<path class="st2" d="M108.9,59.7c0,0-0.1,0-0.1,0c-0.5-0.1-0.9-0.6-0.9-1.1l0.5-4.3c0.1-0.5,0.5-0.9,1.1-0.9
	c0.5,0.1,0.9,0.6,0.9,1.1l-0.5,4.3C109.8,59.4,109.4,59.7,108.9,59.7z"/>
<path class="st2" d="M50.8,74.8c-0.6,0-1-0.4-1-1v-6.9l-12.2-7.4c-0.5-0.3-0.6-0.9-0.3-1.4c0.3-0.5,0.9-0.6,1.4-0.3l12.7,7.7
	c0.3,0.2,0.5,0.5,0.5,0.9v7.4C51.8,74.4,51.4,74.8,50.8,74.8z"/>
<path class="st15" d="M39.8,132.8H18.7c-0.4,0-0.7-0.2-0.9-0.6c-0.2-0.3-0.1-0.8,0.1-1.1l19.2-24V58.7c0-0.6,0.4-1,1-1s1,0.4,1,1
	v48.9c0,0.1,0,0.3-0.1,0.4c0,0,0,0,0,0c0,0,0,0,0,0l0,0c0,0,0,0,0,0l0,0l-7.2,17.3l8.5,5.8c0.4,0.2,0.5,0.7,0.4,1.1
	C40.6,132.5,40.2,132.8,39.8,132.8z M20.8,130.8h15.8l-6.5-4.4c-0.4-0.3-0.5-0.8-0.4-1.2l4.8-11.5L20.8,130.8z"/>
<g>
	<g>
		<path class="st59" d="M46.5,128.9c-0.2,0-0.3-0.1-0.5-0.2c-0.2-0.1-0.3-0.4-0.3-0.6v-3.8c0-0.2,0.1-0.4,0.3-0.6
			c0.2-0.1,0.4-0.2,0.6-0.1c0.5,0.1,3.3,0.8,3.9,1.1c0.4,0.2,0.5,0.6,0.4,1c-0.2,0.4-0.6,0.5-1,0.4c-0.3-0.1-1.6-0.5-2.7-0.8v1.9
			c1.1-0.3,2.4-0.6,2.7-0.8c0.4-0.2,0.8,0,1,0.4c0.2,0.4,0,0.8-0.4,1c-0.6,0.3-3.3,1-3.9,1.1C46.6,128.9,46.5,128.9,46.5,128.9z"/>
	</g>
	<path class="st59" d="M51.6,124.7c-0.1,0-0.2,0-0.4-0.1c-0.4-0.2-0.5-0.7-0.3-1l0.1-0.2c0.2-0.4,0.8-1.5,1.9-1.2
		c0.4,0.1,1.1,0.2,1.6,0.3c0.3-0.3,0.7-0.6,1.3-0.8c0.7-0.3,2-0.6,2.7-0.8c0.9-0.2,1.5,0.1,1.8,0.3c0.8,0.6,1,1.6,1,1.7
		c0.1,0.4-0.2,0.8-0.7,0.8c-0.4,0.1-0.8-0.2-0.8-0.6c0-0.1-0.1-0.5-0.4-0.7c-0.1,0-0.2-0.2-0.6-0.1c-0.7,0.1-1.9,0.5-2.5,0.7
		c-0.6,0.2-0.9,0.7-0.9,0.7c-0.2,0.2-0.4,0.3-0.7,0.3c-0.1,0-1.4-0.2-2.1-0.4c-0.1,0.1-0.2,0.3-0.2,0.4l-0.1,0.2
		C52.1,124.6,51.9,124.7,51.6,124.7z"/>
	<path class="st59" d="M52.7,129.8c-1.1,0-1.5-0.7-1.7-1c-0.2-0.4-0.1-0.8,0.2-1c0.4-0.2,0.8-0.1,1,0.2c0.2,0.3,0.2,0.3,0.5,0.3
		l0.8-0.1c0.3,0,0.6,0,1-0.1c0.1-0.1,0.2-0.3,0.5-0.4c0.2-0.1,0.4,0,0.6,0.1c0.4,0.2,0.5,0.7,0.2,1c0,0.1-0.1,0.1-0.1,0.1
		c-0.2,0.4-0.6,0.6-1,0.6c-0.5,0-0.8,0.1-1.1,0.1l-0.8,0.1C52.8,129.8,52.7,129.8,52.7,129.8z"/>
	<path class="st2" d="M59.1,129.6c-5.1,0-10.5-2-10.5-3.4s6.2-3.8,10.7-3.8c1.5,0,4.1,1.4,6.1,2.6l0,0c0.4,0.3,0.7,0.7,0.7,1.2
		c0,0.5-0.2,1-0.6,1.3C64.2,128.5,62,129.6,59.1,129.6z M50.6,126.2c1.3,0.7,4.5,1.9,8.6,1.9c2.5,0,4.4-1,5.5-1.8l0.4-0.7l-0.4,0.6
		c-2.5-1.5-4.4-2.4-5.3-2.4C55.6,123.9,52,125.4,50.6,126.2z"/>
</g>
<g>
	<g>
		<path class="st59" d="M71.4,128.9c-0.2,0-0.3-0.1-0.5-0.2c-0.2-0.1-0.3-0.4-0.3-0.6v-3.8c0-0.2,0.1-0.4,0.3-0.6
			c0.2-0.1,0.4-0.2,0.6-0.1c0.5,0.1,3.3,0.8,3.9,1.1c0.4,0.2,0.5,0.6,0.4,1c-0.2,0.4-0.6,0.5-1,0.4c-0.3-0.1-1.6-0.5-2.7-0.8v1.9
			c1.1-0.3,2.4-0.6,2.7-0.8c0.4-0.2,0.8,0,1,0.4c0.2,0.4,0,0.8-0.4,1c-0.6,0.3-3.3,1-3.9,1.1C71.6,128.9,71.5,128.9,71.4,128.9z"/>
	</g>
	<path class="st59" d="M76.5,124.7c-0.1,0-0.2,0-0.4-0.1c-0.4-0.2-0.5-0.7-0.3-1l0.1-0.2c0.2-0.4,0.8-1.5,1.9-1.2
		c0.4,0.1,1.1,0.2,1.6,0.3c0.3-0.3,0.7-0.6,1.3-0.8c0.7-0.3,2-0.6,2.7-0.8c0.9-0.2,1.5,0.1,1.8,0.3c0.8,0.6,1,1.6,1,1.7
		c0.1,0.4-0.2,0.8-0.7,0.8c-0.4,0.1-0.8-0.2-0.8-0.6c0-0.1-0.1-0.5-0.4-0.7c-0.1,0-0.2-0.2-0.6-0.1c-0.7,0.1-1.9,0.5-2.5,0.7
		c-0.6,0.2-0.9,0.7-0.9,0.7c-0.2,0.2-0.4,0.3-0.7,0.3c-0.1,0-1.4-0.2-2.1-0.4c-0.1,0.1-0.2,0.3-0.2,0.4l-0.1,0.2
		C77.1,124.6,76.8,124.7,76.5,124.7z"/>
	<path class="st59" d="M77.6,129.8c-1.1,0-1.5-0.7-1.7-1c-0.2-0.4-0.1-0.8,0.2-1c0.4-0.2,0.8-0.1,1,0.2c0.2,0.3,0.2,0.3,0.5,0.3
		l0.7-0.1c0.3,0,0.6,0,1-0.1c0.1-0.1,0.2-0.3,0.5-0.4c0.2,0,0.4,0,0.6,0.1c0.3,0.2,0.5,0.7,0.2,1c0,0-0.1,0.1-0.1,0.1
		c-0.2,0.4-0.6,0.6-1,0.6c-0.5,0-0.8,0.1-1.1,0.1l-0.8,0.1C77.8,129.8,77.7,129.8,77.6,129.8z"/>
	<path class="st2" d="M84.1,129.6c-5.1,0-10.5-2-10.5-3.4s6.2-3.8,10.7-3.8c1.5,0,4.1,1.4,6.1,2.6l0,0c0.4,0.3,0.7,0.7,0.7,1.2
		c0,0.5-0.2,1-0.6,1.3C89.2,128.5,87,129.6,84.1,129.6z M75.5,126.2c1.3,0.7,4.5,1.9,8.6,1.9c2.5,0,4.4-1,5.5-1.8l0.4-0.7l-0.4,0.6
		c-2.5-1.5-4.4-2.4-5.3-2.4C80.6,123.9,77,125.4,75.5,126.2z"/>
</g>
<g>
	<g>
		<path class="st59" d="M96.4,128.9c-0.2,0-0.3-0.1-0.5-0.2c-0.2-0.1-0.3-0.4-0.3-0.6v-3.8c0-0.2,0.1-0.4,0.3-0.6
			c0.2-0.1,0.4-0.2,0.6-0.1c0.5,0.1,3.3,0.8,3.9,1.1c0.4,0.2,0.5,0.6,0.4,1c-0.2,0.4-0.6,0.5-1,0.4c-0.3-0.1-1.6-0.5-2.7-0.8v1.9
			c1.1-0.3,2.4-0.6,2.7-0.8c0.4-0.2,0.8,0,1,0.4c0.2,0.4,0,0.8-0.4,1c-0.6,0.3-3.3,1-3.9,1.1C96.5,128.9,96.4,128.9,96.4,128.9z"/>
	</g>
	<path class="st59" d="M101.5,124.7c-0.1,0-0.2,0-0.4-0.1c-0.4-0.2-0.5-0.7-0.3-1l0.1-0.2c0.2-0.4,0.8-1.5,1.9-1.2
		c0.4,0.1,1.1,0.2,1.5,0.3c0.3-0.3,0.7-0.6,1.3-0.8c0.7-0.3,2-0.6,2.7-0.8c0.9-0.2,1.5,0.1,1.8,0.3c0.8,0.6,1,1.6,1,1.7
		c0.1,0.4-0.2,0.8-0.7,0.8c-0.4,0.1-0.8-0.2-0.8-0.6c0-0.1-0.1-0.5-0.4-0.7c-0.1,0-0.2-0.2-0.6-0.1c-0.7,0.1-1.9,0.5-2.5,0.7
		c-0.6,0.2-0.9,0.7-0.9,0.7c-0.2,0.2-0.4,0.3-0.7,0.3c-0.1,0-1.4-0.2-2.1-0.4c-0.1,0.1-0.2,0.3-0.2,0.4l-0.1,0.2
		C102,124.6,101.8,124.7,101.5,124.7z"/>
	<path class="st59" d="M102.6,129.8c-1.1,0-1.5-0.7-1.7-1c-0.2-0.4-0.1-0.8,0.2-1c0.4-0.2,0.8-0.1,1,0.2c0.2,0.3,0.2,0.3,0.5,0.3
		l0.8-0.1c0.3,0,0.6,0,1-0.1c0.1-0.1,0.2-0.3,0.5-0.4c0.2-0.1,0.4,0,0.6,0.1c0.4,0.2,0.5,0.7,0.2,1c0,0.1-0.1,0.1-0.1,0.1
		c-0.2,0.4-0.6,0.6-1,0.6c-0.5,0-0.8,0.1-1.1,0.1l-0.8,0.1C102.7,129.8,102.7,129.8,102.6,129.8z"/>
	<path class="st2" d="M109.1,129.6c-5.1,0-10.5-2-10.5-3.4s6.2-3.8,10.7-3.8c1.5,0,4.1,1.4,6.1,2.6l0,0c0.4,0.3,0.7,0.7,0.7,1.2
		c0,0.5-0.2,1-0.6,1.3C114.1,128.5,111.9,129.6,109.1,129.6z M100.5,126.2c1.3,0.7,4.5,1.9,8.6,1.9c2.5,0,4.4-1,5.5-1.8l0.4-0.7
		l-0.4,0.6c-2.5-1.5-4.4-2.4-5.3-2.4C105.5,123.9,101.9,125.4,100.5,126.2z"/>
</g>
<g>
	<g>
		<path class="st59" d="M121.3,128.9c-0.2,0-0.3-0.1-0.5-0.2c-0.2-0.1-0.3-0.4-0.3-0.6v-3.8c0-0.2,0.1-0.4,0.3-0.6
			c0.2-0.1,0.4-0.2,0.6-0.1c0.5,0.1,3.3,0.8,3.9,1.1c0.4,0.2,0.5,0.6,0.4,1c-0.2,0.4-0.6,0.5-1,0.4c-0.3-0.1-1.6-0.5-2.7-0.8v1.9
			c1.1-0.3,2.4-0.6,2.7-0.8c0.4-0.2,0.8,0,1,0.4c0.2,0.4,0,0.8-0.4,1c-0.6,0.3-3.3,1-3.9,1.1C121.5,128.9,121.4,128.9,121.3,128.9z"
			/>
	</g>
	<path class="st59" d="M126.5,124.7c-0.1,0-0.2,0-0.4-0.1c-0.4-0.2-0.5-0.7-0.3-1l0.1-0.2c0.2-0.4,0.8-1.5,1.9-1.2
		c0.4,0.1,1.1,0.2,1.6,0.3c0.3-0.3,0.7-0.6,1.3-0.8c0.7-0.3,2-0.6,2.7-0.8c0.9-0.2,1.5,0.1,1.8,0.3c0.8,0.6,1,1.6,1,1.7
		c0.1,0.4-0.2,0.8-0.7,0.8c-0.4,0.1-0.8-0.2-0.8-0.6c0-0.1-0.1-0.5-0.4-0.7c-0.1,0-0.2-0.2-0.6-0.1c-0.7,0.1-1.9,0.5-2.5,0.7
		c-0.6,0.2-0.9,0.7-0.9,0.7c-0.2,0.2-0.4,0.3-0.7,0.3c-0.1,0-1.4-0.2-2.1-0.4c-0.1,0.1-0.2,0.3-0.2,0.4l-0.1,0.2
		C127,124.6,126.7,124.7,126.5,124.7z"/>
	<path class="st59" d="M127.5,129.8c-1.1,0-1.5-0.7-1.7-1c-0.2-0.4-0.1-0.8,0.2-1c0.4-0.2,0.8-0.1,1,0.2c0.2,0.3,0.2,0.3,0.5,0.3
		l0.7-0.1c0.3,0,0.6,0,1-0.1c0.1-0.1,0.2-0.3,0.5-0.4c0.2,0,0.4,0,0.6,0.1c0.3,0.2,0.5,0.7,0.2,1c0,0-0.1,0.1-0.1,0.1
		c-0.2,0.4-0.6,0.6-1,0.6c-0.5,0-0.8,0.1-1.1,0.1l-0.8,0.1C127.7,129.8,127.6,129.8,127.5,129.8z"/>
	<path class="st2" d="M134,129.6c-5.1,0-10.5-2-10.5-3.4s6.2-3.8,10.7-3.8c1.5,0,4.1,1.4,6.1,2.6c0,0,0,0,0,0
		c0.4,0.3,0.7,0.7,0.7,1.2c0,0.5-0.2,1-0.6,1.3C139.1,128.5,136.9,129.6,134,129.6z M125.5,126.2c1.3,0.7,4.5,1.9,8.6,1.9
		c2.5,0,4.4-1,5.5-1.8l0.4-0.7l-0.4,0.6c-2.5-1.5-4.4-2.4-5.3-2.4C130.5,123.9,126.9,125.4,125.5,126.2z"/>
</g>
</svg>
