<?xml version="1.0" encoding="utf-8"?>
<!-- Generator: Adobe Illustrator 24.1.2, SVG Export Plug-In . SVG Version: 6.00 Build 0)  -->
<svg version="1.1" id="Layer_1" xmlns="http://www.w3.org/2000/svg" xmlns:xlink="http://www.w3.org/1999/xlink" x="0px" y="0px"
	 viewBox="0 0 174 174" style="enable-background:new 0 0 174 174;" xml:space="preserve">
<style type="text/css">
	.st0{fill:#0047BF;}
	.st1{fill:#003FC1;}
	.st2{fill:#FFFFFF;}
	.st3{fill:none;stroke:#96D5CE;stroke-width:2;stroke-linecap:round;stroke-linejoin:round;stroke-miterlimit:10;}
	.st4{fill:none;stroke:#FF704C;stroke-width:2;stroke-linecap:round;stroke-linejoin:round;stroke-miterlimit:10;}
	.st5{fill:none;stroke:#FFFFFF;stroke-width:2;stroke-linecap:round;stroke-linejoin:round;stroke-miterlimit:10;}
	.st6{fill:none;stroke:#FF804C;stroke-width:2;stroke-linecap:round;stroke-linejoin:round;stroke-miterlimit:10;}
	.st7{fill:none;stroke:#0047BF;stroke-width:2;stroke-linecap:round;stroke-linejoin:round;stroke-miterlimit:10;}
	.st8{fill:#F1D439;}
	.st9{fill:#0047BF;stroke:#BEC8C8;stroke-width:2;stroke-linecap:round;stroke-linejoin:round;stroke-miterlimit:10;}
	.st10{fill:none;stroke:#FF7E51;stroke-width:2;stroke-linecap:round;stroke-linejoin:round;stroke-miterlimit:10;}
	.st11{fill:none;stroke:#A3D5D0;stroke-width:2;stroke-linecap:round;stroke-linejoin:round;stroke-miterlimit:10;}
	.st12{fill:none;stroke:#F1D439;stroke-width:2;stroke-linecap:round;stroke-linejoin:round;stroke-miterlimit:10;}
	.st13{fill:none;stroke:#E2E6E6;stroke-width:2;stroke-linecap:round;stroke-linejoin:round;stroke-miterlimit:10;}
	.st14{fill:#A3D5D0;}
	.st15{fill:#FF804C;}
	.st16{fill:none;stroke:#BEC8C8;stroke-width:2;stroke-linecap:round;stroke-linejoin:round;stroke-miterlimit:10;}
	.st17{fill:#0047BF;stroke:#0047BF;stroke-width:2;stroke-linecap:round;stroke-linejoin:round;stroke-miterlimit:10;}
	.st18{fill:#FF704C;}
	.st19{fill:none;}
	.st20{fill:#0041BD;}
	.st21{fill:none;stroke:#FFFFFF;stroke-width:1.5;stroke-linecap:round;stroke-linejoin:round;stroke-miterlimit:10;}
	.st22{fill:#0041BD;stroke:#A3D5D0;stroke-width:1.5;stroke-linecap:round;stroke-linejoin:round;stroke-miterlimit:10;}
	.st23{fill:#0041BD;stroke:#FFFFFF;stroke-width:2;stroke-linecap:round;stroke-linejoin:round;stroke-miterlimit:10;}
	.st24{fill:#0041BD;stroke:#FF804C;stroke-width:2;stroke-linecap:round;stroke-linejoin:round;stroke-miterlimit:10;}
	.st25{fill:#0041BD;stroke:#A3D5D0;stroke-width:2;stroke-linecap:round;stroke-linejoin:round;stroke-miterlimit:10;}
	.st26{fill:#0041BD;stroke:#F1D439;stroke-width:2;stroke-linecap:round;stroke-linejoin:round;stroke-miterlimit:10;}
	.st27{fill:#FF804C;stroke:#FF804C;stroke-width:2;stroke-linecap:round;stroke-linejoin:round;stroke-miterlimit:10;}
	.st28{fill:none;stroke:#FFFFFF;stroke-width:2.5;stroke-linecap:round;stroke-linejoin:round;stroke-miterlimit:10;}
	.st29{fill:#0041BD;stroke:#FF804C;stroke-width:1.5;stroke-linecap:round;stroke-linejoin:round;stroke-miterlimit:10;}
	.st30{fill:none;stroke:#FF704C;stroke-width:1.5;stroke-linecap:round;stroke-linejoin:round;stroke-miterlimit:10;}
	.st31{fill:none;stroke:#FF804C;stroke-width:1.5;stroke-linecap:round;stroke-linejoin:round;stroke-miterlimit:10;}
	.st32{fill:none;stroke:#A3D5D0;stroke-width:1.4377;stroke-linecap:round;stroke-linejoin:round;stroke-miterlimit:10;}
	.st33{fill:#0041BD;stroke:#F1D439;stroke-width:1.5;stroke-linecap:round;stroke-linejoin:round;stroke-miterlimit:10;}
	.st34{fill:none;stroke:#F1D439;stroke-width:1.5;stroke-linecap:round;stroke-linejoin:round;stroke-miterlimit:10;}
	.st35{fill:none;stroke:#A3D5D0;stroke-width:1.5;stroke-linecap:round;stroke-linejoin:round;stroke-miterlimit:10;}
	.st36{fill:none;stroke:#96D5CE;stroke-width:1.4377;stroke-linecap:round;stroke-linejoin:round;stroke-miterlimit:10;}
	.st37{fill:none;stroke:#0047BF;stroke-width:1.5;stroke-linecap:round;stroke-linejoin:round;stroke-miterlimit:10;}
	.st38{fill:#0047BF;stroke:#FF704C;stroke-width:2;stroke-linecap:round;stroke-linejoin:round;stroke-miterlimit:10;}
	.st39{fill:#0047BF;stroke:#FF804C;stroke-width:2;stroke-linecap:round;stroke-linejoin:round;stroke-miterlimit:10;}
	.st40{fill:#0047BF;stroke:#E2E6E6;stroke-width:2;stroke-linecap:round;stroke-linejoin:round;stroke-miterlimit:10;}
	.st41{fill:#0047BF;stroke:#A3D5D0;stroke-width:2;stroke-linecap:round;stroke-linejoin:round;stroke-miterlimit:10;}
	.st42{fill:#0047BF;stroke:#F1D439;stroke-width:2;stroke-linecap:round;stroke-linejoin:round;stroke-miterlimit:10;}
	.st43{fill:#0041BD;stroke:#E2E6E6;stroke-width:2;stroke-linecap:round;stroke-linejoin:round;stroke-miterlimit:10;}
	.st44{fill:#E2E6E6;}
	.st45{fill:none;stroke:#0047BF;stroke-width:1.4377;stroke-linecap:round;stroke-linejoin:round;stroke-miterlimit:10;}
	.st46{fill:#0047BF;stroke:#A3D5D0;stroke-width:1.5;stroke-linecap:round;stroke-linejoin:round;stroke-miterlimit:10;}
	.st47{fill:none;stroke:#E2E6E6;stroke-width:1.5;stroke-linecap:round;stroke-linejoin:round;stroke-miterlimit:10;}
	.st48{fill:#0047BF;stroke:#FF704C;stroke-width:1.5;stroke-linecap:round;stroke-linejoin:round;stroke-miterlimit:10;}
	.st49{fill:#0047BF;stroke:#FF804C;stroke-width:1.5;stroke-linecap:round;stroke-linejoin:round;stroke-miterlimit:10;}
	.st50{fill:#0047BF;stroke:#F1D439;stroke-width:1.5;stroke-linecap:round;stroke-linejoin:round;stroke-miterlimit:10;}
	.st51{fill:#0041BD;stroke:#0047BF;stroke-width:2;stroke-linecap:round;stroke-linejoin:round;stroke-miterlimit:10;}
	
		.st52{fill:none;stroke:#FFFFFF;stroke-width:2;stroke-linecap:round;stroke-linejoin:round;stroke-miterlimit:10;stroke-dasharray:15,5;}
	.st53{fill:#1B3570;}
	.st54{fill:#B5C0C0;}
	.st55{fill:#0047BF;stroke:#B5C0C0;stroke-width:2;stroke-linecap:round;stroke-linejoin:round;stroke-miterlimit:10;}
	.st56{fill:none;stroke:#B5C0C0;stroke-width:2;stroke-linecap:round;stroke-linejoin:round;stroke-miterlimit:10;}
	.st57{fill:#0047BF;stroke:#96D5CE;stroke-width:2;stroke-linecap:round;stroke-linejoin:round;stroke-miterlimit:10;}
	.st58{fill:#96D5CE;}
	.st59{fill:#FF7E51;}
	.st60{fill:#0B0069;}
	.st61{fill:#0047BF;stroke:#FFFFFF;stroke-width:2;stroke-linecap:round;stroke-linejoin:round;stroke-miterlimit:10;}
	.st62{fill:none;stroke:#FF7E51;stroke-width:1.5;stroke-linecap:round;stroke-linejoin:round;stroke-miterlimit:10;}
	.st63{fill:#0B0069;stroke:#FFFFFF;stroke-width:1.5;stroke-linecap:round;stroke-linejoin:round;stroke-miterlimit:10;}
</style>
<path class="st8" d="M35.1,103c-3,0-5.4,2.4-5.4,5.4c0,3,2.4,5.4,5.4,5.4c3,0,5.4-2.4,5.4-5.4C40.5,105.4,38.1,103,35.1,103z
	 M35.1,111c-1.5,0-2.6-1.2-2.6-2.6c0-1.5,1.2-2.6,2.6-2.6c1.5,0,2.6,1.2,2.6,2.6C37.7,109.8,36.6,111,35.1,111z"/>
<path class="st8" d="M53.2,85.6c-3,0-5.4,2.4-5.4,5.4c0,3,2.4,5.4,5.4,5.4c3,0,5.4-2.4,5.4-5.4C58.5,88,56.1,85.6,53.2,85.6z
	 M53.2,93.6c-1.5,0-2.6-1.2-2.6-2.6c0-1.5,1.2-2.6,2.6-2.6c1.5,0,2.6,1.2,2.6,2.6C55.8,92.4,54.6,93.6,53.2,93.6z"/>
<path class="st8" d="M82.9,130.6c-3.9-0.9-7.3,2.5-6.4,6.4c0.4,2,2,3.6,4,4c3.9,0.9,7.3-2.5,6.4-6.4C86.5,132.6,84.9,131,82.9,130.6
	z M82.2,138.3c-1.9,0.4-3.4-1.2-3.1-3.1c0.2-1,1-1.9,2.1-2.1c1.9-0.4,3.5,1.2,3.1,3.1C84.1,137.3,83.3,138.1,82.2,138.3z"/>
<path class="st8" d="M135.7,33.9c-3.9-0.9-7.3,2.5-6.4,6.4c0.4,2,2,3.6,4,4c3.9,0.9,7.3-2.5,6.4-6.4
	C139.3,35.9,137.7,34.3,135.7,33.9z M135,41.6c-1.9,0.4-3.4-1.2-3.1-3.1c0.2-1,1-1.9,2.1-2.1c1.9-0.4,3.5,1.2,3.1,3.1
	C136.9,40.6,136.1,41.4,135,41.6z"/>
<path class="st8" d="M38.1,106.3c-0.3,0-0.5-0.1-0.7-0.3c-0.4-0.4-0.4-1,0-1.4l12-11.3c0.4-0.4,1-0.4,1.4,0c0.4,0.4,0.4,1,0,1.4
	l-12,11.3C38.6,106.2,38.3,106.3,38.1,106.3z"/>
<path class="st8" d="M78.9,132.9c-0.3,0-0.7-0.2-0.8-0.5L54.5,95.3c-0.3-0.5-0.2-1.1,0.3-1.4c0.5-0.3,1.1-0.2,1.4,0.3l23.6,37.2
	c0.3,0.5,0.2,1.1-0.3,1.4C79.3,132.8,79.1,132.9,78.9,132.9z"/>
<path class="st8" d="M83.8,133c-0.2,0-0.4-0.1-0.6-0.2c-0.5-0.3-0.6-0.9-0.3-1.4l14.3-20.8c0.3-0.5,0.9-0.6,1.4-0.3
	c0.5,0.3,0.6,0.9,0.3,1.4l-14.3,20.8C84.4,132.9,84.1,133,83.8,133z"/>
<path class="st8" d="M126.9,56.7c-0.1,0-0.3,0-0.4-0.1c-0.5-0.2-0.7-0.8-0.5-1.3l5.7-12.2c0.2-0.5,0.8-0.7,1.3-0.5
	c0.5,0.2,0.7,0.8,0.5,1.3l-5.7,12.2C127.6,56.5,127.3,56.7,126.9,56.7z"/>
<g>
	<path class="st2" d="M113.9,116.5c-17.7,0-32-14.4-32-32s14.4-32,32-32c17.7,0,32,14.4,32,32S131.6,116.5,113.9,116.5z M113.9,54.4
		c-16.6,0-30,13.5-30,30c0,16.6,13.5,30,30,30c16.6,0,30-13.5,30-30C144,67.9,130.5,54.4,113.9,54.4z"/>
</g>
<g>
	<path class="st2" d="M113.9,107.6c-12.8,0-23.2-10.4-23.2-23.2c0-12.8,10.4-23.2,23.2-23.2c12.8,0,23.2,10.4,23.2,23.2
		C137.1,97.2,126.7,107.6,113.9,107.6z M113.9,63.3c-11.7,0-21.2,9.5-21.2,21.2s9.5,21.2,21.2,21.2c11.7,0,21.2-9.5,21.2-21.2
		S125.6,63.3,113.9,63.3z"/>
</g>
<g>
	<path class="st2" d="M113.9,107.9c-12.9,0-23.4-10.5-23.4-23.4C90.5,71.5,101,61,113.9,61s23.4,10.5,23.4,23.4
		C137.4,97.4,126.9,107.9,113.9,107.9z M113.9,63c-11.8,0-21.4,9.6-21.4,21.4s9.6,21.4,21.4,21.4s21.4-9.6,21.4-21.4
		S125.8,63,113.9,63z"/>
</g>
<g>
	<path class="st2" d="M113.9,99.4c-8.2,0-14.9-6.7-14.9-14.9s6.7-14.9,14.9-14.9s14.9,6.7,14.9,14.9S122.2,99.4,113.9,99.4z
		 M113.9,71.5c-7.1,0-12.9,5.8-12.9,12.9s5.8,12.9,12.9,12.9s12.9-5.8,12.9-12.9S121.1,71.5,113.9,71.5z"/>
</g>
<path class="st8" d="M114,77.4c-4,0-7.2,3.2-7.2,7.2s3.2,7.2,7.2,7.2c4,0,7.2-3.2,7.2-7.2S118,77.4,114,77.4z M114,88.1
	c-2,0-3.5-1.6-3.5-3.5c0-2,1.6-3.5,3.5-3.5c2,0,3.5,1.6,3.5,3.5C117.6,86.5,116,88.1,114,88.1z"/>
<g>
	<g>
		<path class="st14" d="M65.8,62.1c-0.5,0-0.9-0.4-1-0.9c-1.1-7.3-7-14.8-15.9-20.5c3.1,4.8,3.2,9.6,1.7,12.7
			c-0.2,0.5-0.8,0.7-1.3,0.5c-0.5-0.2-0.7-0.8-0.5-1.3c1.7-3.4,0.8-9.4-4.9-14.6c-0.5-0.2-0.7-0.8-0.4-1.3c0.1-0.3,0.4-0.5,0.7-0.6
			c0.3-0.1,0.6,0,0.9,0.2c12,6,20.3,15.4,21.7,24.6c0.1,0.5-0.3,1.1-0.8,1.1C65.9,62.1,65.9,62.1,65.8,62.1z"/>
	</g>
	<g>
		<path class="st14" d="M53.9,64.7c-6.3,0-13.3-1.7-20.2-5c-0.3-0.1-0.6-0.3-0.7-0.5c-0.1-0.3-0.1-0.6,0-0.9
			c0.2-0.5,0.8-0.7,1.3-0.5c7.6,1.3,12.9-1.7,14.5-5.1c0.2-0.5,0.8-0.7,1.3-0.5c0.5,0.2,0.7,0.8,0.5,1.3c-1.5,3.1-5.4,5.9-11.1,6.4
			c9.9,3.6,19.4,3.7,25.9,0c0.5-0.3,1.1-0.1,1.4,0.4c0.3,0.5,0.1,1.1-0.4,1.4C62.9,63.7,58.6,64.7,53.9,64.7z"/>
	</g>
	<path class="st14" d="M113.7,85.6c-0.1,0-0.3,0-0.4-0.1l-63.2-31c-0.5-0.2-0.7-0.8-0.5-1.3c0.2-0.5,0.8-0.7,1.3-0.5l63.2,31
		c0.5,0.2,0.7,0.8,0.5,1.3C114.5,85.4,114.1,85.6,113.7,85.6z"/>
</g>
</svg>
