<?xml version="1.0" encoding="utf-8"?>
<!-- Generator: Adobe Illustrator 24.1.2, SVG Export Plug-In . SVG Version: 6.00 Build 0)  -->
<svg version="1.1" id="Layer_1" xmlns="http://www.w3.org/2000/svg" xmlns:xlink="http://www.w3.org/1999/xlink" x="0px" y="0px"
	 viewBox="0 0 174 174" style="enable-background:new 0 0 174 174;" xml:space="preserve">
<style type="text/css">
	.st0{fill:#0047BF;}
	.st1{fill:#003FC1;}
	.st2{fill:#FFFFFF;}
	.st3{fill:none;stroke:#96D5CE;stroke-width:2;stroke-linecap:round;stroke-linejoin:round;stroke-miterlimit:10;}
	.st4{fill:none;stroke:#FF704C;stroke-width:2;stroke-linecap:round;stroke-linejoin:round;stroke-miterlimit:10;}
	.st5{fill:none;stroke:#FFFFFF;stroke-width:2;stroke-linecap:round;stroke-linejoin:round;stroke-miterlimit:10;}
	.st6{fill:none;stroke:#FF804C;stroke-width:2;stroke-linecap:round;stroke-linejoin:round;stroke-miterlimit:10;}
	.st7{fill:none;stroke:#0047BF;stroke-width:2;stroke-linecap:round;stroke-linejoin:round;stroke-miterlimit:10;}
	.st8{fill:#F1D439;}
	.st9{fill:#0047BF;stroke:#BEC8C8;stroke-width:2;stroke-linecap:round;stroke-linejoin:round;stroke-miterlimit:10;}
	.st10{fill:none;stroke:#FF7E51;stroke-width:2;stroke-linecap:round;stroke-linejoin:round;stroke-miterlimit:10;}
	.st11{fill:none;stroke:#A3D5D0;stroke-width:2;stroke-linecap:round;stroke-linejoin:round;stroke-miterlimit:10;}
	.st12{fill:none;stroke:#F1D439;stroke-width:2;stroke-linecap:round;stroke-linejoin:round;stroke-miterlimit:10;}
	.st13{fill:none;stroke:#E2E6E6;stroke-width:2;stroke-linecap:round;stroke-linejoin:round;stroke-miterlimit:10;}
	.st14{fill:#A3D5D0;}
	.st15{fill:#FF804C;}
	.st16{fill:none;stroke:#BEC8C8;stroke-width:2;stroke-linecap:round;stroke-linejoin:round;stroke-miterlimit:10;}
	.st17{fill:#0047BF;stroke:#0047BF;stroke-width:2;stroke-linecap:round;stroke-linejoin:round;stroke-miterlimit:10;}
	.st18{fill:#FF704C;}
	.st19{fill:none;}
	.st20{fill:#0041BD;}
	.st21{fill:none;stroke:#FFFFFF;stroke-width:1.5;stroke-linecap:round;stroke-linejoin:round;stroke-miterlimit:10;}
	.st22{fill:#0041BD;stroke:#A3D5D0;stroke-width:1.5;stroke-linecap:round;stroke-linejoin:round;stroke-miterlimit:10;}
	.st23{fill:#0041BD;stroke:#FFFFFF;stroke-width:2;stroke-linecap:round;stroke-linejoin:round;stroke-miterlimit:10;}
	.st24{fill:#0041BD;stroke:#FF804C;stroke-width:2;stroke-linecap:round;stroke-linejoin:round;stroke-miterlimit:10;}
	.st25{fill:#0041BD;stroke:#A3D5D0;stroke-width:2;stroke-linecap:round;stroke-linejoin:round;stroke-miterlimit:10;}
	.st26{fill:#0041BD;stroke:#F1D439;stroke-width:2;stroke-linecap:round;stroke-linejoin:round;stroke-miterlimit:10;}
	.st27{fill:#FF804C;stroke:#FF804C;stroke-width:2;stroke-linecap:round;stroke-linejoin:round;stroke-miterlimit:10;}
	.st28{fill:none;stroke:#FFFFFF;stroke-width:2.5;stroke-linecap:round;stroke-linejoin:round;stroke-miterlimit:10;}
	.st29{fill:#0041BD;stroke:#FF804C;stroke-width:1.5;stroke-linecap:round;stroke-linejoin:round;stroke-miterlimit:10;}
	.st30{fill:none;stroke:#FF704C;stroke-width:1.5;stroke-linecap:round;stroke-linejoin:round;stroke-miterlimit:10;}
	.st31{fill:none;stroke:#FF804C;stroke-width:1.5;stroke-linecap:round;stroke-linejoin:round;stroke-miterlimit:10;}
	.st32{fill:none;stroke:#A3D5D0;stroke-width:1.4377;stroke-linecap:round;stroke-linejoin:round;stroke-miterlimit:10;}
	.st33{fill:#0041BD;stroke:#F1D439;stroke-width:1.5;stroke-linecap:round;stroke-linejoin:round;stroke-miterlimit:10;}
	.st34{fill:none;stroke:#F1D439;stroke-width:1.5;stroke-linecap:round;stroke-linejoin:round;stroke-miterlimit:10;}
	.st35{fill:none;stroke:#A3D5D0;stroke-width:1.5;stroke-linecap:round;stroke-linejoin:round;stroke-miterlimit:10;}
	.st36{fill:none;stroke:#96D5CE;stroke-width:1.4377;stroke-linecap:round;stroke-linejoin:round;stroke-miterlimit:10;}
	.st37{fill:none;stroke:#0047BF;stroke-width:1.5;stroke-linecap:round;stroke-linejoin:round;stroke-miterlimit:10;}
	.st38{fill:#0047BF;stroke:#FF704C;stroke-width:2;stroke-linecap:round;stroke-linejoin:round;stroke-miterlimit:10;}
	.st39{fill:#0047BF;stroke:#FF804C;stroke-width:2;stroke-linecap:round;stroke-linejoin:round;stroke-miterlimit:10;}
	.st40{fill:#0047BF;stroke:#E2E6E6;stroke-width:2;stroke-linecap:round;stroke-linejoin:round;stroke-miterlimit:10;}
	.st41{fill:#0047BF;stroke:#A3D5D0;stroke-width:2;stroke-linecap:round;stroke-linejoin:round;stroke-miterlimit:10;}
	.st42{fill:#0047BF;stroke:#F1D439;stroke-width:2;stroke-linecap:round;stroke-linejoin:round;stroke-miterlimit:10;}
	.st43{fill:#0041BD;stroke:#E2E6E6;stroke-width:2;stroke-linecap:round;stroke-linejoin:round;stroke-miterlimit:10;}
	.st44{fill:#E2E6E6;}
	.st45{fill:none;stroke:#0047BF;stroke-width:1.4377;stroke-linecap:round;stroke-linejoin:round;stroke-miterlimit:10;}
	.st46{fill:#0047BF;stroke:#A3D5D0;stroke-width:1.5;stroke-linecap:round;stroke-linejoin:round;stroke-miterlimit:10;}
	.st47{fill:none;stroke:#E2E6E6;stroke-width:1.5;stroke-linecap:round;stroke-linejoin:round;stroke-miterlimit:10;}
	.st48{fill:#0047BF;stroke:#FF704C;stroke-width:1.5;stroke-linecap:round;stroke-linejoin:round;stroke-miterlimit:10;}
	.st49{fill:#0047BF;stroke:#FF804C;stroke-width:1.5;stroke-linecap:round;stroke-linejoin:round;stroke-miterlimit:10;}
	.st50{fill:#0047BF;stroke:#F1D439;stroke-width:1.5;stroke-linecap:round;stroke-linejoin:round;stroke-miterlimit:10;}
	.st51{fill:#0041BD;stroke:#0047BF;stroke-width:2;stroke-linecap:round;stroke-linejoin:round;stroke-miterlimit:10;}
	
		.st52{fill:none;stroke:#FFFFFF;stroke-width:2;stroke-linecap:round;stroke-linejoin:round;stroke-miterlimit:10;stroke-dasharray:15,5;}
	.st53{fill:#1B3570;}
	.st54{fill:#B5C0C0;}
	.st55{fill:#0047BF;stroke:#B5C0C0;stroke-width:2;stroke-linecap:round;stroke-linejoin:round;stroke-miterlimit:10;}
	.st56{fill:none;stroke:#B5C0C0;stroke-width:2;stroke-linecap:round;stroke-linejoin:round;stroke-miterlimit:10;}
	.st57{fill:#0047BF;stroke:#96D5CE;stroke-width:2;stroke-linecap:round;stroke-linejoin:round;stroke-miterlimit:10;}
	.st58{fill:#96D5CE;}
	.st59{fill:#FF7E51;}
	.st60{fill:#0B0069;}
	.st61{fill:#0047BF;stroke:#FFFFFF;stroke-width:2;stroke-linecap:round;stroke-linejoin:round;stroke-miterlimit:10;}
	.st62{fill:none;stroke:#FF7E51;stroke-width:1.5;stroke-linecap:round;stroke-linejoin:round;stroke-miterlimit:10;}
	.st63{fill:#0B0069;stroke:#FFFFFF;stroke-width:1.5;stroke-linecap:round;stroke-linejoin:round;stroke-miterlimit:10;}
</style>
<path class="st2" d="M36.9,121.1c-0.6,0-1-0.4-1-1V91.2c0-0.4,0.2-0.7,0.6-0.9c0.2-0.1,4.9-2.4,14.8-2.4s14.6,2.3,14.8,2.4
	c0.5,0.2,0.7,0.8,0.4,1.3c-0.2,0.5-0.8,0.7-1.3,0.4c0,0-4.5-2.2-13.9-2.2c-7.5,0-11.9,1.4-13.3,1.9v28.3
	C37.9,120.7,37.5,121.1,36.9,121.1z"/>
<path class="st2" d="M65.6,92.2c-0.6,0-1-0.4-1-1v-4.7c-1.5-0.6-5.8-1.9-13.3-1.9c-7.5,0-11.9,1.4-13.3,1.9v4.7c0,0.6-0.4,1-1,1
	s-1-0.4-1-1v-5.4c0-0.4,0.2-0.7,0.6-0.9c0.2-0.1,4.9-2.4,14.8-2.4s14.6,2.3,14.8,2.4c0.3,0.2,0.6,0.5,0.6,0.9v5.4
	C66.6,91.7,66.2,92.2,65.6,92.2z"/>
<path class="st2" d="M42.6,89.7c-0.6,0-1-0.4-1-1v-4c0-0.6,0.4-1,1-1s1,0.4,1,1v4C43.6,89.2,43.1,89.7,42.6,89.7z"/>
<path class="st2" d="M60.1,90.4c-0.6,0-1-0.4-1-1v-5c0-0.6,0.4-1,1-1s1,0.4,1,1v5C61.1,89.9,60.7,90.4,60.1,90.4z"/>
<path class="st2" d="M54.3,88.9c-0.6,0-1-0.4-1-1v-4.2c0-0.6,0.4-1,1-1s1,0.4,1,1v4.2C55.3,88.5,54.8,88.9,54.3,88.9z"/>
<path class="st2" d="M48.4,89.1c-0.6,0-1-0.4-1-1v-3.9c0-0.6,0.4-1,1-1s1,0.4,1,1v3.9C49.4,88.7,49,89.1,48.4,89.1z"/>
<path class="st2" d="M135.9,121.1c-0.6,0-1-0.4-1-1V91.9c-1.5-0.6-5.8-1.9-13.3-1.9c-9.4,0-13.9,2.2-13.9,2.2
	c-0.5,0.2-1.1,0-1.3-0.5c-0.2-0.5,0-1.1,0.4-1.3c0.2-0.1,4.9-2.4,14.8-2.4s14.6,2.3,14.8,2.4c0.3,0.2,0.6,0.5,0.6,0.9v28.9
	C136.9,120.7,136.5,121.1,135.9,121.1z"/>
<path class="st2" d="M135.9,92.2c-0.6,0-1-0.4-1-1v-4.7c-1.5-0.6-5.8-1.9-13.3-1.9c-7.5,0-11.9,1.4-13.3,1.9v4.7c0,0.6-0.4,1-1,1
	s-1-0.4-1-1v-5.4c0-0.4,0.2-0.7,0.6-0.9c0.2-0.1,4.9-2.4,14.8-2.4s14.6,2.3,14.8,2.4c0.3,0.2,0.6,0.5,0.6,0.9v5.4
	C136.9,91.7,136.5,92.2,135.9,92.2z"/>
<path class="st2" d="M112.9,89.7c-0.6,0-1-0.4-1-1v-4c0-0.6,0.4-1,1-1s1,0.4,1,1v4C113.9,89.2,113.4,89.7,112.9,89.7z"/>
<path class="st2" d="M130.5,90.4c-0.6,0-1-0.4-1-1v-5c0-0.6,0.4-1,1-1s1,0.4,1,1v5C131.5,89.9,131,90.4,130.5,90.4z"/>
<path class="st2" d="M124.6,88.9c-0.6,0-1-0.4-1-1v-4.2c0-0.6,0.4-1,1-1s1,0.4,1,1v4.2C125.6,88.5,125.1,88.9,124.6,88.9z"/>
<path class="st2" d="M118.7,89.1c-0.6,0-1-0.4-1-1v-3.9c0-0.6,0.4-1,1-1s1,0.4,1,1v3.9C119.7,88.7,119.3,89.1,118.7,89.1z"/>
<path class="st2" d="M106.9,121.1c-0.6,0-1-0.4-1-1V82.5c-1.8-0.7-8.2-2.9-19.6-2.9c-11.4,0-17.8,2.2-19.6,2.9v37.2c0,0.6-0.4,1-1,1
	s-1-0.4-1-1V81.9c0-0.4,0.2-0.7,0.6-0.9c0.3-0.1,6.9-3.4,21.1-3.4c14.1,0,20.8,3.2,21.1,3.4c0.3,0.2,0.6,0.5,0.6,0.9v38.3
	C107.9,120.7,107.5,121.1,106.9,121.1z"/>
<path class="st2" d="M106.9,84.3c-0.6,0-1-0.4-1-1v-7.1c-1.8-0.7-8.2-2.9-19.6-2.9c-11.4,0-17.8,2.2-19.6,2.9v7.1c0,0.6-0.4,1-1,1
	s-1-0.4-1-1v-7.7c0-0.4,0.2-0.7,0.6-0.9c0.3-0.1,6.9-3.4,21.1-3.4c14.1,0,20.8,3.2,21.1,3.4c0.3,0.2,0.6,0.5,0.6,0.9v7.7
	C107.9,83.8,107.5,84.3,106.9,84.3z"/>
<path class="st2" d="M71.6,80.6c-0.6,0-1-0.4-1-1v-4.8c0-0.6,0.4-1,1-1s1,0.4,1,1v4.8C72.6,80.2,72.1,80.6,71.6,80.6z"/>
<path class="st2" d="M101,80.9c-0.6,0-1-0.4-1-1v-5c0-0.6,0.4-1,1-1s1,0.4,1,1v5C102,80.4,101.6,80.9,101,80.9z"/>
<path class="st2" d="M95.1,80.1c-0.6,0-1-0.4-1-1v-5.3c0-0.6,0.4-1,1-1s1,0.4,1,1v5.3C96.1,79.6,95.7,80.1,95.1,80.1z"/>
<path class="st2" d="M89.3,79.6c-0.6,0-1-0.4-1-1v-5c0-0.6,0.4-1,1-1s1,0.4,1,1v5C90.3,79.1,89.8,79.6,89.3,79.6z"/>
<path class="st2" d="M83.4,79.6c-0.6,0-1-0.4-1-1v-5c0-0.6,0.4-1,1-1s1,0.4,1,1v5C84.4,79.1,83.9,79.6,83.4,79.6z"/>
<path class="st2" d="M77.5,79.8c-0.6,0-1-0.4-1-1v-4.7c0-0.6,0.4-1,1-1s1,0.4,1,1v4.7C78.5,79.4,78,79.8,77.5,79.8z"/>
<path class="st2" d="M143.9,121.4H28.5c-0.6,0-1-0.4-1-1s0.4-1,1-1h115.4c0.6,0,1,0.4,1,1S144.5,121.4,143.9,121.4z"/>
<path class="st2" d="M125.1,128.6h-49c-0.6,0-1-0.4-1-1s0.4-1,1-1h49c0.6,0,1,0.4,1,1S125.7,128.6,125.1,128.6z"/>
<path class="st2" d="M106,135.3H44.1c-0.6,0-1-0.4-1-1s0.4-1,1-1H106c0.6,0,1,0.4,1,1S106.5,135.3,106,135.3z"/>
<path class="st2" d="M111.2,142.1H79.1c-0.6,0-1-0.4-1-1s0.4-1,1-1h32.1c0.6,0,1,0.4,1,1S111.7,142.1,111.2,142.1z"/>
<path class="st14" d="M60.3,64.4H30.5c-0.6,0-1-0.4-1-1s0.4-1,1-1h29.8c0.6,0,1,0.4,1,1S60.9,64.4,60.3,64.4z"/>
<path class="st14" d="M139.6,64.4h-17.5c-0.6,0-1-0.4-1-1s0.4-1,1-1h17.5c0.6,0,1,0.4,1,1S140.2,64.4,139.6,64.4z"/>
<path class="st14" d="M47,56.8h-8.1c-0.6,0-1-0.4-1-1s0.4-1,1-1H47c0.6,0,1,0.4,1,1S47.5,56.8,47,56.8z"/>
<path class="st14" d="M132.9,56.8h-8.1c-0.6,0-1-0.4-1-1s0.4-1,1-1h8.1c0.6,0,1,0.4,1,1S133.5,56.8,132.9,56.8z"/>
<path class="st14" d="M51.9,72H41.8c-0.6,0-1-0.4-1-1s0.4-1,1-1h10.1c0.6,0,1,0.4,1,1S52.5,72,51.9,72z"/>
<path class="st14" d="M123.4,72h-10.1c-0.6,0-1-0.4-1-1s0.4-1,1-1h10.1c0.6,0,1,0.4,1,1S123.9,72,123.4,72z"/>
<path class="st8" d="M55.4,34.2c-4.2,0-7.5,3.4-7.5,7.5s3.4,7.5,7.5,7.5c4.2,0,7.5-3.4,7.5-7.5S59.6,34.2,55.4,34.2z M55.4,45.4
	c-2,0-3.7-1.7-3.7-3.7c0-2,1.7-3.7,3.7-3.7c2,0,3.7,1.7,3.7,3.7C59.1,43.7,57.5,45.4,55.4,45.4z"/>
<path class="st14" d="M109.1,63.6H72.9c-4.4,0-7.9-3.5-7.9-7.9c0-4.1,3.2-7.5,7.2-7.9c-0.2-0.8-0.3-1.5-0.3-2.3
	c0-5.7,4.6-10.3,10.3-10.3c5.4,0,9.8,4.2,10.3,9.4c1.7-1.1,3.6-1.7,5.6-1.7c3.7,0,7,1.9,8.9,5.1c0.7-0.2,1.4-0.3,2.1-0.3
	c4.4,0,7.9,3.5,7.9,7.9C117,60.1,113.4,63.6,109.1,63.6z M82.2,37.3c-4.6,0-8.3,3.7-8.3,8.3c0,0.8,0.1,1.6,0.4,2.4
	c0.1,0.4,0,0.8-0.3,1.2c-0.3,0.4-0.7,0.6-1.1,0.6c-3.3,0-5.9,2.6-5.9,5.9s2.6,5.9,5.9,5.9h36.1c3.3,0,5.9-2.6,5.9-5.9
	s-2.6-5.9-5.9-5.9c-0.7,0-1.4,0.1-2,0.4c-0.1,0-0.2,0.1-0.3,0.1h-0.2c-0.4,0-0.7-0.2-0.9-0.6c-1.4-2.9-4.3-4.7-7.5-4.7
	c-1.9,0-3.7,0.6-5.2,1.8c-0.4,0.3-1,0.4-1.5,0.2c-0.6-0.3-0.9-0.8-0.9-1.5C90.5,41,86.8,37.3,82.2,37.3z"/>
</svg>
