<?xml version="1.0" encoding="utf-8"?>
<!-- Generator: Adobe Illustrator 24.1.2, SVG Export Plug-In . SVG Version: 6.00 Build 0)  -->
<svg version="1.1" id="Layer_1" xmlns="http://www.w3.org/2000/svg" xmlns:xlink="http://www.w3.org/1999/xlink" x="0px" y="0px"
	 viewBox="0 0 174 174" style="enable-background:new 0 0 174 174;" xml:space="preserve">
<style type="text/css">
	.st0{fill:#0047BF;}
	.st1{fill:#003FC1;}
	.st2{fill:#FFFFFF;}
	.st3{fill:none;stroke:#96D5CE;stroke-width:2;stroke-linecap:round;stroke-linejoin:round;stroke-miterlimit:10;}
	.st4{fill:none;stroke:#FF704C;stroke-width:2;stroke-linecap:round;stroke-linejoin:round;stroke-miterlimit:10;}
	.st5{fill:none;stroke:#FFFFFF;stroke-width:2;stroke-linecap:round;stroke-linejoin:round;stroke-miterlimit:10;}
	.st6{fill:none;stroke:#FF804C;stroke-width:2;stroke-linecap:round;stroke-linejoin:round;stroke-miterlimit:10;}
	.st7{fill:none;stroke:#0047BF;stroke-width:2;stroke-linecap:round;stroke-linejoin:round;stroke-miterlimit:10;}
	.st8{fill:#F1D439;}
	.st9{fill:#0047BF;stroke:#BEC8C8;stroke-width:2;stroke-linecap:round;stroke-linejoin:round;stroke-miterlimit:10;}
	.st10{fill:none;stroke:#FF7E51;stroke-width:2;stroke-linecap:round;stroke-linejoin:round;stroke-miterlimit:10;}
	.st11{fill:none;stroke:#A3D5D0;stroke-width:2;stroke-linecap:round;stroke-linejoin:round;stroke-miterlimit:10;}
	.st12{fill:none;stroke:#F1D439;stroke-width:2;stroke-linecap:round;stroke-linejoin:round;stroke-miterlimit:10;}
	.st13{fill:none;stroke:#E2E6E6;stroke-width:2;stroke-linecap:round;stroke-linejoin:round;stroke-miterlimit:10;}
	.st14{fill:#A3D5D0;}
	.st15{fill:#FF804C;}
	.st16{fill:none;stroke:#BEC8C8;stroke-width:2;stroke-linecap:round;stroke-linejoin:round;stroke-miterlimit:10;}
	.st17{fill:#0047BF;stroke:#0047BF;stroke-width:2;stroke-linecap:round;stroke-linejoin:round;stroke-miterlimit:10;}
	.st18{fill:#FF704C;}
	.st19{fill:none;}
	.st20{fill:#0041BD;}
	.st21{fill:none;stroke:#FFFFFF;stroke-width:1.5;stroke-linecap:round;stroke-linejoin:round;stroke-miterlimit:10;}
	.st22{fill:#0041BD;stroke:#A3D5D0;stroke-width:1.5;stroke-linecap:round;stroke-linejoin:round;stroke-miterlimit:10;}
	.st23{fill:#0041BD;stroke:#FFFFFF;stroke-width:2;stroke-linecap:round;stroke-linejoin:round;stroke-miterlimit:10;}
	.st24{fill:#0041BD;stroke:#FF804C;stroke-width:2;stroke-linecap:round;stroke-linejoin:round;stroke-miterlimit:10;}
	.st25{fill:#0041BD;stroke:#A3D5D0;stroke-width:2;stroke-linecap:round;stroke-linejoin:round;stroke-miterlimit:10;}
	.st26{fill:#0041BD;stroke:#F1D439;stroke-width:2;stroke-linecap:round;stroke-linejoin:round;stroke-miterlimit:10;}
	.st27{fill:#FF804C;stroke:#FF804C;stroke-width:2;stroke-linecap:round;stroke-linejoin:round;stroke-miterlimit:10;}
	.st28{fill:none;stroke:#FFFFFF;stroke-width:2.5;stroke-linecap:round;stroke-linejoin:round;stroke-miterlimit:10;}
	.st29{fill:#0041BD;stroke:#FF804C;stroke-width:1.5;stroke-linecap:round;stroke-linejoin:round;stroke-miterlimit:10;}
	.st30{fill:none;stroke:#FF704C;stroke-width:1.5;stroke-linecap:round;stroke-linejoin:round;stroke-miterlimit:10;}
	.st31{fill:none;stroke:#FF804C;stroke-width:1.5;stroke-linecap:round;stroke-linejoin:round;stroke-miterlimit:10;}
	.st32{fill:none;stroke:#A3D5D0;stroke-width:1.4377;stroke-linecap:round;stroke-linejoin:round;stroke-miterlimit:10;}
	.st33{fill:#0041BD;stroke:#F1D439;stroke-width:1.5;stroke-linecap:round;stroke-linejoin:round;stroke-miterlimit:10;}
	.st34{fill:none;stroke:#F1D439;stroke-width:1.5;stroke-linecap:round;stroke-linejoin:round;stroke-miterlimit:10;}
	.st35{fill:none;stroke:#A3D5D0;stroke-width:1.5;stroke-linecap:round;stroke-linejoin:round;stroke-miterlimit:10;}
	.st36{fill:none;stroke:#96D5CE;stroke-width:1.4377;stroke-linecap:round;stroke-linejoin:round;stroke-miterlimit:10;}
	.st37{fill:none;stroke:#0047BF;stroke-width:1.5;stroke-linecap:round;stroke-linejoin:round;stroke-miterlimit:10;}
	.st38{fill:#0047BF;stroke:#FF704C;stroke-width:2;stroke-linecap:round;stroke-linejoin:round;stroke-miterlimit:10;}
	.st39{fill:#0047BF;stroke:#FF804C;stroke-width:2;stroke-linecap:round;stroke-linejoin:round;stroke-miterlimit:10;}
	.st40{fill:#0047BF;stroke:#E2E6E6;stroke-width:2;stroke-linecap:round;stroke-linejoin:round;stroke-miterlimit:10;}
	.st41{fill:#0047BF;stroke:#A3D5D0;stroke-width:2;stroke-linecap:round;stroke-linejoin:round;stroke-miterlimit:10;}
	.st42{fill:#0047BF;stroke:#F1D439;stroke-width:2;stroke-linecap:round;stroke-linejoin:round;stroke-miterlimit:10;}
	.st43{fill:#0041BD;stroke:#E2E6E6;stroke-width:2;stroke-linecap:round;stroke-linejoin:round;stroke-miterlimit:10;}
	.st44{fill:#E2E6E6;}
	.st45{fill:none;stroke:#0047BF;stroke-width:1.4377;stroke-linecap:round;stroke-linejoin:round;stroke-miterlimit:10;}
	.st46{fill:#0047BF;stroke:#A3D5D0;stroke-width:1.5;stroke-linecap:round;stroke-linejoin:round;stroke-miterlimit:10;}
	.st47{fill:none;stroke:#E2E6E6;stroke-width:1.5;stroke-linecap:round;stroke-linejoin:round;stroke-miterlimit:10;}
	.st48{fill:#0047BF;stroke:#FF704C;stroke-width:1.5;stroke-linecap:round;stroke-linejoin:round;stroke-miterlimit:10;}
	.st49{fill:#0047BF;stroke:#FF804C;stroke-width:1.5;stroke-linecap:round;stroke-linejoin:round;stroke-miterlimit:10;}
	.st50{fill:#0047BF;stroke:#F1D439;stroke-width:1.5;stroke-linecap:round;stroke-linejoin:round;stroke-miterlimit:10;}
	.st51{fill:#0041BD;stroke:#0047BF;stroke-width:2;stroke-linecap:round;stroke-linejoin:round;stroke-miterlimit:10;}
	
		.st52{fill:none;stroke:#FFFFFF;stroke-width:2;stroke-linecap:round;stroke-linejoin:round;stroke-miterlimit:10;stroke-dasharray:15,5;}
	.st53{fill:#1B3570;}
	.st54{fill:#B5C0C0;}
	.st55{fill:#0047BF;stroke:#B5C0C0;stroke-width:2;stroke-linecap:round;stroke-linejoin:round;stroke-miterlimit:10;}
	.st56{fill:none;stroke:#B5C0C0;stroke-width:2;stroke-linecap:round;stroke-linejoin:round;stroke-miterlimit:10;}
	.st57{fill:#0047BF;stroke:#96D5CE;stroke-width:2;stroke-linecap:round;stroke-linejoin:round;stroke-miterlimit:10;}
	.st58{fill:#96D5CE;}
	.st59{fill:#FF7E51;}
	.st60{fill:#0B0069;}
	.st61{fill:#0047BF;stroke:#FFFFFF;stroke-width:2;stroke-linecap:round;stroke-linejoin:round;stroke-miterlimit:10;}
	.st62{fill:none;stroke:#FF7E51;stroke-width:1.5;stroke-linecap:round;stroke-linejoin:round;stroke-miterlimit:10;}
	.st63{fill:#0B0069;stroke:#FFFFFF;stroke-width:1.5;stroke-linecap:round;stroke-linejoin:round;stroke-miterlimit:10;}
</style>
<g>
	<path class="st14" d="M41.5,99c-2,0-3.6-1.6-3.6-3.6V79.1c0-2,1.6-3.6,3.6-3.6s3.6,1.6,3.6,3.6v16.3C45,97.4,43.4,99,41.5,99z
		 M41.5,77.6c-0.9,0-1.6,0.7-1.6,1.6v16.3c0,0.9,0.7,1.6,1.6,1.6s1.6-0.7,1.6-1.6V79.1C43,78.3,42.3,77.6,41.5,77.6z"/>
	<path class="st14" d="M36.3,99c-2,0-3.6-1.6-3.6-3.6V79.1c0-2,1.6-3.6,3.6-3.6s3.6,1.6,3.6,3.6v16.3C39.9,97.4,38.3,99,36.3,99z
		 M36.3,77.6c-0.9,0-1.6,0.7-1.6,1.6v16.3c0,0.9,0.7,1.6,1.6,1.6s1.6-0.7,1.6-1.6V79.1C37.9,78.3,37.2,77.6,36.3,77.6z"/>
	<path class="st14" d="M31.2,96.7c-2,0-3.6-1.6-3.6-3.6V81.4c0-2,1.6-3.6,3.6-3.6s3.6,1.6,3.6,3.6v11.7
		C34.8,95.1,33.2,96.7,31.2,96.7z M31.2,79.9c-0.9,0-1.6,0.7-1.6,1.6v11.7c0,0.9,0.7,1.6,1.6,1.6c0.9,0,1.6-0.7,1.6-1.6V81.4
		C32.8,80.6,32.1,79.9,31.2,79.9z"/>
</g>
<path class="st8" d="M106.2,75.8c-3.8,0-6.8,3.1-6.8,6.8c0,3.8,3.1,6.8,6.8,6.8c3.8,0,6.8-3.1,6.8-6.8
	C113.1,78.8,110,75.8,106.2,75.8z M106.3,85.9c-1.8,0-3.4-1.5-3.4-3.3c0-1.8,1.5-3.4,3.3-3.4c1.8,0,3.3,1.5,3.4,3.3
	C109.6,84.4,108.2,85.9,106.3,85.9z"/>
<path class="st14" d="M82.7,95.9c-6.3,0-18-3.2-18-8.6s11.6-8.6,18-8.6c2.9,0,5.6,0.6,7.9,1.8c0.3,0.2,0.5,0.5,0.5,0.9
	s-0.2,0.7-0.5,0.9c-2.5,1.3-4,3.1-4,5c0,1.9,1.4,3.7,4,5c0.3,0.2,0.5,0.5,0.5,0.9c0,0.4-0.2,0.7-0.5,0.9
	C88.3,95.2,85.6,95.9,82.7,95.9z M82.7,80.7c-6.6,0-16,3.4-16,6.6c0,3.2,9.4,6.6,16,6.6c1.8,0,3.7-0.3,5.3-0.8
	c-2.1-1.6-3.3-3.6-3.3-5.7c0-2.2,1.2-4.2,3.3-5.7C86.4,81,84.5,80.7,82.7,80.7z"/>
<path class="st2" d="M116.1,93.9c-0.4,0-0.8-0.2-0.9-0.6c-0.2-0.5,0.1-1.1,0.6-1.3l8.2-3.2c0.5-0.2,1.1,0.1,1.3,0.6
	c0.2,0.5-0.1,1.1-0.6,1.3l-8.2,3.2C116.4,93.9,116.2,93.9,116.1,93.9z"/>
<path class="st14" d="M65.7,88.3H55.5c-0.6,0-1-0.4-1-1s0.4-1,1-1h10.3c0.6,0,1,0.4,1,1S66.3,88.3,65.7,88.3z"/>
<path class="st2" d="M121.2,95.8c-0.2,0-0.4-0.1-0.6-0.2l-3.1-2.4c-0.4-0.3-0.5-1-0.2-1.4c0.3-0.4,1-0.5,1.4-0.2l3.1,2.4
	c0.4,0.3,0.5,1,0.2,1.4C121.8,95.7,121.5,95.8,121.2,95.8z"/>
<path class="st14" d="M133.1,85.9c-2.4,0-4.4-2-4.4-4.4s2-4.4,4.4-4.4s4.4,2,4.4,4.4S135.5,85.9,133.1,85.9z M133.1,79
	c-1.3,0-2.4,1.1-2.4,2.4s1.1,2.4,2.4,2.4s2.4-1.1,2.4-2.4S134.4,79,133.1,79z"/>
<path class="st14" d="M126.2,71.5c-2,0-3.7-1.6-3.7-3.7s1.6-3.7,3.7-3.7c2,0,3.7,1.6,3.7,3.7S128.2,71.5,126.2,71.5z M126.2,66.1
	c-0.9,0-1.7,0.8-1.7,1.7s0.8,1.7,1.7,1.7c0.9,0,1.7-0.8,1.7-1.7S127.1,66.1,126.2,66.1z"/>
<path class="st14" d="M137.5,64.4c-1.9,0-3.4-1.5-3.4-3.4s1.5-3.4,3.4-3.4s3.4,1.5,3.4,3.4S139.4,64.4,137.5,64.4z M137.5,59.5
	c-0.8,0-1.4,0.6-1.4,1.4s0.6,1.4,1.4,1.4c0.8,0,1.4-0.6,1.4-1.4S138.3,59.5,137.5,59.5z"/>
<path class="st14" d="M131.4,49.5c-1.3,0-2.4-1.1-2.4-2.4s1.1-2.4,2.4-2.4c1.3,0,2.4,1.1,2.4,2.4S132.7,49.5,131.4,49.5z
	 M131.4,46.7c-0.2,0-0.4,0.2-0.4,0.4s0.2,0.4,0.4,0.4c0.2,0,0.4-0.2,0.4-0.4S131.6,46.7,131.4,46.7z"/>
<path class="st15" d="M90.7,51.8c-0.6,0-1-0.4-1-1V34.2c0-0.6,0.4-1,1-1s1,0.4,1,1v16.6C91.7,51.3,91.3,51.8,90.7,51.8z"/>
<path class="st15" d="M90.7,142.5c-0.6,0-1-0.4-1-1V125c0-0.6,0.4-1,1-1s1,0.4,1,1v16.6C91.7,142.1,91.3,142.5,90.7,142.5z"/>
<path class="st15" d="M99.3,52.1c-0.1,0-0.1,0-0.2,0c-0.5-0.1-0.9-0.6-0.8-1.2l2.1-11.3c0.1-0.5,0.6-0.9,1.2-0.8
	c0.5,0.1,0.9,0.6,0.8,1.2l-2.1,11.3C100.2,51.7,99.8,52.1,99.3,52.1z"/>
<path class="st15" d="M80.6,135.8c-0.1,0-0.1,0-0.2,0c-0.5-0.1-0.9-0.6-0.8-1.2l2.1-11.3c0.1-0.5,0.6-0.9,1.2-0.8
	c0.5,0.1,0.9,0.6,0.8,1.2L81.6,135C81.5,135.5,81.1,135.8,80.6,135.8z"/>
<path class="st15" d="M64.5,123.7c-0.2,0-0.4-0.1-0.6-0.2c-0.5-0.3-0.6-0.9-0.2-1.4l4.1-5.8c0.3-0.5,0.9-0.6,1.4-0.2
	c0.5,0.3,0.6,0.9,0.2,1.4l-4.1,5.8C65.1,123.6,64.8,123.7,64.5,123.7z"/>
<path class="st15" d="M83.7,52.3c-0.4,0-0.8-0.3-1-0.7l-1.9-7.2c-0.1-0.5,0.2-1.1,0.7-1.2c0.5-0.1,1.1,0.2,1.2,0.7l1.9,7.2
	c0.1,0.5-0.2,1.1-0.7,1.2C83.9,52.3,83.8,52.3,83.7,52.3z"/>
<path class="st15" d="M101.1,131.8c-0.4,0-0.8-0.3-1-0.7l-1.8-6.9c-0.1-0.5,0.2-1.1,0.7-1.2c0.5-0.1,1.1,0.2,1.2,0.7l1.8,6.9
	c0.1,0.5-0.2,1.1-0.7,1.2C101.3,131.8,101.2,131.8,101.1,131.8z"/>
<path class="st15" d="M118.5,123.7c-0.3,0-0.6-0.1-0.8-0.4l-4.6-5.5c-0.4-0.4-0.3-1.1,0.1-1.4c0.4-0.4,1.1-0.3,1.4,0.1l4.6,5.5
	c0.4,0.4,0.3,1.1-0.1,1.4C119,123.6,118.8,123.7,118.5,123.7z"/>
<path class="st15" d="M106.4,55.3c-0.1,0-0.3,0-0.4-0.1c-0.5-0.2-0.7-0.8-0.5-1.3l7-15c0.2-0.5,0.8-0.7,1.3-0.5
	c0.5,0.2,0.7,0.8,0.5,1.3l-7,15C107.1,55.1,106.8,55.3,106.4,55.3z"/>
<path class="st15" d="M68,137.5c-0.1,0-0.3,0-0.4-0.1c-0.5-0.2-0.7-0.8-0.5-1.3l7-15c0.2-0.5,0.8-0.7,1.3-0.5s0.7,0.8,0.5,1.3l-7,15
	C68.8,137.3,68.4,137.5,68,137.5z"/>
<path class="st15" d="M75.1,55.3c-0.4,0-0.7-0.2-0.9-0.6l-7-15c-0.2-0.5,0-1.1,0.5-1.3c0.5-0.2,1.1,0,1.3,0.5l7,15
	c0.2,0.5,0,1.1-0.5,1.3C75.3,55.2,75.2,55.3,75.1,55.3z"/>
<path class="st15" d="M113.4,137.5c-0.4,0-0.7-0.2-0.9-0.6l-7-15c-0.2-0.5,0-1.1,0.5-1.3c0.5-0.2,1.1,0,1.3,0.5l7,15
	c0.2,0.5,0,1.1-0.5,1.3C113.7,137.5,113.5,137.5,113.4,137.5z"/>
<path class="st2" d="M93.4,114.9c-6.1,0-11.9-1.8-16.8-5.2c-6.4-4.4-13.9-7.2-21.8-8.1l-0.4,0c-3.5-0.4-6.2-3.2-6.2-6.6V79.8
	c0-3.6,3.1-6.6,6.8-6.6c7.2,0,14.2-2.4,19.6-6.9c5.6-4.6,12.7-6.9,20.1-6.6c13.5,0.6,24.8,10.1,27,22.7c0.4,2.3,1.6,4.9,2.9,6.2
	c0.4,0.4,0.4,1,0,1.4c-0.4,0.4-1,0.4-1.4,0c-1.6-1.6-3-4.5-3.4-7.2c-2.1-11.6-12.6-20.5-25.2-21c-6.9-0.3-13.5,1.9-18.7,6.2
	c-5.7,4.7-13.1,7.3-20.8,7.3c-2.7,0-4.9,2.1-4.9,4.6v15.3c0,2.3,1.9,4.3,4.4,4.6l0.4,0c8.2,0.9,16.1,3.8,22.7,8.4
	c4.6,3.2,10,4.8,15.7,4.8c9.7,0,18.6-5,23.4-13.1c0.1-0.2,2.6-4.5,3.7-5.6c0.4-0.4,1-0.4,1.4,0c0.4,0.4,0.4,1,0,1.4
	c-0.7,0.7-2.6,3.8-3.4,5.2C113.4,109.6,103.8,114.9,93.4,114.9z"/>
</svg>
