<?xml version="1.0" encoding="utf-8"?>
<!-- Generator: Adobe Illustrator 24.1.2, SVG Export Plug-In . SVG Version: 6.00 Build 0)  -->
<svg version="1.1" id="Layer_1" xmlns="http://www.w3.org/2000/svg" xmlns:xlink="http://www.w3.org/1999/xlink" x="0px" y="0px"
	 viewBox="0 0 174 174" style="enable-background:new 0 0 174 174;" xml:space="preserve">
<style type="text/css">
	.st0{fill:#0047BF;}
	.st1{fill:#003FC1;}
	.st2{fill:#FFFFFF;}
	.st3{fill:none;stroke:#96D5CE;stroke-width:2;stroke-linecap:round;stroke-linejoin:round;stroke-miterlimit:10;}
	.st4{fill:none;stroke:#FF704C;stroke-width:2;stroke-linecap:round;stroke-linejoin:round;stroke-miterlimit:10;}
	.st5{fill:none;stroke:#FFFFFF;stroke-width:2;stroke-linecap:round;stroke-linejoin:round;stroke-miterlimit:10;}
	.st6{fill:none;stroke:#FF804C;stroke-width:2;stroke-linecap:round;stroke-linejoin:round;stroke-miterlimit:10;}
	.st7{fill:none;stroke:#0047BF;stroke-width:2;stroke-linecap:round;stroke-linejoin:round;stroke-miterlimit:10;}
	.st8{fill:#F1D439;}
	.st9{fill:#0047BF;stroke:#BEC8C8;stroke-width:2;stroke-linecap:round;stroke-linejoin:round;stroke-miterlimit:10;}
	.st10{fill:none;stroke:#FF7E51;stroke-width:2;stroke-linecap:round;stroke-linejoin:round;stroke-miterlimit:10;}
	.st11{fill:none;stroke:#A3D5D0;stroke-width:2;stroke-linecap:round;stroke-linejoin:round;stroke-miterlimit:10;}
	.st12{fill:none;stroke:#F1D439;stroke-width:2;stroke-linecap:round;stroke-linejoin:round;stroke-miterlimit:10;}
	.st13{fill:none;stroke:#E2E6E6;stroke-width:2;stroke-linecap:round;stroke-linejoin:round;stroke-miterlimit:10;}
	.st14{fill:#A3D5D0;}
	.st15{fill:#FF804C;}
	.st16{fill:none;stroke:#BEC8C8;stroke-width:2;stroke-linecap:round;stroke-linejoin:round;stroke-miterlimit:10;}
	.st17{fill:#0047BF;stroke:#0047BF;stroke-width:2;stroke-linecap:round;stroke-linejoin:round;stroke-miterlimit:10;}
	.st18{fill:#FF704C;}
	.st19{fill:none;}
	.st20{fill:#0041BD;}
	.st21{fill:none;stroke:#FFFFFF;stroke-width:1.5;stroke-linecap:round;stroke-linejoin:round;stroke-miterlimit:10;}
	.st22{fill:#0041BD;stroke:#A3D5D0;stroke-width:1.5;stroke-linecap:round;stroke-linejoin:round;stroke-miterlimit:10;}
	.st23{fill:#0041BD;stroke:#FFFFFF;stroke-width:2;stroke-linecap:round;stroke-linejoin:round;stroke-miterlimit:10;}
	.st24{fill:#0041BD;stroke:#FF804C;stroke-width:2;stroke-linecap:round;stroke-linejoin:round;stroke-miterlimit:10;}
	.st25{fill:#0041BD;stroke:#A3D5D0;stroke-width:2;stroke-linecap:round;stroke-linejoin:round;stroke-miterlimit:10;}
	.st26{fill:#0041BD;stroke:#F1D439;stroke-width:2;stroke-linecap:round;stroke-linejoin:round;stroke-miterlimit:10;}
	.st27{fill:#FF804C;stroke:#FF804C;stroke-width:2;stroke-linecap:round;stroke-linejoin:round;stroke-miterlimit:10;}
	.st28{fill:none;stroke:#FFFFFF;stroke-width:2.5;stroke-linecap:round;stroke-linejoin:round;stroke-miterlimit:10;}
	.st29{fill:#0041BD;stroke:#FF804C;stroke-width:1.5;stroke-linecap:round;stroke-linejoin:round;stroke-miterlimit:10;}
	.st30{fill:none;stroke:#FF704C;stroke-width:1.5;stroke-linecap:round;stroke-linejoin:round;stroke-miterlimit:10;}
	.st31{fill:none;stroke:#FF804C;stroke-width:1.5;stroke-linecap:round;stroke-linejoin:round;stroke-miterlimit:10;}
	.st32{fill:none;stroke:#A3D5D0;stroke-width:1.4377;stroke-linecap:round;stroke-linejoin:round;stroke-miterlimit:10;}
	.st33{fill:#0041BD;stroke:#F1D439;stroke-width:1.5;stroke-linecap:round;stroke-linejoin:round;stroke-miterlimit:10;}
	.st34{fill:none;stroke:#F1D439;stroke-width:1.5;stroke-linecap:round;stroke-linejoin:round;stroke-miterlimit:10;}
	.st35{fill:none;stroke:#A3D5D0;stroke-width:1.5;stroke-linecap:round;stroke-linejoin:round;stroke-miterlimit:10;}
	.st36{fill:none;stroke:#96D5CE;stroke-width:1.4377;stroke-linecap:round;stroke-linejoin:round;stroke-miterlimit:10;}
	.st37{fill:none;stroke:#0047BF;stroke-width:1.5;stroke-linecap:round;stroke-linejoin:round;stroke-miterlimit:10;}
	.st38{fill:#0047BF;stroke:#FF704C;stroke-width:2;stroke-linecap:round;stroke-linejoin:round;stroke-miterlimit:10;}
	.st39{fill:#0047BF;stroke:#FF804C;stroke-width:2;stroke-linecap:round;stroke-linejoin:round;stroke-miterlimit:10;}
	.st40{fill:#0047BF;stroke:#E2E6E6;stroke-width:2;stroke-linecap:round;stroke-linejoin:round;stroke-miterlimit:10;}
	.st41{fill:#0047BF;stroke:#A3D5D0;stroke-width:2;stroke-linecap:round;stroke-linejoin:round;stroke-miterlimit:10;}
	.st42{fill:#0047BF;stroke:#F1D439;stroke-width:2;stroke-linecap:round;stroke-linejoin:round;stroke-miterlimit:10;}
	.st43{fill:#0041BD;stroke:#E2E6E6;stroke-width:2;stroke-linecap:round;stroke-linejoin:round;stroke-miterlimit:10;}
	.st44{fill:#E2E6E6;}
	.st45{fill:none;stroke:#0047BF;stroke-width:1.4377;stroke-linecap:round;stroke-linejoin:round;stroke-miterlimit:10;}
	.st46{fill:#0047BF;stroke:#A3D5D0;stroke-width:1.5;stroke-linecap:round;stroke-linejoin:round;stroke-miterlimit:10;}
	.st47{fill:none;stroke:#E2E6E6;stroke-width:1.5;stroke-linecap:round;stroke-linejoin:round;stroke-miterlimit:10;}
	.st48{fill:#0047BF;stroke:#FF704C;stroke-width:1.5;stroke-linecap:round;stroke-linejoin:round;stroke-miterlimit:10;}
	.st49{fill:#0047BF;stroke:#FF804C;stroke-width:1.5;stroke-linecap:round;stroke-linejoin:round;stroke-miterlimit:10;}
	.st50{fill:#0047BF;stroke:#F1D439;stroke-width:1.5;stroke-linecap:round;stroke-linejoin:round;stroke-miterlimit:10;}
	.st51{fill:#0041BD;stroke:#0047BF;stroke-width:2;stroke-linecap:round;stroke-linejoin:round;stroke-miterlimit:10;}
	
		.st52{fill:none;stroke:#FFFFFF;stroke-width:2;stroke-linecap:round;stroke-linejoin:round;stroke-miterlimit:10;stroke-dasharray:15,5;}
	.st53{fill:#1B3570;}
	.st54{fill:#B5C0C0;}
	.st55{fill:#0047BF;stroke:#B5C0C0;stroke-width:2;stroke-linecap:round;stroke-linejoin:round;stroke-miterlimit:10;}
	.st56{fill:none;stroke:#B5C0C0;stroke-width:2;stroke-linecap:round;stroke-linejoin:round;stroke-miterlimit:10;}
	.st57{fill:#0047BF;stroke:#96D5CE;stroke-width:2;stroke-linecap:round;stroke-linejoin:round;stroke-miterlimit:10;}
	.st58{fill:#96D5CE;}
	.st59{fill:#FF7E51;}
	.st60{fill:#0B0069;}
	.st61{fill:#0047BF;stroke:#FFFFFF;stroke-width:2;stroke-linecap:round;stroke-linejoin:round;stroke-miterlimit:10;}
	.st62{fill:none;stroke:#FF7E51;stroke-width:1.5;stroke-linecap:round;stroke-linejoin:round;stroke-miterlimit:10;}
	.st63{fill:#0B0069;stroke:#FFFFFF;stroke-width:1.5;stroke-linecap:round;stroke-linejoin:round;stroke-miterlimit:10;}
</style>
<g>
	<path class="st2" d="M71.6,115.1c-0.2-0.9-0.5-1.8-0.8-2.7l-3.2,6.2c-0.3,0.5-0.1,1.1,0.4,1.3c0.1,0.1,0.3,0.1,0.5,0.1
		c0.4,0,0.7-0.2,0.9-0.5L71.6,115.1C71.6,115.1,71.6,115.1,71.6,115.1z"/>
	<path class="st2" d="M98.8,60.6c-0.5-0.3-1.1-0.1-1.3,0.4l-21.3,40.9c0,0,0,0,0,0c0.4,0.3,0.8,0.4,1.2,0.6c0.2,0.1,0.4,0.2,0.6,0.4
		l21.3-41C99.5,61.4,99.3,60.8,98.8,60.6z"/>
	<path class="st2" d="M101.9,72.5c0.7-0.3,1.4-0.6,2.2-0.8c0.1,0,0.1,0,0.2,0l3.1-5.9c-0.6-0.4-1.1-0.7-1.7-1l-4.1,7.9
		C101.6,72.7,101.8,72.6,101.9,72.5z"/>
	<path class="st2" d="M94.9,85.8c-0.1,0-0.1,0-0.2-0.1L92,90.9c0.8-0.6,1.7-1,2.6-1.3c0.1,0,0.3,0,0.4,0l1.8-3.4
		C96.1,86.1,95.5,86,94.9,85.8z"/>
	<path class="st2" d="M88.9,96.9l-13.7,26.4c-0.3,0.5-0.1,1.1,0.4,1.3c0.1,0.1,0.3,0.1,0.5,0.1c0.4,0,0.7-0.2,0.9-0.5l12.8-24.5
		C89.2,98.9,88.9,97.9,88.9,96.9z"/>
	<path class="st2" d="M66.4,105.4c0,0,0-0.1,0-0.1c0,0,0,0,0,0c0-0.1,0-0.1-0.1-0.2c-0.1-0.3-0.3-0.6-0.4-0.9
		c-0.2-0.4-0.3-0.7-0.5-1.1l-4.1,8c-0.3,0.5-0.1,1.1,0.4,1.3c0.1,0.1,0.3,0.1,0.5,0.1c0.4,0,0.7-0.2,0.9-0.5L66.4,105.4
		C66.4,105.5,66.4,105.5,66.4,105.4z"/>
	<path class="st2" d="M86.1,65.5c-0.5-0.3-1.1-0.1-1.3,0.4L68.7,96.8c0.6,0.3,1.2,0.7,1.7,1l16.1-30.9
		C86.8,66.4,86.6,65.8,86.1,65.5z"/>
	<path class="st2" d="M60.8,94.1c-0.2-0.2-0.4-0.4-0.5-0.6l-3.5,6.7c-0.3,0.5-0.1,1.1,0.4,1.3c0.1,0.1,0.3,0.1,0.5,0.1
		c0.4,0,0.7-0.2,0.9-0.5l3.2-6.2C61.5,94.7,61.1,94.4,60.8,94.1z"/>
	<path class="st2" d="M120.2,97.4c-0.1-0.2-0.2-0.4-0.2-0.6c0,0,0-0.1-0.1-0.2c0,0-0.1-0.1-0.1-0.1c0-0.1-0.1-0.2-0.1-0.3
		c0,0,0,0,0,0l-13.1,25.2c-0.3,0.5-0.1,1.1,0.4,1.3c0.1,0.1,0.3,0.1,0.5,0.1c0.4,0,0.7-0.2,0.9-0.5l12.4-23.9
		C120.5,98.1,120.3,97.8,120.2,97.4z"/>
	<path class="st2" d="M99.8,116.8c-0.3,0-0.6-0.2-0.8-0.4l-5,9.6c-0.3,0.5-0.1,1.1,0.4,1.3c0.1,0.1,0.3,0.1,0.5,0.1
		c0.4,0,0.7-0.2,0.9-0.5l5.3-10.2C100.7,116.8,100.2,116.8,99.8,116.8z"/>
	<path class="st2" d="M97.4,104.1c-0.1-0.3,0-0.5,0.1-0.7c0,0,0,0.1-0.1,0.1c0-0.1,0.1-0.2,0.1-0.3c0,0,0,0,0,0c0,0,0,0,0,0
		c0,0,0,0,0-0.1c0,0-0.1-0.1-0.1-0.1c-0.2-0.1-0.4-0.2-0.5-0.3c-0.2-0.1-0.4-0.1-0.7-0.2L83.9,126c-0.3,0.5-0.1,1.1,0.4,1.3
		c0.1,0.1,0.3,0.1,0.5,0.1c0.4,0,0.7-0.2,0.9-0.5l11.8-22.7C97.5,104.2,97.4,104.1,97.4,104.1z"/>
	<path class="st2" d="M97.8,103.5c-0.2-0.2-0.4-0.4-0.6-0.6c-0.3-0.2-0.6-0.4-1-0.5c0,0,0,0,0,0L83.9,126c-0.3,0.5-0.1,1.1,0.4,1.3
		c0.1,0.1,0.3,0.1,0.5,0.1c0.4,0,0.7-0.2,0.9-0.5L97.8,103.5C97.8,103.5,97.8,103.5,97.8,103.5z"/>
</g>
<g>
	<path class="st8" d="M77.9,119.8c-0.1,0-0.2,0-0.3,0c-1.1,0-2.5-0.6-3.3-0.9c-1.1-0.5-2.2-1.5-2.9-2.7c-0.7-1.2-1.1-2.6-1.5-4
		c-0.2-0.8-0.5-1.6-0.8-2.3c-0.2-0.6-0.4-0.7-0.8-0.9c-0.3-0.2-0.6-0.4-1.1-0.8c-0.9-0.8-2.1-2.9-2.4-3.7c-0.5-1.1-0.7-2.5-0.3-3.8
		c0-0.1,0.1-0.3,0.2-0.5c0.1-0.3,0.4-1.1,0.4-1.5c-0.1,0-0.2-0.1-0.2-0.1c-0.3-0.2-0.6-0.3-0.9-0.6c-2.9-2.6-4.5-4.3-4.8-5.2
		c-0.4-1.3-2.1-5.6-2.3-6c-0.2-0.5-0.1-1.1,0.4-1.3c0.5-0.3,1.1-0.1,1.3,0.4c0.3,0.6,2,5,2.5,6.3c0.1,0.4,1.2,1.5,2.9,3.1
		c-0.2-0.4-0.5-0.8-0.6-0.9c-1.3-0.9,0.1-5,0.1-5c0.9-2.5,2.5-3.8,4.5-3.7c0-0.1-0.1-0.1-0.1-0.2c-0.5-1.1,0.7-1.8,3.3-3.2
		c0.1-0.1,0.3-0.1,0.4-0.2c-0.2-0.4-0.5-0.9-0.3-1.5c0.1-0.4,0.5-0.8,1-1c2.1-0.9,3.1-0.2,3.7,0.2c0,0,0,0,0,0
		c0.6-1.2,0.7-5.4,0.4-6.7l-0.8-0.1l-2.2,2.3c-0.1,0.1-0.3,0.2-0.5,0.3l-1.4,0.3c-0.3,0.1-0.6,0-0.8-0.2c-0.2-0.2-0.4-0.4-0.4-0.7
		l-0.1-1l-0.5-0.4c-0.2-0.2-0.3-0.4-0.4-0.6l-0.2-1.3c0-0.2,0-0.5,0.1-0.7l0.7-1.3c-0.3,0.2-0.6,0.3-0.9,0.5
		c-0.1,0.1-0.2,0.1-0.3,0.1l-1.3,0.3c-0.5,0.1-1.1-0.2-1.2-0.8c-0.1-0.5,0.2-1.1,0.8-1.2l1.1-0.2c0.8-0.5,2.1-1.2,2.9-1.3
		c0.6,0,1.5,0.5,1.9,0.9c0.4,0.5,0.4,0.9,0.4,1.2c-0.1,0.8-0.9,1-1.5,1.1l-0.7,1.3l0.1,0.6l0.6,0.4c0.2,0.2,0.4,0.5,0.4,0.7l0,0.3
		l2.4-2.5c0.2-0.2,0.6-0.4,0.9-0.3l1.7,0.3c0.3,0,0.7,0.2,1,0.8c0.8,1.5,0.7,7.7-0.6,9.3c0,0-0.1,0.1-0.1,0.1
		c-1.1,0.9-2,0.3-2.4,0.1c-0.3-0.2-0.6-0.4-1.4-0.2c0.2,0.3,0.4,0.8,0.3,1.4c-0.1,0.5-0.3,0.6-1.6,1.4c-0.5,0.3-1.6,0.8-2.2,1.2
		c0.7,2.1,0.5,4.2,0.2,4.7c-0.2,0.3-0.5,0.4-0.9,0.4c-0.3,0-0.6-0.2-0.8-0.5c-0.3-0.6-0.6-1.2-0.8-1.7c-0.1-0.1-0.1-0.3-0.2-0.4
		c-0.4,0.1-0.7,0.3-1.1,0.7c-1.2,1.3-1.6,3.9-1.5,4.6c0.6,0.7,1.3,2,1.7,2.9c0.3,0,0.4,0,0.6-0.1c0.4-0.2,1-0.4,1.8-0.1
		c0.4,0.2,1,0.4,1.5,0.6c1.4,0.5,2.9,1,3.9,1.9c0.7,0.6,1,1.3,1.3,1.8c0.4,0.7,0.6,1.1,1.4,1.4c0.3,0.1,0.5,0.2,0.8,0.3
		c1.1,0.3,2.7,0.8,2.9,2.6c0.1,0.9-0.3,1.6-0.7,2.2c-0.2,0.3-0.4,0.6-0.4,0.8c-0.1,0.7-0.7,1.2-1.3,1.7c-0.2,0.2-0.6,0.5-0.7,0.6
		l-0.2,0.9c-0.4,1.4-1.2,4.4-1.3,5.1c0,0.5,1.3,1.8,2.1,2.2c0.1,0,0.2,0,0.2,0.1c0.2,0.1,0.4,0.3,0.5,0.5c0.1,0.3,0.1,0.6,0,0.8
		C78.6,119.6,78.3,119.8,77.9,119.8z M66.9,97.8c0.4,1-0.1,2.2-0.3,2.9c0,0.1-0.1,0.3-0.1,0.3c-0.2,0.8-0.1,1.7,0.2,2.5
		c0.4,0.9,1.4,2.6,2,3.1c0.3,0.3,0.5,0.4,0.8,0.6c0.6,0.4,1.1,0.8,1.6,1.9c0.3,0.8,0.6,1.7,0.8,2.5c0.4,1.3,0.7,2.5,1.3,3.5
		c0.3,0.4,0.6,0.9,1,1.2c-0.1-0.3-0.2-0.6-0.1-0.9c0.1-0.8,0.7-3.1,1.3-5.5l0.2-0.9c0.2-0.6,0.7-1.1,1.3-1.6
		c0.2-0.2,0.6-0.5,0.7-0.7c0.1-0.5,0.4-0.9,0.6-1.4c0.2-0.4,0.4-0.7,0.4-1c0-0.4-0.4-0.6-1.5-0.9c-0.4-0.1-0.7-0.2-1-0.4
		c-1.5-0.6-1.9-1.5-2.3-2.3c-0.2-0.5-0.5-0.9-0.9-1.3c-0.7-0.6-2-1.1-3.2-1.5c-0.6-0.2-1.2-0.4-1.6-0.6c0,0,0,0,0,0c0,0,0,0,0,0
		C67.6,97.6,67.3,97.7,66.9,97.8z M67.9,97.4L67.9,97.4L67.9,97.4z M64.4,92.6C64.4,92.6,64.4,92.6,64.4,92.6
		C64.4,92.6,64.4,92.6,64.4,92.6z M71.7,82.4L71.7,82.4L71.7,82.4z M75.7,79.9L75.7,79.9L75.7,79.9z M76.8,73.1
		C76.8,73.1,76.8,73.1,76.8,73.1C76.8,73.1,76.8,73.1,76.8,73.1z"/>
</g>
<g>
	<path class="st0" d="M81.4,68.7c0,0,0.9-1.2,1.2-1.3c0.2-0.1,0.5-0.2,0.7-0.4c0.3-0.2,0.6-0.3,1-0.3c0.2,0,0.3,0,0.5-0.1
		c0.2-0.1,0.6-0.2,0.9-0.4c0.3-0.2,0.6-0.3,1-0.3l0.8-0.1c0.6-0.1,1.2-0.3,1.6-0.8c0.2-0.2,0.3-0.5,0.3-0.8
		c-0.2-0.8,0.4-1.2,0.9-1.3c0.4-0.1,2-1.2,1.1-1.6"/>
	<path class="st8" d="M81.4,69.7c-0.2,0-0.4-0.1-0.6-0.2c-0.4-0.3-0.5-1-0.2-1.4c1.1-1.5,1.5-1.6,1.7-1.7c0,0,0.1,0,0.5-0.3
		c0.4-0.3,0.9-0.4,1.4-0.5c0.1,0,0.2,0,0.4-0.1c0,0,0.2,0,0.6-0.3c0.4-0.2,0.9-0.4,1.4-0.4l0.8-0.1c0.4,0,0.8-0.2,1-0.5c0,0,0,0,0,0
		c-0.1-0.5,0-1,0.2-1.4c0.3-0.5,0.8-0.9,1.4-1c0.1,0,0.3-0.1,0.4-0.3c-0.1-0.2-0.1-0.4,0-0.7c0.2-0.5,0.8-0.8,1.3-0.6
		c0.7,0.3,0.9,0.9,0.9,1.3c-0.1,1.1-1.6,2-2.1,2.1c-0.1,0-0.2,0.1-0.2,0.1c0.1,0.4,0.1,1-0.4,1.7c-0.6,0.7-1.4,1.1-2.3,1.2l-0.8,0.1
		c-0.2,0-0.4,0.1-0.6,0.2c-0.5,0.3-0.8,0.4-1.1,0.5c-0.2,0.1-0.4,0.1-0.6,0.1c-0.2,0-0.4,0.1-0.6,0.2c-0.4,0.2-0.6,0.3-0.8,0.4
		c-0.2,0.1-0.5,0.6-0.8,1C82.1,69.6,81.7,69.7,81.4,69.7z M83,68.3C83,68.3,83,68.3,83,68.3C83,68.3,83,68.3,83,68.3z M88.5,64.5
		C88.5,64.5,88.5,64.5,88.5,64.5C88.5,64.5,88.5,64.5,88.5,64.5z"/>
</g>
<g>
	<path class="st8" d="M82.1,68c-0.5-0.5-1.6-1.6-1.8-2.4c-0.1,0.4-0.4,0.7-0.7,0.8c-0.3,0.1-0.7,0.1-1.1,0.1c0.6,1.5,2,2.8,2.2,3
		c0.2,0.2,0.4,0.2,0.7,0.2c0.3,0,0.6-0.1,0.8-0.3C82.6,69,82.5,68.3,82.1,68z"/>
</g>
<g>
	<path class="st8" d="M99.3,118.2c-0.3,0-0.5,0-0.8-0.1c-1.4-0.5-1.6-1.8-1.7-2.7c0-0.3-0.1-0.5-0.2-0.8l-0.1-0.3
		c-0.3-1.1-0.6-2.1-0.2-3.6c0.1-0.5,0.3-0.9,0.5-1.2c0.2-0.5,0.4-0.8,0.3-1.4l0-0.2c-0.4-3.4-0.7-4.4-0.9-4.6
		c-0.4-0.5-0.7-0.5-1.7-0.3c-0.2,0-0.5,0.1-0.7,0.1c-3.3,0.4-4.1-1.4-5.1-3.5c-1.2-2.4-0.7-4.8-0.2-6.6c0.6-2.1,4.9-4.9,7.5-5l0.1,0
		c0,0,0,0,0,0c-1.7,0.1-2.6-0.8-3.2-1.5c0-0.1-1.2-1.6-0.7-3.4c0.2-0.7,0.8-1.8,2.5-2.4c0.3-0.1,0.6-0.1,0.8,0
		c0.3,0.1,0.5,0.2,0.6,0.2c0.1-0.2,0.1-0.5,0.1-0.7c0.1-0.7,0.3-1.5,1-1.9c0.8-0.5,0.9-1.4,0.8-2.7c0-0.7,0-1.4,0.3-2
		c0.1-0.1,0.2-0.2,0.3-0.3c1.1-0.9,4-2.9,6.3-2.5c0.4,0.1,0.9,0.2,1.5,0.4c0.8,0.2,2.4,0.7,2.9,0.6c0.3-0.4,0.3-0.8,0.3-1.5
		c0-0.7,0.1-1.5,0.5-2.1c0.3-0.5,0.9-0.6,1.4-0.2c0.5,0.3,0.6,0.9,0.2,1.4c-0.1,0.2-0.2,0.6-0.2,1.1c0,0.8-0.1,1.9-0.9,2.8
		c-0.9,1.1-2.8,0.5-4.9-0.1c-0.5-0.1-1-0.3-1.3-0.3c-1-0.2-2.7,0.6-4.4,1.9c0,0.2,0,0.6,0,0.9c0,1.3,0.1,3.3-1.8,4.4
		c0,0.1-0.1,0.4-0.1,0.6c-0.1,0.7-0.3,1.7-1.2,2.1c-0.7,0.3-1.5,0.1-2-0.1c-0.5,0.3-0.8,0.6-0.9,0.9c-0.2,0.7,0.3,1.5,0.4,1.7
		c0.8,1.1,2.4,0.9,4.6-0.6c0.2-0.2,0.7-0.5,1.3-0.1c2.1,1.4,3.2,3.3,3.3,3.4c0,0,0,0.1,0.1,0.1c0.6,1.7,0.4,3.1-0.5,3.7
		c-1,0.6-2.4,0-4-1.8c-1.1-0.5-2.2-0.2-2.7-0.1c-0.2,0.1-0.3,0.1-0.5,0.1c-2,0-5.4,2.5-5.7,3.6c-0.6,2.2-0.6,3.7,0.1,5.2
		c1,2.1,1.3,2.5,3.1,2.3c0.2,0,0.4-0.1,0.6-0.1c1-0.2,2.5-0.4,3.6,1.1c0.6,0.8,0.9,2.8,1.3,5.6l0,0.2c0.1,1.2-0.2,1.9-0.5,2.5
		c-0.1,0.3-0.3,0.5-0.3,0.8c-0.3,1-0.1,1.5,0.2,2.6l0.1,0.3c0.1,0.4,0.1,0.7,0.2,1c0.1,0.9,0.2,1,0.5,1.1c0.2,0.1,1.2-0.2,1.9-0.6
		c0.4-0.2,0.7-0.5,1-0.8c0.2-0.2,0.4-0.4,0.7-0.7c0.1-0.1,0.2-0.2,0.4-0.2c0.2-0.1,0.4-0.1,0.6-0.2c0.1-0.2,0.1-0.4,0.1-0.7
		c0-0.2,0.1-0.4,0.2-0.5c0.4-0.6,1-0.9,1.4-1.1c0.2-0.1,0.4-0.2,0.5-0.3c0.3-0.4,0.4-0.6,0.4-1.1c0-0.3,0.1-0.5,0.1-0.8
		c0.5-2.3,1.7-3.4,3-4.5c0.4-0.4,0.9-0.8,1.3-1.2c0.6-0.7,1.1-1.4,1.4-1.9c-0.4,0.2-1.1,0.4-1.8,0c-1.2-0.6-3.1-3.7-3.1-5
		c0-0.5,0.3-0.9,0.8-1.1c0.7-0.3,1.6,0,3.9,2.2c0.3,0.2,1.3,0.2,1.8,0c-0.8-1.3-2.3-4.2-1.7-5.3c0.1-0.3,0.4-0.4,0.7-0.5
		c1.2-0.3,2.3,0.5,3.1,1c0.2,0.1,0.3,0.2,0.5,0.3c0.2,0.1,0.6,0.3,0.9,0.5c0.6,0.3,1.1,0.6,1.5,0.8c1.7,1.4,3.3,4.9,3.8,6.9
		c0.2,0.5-0.2,1.1-0.7,1.2c-0.5,0.2-1.1-0.2-1.2-0.7c-0.5-1.8-2-4.9-3.2-5.9c-0.2-0.1-0.7-0.4-1.1-0.6c-0.4-0.2-0.8-0.4-1.1-0.6
		c-0.2-0.1-0.4-0.2-0.6-0.4c-0.1-0.1-0.3-0.2-0.5-0.3c0.3,0.8,0.8,1.8,1.3,2.5c0.5,0.7,0.4,1.6-0.3,2.2c-0.4,0.4-1,0.6-1.7,0.7
		c0.3,0.3,0.5,0.6,0.5,1c0.3,1.6-1.6,3.6-2,4c-0.5,0.5-1,0.9-1.4,1.3c-1.2,1.1-2,1.8-2.3,3.5c-0.1,0.2-0.1,0.5-0.1,0.7
		c-0.1,0.6-0.2,1.4-0.9,2.2c-0.4,0.4-0.8,0.6-1.2,0.8c-0.2,0.1-0.3,0.1-0.4,0.2c-0.1,0.6-0.2,1.1-0.5,1.6c-0.1,0.2-0.3,0.4-0.6,0.5
		c-0.3,0.1-0.6,0.2-0.8,0.3c-0.1,0.1-0.3,0.3-0.4,0.4c-0.4,0.4-0.8,0.8-1.4,1.2C101.9,117.4,100.5,118.2,99.3,118.2z M110.9,99.4
		c0.1,0.1,0.2,0.2,0.3,0.3c0.1,0,0.1,0,0.2-0.1C111.2,99.5,111,99.5,110.9,99.4z M98,87.6c0.7,0,1.5,0.1,2.4,0.5
		c0.1,0.1,0.2,0.1,0.3,0.3c0.7,0.9,1.2,1.2,1.5,1.4c0-0.2,0-0.6-0.2-1c-0.2-0.3-0.9-1.4-2-2.3c-0.9,0.6-1.8,1-2.5,1.2
		C97.7,87.6,97.8,87.6,98,87.6z"/>
</g>
<path class="st2" d="M124.5,93.6c-0.9-17.7-14.6-32.9-32.1-34.2c-0.5,0.7-1,1.4-1.7,1.9c17.6,0.3,31.8,14.7,31.8,32.3
	c0,17.8-14.5,32.3-32.3,32.3s-32.3-14.5-32.3-32.3c0-10.3,4.9-19.5,12.4-25.4c-0.8-0.1-1.6-0.4-2.2-0.8
	c-7.4,6.3-12.1,15.8-12.1,26.3c0,18.9,15.4,34.3,34.3,34.3S125.5,112.5,124.5,93.6z"/>
<g id="OVDakJ_1_">
	<g>
		<g>
			<path class="st8" d="M86.2,76.8c-0.8,0-1.5-0.2-2-0.7c-0.3-0.3-0.4-0.8-0.3-1.2c-0.5-0.1-1.2-0.3-1.2-1.1c0-0.1,0-0.2,0-0.3
				c-0.2-0.2-0.3-0.4-0.3-0.7c0-0.4,0.2-0.8,0.6-1c0,0,0-0.1,0-0.1c0.1-0.2,0.2-0.5,0.5-0.7c0.1-0.1,0.2-0.3,0.3-0.4
				c0.8-0.6,1.6,0.1,1.9,0.5c0.1,0,0.1,0,0.2,0c0.1,0,0.2,0,0.3,0c0.1,0,0.2-0.1,0.2-0.1c0.3-0.1,0.5,0,0.7,0c0.1,0,0.2,0,0.3,0
				c0.1-0.2,0.3-0.5,0.7-0.6c0.4-0.1,0.7,0,1,0.2c0.4-0.1,0.8,0.1,0.9,0.2c0.2,0.2,0.4,0.4,0.4,0.7c0,0.1,0,0.2,0,0.4
				c0.3,0.3,0.8,0.7,0.8,1.5c0,0,0,0.1,0,0.1c-0.1,1.3-1.3,2.4-3.1,3C87.8,76.6,87,76.8,86.2,76.8z M84.2,74.9
				C84.2,74.9,84.2,74.9,84.2,74.9C84.2,74.9,84.2,74.9,84.2,74.9z M86,74.8c0.6,0,1.7-0.1,2.5-0.6c0.2-0.1,0.6-0.4,0.8-0.7
				c0,0-0.1-0.1-0.1-0.1c-0.2-0.1-0.3-0.3-0.5-0.5c-0.1,0.1-0.3,0.1-0.4,0.1c-0.1,0.2-0.3,0.3-0.4,0.4c-0.2,0.1-0.5,0.2-0.8,0
				c-0.2,0.1-0.3,0.1-0.4,0.1c0,0,0,0,0,0c-0.1,0.1-0.1,0.1-0.2,0.1c-0.2,0.1-0.3,0.2-0.5,0.2c0,0.1-0.1,0.1-0.1,0.2
				c0,0,0,0.1,0,0.1C86,74.4,86,74.6,86,74.8z M84.3,74.1L84.3,74.1L84.3,74.1z M90.4,73.4L90.4,73.4L90.4,73.4z"/>
		</g>
	</g>
</g>
<g>
	<path class="st14" d="M69.1,69c-2.7,0-8.1-0.4-11.6-1.7C57,67,56.7,66.5,57,65.9c0.2-0.5,0.8-0.8,1.3-0.6c3.1,1.2,8.7,1.7,11.4,1.6
		c4.5-0.1,8.9-1.1,13-2.9c3.3-1.4,6.3-3.3,9-5.5c5-4.2,9-9.4,12.2-15.9c0.2-0.4,0.4-0.8,0.6-1.3c-0.2,0-0.4,0-0.5,0
		c-0.8,0-1.7,0-2.6-0.1c-2.2-0.3-4.5-0.7-6.7-1c-1.6-0.2-3.1-0.5-4.7-0.7c-3.3-0.5-6.1-0.6-8.8-0.4c-5.2,0.5-9.8,2.6-13.7,6.3
		c-3.7,3.6-6,7.6-6.9,12.3c-0.2,0.9-0.8,4.6-1,5.5c-0.1,0.5-0.6,0.9-1.1,0.9c-0.5-0.1-0.9-0.6-0.9-1.1c0.1-0.9,0.8-4.6,1-5.6
		c1-5.1,3.6-9.6,7.5-13.4c4.2-4,9.2-6.3,14.9-6.8c2.8-0.3,5.8-0.1,9.2,0.4c1.6,0.2,3.2,0.5,4.7,0.7c2.2,0.3,4.4,0.7,6.7,1
		c0.8,0.1,1.5,0.1,2.4,0.1c0.4,0,0.8,0,1.2,0l0.9,0c0.3,0,0.6,0.2,0.8,0.5c0.2,0.3,0.2,0.6,0.1,0.9c-0.1,0.3-0.3,0.6-0.4,0.9
		c-0.3,0.6-0.5,1.2-0.8,1.8c-3.3,6.8-7.4,12.2-12.7,16.5c-2.8,2.4-6,4.3-9.5,5.8c-4.3,1.9-8.9,2.9-13.7,3C69.5,69,69.3,69,69.1,69z"
		/>
</g>
<path class="st14" d="M54.2,70.2c-0.1,0-0.3,0-0.4-0.1l-0.5-0.2c-1.7-0.7-4.5-1.8-6.5-3.6c-3.2-3-4.9-6.8-5.1-11.2
	c-0.1-2.6,0.6-5.3,2-8c0.7-1.3,1.4-2.5,2.1-3.8c0.5-0.9,1.1-1.8,1.6-2.8c0.4-0.7,0.8-1.5,1.2-2.3c0.2-0.4,0.4-0.8,0.6-1.2
	c0.1-0.3,0.4-0.5,0.7-0.5c0.3-0.1,0.6,0.1,0.9,0.3c5.3,5.3,8.1,11.1,8.7,17.6c0.4,4.4-1.8,12.9-4.4,15.3C55,70,54.8,70,54.7,70.1
	C54.5,70.2,54.3,70.2,54.2,70.2z M50.6,52.7c0.5,0,1,0.4,1,1c0.2,6.2,1.2,10.6,3,13.8c1.7-2.6,3.4-8.7,3-12.6
	C57,49.1,54.7,44,50.4,39.4c-0.4,0.8-0.7,1.5-1.1,2.3c-0.5,0.9-1.1,1.9-1.6,2.8c-0.7,1.2-1.4,2.4-2.1,3.7c-1.3,2.4-1.9,4.7-1.8,7
	c0.2,3.8,1.7,7.1,4.4,9.8c1.1,1,2.7,1.8,4.1,2.5c-1.6-3.3-2.5-7.8-2.7-13.6C49.5,53.1,50,52.7,50.6,52.7
	C50.5,52.7,50.5,52.7,50.6,52.7z"/>
<path class="st14" d="M90.2,137.1c-5.4,0-10.8-1-15.9-3C52,125.3,41,100,49.7,77.7c2.6-6.6,6.7-12.4,12-17
	c5.3-4.6,11.8-7.9,18.6-9.4c0.5-0.1,1.1,0.2,1.2,0.7c0.1,0.5-0.2,1.1-0.7,1.2c-6.5,1.5-12.7,4.6-17.8,9c-5.1,4.4-9,10-11.5,16.2
	c-8.4,21.3,2.1,45.4,23.4,53.7c10.3,4,21.6,3.8,31.7-0.6c10.1-4.4,18-12.5,22-22.8c8.4-21.3-2.1-45.4-23.4-53.7
	c-2-0.8-4.1-1.4-6.2-1.9c-0.5-0.1-0.9-0.7-0.8-1.2c0.1-0.5,0.6-0.9,1.2-0.8c2.2,0.5,4.4,1.2,6.5,2c22.3,8.8,33.3,34,24.5,56.3
	c-4.2,10.8-12.4,19.3-23.1,23.9C101.9,135.9,96.1,137.1,90.2,137.1z"/>
</svg>
