<?xml version="1.0" encoding="utf-8"?>
<!-- Generator: Adobe Illustrator 24.1.2, SVG Export Plug-In . SVG Version: 6.00 Build 0)  -->
<svg version="1.1" id="Layer_1" xmlns="http://www.w3.org/2000/svg" xmlns:xlink="http://www.w3.org/1999/xlink" x="0px" y="0px"
	 viewBox="0 0 174 174.3" style="enable-background:new 0 0 174 174.3;" xml:space="preserve">
<style type="text/css">
	.st0{fill:#0047BF;}
	.st1{fill:#003FC1;}
	.st2{fill:#FFFFFF;}
	.st3{fill:none;stroke:#96D5CE;stroke-width:2;stroke-linecap:round;stroke-linejoin:round;stroke-miterlimit:10;}
	.st4{fill:none;stroke:#FF704C;stroke-width:2;stroke-linecap:round;stroke-linejoin:round;stroke-miterlimit:10;}
	.st5{fill:none;stroke:#FFFFFF;stroke-width:2;stroke-linecap:round;stroke-linejoin:round;stroke-miterlimit:10;}
	.st6{fill:none;stroke:#FF804C;stroke-width:2;stroke-linecap:round;stroke-linejoin:round;stroke-miterlimit:10;}
	.st7{fill:none;stroke:#0047BF;stroke-width:2;stroke-linecap:round;stroke-linejoin:round;stroke-miterlimit:10;}
	.st8{fill:#F1D439;}
	.st9{fill:#0047BF;stroke:#BEC8C8;stroke-width:2;stroke-linecap:round;stroke-linejoin:round;stroke-miterlimit:10;}
	.st10{fill:none;stroke:#FF7E51;stroke-width:2;stroke-linecap:round;stroke-linejoin:round;stroke-miterlimit:10;}
	.st11{fill:none;stroke:#A3D5D0;stroke-width:2;stroke-linecap:round;stroke-linejoin:round;stroke-miterlimit:10;}
	.st12{fill:none;stroke:#F1D439;stroke-width:2;stroke-linecap:round;stroke-linejoin:round;stroke-miterlimit:10;}
	.st13{fill:none;stroke:#E2E6E6;stroke-width:2;stroke-linecap:round;stroke-linejoin:round;stroke-miterlimit:10;}
	.st14{fill:#A3D5D0;}
	.st15{fill:#FF804C;}
	.st16{fill:none;stroke:#BEC8C8;stroke-width:2;stroke-linecap:round;stroke-linejoin:round;stroke-miterlimit:10;}
	.st17{fill:#0047BF;stroke:#0047BF;stroke-width:2;stroke-linecap:round;stroke-linejoin:round;stroke-miterlimit:10;}
	.st18{fill:#FF704C;}
	.st19{fill:none;}
	.st20{fill:#0041BD;}
	.st21{fill:none;stroke:#FFFFFF;stroke-width:1.5;stroke-linecap:round;stroke-linejoin:round;stroke-miterlimit:10;}
	.st22{fill:#0041BD;stroke:#A3D5D0;stroke-width:1.5;stroke-linecap:round;stroke-linejoin:round;stroke-miterlimit:10;}
	.st23{fill:#0041BD;stroke:#FFFFFF;stroke-width:2;stroke-linecap:round;stroke-linejoin:round;stroke-miterlimit:10;}
	.st24{fill:#0041BD;stroke:#FF804C;stroke-width:2;stroke-linecap:round;stroke-linejoin:round;stroke-miterlimit:10;}
	.st25{fill:#0041BD;stroke:#A3D5D0;stroke-width:2;stroke-linecap:round;stroke-linejoin:round;stroke-miterlimit:10;}
	.st26{fill:#0041BD;stroke:#F1D439;stroke-width:2;stroke-linecap:round;stroke-linejoin:round;stroke-miterlimit:10;}
	.st27{fill:#FF804C;stroke:#FF804C;stroke-width:2;stroke-linecap:round;stroke-linejoin:round;stroke-miterlimit:10;}
	.st28{fill:none;stroke:#FFFFFF;stroke-width:2.5;stroke-linecap:round;stroke-linejoin:round;stroke-miterlimit:10;}
	.st29{fill:#0041BD;stroke:#FF804C;stroke-width:1.5;stroke-linecap:round;stroke-linejoin:round;stroke-miterlimit:10;}
	.st30{fill:none;stroke:#FF704C;stroke-width:1.5;stroke-linecap:round;stroke-linejoin:round;stroke-miterlimit:10;}
	.st31{fill:none;stroke:#FF804C;stroke-width:1.5;stroke-linecap:round;stroke-linejoin:round;stroke-miterlimit:10;}
	.st32{fill:none;stroke:#A3D5D0;stroke-width:1.4377;stroke-linecap:round;stroke-linejoin:round;stroke-miterlimit:10;}
	.st33{fill:#0041BD;stroke:#F1D439;stroke-width:1.5;stroke-linecap:round;stroke-linejoin:round;stroke-miterlimit:10;}
	.st34{fill:none;stroke:#F1D439;stroke-width:1.5;stroke-linecap:round;stroke-linejoin:round;stroke-miterlimit:10;}
	.st35{fill:none;stroke:#A3D5D0;stroke-width:1.5;stroke-linecap:round;stroke-linejoin:round;stroke-miterlimit:10;}
	.st36{fill:none;stroke:#96D5CE;stroke-width:1.4377;stroke-linecap:round;stroke-linejoin:round;stroke-miterlimit:10;}
	.st37{fill:none;stroke:#0047BF;stroke-width:1.5;stroke-linecap:round;stroke-linejoin:round;stroke-miterlimit:10;}
	.st38{fill:#0047BF;stroke:#FF704C;stroke-width:2;stroke-linecap:round;stroke-linejoin:round;stroke-miterlimit:10;}
	.st39{fill:#0047BF;stroke:#FF804C;stroke-width:2;stroke-linecap:round;stroke-linejoin:round;stroke-miterlimit:10;}
	.st40{fill:#0047BF;stroke:#E2E6E6;stroke-width:2;stroke-linecap:round;stroke-linejoin:round;stroke-miterlimit:10;}
	.st41{fill:#0047BF;stroke:#A3D5D0;stroke-width:2;stroke-linecap:round;stroke-linejoin:round;stroke-miterlimit:10;}
	.st42{fill:#0047BF;stroke:#F1D439;stroke-width:2;stroke-linecap:round;stroke-linejoin:round;stroke-miterlimit:10;}
	.st43{fill:#0041BD;stroke:#E2E6E6;stroke-width:2;stroke-linecap:round;stroke-linejoin:round;stroke-miterlimit:10;}
	.st44{fill:#E2E6E6;}
	.st45{fill:none;stroke:#0047BF;stroke-width:1.4377;stroke-linecap:round;stroke-linejoin:round;stroke-miterlimit:10;}
	.st46{fill:#0047BF;stroke:#A3D5D0;stroke-width:1.5;stroke-linecap:round;stroke-linejoin:round;stroke-miterlimit:10;}
	.st47{fill:none;stroke:#E2E6E6;stroke-width:1.5;stroke-linecap:round;stroke-linejoin:round;stroke-miterlimit:10;}
	.st48{fill:#0047BF;stroke:#FF704C;stroke-width:1.5;stroke-linecap:round;stroke-linejoin:round;stroke-miterlimit:10;}
	.st49{fill:#0047BF;stroke:#FF804C;stroke-width:1.5;stroke-linecap:round;stroke-linejoin:round;stroke-miterlimit:10;}
	.st50{fill:#0047BF;stroke:#F1D439;stroke-width:1.5;stroke-linecap:round;stroke-linejoin:round;stroke-miterlimit:10;}
	.st51{fill:#0041BD;stroke:#0047BF;stroke-width:2;stroke-linecap:round;stroke-linejoin:round;stroke-miterlimit:10;}
	
		.st52{fill:none;stroke:#FFFFFF;stroke-width:2;stroke-linecap:round;stroke-linejoin:round;stroke-miterlimit:10;stroke-dasharray:15,5;}
	.st53{fill:#1B3570;}
	.st54{fill:#B5C0C0;}
	.st55{fill:#0047BF;stroke:#B5C0C0;stroke-width:2;stroke-linecap:round;stroke-linejoin:round;stroke-miterlimit:10;}
	.st56{fill:none;stroke:#B5C0C0;stroke-width:2;stroke-linecap:round;stroke-linejoin:round;stroke-miterlimit:10;}
	.st57{fill:#0047BF;stroke:#96D5CE;stroke-width:2;stroke-linecap:round;stroke-linejoin:round;stroke-miterlimit:10;}
	.st58{fill:#96D5CE;}
	.st59{fill:#FF7E51;}
	.st60{fill:#0B0069;}
	.st61{fill:#0047BF;stroke:#FFFFFF;stroke-width:2;stroke-linecap:round;stroke-linejoin:round;stroke-miterlimit:10;}
	.st62{fill:none;stroke:#FF7E51;stroke-width:1.5;stroke-linecap:round;stroke-linejoin:round;stroke-miterlimit:10;}
	.st63{fill:#0B0069;stroke:#FFFFFF;stroke-width:1.5;stroke-linecap:round;stroke-linejoin:round;stroke-miterlimit:10;}
</style>
<path class="st2" d="M83.1,116.6v4.8c0,4.4-3.6,8-8,8H62.2c-0.6,0-1,0.4-1,1V141l-8.4-11.2c-0.2-0.3-0.5-0.4-0.8-0.4h-7.9
	c-4.4,0-8-3.6-8-8v-24c0-4.4,3.6-8,8-8h8.3v-2h-8.3c-5.5,0-10,4.5-10,10v24c0,5.5,4.5,10,10,10h7.4l9.9,13.2
	c0.2,0.3,0.5,0.4,0.8,0.4c0.1,0,0.2,0,0.3-0.1c0.4-0.1,0.7-0.5,0.7-0.9v-12.6h11.9c5.5,0,10-4.5,10-10v-4.8H83.1z"/>
<g>
	<path class="st8" d="M126.5,60H79.4c-0.1,0.1-0.1,0.2-0.2,0.3c-0.1,0.1-0.1,0.2-0.1,0.4c0,0-0.1,0.4-0.1,0.2
		c-0.1,0.3-0.1,0.7-0.1,1.1h47.6c7.9,0,14.3,6.4,14.3,14.3v24.8c0,7.9-6.4,14.3-14.3,14.3h-7.2c-0.3,0-0.5,0.1-0.7,0.3l-14.3,14.3
		v-13.6c0-0.6-0.4-1-1-1H68.1c-7.9,0-14.3-6.4-14.3-14.3V76.4c0-7.8,6.2-14.1,13.9-14.3c-0.3-0.5-0.8-1-1.2-1.5
		c-0.1-0.1-0.2-0.3-0.2-0.4c-8.1,1-14.4,7.9-14.4,16.2v24.8c0,9,7.3,16.3,16.3,16.3h34.2v15.1c0,0.4,0.2,0.8,0.6,0.9
		c0.1,0.1,0.3,0.1,0.4,0.1c0.3,0,0.5-0.1,0.7-0.3l15.7-15.8h6.8c9,0,16.3-7.3,16.3-16.3V76.4C142.9,67.4,135.6,60,126.5,60z"/>
</g>
<g>
	<g>
		<path class="st2" d="M76.3,74.6h-6.9c-1.4,0-2.5-1.1-2.5-2.5s1.1-2.5,2.5-2.5h6.9c1.4,0,2.5,1.1,2.5,2.5S77.6,74.6,76.3,74.6z
			 M69.4,71.7c-0.2,0-0.5,0.2-0.5,0.5s0.2,0.5,0.5,0.5h6.9c0.2,0,0.5-0.2,0.5-0.5s-0.2-0.5-0.5-0.5H69.4z"/>
		<path class="st2" d="M76.3,77.6h-6.9c-1.4,0-2.5-1.1-2.5-2.5s1.1-2.5,2.5-2.5h6.9c1.4,0,2.5,1.1,2.5,2.5S77.6,77.6,76.3,77.6z
			 M69.4,74.7c-0.2,0-0.5,0.2-0.5,0.5s0.2,0.5,0.5,0.5h6.9c0.2,0,0.5-0.2,0.5-0.5s-0.2-0.5-0.5-0.5H69.4z"/>
		<path class="st2" d="M75,80.5h-4.4c-1.4,0-2.5-1.1-2.5-2.5s1.1-2.5,2.5-2.5H75c1.4,0,2.5,1.1,2.5,2.5S76.4,80.5,75,80.5z
			 M70.6,77.6c-0.2,0-0.5,0.2-0.5,0.5c0,0.2,0.2,0.5,0.5,0.5H75c0.2,0,0.5-0.2,0.5-0.5c0-0.2-0.2-0.5-0.5-0.5H70.6z"/>
		<g>
			<path class="st8" d="M76,68.3h-6.3c-1.8,0-3.3-1.5-3.3-3.3c0-2.6-0.9-4.2-2.7-6.2c-2-2.3-3-5.2-2.9-8.3
				c0.2-5.5,4.4-10.2,9.8-11.1c0.1,0,4.4-0.9,8,1.4c3.8,2.3,6.1,6.2,6.1,10.3c0,2.5-0.8,4.9-2.3,6.9c-1.9,2.6-2.9,4.4-3.2,7.2l0,0.1
				C79.1,67,77.7,68.3,76,68.3z M72.8,41.2c-1,0-1.8,0.1-1.8,0.1c-4.6,0.8-8,4.7-8.2,9.3c-0.1,2.5,0.7,5,2.4,6.9
				c2,2.3,3.2,4.3,3.2,7.5c0,0.7,0.6,1.3,1.3,1.3H76c0.7,0,1.2-0.5,1.3-1.2l0-0.2c0.4-3.2,1.6-5.4,3.6-8.1c1.2-1.7,1.9-3.7,1.9-5.8
				c0-3.5-1.9-6.7-5.1-8.6l0,0C76,41.4,74.2,41.2,72.8,41.2z"/>
		</g>
		<path class="st8" d="M84,41.2c-0.3,0-0.5-0.1-0.7-0.3c-0.4-0.4-0.4-1,0-1.4l3.3-3.3c0.4-0.4,1-0.4,1.4,0c0.4,0.4,0.4,1,0,1.4
			l-3.3,3.3C84.5,41.1,84.3,41.2,84,41.2z"/>
		<path class="st8" d="M78.9,37.8c-0.1,0-0.3,0-0.4-0.1c-0.5-0.2-0.7-0.8-0.5-1.3l1.1-2.5c0.2-0.5,0.8-0.7,1.3-0.5
			c0.5,0.2,0.7,0.8,0.5,1.3l-1.1,2.5C79.6,37.6,79.2,37.8,78.9,37.8z"/>
		<path class="st8" d="M93.5,52.4h-5c-0.6,0-1-0.4-1-1s0.4-1,1-1h5c0.6,0,1,0.4,1,1S94,52.4,93.5,52.4z"/>
		<path class="st8" d="M87.2,46.4c-0.4,0-0.8-0.2-0.9-0.6c-0.2-0.5,0.1-1.1,0.6-1.3l2.8-1.1c0.5-0.2,1.1,0.1,1.3,0.6
			c0.2,0.5-0.1,1.1-0.6,1.3l-2.8,1.1C87.4,46.4,87.3,46.4,87.2,46.4z"/>
		<path class="st8" d="M72.8,36.3c-0.6,0-1-0.4-1-1v-5.8c0-0.6,0.4-1,1-1s1,0.4,1,1v5.8C73.8,35.8,73.4,36.3,72.8,36.3z"/>
		<path class="st8" d="M61.6,41.2c-0.3,0-0.5-0.1-0.7-0.3l-4-4c-0.4-0.4-0.4-1,0-1.4s1-0.4,1.4,0l4,4c0.4,0.4,0.4,1,0,1.4
			C62.2,41.1,61.9,41.2,61.6,41.2z"/>
		<path class="st8" d="M66.8,37.8c-0.4,0-0.7-0.2-0.9-0.6l-1.3-3c-0.2-0.5,0-1.1,0.5-1.3c0.5-0.2,1.1,0,1.3,0.5l1.3,3
			c0.2,0.5,0,1.1-0.5,1.3C67.1,37.8,67,37.8,66.8,37.8z"/>
		<path class="st8" d="M57.3,52.4h-4.8c-0.6,0-1-0.4-1-1s0.4-1,1-1h4.8c0.6,0,1,0.4,1,1S57.8,52.4,57.3,52.4z"/>
		<path class="st8" d="M58.5,46.4c-0.1,0-0.2,0-0.4-0.1l-3-1.2c-0.5-0.2-0.8-0.8-0.6-1.3c0.2-0.5,0.8-0.8,1.3-0.6l3,1.2
			c0.5,0.2,0.8,0.8,0.6,1.3C59.3,46.1,58.9,46.4,58.5,46.4z"/>
	</g>
	<path class="st2" d="M72.9,58c-0.6,0-1-0.4-1-1v-2.5c0-0.6,0.4-1,1-1c1.5,0,2.8-1.2,2.8-2.8S74.4,48,72.9,48c-1,0-1.9,0.5-2.4,1.4
		c-0.3,0.5-0.9,0.7-1.4,0.4c-0.5-0.3-0.7-0.9-0.4-1.4c0.8-1.5,2.4-2.4,4.2-2.4c2.6,0,4.8,2.1,4.8,4.8c0,2.3-1.6,4.2-3.8,4.7V57
		C73.9,57.6,73.5,58,72.9,58z"/>
</g>
<path class="st8" d="M72.8,59.5c-1.1,0-2,0.9-2,2c0,1.1,0.9,2,2,2c1.1,0,2-0.9,2-2C74.8,60.4,73.9,59.5,72.8,59.5z M72.8,62.5
	c-0.5,0-1-0.4-1-1c0-0.5,0.4-1,1-1c0.5,0,1,0.4,1,1C73.8,62.1,73.4,62.5,72.8,62.5z"/>
<g>
	<path class="st2" d="M107.2,105.7c-0.2,0-0.3,0-0.5-0.1c-0.5-0.3-0.7-0.9-0.4-1.4l3.1-5.7c0.3-0.5,0.9-0.7,1.4-0.4s0.7,0.9,0.4,1.4
		l-3.1,5.7C107.9,105.5,107.6,105.7,107.2,105.7z"/>
	<path class="st2" d="M102.8,99.9c-0.3-0.1-0.6-0.3-0.8-0.5l-2.3,4.2c-0.3,0.5-0.1,1.1,0.4,1.4c0.2,0.1,0.3,0.1,0.5,0.1
		c0.4,0,0.7-0.2,0.9-0.5l2.5-4.5C103.5,100.1,103.1,100,102.8,99.9z"/>
	<path class="st2" d="M111.4,84.3c-0.5-0.3-1.1-0.1-1.4,0.4l-5.4,9.9c0.7,0,1.3,0.1,2,0.2c0,0,0.1,0,0.1,0.1l5-9.2
		C112,85.1,111.9,84.5,111.4,84.3z"/>
	<path class="st2" d="M97.5,97c-0.3-0.2-0.6-0.5-0.8-0.8l-3.5,6.3c-0.3,0.5-0.1,1.1,0.4,1.4c0.2,0.1,0.3,0.1,0.5,0.1
		c0.4,0,0.7-0.2,0.9-0.5l3.3-6.1C98.1,97.3,97.8,97.2,97.5,97z"/>
	<path class="st2" d="M104.6,84c-0.5-0.3-1.1-0.1-1.4,0.4l-5.1,9.3c0.1,0,0.1,0,0.2,0c0.6-0.1,1.3-0.2,2-0.1c0.1,0,0.1,0,0.2,0.1
		l4.5-8.3C105.2,84.8,105,84.2,104.6,84z"/>
	<path class="st2" d="M88,102.4c-0.2,0-0.3,0-0.5-0.1c-0.5-0.3-0.7-0.9-0.4-1.4l8.2-15c0.3-0.5,0.9-0.7,1.4-0.4
		c0.5,0.3,0.7,0.9,0.4,1.4l-8.2,15C88.7,102.3,88.4,102.4,88,102.4z"/>
	<path class="st2" d="M82.1,100.4c-0.2,0-0.3,0-0.5-0.1c-0.5-0.3-0.7-0.9-0.4-1.4L87,88.5c0.3-0.5,0.9-0.7,1.4-0.4
		c0.5,0.3,0.7,0.9,0.4,1.4L83,99.9C82.8,100.3,82.5,100.4,82.1,100.4z"/>
	<path class="st2" d="M75.9,99.2c-0.2,0-0.3,0-0.5-0.1c-0.5-0.3-0.7-0.9-0.4-1.4l3.2-5.9c0.3-0.5,0.9-0.7,1.4-0.4
		c0.5,0.3,0.7,0.9,0.4,1.4l-3.2,5.9C76.6,99,76.2,99.2,75.9,99.2z"/>
	<g>
		<path class="st15" d="M109.9,98.4l-0.9,0.2c-1.9,0.3-4.4,0.8-5.9,0.3c-6.1-2.3-6.6-3.4-6.6-3.5c0.2-0.5,1.7-1,5.3-0.5
			c3.6,0.5,7.6,1.1,7.6,1.1c0.2,0,0.3,0,0.5,0c-0.1-0.4-0.2-0.8-0.3-1.1c-0.1-0.3,0-0.5,0.1-0.8c0,0,0,0,0,0c-0.2,0-4.1-0.6-7.6-1.1
			c-4.3-0.6-6.8,0-7.4,1.7c-0.2,0.5-0.2,1,0.1,1.5c0.6,1.4,2.9,2.7,7.7,4.6c0.7,0.3,1.6,0.4,2.5,0.4c1.5,0,3.1-0.3,4.5-0.6l0.9-0.2
			c0.5-0.1,0.9-0.6,0.8-1.2C111,98.6,110.5,98.3,109.9,98.4z"/>
	</g>
	<path class="st2" d="M118,104.6c-1.9,0-3.9-0.6-5.5-1.8c-2.5-1.7-4.1-4.5-4-7.1c0-5,4.2-8.1,7.8-9.2c0.5-0.2,1.1,0.1,1.3,0.7
		c0.2,0.5-0.1,1.1-0.7,1.3c-2.9,0.9-6.4,3.4-6.4,7.3c0,1.9,1.2,4.1,3.2,5.5c1.2,0.9,3.7,2.1,7,1c0.5-0.2,1.1,0.1,1.3,0.6
		s-0.1,1.1-0.6,1.3C120.2,104.4,119,104.6,118,104.6z"/>
	<g>
		<path class="st18" d="M66.7,100.7c-1.4,0-2.8-0.1-4.1-0.3c-0.4-0.1-0.8-0.4-0.8-0.8s0.1-0.9,0.5-1c0.9-0.5,1.6-1.7,1.6-3.1
			s-0.6-2.6-1.6-3.1c-0.4-0.2-0.6-0.6-0.5-1.1s0.4-0.8,0.8-0.8c1.3-0.2,2.7-0.3,4.1-0.3c3.4,0,6.6,0.6,8.8,1.6
			c0.5,0.2,0.7,0.8,0.5,1.3c-0.2,0.5-0.8,0.7-1.3,0.5c-2-0.9-4.9-1.4-8-1.4c-0.6,0-1.2,0-1.8,0.1c0.6,0.9,0.9,2,0.9,3.2
			s-0.3,2.3-0.9,3.2c0.6,0,1.2,0.1,1.8,0.1c3,0,5.9-0.5,7.9-1.4c0.5-0.2,1.1,0,1.3,0.5s0,1.1-0.5,1.3
			C73.2,100.2,70.1,100.7,66.7,100.7z"/>
	</g>
	<path class="st15" d="M80.6,92.4c-0.1,0-0.1,0-0.2,0c-1.4-0.3-2.2-0.8-2.5-1.7c-0.5-1.1,0.1-2.3,0.7-3.3c0.1-0.2,0.2-0.4,0.3-0.5
		c0.8-1.4,2.2-3.9,4.9-3.1c2.1,0.6,4.6,1.8,6.6,2.9l1,0.5c0.5,0.2,0.7,0.8,0.4,1.3c-0.2,0.5-0.8,0.7-1.3,0.4l-1-0.5
		c-1.9-1-4.3-2.2-6.2-2.7c-1.1-0.3-1.6,0.4-2.6,2.2c-0.1,0.2-0.2,0.4-0.3,0.6c-0.6,1-0.6,1.4-0.6,1.5c0,0.1,0.3,0.3,1.1,0.5
		c0.5,0.1,0.9,0.7,0.8,1.2C81.5,92,81.1,92.4,80.6,92.4z"/>
	<path class="st15" d="M92.1,88.5c-0.1,0-0.3,0-0.4-0.1c-0.5-0.2-0.7-0.8-0.5-1.3c0.1-0.3,0.2-0.6,0.3-0.9c0.3-1.3,0.9-3.3,3.7-4.2
		c2.6-0.9,6.9-2,9.5-2.5c2.1-0.4,3.9-0.1,5.4,0.9c2.3,1.6,2.7,4.4,2.7,4.6c0.1,0.5-0.3,1.1-0.9,1.1c-0.6,0.1-1-0.3-1.1-0.9
		c0-0.1-0.3-2.1-1.9-3.2c-1-0.7-2.2-0.9-3.8-0.6c-2.5,0.5-6.8,1.7-9.3,2.5c-1.8,0.6-2,1.6-2.4,2.9c-0.1,0.4-0.2,0.8-0.4,1.2
		C92.8,88.2,92.5,88.5,92.1,88.5z"/>
	<path class="st18" d="M83,105.1c-2.6,0-3.6-1.4-4.4-2.7c-0.2-0.4-0.9-1.6-0.5-3c0.2-0.5,0.6-1.3,1.6-1.8c0.5-0.2,1.1,0,1.3,0.5
		c0.2,0.5,0,1.1-0.5,1.3c-0.4,0.2-0.5,0.4-0.5,0.5c-0.1,0.4,0.1,1,0.3,1.3c0.7,1.1,1.3,1.9,3.2,1.7c1.1-0.1,1.8-0.1,2.5-0.2
		c1.1-0.1,2-0.2,3.9-0.3c0.3,0,0.4-0.1,0.6-0.5c0.1-0.2,0.3-0.6,0.8-0.7c0.3-0.1,0.6,0,0.8,0.1c0.5,0.3,0.6,0.9,0.3,1.4
		c-0.1,0.1-0.1,0.2-0.2,0.3c-0.2,0.4-0.8,1.4-2.2,1.4c-1.8,0.1-2.7,0.2-3.8,0.3c-0.7,0.1-1.4,0.1-2.5,0.2
		C83.4,105.1,83.2,105.1,83,105.1z"/>
	<path class="st2" d="M107.4,105.8c-2.7,0-16.1-1.1-28.1-6.4c-0.5-0.2-1.1-0.5-2.9-0.2c-1.1,0.2-2.4-0.2-3.4-1.1
		c-0.9-0.7-1.3-1.7-1.3-2.6c0-2.1,2.4-3.7,4.6-3.7c0.6,0,1.9-0.1,2.6-0.3l1.4-0.6c1.1-0.4,2.3-0.9,3.5-1.4c7.3-3,19.6-6.1,24.2-6.1
		c4,0,7.1,1.8,10.3,3.8c2.7,1.6,5.6,3.3,9.4,4.3c0.4,0.1,0.6,0.4,0.7,0.7c0.1,0.4,0,0.7-0.3,1l-2.6,2.4l4-0.4c0.4,0,0.8,0.2,1,0.6
		c0.2,0.4,0.1,0.8-0.2,1.1C122.8,104.2,120.7,105.8,107.4,105.8z M77.7,97c1.1,0,1.8,0.2,2.4,0.5c13.2,5.8,27.2,6.3,27.3,6.3
		c11.4,0,13.8-0.9,19.5-6.3l-3.7,0.4l-0.9,0.9c-0.4,0.4-1,0.4-1.4,0c-0.4-0.4-0.4-1,0-1.4l1.1-1.1c0,0,0,0,0,0l3.5-3.3
		c-3.3-1.1-5.9-2.7-8.2-4.1c-3.1-1.9-5.8-3.5-9.3-3.5c-4.1,0-15.7,2.7-23.5,5.9c-1.3,0.5-2.4,1-3.6,1.4l-1.4,0.5
		c-1.1,0.4-2.8,0.5-3.3,0.5c-1.2,0-2.6,0.9-2.6,1.7c0,0.3,0.2,0.7,0.6,1.1c0.5,0.5,1.3,0.7,1.8,0.6C76.7,97,77.2,97,77.7,97z"/>
	<path class="st8" d="M119.2,89.3c-1.7,0-3,1.4-3,3s1.4,3,3,3c1.7,0,3-1.4,3-3S120.8,89.3,119.2,89.3z M119.2,93.8
		c-0.8,0-1.5-0.7-1.5-1.5c0-0.8,0.7-1.5,1.5-1.5c0.8,0,1.5,0.7,1.5,1.5C120.6,93.1,120,93.8,119.2,93.8z"/>
</g>
</svg>
