<?xml version="1.0" encoding="utf-8"?>
<!-- Generator: Adobe Illustrator 24.1.2, SVG Export Plug-In . SVG Version: 6.00 Build 0)  -->
<svg version="1.1" id="Layer_1" xmlns="http://www.w3.org/2000/svg" xmlns:xlink="http://www.w3.org/1999/xlink" x="0px" y="0px"
	 viewBox="0 0 174 174" style="enable-background:new 0 0 174 174;" xml:space="preserve">
<style type="text/css">
	.st0{fill:#0047BF;}
	.st1{fill:#003FC1;}
	.st2{fill:#FFFFFF;}
	.st3{fill:none;stroke:#96D5CE;stroke-width:2;stroke-linecap:round;stroke-linejoin:round;stroke-miterlimit:10;}
	.st4{fill:none;stroke:#FF704C;stroke-width:2;stroke-linecap:round;stroke-linejoin:round;stroke-miterlimit:10;}
	.st5{fill:none;stroke:#FFFFFF;stroke-width:2;stroke-linecap:round;stroke-linejoin:round;stroke-miterlimit:10;}
	.st6{fill:none;stroke:#FF804C;stroke-width:2;stroke-linecap:round;stroke-linejoin:round;stroke-miterlimit:10;}
	.st7{fill:none;stroke:#0047BF;stroke-width:2;stroke-linecap:round;stroke-linejoin:round;stroke-miterlimit:10;}
	.st8{fill:#F1D439;}
	.st9{fill:#0047BF;stroke:#BEC8C8;stroke-width:2;stroke-linecap:round;stroke-linejoin:round;stroke-miterlimit:10;}
	.st10{fill:none;stroke:#FF7E51;stroke-width:2;stroke-linecap:round;stroke-linejoin:round;stroke-miterlimit:10;}
	.st11{fill:none;stroke:#A3D5D0;stroke-width:2;stroke-linecap:round;stroke-linejoin:round;stroke-miterlimit:10;}
	.st12{fill:none;stroke:#F1D439;stroke-width:2;stroke-linecap:round;stroke-linejoin:round;stroke-miterlimit:10;}
	.st13{fill:none;stroke:#E2E6E6;stroke-width:2;stroke-linecap:round;stroke-linejoin:round;stroke-miterlimit:10;}
	.st14{fill:#A3D5D0;}
	.st15{fill:#FF804C;}
	.st16{fill:none;stroke:#BEC8C8;stroke-width:2;stroke-linecap:round;stroke-linejoin:round;stroke-miterlimit:10;}
	.st17{fill:#0047BF;stroke:#0047BF;stroke-width:2;stroke-linecap:round;stroke-linejoin:round;stroke-miterlimit:10;}
	.st18{fill:#FF704C;}
	.st19{fill:none;}
	.st20{fill:#0041BD;}
	.st21{fill:none;stroke:#FFFFFF;stroke-width:1.5;stroke-linecap:round;stroke-linejoin:round;stroke-miterlimit:10;}
	.st22{fill:#0041BD;stroke:#A3D5D0;stroke-width:1.5;stroke-linecap:round;stroke-linejoin:round;stroke-miterlimit:10;}
	.st23{fill:#0041BD;stroke:#FFFFFF;stroke-width:2;stroke-linecap:round;stroke-linejoin:round;stroke-miterlimit:10;}
	.st24{fill:#0041BD;stroke:#FF804C;stroke-width:2;stroke-linecap:round;stroke-linejoin:round;stroke-miterlimit:10;}
	.st25{fill:#0041BD;stroke:#A3D5D0;stroke-width:2;stroke-linecap:round;stroke-linejoin:round;stroke-miterlimit:10;}
	.st26{fill:#0041BD;stroke:#F1D439;stroke-width:2;stroke-linecap:round;stroke-linejoin:round;stroke-miterlimit:10;}
	.st27{fill:#FF804C;stroke:#FF804C;stroke-width:2;stroke-linecap:round;stroke-linejoin:round;stroke-miterlimit:10;}
	.st28{fill:none;stroke:#FFFFFF;stroke-width:2.5;stroke-linecap:round;stroke-linejoin:round;stroke-miterlimit:10;}
	.st29{fill:#0041BD;stroke:#FF804C;stroke-width:1.5;stroke-linecap:round;stroke-linejoin:round;stroke-miterlimit:10;}
	.st30{fill:none;stroke:#FF704C;stroke-width:1.5;stroke-linecap:round;stroke-linejoin:round;stroke-miterlimit:10;}
	.st31{fill:none;stroke:#FF804C;stroke-width:1.5;stroke-linecap:round;stroke-linejoin:round;stroke-miterlimit:10;}
	.st32{fill:none;stroke:#A3D5D0;stroke-width:1.4377;stroke-linecap:round;stroke-linejoin:round;stroke-miterlimit:10;}
	.st33{fill:#0041BD;stroke:#F1D439;stroke-width:1.5;stroke-linecap:round;stroke-linejoin:round;stroke-miterlimit:10;}
	.st34{fill:none;stroke:#F1D439;stroke-width:1.5;stroke-linecap:round;stroke-linejoin:round;stroke-miterlimit:10;}
	.st35{fill:none;stroke:#A3D5D0;stroke-width:1.5;stroke-linecap:round;stroke-linejoin:round;stroke-miterlimit:10;}
	.st36{fill:none;stroke:#96D5CE;stroke-width:1.4377;stroke-linecap:round;stroke-linejoin:round;stroke-miterlimit:10;}
	.st37{fill:none;stroke:#0047BF;stroke-width:1.5;stroke-linecap:round;stroke-linejoin:round;stroke-miterlimit:10;}
	.st38{fill:#0047BF;stroke:#FF704C;stroke-width:2;stroke-linecap:round;stroke-linejoin:round;stroke-miterlimit:10;}
	.st39{fill:#0047BF;stroke:#FF804C;stroke-width:2;stroke-linecap:round;stroke-linejoin:round;stroke-miterlimit:10;}
	.st40{fill:#0047BF;stroke:#E2E6E6;stroke-width:2;stroke-linecap:round;stroke-linejoin:round;stroke-miterlimit:10;}
	.st41{fill:#0047BF;stroke:#A3D5D0;stroke-width:2;stroke-linecap:round;stroke-linejoin:round;stroke-miterlimit:10;}
	.st42{fill:#0047BF;stroke:#F1D439;stroke-width:2;stroke-linecap:round;stroke-linejoin:round;stroke-miterlimit:10;}
	.st43{fill:#0041BD;stroke:#E2E6E6;stroke-width:2;stroke-linecap:round;stroke-linejoin:round;stroke-miterlimit:10;}
	.st44{fill:#E2E6E6;}
	.st45{fill:none;stroke:#0047BF;stroke-width:1.4377;stroke-linecap:round;stroke-linejoin:round;stroke-miterlimit:10;}
	.st46{fill:#0047BF;stroke:#A3D5D0;stroke-width:1.5;stroke-linecap:round;stroke-linejoin:round;stroke-miterlimit:10;}
	.st47{fill:none;stroke:#E2E6E6;stroke-width:1.5;stroke-linecap:round;stroke-linejoin:round;stroke-miterlimit:10;}
	.st48{fill:#0047BF;stroke:#FF704C;stroke-width:1.5;stroke-linecap:round;stroke-linejoin:round;stroke-miterlimit:10;}
	.st49{fill:#0047BF;stroke:#FF804C;stroke-width:1.5;stroke-linecap:round;stroke-linejoin:round;stroke-miterlimit:10;}
	.st50{fill:#0047BF;stroke:#F1D439;stroke-width:1.5;stroke-linecap:round;stroke-linejoin:round;stroke-miterlimit:10;}
	.st51{fill:#0041BD;stroke:#0047BF;stroke-width:2;stroke-linecap:round;stroke-linejoin:round;stroke-miterlimit:10;}
	
		.st52{fill:none;stroke:#FFFFFF;stroke-width:2;stroke-linecap:round;stroke-linejoin:round;stroke-miterlimit:10;stroke-dasharray:15,5;}
	.st53{fill:#1B3570;}
	.st54{fill:#B5C0C0;}
	.st55{fill:#0047BF;stroke:#B5C0C0;stroke-width:2;stroke-linecap:round;stroke-linejoin:round;stroke-miterlimit:10;}
	.st56{fill:none;stroke:#B5C0C0;stroke-width:2;stroke-linecap:round;stroke-linejoin:round;stroke-miterlimit:10;}
	.st57{fill:#0047BF;stroke:#96D5CE;stroke-width:2;stroke-linecap:round;stroke-linejoin:round;stroke-miterlimit:10;}
	.st58{fill:#96D5CE;}
	.st59{fill:#FF7E51;}
	.st60{fill:#0B0069;}
	.st61{fill:#0047BF;stroke:#FFFFFF;stroke-width:2;stroke-linecap:round;stroke-linejoin:round;stroke-miterlimit:10;}
	.st62{fill:none;stroke:#FF7E51;stroke-width:1.5;stroke-linecap:round;stroke-linejoin:round;stroke-miterlimit:10;}
	.st63{fill:#0B0069;stroke:#FFFFFF;stroke-width:1.5;stroke-linecap:round;stroke-linejoin:round;stroke-miterlimit:10;}
</style>
<path class="st8" d="M62.1,136.4H31.9c-0.3,0-0.5-0.1-0.7-0.3c-0.2-0.2-0.3-0.5-0.3-0.7c0-0.3,0-11,0-16.6c0-0.6,0.4-1,1-1
	c0,0,0,0,0,0c0.6,0,1,0.4,1,1c0,1.4,0,12.2,0,15.6h29.1c0.6,0,1,0.4,1,1S62.6,136.4,62.1,136.4z"/>
<path class="st8" d="M49.2,136.1c-0.6,0-1-0.4-1-1v-16.3c0-0.6,0.4-1,1-1s1,0.4,1,1v16.3C50.2,135.6,49.8,136.1,49.2,136.1z"/>
<path class="st15" d="M126.3,97.8h-9.6c-0.6,0-1-0.4-1-1s0.4-1,1-1h9.6c0.6,0,1,0.4,1,1S126.8,97.8,126.3,97.8z"/>
<path class="st15" d="M121.1,135.8c-0.6,0-1-0.4-1-1v-13.3c0-0.6,0.4-1,1-1s1,0.4,1,1v13.3C122.1,135.3,121.6,135.8,121.1,135.8z"/>
<path class="st2" d="M84.8,72.8c-3.9,0-7.6-2.1-9.6-5.4c-0.3-0.5-0.1-1.1,0.3-1.4c0.5-0.3,1.1-0.1,1.4,0.3c1.7,2.8,4.6,4.5,7.9,4.5
	c3.1,0,6-1.6,7.7-4.2c0.3-0.5,0.9-0.6,1.4-0.3s0.6,0.9,0.3,1.4C92.2,70.9,88.6,72.8,84.8,72.8z"/>
<path class="st2" d="M140.2,100.8c-0.6,0-1-0.4-1-1v-6c0-8.8-8-16-17.7-16c-5.2,0-10.1,2.1-13.5,5.7c-0.4,0.4-1,0.4-1.4,0
	c-0.4-0.4-0.4-1,0-1.4c3.8-4,9.2-6.3,15-6.3c10.9,0,19.7,8.1,19.7,18v6C141.2,100.4,140.7,100.8,140.2,100.8z"/>
<path class="st15" d="M140.1,136.4h-32.4c-0.6,0-1-0.4-1-1s0.4-1,1-1h31.4c0-5.5,0-32,0-35.3c0-0.6,0.4-1,1-1s1,0.4,1,1
	c0,3.6,0,36.3,0,36.3C141.1,135.9,140.7,136.4,140.1,136.4z"/>
<path class="st15" d="M140.2,100.2c-0.3,0-0.5-0.1-0.7-0.3l-9.5-10.5l-17.3-0.1l-4.4,3.7c-0.4,0.4-1.1,0.3-1.4-0.1
	c-0.4-0.4-0.3-1.1,0.1-1.4l4.7-3.9c0.2-0.2,0.4-0.2,0.6-0.2c0,0,0,0,0,0l18.1,0.1c0.3,0,0.5,0.1,0.7,0.3l9.8,10.9
	c0.4,0.4,0.3,1-0.1,1.4C140.6,100.1,140.4,100.2,140.2,100.2z"/>
<path class="st2" d="M107.2,90.5c-0.6,0-1-0.4-1-1c0-2.4,0-3.3,0-3.7l0-0.1c0-2.9-0.6-5.7-1.9-8.3c-0.2-0.5,0-1.1,0.5-1.3
	c0.5-0.2,1.1,0,1.3,0.5c1.4,2.9,2.1,5.9,2.1,9.1l0,0.2c0,0.3,0,1.3,0,3.6C108.2,90,107.8,90.5,107.2,90.5z"/>
<path class="st2" d="M62.6,90.5c-0.6,0-1-0.4-1-1c0-2.9,0-3.6,0-3.7c0,0,0,0,0,0c0-12.2,10.5-22.2,23.3-22.2c9.1,0,17.5,5.1,21.3,13
	c0.2,0.5,0,1.1-0.5,1.3c-0.5,0.2-1.1,0-1.3-0.5c-3.4-7.2-11.1-11.8-19.5-11.8c-11.8,0-21.3,9-21.3,20.2l-0.1,0c0,0,0,0,0,0l0.1,0
	c0,0.1,0,0.2,0,0.3c0,0.7,0,1.8,0,3.5C63.6,90,63.1,90.5,62.6,90.5C62.6,90.5,62.6,90.5,62.6,90.5z"/>
<path class="st15" d="M112.9,89.3c-0.6,0-1-0.4-1-1v-11c0-0.6,0.4-1,1-1s1,0.4,1,1v11C113.9,88.8,113.5,89.3,112.9,89.3z"/>
<path class="st15" d="M129.9,88.9c-0.6,0-1-0.4-1-1V77.3c0-0.6,0.4-1,1-1s1,0.4,1,1v10.6C130.9,88.5,130.4,88.9,129.9,88.9z"/>
<path class="st2" d="M62.1,119.7H29.7c-0.3,0-0.5-0.1-0.7-0.3c-0.2-0.2-0.3-0.5-0.3-0.7c0-0.4,0-17.9,0-21.3c0,0,0-0.1,0-0.1v-3.5
	c0-9.9,8.9-18,19.7-18c5.8,0,11.2,2.3,15,6.3c0.4,0.4,0.4,1,0,1.4c-0.4,0.4-1,0.4-1.4,0c-3.4-3.6-8.3-5.7-13.5-5.7
	c-9.8,0-17.7,7.2-17.7,16v3.4c0,0,0,0.1,0,0.1c0,2.4,0,16.5,0,20.5h31.4c0.6,0,1,0.4,1,1S62.6,119.7,62.1,119.7z"/>
<path class="st15" d="M130.7,57.9h-19.4c-0.3,0-0.6-0.2-0.8-0.4s-0.2-0.6-0.1-0.9c1.5-4.3,5.7-7.2,10.6-7.2s9.1,2.9,10.6,7.2
	c0.1,0.3,0.1,0.6-0.1,0.9S131.1,57.9,130.7,57.9z M112.9,55.9h16.3c-1.5-2.7-4.6-4.5-8.1-4.5S114.5,53.2,112.9,55.9z"/>
<path class="st2" d="M54.5,99.5c-0.2,0-0.5-0.1-0.6-0.2L41,88.7c-0.3-0.2-0.4-0.6-0.3-1l1-4.3l-2.5-3.3c-0.3-0.4-0.2-1.1,0.2-1.4
	c0.4-0.3,1.1-0.2,1.4,0.2l2.7,3.7c0.2,0.2,0.2,0.5,0.2,0.8l-0.9,4.1l12.3,10.2c0.4,0.4,0.5,1,0.1,1.4C55,99.4,54.7,99.5,54.5,99.5z"
	/>
<path class="st14" d="M107.2,141H62.6c-0.6,0-1-0.4-1-1V89.5c0-0.3,0.1-0.5,0.3-0.7L73,77.1c0.2-0.2,0.5-0.3,0.7-0.3h22.4
	c0.3,0,0.5,0.1,0.7,0.3L108,88.8c0.2,0.2,0.3,0.4,0.3,0.7V140C108.2,140.6,107.8,141,107.2,141z M63.6,139h42.7V89.9L95.7,78.8H74.1
	L63.6,89.9V139z"/>
<path class="st14" d="M74.3,78.7c-0.6,0-1-0.4-1-1V65.1c0-0.6,0.4-1,1-1s1,0.4,1,1v12.6C75.3,78.2,74.8,78.7,74.3,78.7z"/>
<path class="st14" d="M95.7,78.7c-0.6,0-1-0.4-1-1V65.1c0-0.6,0.4-1,1-1s1,0.4,1,1v12.6C96.7,78.2,96.2,78.7,95.7,78.7z"/>
<path class="st14" d="M92.7,87.8H77.5c-0.6,0-1-0.4-1-1s0.4-1,1-1h15.3c0.6,0,1,0.4,1,1S93.3,87.8,92.7,87.8z"/>
<path class="st2" d="M54.5,118.9c-0.6,0-1-0.4-1-1V98.5c0-0.6,0.4-1,1-1s1,0.4,1,1v19.3C55.5,118.4,55,118.9,54.5,118.9z"/>
<path class="st8" d="M38.8,67.6h-2.6c-0.4,0-0.8-0.3-1-0.7c-0.4-1.3-0.6-2.6-0.6-4c0-7.7,6.3-14,14-14s14,6.3,14,14
	c0,1.3-0.2,2.6-0.5,3.8c-0.1,0.4-0.5,0.7-1,0.7h-2.6c-0.6,0-1-0.4-1-1s0.4-1,1-1h1.8c0.2-0.8,0.3-1.7,0.3-2.6c0-6.6-5.4-12-12-12
	s-12,5.4-12,12c0,0.9,0.1,1.8,0.3,2.7h1.8c0.6,0,1,0.4,1,1S39.4,67.6,38.8,67.6z"/>
<path class="st2" d="M48.7,73.1c-5.5,0-10-4.5-10-10c0-2,0.6-3.9,1.6-5.5c0.3-0.5,0.9-0.6,1.4-0.3c0.5,0.3,0.6,0.9,0.3,1.4
	c-0.9,1.3-1.3,2.8-1.3,4.4c0,4.4,3.6,8,8,8s8-3.6,8-8c0-1.5-0.4-2.9-1.2-4.1c-0.3-0.5-0.1-1.1,0.3-1.4c0.5-0.3,1.1-0.1,1.4,0.3
	c0.9,1.6,1.4,3.3,1.4,5.2C58.7,68.7,54.2,73.1,48.7,73.1z"/>
<path class="st2" d="M121.5,73.1c-5.5,0-10-4.5-10-10c0-0.8,0.1-1.5,0.3-2.2c0.1-0.5,0.7-0.9,1.2-0.8c0.5,0.1,0.9,0.7,0.8,1.2
	c-0.1,0.6-0.2,1.2-0.2,1.8c0,4.4,3.6,8,8,8c4.4,0,8-3.6,8-8c0-0.7-0.1-1.3-0.2-2c-0.1-0.5,0.2-1.1,0.7-1.2c0.5-0.1,1.1,0.2,1.2,0.7
	c0.2,0.8,0.3,1.6,0.3,2.4C131.5,68.7,127,73.1,121.5,73.1z"/>
<path class="st2" d="M84.2,61c-6.8,0-12.3-5.5-12.3-12.3c0-1.9,0.4-3.7,1.3-5.4c0.2-0.5,0.8-0.7,1.3-0.5c0.5,0.2,0.7,0.8,0.5,1.3
	c-0.7,1.4-1,2.9-1,4.5c0,5.7,4.6,10.3,10.3,10.3s10.3-4.6,10.3-10.3c0-1.6-0.4-3.1-1-4.5c-0.2-0.5,0-1.1,0.5-1.3
	c0.5-0.2,1.1,0,1.3,0.5c0.8,1.7,1.3,3.5,1.3,5.4C96.5,55.5,90.9,61,84.2,61z"/>
<path class="st8" d="M60.2,58.3H38.3c-0.6,0-1-0.4-1-1s0.4-1,1-1h21.9c0.6,0,1,0.4,1,1S60.7,58.3,60.2,58.3z"/>
<path class="st2" d="M50.2,94.7c-0.2,0-0.5-0.1-0.7-0.3c-0.4-0.4-0.4-1,0-1.4l5.2-5.4l-1-4.2c-0.1-0.3,0-0.6,0.2-0.8l2.2-2.9
	c0.3-0.4,1-0.5,1.4-0.2c0.4,0.3,0.5,1,0.2,1.4l-1.9,2.6l1,4.3c0.1,0.3,0,0.7-0.3,0.9l-5.6,5.8C50.8,94.6,50.5,94.7,50.2,94.7z"/>
<path class="st2" d="M48.7,86.3c-0.4,0-0.7-0.2-0.9-0.6l-3.6-7.7c-0.2-0.5,0-1.1,0.5-1.3c0.5-0.2,1.1,0,1.3,0.5l3.6,7.7
	c0.2,0.5,0,1.1-0.5,1.3C48.9,86.3,48.8,86.3,48.7,86.3z"/>
<path class="st2" d="M48.9,86.3c-0.1,0-0.3,0-0.4-0.1C48,86,47.8,85.4,48,84.9l3.6-7.7c0.2-0.5,0.8-0.7,1.3-0.5
	c0.5,0.2,0.7,0.8,0.5,1.3l-3.6,7.7C49.6,86.1,49.3,86.3,48.9,86.3z"/>
<path class="st15" d="M131.5,61.9h-1.3c-0.6,0-1-0.4-1-1s0.4-1,1-1h1.3c0.6,0,1,0.4,1,1S132,61.9,131.5,61.9z"/>
<path class="st15" d="M130.2,61.9h-19.6c-0.6,0-1-0.4-1-1s0.4-1,1-1h19.6c0.6,0,1,0.4,1,1S130.8,61.9,130.2,61.9z"/>
<path class="st14" d="M96.3,44H72.1c-0.3,0-0.6-0.2-0.8-0.4S71,43,71.1,42.7c1.8-5.7,7.1-9.6,13.1-9.6s11.3,3.9,13.1,9.6
	c0.1,0.3,0,0.6-0.1,0.9S96.7,44,96.3,44z M73.5,42h21.4c-1.9-4.2-6-6.9-10.7-6.9S75.4,37.8,73.5,42z"/>
<path class="st14" d="M84.1,43.4c-0.2,0-0.5-0.1-0.7-0.3l-6.2-6c-0.4-0.4-0.4-1,0-1.4c0.4-0.4,1-0.4,1.4,0l5.5,5.3l5.9-5.6
	c0.4-0.4,1-0.4,1.4,0c0.4,0.4,0.4,1,0,1.4l-6.6,6.3C84.6,43.3,84.3,43.4,84.1,43.4z"/>
<path class="st8" d="M47.9,98.7c-1.5-0.5-3.1,0.2-3.7,1.7c-0.5,1.5,0.2,3.1,1.7,3.7c1.5,0.5,3.1-0.2,3.7-1.7
	C50.2,100.9,49.4,99.3,47.9,98.7z M46.5,102.7c-0.7-0.3-1.1-1.1-0.8-1.8c0.3-0.7,1.1-1.1,1.8-0.8c0.7,0.3,1.1,1.1,0.8,1.8
	C48,102.6,47.2,103,46.5,102.7z"/>
<path class="st8" d="M47.9,107c-1.5-0.5-3.1,0.2-3.7,1.7c-0.5,1.5,0.2,3.1,1.7,3.7c1.5,0.5,3.1-0.2,3.7-1.7
	C50.2,109.2,49.4,107.6,47.9,107z M46.5,111c-0.7-0.3-1.1-1.1-0.8-1.8c0.3-0.7,1.1-1.1,1.8-0.8c0.7,0.3,1.1,1.1,0.8,1.8
	C48,110.9,47.2,111.3,46.5,111z"/>
<path class="st14" d="M84.9,140.6c-0.6,0-1-0.4-1-1v-23.4c0-0.6,0.4-1,1-1s1,0.4,1,1v23.4C85.9,140.2,85.5,140.6,84.9,140.6z"/>
</svg>
