<?xml version="1.0" encoding="utf-8"?>
<!-- Generator: Adobe Illustrator 24.1.2, SVG Export Plug-In . SVG Version: 6.00 Build 0)  -->
<svg version="1.1" id="Layer_1" xmlns="http://www.w3.org/2000/svg" xmlns:xlink="http://www.w3.org/1999/xlink" x="0px" y="0px"
	 viewBox="0 0 174 174" style="enable-background:new 0 0 174 174;" xml:space="preserve">
<style type="text/css">
	.st0{fill:#0047BF;}
	.st1{fill:#0041BD;}
	.st2{fill:none;stroke:#A3D5D0;stroke-width:1.5;stroke-linecap:round;stroke-linejoin:round;stroke-miterlimit:10;}
	.st3{fill:#003FC1;}
	.st4{opacity:0.5;fill:#C5C7C1;}
	.st5{fill:#FFFFFF;}
	.st6{fill:none;stroke:#A3D5D0;stroke-width:2;stroke-linecap:round;stroke-linejoin:round;stroke-miterlimit:10;}
	.st7{fill:none;stroke:#FFFFFF;stroke-width:2;stroke-linecap:round;stroke-linejoin:round;stroke-miterlimit:10;}
	.st8{fill:#F1D439;}
	.st9{fill:none;stroke:#FFFFFF;stroke-width:1.7134;stroke-linecap:round;stroke-linejoin:round;stroke-miterlimit:10;}
	.st10{fill:#0041BD;stroke:#FF804C;stroke-width:1.7134;stroke-linecap:round;stroke-linejoin:round;stroke-miterlimit:10;}
	.st11{fill:none;stroke:#FF704C;stroke-width:1.7134;stroke-linecap:round;stroke-linejoin:round;stroke-miterlimit:10;}
	.st12{fill:none;stroke:#FF804C;stroke-width:1.7134;stroke-linecap:round;stroke-linejoin:round;stroke-miterlimit:10;}
	.st13{fill:none;stroke:#F1D439;stroke-width:2.0251;stroke-linecap:round;stroke-linejoin:round;stroke-miterlimit:10;}
	.st14{fill:#0041BD;stroke:#FFFFFF;stroke-width:2;stroke-linecap:round;stroke-linejoin:round;stroke-miterlimit:10;}
	.st15{fill:none;stroke:#F1D439;stroke-width:2;stroke-linecap:round;stroke-linejoin:round;stroke-miterlimit:10;}
	.st16{fill:#0041BD;stroke:#F1D439;stroke-width:2;stroke-linecap:round;stroke-linejoin:round;stroke-miterlimit:10;}
	.st17{fill:none;stroke:#F1D439;stroke-width:2.954;stroke-linecap:round;stroke-linejoin:round;stroke-miterlimit:10;}
	.st18{fill:#0041BD;stroke:#FFFFFF;stroke-width:2.954;stroke-linecap:round;stroke-linejoin:round;stroke-miterlimit:10;}
	.st19{fill:#0041BD;stroke:#FFFFFF;stroke-width:2.9898;stroke-linecap:round;stroke-linejoin:round;stroke-miterlimit:10;}
	.st20{fill:#0041BD;stroke:#A3D5D0;stroke-width:2.954;stroke-linecap:round;stroke-linejoin:round;stroke-miterlimit:10;}
	.st21{fill:none;stroke:#A3D5D0;stroke-width:2.954;stroke-linecap:round;stroke-linejoin:round;stroke-miterlimit:10;}
	.st22{fill:#0041BD;stroke:#A3D5D0;stroke-width:2;stroke-linecap:round;stroke-linejoin:round;stroke-miterlimit:10;}
	.st23{fill:none;stroke:#A3D5D0;stroke-width:1.7134;stroke-linecap:round;stroke-linejoin:round;stroke-miterlimit:10;}
	.st24{fill:none;stroke:#FF804C;stroke-width:2.1067;stroke-linecap:round;stroke-linejoin:round;stroke-miterlimit:10;}
	.st25{fill:#0041BD;stroke:#A3D5D0;stroke-width:1.9602;stroke-linecap:round;stroke-linejoin:round;stroke-miterlimit:10;}
	.st26{fill:#0041BD;stroke:#FF804C;stroke-width:2;stroke-linecap:round;stroke-linejoin:round;stroke-miterlimit:10;}
	.st27{fill:none;stroke:#FF704C;stroke-width:2;stroke-linecap:round;stroke-linejoin:round;stroke-miterlimit:10;}
	.st28{fill:none;stroke:#FF804C;stroke-width:2;stroke-linecap:round;stroke-linejoin:round;stroke-miterlimit:10;}
	.st29{fill:none;stroke:#A3D5D0;stroke-width:2.4787;stroke-linecap:round;stroke-linejoin:round;stroke-miterlimit:10;}
	.st30{fill:none;stroke:#FFFFFF;stroke-width:2.5;stroke-linecap:round;stroke-linejoin:round;stroke-miterlimit:10;}
	.st31{fill:none;stroke:#FF704C;stroke-width:2.5;stroke-linecap:round;stroke-linejoin:round;stroke-miterlimit:10;}
	.st32{fill:#0041BD;stroke:#FFFFFF;stroke-width:2.4904;stroke-linecap:round;stroke-linejoin:round;stroke-miterlimit:10;}
	.st33{fill:none;stroke:#FF704C;stroke-width:2.5045;stroke-linecap:round;stroke-linejoin:round;stroke-miterlimit:10;}
	.st34{fill:none;stroke:#A3D5D0;stroke-width:2.5;stroke-linecap:round;stroke-linejoin:round;stroke-miterlimit:10;}
	.st35{fill:none;stroke:#FFFFFF;stroke-width:2.4904;stroke-linecap:round;stroke-linejoin:round;stroke-miterlimit:10;}
	.st36{fill:none;stroke:#96D5CE;stroke-width:2;stroke-linecap:round;stroke-linejoin:round;stroke-miterlimit:10;}
	.st37{fill:none;stroke:#0047BF;stroke-width:2;stroke-linecap:round;stroke-linejoin:round;stroke-miterlimit:10;}
	.st38{fill:#0047BF;stroke:#BEC8C8;stroke-width:2;stroke-linecap:round;stroke-linejoin:round;stroke-miterlimit:10;}
	.st39{fill:none;stroke:#FF7E51;stroke-width:2;stroke-linecap:round;stroke-linejoin:round;stroke-miterlimit:10;}
	.st40{fill:none;stroke:#E2E6E6;stroke-width:2;stroke-linecap:round;stroke-linejoin:round;stroke-miterlimit:10;}
	.st41{fill:#A3D5D0;}
	.st42{fill:#FF804C;}
	.st43{fill:none;stroke:#BEC8C8;stroke-width:2;stroke-linecap:round;stroke-linejoin:round;stroke-miterlimit:10;}
	.st44{fill:#0047BF;stroke:#0047BF;stroke-width:2;stroke-linecap:round;stroke-linejoin:round;stroke-miterlimit:10;}
	.st45{fill:#FF804C;stroke:#FF804C;stroke-width:2;stroke-linecap:round;stroke-linejoin:round;stroke-miterlimit:10;}
	.st46{fill:none;stroke:#FFFFFF;stroke-width:1.5;stroke-linecap:round;stroke-linejoin:round;stroke-miterlimit:10;}
	.st47{fill:#0041BD;stroke:#FF804C;stroke-width:1.5;stroke-linecap:round;stroke-linejoin:round;stroke-miterlimit:10;}
	.st48{fill:none;stroke:#FF704C;stroke-width:1.5;stroke-linecap:round;stroke-linejoin:round;stroke-miterlimit:10;}
	.st49{fill:none;stroke:#FF804C;stroke-width:1.5;stroke-linecap:round;stroke-linejoin:round;stroke-miterlimit:10;}
	.st50{fill:none;stroke:#A3D5D0;stroke-width:1.4377;stroke-linecap:round;stroke-linejoin:round;stroke-miterlimit:10;}
	.st51{fill:#0041BD;stroke:#A3D5D0;stroke-width:1.5;stroke-linecap:round;stroke-linejoin:round;stroke-miterlimit:10;}
	.st52{fill:#0041BD;stroke:#F1D439;stroke-width:1.5;stroke-linecap:round;stroke-linejoin:round;stroke-miterlimit:10;}
	.st53{fill:none;stroke:#F1D439;stroke-width:1.5;stroke-linecap:round;stroke-linejoin:round;stroke-miterlimit:10;}
	.st54{fill:none;}
	.st55{fill:none;stroke:#96D5CE;stroke-width:1.4377;stroke-linecap:round;stroke-linejoin:round;stroke-miterlimit:10;}
	.st56{fill:none;stroke:#0047BF;stroke-width:1.5;stroke-linecap:round;stroke-linejoin:round;stroke-miterlimit:10;}
	.st57{fill:#0047BF;stroke:#FF704C;stroke-width:2;stroke-linecap:round;stroke-linejoin:round;stroke-miterlimit:10;}
	.st58{fill:#0047BF;stroke:#FF804C;stroke-width:2;stroke-linecap:round;stroke-linejoin:round;stroke-miterlimit:10;}
	.st59{fill:#0047BF;stroke:#E2E6E6;stroke-width:2;stroke-linecap:round;stroke-linejoin:round;stroke-miterlimit:10;}
	.st60{fill:#0047BF;stroke:#A3D5D0;stroke-width:2;stroke-linecap:round;stroke-linejoin:round;stroke-miterlimit:10;}
	.st61{fill:#0047BF;stroke:#F1D439;stroke-width:2;stroke-linecap:round;stroke-linejoin:round;stroke-miterlimit:10;}
	.st62{fill:#0041BD;stroke:#E2E6E6;stroke-width:2;stroke-linecap:round;stroke-linejoin:round;stroke-miterlimit:10;}
	.st63{fill:#E2E6E6;}
	.st64{fill:none;stroke:#0047BF;stroke-width:1.4377;stroke-linecap:round;stroke-linejoin:round;stroke-miterlimit:10;}
	.st65{fill:#0047BF;stroke:#A3D5D0;stroke-width:1.5;stroke-linecap:round;stroke-linejoin:round;stroke-miterlimit:10;}
	.st66{fill:none;stroke:#E2E6E6;stroke-width:1.5;stroke-linecap:round;stroke-linejoin:round;stroke-miterlimit:10;}
	.st67{fill:#0047BF;stroke:#FF704C;stroke-width:1.5;stroke-linecap:round;stroke-linejoin:round;stroke-miterlimit:10;}
	.st68{fill:#0047BF;stroke:#FF804C;stroke-width:1.5;stroke-linecap:round;stroke-linejoin:round;stroke-miterlimit:10;}
	.st69{fill:#0047BF;stroke:#F1D439;stroke-width:1.5;stroke-linecap:round;stroke-linejoin:round;stroke-miterlimit:10;}
	.st70{fill:#0041BD;stroke:#0047BF;stroke-width:2;stroke-linecap:round;stroke-linejoin:round;stroke-miterlimit:10;}
	.st71{fill:#FF7E51;}
	.st72{fill:#96D5CE;}
	.st73{fill:#B5C0C0;}
	.st74{fill:#FFDD20;}
	
		.st75{fill:none;stroke:#FFFFFF;stroke-width:2;stroke-linecap:round;stroke-linejoin:round;stroke-miterlimit:10;stroke-dasharray:15,5;}
	.st76{opacity:0.74;fill:#0041BD;}
	.st77{fill:none;stroke:#FFFFFF;stroke-width:2;stroke-linecap:round;stroke-linejoin:round;stroke-dasharray:14.7582,4.9194;}
	.st78{fill:none;stroke:#B5C0C0;stroke-width:2;stroke-linecap:round;stroke-linejoin:round;stroke-miterlimit:10;}
	.st79{fill:#0047BF;stroke:#B5C0C0;stroke-width:2;stroke-linecap:round;stroke-linejoin:round;stroke-miterlimit:10;}
	.st80{fill:#00FF00;}
	.st81{fill:#00ACE4;}
	.st82{fill:#0047BF;stroke:#96D5CE;stroke-width:2;stroke-linecap:round;stroke-linejoin:round;stroke-miterlimit:10;}
	.st83{fill:#0047BF;stroke:#FFFFFF;stroke-width:2;stroke-linecap:round;stroke-linejoin:round;stroke-miterlimit:10;}
	.st84{fill:none;stroke:#FFFFFF;stroke-width:0.75;stroke-linecap:round;stroke-linejoin:round;stroke-miterlimit:10;}
	.st85{fill:none;stroke:#FF7E51;stroke-width:1.5;stroke-linecap:round;stroke-linejoin:round;stroke-miterlimit:10;}
	.st86{fill:#0B0069;stroke:#FFFFFF;stroke-width:1.5;stroke-linecap:round;stroke-linejoin:round;stroke-miterlimit:10;}
	.st87{fill:none;stroke:#FF804C;stroke-width:1.9599;stroke-linecap:round;stroke-linejoin:round;stroke-miterlimit:10;}
</style>
<g>
	<path class="st5" d="M111.6,93.4c-0.2,0-0.4-0.1-0.6-0.2c-0.4-0.3-0.5-1-0.2-1.4l5.1-6.5h-34c-0.6,0-1-0.4-1-1s0.4-1,1-1h36
		c0.4,0,0.7,0.2,0.9,0.6s0.1,0.8-0.1,1.1l-6.3,8.2C112.2,93.3,111.9,93.4,111.6,93.4z"/>
</g>
<g>
	<g>
		<path class="st41" d="M74,118.6c-0.2,0-0.4-0.1-0.5-0.2c-0.3-0.3-0.3-0.7-0.1-1c0-0.2-0.1-0.6-0.2-0.9c-0.1-0.3-0.1-0.6,0.2-0.9
			c0.2-0.2,0.6-0.3,0.9-0.1l3,1.7c0.4,0.2,0.5,0.7,0.3,1c-0.2,0.4-0.7,0.5-1,0.3l-1.6-0.9c0,0.3-0.1,0.6-0.3,0.8
			C74.4,118.5,74.2,118.6,74,118.6z"/>
	</g>
	<g>
		<path class="st41" d="M64.9,120.1c-0.2,0-0.4-0.1-0.5-0.2c-0.3-0.3-0.3-0.8,0-1.1l1.2-1.1c0.2-0.2,0.5-0.3,0.8-0.1
			c0,0,1,0.4,1.3,0.6c0.4,0.2,0.5,0.6,0.3,1c-0.2,0.4-0.6,0.5-1,0.3c-0.2-0.1-0.5-0.3-0.8-0.4l-0.8,0.8
			C65.2,120,65,120.1,64.9,120.1z"/>
	</g>
	<g>
		<path class="st41" d="M70.1,119.1c-0.2,0-0.4-0.1-0.5-0.2c-0.3-0.3-0.3-0.8,0-1.1c0.1-0.1,0-0.4-0.2-0.6c-0.2-0.3-0.2-0.7,0-0.9
			c0.2-0.3,0.6-0.3,0.9-0.2l2.6,1.2c0.4,0.2,0.5,0.6,0.4,1s-0.6,0.5-1,0.4l-1.2-0.6c-0.1,0.3-0.2,0.5-0.4,0.7
			C70.5,119,70.3,119.1,70.1,119.1z"/>
	</g>
	<g>
		<path class="st41" d="M75,123.9c-0.1,0-0.2,0-0.3,0c-0.5,0-3.6-0.4-6.7-1.7c-0.4-0.2-0.6-0.6-0.4-1c0.2-0.4,0.6-0.5,1-0.4
			c3.1,1.3,6.2,1.6,6.3,1.6c0,0,0,0,0,0l1.2-0.8c0.4-0.2,0.8-0.1,1,0.2c0.2,0.4,0.1,0.8-0.2,1l-1.3,0.8
			C75.4,123.8,75.2,123.9,75,123.9z"/>
	</g>
	<g>
		<path class="st41" d="M60.1,122.4c-0.4,0-0.8-0.3-0.8-0.8v-3c0-0.4,0.4-0.8,0.8-0.7c1.6,0,3.1,0.5,3.7,1.2
			c0.2,0.2,0.3,0.5,0.2,0.8c0,0,0.1,0.1,0.1,0.1c0.3,0.3,0.3,0.8,0,1.1c-0.9,0.9-2.2,1.4-4,1.4C60.2,122.4,60.1,122.4,60.1,122.4z
			 M60.9,119.4v1.4c0.8-0.1,1.5-0.3,2-0.7c0,0,0,0-0.1-0.1C62.6,119.8,61.8,119.5,60.9,119.4z"/>
	</g>
	<g>
		<path class="st41" d="M66.8,122.7c-0.2,0-0.3,0-0.4-0.1l-1.6-1.1c-0.3-0.2-0.4-0.7-0.2-1c0.2-0.3,0.7-0.4,1-0.2l1.2,0.9l0.4-0.2
			c0.4-0.2,0.8-0.1,1,0.3c0.2,0.4,0.1,0.8-0.3,1l-0.8,0.4C67,122.7,66.9,122.7,66.8,122.7z"/>
	</g>
	<g>
		<path class="st5" d="M74.5,122.9c-3.6,0-9.4-1.3-11.7-1.9c-0.4-0.1-0.7-0.5-0.7-0.9c0-0.4,0.3-0.8,0.7-0.9
			c2.3-0.6,8.1-1.9,11.7-1.9c4.9,0,9.4,2,9.6,2.1c0.3,0.1,0.5,0.5,0.4,0.8c0,0.4-0.1,0.8-4.2,1.8l-0.2,0
			C79,122.4,77.2,122.9,74.5,122.9z M65.4,120.1c2.7,0.6,6.5,1.3,9.1,1.3c2.4,0,4.2-0.5,5.3-0.8l0.2,0c0.2-0.1,0.9-0.3,1.7-0.5
			c-1.7-0.6-4.4-1.3-7.1-1.3C72,118.8,68.2,119.5,65.4,120.1z"/>
	</g>
</g>
<g>
	<g>
		<path class="st41" d="M93.4,108.8c-0.2,0-0.4-0.1-0.5-0.2c-0.3-0.3-0.3-0.7-0.1-1c0-0.2-0.1-0.6-0.2-0.9c-0.1-0.3-0.1-0.6,0.2-0.9
			c0.2-0.2,0.6-0.3,0.9-0.1l3,1.7c0.4,0.2,0.5,0.7,0.3,1c-0.2,0.4-0.7,0.5-1,0.3l-1.6-0.9c0,0.3-0.1,0.6-0.3,0.8
			C93.8,108.7,93.6,108.8,93.4,108.8z"/>
	</g>
	<g>
		<path class="st41" d="M84.2,110.2c-0.2,0-0.4-0.1-0.5-0.2c-0.3-0.3-0.3-0.8,0-1.1l1.2-1.1c0.2-0.2,0.5-0.3,0.8-0.1
			c0,0,1,0.4,1.3,0.6c0.4,0.2,0.5,0.6,0.3,1c-0.2,0.4-0.6,0.5-1,0.3c-0.2-0.1-0.5-0.3-0.8-0.4l-0.8,0.8
			C84.5,110.2,84.4,110.2,84.2,110.2z"/>
	</g>
	<g>
		<path class="st41" d="M89.4,109.2c-0.2,0-0.4-0.1-0.5-0.2c-0.3-0.3-0.3-0.8,0-1.1c0.1-0.1,0-0.4-0.2-0.6c-0.2-0.3-0.2-0.7,0-0.9
			c0.2-0.3,0.6-0.3,0.9-0.2l2.6,1.2c0.4,0.2,0.5,0.6,0.4,1c-0.2,0.4-0.6,0.5-1,0.4l-1.2-0.6c-0.1,0.3-0.2,0.5-0.4,0.7
			C89.8,109.2,89.6,109.2,89.4,109.2z"/>
	</g>
	<g>
		<path class="st41" d="M94.3,114.1c-0.1,0-0.2,0-0.3,0c-0.5,0-3.6-0.4-6.7-1.7c-0.4-0.2-0.6-0.6-0.4-1c0.2-0.4,0.6-0.5,1-0.4
			c3.1,1.3,6.2,1.6,6.3,1.6c0,0,0,0,0,0l1.2-0.8c0.4-0.2,0.8-0.1,1,0.2c0.2,0.4,0.1,0.8-0.2,1l-1.3,0.8
			C94.8,114,94.5,114.1,94.3,114.1z"/>
	</g>
	<g>
		<path class="st41" d="M79.4,112.5c-0.4,0-0.8-0.3-0.8-0.8v-3c0-0.4,0.4-0.8,0.8-0.7c1.6,0,3.1,0.5,3.7,1.2
			c0.2,0.2,0.3,0.5,0.2,0.8c0,0,0.1,0.1,0.1,0.1c0.3,0.3,0.3,0.8,0,1.1c-0.9,0.9-2.2,1.4-4,1.4C79.5,112.5,79.5,112.5,79.4,112.5z
			 M80.2,109.6v1.4c0.8-0.1,1.5-0.3,2-0.7c0,0,0,0-0.1-0.1C81.9,110,81.2,109.7,80.2,109.6z"/>
	</g>
	<g>
		<path class="st41" d="M86.1,112.9c-0.2,0-0.3,0-0.4-0.1l-1.6-1.1c-0.3-0.2-0.4-0.7-0.2-1c0.2-0.3,0.7-0.4,1-0.2l1.2,0.9l0.4-0.2
			c0.4-0.2,0.8-0.1,1,0.3c0.2,0.4,0.1,0.8-0.3,1l-0.8,0.4C86.3,112.9,86.2,112.9,86.1,112.9z"/>
	</g>
	<g>
		<path class="st5" d="M93.9,113.1c-3.6,0-9.4-1.3-11.7-1.9c-0.4-0.1-0.7-0.5-0.7-0.9c0-0.4,0.3-0.8,0.7-0.9
			c2.3-0.6,8.1-1.9,11.7-1.9c4.9,0,9.4,2,9.6,2.1c0.3,0.1,0.5,0.5,0.4,0.8c0,0.4-0.1,0.8-4.2,1.8l-0.2,0
			C98.3,112.6,96.5,113.1,93.9,113.1z M84.8,110.3c2.7,0.6,6.5,1.3,9.1,1.3c2.4,0,4.2-0.5,5.3-0.8l0.2,0c0.2-0.1,0.9-0.3,1.7-0.5
			c-1.7-0.6-4.4-1.3-7.1-1.3C91.3,109,87.5,109.7,84.8,110.3z"/>
	</g>
</g>
<g>
	<g>
		<path class="st41" d="M104.8,118.6c-0.2,0-0.4-0.1-0.5-0.2c-0.3-0.3-0.3-0.7-0.1-1c0-0.2-0.1-0.6-0.2-0.9
			c-0.1-0.3-0.1-0.6,0.2-0.9c0.2-0.2,0.6-0.3,0.9-0.1l3,1.7c0.4,0.2,0.5,0.7,0.3,1c-0.2,0.4-0.7,0.5-1,0.3l-1.6-0.9
			c0,0.3-0.1,0.6-0.3,0.8C105.2,118.5,105,118.6,104.8,118.6z"/>
	</g>
	<g>
		<path class="st41" d="M95.6,120.1c-0.2,0-0.4-0.1-0.5-0.2c-0.3-0.3-0.3-0.8,0-1.1l1.2-1.1c0.2-0.2,0.5-0.3,0.8-0.1
			c0,0,1,0.4,1.3,0.6c0.4,0.2,0.5,0.6,0.3,1c-0.2,0.4-0.6,0.5-1,0.3c-0.2-0.1-0.5-0.3-0.8-0.4l-0.8,0.8
			C96,120,95.8,120.1,95.6,120.1z"/>
	</g>
	<g>
		<path class="st41" d="M100.9,119.1c-0.2,0-0.4-0.1-0.5-0.2c-0.3-0.3-0.3-0.8,0-1.1c0.1-0.1,0-0.4-0.2-0.6c-0.2-0.3-0.2-0.7,0-0.9
			c0.2-0.3,0.6-0.3,0.9-0.2l2.6,1.2c0.4,0.2,0.5,0.6,0.4,1s-0.6,0.5-1,0.4l-1.2-0.6c-0.1,0.3-0.2,0.5-0.4,0.7
			C101.3,119,101.1,119.1,100.9,119.1z"/>
	</g>
	<g>
		<path class="st41" d="M105.7,123.9c-0.1,0-0.2,0-0.3,0c-0.5,0-3.6-0.4-6.7-1.7c-0.4-0.2-0.6-0.6-0.4-1c0.2-0.4,0.6-0.5,1-0.4
			c3.1,1.3,6.2,1.6,6.3,1.6c0,0,0,0,0,0l1.2-0.8c0.4-0.2,0.8-0.1,1,0.2c0.2,0.4,0.1,0.8-0.2,1l-1.3,0.8
			C106.2,123.8,106,123.9,105.7,123.9z"/>
	</g>
	<g>
		<path class="st41" d="M90.9,122.4c-0.4,0-0.8-0.3-0.8-0.8v-3c0-0.4,0.4-0.8,0.8-0.7c1.6,0,3.1,0.5,3.7,1.2
			c0.2,0.2,0.3,0.5,0.2,0.8c0,0,0.1,0.1,0.1,0.1c0.3,0.3,0.3,0.8,0,1.1c-0.9,0.9-2.2,1.4-4,1.4C90.9,122.4,90.9,122.4,90.9,122.4z
			 M91.6,119.4v1.4c0.8-0.1,1.5-0.3,2-0.7c0,0,0,0-0.1-0.1C93.3,119.8,92.6,119.5,91.6,119.4z"/>
	</g>
	<g>
		<path class="st41" d="M97.5,122.7c-0.2,0-0.3,0-0.4-0.1l-1.6-1.1c-0.3-0.2-0.4-0.7-0.2-1c0.2-0.3,0.7-0.4,1-0.2l1.2,0.9l0.4-0.2
			c0.4-0.2,0.8-0.1,1,0.3c0.2,0.4,0.1,0.8-0.3,1l-0.8,0.4C97.8,122.7,97.7,122.7,97.5,122.7z"/>
	</g>
	<g>
		<path class="st5" d="M105.3,122.9c-3.6,0-9.4-1.3-11.7-1.9c-0.4-0.1-0.7-0.5-0.7-0.9c0-0.4,0.3-0.8,0.7-0.9
			c2.3-0.6,8.1-1.9,11.7-1.9c4.9,0,9.4,2,9.6,2.1c0.3,0.1,0.5,0.5,0.4,0.8c0,0.4-0.1,0.8-4.2,1.8l-0.2,0
			C109.8,122.4,107.9,122.9,105.3,122.9z M96.2,120.1c2.7,0.6,6.5,1.3,9.1,1.3c2.4,0,4.2-0.5,5.3-0.8l0.2,0c0.2-0.1,0.9-0.3,1.7-0.5
			c-1.7-0.6-4.4-1.3-7.1-1.3C102.7,118.8,98.9,119.5,96.2,120.1z"/>
	</g>
</g>
<g>
	<path class="st8" d="M79.2,62.2c-0.5,0-0.9-0.3-1-0.8l-2.4-11c-0.1-0.5,0.2-1.1,0.8-1.2c0.5-0.1,1.1,0.2,1.2,0.8l2.4,11
		c0.1,0.5-0.2,1.1-0.8,1.2C79.3,62.2,79.2,62.2,79.2,62.2z"/>
</g>
<g>
	<path class="st8" d="M81.2,58.5h-5.7c-0.6,0-1-0.4-1-1s0.4-1,1-1h5.7c0.6,0,1,0.4,1,1S81.8,58.5,81.2,58.5z"/>
</g>
<g>
	<path class="st5" d="M117.7,66.7h-4.7c-0.6,0-1-0.4-1-1s0.4-1,1-1h4.7c0.6,0,1,0.4,1,1S118.2,66.7,117.7,66.7z"/>
</g>
<g>
	<path class="st5" d="M77.1,72.6c-0.5,0-0.9-0.4-1-0.9l-0.5-4.4c-0.1-0.5,0.3-1,0.9-1.1c0.6-0.1,1,0.3,1.1,0.9l0.5,4.4
		c0.1,0.5-0.3,1-0.9,1.1C77.2,72.6,77.1,72.6,77.1,72.6z"/>
</g>
<g>
	<path class="st5" d="M81,72.6c0,0-0.1,0-0.1,0c-0.5-0.1-0.9-0.5-0.9-1.1l0.5-4.4c0.1-0.5,0.5-0.9,1.1-0.9c0.5,0.1,0.9,0.5,0.9,1.1
		L82,71.7C81.9,72.2,81.5,72.6,81,72.6z"/>
</g>
<g>
	<path class="st5" d="M84.4,73.8H63.4c-0.6,0-1-0.4-1-1s0.4-1,1-1h21.1c0.6,0,1,0.4,1,1S85,73.8,84.4,73.8z"/>
</g>
<g>
	<path class="st8" d="M79.6,55.1h-4c-0.6,0-1-0.4-1-1s0.4-1,1-1h4c0.6,0,1,0.4,1,1S80.1,55.1,79.6,55.1z"/>
</g>
<g>
	<path class="st8" d="M76.3,44.9c-1.6,0-2.9,1.3-2.9,3s1.3,3,2.9,3c1.6,0,2.9-1.3,2.9-3S77.9,44.9,76.3,44.9z M76.3,49.3
		c-0.8,0-1.4-0.7-1.4-1.5c0-0.8,0.6-1.5,1.4-1.5c0.8,0,1.4,0.7,1.4,1.5C77.7,48.7,77.1,49.3,76.3,49.3z"/>
</g>
<g>
	<path class="st5" d="M120.1,96.1c-0.2,0-0.5-0.1-0.7-0.3c-0.4-0.4-0.4-1-0.1-1.4l15.8-17.1l-22.5,2.8c0,0-0.1,0-0.1,0l-58.3,0.1
		c0,0,0,0,0,0c-0.2,0-0.5-0.1-0.6-0.2l-2.1-1.8h-7.6v10l6.5,5.5c0.4,0.4,0.5,1,0.1,1.4c-0.4,0.4-1,0.5-1.4,0.1l-6.9-5.8
		c-0.2-0.2-0.4-0.5-0.4-0.8V77.2c0-0.6,0.4-1,1-1h9c0.2,0,0.5,0.1,0.6,0.2l2.1,1.8l57.9-0.1l25.1-3.1c0.4-0.1,0.8,0.2,1,0.5
		c0.2,0.4,0.1,0.8-0.2,1.1l-17.7,19.1C120.6,96,120.3,96.1,120.1,96.1z"/>
</g>
<g>
	<path class="st5" d="M117.1,75c-0.5,0-0.9-0.3-1-0.8l-2.5-12c-0.1-0.5,0.2-1.1,0.8-1.2c0.5-0.1,1.1,0.2,1.2,0.8l2.5,12
		c0.1,0.5-0.2,1.1-0.8,1.2C117.2,75,117.1,75,117.1,75z"/>
</g>
<g>
	<path class="st5" d="M118.4,70.6h-4.7c-0.6,0-1-0.4-1-1s0.4-1,1-1h4.7c0.6,0,1,0.4,1,1S119,70.6,118.4,70.6z"/>
</g>
<g>
	<path class="st5" d="M86.5,80c-0.4,0-0.8-0.3-1-0.7l-2.1-6.6c-0.2-0.5,0.1-1.1,0.7-1.3c0.5-0.2,1.1,0.1,1.3,0.7l2.1,6.6
		c0.2,0.5-0.1,1.1-0.7,1.3C86.7,80,86.6,80,86.5,80z"/>
</g>
<g>
	<path class="st5" d="M62.7,79.1c-0.6,0-1-0.4-1-1V64.8c0-0.6,0.4-1,1-1h2.9c0.4,0,0.8,0.3,0.9,0.6l2.9,7.6c0.2,0.5-0.1,1.1-0.6,1.3
		c-0.5,0.2-1.1-0.1-1.3-0.6l-2.7-6.9h-1.2v12.4C63.7,78.7,63.3,79.1,62.7,79.1z"/>
</g>
<g>
	<path class="st5" d="M109.6,80.1c-0.6,0-1-0.4-1-1V74c0-0.6,0.4-1,1-1h14c0.4,0,0.8,0.3,0.9,0.7l1.3,3.6c0.2,0.5-0.1,1.1-0.6,1.3
		c-0.5,0.2-1.1-0.1-1.3-0.6l-1-2.9h-12.3v4.1C110.6,79.7,110.2,80.1,109.6,80.1z"/>
</g>
<g>
	<path class="st5" d="M84.4,73.3c-0.1,0-0.2,0-0.4-0.1c-0.5-0.2-0.8-0.8-0.6-1.3l1.6-4.2H72.9l1.7,4.2c0.2,0.5,0,1.1-0.6,1.3
		c-0.5,0.2-1.1,0-1.3-0.6l-2.2-5.5c-0.1-0.3-0.1-0.7,0.1-0.9c0.2-0.3,0.5-0.4,0.8-0.4h15.1c0.3,0,0.6,0.2,0.8,0.4
		c0.2,0.3,0.2,0.6,0.1,0.9l-2.1,5.5C85.2,73.1,84.8,73.3,84.4,73.3z"/>
</g>
<g>
	<path class="st5" d="M45.8,77.7c-0.4,0-0.7-0.2-0.9-0.6L42.1,71C42,70.8,42,70.7,42,70.6V62c0-0.6,0.4-1,1-1h5.6c0.6,0,1,0.4,1,1
		v3.7c0,0.1,0,0.2-0.1,0.3l-1.7,4.8l2.3,5.3c0.2,0.5,0,1.1-0.5,1.3c-0.5,0.2-1.1,0-1.3-0.5l-2.5-5.6c-0.1-0.2-0.1-0.5,0-0.7l1.8-5
		V63H44v7.3l2.7,6c0.2,0.5,0,1.1-0.5,1.3C46.1,77.7,45.9,77.7,45.8,77.7z"/>
</g>
<g>
	<path class="st5" d="M83.2,62.4h-9.7c-0.6,0-1-0.4-1-1s0.4-1,1-1h9.7c0.6,0,1,0.4,1,1S83.8,62.4,83.2,62.4z"/>
</g>
<g>
	<path class="st5" d="M76.1,67.1c-0.5,0-0.9-0.4-1-0.9l-0.5-4.3c-0.1-0.5,0.3-1,0.9-1.1c0.6-0.1,1,0.3,1.1,0.9l0.5,4.3
		c0.1,0.5-0.3,1-0.9,1.1C76.2,67.1,76.2,67.1,76.1,67.1z"/>
</g>
<g>
	<path class="st5" d="M81,67.1c0,0-0.1,0-0.1,0C80.3,67,79.9,66.5,80,66l0.5-4.3c0.1-0.5,0.5-0.9,1.1-0.9c0.5,0.1,0.9,0.6,0.9,1.1
		L82,66.2C81.9,66.7,81.5,67.1,81,67.1z"/>
</g>
<g>
	<path class="st42" d="M109.7,131H66.3c-4.1,0-8.2-1.8-11-4.8c-2.4-2.6-3.6-5.7-3.4-8.9c0.3-4.3,2.8-8.4,6.8-10.8l1.7-1.1
		c2-1.2,4.1-2.2,6.3-3.1c0.5-0.2,1.1,0.1,1.3,0.6c0.2,0.5-0.1,1.1-0.6,1.3c-2.1,0.8-4.1,1.7-5.9,2.9l-1.7,1.1
		c-3.5,2.1-5.7,5.6-5.9,9.3c-0.2,2.7,0.9,5.3,2.9,7.5c2.4,2.6,6,4.1,9.6,4.1h43.4c3.6,0,7.3-1.6,9.8-4.2c2-2,3.1-4.5,3.1-7
		c0-3.9-2.1-7.5-5.5-9.6c-6.5-4-14.7-6.3-22.4-6.3H84.4c-0.5,0-1-0.4-1-1s0.4-1,1-1h10.2c8.1,0,16.7,2.4,23.5,6.6
		c4,2.5,6.4,6.6,6.4,11.2c0,3-1.3,6-3.6,8.4C118,129.3,113.8,131,109.7,131z"/>
</g>
<g>
	<path class="st41" d="M139.7,96.1c-2.6,0-3.9-0.8-5.1-1.5c-1.1-0.6-2.1-1.2-4.1-1.2s-3,0.6-4.1,1.2c-1.2,0.7-2.5,1.5-5.1,1.5
		c-2.6,0-3.9-0.8-5.1-1.5c-1.1-0.6-2.1-1.2-4.1-1.2c-2,0-3,0.6-4.1,1.2c-1.2,0.7-2.5,1.5-5.1,1.5c-2.6,0-3.9-0.8-5.1-1.5
		c-1.1-0.6-2.1-1.2-4.1-1.2c-2,0-3,0.6-4.1,1.2c-1.2,0.7-2.5,1.5-5.1,1.5s-3.9-0.8-5.1-1.5c-1.1-0.6-2.1-1.2-4.1-1.2
		c-2,0-3,0.6-4.1,1.2c-1.2,0.7-2.5,1.5-5.1,1.5c-2.6,0-3.9-0.8-5.1-1.5c-1.1-0.6-2.1-1.2-4.1-1.2s-3,0.6-4.1,1.2
		c-1.2,0.7-2.5,1.5-5.1,1.5c-2.6,0-3.9-0.8-5.1-1.5c-1.1-0.6-2.1-1.2-4.1-1.2c-2,0-3,0.6-4.1,1.2c-1.2,0.7-2.5,1.5-5.1,1.5
		c-0.6,0-1-0.4-1-1s0.4-1,1-1c2,0,3-0.6,4.1-1.2c1.2-0.7,2.5-1.5,5.1-1.5s3.9,0.8,5.1,1.5c1.1,0.6,2.1,1.2,4.1,1.2s3-0.6,4.1-1.2
		c1.2-0.7,2.5-1.5,5.1-1.5c2.6,0,3.9,0.8,5.1,1.5c1.1,0.6,2.1,1.2,4.1,1.2s3-0.6,4.1-1.2c1.2-0.7,2.5-1.5,5.1-1.5
		c2.6,0,3.9,0.8,5.1,1.5c1.1,0.6,2.1,1.2,4.1,1.2c2,0,3-0.6,4.1-1.2c1.2-0.7,2.5-1.5,5.1-1.5s3.9,0.8,5.1,1.5
		c1.1,0.6,2.1,1.2,4.1,1.2c2,0,3-0.6,4.1-1.2c1.2-0.7,2.5-1.5,5.1-1.5s3.9,0.8,5.1,1.5c1.1,0.6,2.1,1.2,4.1,1.2c2,0,3-0.6,4.1-1.2
		c1.2-0.7,2.5-1.5,5.1-1.5c2.6,0,3.9,0.8,5.1,1.5c1.1,0.6,2.1,1.2,4.1,1.2c0.6,0,1,0.4,1,1S140.3,96.1,139.7,96.1z"/>
</g>
<g>
	<path class="st41" d="M139.7,141.1c-2.6,0-3.9-0.8-5.1-1.5c-1.1-0.6-2.1-1.2-4.1-1.2s-3,0.6-4.1,1.2c-1.2,0.7-2.5,1.5-5.1,1.5
		c-2.6,0-3.9-0.8-5.1-1.5c-1.1-0.6-2.1-1.2-4.1-1.2c-2,0-3,0.6-4.1,1.2c-1.2,0.7-2.5,1.5-5.1,1.5c-2.6,0-3.9-0.8-5.1-1.5
		c-1.1-0.6-2.1-1.2-4.1-1.2c-2,0-3,0.6-4.1,1.2c-1.2,0.7-2.5,1.5-5.1,1.5s-3.9-0.8-5.1-1.5c-1.1-0.6-2.1-1.2-4.1-1.2
		c-2,0-3,0.6-4.1,1.2c-1.2,0.7-2.5,1.5-5.1,1.5c-2.6,0-3.9-0.8-5.1-1.5c-1.1-0.6-2.1-1.2-4.1-1.2s-3,0.6-4.1,1.2
		c-1.2,0.7-2.5,1.5-5.1,1.5c-2.6,0-3.9-0.8-5.1-1.5c-1.1-0.6-2.1-1.2-4.1-1.2c-2,0-3,0.6-4.1,1.2c-1.2,0.7-2.5,1.5-5.1,1.5
		c-0.6,0-1-0.4-1-1s0.4-1,1-1c2,0,3-0.6,4.1-1.2c1.2-0.7,2.5-1.5,5.1-1.5s3.9,0.8,5.1,1.5c1.1,0.6,2.1,1.2,4.1,1.2s3-0.6,4.1-1.2
		c1.2-0.7,2.5-1.5,5.1-1.5c2.6,0,3.9,0.8,5.1,1.5c1.1,0.6,2.1,1.2,4.1,1.2s3-0.6,4.1-1.2c1.2-0.7,2.5-1.5,5.1-1.5
		c2.6,0,3.9,0.8,5.1,1.5c1.1,0.6,2.1,1.2,4.1,1.2c2,0,3-0.6,4.1-1.2c1.2-0.7,2.5-1.5,5.1-1.5s3.9,0.8,5.1,1.5
		c1.1,0.6,2.1,1.2,4.1,1.2c2,0,3-0.6,4.1-1.2c1.2-0.7,2.5-1.5,5.1-1.5s3.9,0.8,5.1,1.5c1.1,0.6,2.1,1.2,4.1,1.2c2,0,3-0.6,4.1-1.2
		c1.2-0.7,2.5-1.5,5.1-1.5c2.6,0,3.9,0.8,5.1,1.5c1.1,0.6,2.1,1.2,4.1,1.2c0.6,0,1,0.4,1,1S140.3,141.1,139.7,141.1z"/>
</g>
<g>
	<path class="st41" d="M139.7,129.9c-2.6,0-3.9-0.8-5.1-1.5c-1.1-0.6-2.1-1.2-4.1-1.2c-1.9,0-2.8,0.5-3.9,1
		c-0.5,0.3-1.1,0.1-1.4-0.4c-0.3-0.5-0.1-1.1,0.4-1.4c1.2-0.7,2.5-1.3,4.8-1.3c2.6,0,3.9,0.8,5.1,1.5c1.1,0.6,2.1,1.2,4.1,1.2
		c0.6,0,1,0.4,1,1S140.3,129.9,139.7,129.9z"/>
</g>
<g>
	<path class="st41" d="M47.6,129.9c-2.6,0-3.9-0.8-5.1-1.5c-1.1-0.6-2.1-1.2-4.1-1.2c-2,0-3,0.6-4.1,1.2c-1.2,0.7-2.5,1.5-5.1,1.5
		c-0.6,0-1-0.4-1-1s0.4-1,1-1c2,0,3-0.6,4.1-1.2c1.2-0.7,2.5-1.5,5.1-1.5s3.9,0.8,5.1,1.5c1.1,0.6,2.1,1.2,4.1,1.2
		c0.9,0,1.7-0.1,2.4-0.4c0.5-0.2,1.1,0.1,1.3,0.6c0.2,0.5-0.1,1.1-0.6,1.3C49.7,129.7,48.7,129.9,47.6,129.9z"/>
</g>
<g>
	<path class="st41" d="M139.7,118.6c-2.6,0-3.9-0.8-5.1-1.5c-1.1-0.6-2.1-1.2-4.1-1.2c-0.5,0-0.9,0-1.3,0.1
		c-0.5,0.1-1.1-0.3-1.1-0.8c-0.1-0.5,0.3-1.1,0.8-1.1c0.5-0.1,1-0.1,1.6-0.1c2.6,0,3.9,0.8,5.1,1.5c1.1,0.6,2.1,1.2,4.1,1.2
		c0.6,0,1,0.4,1,1S140.3,118.6,139.7,118.6z"/>
</g>
<g>
	<path class="st41" d="M29.2,118.6c-0.6,0-1-0.4-1-1s0.4-1,1-1c2,0,3-0.6,4.1-1.2c1.2-0.7,2.5-1.5,5.1-1.5s3.9,0.8,5.1,1.5
		c0.9,0.5,1.7,1,3,1.1c0.5,0.1,0.9,0.6,0.9,1.1c-0.1,0.5-0.6,0.9-1.1,0.9c-1.7-0.2-2.8-0.8-3.7-1.4c-1.1-0.6-2.1-1.2-4.1-1.2
		c-2,0-3,0.6-4.1,1.2C33.1,117.8,31.7,118.6,29.2,118.6z"/>
</g>
<g>
	<path class="st41" d="M139.7,107.4c-2.6,0-3.9-0.8-5.1-1.5c-1.1-0.6-2.1-1.2-4.1-1.2c-2,0-3,0.6-4.1,1.2l-0.2,0.1
		c-0.5,0.3-1.1,0.1-1.4-0.4c-0.3-0.5-0.1-1.1,0.4-1.4l0.2-0.1c1.2-0.7,2.5-1.5,5.1-1.5c2.6,0,3.9,0.8,5.1,1.5
		c1.1,0.6,2.1,1.2,4.1,1.2c0.6,0,1,0.4,1,1S140.3,107.4,139.7,107.4z"/>
</g>
<g>
	<path class="st41" d="M47.6,107.4c-2.6,0-3.9-0.8-5.1-1.5c-1.1-0.6-2.1-1.2-4.1-1.2c-2,0-3,0.6-4.1,1.2c-1.2,0.7-2.5,1.5-5.1,1.5
		c-0.6,0-1-0.4-1-1s0.4-1,1-1c2,0,3-0.6,4.1-1.2c1.2-0.7,2.5-1.5,5.1-1.5s3.9,0.8,5.1,1.5c1.1,0.6,2.1,1.2,4.1,1.2
		c1.8,0,2.8-0.5,3.7-1c0.5-0.3,1.1-0.1,1.4,0.4c0.3,0.5,0.1,1.1-0.4,1.4C51.2,106.7,49.9,107.4,47.6,107.4z"/>
</g>
<g>
	<path class="st5" d="M84,102.1c-0.3,0-0.5-0.1-0.7-0.3L62.4,80.7c-0.4-0.4-0.4-1,0-1.4c0.4-0.4,1-0.4,1.4,0l20.9,21.1
		c0.4,0.4,0.4,1,0,1.4C84.5,102,84.3,102.1,84,102.1z"/>
</g>
</svg>
