<?xml version="1.0" encoding="utf-8"?>
<!-- Generator: Adobe Illustrator 24.1.2, SVG Export Plug-In . SVG Version: 6.00 Build 0)  -->
<svg version="1.1" id="Layer_1" xmlns="http://www.w3.org/2000/svg" xmlns:xlink="http://www.w3.org/1999/xlink" x="0px" y="0px"
	 viewBox="0 0 174 174" style="enable-background:new 0 0 174 174;" xml:space="preserve">
<style type="text/css">
	.st0{fill:#0047BF;}
	.st1{fill:#003FC1;}
	.st2{fill:#FFFFFF;}
	.st3{fill:none;stroke:#96D5CE;stroke-width:2;stroke-linecap:round;stroke-linejoin:round;stroke-miterlimit:10;}
	.st4{fill:none;stroke:#FF704C;stroke-width:2;stroke-linecap:round;stroke-linejoin:round;stroke-miterlimit:10;}
	.st5{fill:none;stroke:#FFFFFF;stroke-width:2;stroke-linecap:round;stroke-linejoin:round;stroke-miterlimit:10;}
	.st6{fill:none;stroke:#FF804C;stroke-width:2;stroke-linecap:round;stroke-linejoin:round;stroke-miterlimit:10;}
	.st7{fill:none;stroke:#0047BF;stroke-width:2;stroke-linecap:round;stroke-linejoin:round;stroke-miterlimit:10;}
	.st8{fill:#F1D439;}
	.st9{fill:#0047BF;stroke:#BEC8C8;stroke-width:2;stroke-linecap:round;stroke-linejoin:round;stroke-miterlimit:10;}
	.st10{fill:none;stroke:#FF7E51;stroke-width:2;stroke-linecap:round;stroke-linejoin:round;stroke-miterlimit:10;}
	.st11{fill:none;stroke:#A3D5D0;stroke-width:2;stroke-linecap:round;stroke-linejoin:round;stroke-miterlimit:10;}
	.st12{fill:none;stroke:#F1D439;stroke-width:2;stroke-linecap:round;stroke-linejoin:round;stroke-miterlimit:10;}
	.st13{fill:none;stroke:#E2E6E6;stroke-width:2;stroke-linecap:round;stroke-linejoin:round;stroke-miterlimit:10;}
	.st14{fill:#A3D5D0;}
	.st15{fill:#FF804C;}
	.st16{fill:none;stroke:#BEC8C8;stroke-width:2;stroke-linecap:round;stroke-linejoin:round;stroke-miterlimit:10;}
	.st17{fill:#0047BF;stroke:#0047BF;stroke-width:2;stroke-linecap:round;stroke-linejoin:round;stroke-miterlimit:10;}
	.st18{fill:#FF704C;}
	.st19{fill:none;}
	.st20{fill:#0041BD;}
	.st21{fill:none;stroke:#FFFFFF;stroke-width:1.5;stroke-linecap:round;stroke-linejoin:round;stroke-miterlimit:10;}
	.st22{fill:#0041BD;stroke:#A3D5D0;stroke-width:1.5;stroke-linecap:round;stroke-linejoin:round;stroke-miterlimit:10;}
	.st23{fill:#0041BD;stroke:#FFFFFF;stroke-width:2;stroke-linecap:round;stroke-linejoin:round;stroke-miterlimit:10;}
	.st24{fill:#0041BD;stroke:#FF804C;stroke-width:2;stroke-linecap:round;stroke-linejoin:round;stroke-miterlimit:10;}
	.st25{fill:#0041BD;stroke:#A3D5D0;stroke-width:2;stroke-linecap:round;stroke-linejoin:round;stroke-miterlimit:10;}
	.st26{fill:#0041BD;stroke:#F1D439;stroke-width:2;stroke-linecap:round;stroke-linejoin:round;stroke-miterlimit:10;}
	.st27{fill:#FF804C;stroke:#FF804C;stroke-width:2;stroke-linecap:round;stroke-linejoin:round;stroke-miterlimit:10;}
	.st28{fill:none;stroke:#FFFFFF;stroke-width:2.5;stroke-linecap:round;stroke-linejoin:round;stroke-miterlimit:10;}
	.st29{fill:#0041BD;stroke:#FF804C;stroke-width:1.5;stroke-linecap:round;stroke-linejoin:round;stroke-miterlimit:10;}
	.st30{fill:none;stroke:#FF704C;stroke-width:1.5;stroke-linecap:round;stroke-linejoin:round;stroke-miterlimit:10;}
	.st31{fill:none;stroke:#FF804C;stroke-width:1.5;stroke-linecap:round;stroke-linejoin:round;stroke-miterlimit:10;}
	.st32{fill:none;stroke:#A3D5D0;stroke-width:1.4377;stroke-linecap:round;stroke-linejoin:round;stroke-miterlimit:10;}
	.st33{fill:#0041BD;stroke:#F1D439;stroke-width:1.5;stroke-linecap:round;stroke-linejoin:round;stroke-miterlimit:10;}
	.st34{fill:none;stroke:#F1D439;stroke-width:1.5;stroke-linecap:round;stroke-linejoin:round;stroke-miterlimit:10;}
	.st35{fill:none;stroke:#A3D5D0;stroke-width:1.5;stroke-linecap:round;stroke-linejoin:round;stroke-miterlimit:10;}
	.st36{fill:none;stroke:#96D5CE;stroke-width:1.4377;stroke-linecap:round;stroke-linejoin:round;stroke-miterlimit:10;}
	.st37{fill:none;stroke:#0047BF;stroke-width:1.5;stroke-linecap:round;stroke-linejoin:round;stroke-miterlimit:10;}
	.st38{fill:#0047BF;stroke:#FF704C;stroke-width:2;stroke-linecap:round;stroke-linejoin:round;stroke-miterlimit:10;}
	.st39{fill:#0047BF;stroke:#FF804C;stroke-width:2;stroke-linecap:round;stroke-linejoin:round;stroke-miterlimit:10;}
	.st40{fill:#0047BF;stroke:#E2E6E6;stroke-width:2;stroke-linecap:round;stroke-linejoin:round;stroke-miterlimit:10;}
	.st41{fill:#0047BF;stroke:#A3D5D0;stroke-width:2;stroke-linecap:round;stroke-linejoin:round;stroke-miterlimit:10;}
	.st42{fill:#0047BF;stroke:#F1D439;stroke-width:2;stroke-linecap:round;stroke-linejoin:round;stroke-miterlimit:10;}
	.st43{fill:#0041BD;stroke:#E2E6E6;stroke-width:2;stroke-linecap:round;stroke-linejoin:round;stroke-miterlimit:10;}
	.st44{fill:#E2E6E6;}
	.st45{fill:none;stroke:#0047BF;stroke-width:1.4377;stroke-linecap:round;stroke-linejoin:round;stroke-miterlimit:10;}
	.st46{fill:#0047BF;stroke:#A3D5D0;stroke-width:1.5;stroke-linecap:round;stroke-linejoin:round;stroke-miterlimit:10;}
	.st47{fill:none;stroke:#E2E6E6;stroke-width:1.5;stroke-linecap:round;stroke-linejoin:round;stroke-miterlimit:10;}
	.st48{fill:#0047BF;stroke:#FF704C;stroke-width:1.5;stroke-linecap:round;stroke-linejoin:round;stroke-miterlimit:10;}
	.st49{fill:#0047BF;stroke:#FF804C;stroke-width:1.5;stroke-linecap:round;stroke-linejoin:round;stroke-miterlimit:10;}
	.st50{fill:#0047BF;stroke:#F1D439;stroke-width:1.5;stroke-linecap:round;stroke-linejoin:round;stroke-miterlimit:10;}
	.st51{fill:#0041BD;stroke:#0047BF;stroke-width:2;stroke-linecap:round;stroke-linejoin:round;stroke-miterlimit:10;}
	
		.st52{fill:none;stroke:#FFFFFF;stroke-width:2;stroke-linecap:round;stroke-linejoin:round;stroke-miterlimit:10;stroke-dasharray:15,5;}
	.st53{fill:#1B3570;}
	.st54{fill:#B5C0C0;}
	.st55{fill:#0047BF;stroke:#B5C0C0;stroke-width:2;stroke-linecap:round;stroke-linejoin:round;stroke-miterlimit:10;}
	.st56{fill:none;stroke:#B5C0C0;stroke-width:2;stroke-linecap:round;stroke-linejoin:round;stroke-miterlimit:10;}
	.st57{fill:#0047BF;stroke:#96D5CE;stroke-width:2;stroke-linecap:round;stroke-linejoin:round;stroke-miterlimit:10;}
	.st58{fill:#96D5CE;}
	.st59{fill:#FF7E51;}
	.st60{fill:#0B0069;}
	.st61{fill:#0047BF;stroke:#FFFFFF;stroke-width:2;stroke-linecap:round;stroke-linejoin:round;stroke-miterlimit:10;}
	.st62{fill:none;stroke:#FF7E51;stroke-width:1.5;stroke-linecap:round;stroke-linejoin:round;stroke-miterlimit:10;}
	.st63{fill:#0B0069;stroke:#FFFFFF;stroke-width:1.5;stroke-linecap:round;stroke-linejoin:round;stroke-miterlimit:10;}
</style>
<g>
	<path class="st14" d="M92.5,62.1c-0.2,0-0.5-0.1-0.7-0.3c-0.4-0.4-0.4-1-0.1-1.4c1.2-1.3,0.2-5.2-0.8-7.3c-0.2-0.4-0.1-0.9,0.2-1.2
		c0.3-0.3,0.8-0.3,1.2-0.1l14.8,8.3c0.5,0.3,0.7,0.9,0.4,1.4c-0.3,0.5-0.9,0.7-1.4,0.4l-12.4-7c0.6,2.2,1.1,5.1-0.5,6.8
		C93,62,92.7,62.1,92.5,62.1z"/>
	<path class="st14" d="M47.6,69.3c-0.3,0-0.5-0.1-0.7-0.3c-0.4-0.4-0.4-1,0.1-1.4l5.8-5.4c0.3-0.3,0.7-0.3,1.1-0.2
		c0.2,0.1,4.7,2.1,6.4,2.9c0.5,0.2,0.7,0.8,0.4,1.3c-0.2,0.5-0.8,0.7-1.3,0.4c-1.3-0.7-4.4-2-5.7-2.6l-5.3,4.9
		C48.1,69.2,47.8,69.3,47.6,69.3z"/>
	<path class="st14" d="M73.3,64.5c-0.3,0-0.5-0.1-0.7-0.3c-0.4-0.4-0.4-1,0-1.4c2.2-2.2-0.5-6.1-0.5-6.1c-0.3-0.4-0.2-0.9,0-1.2
		c0.3-0.3,0.8-0.5,1.2-0.3L86,61.1c0.5,0.2,0.7,0.8,0.5,1.3c-0.2,0.5-0.8,0.7-1.3,0.5l-10.1-4.7c0.6,1.8,0.8,4.2-1.1,6
		C73.9,64.4,73.6,64.5,73.3,64.5z"/>
	<path class="st14" d="M97,88.1c-0.3,0-0.6,0-0.9-0.1c-1.3-0.2-19-2.5-34.1-9.2c-0.5-0.2-0.7-0.8-0.5-1.3c0.2-0.5,0.8-0.7,1.3-0.5
		c15.4,6.8,33.5,9,33.7,9.1c0,0,0.1,0,0.1,0c0.4,0.1,0.9,0,1.2-0.2l6.4-4c0.5-0.3,1.1-0.2,1.4,0.3c0.3,0.5,0.2,1.1-0.3,1.4l-6.4,4
		C98.3,87.9,97.7,88.1,97,88.1z"/>
	<path class="st14" d="M22.4,80.6c-0.2,0-0.4-0.1-0.6-0.2c-0.2-0.2-0.4-0.5-0.4-0.8c0-0.6,0.4-1,1-1c0,0,0,0,0,0
		c4.6-1.2,7-4.1,7-6.3c0-2.2-2.5-5.1-7.1-6.3c-0.5,0-1-0.5-1-1c0-0.3,0.1-0.6,0.4-0.8c0.2-0.2,0.5-0.3,0.8-0.2
		c8,0.1,15.2,2,18.3,4.9c0.4,0.4,0.4,1,0,1.4c-0.4,0.4-1,0.4-1.4,0c-2.1-1.9-6.5-3.4-11.8-4c2.4,1.8,3.7,4,3.7,6c0,2-1.3,4.3-3.7,6
		c5.8-0.6,10.2-2.4,13.5-5.2c0.4-0.4,1-0.3,1.4,0.1c0.4,0.4,0.3,1-0.1,1.4c-4.6,4-11.1,6-19.9,6c0,0,0,0,0,0
		C22.5,80.6,22.4,80.6,22.4,80.6z"/>
	<path class="st2" d="M134.2,74.2c-0.4,0-0.7-0.2-0.9-0.5c-0.3-0.5-0.1-1.1,0.4-1.4c3.2-1.7,6.6-3.6,8.5-4.8
		c-3.6-0.9-11.8-2.6-21.1-3.9c-0.5-0.1-0.9-0.6-0.9-1.1c0.1-0.5,0.6-0.9,1.1-0.9c9.8,1.4,23.2,4,23.9,4.8c0.2,0.2,0.3,0.6,0.3,0.9
		c-0.1,0.6-0.1,0.9-11,6.8C134.6,74.2,134.4,74.2,134.2,74.2z"/>
	<path class="st14" d="M57,82.4c-0.2,0-0.4-0.1-0.6-0.2l-8.3-6.1c-0.4-0.3-0.5-1-0.2-1.4c0.3-0.4,1-0.5,1.4-0.2l7.7,5.6l3.7-2.8
		c0.4-0.3,1.1-0.2,1.4,0.2c0.3,0.4,0.2,1.1-0.2,1.4l-4.3,3.2C57.4,82.3,57.2,82.4,57,82.4z"/>
	<path class="st2" d="M84.5,82.2c-0.2,0-0.3,0-0.5-0.1c-0.5-0.3-0.7-0.9-0.4-1.4l10.7-19.6c0.3-0.5,0.9-0.7,1.4-0.4
		c0.5,0.3,0.7,0.9,0.4,1.4L85.3,81.7C85.1,82,84.8,82.2,84.5,82.2z"/>
	<path class="st2" d="M92.9,82.7c-0.2,0-0.3,0-0.5-0.1c-0.5-0.3-0.7-0.9-0.4-1.4l11.2-20.6c0.3-0.5,0.9-0.7,1.4-0.4
		c0.5,0.3,0.7,0.9,0.4,1.4L93.8,82.2C93.6,82.5,93.2,82.7,92.9,82.7z"/>
	<path class="st2" d="M100.9,81.2c-0.3,0.5-0.1,1.1,0.4,1.4c0.2,0.1,0.3,0.1,0.5,0.1c0.4,0,0.7-0.2,0.9-0.5l4.8-8.8l-1.8-0.8
		L100.9,81.2z"/>
	<path class="st2" d="M113.1,61.1c-0.5-0.3-1.1-0.1-1.4,0.4l-3,5.4l2,0.6l2.8-5C113.7,62,113.5,61.4,113.1,61.1z"/>
	<path class="st2" d="M110.7,82.7c-0.2,0-0.3,0-0.5-0.1c-0.5-0.3-0.7-0.9-0.4-1.4l4-7.2c0.3-0.5,0.9-0.7,1.4-0.4
		c0.5,0.3,0.7,0.9,0.4,1.4l-4,7.2C111.4,82.5,111.1,82.7,110.7,82.7z"/>
	<path class="st2" d="M76.5,81.1c-0.2,0-0.3,0-0.5-0.1c-0.5-0.3-0.7-0.9-0.4-1.4l9.7-18c0.3-0.5,0.9-0.7,1.4-0.4
		c0.5,0.3,0.7,0.9,0.4,1.4l-9.7,18C77.2,80.9,76.9,81.1,76.5,81.1z"/>
	<path class="st2" d="M68.4,79.3c-0.2,0-0.3,0-0.5-0.1c-0.5-0.3-0.7-0.9-0.4-1.4l8-14.6c0.3-0.5,0.9-0.7,1.4-0.4s0.7,0.9,0.4,1.4
		l-8,14.6C69.1,79.1,68.8,79.3,68.4,79.3z"/>
	<path class="st2" d="M60.5,77.9c-0.2,0-0.3,0-0.5-0.1c-0.5-0.3-0.7-0.9-0.4-1.4l6.7-12.1c0.3-0.5,0.9-0.7,1.4-0.4
		c0.5,0.3,0.7,0.9,0.4,1.4l-6.7,12.1C61.2,77.7,60.9,77.9,60.5,77.9z"/>
	<path class="st2" d="M52.8,76.4c-0.2,0-0.3,0-0.5-0.1c-0.5-0.3-0.7-0.9-0.4-1.4l4.4-8.3c0.3-0.5,0.9-0.7,1.4-0.4
		c0.5,0.3,0.7,0.9,0.4,1.4l-4.4,8.3C53.5,76.2,53.2,76.4,52.8,76.4z"/>
	<path class="st2" d="M44.9,75.3c-0.2,0-0.3,0-0.5-0.1c-0.5-0.3-0.7-0.9-0.4-1.4l3.1-5.8c0.3-0.5,0.9-0.7,1.4-0.4
		c0.5,0.3,0.7,0.9,0.4,1.4l-3.1,5.8C45.6,75.1,45.3,75.3,44.9,75.3z"/>
	<path class="st2" d="M100.8,83.4c-19.1,0-50.4-6.7-62.9-9.6c-1-0.2-1.6-1.1-1.6-2.1c0-1,0.7-1.8,1.6-2.1
		c12.5-2.9,43.8-9.6,62.9-9.6c5.7,0,12.7,0.6,20.7,1.7c0.5,0.1,0.9,0.6,0.9,1.1s-0.6,0.9-1.1,0.9c-7.9-1.1-14.8-1.7-20.4-1.7
		c-18.9,0-50,6.7-62.4,9.6c0,0-0.1,0-0.1,0.1c0,0.1,0,0.1,0.1,0.1c12.5,2.9,43.5,9.6,62.4,9.6c13.6,0,23.3-2.5,29.7-4.1l0.9-0.2
		c3.3-0.8,7.9-2.1,10.7-2.9c-0.4-0.1-0.8-0.2-1.2-0.2c-1.4-0.3-2.9-0.6-3.8-0.8c-0.5-0.1-0.9-0.7-0.7-1.2c0.1-0.5,0.7-0.9,1.2-0.7
		c0.9,0.2,2.3,0.5,3.7,0.8c4.7,0.9,5.3,1,5.1,2.2c-0.1,0.7-0.2,1.3-14.5,4.9l-0.9,0.2C124.4,80.9,114.6,83.4,100.8,83.4z
		 M144.9,74.7L144.9,74.7L144.9,74.7z"/>
	<g>
		<path class="st14" d="M114,75.4c-1.5,0-3.6-0.2-5.1-0.5c-5.1-0.9-9.4-4.4-8.9-7.2c0.4-2.2,2.5-2.7,3.6-2.7c0.1,0,0.1,0,0.2,0
			l11.1,2.3c0.5,0.1,0.9,0.6,0.8,1.2c-0.1,0.5-0.6,0.9-1.2,0.8l-11-2.3c-0.3,0-1.4,0.1-1.5,1.1c-0.2,1.2,2.8,4.1,7.3,4.9
			c1.7,0.3,4.1,0.5,5.3,0.5c0.5,0,1,0.4,1.1,0.9c0,0.6-0.4,1-0.9,1.1C114.5,75.4,114.3,75.4,114,75.4z"/>
	</g>
	<g>
		<path class="st19" d="M126.2,79.3c-7.4,1.1-12.2-3.7-12.2-8.1s6.1-7.7,12.5-7.7"/>
		<path class="st2" d="M124.1,80.5c-3,0-5.8-1-7.9-2.8c-2-1.8-3.2-4.1-3.2-6.5c0-5.4,7-8.7,13.5-8.7c0.6,0,1,0.4,1,1
			c0,0.6-0.4,1-1,1c-6.1,0-11.5,3.1-11.5,6.7c0,1.8,0.9,3.6,2.5,5c2.2,1.9,5.2,2.6,8.6,2.1c0.6-0.1,1.1,0.3,1.1,0.8
			c0.1,0.5-0.3,1.1-0.8,1.1C125.6,80.4,124.8,80.5,124.1,80.5z"/>
	</g>
	<path class="st8" d="M129.9,63.4c-2.3,0-4.1,1.8-4.1,4.1c0,2.3,1.8,4.1,4.1,4.1c2.3,0,4.1-1.8,4.1-4.1
		C134,65.2,132.2,63.4,129.9,63.4z M129.9,69.5c-1.1,0-2-0.9-2-2c0-1.1,0.9-2,2-2c1.1,0,2,0.9,2,2C131.9,68.6,131.1,69.5,129.9,69.5
		z"/>
</g>
<path class="st14" d="M135.5,44.8c-2.6,0-4-0.8-5.2-1.5c-1.1-0.6-2.1-1.2-4.2-1.2c-2.1,0-3.1,0.6-4.2,1.2c-1.2,0.7-2.6,1.5-5.2,1.5
	c-2.6,0-4-0.8-5.2-1.5c-1.1-0.6-2.1-1.2-4.2-1.2c-2.1,0-3.1,0.6-4.2,1.2c-1.2,0.7-2.6,1.5-5.2,1.5c-2.6,0-4-0.8-5.2-1.5
	c-1.1-0.6-2.1-1.2-4.2-1.2c-2.1,0-3.1,0.6-4.2,1.2c-1.2,0.7-2.6,1.5-5.2,1.5s-4-0.8-5.2-1.5c-1.1-0.6-2.1-1.2-4.2-1.2
	s-3.1,0.6-4.2,1.2c-1.2,0.7-2.6,1.5-5.2,1.5c-2.6,0-4-0.8-5.2-1.5c-1.1-0.6-2.1-1.2-4.2-1.2s-3.1,0.6-4.2,1.2
	c-1.2,0.7-2.6,1.5-5.2,1.5s-4-0.8-5.2-1.5c-1.1-0.6-2.1-1.2-4.2-1.2c-0.6,0-1-0.4-1-1s0.4-1,1-1c2.6,0,4,0.8,5.2,1.5
	c1.1,0.6,2.1,1.2,4.2,1.2c2.1,0,3.1-0.6,4.2-1.2c1.2-0.7,2.6-1.5,5.2-1.5s4,0.8,5.2,1.5c1.1,0.6,2.1,1.2,4.2,1.2
	c2.1,0,3.1-0.6,4.2-1.2c1.2-0.7,2.6-1.5,5.2-1.5s4,0.8,5.2,1.5c1.1,0.6,2.1,1.2,4.2,1.2s3.1-0.6,4.2-1.2c1.2-0.7,2.6-1.5,5.2-1.5
	c2.6,0,4,0.8,5.2,1.5c1.1,0.6,2.1,1.2,4.2,1.2c2.1,0,3.1-0.6,4.2-1.2c1.2-0.7,2.6-1.5,5.2-1.5s4,0.8,5.2,1.5
	c1.1,0.6,2.1,1.2,4.2,1.2c2.1,0,3.1-0.6,4.2-1.2c1.2-0.7,2.6-1.5,5.2-1.5c2.6,0,4,0.8,5.2,1.5c1.1,0.6,2.1,1.2,4.2,1.2
	c0.6,0,1,0.4,1,1S136.1,44.8,135.5,44.8z"/>
<path class="st14" d="M135.5,100.1c-2.6,0-4-0.8-5.2-1.5c-1.1-0.6-2.1-1.2-4.2-1.2c-2.1,0-3.1,0.6-4.2,1.2c-1.2,0.7-2.6,1.5-5.2,1.5
	c-2.6,0-4-0.8-5.2-1.5c-1.1-0.6-2.1-1.2-4.2-1.2c-2.1,0-3.1,0.6-4.2,1.2c-1.2,0.7-2.6,1.5-5.2,1.5c-2.6,0-4-0.8-5.2-1.5
	c-1.1-0.6-2.1-1.2-4.2-1.2c-2.1,0-3.1,0.6-4.2,1.2c-1.2,0.7-2.6,1.5-5.2,1.5s-4-0.8-5.2-1.5c-1.1-0.6-2.1-1.2-4.2-1.2
	s-3.1,0.6-4.2,1.2c-1.2,0.7-2.6,1.5-5.2,1.5c-2.6,0-4-0.8-5.2-1.5C54,98,53,97.4,50.9,97.4s-3.1,0.6-4.2,1.2
	c-1.2,0.7-2.6,1.5-5.2,1.5s-4-0.8-5.2-1.5c-1.1-0.6-2.1-1.2-4.2-1.2c-0.6,0-1-0.4-1-1s0.4-1,1-1c2.6,0,4,0.8,5.2,1.5
	c1.1,0.6,2.1,1.2,4.2,1.2c2.1,0,3.1-0.6,4.2-1.2c1.2-0.7,2.6-1.5,5.2-1.5s4,0.8,5.2,1.5c1.1,0.6,2.1,1.2,4.2,1.2
	c2.1,0,3.1-0.6,4.2-1.2c1.2-0.7,2.6-1.5,5.2-1.5s4,0.8,5.2,1.5c1.1,0.6,2.1,1.2,4.2,1.2s3.1-0.6,4.2-1.2c1.2-0.7,2.6-1.5,5.2-1.5
	c2.6,0,4,0.8,5.2,1.5c1.1,0.6,2.1,1.2,4.2,1.2c2.1,0,3.1-0.6,4.2-1.2c1.2-0.7,2.6-1.5,5.2-1.5s4,0.8,5.2,1.5
	c1.1,0.6,2.1,1.2,4.2,1.2c2.1,0,3.1-0.6,4.2-1.2c1.2-0.7,2.6-1.5,5.2-1.5c2.6,0,4,0.8,5.2,1.5c1.1,0.6,2.1,1.2,4.2,1.2
	c0.6,0,1,0.4,1,1S136.1,100.1,135.5,100.1z"/>
<path class="st14" d="M135.5,112.8c-2.6,0-4-0.8-5.2-1.5c-1.1-0.6-2.1-1.2-4.2-1.2c-2.1,0-3.1,0.6-4.2,1.2c-1.2,0.7-2.6,1.5-5.2,1.5
	c-2.6,0-4-0.8-5.2-1.5c-1.1-0.6-2.1-1.2-4.2-1.2c-2.1,0-3.1,0.6-4.2,1.2c-1.2,0.7-2.6,1.5-5.2,1.5c-2.6,0-4-0.8-5.2-1.5
	c-1.1-0.6-2.1-1.2-4.2-1.2c-2.1,0-3.1,0.6-4.2,1.2c-1.2,0.7-2.6,1.5-5.2,1.5s-4-0.8-5.2-1.5c-1.1-0.6-2.1-1.2-4.2-1.2
	s-3.1,0.6-4.2,1.2c-1.2,0.7-2.6,1.5-5.2,1.5c-2.6,0-4-0.8-5.2-1.5c-1.1-0.6-2.1-1.2-4.2-1.2s-3.1,0.6-4.2,1.2
	c-1.2,0.7-2.6,1.5-5.2,1.5s-4-0.8-5.2-1.5c-1.1-0.6-2.1-1.2-4.2-1.2c-0.6,0-1-0.4-1-1s0.4-1,1-1c2.6,0,4,0.8,5.2,1.5
	c1.1,0.6,2.1,1.2,4.2,1.2c2.1,0,3.1-0.6,4.2-1.2c1.2-0.7,2.6-1.5,5.2-1.5s4,0.8,5.2,1.5c1.1,0.6,2.1,1.2,4.2,1.2
	c2.1,0,3.1-0.6,4.2-1.2c1.2-0.7,2.6-1.5,5.2-1.5s4,0.8,5.2,1.5c1.1,0.6,2.1,1.2,4.2,1.2s3.1-0.6,4.2-1.2c1.2-0.7,2.6-1.5,5.2-1.5
	c2.6,0,4,0.8,5.2,1.5c1.1,0.6,2.1,1.2,4.2,1.2c2.1,0,3.1-0.6,4.2-1.2c1.2-0.7,2.6-1.5,5.2-1.5s4,0.8,5.2,1.5
	c1.1,0.6,2.1,1.2,4.2,1.2c2.1,0,3.1-0.6,4.2-1.2c1.2-0.7,2.6-1.5,5.2-1.5c2.6,0,4,0.8,5.2,1.5c1.1,0.6,2.1,1.2,4.2,1.2
	c0.6,0,1,0.4,1,1S136.1,112.8,135.5,112.8z"/>
<path class="st14" d="M135.5,125.6c-2.6,0-4-0.8-5.2-1.5c-1.1-0.6-2.1-1.2-4.2-1.2c-2.1,0-3.1,0.6-4.2,1.2c-1.2,0.7-2.6,1.5-5.2,1.5
	c-2.6,0-4-0.8-5.2-1.5c-1.1-0.6-2.1-1.2-4.2-1.2c-2.1,0-3.1,0.6-4.2,1.2c-1.2,0.7-2.6,1.5-5.2,1.5c-2.6,0-4-0.8-5.2-1.5
	c-1.1-0.6-2.1-1.2-4.2-1.2c-2.1,0-3.1,0.6-4.2,1.2c-1.2,0.7-2.6,1.5-5.2,1.5s-4-0.8-5.2-1.5c-1.1-0.6-2.1-1.2-4.2-1.2
	s-3.1,0.6-4.2,1.2c-1.2,0.7-2.6,1.5-5.2,1.5c-2.6,0-4-0.8-5.2-1.5c-1.1-0.6-2.1-1.2-4.2-1.2s-3.1,0.6-4.2,1.2
	c-1.2,0.7-2.6,1.5-5.2,1.5s-4-0.8-5.2-1.5c-1.1-0.6-2.1-1.2-4.2-1.2c-0.6,0-1-0.4-1-1s0.4-1,1-1c2.6,0,4,0.8,5.2,1.5
	c1.1,0.6,2.1,1.2,4.2,1.2c2.1,0,3.1-0.6,4.2-1.2c1.2-0.7,2.6-1.5,5.2-1.5s4,0.8,5.2,1.5c1.1,0.6,2.1,1.2,4.2,1.2
	c2.1,0,3.1-0.6,4.2-1.2c1.2-0.7,2.6-1.5,5.2-1.5s4,0.8,5.2,1.5c1.1,0.6,2.1,1.2,4.2,1.2s3.1-0.6,4.2-1.2c1.2-0.7,2.6-1.5,5.2-1.5
	c2.6,0,4,0.8,5.2,1.5c1.1,0.6,2.1,1.2,4.2,1.2c2.1,0,3.1-0.6,4.2-1.2c1.2-0.7,2.6-1.5,5.2-1.5s4,0.8,5.2,1.5
	c1.1,0.6,2.1,1.2,4.2,1.2c2.1,0,3.1-0.6,4.2-1.2c1.2-0.7,2.6-1.5,5.2-1.5c2.6,0,4,0.8,5.2,1.5c1.1,0.6,2.1,1.2,4.2,1.2
	c0.6,0,1,0.4,1,1S136.1,125.6,135.5,125.6z"/>
<path class="st14" d="M135.5,136.4H32.1c-0.6,0-1-0.4-1-1s0.4-1,1-1h103.4c0.6,0,1,0.4,1,1S136,136.4,135.5,136.4z"/>
</svg>
