<?xml version="1.0" encoding="utf-8"?>
<!-- Generator: Adobe Illustrator 24.1.2, SVG Export Plug-In . SVG Version: 6.00 Build 0)  -->
<svg version="1.1" id="Layer_1" xmlns="http://www.w3.org/2000/svg" xmlns:xlink="http://www.w3.org/1999/xlink" x="0px" y="0px"
	 viewBox="0 0 174 174" style="enable-background:new 0 0 174 174;" xml:space="preserve">
<style type="text/css">
	.st0{fill:#0047BF;}
	.st1{fill:#003FC1;}
	.st2{fill:#FFFFFF;}
	.st3{fill:none;stroke:#96D5CE;stroke-width:2;stroke-linecap:round;stroke-linejoin:round;stroke-miterlimit:10;}
	.st4{fill:none;stroke:#FF704C;stroke-width:2;stroke-linecap:round;stroke-linejoin:round;stroke-miterlimit:10;}
	.st5{fill:none;stroke:#FFFFFF;stroke-width:2;stroke-linecap:round;stroke-linejoin:round;stroke-miterlimit:10;}
	.st6{fill:none;stroke:#FF804C;stroke-width:2;stroke-linecap:round;stroke-linejoin:round;stroke-miterlimit:10;}
	.st7{fill:none;stroke:#0047BF;stroke-width:2;stroke-linecap:round;stroke-linejoin:round;stroke-miterlimit:10;}
	.st8{fill:#F1D439;}
	.st9{fill:#0047BF;stroke:#BEC8C8;stroke-width:2;stroke-linecap:round;stroke-linejoin:round;stroke-miterlimit:10;}
	.st10{fill:none;stroke:#FF7E51;stroke-width:2;stroke-linecap:round;stroke-linejoin:round;stroke-miterlimit:10;}
	.st11{fill:none;stroke:#A3D5D0;stroke-width:2;stroke-linecap:round;stroke-linejoin:round;stroke-miterlimit:10;}
	.st12{fill:none;stroke:#F1D439;stroke-width:2;stroke-linecap:round;stroke-linejoin:round;stroke-miterlimit:10;}
	.st13{fill:none;stroke:#E2E6E6;stroke-width:2;stroke-linecap:round;stroke-linejoin:round;stroke-miterlimit:10;}
	.st14{fill:#A3D5D0;}
	.st15{fill:#FF804C;}
	.st16{fill:none;stroke:#BEC8C8;stroke-width:2;stroke-linecap:round;stroke-linejoin:round;stroke-miterlimit:10;}
	.st17{fill:#0047BF;stroke:#0047BF;stroke-width:2;stroke-linecap:round;stroke-linejoin:round;stroke-miterlimit:10;}
	.st18{fill:#FF704C;}
	.st19{fill:none;}
	.st20{fill:#0041BD;}
	.st21{fill:none;stroke:#FFFFFF;stroke-width:1.5;stroke-linecap:round;stroke-linejoin:round;stroke-miterlimit:10;}
	.st22{fill:#0041BD;stroke:#A3D5D0;stroke-width:1.5;stroke-linecap:round;stroke-linejoin:round;stroke-miterlimit:10;}
	.st23{fill:#0041BD;stroke:#FFFFFF;stroke-width:2;stroke-linecap:round;stroke-linejoin:round;stroke-miterlimit:10;}
	.st24{fill:#0041BD;stroke:#FF804C;stroke-width:2;stroke-linecap:round;stroke-linejoin:round;stroke-miterlimit:10;}
	.st25{fill:#0041BD;stroke:#A3D5D0;stroke-width:2;stroke-linecap:round;stroke-linejoin:round;stroke-miterlimit:10;}
	.st26{fill:#0041BD;stroke:#F1D439;stroke-width:2;stroke-linecap:round;stroke-linejoin:round;stroke-miterlimit:10;}
	.st27{fill:#FF804C;stroke:#FF804C;stroke-width:2;stroke-linecap:round;stroke-linejoin:round;stroke-miterlimit:10;}
	.st28{fill:none;stroke:#FFFFFF;stroke-width:2.5;stroke-linecap:round;stroke-linejoin:round;stroke-miterlimit:10;}
	.st29{fill:#0041BD;stroke:#FF804C;stroke-width:1.5;stroke-linecap:round;stroke-linejoin:round;stroke-miterlimit:10;}
	.st30{fill:none;stroke:#FF704C;stroke-width:1.5;stroke-linecap:round;stroke-linejoin:round;stroke-miterlimit:10;}
	.st31{fill:none;stroke:#FF804C;stroke-width:1.5;stroke-linecap:round;stroke-linejoin:round;stroke-miterlimit:10;}
	.st32{fill:none;stroke:#A3D5D0;stroke-width:1.4377;stroke-linecap:round;stroke-linejoin:round;stroke-miterlimit:10;}
	.st33{fill:#0041BD;stroke:#F1D439;stroke-width:1.5;stroke-linecap:round;stroke-linejoin:round;stroke-miterlimit:10;}
	.st34{fill:none;stroke:#F1D439;stroke-width:1.5;stroke-linecap:round;stroke-linejoin:round;stroke-miterlimit:10;}
	.st35{fill:none;stroke:#A3D5D0;stroke-width:1.5;stroke-linecap:round;stroke-linejoin:round;stroke-miterlimit:10;}
	.st36{fill:none;stroke:#96D5CE;stroke-width:1.4377;stroke-linecap:round;stroke-linejoin:round;stroke-miterlimit:10;}
	.st37{fill:none;stroke:#0047BF;stroke-width:1.5;stroke-linecap:round;stroke-linejoin:round;stroke-miterlimit:10;}
	.st38{fill:#0047BF;stroke:#FF704C;stroke-width:2;stroke-linecap:round;stroke-linejoin:round;stroke-miterlimit:10;}
	.st39{fill:#0047BF;stroke:#FF804C;stroke-width:2;stroke-linecap:round;stroke-linejoin:round;stroke-miterlimit:10;}
	.st40{fill:#0047BF;stroke:#E2E6E6;stroke-width:2;stroke-linecap:round;stroke-linejoin:round;stroke-miterlimit:10;}
	.st41{fill:#0047BF;stroke:#A3D5D0;stroke-width:2;stroke-linecap:round;stroke-linejoin:round;stroke-miterlimit:10;}
	.st42{fill:#0047BF;stroke:#F1D439;stroke-width:2;stroke-linecap:round;stroke-linejoin:round;stroke-miterlimit:10;}
	.st43{fill:#0041BD;stroke:#E2E6E6;stroke-width:2;stroke-linecap:round;stroke-linejoin:round;stroke-miterlimit:10;}
	.st44{fill:#E2E6E6;}
	.st45{fill:none;stroke:#0047BF;stroke-width:1.4377;stroke-linecap:round;stroke-linejoin:round;stroke-miterlimit:10;}
	.st46{fill:#0047BF;stroke:#A3D5D0;stroke-width:1.5;stroke-linecap:round;stroke-linejoin:round;stroke-miterlimit:10;}
	.st47{fill:none;stroke:#E2E6E6;stroke-width:1.5;stroke-linecap:round;stroke-linejoin:round;stroke-miterlimit:10;}
	.st48{fill:#0047BF;stroke:#FF704C;stroke-width:1.5;stroke-linecap:round;stroke-linejoin:round;stroke-miterlimit:10;}
	.st49{fill:#0047BF;stroke:#FF804C;stroke-width:1.5;stroke-linecap:round;stroke-linejoin:round;stroke-miterlimit:10;}
	.st50{fill:#0047BF;stroke:#F1D439;stroke-width:1.5;stroke-linecap:round;stroke-linejoin:round;stroke-miterlimit:10;}
	.st51{fill:#0041BD;stroke:#0047BF;stroke-width:2;stroke-linecap:round;stroke-linejoin:round;stroke-miterlimit:10;}
	
		.st52{fill:none;stroke:#FFFFFF;stroke-width:2;stroke-linecap:round;stroke-linejoin:round;stroke-miterlimit:10;stroke-dasharray:15,5;}
	.st53{fill:#1B3570;}
	.st54{fill:#B5C0C0;}
	.st55{fill:#0047BF;stroke:#B5C0C0;stroke-width:2;stroke-linecap:round;stroke-linejoin:round;stroke-miterlimit:10;}
	.st56{fill:none;stroke:#B5C0C0;stroke-width:2;stroke-linecap:round;stroke-linejoin:round;stroke-miterlimit:10;}
	.st57{fill:#0047BF;stroke:#96D5CE;stroke-width:2;stroke-linecap:round;stroke-linejoin:round;stroke-miterlimit:10;}
	.st58{fill:#96D5CE;}
	.st59{fill:#FF7E51;}
	.st60{fill:#0B0069;}
	.st61{fill:#0047BF;stroke:#FFFFFF;stroke-width:2;stroke-linecap:round;stroke-linejoin:round;stroke-miterlimit:10;}
	.st62{fill:none;stroke:#FF7E51;stroke-width:1.5;stroke-linecap:round;stroke-linejoin:round;stroke-miterlimit:10;}
	.st63{fill:#0B0069;stroke:#FFFFFF;stroke-width:1.5;stroke-linecap:round;stroke-linejoin:round;stroke-miterlimit:10;}
</style>
<path class="st8" d="M85,59.3c-0.6,0-1-0.4-1-1V37.6c0-0.6,0.4-1,1-1s1,0.4,1,1v20.7C86,58.8,85.6,59.3,85,59.3z"/>
<path class="st2" d="M72.8,71.9c-0.5,0-0.9-0.3-1-0.8L71,66.5c-0.1-0.5,0.3-1.1,0.8-1.1c0.6-0.1,1.1,0.3,1.1,0.8l0.7,4.6
	c0.1,0.5-0.3,1.1-0.8,1.1C72.9,71.9,72.8,71.9,72.8,71.9z"/>
<path class="st2" d="M79,71.9c-0.5,0-0.9-0.4-1-0.9l-0.5-4.6c-0.1-0.5,0.3-1,0.9-1.1c0.6-0.1,1,0.3,1.1,0.9l0.5,4.6
	c0.1,0.5-0.3,1-0.9,1.1C79.1,71.9,79,71.9,79,71.9z"/>
<path class="st2" d="M97.5,71.9c-0.1,0-0.1,0-0.2,0c-0.5-0.1-0.9-0.6-0.8-1.1l0.7-4.6c0.1-0.5,0.6-0.9,1.1-0.8
	c0.5,0.1,0.9,0.6,0.8,1.1L98.5,71C98.4,71.5,98,71.9,97.5,71.9z"/>
<path class="st2" d="M91.2,71.9c0,0-0.1,0-0.1,0c-0.5-0.1-0.9-0.6-0.9-1.1l0.6-4.6c0.1-0.5,0.6-0.9,1.1-0.9c0.5,0.1,0.9,0.6,0.9,1.1
	L92.2,71C92.1,71.5,91.7,71.9,91.2,71.9z"/>
<path class="st2" d="M75.9,66.5c-0.5,0-0.9-0.4-1-0.9l-0.7-6.2c-0.1-0.5,0.3-1,0.9-1.1c0.6-0.1,1,0.3,1.1,0.9l0.7,6.2
	c0.1,0.5-0.3,1-0.9,1.1C76,66.5,75.9,66.5,75.9,66.5z"/>
<path class="st2" d="M94,66.5c0,0-0.1,0-0.1,0c-0.5-0.1-0.9-0.6-0.9-1.1l0.7-6.2c0.1-0.5,0.6-0.9,1.1-0.9c0.5,0.1,0.9,0.6,0.9,1.1
	L95,65.6C94.9,66.1,94.5,66.5,94,66.5z"/>
<path class="st2" d="M113.6,85.9c-0.1,0-0.2,0-0.3,0c-0.5-0.2-0.8-0.7-0.7-1.2l1.8-5.7l-29.9-1.1l-28.8,1.1l1.8,5.7
	c0.2,0.5-0.1,1.1-0.7,1.2c-0.5,0.2-1.1-0.1-1.2-0.7l-2.1-7c-0.1-0.3,0-0.6,0.1-0.9s0.5-0.4,0.8-0.4l30.1-1.2l31.3,1.2
	c0.3,0,0.6,0.2,0.8,0.4c0.2,0.3,0.2,0.6,0.1,0.9l-2.1,7C114.4,85.6,114,85.9,113.6,85.9z"/>
<path class="st2" d="M99.6,59.3H70.5c-0.6,0-1-0.4-1-1s0.4-1,1-1h29.1c0.6,0,1,0.4,1,1S100.1,59.3,99.6,59.3z"/>
<path class="st8" d="M88.6,53.5h-7.2c-0.6,0-1-0.4-1-1s0.4-1,1-1h7.2c0.6,0,1,0.4,1,1S89.1,53.5,88.6,53.5z"/>
<path class="st8" d="M88.6,48.5h-7.2c-0.6,0-1-0.4-1-1s0.4-1,1-1h7.2c0.6,0,1,0.4,1,1S89.1,48.5,88.6,48.5z"/>
<path class="st8" d="M88.6,43.5h-7.2c-0.6,0-1-0.4-1-1s0.4-1,1-1h7.2c0.6,0,1,0.4,1,1S89.1,43.5,88.6,43.5z"/>
<path class="st2" d="M85.1,72c-0.6,0-1-0.4-1-1v-4.7c0-0.6,0.4-1,1-1s1,0.4,1,1V71C86.1,71.6,85.7,72,85.1,72z"/>
<path class="st2" d="M103.3,72.4H66.5c-0.6,0-1-0.4-1-1s0.4-1,1-1h36.8c0.6,0,1,0.4,1,1S103.8,72.4,103.3,72.4z"/>
<path class="st8" d="M85,30.8c-2,0-3.6,1.6-3.6,3.6s1.6,3.6,3.6,3.6c2,0,3.6-1.6,3.6-3.6S87,30.8,85,30.8z M85,36.1
	c-1,0-1.8-0.8-1.8-1.8c0-1,0.8-1.8,1.8-1.8c1,0,1.8,0.8,1.8,1.8C86.8,35.3,86,36.1,85,36.1z"/>
<path class="st2" d="M66.4,108.1c-0.1,0-0.2,0-0.3,0c-0.5-0.2-0.8-0.7-0.7-1.2l4.9-16L52,94.1c-0.5,0.1-1.1-0.3-1.2-0.8
	c-0.1-0.5,0.3-1.1,0.8-1.2l19.9-3.7c0.3-0.1,0.7,0.1,0.9,0.3s0.3,0.6,0.2,1l-5.4,17.6C67.2,107.8,66.8,108.1,66.4,108.1z"/>
<path class="st2" d="M59.9,109.8c-0.1,0-0.2,0-0.3-0.1c-0.5-0.2-0.8-0.8-0.6-1.3l3.8-10.6l-10.1,1.9c-0.5,0.1-1.1-0.3-1.2-0.8
	c-0.1-0.5,0.3-1.1,0.8-1.2L64,95.5c0.4-0.1,0.7,0.1,0.9,0.3s0.3,0.6,0.2,1l-4.3,12.3C60.7,109.5,60.3,109.8,59.9,109.8z"/>
<path class="st2" d="M104.3,107.4c-0.4,0-0.8-0.3-1-0.7l-5.2-17c-0.1-0.3,0-0.7,0.2-1s0.6-0.4,0.9-0.3l19.9,3.7
	c0.5,0.1,0.9,0.6,0.8,1.2c-0.1,0.5-0.6,0.9-1.2,0.8l-18.3-3.4l4.7,15.4c0.2,0.5-0.1,1.1-0.7,1.2
	C104.5,107.4,104.4,107.4,104.3,107.4z"/>
<path class="st2" d="M110.3,107.7c-0.4,0-0.8-0.3-0.9-0.7l-3.6-10.2c-0.1-0.3,0-0.7,0.2-1s0.6-0.4,0.9-0.3l11.2,2.1
	c0.5,0.1,0.9,0.6,0.8,1.2c-0.1,0.5-0.6,0.9-1.2,0.8l-9.5-1.8l3,8.6c0.2,0.5-0.1,1.1-0.6,1.3C110.5,107.7,110.4,107.7,110.3,107.7z"
	/>
<path class="st2" d="M102.8,78.1c-0.1,0-0.1,0-0.2,0c-0.5-0.1-0.9-0.6-0.8-1.1l1.6-9.9H66.6l1.6,9.9c0.1,0.5-0.3,1.1-0.8,1.1
	c-0.5,0.1-1.1-0.3-1.1-0.8l-1.8-11.1c0-0.3,0-0.6,0.2-0.8c0.2-0.2,0.5-0.4,0.8-0.4h39.1c0.3,0,0.6,0.1,0.8,0.4
	c0.2,0.2,0.3,0.5,0.2,0.8l-1.8,11.1C103.7,77.7,103.3,78.1,102.8,78.1z"/>
<path class="st2" d="M84.5,108.1c-0.6,0-1-0.4-1-1V83.2c0-0.6,0.4-1,1-1s1,0.4,1,1v23.8C85.5,107.6,85,108.1,84.5,108.1z"/>
<path class="st2" d="M115.1,110.3c-0.1,0-0.2,0-0.2,0c-0.5-0.1-0.9-0.7-0.7-1.2l5.5-22l-35.1-4l-34.2,4l4.8,19.4
	c0.1,0.5-0.2,1.1-0.7,1.2c-0.5,0.1-1.1-0.2-1.2-0.7L48,86.5c-0.1-0.3,0-0.6,0.1-0.8c0.2-0.2,0.4-0.4,0.7-0.4L84.4,81
	c0.1,0,0.2,0,0.2,0l36.4,4.2c0.3,0,0.5,0.2,0.7,0.4c0.2,0.2,0.2,0.5,0.1,0.8l-5.8,23.1C116,110,115.6,110.3,115.1,110.3z"/>
<g>
	<path class="st15" d="M93.8,146c-0.4,0-0.8-0.2-0.9-0.7l-1.1-2.9c-0.1-0.3-0.3-0.5-0.6-0.6l-5-1.9c-0.8-0.3-1.5-1-1.8-1.8l-1.9-5
		c-0.1-0.3-0.3-0.5-0.6-0.6l-5-1.9c-0.8-0.3-1.5-1-1.8-1.8l-1.9-5c-0.1-0.3-0.3-0.5-0.6-0.6l-5-1.9c-0.8-0.3-1.5-1-1.8-1.8l-1.3-3.4
		c-0.2-0.5,0.1-1.1,0.6-1.3c0.5-0.2,1.1,0.1,1.3,0.6l1.3,3.5c0.1,0.3,0.3,0.5,0.6,0.6l5,1.9c0.8,0.3,1.5,1,1.8,1.8l1.9,5
		c0.1,0.3,0.3,0.5,0.6,0.6l5,1.9c0.8,0.3,1.5,1,1.8,1.8l1.9,5c0.1,0.3,0.3,0.5,0.6,0.6l5,1.9c0.8,0.3,1.5,1,1.8,1.8l1.1,2.9
		c0.2,0.5-0.1,1.1-0.6,1.3C94.1,146,93.9,146,93.8,146z"/>
	<path class="st15" d="M62.7,125.1c-0.3,0-0.5-0.1-0.7-0.3c-0.4-0.4-0.4-1,0-1.4l3.8-3.8c0.4-0.4,1-0.4,1.4,0c0.4,0.4,0.4,1,0,1.4
		l-3.8,3.8C63.2,125,62.9,125.1,62.7,125.1z"/>
	<path class="st15" d="M72.4,134.8c-0.3,0-0.5-0.1-0.7-0.3c-0.4-0.4-0.4-1,0-1.4l3.8-3.8c0.4-0.4,1-0.4,1.4,0s0.4,1,0,1.4l-3.8,3.8
		C72.9,134.7,72.7,134.8,72.4,134.8z"/>
	<path class="st15" d="M81.8,144.2c-0.3,0-0.5-0.1-0.7-0.3c-0.4-0.4-0.4-1,0-1.4l3.8-3.8c0.4-0.4,1-0.4,1.4,0c0.4,0.4,0.4,1,0,1.4
		l-3.8,3.8C82.3,144.1,82,144.2,81.8,144.2z"/>
</g>
<g>
	<path class="st15" d="M110.3,146c-0.4,0-0.8-0.2-0.9-0.7l-1.1-2.9c-0.1-0.3-0.3-0.5-0.6-0.6l-5-1.9c-0.8-0.3-1.5-1-1.8-1.8l-1.9-5
		c-0.1-0.3-0.3-0.5-0.6-0.6l-5-1.9c-0.8-0.3-1.5-1-1.8-1.8l-1.9-5c-0.1-0.3-0.3-0.5-0.6-0.6l-5-1.9c-0.8-0.3-1.5-1-1.8-1.8l-1.3-3.4
		c-0.2-0.5,0.1-1.1,0.6-1.3c0.5-0.2,1.1,0.1,1.3,0.6l1.3,3.5c0.1,0.3,0.3,0.5,0.6,0.6l5,1.9c0.8,0.3,1.5,1,1.8,1.8l1.9,5
		c0.1,0.3,0.3,0.5,0.6,0.6l5,1.9c0.8,0.3,1.5,1,1.8,1.8l1.9,5c0.1,0.3,0.3,0.5,0.6,0.6l5,1.9c0.8,0.3,1.5,1,1.8,1.8l1.1,2.9
		c0.2,0.5-0.1,1.1-0.6,1.3C110.5,146,110.4,146,110.3,146z"/>
	<path class="st15" d="M79.1,125.1c-0.3,0-0.5-0.1-0.7-0.3c-0.4-0.4-0.4-1,0-1.4l3.8-3.8c0.4-0.4,1-0.4,1.4,0s0.4,1,0,1.4l-3.8,3.8
		C79.6,125,79.4,125.1,79.1,125.1z"/>
	<path class="st15" d="M88.9,134.8c-0.3,0-0.5-0.1-0.7-0.3c-0.4-0.4-0.4-1,0-1.4l3.8-3.8c0.4-0.4,1-0.4,1.4,0s0.4,1,0,1.4l-3.8,3.8
		C89.4,134.7,89.2,134.8,88.9,134.8z"/>
	<path class="st15" d="M98.2,144.2c-0.3,0-0.5-0.1-0.7-0.3c-0.4-0.4-0.4-1,0-1.4l3.8-3.8c0.4-0.4,1-0.4,1.4,0c0.4,0.4,0.4,1,0,1.4
		l-3.8,3.8C98.8,144.1,98.5,144.2,98.2,144.2z"/>
</g>
<g>
	<path class="st15" d="M126.8,146c-0.4,0-0.8-0.2-0.9-0.7l-1.1-2.9c-0.1-0.3-0.3-0.5-0.6-0.6l-5-1.9c-0.8-0.3-1.5-1-1.8-1.8l-1.9-5
		c-0.1-0.3-0.3-0.5-0.6-0.6l-5-1.9c-0.8-0.3-1.5-1-1.8-1.8l-1.9-5c-0.1-0.3-0.3-0.5-0.6-0.6l-5-1.9c-0.8-0.3-1.5-1-1.8-1.8l-1.3-3.4
		c-0.2-0.5,0.1-1.1,0.6-1.3c0.5-0.2,1.1,0.1,1.3,0.6l1.3,3.5c0.1,0.3,0.3,0.5,0.6,0.6l5,1.9c0.8,0.3,1.5,1,1.8,1.8l1.9,5
		c0.1,0.3,0.3,0.5,0.6,0.6l5,1.9c0.8,0.3,1.5,1,1.8,1.8l1.9,5c0.1,0.3,0.3,0.5,0.6,0.6l5,1.9c0.8,0.3,1.5,1,1.8,1.8l1.1,2.9
		c0.2,0.5-0.1,1.1-0.6,1.3C127.1,146,126.9,146,126.8,146z"/>
	<path class="st15" d="M95.7,125.1c-0.3,0-0.5-0.1-0.7-0.3c-0.4-0.4-0.4-1,0-1.4l3.8-3.8c0.4-0.4,1-0.4,1.4,0c0.4,0.4,0.4,1,0,1.4
		l-3.8,3.8C96.2,125,95.9,125.1,95.7,125.1z"/>
	<path class="st15" d="M105.4,134.8c-0.3,0-0.5-0.1-0.7-0.3c-0.4-0.4-0.4-1,0-1.4l3.8-3.8c0.4-0.4,1-0.4,1.4,0s0.4,1,0,1.4l-3.8,3.8
		C105.9,134.7,105.7,134.8,105.4,134.8z"/>
	<path class="st15" d="M114.8,144.2c-0.3,0-0.5-0.1-0.7-0.3c-0.4-0.4-0.4-1,0-1.4l3.8-3.8c0.4-0.4,1-0.4,1.4,0c0.4,0.4,0.4,1,0,1.4
		l-3.8,3.8C115.3,144.1,115,144.2,114.8,144.2z"/>
</g>
<g>
	<path class="st15" d="M77.5,146c-0.4,0-0.8-0.2-0.9-0.7l-1.2-3.3l-6-2.2c-0.6-0.2-1-0.6-1.2-1.2l-2.2-5.9l-5.9-2.2
		c-0.6-0.2-1-0.6-1.2-1.2l-1.4-3.8c-0.2-0.5,0.1-1.1,0.6-1.3c0.5-0.2,1.1,0.1,1.3,0.6l1.4,3.8l5.9,2.2c0.6,0.2,1,0.6,1.2,1.2
		l2.2,5.9l6,2.2c0.6,0.2,1,0.6,1.2,1.2l1.2,3.3c0.2,0.5-0.1,1.1-0.6,1.3C77.8,146,77.7,146,77.5,146z"/>
	<path class="st15" d="M56.1,134.8c-0.3,0-0.5-0.1-0.7-0.3c-0.4-0.4-0.4-1,0-1.4l3.8-3.8c0.4-0.4,1-0.4,1.4,0s0.4,1,0,1.4l-3.8,3.8
		C56.6,134.7,56.4,134.8,56.1,134.8z"/>
	<path class="st15" d="M65.5,144.2c-0.3,0-0.5-0.1-0.7-0.3c-0.4-0.4-0.4-1,0-1.4l3.8-3.8c0.4-0.4,1-0.4,1.4,0s0.4,1,0,1.4l-3.8,3.8
		C66,144.1,65.7,144.2,65.5,144.2z"/>
</g>
<g>
	<path class="st15" d="M61.4,146.3c-0.4,0-0.8-0.2-0.9-0.7l-1.3-3.6l-6-2.2c-0.6-0.2-1-0.6-1.2-1.2l-1.5-4.1
		c-0.2-0.5,0.1-1.1,0.6-1.3c0.5-0.2,1.1,0.1,1.3,0.6l1.5,4.1l6,2.2c0.6,0.2,1,0.6,1.2,1.2l1.3,3.6c0.2,0.5-0.1,1.1-0.6,1.3
		C61.6,146.3,61.5,146.3,61.4,146.3z"/>
	<path class="st15" d="M49.2,144.2c-0.3,0-0.5-0.1-0.7-0.3c-0.4-0.4-0.4-1,0-1.4l3.8-3.8c0.4-0.4,1-0.4,1.4,0s0.4,1,0,1.4l-3.8,3.8
		C49.7,144.1,49.5,144.2,49.2,144.2z"/>
</g>
<path class="st14" d="M136.2,110.8c-2.6,0-4-0.8-5.2-1.5c-1.1-0.6-2.1-1.2-4.2-1.2s-3.1,0.6-4.2,1.2c-1.2,0.7-2.6,1.5-5.2,1.5
	c-2.6,0-4-0.8-5.2-1.5c-1.1-0.6-2.1-1.2-4.2-1.2c-2.1,0-3.1,0.6-4.2,1.2c-1.2,0.7-2.6,1.5-5.2,1.5c-2.6,0-4-0.8-5.2-1.5
	c-1.1-0.6-2.1-1.2-4.2-1.2c-2.1,0-3.1,0.6-4.2,1.2c-1.2,0.7-2.6,1.5-5.2,1.5s-4-0.8-5.2-1.5c-1.1-0.6-2.1-1.2-4.2-1.2
	s-3.1,0.6-4.2,1.2c-1.2,0.7-2.6,1.5-5.2,1.5c-2.6,0-4-0.8-5.2-1.5c-1.1-0.6-2.1-1.2-4.2-1.2s-3.1,0.6-4.2,1.2
	c-1.2,0.7-2.6,1.5-5.2,1.5c-2.6,0-4-0.8-5.2-1.5c-1.1-0.6-2.1-1.2-4.2-1.2c-0.6,0-1-0.4-1-1s0.4-1,1-1c2.6,0,4,0.8,5.2,1.5
	c1.1,0.6,2.1,1.2,4.2,1.2c2.1,0,3.1-0.6,4.2-1.2c1.2-0.7,2.6-1.5,5.2-1.5s4,0.8,5.2,1.5c1.1,0.6,2.1,1.2,4.2,1.2
	c2.1,0,3.1-0.6,4.2-1.2c1.2-0.7,2.6-1.5,5.2-1.5s4,0.8,5.2,1.5c1.1,0.6,2.1,1.2,4.2,1.2s3.1-0.6,4.2-1.2c1.2-0.7,2.6-1.5,5.2-1.5
	c2.6,0,4,0.8,5.2,1.5c1.1,0.6,2.1,1.2,4.2,1.2c2.1,0,3.1-0.6,4.2-1.2c1.2-0.7,2.6-1.5,5.2-1.5s4,0.8,5.2,1.5
	c1.1,0.6,2.1,1.2,4.2,1.2c2.1,0,3.1-0.6,4.2-1.2c1.2-0.7,2.6-1.5,5.2-1.5s4,0.8,5.2,1.5c1.1,0.6,2.1,1.2,4.2,1.2c0.6,0,1,0.4,1,1
	S136.7,110.8,136.2,110.8z"/>
<path class="st14" d="M42,122.3c-2.6,0-4-0.8-5.2-1.5c-1.1-0.6-2.1-1.2-4.2-1.2c-0.6,0-1-0.4-1-1s0.4-1,1-1c2.6,0,4,0.8,5.2,1.5
	c1.1,0.6,2.1,1.2,4.2,1.2s3.1-0.6,4.2-1.2c1.2-0.7,2.6-1.5,5.2-1.5c0.6,0,1,0.4,1,1s-0.4,1-1,1c-2.1,0-3.1,0.6-4.2,1.2
	C46,121.5,44.7,122.3,42,122.3z"/>
<path class="st14" d="M42,135.6c-2.6,0-4-0.8-5.2-1.5c-1.1-0.6-2.1-1.2-4.2-1.2c-0.6,0-1-0.4-1-1s0.4-1,1-1c2.6,0,4,0.8,5.2,1.5
	c1.1,0.6,2.1,1.2,4.2,1.2c0.6,0,1,0.4,1,1S42.6,135.6,42,135.6z"/>
<path class="st14" d="M135.1,122.3c-2.6,0-4-0.8-5.2-1.5c-1.1-0.6-2.1-1.2-4.2-1.2s-3.1,0.6-4.2,1.2c-1.2,0.7-2.6,1.5-5.2,1.5
	c-0.6,0-1-0.4-1-1s0.4-1,1-1c2.1,0,3.1-0.6,4.2-1.2c1.2-0.7,2.6-1.5,5.2-1.5c2.6,0,4,0.8,5.2,1.5c1.1,0.6,2.1,1.2,4.2,1.2
	c0.6,0,1,0.4,1,1S135.6,122.3,135.1,122.3z"/>
<path class="st14" d="M135.1,135.6c-2.6,0-4-0.8-5.2-1.5c-1.1-0.6-2.1-1.2-4.2-1.2c-0.6,0-1-0.4-1-1s0.4-1,1-1c2.6,0,4,0.8,5.2,1.5
	c1.1,0.6,2.1,1.2,4.2,1.2c0.6,0,1,0.4,1,1S135.6,135.6,135.1,135.6z"/>
</svg>
