<?xml version="1.0" encoding="utf-8"?>
<!-- Generator: Adobe Illustrator 24.1.2, SVG Export Plug-In . SVG Version: 6.00 Build 0)  -->
<svg version="1.1" id="Layer_1" xmlns="http://www.w3.org/2000/svg" xmlns:xlink="http://www.w3.org/1999/xlink" x="0px" y="0px"
	 viewBox="0 0 174 174" style="enable-background:new 0 0 174 174;" xml:space="preserve">
<style type="text/css">
	.st0{fill:#0047BF;}
	.st1{fill:#003FC1;}
	.st2{fill:#FFFFFF;}
	.st3{fill:none;stroke:#96D5CE;stroke-width:2;stroke-linecap:round;stroke-linejoin:round;stroke-miterlimit:10;}
	.st4{fill:none;stroke:#FF704C;stroke-width:2;stroke-linecap:round;stroke-linejoin:round;stroke-miterlimit:10;}
	.st5{fill:none;stroke:#FFFFFF;stroke-width:2;stroke-linecap:round;stroke-linejoin:round;stroke-miterlimit:10;}
	.st6{fill:none;stroke:#FF804C;stroke-width:2;stroke-linecap:round;stroke-linejoin:round;stroke-miterlimit:10;}
	.st7{fill:none;stroke:#0047BF;stroke-width:2;stroke-linecap:round;stroke-linejoin:round;stroke-miterlimit:10;}
	.st8{fill:#F1D439;}
	.st9{fill:#0047BF;stroke:#BEC8C8;stroke-width:2;stroke-linecap:round;stroke-linejoin:round;stroke-miterlimit:10;}
	.st10{fill:none;stroke:#FF7E51;stroke-width:2;stroke-linecap:round;stroke-linejoin:round;stroke-miterlimit:10;}
	.st11{fill:none;stroke:#A3D5D0;stroke-width:2;stroke-linecap:round;stroke-linejoin:round;stroke-miterlimit:10;}
	.st12{fill:none;stroke:#F1D439;stroke-width:2;stroke-linecap:round;stroke-linejoin:round;stroke-miterlimit:10;}
	.st13{fill:none;stroke:#E2E6E6;stroke-width:2;stroke-linecap:round;stroke-linejoin:round;stroke-miterlimit:10;}
	.st14{fill:#A3D5D0;}
	.st15{fill:#FF804C;}
	.st16{fill:none;stroke:#BEC8C8;stroke-width:2;stroke-linecap:round;stroke-linejoin:round;stroke-miterlimit:10;}
	.st17{fill:#0047BF;stroke:#0047BF;stroke-width:2;stroke-linecap:round;stroke-linejoin:round;stroke-miterlimit:10;}
	.st18{fill:#FF704C;}
	.st19{fill:none;}
	.st20{fill:#0041BD;}
	.st21{fill:none;stroke:#FFFFFF;stroke-width:1.5;stroke-linecap:round;stroke-linejoin:round;stroke-miterlimit:10;}
	.st22{fill:#0041BD;stroke:#A3D5D0;stroke-width:1.5;stroke-linecap:round;stroke-linejoin:round;stroke-miterlimit:10;}
	.st23{fill:#0041BD;stroke:#FFFFFF;stroke-width:2;stroke-linecap:round;stroke-linejoin:round;stroke-miterlimit:10;}
	.st24{fill:#0041BD;stroke:#FF804C;stroke-width:2;stroke-linecap:round;stroke-linejoin:round;stroke-miterlimit:10;}
	.st25{fill:#0041BD;stroke:#A3D5D0;stroke-width:2;stroke-linecap:round;stroke-linejoin:round;stroke-miterlimit:10;}
	.st26{fill:#0041BD;stroke:#F1D439;stroke-width:2;stroke-linecap:round;stroke-linejoin:round;stroke-miterlimit:10;}
	.st27{fill:#FF804C;stroke:#FF804C;stroke-width:2;stroke-linecap:round;stroke-linejoin:round;stroke-miterlimit:10;}
	.st28{fill:none;stroke:#FFFFFF;stroke-width:2.5;stroke-linecap:round;stroke-linejoin:round;stroke-miterlimit:10;}
	.st29{fill:#0041BD;stroke:#FF804C;stroke-width:1.5;stroke-linecap:round;stroke-linejoin:round;stroke-miterlimit:10;}
	.st30{fill:none;stroke:#FF704C;stroke-width:1.5;stroke-linecap:round;stroke-linejoin:round;stroke-miterlimit:10;}
	.st31{fill:none;stroke:#FF804C;stroke-width:1.5;stroke-linecap:round;stroke-linejoin:round;stroke-miterlimit:10;}
	.st32{fill:none;stroke:#A3D5D0;stroke-width:1.4377;stroke-linecap:round;stroke-linejoin:round;stroke-miterlimit:10;}
	.st33{fill:#0041BD;stroke:#F1D439;stroke-width:1.5;stroke-linecap:round;stroke-linejoin:round;stroke-miterlimit:10;}
	.st34{fill:none;stroke:#F1D439;stroke-width:1.5;stroke-linecap:round;stroke-linejoin:round;stroke-miterlimit:10;}
	.st35{fill:none;stroke:#A3D5D0;stroke-width:1.5;stroke-linecap:round;stroke-linejoin:round;stroke-miterlimit:10;}
	.st36{fill:none;stroke:#96D5CE;stroke-width:1.4377;stroke-linecap:round;stroke-linejoin:round;stroke-miterlimit:10;}
	.st37{fill:none;stroke:#0047BF;stroke-width:1.5;stroke-linecap:round;stroke-linejoin:round;stroke-miterlimit:10;}
	.st38{fill:#0047BF;stroke:#FF704C;stroke-width:2;stroke-linecap:round;stroke-linejoin:round;stroke-miterlimit:10;}
	.st39{fill:#0047BF;stroke:#FF804C;stroke-width:2;stroke-linecap:round;stroke-linejoin:round;stroke-miterlimit:10;}
	.st40{fill:#0047BF;stroke:#E2E6E6;stroke-width:2;stroke-linecap:round;stroke-linejoin:round;stroke-miterlimit:10;}
	.st41{fill:#0047BF;stroke:#A3D5D0;stroke-width:2;stroke-linecap:round;stroke-linejoin:round;stroke-miterlimit:10;}
	.st42{fill:#0047BF;stroke:#F1D439;stroke-width:2;stroke-linecap:round;stroke-linejoin:round;stroke-miterlimit:10;}
	.st43{fill:#0041BD;stroke:#E2E6E6;stroke-width:2;stroke-linecap:round;stroke-linejoin:round;stroke-miterlimit:10;}
	.st44{fill:#E2E6E6;}
	.st45{fill:none;stroke:#0047BF;stroke-width:1.4377;stroke-linecap:round;stroke-linejoin:round;stroke-miterlimit:10;}
	.st46{fill:#0047BF;stroke:#A3D5D0;stroke-width:1.5;stroke-linecap:round;stroke-linejoin:round;stroke-miterlimit:10;}
	.st47{fill:none;stroke:#E2E6E6;stroke-width:1.5;stroke-linecap:round;stroke-linejoin:round;stroke-miterlimit:10;}
	.st48{fill:#0047BF;stroke:#FF704C;stroke-width:1.5;stroke-linecap:round;stroke-linejoin:round;stroke-miterlimit:10;}
	.st49{fill:#0047BF;stroke:#FF804C;stroke-width:1.5;stroke-linecap:round;stroke-linejoin:round;stroke-miterlimit:10;}
	.st50{fill:#0047BF;stroke:#F1D439;stroke-width:1.5;stroke-linecap:round;stroke-linejoin:round;stroke-miterlimit:10;}
	.st51{fill:#0041BD;stroke:#0047BF;stroke-width:2;stroke-linecap:round;stroke-linejoin:round;stroke-miterlimit:10;}
	
		.st52{fill:none;stroke:#FFFFFF;stroke-width:2;stroke-linecap:round;stroke-linejoin:round;stroke-miterlimit:10;stroke-dasharray:15,5;}
	.st53{fill:#1B3570;}
	.st54{fill:#B5C0C0;}
	.st55{fill:#0047BF;stroke:#B5C0C0;stroke-width:2;stroke-linecap:round;stroke-linejoin:round;stroke-miterlimit:10;}
	.st56{fill:none;stroke:#B5C0C0;stroke-width:2;stroke-linecap:round;stroke-linejoin:round;stroke-miterlimit:10;}
	.st57{fill:#0047BF;stroke:#96D5CE;stroke-width:2;stroke-linecap:round;stroke-linejoin:round;stroke-miterlimit:10;}
	.st58{fill:#96D5CE;}
	.st59{fill:#FF7E51;}
	.st60{fill:#0B0069;}
	.st61{fill:#0047BF;stroke:#FFFFFF;stroke-width:2;stroke-linecap:round;stroke-linejoin:round;stroke-miterlimit:10;}
	.st62{fill:none;stroke:#FF7E51;stroke-width:1.5;stroke-linecap:round;stroke-linejoin:round;stroke-miterlimit:10;}
	.st63{fill:#0B0069;stroke:#FFFFFF;stroke-width:1.5;stroke-linecap:round;stroke-linejoin:round;stroke-miterlimit:10;}
</style>
<g>
	<g>
		<path class="st15" d="M66.6,91.1c0.5-1-0.2-3.5-0.2-3.5l3.8,3.5"/>
		<path class="st15" d="M66.6,92.1c-0.2,0-0.3,0-0.5-0.1c-0.5-0.3-0.7-0.9-0.4-1.4c0.2-0.3,0.1-1.7-0.3-2.8
			c-0.1-0.4,0.1-0.9,0.4-1.1c0.4-0.2,0.9-0.2,1.2,0.1l3.8,3.5c0.4,0.4,0.4,1,0.1,1.4c-0.4,0.4-1,0.4-1.4,0.1l-1.7-1.6
			c0,0.5-0.1,1-0.3,1.4C67.3,91.9,67,92.1,66.6,92.1z"/>
	</g>
	<g>
		<path class="st15" d="M62.5,91.5l-3.6-2c0,0,1.1,1.8,0.6,3.1"/>
		<path class="st15" d="M59.5,93.6c-0.1,0-0.3,0-0.4-0.1c-0.5-0.2-0.7-0.8-0.5-1.3c0.3-0.6-0.2-1.7-0.5-2.1
			c-0.2-0.4-0.2-0.9,0.1-1.2c0.3-0.3,0.8-0.4,1.2-0.2l3.6,2c0.5,0.3,0.7,0.9,0.4,1.4c-0.3,0.5-0.9,0.7-1.4,0.4l-1.4-0.8
			c0,0.5,0,0.9-0.2,1.4C60.3,93.4,59.9,93.6,59.5,93.6z"/>
	</g>
	<g>
		<path class="st15" d="M53.6,94.5c-0.9-1.3-3-2.2-5.6-2.2v0c1.6,0.6,2.5,2.2,2.5,3.5c0,1.3-0.9,2.9-2.5,3.5v0
			c2.2,0,4.5-0.6,6.1-2.7"/>
		<path class="st15" d="M48.1,100.2c-0.2,0-0.4-0.1-0.6-0.2c-0.3-0.2-0.4-0.5-0.4-0.8c0-0.5,0.3-0.9,0.8-1c1.1-0.5,1.7-1.6,1.7-2.5
			c0-0.9-0.7-2-1.8-2.5c-0.4-0.1-0.8-0.5-0.8-1c0-0.3,0.2-0.6,0.4-0.8c0.2-0.1,0.5-0.2,0.7-0.2c2.7,0,5.2,1.1,6.3,2.6
			c0.3,0.5,0.2,1.1-0.2,1.4c-0.5,0.3-1.1,0.2-1.4-0.2c-0.3-0.4-0.9-0.9-1.7-1.2c0.3,0.6,0.5,1.3,0.5,1.9c0,0.6-0.2,1.3-0.4,1.9
			c0.9-0.4,1.6-1,2.2-1.8c0.3-0.4,1-0.5,1.4-0.2c0.4,0.3,0.5,1,0.2,1.4c-1.5,2-3.8,3.1-6.7,3.1C48.2,100.2,48.1,100.2,48.1,100.2z"
			/>
	</g>
	<path class="st2" d="M76.1,97.1c-0.3,0-0.5-0.1-0.7-0.3c-0.4-0.4-0.3-1,0.1-1.4c0.4-0.4,0.9-0.8,1.3-1.2c-0.9-0.3-2.3-0.7-3.8-1.1
		c-0.5-0.1-0.9-0.7-0.7-1.2c0.1-0.5,0.7-0.9,1.2-0.7c0.1,0,5.5,1.3,6,2.1c0.5,0.8,0.2,1.1-2.6,3.5C76.6,97,76.4,97.1,76.1,97.1z
		 M78,94.6L78,94.6L78,94.6z"/>
	<path class="st2" d="M68.5,100.5c-4.5,0-11.8-2.6-14.7-3.7c-0.5-0.2-0.8-0.7-0.8-1.3c0-0.6,0.3-1.1,0.8-1.3
		c2.9-1.1,10.2-3.7,14.7-3.7c1.4,0,3,0.2,4.9,0.7c0.5,0.1,0.9,0.7,0.7,1.2c-0.1,0.5-0.7,0.9-1.2,0.7c-1.8-0.4-3.3-0.6-4.5-0.6
		c-3.6,0-9.5,1.9-12.5,3c3.1,1.1,8.9,3,12.5,3c2.9,0,5-0.9,6.5-1.5l0.2-0.1c0.3-0.1,0.7-0.3,1.1-0.5c-0.4-0.3-0.5-0.8-0.4-1.2
		c0.2-0.5,0.8-0.8,1.3-0.5c0.2,0.1,0.5,0.2,0.8,0.3c1.1,0.3,1.8,0.6,1.7,1.4c0,0.6-0.1,0.8-3.8,2.4l-0.2,0.1
		C74.2,99.5,71.8,100.5,68.5,100.5z M78.2,97.1L78.2,97.1L78.2,97.1z"/>
</g>
<g>
	<g>
		<path class="st15" d="M57.8,74.7c0.7-0.2,1.4-1.7,1.4-1.7l0.2,3.2"/>
		<path class="st15" d="M59.5,77.2c-0.5,0-1-0.4-1-0.9l-0.1-0.7c-0.1,0-0.2,0.1-0.3,0.1c-0.5,0.2-1.1-0.1-1.3-0.6
			c-0.2-0.5,0.1-1.1,0.6-1.2c0.2-0.1,0.6-0.7,0.8-1.2c0.2-0.4,0.7-0.6,1.1-0.5c0.4,0.1,0.8,0.5,0.8,0.9l0.2,3.2
			C60.5,76.7,60.1,77.2,59.5,77.2C59.5,77.2,59.5,77.2,59.5,77.2z"/>
	</g>
	<g>
		<path class="st15" d="M52.7,76.5c-0.2,0.7-1.9,1.5-1.9,1.5l3.6,0.6"/>
		<path class="st15" d="M54.4,79.5c-0.1,0-0.1,0-0.2,0l-3.6-0.6c-0.4-0.1-0.8-0.4-0.8-0.9s0.2-0.9,0.6-1c0.6-0.3,1.2-0.7,1.4-0.9
			c0.2-0.5,0.7-0.8,1.3-0.6c0.5,0.2,0.8,0.8,0.6,1.3c-0.1,0.2-0.2,0.4-0.3,0.6l1.2,0.2c0.5,0.1,0.9,0.6,0.8,1.1
			C55.3,79.2,54.8,79.5,54.4,79.5z"/>
	</g>
	<g>
		<path class="st15" d="M55.8,73.2L55,70.9c0,0-0.2,1.3-1,1.6"/>
		<path class="st15" d="M55.8,74.2c-0.4,0-0.8-0.3-0.9-0.7l-0.1-0.4c-0.1,0.1-0.2,0.1-0.3,0.2c-0.5,0.2-1.1,0-1.3-0.5
			c-0.2-0.5,0-1.1,0.5-1.3c0.2-0.1,0.4-0.6,0.5-0.9c0.1-0.4,0.5-0.8,0.9-0.8c0.4,0,0.9,0.2,1,0.7l0.8,2.4c0.2,0.5-0.1,1.1-0.6,1.3
			C56,74.2,55.9,74.2,55.8,74.2z"/>
	</g>
	<g>
		<path class="st15" d="M50.6,70.8c0.1-0.9-0.5-2.2-1.6-3.3l0,0c0.5,1,0.2,2-0.3,2.6c-0.5,0.6-1.6,0.9-2.6,0.5l0,0
			c1,0.9,2.3,1.6,3.9,1.3"/>
		<path class="st15" d="M49.2,73c-1.3,0-2.6-0.5-3.7-1.6c-0.2-0.1-0.3-0.3-0.4-0.6c-0.1-0.3,0-0.6,0.2-0.9c0.2-0.2,0.4-0.4,0.7-0.4
			c0.2,0,0.4,0,0.5,0.1c0.6,0.2,1.2-0.1,1.4-0.3c0.2-0.2,0.4-0.8,0.2-1.4C48,67.9,48,67.7,48,67.5c0-0.3,0.1-0.5,0.3-0.7
			c0.2-0.2,0.5-0.3,0.9-0.2c0.2,0,0.4,0.2,0.6,0.3c1.3,1.3,2,2.8,1.8,4.1c-0.1,0.4-0.3,0.7-0.6,0.8c0,0,0,0,0,0
			c0.1,0.5-0.3,1.1-0.8,1.2C49.8,73,49.5,73,49.2,73z M49.2,71c0.1,0,0.3,0,0.4,0c0-0.1,0-0.2,0-0.3c0,0,0-0.1,0-0.1
			c-0.1,0.1-0.1,0.2-0.2,0.2C49.3,70.9,49.2,71,49.2,71z"/>
	</g>
	<path class="st2" d="M61.2,82c-0.3,0-0.7,0-1.2,0c-0.6,0-1-0.5-1-1c0-0.6,0.4-1,1-1c0.1,0,0.3,0,0.4,0c-0.3-0.4-0.6-0.9-0.9-1.5
		c-0.3-0.5-0.2-1.1,0.3-1.4c0.5-0.3,1.1-0.2,1.4,0.3c0.6,0.9,2,3.1,1.9,3.8C62.9,81.9,62.5,82,61.2,82z"/>
	<path class="st2" d="M61.1,83.2c-0.4,0-1.1-0.2-2.4-0.7l-0.1,0c-0.9-0.3-2.5-0.9-4.1-2.4c-2.1-1.9-4.3-6.2-5.2-7.9
		c-0.2-0.4-0.1-1,0.2-1.4c0.4-0.4,0.9-0.5,1.4-0.3c1.8,0.7,6.2,2.6,8.3,4.6c0.6,0.6,1.3,1.4,2,2.4c0.3,0.5,0.2,1.1-0.3,1.4
		c-0.5,0.3-1.1,0.2-1.4-0.3c-0.6-0.9-1.2-1.6-1.7-2.1c-1.3-1.2-3.9-2.5-5.8-3.4c1,1.8,2.5,4.3,3.8,5.5c1.3,1.2,2.5,1.6,3.4,2l0.1,0
		c0.1,0,0.2,0.1,0.2,0.1c0.1-0.2,0.3-0.4,0.5-0.5c0.5-0.2,1.1,0,1.3,0.5c0,0.1,0.1,0.3,0.2,0.4c0.3,0.6,0.7,1.3,0.1,1.8
		C61.6,83.1,61.4,83.2,61.1,83.2z M60.1,82.5L60.1,82.5L60.1,82.5z M50.2,72.3C50.2,72.3,50.2,72.3,50.2,72.3
		C50.2,72.3,50.2,72.3,50.2,72.3z"/>
</g>
<g>
	<g>
		<path class="st15" d="M41.4,58.5c0.7-0.2,1.4-1.7,1.4-1.7L43,60"/>
		<path class="st15" d="M43,61c-0.5,0-1-0.4-1-0.9L42,59.3c-0.1,0-0.2,0.1-0.3,0.1c-0.5,0.2-1.1-0.1-1.3-0.6
			c-0.2-0.5,0.1-1.1,0.6-1.2c0.2-0.1,0.6-0.7,0.8-1.2c0.2-0.4,0.6-0.6,1.1-0.5c0.4,0.1,0.8,0.5,0.8,0.9l0.2,3.2
			C44.1,60.5,43.7,60.9,43,61C43.1,61,43.1,61,43,61z"/>
	</g>
	<g>
		<path class="st15" d="M36.2,60.2c-0.2,0.7-1.9,1.5-1.9,1.5l3.6,0.6"/>
		<path class="st15" d="M37.9,63.3c-0.1,0-0.1,0-0.2,0l-3.6-0.6c-0.4-0.1-0.8-0.4-0.8-0.9c-0.1-0.4,0.2-0.9,0.6-1
			c0.6-0.3,1.2-0.7,1.4-0.9c0.2-0.5,0.7-0.8,1.3-0.6c0.5,0.2,0.8,0.8,0.6,1.3c-0.1,0.2-0.2,0.4-0.3,0.6l1.2,0.2
			c0.5,0.1,0.9,0.6,0.8,1.1C38.8,62.9,38.4,63.3,37.9,63.3z"/>
	</g>
	<g>
		<path class="st15" d="M39.4,57l-0.8-2.4c0,0-0.2,1.3-1,1.6"/>
		<path class="st15" d="M39.4,58c-0.4,0-0.8-0.3-0.9-0.7l-0.1-0.4c-0.1,0.1-0.2,0.1-0.3,0.2c-0.5,0.2-1.1,0-1.3-0.5
			c-0.2-0.5,0-1.1,0.5-1.3c0.2-0.1,0.4-0.5,0.5-0.9c0.1-0.4,0.5-0.8,0.9-0.8c0.5,0,0.9,0.2,1,0.7l0.8,2.4c0.2,0.5-0.1,1.1-0.6,1.3
			C39.6,58,39.5,58,39.4,58z"/>
	</g>
	<g>
		<path class="st15" d="M34.1,54.6c0.1-0.9-0.5-2.2-1.6-3.3l0,0c0.5,1,0.2,2-0.3,2.6c-0.5,0.6-1.6,0.9-2.6,0.5l0,0
			c1,0.9,2.3,1.6,3.9,1.3"/>
		<path class="st15" d="M32.8,56.8c-1.3,0-2.6-0.5-3.7-1.6c-0.2-0.1-0.4-0.4-0.4-0.6c-0.1-0.3,0-0.7,0.2-0.9
			c0.3-0.3,0.8-0.4,1.2-0.2c0.6,0.2,1.2-0.1,1.4-0.3c0.2-0.2,0.4-0.8,0.2-1.4c-0.1-0.1-0.1-0.3-0.1-0.5c0-0.3,0.1-0.5,0.3-0.7
			c0.2-0.2,0.6-0.3,0.9-0.3c0.2,0,0.4,0.2,0.6,0.3c1.3,1.3,2,2.8,1.8,4.1c-0.1,0.4-0.3,0.7-0.6,0.8c0,0,0,0,0,0
			c0.1,0.5-0.3,1.1-0.8,1.2C33.4,56.8,33.1,56.8,32.8,56.8z M32.7,54.8c0.1,0,0.3,0,0.4,0c0-0.1,0-0.2,0-0.3c0,0,0-0.1,0-0.1
			c-0.1,0.1-0.1,0.2-0.2,0.2C32.9,54.6,32.8,54.7,32.7,54.8z"/>
	</g>
	<path class="st2" d="M44.7,65.7c-0.3,0-0.7,0-1.2,0c-0.6,0-1-0.5-1-1c0-0.6,0.5-1,1-1c0.1,0,0.3,0,0.4,0c-0.3-0.4-0.6-0.9-0.9-1.5
		c-0.3-0.5-0.2-1.1,0.3-1.4c0.5-0.3,1.1-0.2,1.4,0.3c0.6,0.9,2,3.1,1.9,3.8C46.5,65.6,46.1,65.7,44.7,65.7z"/>
	<path class="st2" d="M44.7,66.9c-0.4,0-1.1-0.2-2.4-0.7l-0.1,0c-0.9-0.3-2.5-0.9-4.1-2.4c-2.1-1.9-4.3-6.2-5.2-7.9
		c-0.2-0.4-0.1-1,0.2-1.4c0.4-0.4,0.9-0.5,1.4-0.3c1.8,0.7,6.2,2.6,8.3,4.6c0.6,0.6,1.3,1.4,2,2.4c0.3,0.5,0.2,1.1-0.3,1.4
		c-0.5,0.3-1.1,0.2-1.4-0.3c-0.6-0.9-1.2-1.6-1.7-2.1c-1.3-1.2-3.9-2.5-5.8-3.4c1,1.8,2.5,4.3,3.8,5.5c1.3,1.2,2.5,1.6,3.4,2l0.1,0
		c0.1,0,0.2,0.1,0.2,0.1c0.1-0.2,0.3-0.4,0.5-0.5c0.5-0.2,1.1,0,1.3,0.5c0,0.1,0.1,0.3,0.2,0.4c0.3,0.6,0.7,1.3,0.1,1.8
		C45.1,66.8,44.9,66.9,44.7,66.9z M43.7,66.2L43.7,66.2L43.7,66.2z"/>
</g>
<path class="st2" d="M64,71.6c-0.3,0-0.5-0.1-0.7-0.3l-5.5-5.5c-0.4-0.4-0.4-1,0-1.4s1-0.4,1.4,0l5.5,5.5c0.4,0.4,0.4,1,0,1.4
	C64.5,71.5,64.2,71.6,64,71.6z"/>
<path class="st2" d="M76.2,83.8c-0.3,0-0.5-0.1-0.7-0.3L67,75.1c-0.4-0.4-0.4-1,0-1.4s1-0.4,1.4,0l8.4,8.4c0.4,0.4,0.4,1,0,1.4
	C76.7,83.7,76.4,83.8,76.2,83.8z"/>
<path class="st2" d="M53,88.4c-0.3,0-0.5-0.1-0.7-0.3L43.2,79c-0.4-0.4-0.4-1,0-1.4s1-0.4,1.4,0l9.1,9.1c0.4,0.4,0.4,1,0,1.4
	C53.5,88.3,53.3,88.4,53,88.4z"/>
<path class="st2" d="M40,75.3c-0.3,0-0.5-0.1-0.7-0.3l-5.8-5.8c-0.4-0.4-0.4-1,0-1.4s1-0.4,1.4,0l5.8,5.8c0.4,0.4,0.4,1,0,1.4
	C40.5,75.2,40.2,75.3,40,75.3z"/>
<g>
	<path class="st2" d="M111.7,72.5c-3.9,0-7.6-2.1-9.6-5.4c-0.3-0.5-0.1-1.1,0.3-1.4c0.5-0.3,1.1-0.1,1.4,0.3
		c1.7,2.8,4.6,4.5,7.9,4.5c3.1,0,6-1.6,7.7-4.2c0.3-0.5,0.9-0.6,1.4-0.3c0.5,0.3,0.6,0.9,0.3,1.4C119,70.5,115.5,72.5,111.7,72.5z"
		/>
	<path class="st2" d="M134.1,90.1c-0.6,0-1-0.4-1-1c0-2.4,0-3.3,0-3.7l0-0.1c0-2.9-0.6-5.7-1.9-8.3c-0.2-0.5,0-1.1,0.5-1.3
		c0.5-0.2,1.1,0,1.3,0.5c1.4,2.9,2.1,5.9,2.1,9.1l0,0.2c0,0.3,0,1.3,0,3.6C135.1,89.7,134.7,90.1,134.1,90.1z"/>
	<path class="st2" d="M89.5,90.1c-0.6,0-1-0.4-1-1c0-3.1,0-3.7,0-3.8c0,0,0,0,0,0c0-12.2,10.5-22.1,23.3-22.1
		c9.1,0,17.5,5.1,21.3,13c0.2,0.5,0,1.1-0.5,1.3c-0.5,0.2-1.1,0-1.3-0.5c-3.4-7.2-11.1-11.8-19.5-11.8c-11.8,0-21.3,9-21.3,20.1
		l-0.1,0c0,0,0,0,0,0l0.1,0c0,0.1,0,0.2,0,0.3c0,0.7,0,1.8,0,3.5C90.5,89.7,90,90.1,89.5,90.1C89.5,90.1,89.5,90.1,89.5,90.1z"/>
	<path class="st14" d="M134.2,102.9c-0.6,0-1-0.4-1-1V89.5l-10.6-11.1H101L90.3,89.5v12.4c0,0.6-0.4,1-1,1s-1-0.4-1-1V89.1
		c0-0.3,0.1-0.5,0.3-0.7l11.2-11.7c0.2-0.2,0.4-0.3,0.7-0.3H123c0.3,0,0.5,0.1,0.7,0.3l11.2,11.7c0.2,0.2,0.3,0.4,0.3,0.7v12.8
		C135.2,102.4,134.8,102.9,134.2,102.9z"/>
	<path class="st14" d="M101.2,77.9c-0.6,0-1-0.4-1-1V64.7c0-0.6,0.4-1,1-1s1,0.4,1,1v12.2C102.2,77.5,101.7,77.9,101.2,77.9z"/>
	<path class="st14" d="M122.5,77.9c-0.6,0-1-0.4-1-1V64.7c0-0.6,0.4-1,1-1s1,0.4,1,1v12.2C123.5,77.5,123.1,77.9,122.5,77.9z"/>
	<path class="st14" d="M119.6,87.4h-15.3c-0.6,0-1-0.4-1-1s0.4-1,1-1h15.3c0.6,0,1,0.4,1,1S120.2,87.4,119.6,87.4z"/>
	<path class="st2" d="M111.1,61.3c-6.8,0-12.3-5.5-12.3-12.3c0-1.9,0.4-3.7,1.3-5.4c0.2-0.5,0.8-0.7,1.3-0.5
		c0.5,0.2,0.7,0.8,0.5,1.3c-0.7,1.4-1,2.9-1,4.5c0,5.7,4.6,10.3,10.3,10.3s10.3-4.6,10.3-10.3c0-1.6-0.4-3.1-1-4.5
		c-0.2-0.5,0-1.1,0.5-1.3c0.5-0.2,1.1,0,1.3,0.5c0.8,1.7,1.3,3.5,1.3,5.4C123.3,55.8,117.8,61.3,111.1,61.3z"/>
	<path class="st14" d="M123.1,44.9h-24c-0.3,0-0.6-0.2-0.8-0.4s-0.2-0.6-0.1-0.9c1.8-5.7,7-9.5,12.9-9.5c6,0,11.2,3.8,12.9,9.5
		c0.1,0.3,0,0.6-0.1,0.9S123.4,44.9,123.1,44.9z M100.6,42.9h21.1c-1.9-4.1-5.9-6.8-10.5-6.8S102.4,38.7,100.6,42.9z"/>
	<path class="st14" d="M111,44.3c-0.2,0-0.5-0.1-0.7-0.3l-6.1-5.9c-0.4-0.4-0.4-1,0-1.4c0.4-0.4,1-0.4,1.4,0l5.4,5.2l5.8-5.6
		c0.4-0.4,1-0.4,1.4,0c0.4,0.4,0.4,1,0,1.4l-6.5,6.2C111.5,44.2,111.2,44.3,111,44.3z"/>
</g>
<path class="st2" d="M138.6,123H41.9c-6.1,0-11-4.9-11-11c0-6.1,4.9-11,11-11h96.8c6.1,0,11,4.9,11,11
	C149.7,118,144.7,123,138.6,123z M41.9,102.9c-5,0-9,4.1-9,9s4.1,9,9,9h96.8c5,0,9-4.1,9-9s-4.1-9-9-9H41.9z"/>
<path class="st8" d="M43.6,116.2c-2.3,0-4.2-1.9-4.2-4.2s1.9-4.2,4.2-4.2s4.2,1.9,4.2,4.2S45.9,116.2,43.6,116.2z M43.6,109.7
	c-1.2,0-2.2,1-2.2,2.2s1,2.2,2.2,2.2c1.2,0,2.2-1,2.2-2.2S44.8,109.7,43.6,109.7z"/>
<path class="st8" d="M57,116.2c-2.3,0-4.2-1.9-4.2-4.2s1.9-4.2,4.2-4.2s4.2,1.9,4.2,4.2S59.3,116.2,57,116.2z M57,109.7
	c-1.2,0-2.2,1-2.2,2.2s1,2.2,2.2,2.2s2.2-1,2.2-2.2S58.2,109.7,57,109.7z"/>
<path class="st8" d="M70.4,116.2c-2.3,0-4.2-1.9-4.2-4.2s1.9-4.2,4.2-4.2s4.2,1.9,4.2,4.2S72.7,116.2,70.4,116.2z M70.4,109.7
	c-1.2,0-2.2,1-2.2,2.2s1,2.2,2.2,2.2s2.2-1,2.2-2.2S71.6,109.7,70.4,109.7z"/>
<path class="st8" d="M83.8,116.2c-2.3,0-4.2-1.9-4.2-4.2s1.9-4.2,4.2-4.2s4.2,1.9,4.2,4.2S86.1,116.2,83.8,116.2z M83.8,109.7
	c-1.2,0-2.2,1-2.2,2.2s1,2.2,2.2,2.2s2.2-1,2.2-2.2S85,109.7,83.8,109.7z"/>
<path class="st8" d="M97.2,116.2c-2.3,0-4.2-1.9-4.2-4.2s1.9-4.2,4.2-4.2s4.2,1.9,4.2,4.2S99.5,116.2,97.2,116.2z M97.2,109.7
	c-1.2,0-2.2,1-2.2,2.2s1,2.2,2.2,2.2s2.2-1,2.2-2.2S98.4,109.7,97.2,109.7z"/>
<path class="st8" d="M110.6,116.2c-2.3,0-4.2-1.9-4.2-4.2s1.9-4.2,4.2-4.2s4.2,1.9,4.2,4.2S113,116.2,110.6,116.2z M110.6,109.7
	c-1.2,0-2.2,1-2.2,2.2s1,2.2,2.2,2.2s2.2-1,2.2-2.2S111.8,109.7,110.6,109.7z"/>
<path class="st8" d="M124,116.2c-2.3,0-4.2-1.9-4.2-4.2s1.9-4.2,4.2-4.2s4.2,1.9,4.2,4.2S126.4,116.2,124,116.2z M124,109.7
	c-1.2,0-2.2,1-2.2,2.2s1,2.2,2.2,2.2s2.2-1,2.2-2.2S125.3,109.7,124,109.7z"/>
<path class="st8" d="M137.4,116.2c-2.3,0-4.2-1.9-4.2-4.2s1.9-4.2,4.2-4.2s4.2,1.9,4.2,4.2S139.8,116.2,137.4,116.2z M137.4,109.7
	c-1.2,0-2.2,1-2.2,2.2s1,2.2,2.2,2.2s2.2-1,2.2-2.2S138.7,109.7,137.4,109.7z"/>
<path class="st2" d="M134.2,142.1H46.8c-0.6,0-1-0.4-1-1V123c0-0.6,0.4-1,1-1s1,0.4,1,1v17.1h85.4V123c0-0.6,0.4-1,1-1s1,0.4,1,1
	v18.1C135.2,141.6,134.8,142.1,134.2,142.1z"/>
<path class="st2" d="M54.4,62c-0.3,0-0.5-0.1-0.7-0.3L43.3,51.4c-0.4-0.4-0.4-1,0-1.4s1-0.4,1.4,0l10.3,10.3c0.4,0.4,0.4,1,0,1.4
	C54.9,61.9,54.6,62,54.4,62z"/>
</svg>
