<?xml version="1.0" encoding="utf-8"?>
<!-- Generator: Adobe Illustrator 24.1.2, SVG Export Plug-In . SVG Version: 6.00 Build 0)  -->
<svg version="1.1" id="Layer_1" xmlns="http://www.w3.org/2000/svg" xmlns:xlink="http://www.w3.org/1999/xlink" x="0px" y="0px"
	 viewBox="0 0 174 174" style="enable-background:new 0 0 174 174;" xml:space="preserve">
<style type="text/css">
	.st0{fill:#0047BF;}
	.st1{fill:#003FC1;}
	.st2{fill:#FFFFFF;}
	.st3{fill:none;stroke:#96D5CE;stroke-width:2;stroke-linecap:round;stroke-linejoin:round;stroke-miterlimit:10;}
	.st4{fill:none;stroke:#FF704C;stroke-width:2;stroke-linecap:round;stroke-linejoin:round;stroke-miterlimit:10;}
	.st5{fill:none;stroke:#FFFFFF;stroke-width:2;stroke-linecap:round;stroke-linejoin:round;stroke-miterlimit:10;}
	.st6{fill:none;stroke:#FF804C;stroke-width:2;stroke-linecap:round;stroke-linejoin:round;stroke-miterlimit:10;}
	.st7{fill:none;stroke:#0047BF;stroke-width:2;stroke-linecap:round;stroke-linejoin:round;stroke-miterlimit:10;}
	.st8{fill:#F1D439;}
	.st9{fill:#0047BF;stroke:#BEC8C8;stroke-width:2;stroke-linecap:round;stroke-linejoin:round;stroke-miterlimit:10;}
	.st10{fill:none;stroke:#FF7E51;stroke-width:2;stroke-linecap:round;stroke-linejoin:round;stroke-miterlimit:10;}
	.st11{fill:none;stroke:#A3D5D0;stroke-width:2;stroke-linecap:round;stroke-linejoin:round;stroke-miterlimit:10;}
	.st12{fill:none;stroke:#F1D439;stroke-width:2;stroke-linecap:round;stroke-linejoin:round;stroke-miterlimit:10;}
	.st13{fill:none;stroke:#E2E6E6;stroke-width:2;stroke-linecap:round;stroke-linejoin:round;stroke-miterlimit:10;}
	.st14{fill:#A3D5D0;}
	.st15{fill:#FF804C;}
	.st16{fill:none;stroke:#BEC8C8;stroke-width:2;stroke-linecap:round;stroke-linejoin:round;stroke-miterlimit:10;}
	.st17{fill:#0047BF;stroke:#0047BF;stroke-width:2;stroke-linecap:round;stroke-linejoin:round;stroke-miterlimit:10;}
	.st18{fill:#FF704C;}
	.st19{fill:none;}
	.st20{fill:#0041BD;}
	.st21{fill:none;stroke:#FFFFFF;stroke-width:1.5;stroke-linecap:round;stroke-linejoin:round;stroke-miterlimit:10;}
	.st22{fill:#0041BD;stroke:#A3D5D0;stroke-width:1.5;stroke-linecap:round;stroke-linejoin:round;stroke-miterlimit:10;}
	.st23{fill:#0041BD;stroke:#FFFFFF;stroke-width:2;stroke-linecap:round;stroke-linejoin:round;stroke-miterlimit:10;}
	.st24{fill:#0041BD;stroke:#FF804C;stroke-width:2;stroke-linecap:round;stroke-linejoin:round;stroke-miterlimit:10;}
	.st25{fill:#0041BD;stroke:#A3D5D0;stroke-width:2;stroke-linecap:round;stroke-linejoin:round;stroke-miterlimit:10;}
	.st26{fill:#0041BD;stroke:#F1D439;stroke-width:2;stroke-linecap:round;stroke-linejoin:round;stroke-miterlimit:10;}
	.st27{fill:#FF804C;stroke:#FF804C;stroke-width:2;stroke-linecap:round;stroke-linejoin:round;stroke-miterlimit:10;}
	.st28{fill:none;stroke:#FFFFFF;stroke-width:2.5;stroke-linecap:round;stroke-linejoin:round;stroke-miterlimit:10;}
	.st29{fill:#0041BD;stroke:#FF804C;stroke-width:1.5;stroke-linecap:round;stroke-linejoin:round;stroke-miterlimit:10;}
	.st30{fill:none;stroke:#FF704C;stroke-width:1.5;stroke-linecap:round;stroke-linejoin:round;stroke-miterlimit:10;}
	.st31{fill:none;stroke:#FF804C;stroke-width:1.5;stroke-linecap:round;stroke-linejoin:round;stroke-miterlimit:10;}
	.st32{fill:none;stroke:#A3D5D0;stroke-width:1.4377;stroke-linecap:round;stroke-linejoin:round;stroke-miterlimit:10;}
	.st33{fill:#0041BD;stroke:#F1D439;stroke-width:1.5;stroke-linecap:round;stroke-linejoin:round;stroke-miterlimit:10;}
	.st34{fill:none;stroke:#F1D439;stroke-width:1.5;stroke-linecap:round;stroke-linejoin:round;stroke-miterlimit:10;}
	.st35{fill:none;stroke:#A3D5D0;stroke-width:1.5;stroke-linecap:round;stroke-linejoin:round;stroke-miterlimit:10;}
	.st36{fill:none;stroke:#96D5CE;stroke-width:1.4377;stroke-linecap:round;stroke-linejoin:round;stroke-miterlimit:10;}
	.st37{fill:none;stroke:#0047BF;stroke-width:1.5;stroke-linecap:round;stroke-linejoin:round;stroke-miterlimit:10;}
	.st38{fill:#0047BF;stroke:#FF704C;stroke-width:2;stroke-linecap:round;stroke-linejoin:round;stroke-miterlimit:10;}
	.st39{fill:#0047BF;stroke:#FF804C;stroke-width:2;stroke-linecap:round;stroke-linejoin:round;stroke-miterlimit:10;}
	.st40{fill:#0047BF;stroke:#E2E6E6;stroke-width:2;stroke-linecap:round;stroke-linejoin:round;stroke-miterlimit:10;}
	.st41{fill:#0047BF;stroke:#A3D5D0;stroke-width:2;stroke-linecap:round;stroke-linejoin:round;stroke-miterlimit:10;}
	.st42{fill:#0047BF;stroke:#F1D439;stroke-width:2;stroke-linecap:round;stroke-linejoin:round;stroke-miterlimit:10;}
	.st43{fill:#0041BD;stroke:#E2E6E6;stroke-width:2;stroke-linecap:round;stroke-linejoin:round;stroke-miterlimit:10;}
	.st44{fill:#E2E6E6;}
	.st45{fill:none;stroke:#0047BF;stroke-width:1.4377;stroke-linecap:round;stroke-linejoin:round;stroke-miterlimit:10;}
	.st46{fill:#0047BF;stroke:#A3D5D0;stroke-width:1.5;stroke-linecap:round;stroke-linejoin:round;stroke-miterlimit:10;}
	.st47{fill:none;stroke:#E2E6E6;stroke-width:1.5;stroke-linecap:round;stroke-linejoin:round;stroke-miterlimit:10;}
	.st48{fill:#0047BF;stroke:#FF704C;stroke-width:1.5;stroke-linecap:round;stroke-linejoin:round;stroke-miterlimit:10;}
	.st49{fill:#0047BF;stroke:#FF804C;stroke-width:1.5;stroke-linecap:round;stroke-linejoin:round;stroke-miterlimit:10;}
	.st50{fill:#0047BF;stroke:#F1D439;stroke-width:1.5;stroke-linecap:round;stroke-linejoin:round;stroke-miterlimit:10;}
	.st51{fill:#0041BD;stroke:#0047BF;stroke-width:2;stroke-linecap:round;stroke-linejoin:round;stroke-miterlimit:10;}
	
		.st52{fill:none;stroke:#FFFFFF;stroke-width:2;stroke-linecap:round;stroke-linejoin:round;stroke-miterlimit:10;stroke-dasharray:15,5;}
	.st53{fill:#1B3570;}
	.st54{fill:#B5C0C0;}
	.st55{fill:#0047BF;stroke:#B5C0C0;stroke-width:2;stroke-linecap:round;stroke-linejoin:round;stroke-miterlimit:10;}
	.st56{fill:none;stroke:#B5C0C0;stroke-width:2;stroke-linecap:round;stroke-linejoin:round;stroke-miterlimit:10;}
	.st57{fill:#0047BF;stroke:#96D5CE;stroke-width:2;stroke-linecap:round;stroke-linejoin:round;stroke-miterlimit:10;}
	.st58{fill:#96D5CE;}
	.st59{fill:#FF7E51;}
	.st60{fill:#0B0069;}
	.st61{fill:#0047BF;stroke:#FFFFFF;stroke-width:2;stroke-linecap:round;stroke-linejoin:round;stroke-miterlimit:10;}
	.st62{fill:none;stroke:#FF7E51;stroke-width:1.5;stroke-linecap:round;stroke-linejoin:round;stroke-miterlimit:10;}
	.st63{fill:#0B0069;stroke:#FFFFFF;stroke-width:1.5;stroke-linecap:round;stroke-linejoin:round;stroke-miterlimit:10;}
</style>
<path class="st2" d="M59.7,66.8c-0.1,0-0.2,0-0.4-0.1c-0.4-0.2-0.5-0.7-0.3-1l2-3.6c0.2-0.4,0.7-0.5,1-0.3c0.4,0.2,0.5,0.7,0.3,1
	l-2,3.6C60.2,66.7,60,66.8,59.7,66.8z"/>
<path class="st2" d="M56.2,62.5c-0.3-0.1-0.7-0.1-1-0.2c-0.1,0-0.2-0.1-0.3-0.1L53.4,65c-0.2,0.4-0.1,0.8,0.3,1
	c0.1,0.1,0.2,0.1,0.4,0.1c0.3,0,0.5-0.1,0.7-0.4l1.7-3.2C56.4,62.5,56.3,62.5,56.2,62.5z"/>
<path class="st2" d="M60.8,53c-0.4-0.2-0.8-0.1-1,0.3l-3.3,6.1c0.2,0,0.3,0,0.5,0.1c0.3,0.1,0.5,0.1,0.8,0.2c0.1,0,0.2,0.1,0.2,0.1
	l3.1-5.7C61.3,53.7,61.1,53.2,60.8,53z"/>
<path class="st2" d="M49,65.1c-0.1,0-0.2,0-0.4-0.1c-0.4-0.2-0.5-0.7-0.3-1L54,53.7c0.2-0.4,0.7-0.5,1-0.3c0.4,0.2,0.5,0.7,0.3,1
	l-5.6,10.3C49.5,65,49.3,65.1,49,65.1z"/>
<path class="st2" d="M44.3,63.7c-0.1,0-0.2,0-0.4-0.1c-0.4-0.2-0.5-0.7-0.3-1l3.8-7c0.2-0.4,0.7-0.5,1-0.3c0.4,0.2,0.5,0.7,0.3,1
	l-3.8,7C44.8,63.5,44.6,63.7,44.3,63.7z"/>
<path class="st2" d="M39.8,62.7c-0.1,0-0.2,0-0.4-0.1c-0.4-0.2-0.5-0.7-0.3-1l2-3.7c0.2-0.4,0.7-0.5,1-0.3c0.4,0.2,0.5,0.7,0.3,1
	l-2,3.7C40.3,62.5,40.1,62.7,39.8,62.7z"/>
<g>
	<path class="st15" d="M58.2,63.9c-0.6,0-1.1-0.1-1.6-0.3c-3.1-1.2-4.6-2-5-3c-0.2-0.3-0.2-0.7,0-1c0.4-1.2,2-1.6,4.8-1.2
		c2.3,0.3,4.9,0.7,4.9,0.7c0.4,0.1,0.7,0.4,0.6,0.9c-0.1,0.4-0.4,0.7-0.9,0.6c0,0-2.5-0.4-4.8-0.7c-2.2-0.3-3,0-3.2,0.2
		c0.1,0.2,0.8,0.9,4.1,2.1c0.9,0.3,2.5,0,3.7-0.2l0.6-0.1c0.4-0.1,0.8,0.2,0.9,0.6s-0.2,0.8-0.6,0.9l-0.5,0.1
		C60.2,63.7,59.2,63.9,58.2,63.9z"/>
</g>
<path class="st2" d="M66.5,66.1c-1.3,0-2.5-0.4-3.6-1.2c-1.6-1.1-2.6-2.9-2.6-4.6c0-3.2,2.7-5.2,5-5.9c0.4-0.1,0.8,0.1,0.9,0.5
	c0.1,0.4-0.1,0.8-0.5,0.9c-1.8,0.6-4,2.1-4,4.5c0,1.2,0.8,2.5,2,3.4c0.8,0.5,2.3,1.3,4.3,0.6c0.4-0.1,0.8,0.1,1,0.4
	c0.1,0.4-0.1,0.8-0.4,1C67.9,66,67.2,66.1,66.5,66.1z"/>
<g>
	<path class="st18" d="M34,63.7c-0.9,0-1.8-0.1-2.6-0.2c-0.3,0-0.6-0.3-0.6-0.6c-0.1-0.3,0.1-0.6,0.4-0.8c0.6-0.3,0.9-1,0.9-1.9
		s-0.4-1.6-0.9-1.9c-0.3-0.1-0.5-0.5-0.4-0.8c0.1-0.3,0.3-0.6,0.6-0.6c2.9-0.4,6.3-0.1,8.3,0.9c0.4,0.2,0.5,0.6,0.4,1
		c-0.2,0.4-0.6,0.5-1,0.4c-1.4-0.7-3.7-1-6-0.9c0.3,0.6,0.5,1.2,0.5,2s-0.2,1.4-0.5,2c2.2,0.1,4.5-0.2,5.9-0.9c0.4-0.2,0.8,0,1,0.4
		c0.2,0.4,0,0.8-0.4,1C38.2,63.3,36.1,63.7,34,63.7z"/>
</g>
<path class="st15" d="M42.8,58.4c-0.1,0-0.1,0-0.2,0c-0.9-0.2-1.5-0.6-1.7-1.1c-0.4-0.8,0.2-1.7,0.5-2.2c0.1-0.1,0.1-0.2,0.2-0.3
	c0.5-0.9,1.4-2.5,3.2-2c1.3,0.4,2.9,1.2,4.2,1.8l0.6,0.3c0.4,0.2,0.5,0.6,0.3,1s-0.6,0.5-1,0.3l-0.6-0.3c-1.2-0.6-2.7-1.4-3.9-1.7
	c-0.6-0.2-0.9,0.3-1.5,1.3c-0.1,0.1-0.1,0.3-0.2,0.4c-0.4,0.6-0.4,0.8-0.4,0.8l0,0c0,0,0.1,0.1,0.6,0.2c0.4,0.1,0.7,0.5,0.6,0.9
	C43.5,58.1,43.2,58.4,42.8,58.4z"/>
<path class="st15" d="M50.1,55.9c-0.1,0-0.2,0-0.3-0.1c-0.4-0.2-0.6-0.6-0.4-1c0.1-0.2,0.1-0.4,0.2-0.6c0.2-0.9,0.6-2.2,2.4-2.8
	c1.6-0.5,4.4-1.3,6.1-1.6c1.4-0.3,2.6-0.1,3.5,0.6c1.5,1.1,1.7,2.9,1.8,3c0.1,0.4-0.2,0.8-0.6,0.8c-0.4,0.1-0.8-0.2-0.8-0.6l0,0
	c0,0-0.2-1.3-1.1-2c-0.6-0.4-1.4-0.5-2.3-0.3c-1.6,0.3-4.3,1-5.9,1.6c-1.1,0.4-1.2,1-1.4,1.7c-0.1,0.3-0.1,0.5-0.2,0.8
	C50.7,55.7,50.4,55.9,50.1,55.9z"/>
<path class="st18" d="M44.3,66.4c-1.6,0-2.4-0.8-2.9-1.8c-0.1-0.2-0.6-1.1-0.4-2c0.1-0.4,0.4-0.9,1.1-1.2c0.4-0.2,0.8,0,1,0.4
	c0.2,0.4,0,0.8-0.4,1c-0.2,0.1-0.3,0.2-0.3,0.3c-0.1,0.2,0.1,0.5,0.2,0.8c0.4,0.7,0.8,1.1,1.9,1c0.7,0,1.2-0.1,1.6-0.1
	c0.7-0.1,1.3-0.1,2.5-0.2c0.1,0,0.1,0,0.3-0.3c0.1-0.2,0.2-0.4,0.6-0.5c0.2-0.1,0.4,0,0.6,0.1c0.4,0.2,0.5,0.7,0.2,1
	c0,0.1-0.1,0.1-0.2,0.2c-0.2,0.3-0.6,0.9-1.5,0.9c-1.2,0.1-1.7,0.1-2.4,0.2c-0.4,0-0.9,0.1-1.6,0.1C44.6,66.4,44.5,66.4,44.3,66.4z"
	/>
<path class="st2" d="M59.8,66.9c-1.7,0-10.2-0.7-17.9-4.1c-0.3-0.1-0.7-0.3-1.8-0.1c-0.8,0.1-1.6-0.2-2.3-0.7
	c-0.6-0.5-0.9-1.1-0.9-1.7c0-1.4,1.6-2.5,3-2.5c0.4,0,1.2,0,1.6-0.2l0.9-0.3c0.7-0.3,1.4-0.5,2.2-0.9c4.7-1.9,12.4-3.9,15.4-3.9
	c2.6,0,4.6,1.2,6.6,2.4c1.7,1,3.5,2.1,5.9,2.7c0.3,0.1,0.5,0.3,0.5,0.5c0.1,0.3,0,0.5-0.2,0.7l-1.4,1.3l2.2-0.2
	c0.3,0,0.6,0.1,0.8,0.4c0.1,0.3,0.1,0.6-0.2,0.9C69.6,65.9,68.3,66.9,59.8,66.9z M41,61.1c0.7,0,1.2,0.2,1.6,0.3
	c8.3,3.7,17.2,4,17.3,4c7,0,8.6-0.6,12-3.7l-2,0.2l-0.5,0.5c-0.3,0.3-0.8,0.3-1.1,0s-0.3-0.8,0-1.1l0.7-0.7c0,0,0,0,0,0l2.1-1.9
	c-2-0.7-3.6-1.7-5.1-2.5c-2-1.2-3.7-2.2-5.9-2.2c-2.6,0-9.9,1.7-14.9,3.7c-0.8,0.3-1.6,0.6-2.3,0.9l-0.9,0.3
	c-0.7,0.3-1.8,0.3-2.1,0.3c-0.8,0-1.5,0.6-1.5,1c0,0.2,0.1,0.4,0.4,0.6c0.3,0.3,0.7,0.4,1.1,0.4C40.3,61.1,40.7,61.1,41,61.1z"/>
<path class="st8" d="M67.3,56.3c-1.1,0-1.9,0.9-1.9,1.9s0.9,1.9,1.9,1.9c1.1,0,1.9-0.9,1.9-1.9S68.3,56.3,67.3,56.3z M67.3,59.2
	c-0.5,0-0.9-0.4-0.9-0.9c0-0.5,0.4-0.9,0.9-0.9c0.5,0,0.9,0.4,0.9,0.9C68.2,58.7,67.8,59.2,67.3,59.2z"/>
<g>
	<path class="st8" d="M75.3,111.2c-0.8,5.5-5.5,9.7-11.2,9.7H37.7c-6.2,0-11.3-5.1-11.3-11.3s5.1-11.3,11.3-11.3h26.4
		c5.2,0,9.6,3.5,10.9,8.3c0.6,0,1.2,0.1,1.8,0.1c0.1,0,0.2,0,0.3,0c-1.3-6-6.6-10.4-13-10.4H37.7c-7.3,0-13.3,6-13.3,13.3
		c0,7.3,6,13.3,13.3,13.3h26.4c6.8,0,12.4-5.1,13.2-11.7H75.3z"/>
	<path class="st8" d="M69.7,111.2c-0.7,2.8-3.2,4.8-6.2,4.8H38.3c-3.5,0-6.4-2.9-6.4-6.4s2.9-6.4,6.4-6.4h25.2
		c2.4,0,4.5,1.3,5.5,3.3c0.7,0,1.5,0,2.2,0c-1.2-3.1-4.2-5.2-7.7-5.2H38.3c-4.6,0-8.4,3.7-8.4,8.4s3.7,8.4,8.4,8.4h25.2
		c4.1,0,7.5-2.9,8.2-6.8H69.7z"/>
</g>
<g>
	<path class="st2" d="M61.8,87.9h26.4c5.4,0,9.9,3.8,11,8.8c0.7,0,1.4,0,2,0c-1.2-6.1-6.6-10.8-13.1-10.8H61.8
		c-6.7,0-12.3,5-13.2,11.5c0.7,0,1.3,0.1,2,0.1C51.5,92.1,56.2,87.9,61.8,87.9z"/>
	<path class="st2" d="M99.5,100.3c-0.6,5.7-5.4,10.2-11.2,10.2H61.8c-5.2,0-9.6-3.5-10.9-8.3c-0.5,0-1.1-0.1-1.6-0.1
		c-0.2,0-0.3,0-0.5-0.1c1.3,6,6.6,10.5,13,10.5h26.4c7,0,12.7-5.4,13.2-12.2C100.9,100.3,100.2,100.3,99.5,100.3z"/>
	<path class="st2" d="M56.3,97.7c0.7-2.8,3.2-4.9,6.2-4.9h25.2c2.7,0,5,1.7,5.9,4c0.7,0,1.4,0,2.1-0.1c-1-3.4-4.2-6-8-6H62.5
		c-4.1,0-7.5,3-8.2,6.9c0.2,0,0.4,0,0.6,0C55.3,97.6,55.8,97.6,56.3,97.7z"/>
	<path class="st2" d="M94.2,100.2c-0.1,0-0.2,0-0.3-0.1c-0.5,3-3.1,5.4-6.3,5.4H62.5c-2.6,0-4.8-1.6-5.8-3.8c-0.7,0.2-1.3,0.3-2,0.4
		c1.2,3.2,4.2,5.4,7.8,5.4h25.2c4.2,0,7.8-3.2,8.3-7.3C95.4,100.2,94.8,100.2,94.2,100.2z"/>
</g>
<path class="st8" d="M59.4,103.3H46.1c-0.6,0-1-0.4-1-1s0.4-1,1-1h13.3c0.6,0,1,0.4,1,1S59.9,103.3,59.4,103.3z"/>
<path class="st8" d="M59.4,98.4H46.1c-0.6,0-1-0.4-1-1s0.4-1,1-1h13.3c0.6,0,1,0.4,1,1S59.9,98.4,59.4,98.4z"/>
<g>
	<path class="st14" d="M80.4,87c0.7-2.7,3.2-4.8,6.1-4.8h25.2c2.4,0,4.5,1.4,5.6,3.4c0.7,0,1.4,0,2.2-0.1c-1.2-3.1-4.2-5.3-7.8-5.3
		H86.5c-4,0-7.4,2.9-8.2,6.7c0.6,0,1.2,0,1.7,0C80.2,87,80.3,87,80.4,87z"/>
	<path class="st14" d="M118,89.8c-0.5,3-3.1,5.2-6.3,5.2H86.5c-2.5,0-4.7-1.5-5.7-3.6c-0.7,0-1.4,0-2.1,0c1.2,3.2,4.2,5.6,7.9,5.6
		h25.2c4.2,0,7.7-3.2,8.3-7.3C119.3,89.7,118.6,89.8,118,89.8z"/>
	<path class="st14" d="M74.8,86.9c0.8-5.4,5.5-9.6,11.2-9.6h26.4c5.2,0,9.6,3.5,10.9,8.3c0.7,0,1.4,0,2-0.1
		c-1.4-5.9-6.7-10.2-12.9-10.2H85.9c-6.8,0-12.4,5.1-13.2,11.6c0.4,0,0.9,0,1.3-0.1C74.3,86.9,74.5,86.9,74.8,86.9z"/>
	<path class="st14" d="M123.6,89.7c-0.5,5.7-5.4,10.2-11.2,10.2H85.9c-5.3,0-9.7-3.6-10.9-8.5c-0.7,0-1.4,0-2.1,0
		c1.3,6,6.6,10.5,13,10.5h26.4c7,0,12.7-5.4,13.2-12.3C124.9,89.7,124.3,89.7,123.6,89.7z"/>
</g>
<path class="st2" d="M83.4,92.8H70.1c-0.6,0-1-0.4-1-1s0.4-1,1-1h13.3c0.6,0,1,0.4,1,1S84,92.8,83.4,92.8z"/>
<path class="st2" d="M83.4,87.9H70.2c-0.6,0-1-0.4-1-1s0.4-1,1-1h13.3c0.6,0,1,0.4,1,1S84,87.9,83.4,87.9z"/>
<g>
	<path class="st2" d="M136.3,64.8h-26.4c-7,0-12.7,5.4-13.2,12.3c0.2-0.1,0.3-0.2,0.6-0.2c0.5,0,0.9,0,1.4,0c0.6-5.6,5.4-10,11.2-10
		h26.4c6.2,0,11.3,5.1,11.3,11.3s-5.1,11.3-11.3,11.3h-26.4c-5.1,0-9.5-3.5-10.8-8.2c-0.7,0-1.4,0-2.1,0c1.4,5.8,6.7,10.2,12.9,10.2
		h26.4c7.3,0,13.3-6,13.3-13.3C149.6,70.8,143.6,64.8,136.3,64.8z"/>
	<path class="st2" d="M135.7,69.8h-25.2c-3.8,0-7.1,2.6-8.1,6.2c0.5,0,1.1,0,1.6,0.1c0.1,0,0.3,0.1,0.4,0.1c0.8-2.5,3.2-4.3,6-4.3
		h25.2c3.5,0,6.4,2.9,6.4,6.4s-2.9,6.4-6.4,6.4h-25.2c-2.1,0-3.9-1-5-2.5c-0.3,0-0.6,0-0.9,0c-0.4,0-0.7-0.2-0.9-0.5
		c-0.1,0-0.1,0.1-0.2,0.1c-0.1,0-0.2,0-0.3,0c-0.1,0-0.2,0-0.2,0c1.3,2.9,4.2,5,7.6,5h25.2c4.6,0,8.4-3.7,8.4-8.4
		C144,73.5,140.3,69.8,135.7,69.8z"/>
</g>
<path class="st14" d="M107.4,82.3H94.1c-0.6,0-1-0.4-1-1s0.4-1,1-1h13.3c0.6,0,1,0.4,1,1S107.9,82.3,107.4,82.3z"/>
<path class="st14" d="M107.4,77.3H94.1c-0.6,0-1-0.4-1-1s0.4-1,1-1h13.3c0.6,0,1,0.4,1,1S107.9,77.3,107.4,77.3z"/>
<path class="st14" d="M71.9,74.1c-1.4,0-2.1-0.4-2.8-0.8c-0.6-0.3-1-0.6-2.1-0.6c-1,0-1.5,0.3-2.1,0.6c-0.6,0.4-1.4,0.8-2.8,0.8
	c-1.4,0-2.1-0.4-2.8-0.8c-0.6-0.3-1-0.6-2.1-0.6c-1,0-1.5,0.3-2.1,0.6c-0.6,0.4-1.4,0.8-2.8,0.8s-2.1-0.4-2.8-0.8
	c-0.6-0.3-1-0.6-2.1-0.6s-1.5,0.3-2.1,0.6c-0.6,0.4-1.4,0.8-2.8,0.8s-2.1-0.4-2.8-0.8c-0.6-0.3-1-0.6-2.1-0.6S36.5,73,36,73.3
	c-0.6,0.4-1.4,0.8-2.8,0.8c-0.4,0-0.7-0.3-0.7-0.7s0.3-0.7,0.7-0.7c1,0,1.5-0.3,2.1-0.6c0.6-0.4,1.4-0.8,2.8-0.8s2.1,0.4,2.8,0.8
	c0.6,0.3,1,0.6,2.1,0.6c1,0,1.5-0.3,2.1-0.6c0.6-0.4,1.4-0.8,2.8-0.8c1.4,0,2.1,0.4,2.8,0.8c0.6,0.3,1,0.6,2.1,0.6s1.5-0.3,2.1-0.6
	c0.6-0.4,1.4-0.8,2.8-0.8c1.4,0,2.1,0.4,2.8,0.8c0.6,0.3,1,0.6,2.1,0.6c1,0,1.5-0.3,2.1-0.6c0.6-0.4,1.4-0.8,2.8-0.8
	s2.1,0.4,2.8,0.8c0.6,0.3,1,0.6,2.1,0.6c0.4,0,0.7,0.3,0.7,0.7S72.3,74.1,71.9,74.1z"/>
<path class="st14" d="M71.9,47.2c-1.4,0-2.1-0.4-2.8-0.8c-0.6-0.3-1-0.6-2.1-0.6c-1,0-1.5,0.3-2.1,0.6c-0.6,0.4-1.4,0.8-2.8,0.8
	c-1.4,0-2.1-0.4-2.8-0.8c-0.6-0.3-1-0.6-2.1-0.6c-1,0-1.5,0.3-2.1,0.6c-0.6,0.4-1.4,0.8-2.8,0.8s-2.1-0.4-2.8-0.8
	c-0.6-0.3-1-0.6-2.1-0.6s-1.5,0.3-2.1,0.6c-0.6,0.4-1.4,0.8-2.8,0.8s-2.1-0.4-2.8-0.8c-0.6-0.3-1-0.6-2.1-0.6s-1.5,0.3-2.1,0.6
	c-0.6,0.4-1.4,0.8-2.8,0.8c-0.4,0-0.7-0.3-0.7-0.7s0.3-0.7,0.7-0.7c1,0,1.5-0.3,2.1-0.6c0.6-0.4,1.4-0.8,2.8-0.8s2.1,0.4,2.8,0.8
	c0.6,0.3,1,0.6,2.1,0.6c1,0,1.5-0.3,2.1-0.6c0.6-0.4,1.4-0.8,2.8-0.8c1.4,0,2.1,0.4,2.8,0.8c0.6,0.3,1,0.6,2.1,0.6s1.5-0.3,2.1-0.6
	c0.6-0.4,1.4-0.8,2.8-0.8c1.4,0,2.1,0.4,2.8,0.8c0.6,0.3,1,0.6,2.1,0.6c1,0,1.5-0.3,2.1-0.6c0.6-0.4,1.4-0.8,2.8-0.8
	s2.1,0.4,2.8,0.8c0.6,0.3,1,0.6,2.1,0.6c0.4,0,0.7,0.3,0.7,0.7S72.3,47.2,71.9,47.2z"/>
<path class="st14" d="M71.9,40.9c-1.4,0-2.1-0.4-2.8-0.8c-0.6-0.3-1-0.6-2.1-0.6c-1,0-1.5,0.3-2.1,0.6c-0.6,0.4-1.4,0.8-2.8,0.8
	c-1.4,0-2.1-0.4-2.8-0.8c-0.6-0.3-1-0.6-2.1-0.6c-1,0-1.5,0.3-2.1,0.6c-0.6,0.4-1.4,0.8-2.8,0.8s-2.1-0.4-2.8-0.8
	c-0.6-0.3-1-0.6-2.1-0.6c-1,0-1.5,0.3-2.1,0.6c-0.6,0.4-1.4,0.8-2.8,0.8s-2.1-0.4-2.8-0.8c-0.6-0.3-1-0.6-2.1-0.6s-1.5,0.3-2.1,0.6
	c-0.6,0.4-1.4,0.8-2.8,0.8c-0.4,0-0.7-0.3-0.7-0.7s0.3-0.7,0.7-0.7c1,0,1.5-0.3,2.1-0.6c0.6-0.4,1.4-0.8,2.8-0.8s2.1,0.4,2.8,0.8
	c0.6,0.3,1,0.6,2.1,0.6c1,0,1.5-0.3,2.1-0.6c0.6-0.4,1.4-0.8,2.8-0.8c1.4,0,2.1,0.4,2.8,0.8c0.6,0.3,1,0.6,2.1,0.6s1.5-0.3,2.1-0.6
	c0.6-0.4,1.4-0.8,2.8-0.8c1.4,0,2.1,0.4,2.8,0.8c0.6,0.3,1,0.6,2.1,0.6c1,0,1.5-0.3,2.1-0.6c0.6-0.4,1.4-0.8,2.8-0.8
	s2.1,0.4,2.8,0.8c0.6,0.3,1,0.6,2.1,0.6c0.4,0,0.7,0.3,0.7,0.7S72.3,40.9,71.9,40.9z"/>
<path class="st15" d="M114.5,115.9c-0.4,0-0.8-0.3-0.8-0.8c0-0.7-0.2-1-0.6-1.4c-0.4-0.5-0.9-1.1-0.9-2.3c0-1.2,0.5-1.8,0.9-2.3
	c0.3-0.4,0.6-0.7,0.6-1.4c0-0.4,0.3-0.8,0.8-0.8s0.8,0.3,0.8,0.8c0,1.2-0.5,1.8-0.9,2.3c-0.3,0.4-0.6,0.7-0.6,1.4s0.2,1,0.6,1.4
	c0.4,0.5,0.9,1.1,0.9,2.3C115.2,115.6,114.9,115.9,114.5,115.9z"/>
<path class="st15" d="M109.9,115.9c-0.4,0-0.8-0.3-0.8-0.8c0-0.7-0.2-1-0.6-1.4c-0.4-0.5-0.9-1.1-0.9-2.3c0-1.2,0.5-1.8,0.9-2.3
	c0.3-0.4,0.6-0.7,0.6-1.4c0-0.4,0.3-0.8,0.8-0.8s0.8,0.3,0.8,0.8c0,1.2-0.5,1.8-0.9,2.3c-0.3,0.4-0.6,0.7-0.6,1.4s0.2,1,0.6,1.4
	c0.4,0.5,0.9,1.1,0.9,2.3C110.6,115.6,110.3,115.9,109.9,115.9z"/>
<path class="st15" d="M119.5,115.9c-0.4,0-0.8-0.3-0.8-0.8c0-0.7-0.2-1-0.6-1.4c-0.4-0.5-0.9-1.1-0.9-2.3s0.5-1.8,0.9-2.3
	c0.3-0.4,0.6-0.7,0.6-1.4c0-0.4,0.3-0.8,0.8-0.8s0.8,0.3,0.8,0.8c0,1.2-0.5,1.8-0.9,2.3c-0.3,0.4-0.6,0.7-0.6,1.4
	c0,0.7,0.2,1,0.6,1.4c0.4,0.5,0.9,1.1,0.9,2.3C120.3,115.6,119.9,115.9,119.5,115.9z"/>
<g>
	<g>
		<path class="st14" d="M113.9,141.6c-11.3,0-22.8-2.1-22.8-6.2c0-1.6,1.7-3,5.2-4.1c0.4-0.1,0.8,0.1,0.9,0.5
			c0.1,0.4-0.1,0.8-0.5,0.9c-3,1-4.1,2-4.1,2.6c0,2,8.1,4.7,21.3,4.7s21.3-2.7,21.3-4.7c0-0.7-1.2-1.8-4.6-2.8
			c-0.4-0.1-0.6-0.5-0.5-0.9c0.1-0.4,0.5-0.6,0.9-0.5c3.7,1.1,5.6,2.5,5.6,4.2C136.7,139.5,125.2,141.6,113.9,141.6z"/>
	</g>
	<g>
		<path class="st20" d="M96.4,132l1.7-0.5C97.5,131.7,97,131.9,96.4,132z"/>
		<path class="st14" d="M96.4,132.8c-0.3,0-0.6-0.2-0.7-0.5c-0.1-0.4,0.1-0.8,0.5-0.9c0.5-0.2,1.1-0.3,1.7-0.5
			c0.4-0.1,0.8,0.1,0.9,0.5c0.1,0.4-0.1,0.8-0.5,0.9l-1.7,0.5C96.6,132.8,96.5,132.8,96.4,132.8z"/>
	</g>
</g>
<path class="st2" d="M118.9,135.6c-0.1,0-0.2,0-0.4-0.1c-0.4-0.2-0.5-0.7-0.3-1l2-3.7c0.2-0.4,0.7-0.5,1-0.3c0.4,0.2,0.5,0.7,0.3,1
	l-2,3.7C119.4,135.5,119.2,135.6,118.9,135.6z"/>
<path class="st2" d="M114.2,130.9c-0.1,0-0.1,0-0.2,0l-1.6,2.9c-0.2,0.4-0.1,0.8,0.3,1c0.1,0.1,0.2,0.1,0.4,0.1
	c0.3,0,0.5-0.1,0.7-0.4l1.7-3.1C115,131.3,114.6,131.1,114.2,130.9z"/>
<path class="st2" d="M120,121.4c-0.4-0.2-0.8-0.1-1,0.3l-3.4,6.3c0.2,0,0.4,0,0.6,0c0.3,0,0.7,0.1,1,0.2l3.2-5.8
	C120.5,122.1,120.3,121.6,120,121.4z"/>
<path class="st2" d="M114.1,121.8c-0.4-0.2-0.8-0.1-1,0.3l-5.3,9.8c0.5,0.1,1,0.2,1.5,0.4l5.1-9.4
	C114.5,122.5,114.4,122,114.1,121.8z"/>
<path class="st2" d="M107.4,123.7c-0.4-0.2-0.8-0.1-1,0.3l-3.7,6.7c0,0,0.1,0,0.1,0c0.3,0.1,0.6,0.1,0.9,0.2c0.2,0,0.3,0.1,0.5,0.2
	l3.5-6.4C107.9,124.4,107.7,123.9,107.4,123.7z"/>
<path class="st2" d="M98.5,131.3c-0.1,0-0.2,0-0.4-0.1c-0.4-0.2-0.5-0.7-0.3-1l2.1-3.8c0.2-0.4,0.7-0.5,1-0.3c0.4,0.2,0.5,0.7,0.3,1
	l-2.1,3.8C99,131.2,98.7,131.3,98.5,131.3z"/>
<g>
	<path class="st15" d="M120.2,130.7l-0.1,0c-1.2,0.2-2.9,0.5-3.8,0.2c-3.7-1.4-4.2-2.1-4.3-2.1c0.1-0.2,1-0.6,3.3-0.2
		c1.9,0.3,4,0.6,4.7,0.7c0-0.5,0.1-0.9,0.1-1.4c0,0,0-0.1,0-0.1c-0.8-0.1-2.8-0.4-4.7-0.7c-2.9-0.4-4.5,0-4.9,1.2
		c-0.1,0.3-0.1,0.7,0,1.1c0.4,1,1.9,1.8,5.1,3c0.5,0.2,1.1,0.3,1.7,0.3c1,0,2-0.2,3-0.4l0.6-0.1c0,0,0,0,0.1,0
		C120.5,131.7,120.3,131.2,120.2,130.7z"/>
</g>
<path class="st2" d="M125.9,134.9c-1.3,0-2.6-0.4-3.7-1.2c-1.6-1.2-2.7-3-2.7-4.7c0-3.3,2.8-5.3,5.2-6.1c0.4-0.1,0.8,0.1,0.9,0.5
	c0.1,0.4-0.1,0.8-0.5,0.9c-1.9,0.6-4.1,2.2-4.1,4.7c0,1.2,0.8,2.6,2,3.5c0.8,0.6,2.4,1.4,4.5,0.6c0.4-0.1,0.8,0.1,1,0.4
	c0.1,0.4-0.1,0.8-0.4,1C127.4,134.8,126.6,134.9,125.9,134.9z"/>
<g>
	<path class="st18" d="M92.5,132.4c-0.9,0-1.8-0.1-2.7-0.2c-0.3,0-0.6-0.3-0.6-0.6c-0.1-0.3,0.1-0.6,0.4-0.8c0.6-0.3,1-1.1,1-1.9
		c0-0.9-0.4-1.7-1-1.9c-0.3-0.1-0.5-0.5-0.4-0.8c0.1-0.3,0.3-0.6,0.6-0.6c3-0.5,6.5-0.1,8.5,0.9c0.4,0.2,0.5,0.6,0.4,1
		c-0.2,0.4-0.6,0.5-1,0.4c-1.5-0.7-3.9-1-6.2-0.9c0.3,0.6,0.5,1.3,0.5,2s-0.2,1.4-0.5,2c2.3,0.1,4.6-0.2,6.1-0.9
		c0.4-0.2,0.8,0,1,0.4c0.2,0.4,0,0.8-0.4,1C96.8,132,94.7,132.4,92.5,132.4z"/>
</g>
<path class="st15" d="M101.5,126.9c-0.1,0-0.1,0-0.2,0c-0.9-0.2-1.5-0.6-1.7-1.1c-0.4-0.8,0.2-1.7,0.5-2.2c0.1-0.1,0.1-0.2,0.2-0.4
	c0.5-1,1.4-2.6,3.3-2.1c1.4,0.4,3,1.2,4.3,1.9l0.6,0.3c0.4,0.2,0.5,0.6,0.3,1c-0.2,0.4-0.6,0.5-1,0.3l-0.6-0.3
	c-1.3-0.6-2.8-1.4-4-1.8c-0.6-0.2-1,0.3-1.6,1.4c-0.1,0.1-0.1,0.3-0.2,0.4c-0.4,0.6-0.4,0.8-0.4,0.9c0,0,0,0,0,0
	c0,0,0.1,0.1,0.7,0.3c0.4,0.1,0.7,0.5,0.6,0.9C102.2,126.7,101.9,126.9,101.5,126.9z"/>
<path class="st15" d="M109,124.4c-0.1,0-0.2,0-0.3-0.1c-0.4-0.2-0.6-0.6-0.4-1c0.1-0.2,0.1-0.4,0.2-0.6c0.2-0.9,0.6-2.2,2.5-2.8
	c1.7-0.6,4.5-1.3,6.2-1.7c1.4-0.3,2.6-0.1,3.6,0.6c1.5,1.1,1.8,3,1.8,3c0.1,0.4-0.2,0.8-0.6,0.8c-0.4,0.1-0.8-0.2-0.8-0.6
	c0,0-0.2-1.3-1.2-2c-0.6-0.4-1.4-0.5-2.4-0.3c-1.6,0.3-4.5,1.1-6,1.6c-1.1,0.4-1.3,1-1.5,1.8c-0.1,0.3-0.1,0.5-0.2,0.8
	C109.6,124.2,109.3,124.4,109,124.4z"/>
<path class="st2" d="M134.2,129c-0.1-0.3-0.4-0.5-0.8-0.4l-2.3,0.3l1.5-1.4c0.2-0.2,0.3-0.5,0.2-0.7c-0.1-0.3-0.3-0.5-0.5-0.5
	c-2.5-0.7-4.3-1.8-6.1-2.8c-2.1-1.3-4.1-2.5-6.8-2.5c-3.1,0-11.1,2-15.8,4c-0.8,0.3-1.5,0.6-2.3,0.9l-1,0.4
	c-0.4,0.2-1.3,0.2-1.6,0.2c-1.5,0-3.1,1.1-3.1,2.5c0,0.6,0.3,1.3,0.9,1.8c0.7,0.6,1.5,0.9,2.3,0.7c0.3,0,0.5-0.1,0.6-0.1
	c-0.1-0.6,0.2-1.2,0.9-1.2c0.6,0,1.2,0.2,1.8,0.4c-0.3-0.1-0.6-0.2-0.9-0.4c-0.4-0.2-0.8-0.3-1.6-0.3c-0.3,0-0.7,0-1.1,0.1
	c-0.3,0.1-0.8-0.1-1.1-0.4c-0.2-0.2-0.4-0.4-0.4-0.6c0-0.5,0.9-1,1.6-1c0.3,0,1.4,0,2.2-0.3l1-0.4c0.7-0.3,1.5-0.6,2.3-0.9
	c5.1-2.1,12.6-3.9,15.3-3.9c2.2,0,4,1.1,6,2.3c1.5,0.9,3.1,1.9,5.2,2.6l-2.9,2.7c-0.3,0.3-0.3,0.8,0,1.1c0.3,0.3,0.8,0.3,1.1,0
	l0.6-0.5l2.1-0.2c-3.5,3.3-5.2,3.9-12.4,3.9c-0.1,0-7.7-0.3-15.6-3.2c0.3,0.1,0.5,0.2,0.8,0.3c1.5,0.6,3.1,1.5,4.7,1.6
	c0.5,0,1,0.4,1,1c0,0.2-0.1,0.4-0.2,0.5c4.5,1,8.2,1.3,9.3,1.3c8.8,0,10.1-1,15.1-5.8C134.3,129.6,134.4,129.3,134.2,129z"/>
<path class="st8" d="M126.7,124.8c-1.1,0-2,0.9-2,2s0.9,2,2,2c1.1,0,2-0.9,2-2S127.8,124.8,126.7,124.8z M126.7,127.8
	c-0.5,0-1-0.4-1-1c0-0.5,0.4-1,1-1c0.5,0,1,0.4,1,1C127.7,127.3,127.2,127.8,126.7,127.8z"/>
<path class="st8" d="M110.8,132.3l-11.1-3.4c-0.4-0.1-0.8,0.2-1,0.5c0,0.1,0,0.1-0.1,0.2c-1.1,3.5,0.9,7.2,4.3,8.2
	c0.6,0.2,1.3,0.3,1.9,0.3c2.8,0,5.4-1.8,6.3-4.6c0-0.1,0-0.1,0.1-0.3C111.4,132.8,111.2,132.4,110.8,132.3z M100,130.5l3.5,1.1
	l-2.8,2.7C100,133.2,99.7,131.9,100,130.5z M103.5,136.3c-0.6-0.2-1.2-0.5-1.7-0.9l2.6-2.6l0.7,3.7
	C104.6,136.6,104,136.5,103.5,136.3z M106.6,136.3l-0.8-4l3.8,1.2C109,134.8,107.9,135.8,106.6,136.3z"/>
</svg>
