<?xml version="1.0" encoding="utf-8"?>
<!-- Generator: Adobe Illustrator 26.0.1, SVG Export Plug-In . SVG Version: 6.00 Build 0)  -->
<svg version="1.1" id="Layer_1" xmlns="http://www.w3.org/2000/svg" xmlns:xlink="http://www.w3.org/1999/xlink" x="0px" y="0px"
	 viewBox="0 0 174 174" style="enable-background:new 0 0 174 174;" xml:space="preserve">
<style type="text/css">
	.st0{fill:#0047BF;}
	.st1{fill:#003FC1;}
	.st2{fill:#FFFFFF;}
	.st3{fill:none;stroke:#96D5CE;stroke-width:2;stroke-linecap:round;stroke-linejoin:round;stroke-miterlimit:10;}
	.st4{fill:none;stroke:#FF704C;stroke-width:2;stroke-linecap:round;stroke-linejoin:round;stroke-miterlimit:10;}
	.st5{fill:none;stroke:#FFFFFF;stroke-width:2;stroke-linecap:round;stroke-linejoin:round;stroke-miterlimit:10;}
	.st6{fill:none;stroke:#FF804C;stroke-width:2;stroke-linecap:round;stroke-linejoin:round;stroke-miterlimit:10;}
	.st7{fill:none;stroke:#0047BF;stroke-width:2;stroke-linecap:round;stroke-linejoin:round;stroke-miterlimit:10;}
	.st8{fill:#F1D439;}
	.st9{fill:#0047BF;stroke:#BEC8C8;stroke-width:2;stroke-linecap:round;stroke-linejoin:round;stroke-miterlimit:10;}
	.st10{fill:none;stroke:#FF7E51;stroke-width:2;stroke-linecap:round;stroke-linejoin:round;stroke-miterlimit:10;}
	.st11{fill:none;stroke:#A3D5D0;stroke-width:2;stroke-linecap:round;stroke-linejoin:round;stroke-miterlimit:10;}
	.st12{fill:none;stroke:#F1D439;stroke-width:2;stroke-linecap:round;stroke-linejoin:round;stroke-miterlimit:10;}
	.st13{fill:none;stroke:#E2E6E6;stroke-width:2;stroke-linecap:round;stroke-linejoin:round;stroke-miterlimit:10;}
	.st14{fill:#A3D5D0;}
	.st15{fill:#FF804C;}
	.st16{fill:none;stroke:#BEC8C8;stroke-width:2;stroke-linecap:round;stroke-linejoin:round;stroke-miterlimit:10;}
	.st17{fill:#0047BF;stroke:#0047BF;stroke-width:2;stroke-linecap:round;stroke-linejoin:round;stroke-miterlimit:10;}
	.st18{fill:#0041BD;}
	.st19{fill:#0041BD;stroke:#A3D5D0;stroke-width:2;stroke-linecap:round;stroke-linejoin:round;stroke-miterlimit:10;}
	.st20{fill:#0041BD;stroke:#FFFFFF;stroke-width:2;stroke-linecap:round;stroke-linejoin:round;stroke-miterlimit:10;}
	.st21{fill:#0041BD;stroke:#FF804C;stroke-width:2;stroke-linecap:round;stroke-linejoin:round;stroke-miterlimit:10;}
	.st22{fill:#0041BD;stroke:#F1D439;stroke-width:2;stroke-linecap:round;stroke-linejoin:round;stroke-miterlimit:10;}
	.st23{fill:#FF804C;stroke:#FF804C;stroke-width:2;stroke-linecap:round;stroke-linejoin:round;stroke-miterlimit:10;}
	.st24{fill:none;stroke:#FFFFFF;stroke-width:1.5;stroke-linecap:round;stroke-linejoin:round;stroke-miterlimit:10;}
	.st25{fill:#0041BD;stroke:#FF804C;stroke-width:1.5;stroke-linecap:round;stroke-linejoin:round;stroke-miterlimit:10;}
	.st26{fill:none;stroke:#FF704C;stroke-width:1.5;stroke-linecap:round;stroke-linejoin:round;stroke-miterlimit:10;}
	.st27{fill:none;stroke:#FF804C;stroke-width:1.5;stroke-linecap:round;stroke-linejoin:round;stroke-miterlimit:10;}
	.st28{fill:none;stroke:#A3D5D0;stroke-width:1.4377;stroke-linecap:round;stroke-linejoin:round;stroke-miterlimit:10;}
	.st29{fill:#0041BD;stroke:#A3D5D0;stroke-width:1.5;stroke-linecap:round;stroke-linejoin:round;stroke-miterlimit:10;}
	.st30{fill:#0041BD;stroke:#F1D439;stroke-width:1.5;stroke-linecap:round;stroke-linejoin:round;stroke-miterlimit:10;}
	.st31{fill:none;stroke:#F1D439;stroke-width:1.5;stroke-linecap:round;stroke-linejoin:round;stroke-miterlimit:10;}
	.st32{fill:none;stroke:#FFFFFF;stroke-width:2.5;stroke-linecap:round;stroke-linejoin:round;stroke-miterlimit:10;}
	.st33{fill:none;}
	.st34{fill:none;stroke:#A3D5D0;stroke-width:1.5;stroke-linecap:round;stroke-linejoin:round;stroke-miterlimit:10;}
	.st35{fill:none;stroke:#96D5CE;stroke-width:1.4377;stroke-linecap:round;stroke-linejoin:round;stroke-miterlimit:10;}
	.st36{fill:none;stroke:#0047BF;stroke-width:1.5;stroke-linecap:round;stroke-linejoin:round;stroke-miterlimit:10;}
	.st37{fill:#0047BF;stroke:#FF704C;stroke-width:2;stroke-linecap:round;stroke-linejoin:round;stroke-miterlimit:10;}
	.st38{fill:#0047BF;stroke:#FF804C;stroke-width:2;stroke-linecap:round;stroke-linejoin:round;stroke-miterlimit:10;}
	.st39{fill:#0047BF;stroke:#E2E6E6;stroke-width:2;stroke-linecap:round;stroke-linejoin:round;stroke-miterlimit:10;}
	.st40{fill:#0047BF;stroke:#A3D5D0;stroke-width:2;stroke-linecap:round;stroke-linejoin:round;stroke-miterlimit:10;}
	.st41{fill:#0047BF;stroke:#F1D439;stroke-width:2;stroke-linecap:round;stroke-linejoin:round;stroke-miterlimit:10;}
	.st42{fill:#0041BD;stroke:#E2E6E6;stroke-width:2;stroke-linecap:round;stroke-linejoin:round;stroke-miterlimit:10;}
	.st43{fill:#E2E6E6;}
	.st44{fill:none;stroke:#0047BF;stroke-width:1.4377;stroke-linecap:round;stroke-linejoin:round;stroke-miterlimit:10;}
	.st45{fill:#0047BF;stroke:#A3D5D0;stroke-width:1.5;stroke-linecap:round;stroke-linejoin:round;stroke-miterlimit:10;}
	.st46{fill:none;stroke:#E2E6E6;stroke-width:1.5;stroke-linecap:round;stroke-linejoin:round;stroke-miterlimit:10;}
	.st47{fill:#0047BF;stroke:#FF704C;stroke-width:1.5;stroke-linecap:round;stroke-linejoin:round;stroke-miterlimit:10;}
	.st48{fill:#0047BF;stroke:#FF804C;stroke-width:1.5;stroke-linecap:round;stroke-linejoin:round;stroke-miterlimit:10;}
	.st49{fill:#0047BF;stroke:#F1D439;stroke-width:1.5;stroke-linecap:round;stroke-linejoin:round;stroke-miterlimit:10;}
	.st50{fill:#0041BD;stroke:#0047BF;stroke-width:2;stroke-linecap:round;stroke-linejoin:round;stroke-miterlimit:10;}
	.st51{fill:#FF7E51;}
	.st52{fill:#96D5CE;}
	.st53{fill:#B5C0C0;}
	.st54{fill:#FFDD20;}
	
		.st55{fill:none;stroke:#FFFFFF;stroke-width:2;stroke-linecap:round;stroke-linejoin:round;stroke-miterlimit:10;stroke-dasharray:15,5;}
	.st56{opacity:0.74;fill:#0041BD;}
	.st57{fill:none;stroke:#FFFFFF;stroke-width:2;stroke-linecap:round;stroke-linejoin:round;stroke-dasharray:14.7582,4.9194;}
	.st58{fill:none;stroke:#B5C0C0;stroke-width:2;stroke-linecap:round;stroke-linejoin:round;stroke-miterlimit:10;}
	.st59{fill:#0047BF;stroke:#B5C0C0;stroke-width:2;stroke-linecap:round;stroke-linejoin:round;stroke-miterlimit:10;}
	.st60{fill:#0047BF;stroke:#96D5CE;stroke-width:2;stroke-linecap:round;stroke-linejoin:round;stroke-miterlimit:10;}
	.st61{fill:#0047BF;stroke:#FFFFFF;stroke-width:2;stroke-linecap:round;stroke-linejoin:round;stroke-miterlimit:10;}
	.st62{fill:none;stroke:#FFFFFF;stroke-width:0.75;stroke-linecap:round;stroke-linejoin:round;stroke-miterlimit:10;}
	.st63{fill:none;stroke:#FF7E51;stroke-width:1.5;stroke-linecap:round;stroke-linejoin:round;stroke-miterlimit:10;}
	.st64{fill:#0B0069;stroke:#FFFFFF;stroke-width:1.5;stroke-linecap:round;stroke-linejoin:round;stroke-miterlimit:10;}
	.st65{fill:none;stroke:#FF804C;stroke-width:1.9599;stroke-linecap:round;stroke-linejoin:round;stroke-miterlimit:10;}
</style>
<rect x="-4.3" y="-4.3" class="st18" width="182.7" height="182.7"/>
<g>
	<path class="st11" d="M92.5,61.1c2.1-2.3-0.6-8.4-0.6-8.4l14.8,8.3"/>
	<path class="st11" d="M59.7,65.9c-1.7-0.9-6.3-2.9-6.3-2.9l-5.8,5.4"/>
	<path class="st11" d="M85.6,62L73,56.1c0,0,3.3,4.6,0.4,7.4"/>
	<path class="st11" d="M62.4,77.9C78.1,84.8,96.3,87,96.3,87c0.7,0.2,1.4,0.1,2-0.3l6.4-4"/>
	<path class="st11" d="M40.2,69.5c-2.8-2.7-9.7-4.6-17.8-4.6v0c5.2,1.3,8,4.7,8,7.3c0,2.7-2.8,6.1-8,7.4v0c7.1,0,14.4-1.3,19.5-5.8"
		/>
	<path class="st5" d="M121.3,62.7c12.4,1.7,23.1,4.2,23.3,4.5c0.3,0.3-10.4,6.1-10.4,6.1"/>
	<polyline class="st11" points="61.3,78.1 57,81.4 48.7,75.3 	"/>
	<line class="st5" x1="95.1" y1="61.6" x2="84.5" y2="81.2"/>
	<line class="st5" x1="104.1" y1="61.1" x2="92.9" y2="81.7"/>
	<line class="st5" x1="112.6" y1="62" x2="101.8" y2="81.7"/>
	<line class="st5" x1="114.8" y1="74.3" x2="110.7" y2="81.7"/>
	<line class="st5" x1="86.2" y1="62" x2="76.5" y2="80.1"/>
	<line class="st5" x1="76.4" y1="63.7" x2="68.4" y2="78.3"/>
	<line class="st5" x1="67.3" y1="64.9" x2="60.5" y2="76.9"/>
	<line class="st5" x1="57.3" y1="67.1" x2="52.8" y2="75.4"/>
	<line class="st5" x1="48.1" y1="68.5" x2="44.9" y2="74.3"/>
	<path class="st5" d="M137.3,72.1c2.3,0.6,8.2,1.5,8.1,1.8c-0.1,0.5-12,3.6-13.8,4.1c-6.4,1.6-16.5,4.4-30.9,4.4
		c-19.2,0-50.9-6.9-62.7-9.6c-1.1-0.3-1.1-1.9,0-2.2c11.7-2.7,43.5-9.6,62.7-9.6c6.4,0,13.7,0.7,20.6,1.7"/>
	<path class="st19" d="M114.6,74.4c-1.4,0.1-3.9-0.2-5.5-0.5c-4.8-0.8-8.5-4.1-8.1-6c0.3-2,2.6-1.9,2.6-1.9l11.1,2.3"/>
	<path class="st20" d="M126.2,79.3c-7.4,1.1-12.2-3.7-12.2-8.1s6.1-7.7,12.5-7.7"/>
	<path class="st8" d="M129.9,63.4c-2.3,0-4.1,1.8-4.1,4.1c0,2.3,1.8,4.1,4.1,4.1c2.3,0,4.1-1.8,4.1-4.1
		C134,65.2,132.2,63.4,129.9,63.4z M129.9,69.5c-1.1,0-2-0.9-2-2c0-1.1,0.9-2,2-2c1.1,0,2,0.9,2,2C131.9,68.6,131.1,69.5,129.9,69.5
		z"/>
</g>
<g>
	<path class="st11" d="M32.1,41.2c4.7,0,4.7,2.7,9.4,2.7c4.7,0,4.7-2.7,9.4-2.7c4.7,0,4.7,2.7,9.4,2.7c4.7,0,4.7-2.7,9.4-2.7
		c4.7,0,4.7,2.7,9.4,2.7c4.7,0,4.7-2.7,9.4-2.7c4.7,0,4.7,2.7,9.4,2.7c4.7,0,4.7-2.7,9.4-2.7c4.7,0,4.7,2.7,9.4,2.7
		c4.7,0,4.7-2.7,9.4-2.7c4.7,0,4.7,2.7,9.4,2.7"/>
</g>
<g>
	<path class="st11" d="M32.1,96.4c4.7,0,4.7,2.7,9.4,2.7c4.7,0,4.7-2.7,9.4-2.7c4.7,0,4.7,2.7,9.4,2.7c4.7,0,4.7-2.7,9.4-2.7
		c4.7,0,4.7,2.7,9.4,2.7c4.7,0,4.7-2.7,9.4-2.7c4.7,0,4.7,2.7,9.4,2.7c4.7,0,4.7-2.7,9.4-2.7c4.7,0,4.7,2.7,9.4,2.7
		c4.7,0,4.7-2.7,9.4-2.7c4.7,0,4.7,2.7,9.4,2.7"/>
</g>
<g>
	<path class="st11" d="M32.1,109.2c4.7,0,4.7,2.7,9.4,2.7c4.7,0,4.7-2.7,9.4-2.7c4.7,0,4.7,2.7,9.4,2.7c4.7,0,4.7-2.7,9.4-2.7
		c4.7,0,4.7,2.7,9.4,2.7c4.7,0,4.7-2.7,9.4-2.7c4.7,0,4.7,2.7,9.4,2.7c4.7,0,4.7-2.7,9.4-2.7c4.7,0,4.7,2.7,9.4,2.7
		c4.7,0,4.7-2.7,9.4-2.7c4.7,0,4.7,2.7,9.4,2.7"/>
</g>
<g>
	<path class="st11" d="M32.1,121.9c4.7,0,4.7,2.7,9.4,2.7c4.7,0,4.7-2.7,9.4-2.7c4.7,0,4.7,2.7,9.4,2.7c4.7,0,4.7-2.7,9.4-2.7
		c4.7,0,4.7,2.7,9.4,2.7c4.7,0,4.7-2.7,9.4-2.7c4.7,0,4.7,2.7,9.4,2.7c4.7,0,4.7-2.7,9.4-2.7c4.7,0,4.7,2.7,9.4,2.7
		c4.7,0,4.7-2.7,9.4-2.7c4.7,0,4.7,2.7,9.4,2.7"/>
</g>
<line class="st11" x1="32.1" y1="135.4" x2="135.5" y2="135.4"/>
</svg>
