<?xml version="1.0" encoding="utf-8"?>
<!-- Generator: Adobe Illustrator 26.0.1, SVG Export Plug-In . SVG Version: 6.00 Build 0)  -->
<svg version="1.1" id="Layer_1" xmlns="http://www.w3.org/2000/svg" xmlns:xlink="http://www.w3.org/1999/xlink" x="0px" y="0px"
	 viewBox="0 0 174 174" style="enable-background:new 0 0 174 174;" xml:space="preserve">
<style type="text/css">
	.st0{fill:#0047BF;}
	.st1{fill:#003FC1;}
	.st2{fill:#FFFFFF;}
	.st3{fill:none;stroke:#96D5CE;stroke-width:2;stroke-linecap:round;stroke-linejoin:round;stroke-miterlimit:10;}
	.st4{fill:none;stroke:#FF704C;stroke-width:2;stroke-linecap:round;stroke-linejoin:round;stroke-miterlimit:10;}
	.st5{fill:none;stroke:#FFFFFF;stroke-width:2;stroke-linecap:round;stroke-linejoin:round;stroke-miterlimit:10;}
	.st6{fill:none;stroke:#FF804C;stroke-width:2;stroke-linecap:round;stroke-linejoin:round;stroke-miterlimit:10;}
	.st7{fill:none;stroke:#0047BF;stroke-width:2;stroke-linecap:round;stroke-linejoin:round;stroke-miterlimit:10;}
	.st8{fill:#F1D439;}
	.st9{fill:#0047BF;stroke:#BEC8C8;stroke-width:2;stroke-linecap:round;stroke-linejoin:round;stroke-miterlimit:10;}
	.st10{fill:none;stroke:#FF7E51;stroke-width:2;stroke-linecap:round;stroke-linejoin:round;stroke-miterlimit:10;}
	.st11{fill:none;stroke:#A3D5D0;stroke-width:2;stroke-linecap:round;stroke-linejoin:round;stroke-miterlimit:10;}
	.st12{fill:none;stroke:#F1D439;stroke-width:2;stroke-linecap:round;stroke-linejoin:round;stroke-miterlimit:10;}
	.st13{fill:none;stroke:#E2E6E6;stroke-width:2;stroke-linecap:round;stroke-linejoin:round;stroke-miterlimit:10;}
	.st14{fill:#A3D5D0;}
	.st15{fill:#FF804C;}
	.st16{fill:none;stroke:#BEC8C8;stroke-width:2;stroke-linecap:round;stroke-linejoin:round;stroke-miterlimit:10;}
	.st17{fill:#0047BF;stroke:#0047BF;stroke-width:2;stroke-linecap:round;stroke-linejoin:round;stroke-miterlimit:10;}
	.st18{fill:#0041BD;}
	.st19{fill:#0041BD;stroke:#A3D5D0;stroke-width:2;stroke-linecap:round;stroke-linejoin:round;stroke-miterlimit:10;}
	.st20{fill:#0041BD;stroke:#FFFFFF;stroke-width:2;stroke-linecap:round;stroke-linejoin:round;stroke-miterlimit:10;}
	.st21{fill:#0041BD;stroke:#FF804C;stroke-width:2;stroke-linecap:round;stroke-linejoin:round;stroke-miterlimit:10;}
	.st22{fill:#0041BD;stroke:#F1D439;stroke-width:2;stroke-linecap:round;stroke-linejoin:round;stroke-miterlimit:10;}
	.st23{fill:#FF804C;stroke:#FF804C;stroke-width:2;stroke-linecap:round;stroke-linejoin:round;stroke-miterlimit:10;}
	.st24{fill:none;stroke:#FFFFFF;stroke-width:1.5;stroke-linecap:round;stroke-linejoin:round;stroke-miterlimit:10;}
	.st25{fill:#0041BD;stroke:#FF804C;stroke-width:1.5;stroke-linecap:round;stroke-linejoin:round;stroke-miterlimit:10;}
	.st26{fill:none;stroke:#FF704C;stroke-width:1.5;stroke-linecap:round;stroke-linejoin:round;stroke-miterlimit:10;}
	.st27{fill:none;stroke:#FF804C;stroke-width:1.5;stroke-linecap:round;stroke-linejoin:round;stroke-miterlimit:10;}
	.st28{fill:none;stroke:#A3D5D0;stroke-width:1.4377;stroke-linecap:round;stroke-linejoin:round;stroke-miterlimit:10;}
	.st29{fill:#0041BD;stroke:#A3D5D0;stroke-width:1.5;stroke-linecap:round;stroke-linejoin:round;stroke-miterlimit:10;}
	.st30{fill:#0041BD;stroke:#F1D439;stroke-width:1.5;stroke-linecap:round;stroke-linejoin:round;stroke-miterlimit:10;}
	.st31{fill:none;stroke:#F1D439;stroke-width:1.5;stroke-linecap:round;stroke-linejoin:round;stroke-miterlimit:10;}
	.st32{fill:none;stroke:#FFFFFF;stroke-width:2.5;stroke-linecap:round;stroke-linejoin:round;stroke-miterlimit:10;}
	.st33{fill:none;}
	.st34{fill:none;stroke:#A3D5D0;stroke-width:1.5;stroke-linecap:round;stroke-linejoin:round;stroke-miterlimit:10;}
	.st35{fill:none;stroke:#96D5CE;stroke-width:1.4377;stroke-linecap:round;stroke-linejoin:round;stroke-miterlimit:10;}
	.st36{fill:none;stroke:#0047BF;stroke-width:1.5;stroke-linecap:round;stroke-linejoin:round;stroke-miterlimit:10;}
	.st37{fill:#0047BF;stroke:#FF704C;stroke-width:2;stroke-linecap:round;stroke-linejoin:round;stroke-miterlimit:10;}
	.st38{fill:#0047BF;stroke:#FF804C;stroke-width:2;stroke-linecap:round;stroke-linejoin:round;stroke-miterlimit:10;}
	.st39{fill:#0047BF;stroke:#E2E6E6;stroke-width:2;stroke-linecap:round;stroke-linejoin:round;stroke-miterlimit:10;}
	.st40{fill:#0047BF;stroke:#A3D5D0;stroke-width:2;stroke-linecap:round;stroke-linejoin:round;stroke-miterlimit:10;}
	.st41{fill:#0047BF;stroke:#F1D439;stroke-width:2;stroke-linecap:round;stroke-linejoin:round;stroke-miterlimit:10;}
	.st42{fill:#0041BD;stroke:#E2E6E6;stroke-width:2;stroke-linecap:round;stroke-linejoin:round;stroke-miterlimit:10;}
	.st43{fill:#E2E6E6;}
	.st44{fill:none;stroke:#0047BF;stroke-width:1.4377;stroke-linecap:round;stroke-linejoin:round;stroke-miterlimit:10;}
	.st45{fill:#0047BF;stroke:#A3D5D0;stroke-width:1.5;stroke-linecap:round;stroke-linejoin:round;stroke-miterlimit:10;}
	.st46{fill:none;stroke:#E2E6E6;stroke-width:1.5;stroke-linecap:round;stroke-linejoin:round;stroke-miterlimit:10;}
	.st47{fill:#0047BF;stroke:#FF704C;stroke-width:1.5;stroke-linecap:round;stroke-linejoin:round;stroke-miterlimit:10;}
	.st48{fill:#0047BF;stroke:#FF804C;stroke-width:1.5;stroke-linecap:round;stroke-linejoin:round;stroke-miterlimit:10;}
	.st49{fill:#0047BF;stroke:#F1D439;stroke-width:1.5;stroke-linecap:round;stroke-linejoin:round;stroke-miterlimit:10;}
	.st50{fill:#0041BD;stroke:#0047BF;stroke-width:2;stroke-linecap:round;stroke-linejoin:round;stroke-miterlimit:10;}
	.st51{fill:#FF7E51;}
	.st52{fill:#96D5CE;}
	.st53{fill:#B5C0C0;}
	.st54{fill:#FFDD20;}
	
		.st55{fill:none;stroke:#FFFFFF;stroke-width:2;stroke-linecap:round;stroke-linejoin:round;stroke-miterlimit:10;stroke-dasharray:15,5;}
	.st56{opacity:0.74;fill:#0041BD;}
	.st57{fill:none;stroke:#FFFFFF;stroke-width:2;stroke-linecap:round;stroke-linejoin:round;stroke-dasharray:14.7582,4.9194;}
	.st58{fill:none;stroke:#B5C0C0;stroke-width:2;stroke-linecap:round;stroke-linejoin:round;stroke-miterlimit:10;}
	.st59{fill:#0047BF;stroke:#B5C0C0;stroke-width:2;stroke-linecap:round;stroke-linejoin:round;stroke-miterlimit:10;}
	.st60{fill:#0047BF;stroke:#96D5CE;stroke-width:2;stroke-linecap:round;stroke-linejoin:round;stroke-miterlimit:10;}
	.st61{fill:#0047BF;stroke:#FFFFFF;stroke-width:2;stroke-linecap:round;stroke-linejoin:round;stroke-miterlimit:10;}
	.st62{fill:none;stroke:#FFFFFF;stroke-width:0.75;stroke-linecap:round;stroke-linejoin:round;stroke-miterlimit:10;}
	.st63{fill:none;stroke:#FF7E51;stroke-width:1.5;stroke-linecap:round;stroke-linejoin:round;stroke-miterlimit:10;}
	.st64{fill:#0B0069;stroke:#FFFFFF;stroke-width:1.5;stroke-linecap:round;stroke-linejoin:round;stroke-miterlimit:10;}
	.st65{fill:none;stroke:#FF804C;stroke-width:1.9599;stroke-linecap:round;stroke-linejoin:round;stroke-miterlimit:10;}
</style>
<rect x="-4.3" y="-4.3" class="st18" width="182.7" height="182.7"/>
<path class="st11" d="M84.4,75.7c1.4-1.5-0.4-5.3-0.4-5.3l9.4,5.3"/>
<path class="st11" d="M63.7,78.7c-1.1-0.5-4-1.9-4-1.9L56,80.2"/>
<path class="st11" d="M80.1,76.2l-8-3.7c0,0,2.1,2.9,0.2,4.7"/>
<path class="st11" d="M65.4,86.3c10,4.4,21.5,5.8,21.5,5.8c0.4,0.1,0.9,0.1,1.3-0.2l4.1-2.5"/>
<path class="st11" d="M51.3,81c-1.8-1.7-6.2-2.9-11.3-2.9v0c3.3,0.8,5.1,3,5.1,4.7c0,1.7-1.8,3.8-5.1,4.7v0c4.5,0,9.1-0.8,12.3-3.7"
	/>
<path class="st5" d="M102.7,76.7c7.9,1.1,14.7,2.7,14.8,2.8c0.2,0.2-6.6,3.8-6.6,3.8"/>
<polyline class="st11" points="64.7,86.5 62,88.5 56.7,84.7 "/>
<line class="st5" x1="96" y1="76.2" x2="89.2" y2="88.7"/>
<path class="st5" d="M112.8,82.6c1.4,0.4,5.2,1,5.2,1.2c0,0.3-7.6,2.3-8.7,2.6c-4,1-10.4,2.8-19.6,2.8c-12.2,0-32.3-4.4-39.7-6.1
	c-0.7-0.2-0.7-1.2,0-1.4c7.4-1.7,27.5-6.1,39.7-6.1c4,0,8.7,0.5,13,1.1"/>
<path class="st19" d="M98.5,84.1C97.6,84.1,96,84,95,83.8c-3-0.5-5.4-2.6-5.1-3.8s1.7-1.2,1.7-1.2l7,1.4"/>
<path class="st20" d="M105.8,87.2c-4.7,0.7-7.7-2.3-7.7-5.1s3.9-4.9,7.9-4.9"/>
<path class="st8" d="M108.1,77.7c-1.2,0-2.3,1-2.3,2.3c0,1.2,1,2.3,2.3,2.3c1.2,0,2.3-1,2.3-2.3C110.4,78.7,109.3,77.7,108.1,77.7z
	 M108.1,81c-0.6,0-1.1-0.5-1.1-1.1c0-0.6,0.5-1.1,1.1-1.1c0.6,0,1.1,0.5,1.1,1.1C109.2,80.5,108.7,81,108.1,81z"/>
<line class="st5" x1="80.3" y1="52.4" x2="77.7" y2="57.2"/>
<line class="st5" x1="78.6" y1="40.5" x2="70.1" y2="56.3"/>
<line class="st5" x1="70.8" y1="41" x2="63.3" y2="55"/>
<line class="st5" x1="62" y1="43.5" x2="56.9" y2="53"/>
<line class="st5" x1="53.6" y1="46.6" x2="50.8" y2="51.6"/>
<path class="st21" d="M80.2,52.7c-1.9,0.3-4.6,1-6.3,0.3c-2.8-1.1-6.7-2.7-6.2-4.1c0.5-1.3,3.3-1.2,5.4-0.9c3.1,0.4,6.6,1,6.6,1"/>
<path class="st5" d="M89.4,55.9c-5.2,1.9-9.9-2.5-9.9-6.3c0-3.5,2.9-6.1,6.1-7.1"/>
<g>
	<path class="st4" d="M50.2,46.9c-1.7-0.8-4.3-1.3-7.2-1.3c-1.2,0-2.4,0.1-3.4,0.3c1.1,0.5,1.8,1.9,1.8,3.4c0,1.6-0.7,2.9-1.8,3.4
		c1.1,0.2,2.2,0.3,3.4,0.3c2.8,0,5.4-0.5,7.1-1.3"/>
</g>
<path class="st6" d="M63.7,42.9c-1.7-0.9-4.3-2.3-6.3-2.8c-1.9-0.5-2.8,1.5-3.5,2.8c-0.8,1.3-1.2,2.5,1,3"/>
<path class="st6" d="M81.5,40.3c0,0-0.7-5-5.9-4c-2.1,0.4-5.8,1.4-8.1,2.2c-2.5,0.8-2.4,2.7-2.9,4"/>
<path class="st4" d="M64.2,55.3c-0.2-0.1-0.3,1-1.4,1c-2.6,0.1-3,0.2-5.5,0.4c-2.1,0.1-2.8-0.8-3.5-1.9c-0.3-0.5-1-2.1,0.6-2.8"/>
<path class="st5" d="M90,51.5l5.1-4.8c-7.5-2-10.8-6.9-16.7-6.9c-3.8,0-14,2.5-20.5,5.1c-1.6,0.6-2.9,1.1-4.3,1.7
	C52.7,47,51.2,47,51.1,47c-1.4,0-3.1,1-3.1,2.3c0,1.3,1.7,2.5,3.1,2.3c1.7-0.3,2.4,0,3,0.2c10.6,4.7,22.2,5.4,23.8,5.4
	C89,57.3,90.5,56.2,97,50l-6,0.6"/>
<path class="st8" d="M87.9,44.1c-1.4,0-2.6,1.2-2.6,2.6c0,1.4,1.2,2.6,2.6,2.6c1.4,0,2.6-1.2,2.6-2.6C90.5,45.2,89.4,44.1,87.9,44.1
	z M87.9,47.9c-0.7,0-1.3-0.6-1.3-1.3c0-0.7,0.6-1.3,1.3-1.3c0.7,0,1.3,0.6,1.3,1.3C89.2,47.3,88.6,47.9,87.9,47.9z"/>
<path class="st12" d="M69.3,113.6c-1.7-0.8-7-2.9-8.9-3.4c-1.8-0.5-3.1,2-3.8,3.2c-0.6,1-1,1.9,0.4,2.6"/>
<path class="st12" d="M90.1,110.5c-1.7-1.1-7-4.4-9.1-4.6c-2.4-0.2-7.1,2.7-9.4,4.2c-1.2,0.8-1.5,1.8,0.1,2.7"/>
<path class="st12" d="M102.8,110.6c-1.5-1.3-7.1-6.3-9.2-6.9c-2.1-0.5-2.7,4.1-2.1,6.5"/>
<path class="st12" d="M85.2,127.7c-2.4,1-6,2.4-7.6,2.2c-2.3-0.2-6.5-4.6-8.3-6.4c-0.2-0.2-0.4-0.5-0.5-0.7"/>
<path class="st12" d="M66.4,122.6c-1.9,0.8-5.5,2-6.7,1.9c-1.3-0.2-2.8-2-4-3.8"/>
<path class="st12" d="M55.7,120.7l-13.5,5.2c-0.5,0.2-1-0.2-1-0.7l0.1-1.4c0.3-3.2,0.1-6.3-0.5-9.5l-0.3-1.3c0-0.5,0.4-0.9,0.9-0.8
	l14.6,4.1"/>
<line class="st5" x1="87.9" y1="75.8" x2="81.1" y2="88.3"/>
<line class="st5" x1="78.8" y1="76.9" x2="73.4" y2="86.7"/>
<line class="st5" x1="69.4" y1="78.5" x2="65.3" y2="86"/>
<line class="st5" x1="60.7" y1="80.1" x2="58.3" y2="84.4"/>
<line class="st5" x1="102" y1="111" x2="92.2" y2="128.8"/>
<line class="st5" x1="93" y1="110.5" x2="83.9" y2="127"/>
<line class="st5" x1="82.8" y1="112" x2="75.9" y2="124.5"/>
<line class="st5" x1="73.1" y1="113.1" x2="67.7" y2="123"/>
<line class="st5" x1="63.3" y1="115.3" x2="60.3" y2="120.7"/>
<path class="st22" d="M102.5,121.8c-0.7,0-3.2,0-4.7,0.2c-2.8,0.4-6,1.2-5.6,2.7c0.3,1.4,3.6,2.2,5.6,2.2c3.9,0,7.4-1.1,7.4-1.1"/>
<line class="st12" x1="126.2" y1="122.8" x2="126.1" y2="127.4"/>
<line class="st12" x1="104" y1="129.8" x2="101.9" y2="133.8"/>
<line class="st12" x1="98.2" y1="134.4" x2="103.6" y2="130.2"/>
<path class="st5" d="M125.3,120.9c0.6,0.1,1.6,0.3,2.3,0.4c0.4,0,0.4,0.3,0.3,0.5c-0.3,0.3-8,4.3-10.4,5.2
	c-4.4,1.7-9.1,3.1-19.9,2.7c-13.8-0.5-24.7-7.7-49-9.8c-0.8-0.1-0.8-1.5,0-1.7c8.4-2.1,31.8-7.5,47-7.9c14-0.3,24.7,6.1,33.5,9.3
	l-6.4,1.7"/>
<path class="st5" d="M115.3,127.7c-7.5,1.3-12.6-2.8-12.8-6.8c-0.2-4,6.6-7.9,12.6-6.9"/>
<path class="st8" d="M118.5,115.8c-1.5,0-2.8,1.2-2.8,2.8s1.2,2.8,2.8,2.8c1.5,0,2.8-1.2,2.8-2.8S120,115.8,118.5,115.8z M118.5,120
	c-0.8,0-1.4-0.6-1.4-1.4c0-0.8,0.6-1.4,1.4-1.4c0.8,0,1.4,0.6,1.4,1.4C119.8,119.4,119.2,120,118.5,120z"/>
<path class="st8" d="M136.5,113.1c-1.5,0-2.8,1.2-2.8,2.8s1.2,2.8,2.8,2.8c1.5,0,2.8-1.2,2.8-2.8S138,113.1,136.5,113.1z
	 M136.5,117.3c-0.8,0-1.4-0.6-1.4-1.4c0-0.8,0.6-1.4,1.4-1.4c0.8,0,1.4,0.6,1.4,1.4C137.8,116.7,137.2,117.3,136.5,117.3z"/>
<path class="st8" d="M144.8,121.4c-1.5,0-2.8,1.2-2.8,2.8s1.2,2.8,2.8,2.8c1.5,0,2.8-1.2,2.8-2.8S146.3,121.4,144.8,121.4z
	 M144.8,125.6c-0.8,0-1.4-0.6-1.4-1.4c0-0.8,0.6-1.4,1.4-1.4c0.8,0,1.4,0.6,1.4,1.4C146.1,124.9,145.5,125.6,144.8,125.6z"/>
<line class="st5" x1="29.6" y1="34.4" x2="29.6" y2="140.9"/>
<line class="st5" x1="131.2" y1="140.9" x2="29.6" y2="140.9"/>
<line class="st5" x1="30.5" y1="49" x2="32.8" y2="49"/>
<line class="st5" x1="30.5" y1="83.3" x2="32.8" y2="83.3"/>
<line class="st5" x1="30.5" y1="117.7" x2="32.8" y2="117.7"/>
<line class="st5" x1="146.5" y1="114.3" x2="134.9" y2="125.7"/>
<path class="st14" d="M127.1,75.5c-1.5,0-2.8,1.2-2.8,2.8c0,1.5,1.2,2.8,2.8,2.8c1.5,0,2.8-1.2,2.8-2.8
	C129.9,76.7,128.7,75.5,127.1,75.5z M127.1,79.6c-0.8,0-1.4-0.6-1.4-1.4c0-0.8,0.6-1.4,1.4-1.4c0.8,0,1.4,0.6,1.4,1.4
	C128.5,79,127.9,79.6,127.1,79.6z"/>
<path class="st14" d="M135.4,83.8c-1.5,0-2.8,1.2-2.8,2.8s1.2,2.8,2.8,2.8c1.5,0,2.8-1.2,2.8-2.8S137,83.8,135.4,83.8z M135.4,87.9
	c-0.8,0-1.4-0.6-1.4-1.4c0-0.8,0.6-1.4,1.4-1.4c0.8,0,1.4,0.6,1.4,1.4C136.8,87.3,136.2,87.9,135.4,87.9z"/>
<line class="st5" x1="137.1" y1="76.6" x2="125.6" y2="88.1"/>
<path class="st15" d="M104,42.4c-1.5,0-2.8,1.2-2.8,2.8c0,1.5,1.2,2.8,2.8,2.8c1.5,0,2.8-1.2,2.8-2.8
	C106.8,43.7,105.5,42.4,104,42.4z M104,46.6c-0.8,0-1.4-0.6-1.4-1.4c0-0.8,0.6-1.4,1.4-1.4c0.8,0,1.4,0.6,1.4,1.4
	C105.4,46,104.8,46.6,104,46.6z"/>
<path class="st15" d="M112.3,50.7c-1.5,0-2.8,1.2-2.8,2.8c0,1.5,1.2,2.8,2.8,2.8c1.5,0,2.8-1.2,2.8-2.8
	C115.1,52,113.8,50.7,112.3,50.7z M112.3,54.9c-0.8,0-1.4-0.6-1.4-1.4c0-0.8,0.6-1.4,1.4-1.4c0.8,0,1.4,0.6,1.4,1.4
	C113.7,54.2,113.1,54.9,112.3,54.9z"/>
<line class="st5" x1="114" y1="43.6" x2="102.4" y2="55"/>
</svg>
