<?xml version="1.0" encoding="utf-8"?>
<!-- Generator: Adobe Illustrator 26.0.1, SVG Export Plug-In . SVG Version: 6.00 Build 0)  -->
<svg version="1.1" id="Layer_1" xmlns="http://www.w3.org/2000/svg" xmlns:xlink="http://www.w3.org/1999/xlink" x="0px" y="0px"
	 viewBox="0 0 174 174" style="enable-background:new 0 0 174 174;" xml:space="preserve">
<style type="text/css">
	.st0{fill:#0047BF;}
	.st1{fill:#003FC1;}
	.st2{fill:#FFFFFF;}
	.st3{fill:none;stroke:#96D5CE;stroke-width:2;stroke-linecap:round;stroke-linejoin:round;stroke-miterlimit:10;}
	.st4{fill:none;stroke:#FF704C;stroke-width:2;stroke-linecap:round;stroke-linejoin:round;stroke-miterlimit:10;}
	.st5{fill:none;stroke:#FFFFFF;stroke-width:2;stroke-linecap:round;stroke-linejoin:round;stroke-miterlimit:10;}
	.st6{fill:none;stroke:#FF804C;stroke-width:2;stroke-linecap:round;stroke-linejoin:round;stroke-miterlimit:10;}
	.st7{fill:none;stroke:#0047BF;stroke-width:2;stroke-linecap:round;stroke-linejoin:round;stroke-miterlimit:10;}
	.st8{fill:#F1D439;}
	.st9{fill:#0047BF;stroke:#BEC8C8;stroke-width:2;stroke-linecap:round;stroke-linejoin:round;stroke-miterlimit:10;}
	.st10{fill:none;stroke:#FF7E51;stroke-width:2;stroke-linecap:round;stroke-linejoin:round;stroke-miterlimit:10;}
	.st11{fill:none;stroke:#A3D5D0;stroke-width:2;stroke-linecap:round;stroke-linejoin:round;stroke-miterlimit:10;}
	.st12{fill:none;stroke:#F1D439;stroke-width:2;stroke-linecap:round;stroke-linejoin:round;stroke-miterlimit:10;}
	.st13{fill:none;stroke:#E2E6E6;stroke-width:2;stroke-linecap:round;stroke-linejoin:round;stroke-miterlimit:10;}
	.st14{fill:#A3D5D0;}
	.st15{fill:#FF804C;}
	.st16{fill:none;stroke:#BEC8C8;stroke-width:2;stroke-linecap:round;stroke-linejoin:round;stroke-miterlimit:10;}
	.st17{fill:#0047BF;stroke:#0047BF;stroke-width:2;stroke-linecap:round;stroke-linejoin:round;stroke-miterlimit:10;}
	.st18{fill:#0041BD;}
	.st19{fill:#0041BD;stroke:#A3D5D0;stroke-width:2;stroke-linecap:round;stroke-linejoin:round;stroke-miterlimit:10;}
	.st20{fill:#0041BD;stroke:#FFFFFF;stroke-width:2;stroke-linecap:round;stroke-linejoin:round;stroke-miterlimit:10;}
	.st21{fill:#0041BD;stroke:#FF804C;stroke-width:2;stroke-linecap:round;stroke-linejoin:round;stroke-miterlimit:10;}
	.st22{fill:#0041BD;stroke:#F1D439;stroke-width:2;stroke-linecap:round;stroke-linejoin:round;stroke-miterlimit:10;}
	.st23{fill:#FF804C;stroke:#FF804C;stroke-width:2;stroke-linecap:round;stroke-linejoin:round;stroke-miterlimit:10;}
	.st24{fill:none;stroke:#FFFFFF;stroke-width:1.5;stroke-linecap:round;stroke-linejoin:round;stroke-miterlimit:10;}
	.st25{fill:#0041BD;stroke:#FF804C;stroke-width:1.5;stroke-linecap:round;stroke-linejoin:round;stroke-miterlimit:10;}
	.st26{fill:none;stroke:#FF704C;stroke-width:1.5;stroke-linecap:round;stroke-linejoin:round;stroke-miterlimit:10;}
	.st27{fill:none;stroke:#FF804C;stroke-width:1.5;stroke-linecap:round;stroke-linejoin:round;stroke-miterlimit:10;}
	.st28{fill:none;stroke:#A3D5D0;stroke-width:1.4377;stroke-linecap:round;stroke-linejoin:round;stroke-miterlimit:10;}
	.st29{fill:#0041BD;stroke:#A3D5D0;stroke-width:1.5;stroke-linecap:round;stroke-linejoin:round;stroke-miterlimit:10;}
	.st30{fill:#0041BD;stroke:#F1D439;stroke-width:1.5;stroke-linecap:round;stroke-linejoin:round;stroke-miterlimit:10;}
	.st31{fill:none;stroke:#F1D439;stroke-width:1.5;stroke-linecap:round;stroke-linejoin:round;stroke-miterlimit:10;}
	.st32{fill:none;stroke:#FFFFFF;stroke-width:2.5;stroke-linecap:round;stroke-linejoin:round;stroke-miterlimit:10;}
	.st33{fill:none;}
	.st34{fill:none;stroke:#A3D5D0;stroke-width:1.5;stroke-linecap:round;stroke-linejoin:round;stroke-miterlimit:10;}
	.st35{fill:none;stroke:#96D5CE;stroke-width:1.4377;stroke-linecap:round;stroke-linejoin:round;stroke-miterlimit:10;}
	.st36{fill:none;stroke:#0047BF;stroke-width:1.5;stroke-linecap:round;stroke-linejoin:round;stroke-miterlimit:10;}
	.st37{fill:#0047BF;stroke:#FF704C;stroke-width:2;stroke-linecap:round;stroke-linejoin:round;stroke-miterlimit:10;}
	.st38{fill:#0047BF;stroke:#FF804C;stroke-width:2;stroke-linecap:round;stroke-linejoin:round;stroke-miterlimit:10;}
	.st39{fill:#0047BF;stroke:#E2E6E6;stroke-width:2;stroke-linecap:round;stroke-linejoin:round;stroke-miterlimit:10;}
	.st40{fill:#0047BF;stroke:#A3D5D0;stroke-width:2;stroke-linecap:round;stroke-linejoin:round;stroke-miterlimit:10;}
	.st41{fill:#0047BF;stroke:#F1D439;stroke-width:2;stroke-linecap:round;stroke-linejoin:round;stroke-miterlimit:10;}
	.st42{fill:#0041BD;stroke:#E2E6E6;stroke-width:2;stroke-linecap:round;stroke-linejoin:round;stroke-miterlimit:10;}
	.st43{fill:#E2E6E6;}
	.st44{fill:none;stroke:#0047BF;stroke-width:1.4377;stroke-linecap:round;stroke-linejoin:round;stroke-miterlimit:10;}
	.st45{fill:#0047BF;stroke:#A3D5D0;stroke-width:1.5;stroke-linecap:round;stroke-linejoin:round;stroke-miterlimit:10;}
	.st46{fill:none;stroke:#E2E6E6;stroke-width:1.5;stroke-linecap:round;stroke-linejoin:round;stroke-miterlimit:10;}
	.st47{fill:#0047BF;stroke:#FF704C;stroke-width:1.5;stroke-linecap:round;stroke-linejoin:round;stroke-miterlimit:10;}
	.st48{fill:#0047BF;stroke:#FF804C;stroke-width:1.5;stroke-linecap:round;stroke-linejoin:round;stroke-miterlimit:10;}
	.st49{fill:#0047BF;stroke:#F1D439;stroke-width:1.5;stroke-linecap:round;stroke-linejoin:round;stroke-miterlimit:10;}
	.st50{fill:#0041BD;stroke:#0047BF;stroke-width:2;stroke-linecap:round;stroke-linejoin:round;stroke-miterlimit:10;}
	.st51{fill:#FF7E51;}
	.st52{fill:#96D5CE;}
	.st53{fill:#B5C0C0;}
	.st54{fill:#FFDD20;}
	
		.st55{fill:none;stroke:#FFFFFF;stroke-width:2;stroke-linecap:round;stroke-linejoin:round;stroke-miterlimit:10;stroke-dasharray:15,5;}
	.st56{opacity:0.74;fill:#0041BD;}
	.st57{fill:none;stroke:#FFFFFF;stroke-width:2;stroke-linecap:round;stroke-linejoin:round;stroke-dasharray:14.7582,4.9194;}
	.st58{fill:none;stroke:#B5C0C0;stroke-width:2;stroke-linecap:round;stroke-linejoin:round;stroke-miterlimit:10;}
	.st59{fill:#0047BF;stroke:#B5C0C0;stroke-width:2;stroke-linecap:round;stroke-linejoin:round;stroke-miterlimit:10;}
	.st60{fill:#0047BF;stroke:#96D5CE;stroke-width:2;stroke-linecap:round;stroke-linejoin:round;stroke-miterlimit:10;}
	.st61{fill:#0047BF;stroke:#FFFFFF;stroke-width:2;stroke-linecap:round;stroke-linejoin:round;stroke-miterlimit:10;}
	.st62{fill:none;stroke:#FFFFFF;stroke-width:0.75;stroke-linecap:round;stroke-linejoin:round;stroke-miterlimit:10;}
	.st63{fill:none;stroke:#FF7E51;stroke-width:1.5;stroke-linecap:round;stroke-linejoin:round;stroke-miterlimit:10;}
	.st64{fill:#0B0069;stroke:#FFFFFF;stroke-width:1.5;stroke-linecap:round;stroke-linejoin:round;stroke-miterlimit:10;}
	.st65{fill:none;stroke:#FF804C;stroke-width:1.9599;stroke-linecap:round;stroke-linejoin:round;stroke-miterlimit:10;}
</style>
<rect x="-4.3" y="-4.3" class="st18" width="182.7" height="182.7"/>
<path class="st20" d="M133.3,117.2v7.8l0,1.5c0,0,0,0,0,0c0,3.2-11.3,5.7-25.3,5.7s-25.3-2.6-25.3-5.7c0,0,0,0,0,0l0-9.1"/>
<path class="st20" d="M133.3,109.2v7.8l0,1.5c0,0,0,0,0,0c0,3.2-11.3,5.7-25.3,5.7s-25.3-2.6-25.3-5.7c0,0,0,0,0,0l0-9.1"/>
<path class="st20" d="M133.3,101.2v7.8l0,1.5c0,0,0,0,0,0c0,3.2-11.3,5.7-25.3,5.7s-25.3-2.6-25.3-5.7c0,0,0,0,0,0l0-9.1"/>
<path class="st20" d="M133.3,93.3v7.8l0,1.5c0,0,0,0,0,0c0,3.2-11.3,5.7-25.3,5.7s-25.3-2.6-25.3-5.7c0,0,0,0,0,0l0-9.1"/>
<path class="st20" d="M133.3,85.3v7.8l0,1.5c0,0,0,0,0,0c0,3.2-11.3,5.7-25.3,5.7s-25.3-2.6-25.3-5.7c0,0,0,0,0,0l0-9.1"/>
<path class="st20" d="M133.3,77.3v7.8l0,1.5c0,0,0,0,0,0c0,3.2-11.3,5.7-25.3,5.7s-25.3-2.6-25.3-5.7c0,0,0,0,0,0l0-9.1"/>
<path class="st20" d="M133.3,69.4v7.8l0,1.5c0,0,0,0,0,0c0,3.2-11.3,5.7-25.3,5.7s-25.3-2.6-25.3-5.7c0,0,0,0,0,0l0-9.1"/>
<path class="st20" d="M133.3,61.4v7.8l0,1.5c0,0,0,0,0,0c0,3.2-11.3,5.7-25.3,5.7s-25.3-2.6-25.3-5.7c0,0,0,0,0,0l0-9.1"/>
<path class="st20" d="M133.3,55.3v5.9l0,1.5c0,0,0,0,0,0c0,3.2-11.3,5.7-25.3,5.7s-25.3-2.6-25.3-5.7c0,0,0,0,0,0l0-7.2"/>
<path class="st20" d="M108.1,49.2c-14,0-25.3,2.6-25.3,5.7s11.3,5.7,25.3,5.7s25.3-2.6,25.3-5.7S122,49.2,108.1,49.2z"/>
<g>
	<circle class="st20" cx="64.2" cy="104.6" r="33.4"/>
	<path class="st12" d="M82.8,105.9c0.4-0.7,1.7-3.3,2.1-4.1c0.7-1.2,2.2-0.1,2.7,0.2"/>
	<path class="st12" d="M70.1,104.3c0.9-0.9,3.6-3.7,4.7-3.9c1.3-0.3,3.9,1.9,5.2,3.1c0.7,0.6,0.8,1.5-0.5,2.6"/>
	<path class="st12" d="M57.6,103.3c1.2-0.9,5.6-4.6,7.2-4.9c1.6-0.3,3.2,1.8,4,6"/>
	<path class="st12" d="M73.9,119.9c1.4,0.7,4.1,1.7,5,1.6c1-0.1,4.3-5.1,5.3-6.4"/>
	<path class="st12" d="M91.1,100.9c0,0,0.7-2.7-1.9-7.4c-2.4-4.2-7.1-5.3-7.1-5.3c-0.3-0.1-0.7,0.2-0.7,0.6l0.1,1.3
		c0.2,2.8,0.6,4.3,0.2,7.1l-0.2,1.2c0,0.5,0.3,0.8,0.7,0.7c0,0,3.4-1.5,6.1,0c1.3,0.7,1.7,1.7,1.7,1.7"/>
	<line class="st5" x1="55.1" y1="119" x2="62.3" y2="104.4"/>
	<line class="st5" x1="60.8" y1="120.2" x2="68.4" y2="104.8"/>
	<line class="st5" x1="67" y1="120.4" x2="74.2" y2="105.8"/>
	<line class="st5" x1="73.8" y1="119.4" x2="79.9" y2="107.1"/>
	<line class="st5" x1="80.8" y1="116.5" x2="86.5" y2="104.6"/>
	<path class="st22" d="M56,112.2c0.5,0,2.4,0.1,3.6,0.3c2.1,0.4,4.5,1.1,4.2,2.2c-0.3,1.1-2.8,1.6-4.3,1.5c-2.9-0.1-5.6-1.1-5.6-1.1
		"/>
	<line class="st12" x1="37.8" y1="114.1" x2="39.2" y2="117"/>
	<path class="st12" d="M53.5,119.2l3.9,5.8c0,0-0.6-3.1,0.5-4.3"/>
	<path class="st5" d="M41.6,112.9c-0.4,0-4,0.4-4.5,0.5c-0.3,0-0.3,0.2-0.2,0.4c0.2,0.2,6.3,1.5,8.2,2.2c3.4,1.2,9.5,4.9,17.6,5
		c10.5,0.1,26.9-5.1,28.6-17.3c0.3-2.4-0.6-3.7-2.7-1.5c-2.6,2.7-5.7,5.1-10,4.5c-6-0.8-12-2.4-17-2.8c-10.6-0.7-18.5,2.5-25.3,4.6
		l5.9,4.6"/>
	<path class="st5" d="M46.1,116.2c5.7,1.3,9.6-1.7,9.9-4.7c0.3-3-4.6-7-9.2-6.3"/>
	<path class="st8" d="M44.1,108.8c-0.1,1.2,0.9,2.2,2,2.2c1.2,0.1,2.2-0.9,2.2-2c0.1-1.2-0.9-2.2-2-2.2
		C45.1,106.8,44.1,107.7,44.1,108.8z M45.2,108.9c0-0.6,0.5-1,1.1-1c0.6,0,1,0.5,1,1.1c0,0.6-0.5,1-1.1,1
		C45.6,109.9,45.1,109.4,45.2,108.9z"/>
	<g>
		<g>
			<path class="st2" d="M54.4,92.9c-0.2,0-0.3-0.1-0.3-0.3v-7.1c0-0.2,0.1-0.3,0.3-0.3h1.3c0.2,0,0.3,0.1,0.3,0.3v3
				c0,0.1,0.1,0.2,0.2,0.1l3.7-3.2c0.2-0.2,0.4-0.3,0.7-0.3h0.8c0.2,0,0.4,0.1,0.5,0.3c0.1,0.2,0,0.4-0.2,0.6l-2.5,2.1
				c-0.1,0.1-0.1,0.1,0,0.2l2.9,3.9c0.1,0.2,0.1,0.3,0.1,0.5c-0.1,0.2-0.2,0.2-0.4,0.2h-1.1c-0.3,0-0.4,0-0.5-0.1
				c-0.1-0.1-0.2-0.1-0.3-0.3l-2.1-2.9c-0.1-0.1-0.1-0.1-0.2,0l-1.5,1.3c-0.1,0.1-0.1,0.1-0.1,0.1v1.5c0,0.2-0.1,0.3-0.3,0.3H54.4z"
				/>
			<path class="st2" d="M64.5,92.9c-0.2,0-0.3-0.1-0.3-0.3v-7.1c0-0.2,0.1-0.3,0.3-0.3h4.6c1,0,1.8,0.2,2.3,0.6
				c0.5,0.4,0.8,1.1,0.8,2.1c0,1.3-0.5,2.1-1.6,2.5c-0.1,0-0.1,0.1-0.1,0.2l1.4,1.7c0.1,0.2,0.2,0.3,0.1,0.5
				c-0.1,0.2-0.2,0.2-0.4,0.2h-1c-0.3,0-0.4-0.1-0.6-0.3l-1.6-2c0,0-0.1-0.1-0.1-0.1h-0.7h-1.3c-0.1,0-0.1,0-0.1,0.1v1.9
				c0,0.2-0.2,0.3-0.4,0.3H64.5z M68.9,88.8c0.8,0,1.2-0.3,1.2-1c0-0.6-0.4-0.9-1.2-0.9h-2.7c-0.1,0-0.1,0-0.1,0.1v1.6
				c0,0.1,0,0.1,0.1,0.1H68.9z"/>
		</g>
	</g>
</g>
</svg>
