<?xml version="1.0" encoding="utf-8"?>
<!-- Generator: Adobe Illustrator 26.0.1, SVG Export Plug-In . SVG Version: 6.00 Build 0)  -->
<svg version="1.1" id="Layer_1" xmlns="http://www.w3.org/2000/svg" xmlns:xlink="http://www.w3.org/1999/xlink" x="0px" y="0px"
	 viewBox="0 0 174 174" style="enable-background:new 0 0 174 174;" xml:space="preserve">
<style type="text/css">
	.st0{fill:#0047BF;}
	.st1{fill:#003FC1;}
	.st2{fill:#FFFFFF;}
	.st3{fill:none;stroke:#96D5CE;stroke-width:2;stroke-linecap:round;stroke-linejoin:round;stroke-miterlimit:10;}
	.st4{fill:none;stroke:#FF704C;stroke-width:2;stroke-linecap:round;stroke-linejoin:round;stroke-miterlimit:10;}
	.st5{fill:none;stroke:#FFFFFF;stroke-width:2;stroke-linecap:round;stroke-linejoin:round;stroke-miterlimit:10;}
	.st6{fill:none;stroke:#FF804C;stroke-width:2;stroke-linecap:round;stroke-linejoin:round;stroke-miterlimit:10;}
	.st7{fill:none;stroke:#0047BF;stroke-width:2;stroke-linecap:round;stroke-linejoin:round;stroke-miterlimit:10;}
	.st8{fill:#F1D439;}
	.st9{fill:#0047BF;stroke:#BEC8C8;stroke-width:2;stroke-linecap:round;stroke-linejoin:round;stroke-miterlimit:10;}
	.st10{fill:none;stroke:#FF7E51;stroke-width:2;stroke-linecap:round;stroke-linejoin:round;stroke-miterlimit:10;}
	.st11{fill:none;stroke:#A3D5D0;stroke-width:2;stroke-linecap:round;stroke-linejoin:round;stroke-miterlimit:10;}
	.st12{fill:none;stroke:#F1D439;stroke-width:2;stroke-linecap:round;stroke-linejoin:round;stroke-miterlimit:10;}
	.st13{fill:none;stroke:#E2E6E6;stroke-width:2;stroke-linecap:round;stroke-linejoin:round;stroke-miterlimit:10;}
	.st14{fill:#A3D5D0;}
	.st15{fill:#FF804C;}
	.st16{fill:none;stroke:#BEC8C8;stroke-width:2;stroke-linecap:round;stroke-linejoin:round;stroke-miterlimit:10;}
	.st17{fill:#0047BF;stroke:#0047BF;stroke-width:2;stroke-linecap:round;stroke-linejoin:round;stroke-miterlimit:10;}
	.st18{fill:#0041BD;}
	.st19{fill:#0041BD;stroke:#A3D5D0;stroke-width:2;stroke-linecap:round;stroke-linejoin:round;stroke-miterlimit:10;}
	.st20{fill:#0041BD;stroke:#FFFFFF;stroke-width:2;stroke-linecap:round;stroke-linejoin:round;stroke-miterlimit:10;}
	.st21{fill:#0041BD;stroke:#FF804C;stroke-width:2;stroke-linecap:round;stroke-linejoin:round;stroke-miterlimit:10;}
	.st22{fill:#0041BD;stroke:#F1D439;stroke-width:2;stroke-linecap:round;stroke-linejoin:round;stroke-miterlimit:10;}
	.st23{fill:#FF804C;stroke:#FF804C;stroke-width:2;stroke-linecap:round;stroke-linejoin:round;stroke-miterlimit:10;}
	.st24{fill:none;stroke:#FFFFFF;stroke-width:1.5;stroke-linecap:round;stroke-linejoin:round;stroke-miterlimit:10;}
	.st25{fill:#0041BD;stroke:#FF804C;stroke-width:1.5;stroke-linecap:round;stroke-linejoin:round;stroke-miterlimit:10;}
	.st26{fill:none;stroke:#FF704C;stroke-width:1.5;stroke-linecap:round;stroke-linejoin:round;stroke-miterlimit:10;}
	.st27{fill:none;stroke:#FF804C;stroke-width:1.5;stroke-linecap:round;stroke-linejoin:round;stroke-miterlimit:10;}
	.st28{fill:none;stroke:#A3D5D0;stroke-width:1.4377;stroke-linecap:round;stroke-linejoin:round;stroke-miterlimit:10;}
	.st29{fill:#0041BD;stroke:#A3D5D0;stroke-width:1.5;stroke-linecap:round;stroke-linejoin:round;stroke-miterlimit:10;}
	.st30{fill:#0041BD;stroke:#F1D439;stroke-width:1.5;stroke-linecap:round;stroke-linejoin:round;stroke-miterlimit:10;}
	.st31{fill:none;stroke:#F1D439;stroke-width:1.5;stroke-linecap:round;stroke-linejoin:round;stroke-miterlimit:10;}
	.st32{fill:none;stroke:#FFFFFF;stroke-width:2.5;stroke-linecap:round;stroke-linejoin:round;stroke-miterlimit:10;}
	.st33{fill:none;}
	.st34{fill:none;stroke:#A3D5D0;stroke-width:1.5;stroke-linecap:round;stroke-linejoin:round;stroke-miterlimit:10;}
	.st35{fill:none;stroke:#96D5CE;stroke-width:1.4377;stroke-linecap:round;stroke-linejoin:round;stroke-miterlimit:10;}
	.st36{fill:none;stroke:#0047BF;stroke-width:1.5;stroke-linecap:round;stroke-linejoin:round;stroke-miterlimit:10;}
	.st37{fill:#0047BF;stroke:#FF704C;stroke-width:2;stroke-linecap:round;stroke-linejoin:round;stroke-miterlimit:10;}
	.st38{fill:#0047BF;stroke:#FF804C;stroke-width:2;stroke-linecap:round;stroke-linejoin:round;stroke-miterlimit:10;}
	.st39{fill:#0047BF;stroke:#E2E6E6;stroke-width:2;stroke-linecap:round;stroke-linejoin:round;stroke-miterlimit:10;}
	.st40{fill:#0047BF;stroke:#A3D5D0;stroke-width:2;stroke-linecap:round;stroke-linejoin:round;stroke-miterlimit:10;}
	.st41{fill:#0047BF;stroke:#F1D439;stroke-width:2;stroke-linecap:round;stroke-linejoin:round;stroke-miterlimit:10;}
	.st42{fill:#0041BD;stroke:#E2E6E6;stroke-width:2;stroke-linecap:round;stroke-linejoin:round;stroke-miterlimit:10;}
	.st43{fill:#E2E6E6;}
	.st44{fill:none;stroke:#0047BF;stroke-width:1.4377;stroke-linecap:round;stroke-linejoin:round;stroke-miterlimit:10;}
	.st45{fill:#0047BF;stroke:#A3D5D0;stroke-width:1.5;stroke-linecap:round;stroke-linejoin:round;stroke-miterlimit:10;}
	.st46{fill:none;stroke:#E2E6E6;stroke-width:1.5;stroke-linecap:round;stroke-linejoin:round;stroke-miterlimit:10;}
	.st47{fill:#0047BF;stroke:#FF704C;stroke-width:1.5;stroke-linecap:round;stroke-linejoin:round;stroke-miterlimit:10;}
	.st48{fill:#0047BF;stroke:#FF804C;stroke-width:1.5;stroke-linecap:round;stroke-linejoin:round;stroke-miterlimit:10;}
	.st49{fill:#0047BF;stroke:#F1D439;stroke-width:1.5;stroke-linecap:round;stroke-linejoin:round;stroke-miterlimit:10;}
	.st50{fill:#0041BD;stroke:#0047BF;stroke-width:2;stroke-linecap:round;stroke-linejoin:round;stroke-miterlimit:10;}
	.st51{fill:#FF7E51;}
	.st52{fill:#96D5CE;}
	.st53{fill:#B5C0C0;}
	.st54{fill:#FFDD20;}
	
		.st55{fill:none;stroke:#FFFFFF;stroke-width:2;stroke-linecap:round;stroke-linejoin:round;stroke-miterlimit:10;stroke-dasharray:15,5;}
	.st56{opacity:0.74;fill:#0041BD;}
	.st57{fill:none;stroke:#FFFFFF;stroke-width:2;stroke-linecap:round;stroke-linejoin:round;stroke-dasharray:14.7582,4.9194;}
	.st58{fill:none;stroke:#B5C0C0;stroke-width:2;stroke-linecap:round;stroke-linejoin:round;stroke-miterlimit:10;}
	.st59{fill:#0047BF;stroke:#B5C0C0;stroke-width:2;stroke-linecap:round;stroke-linejoin:round;stroke-miterlimit:10;}
	.st60{fill:#0047BF;stroke:#96D5CE;stroke-width:2;stroke-linecap:round;stroke-linejoin:round;stroke-miterlimit:10;}
	.st61{fill:#0047BF;stroke:#FFFFFF;stroke-width:2;stroke-linecap:round;stroke-linejoin:round;stroke-miterlimit:10;}
	.st62{fill:none;stroke:#FFFFFF;stroke-width:0.75;stroke-linecap:round;stroke-linejoin:round;stroke-miterlimit:10;}
	.st63{fill:none;stroke:#FF7E51;stroke-width:1.5;stroke-linecap:round;stroke-linejoin:round;stroke-miterlimit:10;}
	.st64{fill:#0B0069;stroke:#FFFFFF;stroke-width:1.5;stroke-linecap:round;stroke-linejoin:round;stroke-miterlimit:10;}
	.st65{fill:none;stroke:#FF804C;stroke-width:1.9599;stroke-linecap:round;stroke-linejoin:round;stroke-miterlimit:10;}
</style>
<rect x="0.2" y="0.1" class="st18" width="174" height="174.3"/>
<path class="st40" d="M51,97l-1.7,0.7c-0.9,0.4-2-0.1-2.4-1l-0.7-1.7c-0.4-0.9,0.1-2,1-2.4l1.7-0.7c0.9-0.4,2,0.1,2.4,1l0.7,1.7
	C52.4,95.5,52,96.6,51,97z"/>
<path class="st40" d="M47.9,62.2l-1.7,0.7c-0.9,0.4-2-0.1-2.4-1l-0.7-1.7c-0.4-0.9,0.1-2,1-2.4l1.7-0.7c0.9-0.4,2,0.1,2.4,1l0.7,1.7
	C49.3,60.7,48.8,61.8,47.9,62.2z"/>
<path class="st40" d="M42.5,72.3l-1.8,0.2c-1,0.1-1.9-0.6-2-1.6l-0.2-1.8c-0.1-1,0.6-1.9,1.6-2l1.8-0.2c1-0.1,1.9,0.6,2,1.6l0.2,1.8
	C44.3,71.3,43.6,72.2,42.5,72.3z"/>
<path class="st40" d="M56.1,107.1l-3.2,0.2c-1,0.1-1.9-0.7-1.9-1.7l-0.2-3.2c-0.1-1,0.7-1.9,1.7-1.9l3.2-0.2c1-0.1,1.9,0.7,1.9,1.7
	l0.2,3.2C57.8,106.2,57.1,107,56.1,107.1z"/>
<path class="st40" d="M73.5,64.4L70.7,66c-0.9,0.5-2,0.2-2.5-0.7l-1.6-2.7c-0.5-0.9-0.2-2,0.7-2.5l2.7-1.6c0.9-0.5,2-0.2,2.5,0.7
	l1.6,2.7C74.6,62.8,74.3,63.9,73.5,64.4z"/>
<path class="st40" d="M89,106.9l-2.6-1.7c-0.8-0.6-1.1-1.7-0.5-2.5l1.7-2.6c0.6-0.8,1.7-1.1,2.5-0.5l2.6,1.7
	c0.8,0.6,1.1,1.7,0.5,2.5l-1.7,2.6C91,107.3,89.9,107.5,89,106.9z"/>
<path class="st40" d="M120.9,106.6l-1.6-0.8c-0.9-0.4-1.3-1.5-0.9-2.4l0.8-1.6c0.4-0.9,1.5-1.3,2.4-0.9l1.6,0.8
	c0.9,0.4,1.3,1.5,0.9,2.4l-0.8,1.6C122.9,106.6,121.8,107,120.9,106.6z"/>
<path class="st40" d="M53.1,72.3l-1.8-0.2c-1-0.1-1.8-1-1.7-2l0.2-1.8c0.1-1,1-1.8,2-1.7l1.8,0.2c1,0.1,1.8,1,1.7,2L55,70.7
	C55,71.7,54.1,72.4,53.1,72.3z"/>
<path class="st40" d="M76.4,103.7l-0.5-1.7c-0.3-1,0.3-2,1.3-2.3l1.7-0.5c1-0.3,2,0.3,2.3,1.3l0.5,1.7c0.3,1-0.3,2-1.3,2.3l-1.7,0.5
	C77.7,105.2,76.7,104.7,76.4,103.7z"/>
<path class="st40" d="M117.7,68.2l-1.6-0.8c-0.9-0.5-1.3-1.6-0.8-2.5l0.8-1.6c0.5-0.9,1.6-1.3,2.5-0.8l1.6,0.8
	c0.9,0.5,1.3,1.6,0.8,2.5l-0.8,1.6C119.7,68.4,118.6,68.7,117.7,68.2z"/>
<path class="st40" d="M108.3,64.6l-1.8,0.2c-1,0.1-1.9-0.6-2-1.6l-0.2-1.8c-0.1-1,0.6-1.9,1.6-2l1.8-0.2c1-0.1,1.9,0.6,2,1.6
	l0.2,1.8C110,63.5,109.3,64.5,108.3,64.6z"/>
<path class="st40" d="M81.4,65l-1.7-0.5c-1-0.3-1.6-1.3-1.3-2.2l0.5-1.7c0.3-1,1.3-1.6,2.2-1.3l1.7,0.5c1,0.3,1.6,1.3,1.3,2.2
	l-0.5,1.7C83.4,64.7,82.4,65.3,81.4,65z"/>
<path class="st40" d="M42.9,104.2l-1.7,0.5c-1,0.3-2-0.3-2.3-1.3l-0.5-1.7c-0.3-1,0.3-2,1.3-2.3l1.7-0.5c1-0.3,2,0.3,2.3,1.3
	l0.5,1.7C44.5,103,43.9,104,42.9,104.2z"/>
<path class="st40" d="M114.3,105.6l-1.4,1.1c-0.8,0.7-1.9,0.6-2.6-0.2l-1.1-1.4c-0.7-0.8-0.6-1.9,0.2-2.6l1.4-1.1
	c0.8-0.7,1.9-0.6,2.6,0.2l1.1,1.4C115.1,103.8,115,104.9,114.3,105.6z"/>
<g>
	<path class="st59" d="M49.2,85.8l-2.9,1.6c-2.3,1.3-4.9,2.1-7.5,2.3l-5.4,0.4l0.9-2.3c1-2.5,1-5.2,0.1-7.7l-1-2.6l3.5,0.5
		c3.3,0.4,6.6,1.3,9.7,2.5l1.8,0.9"/>
	<line class="st5" x1="97.4" y1="85.4" x2="93.4" y2="92.8"/>
	<line class="st5" x1="103.4" y1="74.1" x2="99.4" y2="81.7"/>
	<line class="st5" x1="91.4" y1="81.7" x2="85.9" y2="91.6"/>
	<line class="st5" x1="96.3" y1="72.6" x2="92.5" y2="79.5"/>
	<path class="st58" d="M99.5,86.5c0,0-3-1.4-4.5-2.3c-3.3-2.2-5.4-5.3-5.4-5.3s7.3,1.4,12.5,4"/>
	<path class="st59" d="M67.1,77.3L57.8,76c-0.6-0.1-1.3,0.1-1.7,0.5L51.4,81"/>
	<path class="st58" d="M52,86l4.5,3.2c0.9,0.6,2,0.9,3.1,0.6l6.4-1.6"/>
	<path class="st59" d="M67.8,88.5l5.7,5.9c0.3,0.3,0.7,0.4,1.1,0.4L88,92"/>
	<path class="st59" d="M68.2,77l6.8-6.4c1-1,2.4-1.3,3.8-0.9l9.7,3"/>
	<path class="st59" d="M91,72.7l0.7-1.2c1.5-2.4,1.7-5.4,0.6-7.9l-0.7-1.6l2.4,1.2c4.1,2.1,7.7,5,10.5,8.5l1.9,2.4"/>
	<line class="st5" x1="88" y1="73.4" x2="78.8" y2="90.1"/>
	<line class="st5" x1="105.3" y1="85.9" x2="101.9" y2="92"/>
	<line class="st5" x1="79.2" y1="74.7" x2="71.3" y2="89.1"/>
	<line class="st5" x1="70.1" y1="76.8" x2="64.2" y2="87.5"/>
	<line class="st5" x1="61.1" y1="78.9" x2="57.1" y2="86.3"/>
	<path class="st5" d="M124.7,86.6l2.5,0.8c0.2,0.1,0.2,0.4,0,0.5c-2.4,0.5-8.1,2.3-12.9,3.1c-3.3,0.6-11.7,1.9-15,1.8
		c-1.3,0-5.9,0-5.9,0c-15-1.9-26.8-5.4-53.4-8.3c-0.9-0.1-0.9-1.4,0-1.6c2.8-0.6,8.2-1.2,13.7-2.4c12.8-2.9,29.5-8,41.1-8
		c15.8,0,25.5,8.3,33.2,13.1l-7.8,1.2"/>
	<path class="st5" d="M117.3,90.4c-9.6,2.6-13.7-5-12.4-8.9c1.2-3.6,6.7-5.5,12.4-2.7"/>
	<path class="st59" d="M100.9,92.4c0,0-2.1,0.9-3.5,1.3c-3.2,1-5.8,1-5.8,1s2.4-1.5,7.1-3.3"/>
	<path class="st8" d="M117.8,79.8c-1.4,0-2.6,1.2-2.6,2.6c0,1.4,1.2,2.6,2.6,2.6c1.4,0,2.6-1.2,2.6-2.6
		C120.4,81,119.2,79.8,117.8,79.8z M117.8,83.7c-0.7,0-1.3-0.6-1.3-1.3c0-0.7,0.6-1.3,1.3-1.3c0.7,0,1.3,0.6,1.3,1.3
		C119,83.1,118.5,83.7,117.8,83.7z"/>
</g>
<g>
	<path class="st5" d="M135.3,98.7c0,8.2-6.8,15-15,15H42.5c-8.2,0-15-6.8-15-15V66.8c0-8.2,6.8-15,15-15h77.9c8.2,0,15,6.8,15,15
		V98.7z"/>
</g>
<path class="st40" d="M73.2,78.9l-2.7,1.6c-0.9,0.5-2,0.2-2.5-0.7l-1.6-2.7c-0.5-0.9-0.2-2,0.7-2.5l2.7-1.6c0.9-0.5,2-0.2,2.5,0.7
	l1.6,2.7C74.4,77.3,74.1,78.4,73.2,78.9z"/>
<path class="st40" d="M109.8,96.8l-1.7,0.5c-1,0.3-2-0.3-2.3-1.3l-0.5-1.7c-0.3-1,0.3-2,1.3-2.3l1.7-0.5c1-0.3,2,0.3,2.3,1.3
	l0.5,1.7C111.3,95.5,110.8,96.5,109.8,96.8z"/>
<path class="st5" d="M129.8,55.3c0,0,7.7,7.6,10.2,11.2c2.5,3.7,4,7.7,4,13l0.1,20.5c0.1,12.5-10.1,22.7-22.6,22.7l-67.2,0.4
	c-6.4,0-10-3.4-14.3-6.6l-9.2-8.5"/>
</svg>
