<?xml version="1.0" encoding="utf-8"?>
<!-- Generator: Adobe Illustrator 26.0.1, SVG Export Plug-In . SVG Version: 6.00 Build 0)  -->
<svg version="1.1" id="Layer_1" xmlns="http://www.w3.org/2000/svg" xmlns:xlink="http://www.w3.org/1999/xlink" x="0px" y="0px"
	 viewBox="0 0 174 174.3" style="enable-background:new 0 0 174 174.3;" xml:space="preserve">
<style type="text/css">
	.st0{fill:#0047BF;}
	.st1{fill:#003FC1;}
	.st2{fill:#FFFFFF;}
	.st3{fill:none;stroke:#96D5CE;stroke-width:2;stroke-linecap:round;stroke-linejoin:round;stroke-miterlimit:10;}
	.st4{fill:none;stroke:#FF704C;stroke-width:2;stroke-linecap:round;stroke-linejoin:round;stroke-miterlimit:10;}
	.st5{fill:none;stroke:#FFFFFF;stroke-width:2;stroke-linecap:round;stroke-linejoin:round;stroke-miterlimit:10;}
	.st6{fill:none;stroke:#FF804C;stroke-width:2;stroke-linecap:round;stroke-linejoin:round;stroke-miterlimit:10;}
	.st7{fill:none;stroke:#0047BF;stroke-width:2;stroke-linecap:round;stroke-linejoin:round;stroke-miterlimit:10;}
	.st8{fill:#F1D439;}
	.st9{fill:#0047BF;stroke:#BEC8C8;stroke-width:2;stroke-linecap:round;stroke-linejoin:round;stroke-miterlimit:10;}
	.st10{fill:none;stroke:#FF7E51;stroke-width:2;stroke-linecap:round;stroke-linejoin:round;stroke-miterlimit:10;}
	.st11{fill:none;stroke:#A3D5D0;stroke-width:2;stroke-linecap:round;stroke-linejoin:round;stroke-miterlimit:10;}
	.st12{fill:none;stroke:#F1D439;stroke-width:2;stroke-linecap:round;stroke-linejoin:round;stroke-miterlimit:10;}
	.st13{fill:none;stroke:#E2E6E6;stroke-width:2;stroke-linecap:round;stroke-linejoin:round;stroke-miterlimit:10;}
	.st14{fill:#A3D5D0;}
	.st15{fill:#FF804C;}
	.st16{fill:none;stroke:#BEC8C8;stroke-width:2;stroke-linecap:round;stroke-linejoin:round;stroke-miterlimit:10;}
	.st17{fill:#0047BF;stroke:#0047BF;stroke-width:2;stroke-linecap:round;stroke-linejoin:round;stroke-miterlimit:10;}
	.st18{fill:#0041BD;}
	.st19{fill:#0041BD;stroke:#A3D5D0;stroke-width:2;stroke-linecap:round;stroke-linejoin:round;stroke-miterlimit:10;}
	.st20{fill:#0041BD;stroke:#FFFFFF;stroke-width:2;stroke-linecap:round;stroke-linejoin:round;stroke-miterlimit:10;}
	.st21{fill:#0041BD;stroke:#FF804C;stroke-width:2;stroke-linecap:round;stroke-linejoin:round;stroke-miterlimit:10;}
	.st22{fill:#0041BD;stroke:#F1D439;stroke-width:2;stroke-linecap:round;stroke-linejoin:round;stroke-miterlimit:10;}
	.st23{fill:#FF804C;stroke:#FF804C;stroke-width:2;stroke-linecap:round;stroke-linejoin:round;stroke-miterlimit:10;}
	.st24{fill:none;stroke:#FFFFFF;stroke-width:1.5;stroke-linecap:round;stroke-linejoin:round;stroke-miterlimit:10;}
	.st25{fill:#0041BD;stroke:#FF804C;stroke-width:1.5;stroke-linecap:round;stroke-linejoin:round;stroke-miterlimit:10;}
	.st26{fill:none;stroke:#FF704C;stroke-width:1.5;stroke-linecap:round;stroke-linejoin:round;stroke-miterlimit:10;}
	.st27{fill:none;stroke:#FF804C;stroke-width:1.5;stroke-linecap:round;stroke-linejoin:round;stroke-miterlimit:10;}
	.st28{fill:none;stroke:#A3D5D0;stroke-width:1.4377;stroke-linecap:round;stroke-linejoin:round;stroke-miterlimit:10;}
	.st29{fill:#0041BD;stroke:#A3D5D0;stroke-width:1.5;stroke-linecap:round;stroke-linejoin:round;stroke-miterlimit:10;}
	.st30{fill:#0041BD;stroke:#F1D439;stroke-width:1.5;stroke-linecap:round;stroke-linejoin:round;stroke-miterlimit:10;}
	.st31{fill:none;stroke:#F1D439;stroke-width:1.5;stroke-linecap:round;stroke-linejoin:round;stroke-miterlimit:10;}
	.st32{fill:none;stroke:#FFFFFF;stroke-width:2.5;stroke-linecap:round;stroke-linejoin:round;stroke-miterlimit:10;}
	.st33{fill:none;}
	.st34{fill:none;stroke:#A3D5D0;stroke-width:1.5;stroke-linecap:round;stroke-linejoin:round;stroke-miterlimit:10;}
	.st35{fill:none;stroke:#96D5CE;stroke-width:1.4377;stroke-linecap:round;stroke-linejoin:round;stroke-miterlimit:10;}
	.st36{fill:none;stroke:#0047BF;stroke-width:1.5;stroke-linecap:round;stroke-linejoin:round;stroke-miterlimit:10;}
	.st37{fill:#0047BF;stroke:#FF704C;stroke-width:2;stroke-linecap:round;stroke-linejoin:round;stroke-miterlimit:10;}
	.st38{fill:#0047BF;stroke:#FF804C;stroke-width:2;stroke-linecap:round;stroke-linejoin:round;stroke-miterlimit:10;}
	.st39{fill:#0047BF;stroke:#E2E6E6;stroke-width:2;stroke-linecap:round;stroke-linejoin:round;stroke-miterlimit:10;}
	.st40{fill:#0047BF;stroke:#A3D5D0;stroke-width:2;stroke-linecap:round;stroke-linejoin:round;stroke-miterlimit:10;}
	.st41{fill:#0047BF;stroke:#F1D439;stroke-width:2;stroke-linecap:round;stroke-linejoin:round;stroke-miterlimit:10;}
	.st42{fill:#0041BD;stroke:#E2E6E6;stroke-width:2;stroke-linecap:round;stroke-linejoin:round;stroke-miterlimit:10;}
	.st43{fill:#E2E6E6;}
	.st44{fill:none;stroke:#0047BF;stroke-width:1.4377;stroke-linecap:round;stroke-linejoin:round;stroke-miterlimit:10;}
	.st45{fill:#0047BF;stroke:#A3D5D0;stroke-width:1.5;stroke-linecap:round;stroke-linejoin:round;stroke-miterlimit:10;}
	.st46{fill:none;stroke:#E2E6E6;stroke-width:1.5;stroke-linecap:round;stroke-linejoin:round;stroke-miterlimit:10;}
	.st47{fill:#0047BF;stroke:#FF704C;stroke-width:1.5;stroke-linecap:round;stroke-linejoin:round;stroke-miterlimit:10;}
	.st48{fill:#0047BF;stroke:#FF804C;stroke-width:1.5;stroke-linecap:round;stroke-linejoin:round;stroke-miterlimit:10;}
	.st49{fill:#0047BF;stroke:#F1D439;stroke-width:1.5;stroke-linecap:round;stroke-linejoin:round;stroke-miterlimit:10;}
	.st50{fill:#0041BD;stroke:#0047BF;stroke-width:2;stroke-linecap:round;stroke-linejoin:round;stroke-miterlimit:10;}
	.st51{fill:#FF7E51;}
	.st52{fill:#96D5CE;}
	.st53{fill:#B5C0C0;}
	.st54{fill:#FFDD20;}
	
		.st55{fill:none;stroke:#FFFFFF;stroke-width:2;stroke-linecap:round;stroke-linejoin:round;stroke-miterlimit:10;stroke-dasharray:15,5;}
	.st56{opacity:0.74;fill:#0041BD;}
	.st57{fill:none;stroke:#FFFFFF;stroke-width:2;stroke-linecap:round;stroke-linejoin:round;stroke-dasharray:14.7582,4.9194;}
	.st58{fill:none;stroke:#B5C0C0;stroke-width:2;stroke-linecap:round;stroke-linejoin:round;stroke-miterlimit:10;}
	.st59{fill:#0047BF;stroke:#B5C0C0;stroke-width:2;stroke-linecap:round;stroke-linejoin:round;stroke-miterlimit:10;}
	.st60{fill:#0047BF;stroke:#96D5CE;stroke-width:2;stroke-linecap:round;stroke-linejoin:round;stroke-miterlimit:10;}
	.st61{fill:#0047BF;stroke:#FFFFFF;stroke-width:2;stroke-linecap:round;stroke-linejoin:round;stroke-miterlimit:10;}
	.st62{fill:none;stroke:#FFFFFF;stroke-width:0.75;stroke-linecap:round;stroke-linejoin:round;stroke-miterlimit:10;}
	.st63{fill:none;stroke:#FF7E51;stroke-width:1.5;stroke-linecap:round;stroke-linejoin:round;stroke-miterlimit:10;}
	.st64{fill:#0B0069;stroke:#FFFFFF;stroke-width:1.5;stroke-linecap:round;stroke-linejoin:round;stroke-miterlimit:10;}
	.st65{fill:none;stroke:#FF804C;stroke-width:1.9599;stroke-linecap:round;stroke-linejoin:round;stroke-miterlimit:10;}
</style>
<rect x="-1.3" y="-1.2" class="st18" width="176.2" height="176.5"/>
<g>
	<path class="st5" d="M27.3,71.3l15.8-15.9c0.6-0.6,1.3-0.9,2.1-0.9h88.4c1.6,0,3,1.3,3,3v50.2c0,0.8-0.3,1.5-0.9,2.1l-15.8,15.9
		c-0.6,0.6-1.3,0.9-2.1,0.9H29.4c-1.6,0-3-1.3-3-3V73.4C26.4,72.6,26.7,71.9,27.3,71.3z"/>
</g>
<g>
	<path class="st5" d="M118.4,125.2V75.9c0-1.6-1.3-3-3-3H27.3"/>
</g>
<path class="st37" d="M35.9,61.3l-4.4,4.4h19c0.6,0,1.2-0.2,1.6-0.6l4.1-4.1H36.7C36.4,61,36.1,61.1,35.9,61.3z"/>
<g>
	<circle class="st60" cx="118.4" cy="130.3" r="17.4"/>
	<g>
		<g>
			<line class="st5" x1="118.4" y1="117.1" x2="118.4" y2="143.4"/>
			<line class="st5" x1="118.4" y1="121.9" x2="122.7" y2="119.5"/>
			<line class="st5" x1="114.1" y1="119.5" x2="118.4" y2="121.9"/>
			<line class="st5" x1="118.4" y1="138.6" x2="114.1" y2="141"/>
			<line class="st5" x1="122.7" y1="141" x2="118.4" y2="138.6"/>
		</g>
		<g>
			<line class="st5" x1="107" y1="123.7" x2="129.8" y2="136.8"/>
			<line class="st5" x1="111.2" y1="126.1" x2="111.2" y2="121.1"/>
			<line class="st5" x1="106.9" y1="128.6" x2="111.2" y2="126.1"/>
			<line class="st5" x1="125.6" y1="134.4" x2="125.5" y2="139.4"/>
			<line class="st5" x1="129.9" y1="131.9" x2="125.6" y2="134.4"/>
		</g>
		<g>
			<line class="st5" x1="107" y1="136.8" x2="129.8" y2="123.7"/>
			<line class="st5" x1="111.2" y1="134.4" x2="106.9" y2="131.9"/>
			<line class="st5" x1="111.2" y1="139.4" x2="111.2" y2="134.4"/>
			<line class="st5" x1="125.6" y1="126.1" x2="129.9" y2="128.6"/>
			<line class="st5" x1="125.5" y1="121.1" x2="125.6" y2="126.1"/>
		</g>
	</g>
</g>
<g>
	<path class="st12" d="M59.7,92.3c-1.4-0.7-5.9-2.4-7.4-2.9c-1.5-0.4-2.6,1.7-3.2,2.7c-0.5,0.9-0.8,1.6,0.3,2.1"/>
	<path class="st12" d="M77.1,89.7c-1.4-0.9-5.8-3.7-7.7-3.9c-2-0.2-5.9,2.3-7.8,3.5c-1,0.6-1.3,1.5,0.1,2.3"/>
	<path class="st12" d="M87.8,89.8c-1.3-1.1-5.9-5.3-7.7-5.8c-1.8-0.4-2.3,3.4-1.8,5.4"/>
	<path class="st12" d="M73.1,104.1c-2,0.9-5,2-6.3,1.9c-2-0.2-5.4-3.8-6.9-5.3c-0.2-0.2-0.3-0.4-0.4-0.6"/>
	<path class="st12" d="M57.3,99.8c-1.6,0.7-4.6,1.7-5.6,1.6c-1.1-0.1-2.3-1.7-3.3-3.1"/>
	<path class="st12" d="M48.4,98.3L37,102.6c-0.4,0.1-0.8-0.1-0.8-0.6l0.1-1.2c0.2-2.6,0.1-5.3-0.4-7.9l-0.2-1.1
		c0-0.4,0.4-0.8,0.8-0.7l12.2,3.4"/>
	<line class="st5" x1="87.1" y1="90.1" x2="78.9" y2="105"/>
	<line class="st5" x1="79.5" y1="89.7" x2="72" y2="103.5"/>
	<line class="st5" x1="71" y1="90.9" x2="65.2" y2="101.5"/>
	<line class="st5" x1="62.9" y1="91.9" x2="58.4" y2="100.1"/>
	<line class="st5" x1="54.7" y1="93.7" x2="52.2" y2="98.2"/>
	<path class="st22" d="M87.5,99.1c-0.6,0-2.7,0-4,0.1c-2.3,0.3-5,1-4.7,2.3c0.3,1.2,3,1.9,4.7,1.9c3.2,0,6.2-0.9,6.2-0.9"/>
	<line class="st12" x1="107.4" y1="100" x2="107.3" y2="103.8"/>
	<line class="st12" x1="88.8" y1="105.9" x2="87" y2="109.2"/>
	<line class="st12" x1="83.9" y1="109.7" x2="88.5" y2="106.2"/>
	<path class="st5" d="M106.6,98.4c0.5,0.1,1.4,0.3,1.9,0.3c0.3,0,0.4,0.3,0.2,0.4c-0.3,0.2-6.7,3.6-8.7,4.4
		c-3.7,1.4-7.7,2.6-16.6,2.3c-11.6-0.4-20.7-6.5-41-8.2c-0.7-0.1-0.7-1.2,0-1.4c7.1-1.7,26.6-6.3,39.4-6.6
		c11.7-0.3,20.7,5.1,28.1,7.8l-5.4,1.5"/>
	<path class="st5" d="M98.2,104.1c-6.3,1.1-10.5-2.4-10.7-5.7s5.5-6.7,10.6-5.8"/>
	<path class="st8" d="M100.9,94.2c-1.3,0-2.3,1-2.3,2.3c0,1.3,1,2.3,2.3,2.3c1.3,0,2.3-1,2.3-2.3C103.2,95.2,102.2,94.2,100.9,94.2z
		 M100.9,97.6c-0.6,0-1.1-0.5-1.1-1.1c0-0.6,0.5-1.1,1.1-1.1c0.6,0,1.1,0.5,1.1,1.1C102,97.1,101.5,97.6,100.9,97.6z"/>
</g>
<line class="st5" x1="125.8" y1="65.5" x2="117.5" y2="73.8"/>
<line class="st5" x1="135.8" y1="55.5" x2="129.7" y2="61.5"/>
<path class="st37" d="M128.9,61h-14.3c-0.3,0-0.6,0.1-0.8,0.3l-4.4,4.4h15.2c0.8,0,1.5,0.7,1.5,1.5l0,15l5-5
	c0.2-0.2,0.3-0.5,0.3-0.8l0-13C131.4,62.1,130.2,61,128.9,61z"/>
</svg>
