<?xml version="1.0" encoding="utf-8"?>
<!-- Generator: Adobe Illustrator 26.0.1, SVG Export Plug-In . SVG Version: 6.00 Build 0)  -->
<svg version="1.1" id="Layer_1" xmlns="http://www.w3.org/2000/svg" xmlns:xlink="http://www.w3.org/1999/xlink" x="0px" y="0px"
	 viewBox="0 0 174 174.3" style="enable-background:new 0 0 174 174.3;" xml:space="preserve">
<style type="text/css">
	.st0{fill:#0047BF;}
	.st1{fill:#003FC1;}
	.st2{fill:#FFFFFF;}
	.st3{fill:none;stroke:#96D5CE;stroke-width:2;stroke-linecap:round;stroke-linejoin:round;stroke-miterlimit:10;}
	.st4{fill:none;stroke:#FF704C;stroke-width:2;stroke-linecap:round;stroke-linejoin:round;stroke-miterlimit:10;}
	.st5{fill:none;stroke:#FFFFFF;stroke-width:2;stroke-linecap:round;stroke-linejoin:round;stroke-miterlimit:10;}
	.st6{fill:none;stroke:#FF804C;stroke-width:2;stroke-linecap:round;stroke-linejoin:round;stroke-miterlimit:10;}
	.st7{fill:none;stroke:#0047BF;stroke-width:2;stroke-linecap:round;stroke-linejoin:round;stroke-miterlimit:10;}
	.st8{fill:#F1D439;}
	.st9{fill:#0047BF;stroke:#BEC8C8;stroke-width:2;stroke-linecap:round;stroke-linejoin:round;stroke-miterlimit:10;}
	.st10{fill:none;stroke:#FF7E51;stroke-width:2;stroke-linecap:round;stroke-linejoin:round;stroke-miterlimit:10;}
	.st11{fill:none;stroke:#A3D5D0;stroke-width:2;stroke-linecap:round;stroke-linejoin:round;stroke-miterlimit:10;}
	.st12{fill:none;stroke:#F1D439;stroke-width:2;stroke-linecap:round;stroke-linejoin:round;stroke-miterlimit:10;}
	.st13{fill:none;stroke:#E2E6E6;stroke-width:2;stroke-linecap:round;stroke-linejoin:round;stroke-miterlimit:10;}
	.st14{fill:#A3D5D0;}
	.st15{fill:#FF804C;}
	.st16{fill:none;stroke:#BEC8C8;stroke-width:2;stroke-linecap:round;stroke-linejoin:round;stroke-miterlimit:10;}
	.st17{fill:#0047BF;stroke:#0047BF;stroke-width:2;stroke-linecap:round;stroke-linejoin:round;stroke-miterlimit:10;}
	.st18{fill:#0041BD;}
	.st19{fill:#0041BD;stroke:#A3D5D0;stroke-width:2;stroke-linecap:round;stroke-linejoin:round;stroke-miterlimit:10;}
	.st20{fill:#0041BD;stroke:#FFFFFF;stroke-width:2;stroke-linecap:round;stroke-linejoin:round;stroke-miterlimit:10;}
	.st21{fill:#0041BD;stroke:#FF804C;stroke-width:2;stroke-linecap:round;stroke-linejoin:round;stroke-miterlimit:10;}
	.st22{fill:#0041BD;stroke:#F1D439;stroke-width:2;stroke-linecap:round;stroke-linejoin:round;stroke-miterlimit:10;}
	.st23{fill:#FF804C;stroke:#FF804C;stroke-width:2;stroke-linecap:round;stroke-linejoin:round;stroke-miterlimit:10;}
	.st24{fill:none;stroke:#FFFFFF;stroke-width:1.5;stroke-linecap:round;stroke-linejoin:round;stroke-miterlimit:10;}
	.st25{fill:#0041BD;stroke:#FF804C;stroke-width:1.5;stroke-linecap:round;stroke-linejoin:round;stroke-miterlimit:10;}
	.st26{fill:none;stroke:#FF704C;stroke-width:1.5;stroke-linecap:round;stroke-linejoin:round;stroke-miterlimit:10;}
	.st27{fill:none;stroke:#FF804C;stroke-width:1.5;stroke-linecap:round;stroke-linejoin:round;stroke-miterlimit:10;}
	.st28{fill:none;stroke:#A3D5D0;stroke-width:1.4377;stroke-linecap:round;stroke-linejoin:round;stroke-miterlimit:10;}
	.st29{fill:#0041BD;stroke:#A3D5D0;stroke-width:1.5;stroke-linecap:round;stroke-linejoin:round;stroke-miterlimit:10;}
	.st30{fill:#0041BD;stroke:#F1D439;stroke-width:1.5;stroke-linecap:round;stroke-linejoin:round;stroke-miterlimit:10;}
	.st31{fill:none;stroke:#F1D439;stroke-width:1.5;stroke-linecap:round;stroke-linejoin:round;stroke-miterlimit:10;}
	.st32{fill:none;stroke:#FFFFFF;stroke-width:2.5;stroke-linecap:round;stroke-linejoin:round;stroke-miterlimit:10;}
	.st33{fill:none;}
	.st34{fill:none;stroke:#A3D5D0;stroke-width:1.5;stroke-linecap:round;stroke-linejoin:round;stroke-miterlimit:10;}
	.st35{fill:none;stroke:#96D5CE;stroke-width:1.4377;stroke-linecap:round;stroke-linejoin:round;stroke-miterlimit:10;}
	.st36{fill:none;stroke:#0047BF;stroke-width:1.5;stroke-linecap:round;stroke-linejoin:round;stroke-miterlimit:10;}
	.st37{fill:#0047BF;stroke:#FF704C;stroke-width:2;stroke-linecap:round;stroke-linejoin:round;stroke-miterlimit:10;}
	.st38{fill:#0047BF;stroke:#FF804C;stroke-width:2;stroke-linecap:round;stroke-linejoin:round;stroke-miterlimit:10;}
	.st39{fill:#0047BF;stroke:#E2E6E6;stroke-width:2;stroke-linecap:round;stroke-linejoin:round;stroke-miterlimit:10;}
	.st40{fill:#0047BF;stroke:#A3D5D0;stroke-width:2;stroke-linecap:round;stroke-linejoin:round;stroke-miterlimit:10;}
	.st41{fill:#0047BF;stroke:#F1D439;stroke-width:2;stroke-linecap:round;stroke-linejoin:round;stroke-miterlimit:10;}
	.st42{fill:#0041BD;stroke:#E2E6E6;stroke-width:2;stroke-linecap:round;stroke-linejoin:round;stroke-miterlimit:10;}
	.st43{fill:#E2E6E6;}
	.st44{fill:none;stroke:#0047BF;stroke-width:1.4377;stroke-linecap:round;stroke-linejoin:round;stroke-miterlimit:10;}
	.st45{fill:#0047BF;stroke:#A3D5D0;stroke-width:1.5;stroke-linecap:round;stroke-linejoin:round;stroke-miterlimit:10;}
	.st46{fill:none;stroke:#E2E6E6;stroke-width:1.5;stroke-linecap:round;stroke-linejoin:round;stroke-miterlimit:10;}
	.st47{fill:#0047BF;stroke:#FF704C;stroke-width:1.5;stroke-linecap:round;stroke-linejoin:round;stroke-miterlimit:10;}
	.st48{fill:#0047BF;stroke:#FF804C;stroke-width:1.5;stroke-linecap:round;stroke-linejoin:round;stroke-miterlimit:10;}
	.st49{fill:#0047BF;stroke:#F1D439;stroke-width:1.5;stroke-linecap:round;stroke-linejoin:round;stroke-miterlimit:10;}
	.st50{fill:#0041BD;stroke:#0047BF;stroke-width:2;stroke-linecap:round;stroke-linejoin:round;stroke-miterlimit:10;}
	.st51{fill:#FF7E51;}
	.st52{fill:#96D5CE;}
	.st53{fill:#B5C0C0;}
	.st54{fill:#FFDD20;}
	
		.st55{fill:none;stroke:#FFFFFF;stroke-width:2;stroke-linecap:round;stroke-linejoin:round;stroke-miterlimit:10;stroke-dasharray:15,5;}
	.st56{opacity:0.74;fill:#0041BD;}
	.st57{fill:none;stroke:#FFFFFF;stroke-width:2;stroke-linecap:round;stroke-linejoin:round;stroke-dasharray:14.7582,4.9194;}
	.st58{fill:none;stroke:#B5C0C0;stroke-width:2;stroke-linecap:round;stroke-linejoin:round;stroke-miterlimit:10;}
	.st59{fill:#0047BF;stroke:#B5C0C0;stroke-width:2;stroke-linecap:round;stroke-linejoin:round;stroke-miterlimit:10;}
	.st60{fill:#0047BF;stroke:#96D5CE;stroke-width:2;stroke-linecap:round;stroke-linejoin:round;stroke-miterlimit:10;}
	.st61{fill:#0047BF;stroke:#FFFFFF;stroke-width:2;stroke-linecap:round;stroke-linejoin:round;stroke-miterlimit:10;}
	.st62{fill:none;stroke:#FFFFFF;stroke-width:0.75;stroke-linecap:round;stroke-linejoin:round;stroke-miterlimit:10;}
	.st63{fill:none;stroke:#FF7E51;stroke-width:1.5;stroke-linecap:round;stroke-linejoin:round;stroke-miterlimit:10;}
	.st64{fill:#0B0069;stroke:#FFFFFF;stroke-width:1.5;stroke-linecap:round;stroke-linejoin:round;stroke-miterlimit:10;}
	.st65{fill:none;stroke:#FF804C;stroke-width:1.9599;stroke-linecap:round;stroke-linejoin:round;stroke-miterlimit:10;}
</style>
<rect class="st18" width="174" height="174.3"/>
<path class="st5" d="M62.2,130.4h12.9c4.9,0,9-4,9-9v-24c0-4.9-4-9-9-9h-31c-4.9,0-9,4-9,9v24c0,4.9,4,9,9,9H52L62.2,144V130.4z"/>
<path class="st41" d="M103.3,116.5H68.1c-8.5,0-15.3-6.9-15.3-15.3V76.4c0-8.5,6.9-15.3,15.3-15.3h58.5c8.5,0,15.3,6.9,15.3,15.3
	v24.8c0,8.5-6.9,15.3-15.3,15.3h-7.2l-16,16.1V116.5z"/>
<g>
	<g>
		<path class="st5" d="M77.7,72.2L77.7,72.2c0,0.8-0.7,1.5-1.5,1.5h-6.9c-0.8,0-1.5-0.7-1.5-1.5l0,0c0-0.8,0.7-1.5,1.5-1.5h6.9
			C77.1,70.7,77.7,71.4,77.7,72.2z"/>
		<path class="st5" d="M77.7,75.1L77.7,75.1c0,0.8-0.7,1.5-1.5,1.5h-6.9c-0.8,0-1.5-0.7-1.5-1.5v0c0-0.8,0.7-1.5,1.5-1.5h6.9
			C77.1,73.7,77.7,74.3,77.7,75.1z"/>
		<path class="st5" d="M76.5,78L76.5,78c0,0.8-0.7,1.5-1.5,1.5h-4.4c-0.8,0-1.5-0.7-1.5-1.5l0,0c0-0.8,0.7-1.5,1.5-1.5H75
			C75.8,76.6,76.5,77.2,76.5,78z"/>
		<path class="st41" d="M78.2,41.6c3.3,2,5.6,5.4,5.6,9.5c0,2.4-0.8,4.6-2.1,6.4c-1.9,2.6-3,4.5-3.4,7.7c0,0,0,0.1,0,0.1
			c-0.1,1.2-1.1,2.1-2.3,2.1l-6.3,0c-1.3,0-2.3-1-2.3-2.3v0c0-2.9-1-4.7-2.9-6.8c-1.7-2-2.8-4.7-2.6-7.6c0.2-5.1,4-9.4,9-10.2
			C70.9,40.4,74.8,39.5,78.2,41.6z"/>
		<line class="st12" x1="84" y1="40.2" x2="87.4" y2="36.9"/>
		<line class="st12" x1="78.9" y1="36.8" x2="80" y2="34.3"/>
		<line class="st12" x1="88.4" y1="51.4" x2="93.4" y2="51.4"/>
		<line class="st12" x1="87.2" y1="45.4" x2="90" y2="44.3"/>
		<line class="st12" x1="72.8" y1="35.3" x2="72.8" y2="29.5"/>
		<line class="st12" x1="61.6" y1="40.2" x2="57.7" y2="36.2"/>
		<line class="st12" x1="66.8" y1="36.8" x2="65.5" y2="33.8"/>
		<line class="st12" x1="57.3" y1="51.4" x2="52.4" y2="51.4"/>
		<line class="st12" x1="58.5" y1="45.4" x2="55.5" y2="44.2"/>
	</g>
	<path class="st5" d="M69.6,49c0.6-1.2,1.9-1.9,3.3-1.9c2.1,0,3.8,1.7,3.8,3.8s-1.7,3.8-3.8,3.8V57"/>
</g>
<path class="st8" d="M72.8,59.5c-1.1,0-2,0.9-2,2c0,1.1,0.9,2,2,2c1.1,0,2-0.9,2-2C74.8,60.4,73.9,59.5,72.8,59.5z M72.8,62.5
	c-0.5,0-1-0.4-1-1c0-0.5,0.4-1,1-1c0.5,0,1,0.4,1,1C73.8,62.1,73.4,62.5,72.8,62.5z"/>
<g>
	<line class="st5" x1="110.3" y1="99" x2="107.2" y2="104.7"/>
	<line class="st5" x1="110.9" y1="85.1" x2="100.5" y2="104.1"/>
	<line class="st5" x1="104.1" y1="84.8" x2="94.2" y2="103"/>
	<line class="st5" x1="96.2" y1="86.5" x2="88" y2="101.4"/>
	<line class="st5" x1="87.9" y1="89" x2="82.2" y2="99.4"/>
	<line class="st5" x1="79.1" y1="92.3" x2="75.9" y2="98.2"/>
	<path class="st21" d="M110.1,99.4c-2.2,0.4-5.3,1.1-7.3,0.4c-3.3-1.2-7.9-3.1-7.2-4.8c0.6-1.5,3.8-1.5,6.3-1.1
		c3.6,0.5,7.6,1.1,7.6,1.1"/>
	<path class="st5" d="M120.9,103.1c-6.1,2.2-11.5-2.9-11.5-7.4c0-4.1,3.4-7.1,7.1-8.2"/>
	<g>
		<path class="st4" d="M75.2,92.7c-2-0.9-5-1.5-8.4-1.5c-1.4,0-2.7,0.1-4,0.3c1.2,0.6,2.1,2.2,2.1,4c0,1.8-0.9,3.4-2.1,4
			c1.2,0.2,2.6,0.3,4,0.3c3.3,0,6.3-0.6,8.3-1.5"/>
	</g>
	<path class="st6" d="M90.8,88c-2-1-5-2.7-7.4-3.3c-2.3-0.6-3.2,1.8-4.1,3.2c-0.9,1.5-1.4,2.9,1.2,3.5"/>
	<path class="st6" d="M111.7,85c0,0-0.8-5.8-6.9-4.6c-2.5,0.5-6.8,1.6-9.4,2.5c-2.9,1-2.7,3.2-3.3,4.6"/>
	<path class="st4" d="M91.5,102.4c-0.2-0.1-0.4,1.2-1.6,1.2c-3,0.2-3.5,0.3-6.4,0.5c-2.4,0.2-3.3-0.9-4.1-2.2
		c-0.4-0.6-1.2-2.4,0.6-3.3"/>
	<path class="st5" d="M121.5,98l5.9-5.6c-8.7-2.3-12.6-8.1-19.5-8.1c-4.4,0-16.3,2.9-23.9,6c-1.8,0.7-3.3,1.3-5,1.9
		c-1.1,0.4-2.8,0.4-2.9,0.4c-1.6,0-3.6,1.2-3.6,2.7c0,1.5,2,3,3.6,2.7c1.9-0.3,2.8,0,3.5,0.3c12.4,5.5,25.9,6.4,27.7,6.4
		c13,0,14.8-1.3,22.3-8.6l-7,0.8"/>
	<path class="st8" d="M119.2,89.3c-1.7,0-3,1.4-3,3s1.4,3,3,3c1.7,0,3-1.4,3-3S120.8,89.3,119.2,89.3z M119.2,93.8
		c-0.8,0-1.5-0.7-1.5-1.5c0-0.8,0.7-1.5,1.5-1.5c0.8,0,1.5,0.7,1.5,1.5C120.6,93.1,120,93.8,119.2,93.8z"/>
</g>
</svg>
