<?xml version="1.0" encoding="utf-8"?>
<!-- Generator: Adobe Illustrator 26.0.1, SVG Export Plug-In . SVG Version: 6.00 Build 0)  -->
<svg version="1.1" id="Layer_1" xmlns="http://www.w3.org/2000/svg" xmlns:xlink="http://www.w3.org/1999/xlink" x="0px" y="0px"
	 viewBox="0 0 174 174" style="enable-background:new 0 0 174 174;" xml:space="preserve">
<style type="text/css">
	.st0{fill:#0047BF;}
	.st1{fill:#003FC1;}
	.st2{fill:#FFFFFF;}
	.st3{fill:none;stroke:#96D5CE;stroke-width:2;stroke-linecap:round;stroke-linejoin:round;stroke-miterlimit:10;}
	.st4{fill:none;stroke:#FF704C;stroke-width:2;stroke-linecap:round;stroke-linejoin:round;stroke-miterlimit:10;}
	.st5{fill:none;stroke:#FFFFFF;stroke-width:2;stroke-linecap:round;stroke-linejoin:round;stroke-miterlimit:10;}
	.st6{fill:none;stroke:#FF804C;stroke-width:2;stroke-linecap:round;stroke-linejoin:round;stroke-miterlimit:10;}
	.st7{fill:none;stroke:#0047BF;stroke-width:2;stroke-linecap:round;stroke-linejoin:round;stroke-miterlimit:10;}
	.st8{fill:#F1D439;}
	.st9{fill:#0047BF;stroke:#BEC8C8;stroke-width:2;stroke-linecap:round;stroke-linejoin:round;stroke-miterlimit:10;}
	.st10{fill:none;stroke:#FF7E51;stroke-width:2;stroke-linecap:round;stroke-linejoin:round;stroke-miterlimit:10;}
	.st11{fill:none;stroke:#A3D5D0;stroke-width:2;stroke-linecap:round;stroke-linejoin:round;stroke-miterlimit:10;}
	.st12{fill:none;stroke:#F1D439;stroke-width:2;stroke-linecap:round;stroke-linejoin:round;stroke-miterlimit:10;}
	.st13{fill:none;stroke:#E2E6E6;stroke-width:2;stroke-linecap:round;stroke-linejoin:round;stroke-miterlimit:10;}
	.st14{fill:#A3D5D0;}
	.st15{fill:#FF804C;}
	.st16{fill:none;stroke:#BEC8C8;stroke-width:2;stroke-linecap:round;stroke-linejoin:round;stroke-miterlimit:10;}
	.st17{fill:#0047BF;stroke:#0047BF;stroke-width:2;stroke-linecap:round;stroke-linejoin:round;stroke-miterlimit:10;}
	.st18{fill:#0041BD;}
	.st19{fill:#0041BD;stroke:#A3D5D0;stroke-width:2;stroke-linecap:round;stroke-linejoin:round;stroke-miterlimit:10;}
	.st20{fill:#0041BD;stroke:#FFFFFF;stroke-width:2;stroke-linecap:round;stroke-linejoin:round;stroke-miterlimit:10;}
	.st21{fill:#0041BD;stroke:#FF804C;stroke-width:2;stroke-linecap:round;stroke-linejoin:round;stroke-miterlimit:10;}
	.st22{fill:#0041BD;stroke:#F1D439;stroke-width:2;stroke-linecap:round;stroke-linejoin:round;stroke-miterlimit:10;}
	.st23{fill:#FF804C;stroke:#FF804C;stroke-width:2;stroke-linecap:round;stroke-linejoin:round;stroke-miterlimit:10;}
	.st24{fill:none;stroke:#FFFFFF;stroke-width:1.5;stroke-linecap:round;stroke-linejoin:round;stroke-miterlimit:10;}
	.st25{fill:#0041BD;stroke:#FF804C;stroke-width:1.5;stroke-linecap:round;stroke-linejoin:round;stroke-miterlimit:10;}
	.st26{fill:none;stroke:#FF704C;stroke-width:1.5;stroke-linecap:round;stroke-linejoin:round;stroke-miterlimit:10;}
	.st27{fill:none;stroke:#FF804C;stroke-width:1.5;stroke-linecap:round;stroke-linejoin:round;stroke-miterlimit:10;}
	.st28{fill:none;stroke:#A3D5D0;stroke-width:1.4377;stroke-linecap:round;stroke-linejoin:round;stroke-miterlimit:10;}
	.st29{fill:#0041BD;stroke:#A3D5D0;stroke-width:1.5;stroke-linecap:round;stroke-linejoin:round;stroke-miterlimit:10;}
	.st30{fill:#0041BD;stroke:#F1D439;stroke-width:1.5;stroke-linecap:round;stroke-linejoin:round;stroke-miterlimit:10;}
	.st31{fill:none;stroke:#F1D439;stroke-width:1.5;stroke-linecap:round;stroke-linejoin:round;stroke-miterlimit:10;}
	.st32{fill:none;stroke:#FFFFFF;stroke-width:2.5;stroke-linecap:round;stroke-linejoin:round;stroke-miterlimit:10;}
	.st33{fill:none;}
	.st34{fill:none;stroke:#A3D5D0;stroke-width:1.5;stroke-linecap:round;stroke-linejoin:round;stroke-miterlimit:10;}
	.st35{fill:none;stroke:#96D5CE;stroke-width:1.4377;stroke-linecap:round;stroke-linejoin:round;stroke-miterlimit:10;}
	.st36{fill:none;stroke:#0047BF;stroke-width:1.5;stroke-linecap:round;stroke-linejoin:round;stroke-miterlimit:10;}
	.st37{fill:#0047BF;stroke:#FF704C;stroke-width:2;stroke-linecap:round;stroke-linejoin:round;stroke-miterlimit:10;}
	.st38{fill:#0047BF;stroke:#FF804C;stroke-width:2;stroke-linecap:round;stroke-linejoin:round;stroke-miterlimit:10;}
	.st39{fill:#0047BF;stroke:#E2E6E6;stroke-width:2;stroke-linecap:round;stroke-linejoin:round;stroke-miterlimit:10;}
	.st40{fill:#0047BF;stroke:#A3D5D0;stroke-width:2;stroke-linecap:round;stroke-linejoin:round;stroke-miterlimit:10;}
	.st41{fill:#0047BF;stroke:#F1D439;stroke-width:2;stroke-linecap:round;stroke-linejoin:round;stroke-miterlimit:10;}
	.st42{fill:#0041BD;stroke:#E2E6E6;stroke-width:2;stroke-linecap:round;stroke-linejoin:round;stroke-miterlimit:10;}
	.st43{fill:#E2E6E6;}
	.st44{fill:none;stroke:#0047BF;stroke-width:1.4377;stroke-linecap:round;stroke-linejoin:round;stroke-miterlimit:10;}
	.st45{fill:#0047BF;stroke:#A3D5D0;stroke-width:1.5;stroke-linecap:round;stroke-linejoin:round;stroke-miterlimit:10;}
	.st46{fill:none;stroke:#E2E6E6;stroke-width:1.5;stroke-linecap:round;stroke-linejoin:round;stroke-miterlimit:10;}
	.st47{fill:#0047BF;stroke:#FF704C;stroke-width:1.5;stroke-linecap:round;stroke-linejoin:round;stroke-miterlimit:10;}
	.st48{fill:#0047BF;stroke:#FF804C;stroke-width:1.5;stroke-linecap:round;stroke-linejoin:round;stroke-miterlimit:10;}
	.st49{fill:#0047BF;stroke:#F1D439;stroke-width:1.5;stroke-linecap:round;stroke-linejoin:round;stroke-miterlimit:10;}
	.st50{fill:#0041BD;stroke:#0047BF;stroke-width:2;stroke-linecap:round;stroke-linejoin:round;stroke-miterlimit:10;}
	.st51{fill:#FF7E51;}
	.st52{fill:#96D5CE;}
	.st53{fill:#B5C0C0;}
	.st54{fill:#FFDD20;}
	
		.st55{fill:none;stroke:#FFFFFF;stroke-width:2;stroke-linecap:round;stroke-linejoin:round;stroke-miterlimit:10;stroke-dasharray:15,5;}
	.st56{opacity:0.74;fill:#0041BD;}
	.st57{fill:none;stroke:#FFFFFF;stroke-width:2;stroke-linecap:round;stroke-linejoin:round;stroke-dasharray:14.7582,4.9194;}
	.st58{fill:none;stroke:#B5C0C0;stroke-width:2;stroke-linecap:round;stroke-linejoin:round;stroke-miterlimit:10;}
	.st59{fill:#0047BF;stroke:#B5C0C0;stroke-width:2;stroke-linecap:round;stroke-linejoin:round;stroke-miterlimit:10;}
	.st60{fill:#0047BF;stroke:#96D5CE;stroke-width:2;stroke-linecap:round;stroke-linejoin:round;stroke-miterlimit:10;}
	.st61{fill:#0047BF;stroke:#FFFFFF;stroke-width:2;stroke-linecap:round;stroke-linejoin:round;stroke-miterlimit:10;}
	.st62{fill:none;stroke:#FFFFFF;stroke-width:0.75;stroke-linecap:round;stroke-linejoin:round;stroke-miterlimit:10;}
	.st63{fill:none;stroke:#FF7E51;stroke-width:1.5;stroke-linecap:round;stroke-linejoin:round;stroke-miterlimit:10;}
	.st64{fill:#0B0069;stroke:#FFFFFF;stroke-width:1.5;stroke-linecap:round;stroke-linejoin:round;stroke-miterlimit:10;}
	.st65{fill:none;stroke:#FF804C;stroke-width:1.9599;stroke-linecap:round;stroke-linejoin:round;stroke-miterlimit:10;}
</style>
<rect x="-4.3" y="-4.3" class="st18" width="182.7" height="182.7"/>
<g>
	<path class="st11" d="M33.5,41.2c4.8,0,4.8,2.7,9.5,2.7c4.8,0,4.8-2.7,9.5-2.7c4.8,0,4.8,2.7,9.5,2.7c4.8,0,4.8-2.7,9.5-2.7
		c4.8,0,4.8,2.7,9.5,2.7c4.8,0,4.8-2.7,9.5-2.7c4.8,0,4.8,2.7,9.5,2.7c4.8,0,4.8-2.7,9.5-2.7c4.8,0,4.8,2.7,9.5,2.7
		c4.8,0,4.8-2.7,9.5-2.7c4.8,0,4.8,2.7,9.5,2.7"/>
</g>
<g>
	<path class="st11" d="M33.5,54.9c4.8,0,4.8,2.7,9.5,2.7c4.8,0,4.8-2.7,9.5-2.7c4.8,0,4.8,2.7,9.5,2.7c4.8,0,4.8-2.7,9.5-2.7
		c4.8,0,4.8,2.7,9.5,2.7c4.8,0,4.8-2.7,9.5-2.7c4.8,0,4.8,2.7,9.5,2.7c4.8,0,4.8-2.7,9.5-2.7c4.8,0,4.8,2.7,9.5,2.7
		c4.8,0,4.8-2.7,9.5-2.7c4.8,0,4.8,2.7,9.5,2.7"/>
</g>
<g>
	<path class="st11" d="M33.5,68.6c4.8,0,4.8,2.7,9.5,2.7c4.8,0,4.8-2.7,9.5-2.7c4.8,0,4.8,2.7,9.5,2.7c4.8,0,4.8-2.7,9.5-2.7
		c4.8,0,4.8,2.7,9.5,2.7c4.8,0,4.8-2.7,9.5-2.7c4.8,0,4.8,2.7,9.5,2.7c4.8,0,4.8-2.7,9.5-2.7c4.8,0,4.8,2.7,9.5,2.7
		c4.8,0,4.8-2.7,9.5-2.7c4.8,0,4.8,2.7,9.5,2.7"/>
</g>
<g>
	<path class="st11" d="M119,85c4.8,0,4.8-2.7,9.5-2.7c4.8,0,4.8,2.7,9.5,2.7"/>
	<path class="st11" d="M33.5,82.3c4.8,0,4.8,2.7,9.5,2.7c4.8,0,4.8-2.7,9.5-2.7c4.8,0,4.8,2.7,9.5,2.7c4.8,0,4.8-2.7,9.5-2.7
		c2.4,0,3.6,0.7,4.8,1.3"/>
</g>
<path class="st4" d="M104.3,122c0,0-6.4,1.7-8.5,2.2c-2.2,0.4-5.2,1.2-5.2,1.2c-0.9,0.2-1.9-0.9-1.5-1.8l1-3.2"/>
<g>
	<line class="st5" x1="107.6" y1="113.1" x2="103" y2="121.6"/>
	<line class="st5" x1="108.5" y1="92.4" x2="93.1" y2="120.7"/>
	<line class="st5" x1="98.4" y1="92" x2="83.6" y2="119"/>
	<line class="st5" x1="86.6" y1="94.4" x2="74.4" y2="116.7"/>
	<line class="st5" x1="74.2" y1="98.1" x2="65.7" y2="113.7"/>
	<line class="st5" x1="61.1" y1="103.1" x2="56.3" y2="111.8"/>
	<path class="st21" d="M107.3,113.6c-3.2,0.6-7.9,1.7-10.9,0.6c-4.9-1.9-11.7-4.7-10.8-7.1c0.9-2.3,5.7-2.2,9.5-1.6
		c5.4,0.7,11.4,1.7,11.4,1.7"/>
	<path class="st5" d="M123.4,119.1c-9,3.3-17.2-4.4-17.1-11c0.1-6.1,5.1-10.6,10.6-12.3"/>
	<g>
		<path class="st4" d="M55.2,103.6c-3-1.4-7.5-2.3-12.6-2.3c-2.1,0-4.1,0.2-5.9,0.4c1.8,0.9,3.1,3.3,3.1,6c0,2.7-1.3,5-3.1,6
			c1.8,0.3,3.8,0.4,5.9,0.4c4.9,0,9.4-0.9,12.4-2.2"/>
	</g>
	<path class="st6" d="M78.6,96.7c-3-1.5-7.5-4-11-4.9c-3.4-0.9-4.8,2.7-6.1,4.8c-1.3,2.2-2.2,4.3,1.8,5.1"/>
	<path class="st6" d="M109.7,92.2c0,0-1.2-8.7-10.2-6.9c-3.7,0.7-10.2,2.4-14,3.7c-4.4,1.5-4.1,4.7-5,6.9"/>
	<path class="st4" d="M79.6,118.1c-0.3-0.2-0.5,1.7-2.4,1.8c-4.4,0.2-5.2,0.4-9.5,0.7c-3.6,0.3-4.9-1.4-6.1-3.3
		c-0.6-0.9-1.7-3.6,1-4.9"/>
	<path class="st5" d="M124.4,111.6l8.8-8.3c-13-3.4-18.8-12.1-29.1-12.1c-6.5,0-24.3,4.3-35.6,8.9c-2.7,1.1-5,1.9-7.4,2.9
		c-1.6,0.6-4.2,0.6-4.4,0.6c-2.5,0-5.4,1.8-5.4,4c0,2.2,3,4.4,5.4,4c2.9-0.4,4.1,0,5.2,0.4c18.4,8.1,38.6,9.5,41.3,9.5
		c19.4,0,22.1-2,33.2-12.8l-10.4,1.1"/>
	<path class="st8" d="M120.8,98.6c-2.5,0-4.5,2-4.5,4.5s2,4.5,4.5,4.5c2.5,0,4.5-2,4.5-4.5S123.3,98.6,120.8,98.6z M120.8,105.3
		c-1.2,0-2.2-1-2.2-2.2c0-1.2,1-2.2,2.2-2.2c1.2,0,2.2,1,2.2,2.2C123,104.3,122.1,105.3,120.8,105.3z"/>
</g>
<line class="st11" x1="34.2" y1="135.4" x2="137.7" y2="135.4"/>
</svg>
