<?xml version="1.0" encoding="utf-8"?>
<!-- Generator: Adobe Illustrator 26.0.1, SVG Export Plug-In . SVG Version: 6.00 Build 0)  -->
<svg version="1.1" id="Layer_1" xmlns="http://www.w3.org/2000/svg" xmlns:xlink="http://www.w3.org/1999/xlink" x="0px" y="0px"
	 viewBox="0 0 174 174" style="enable-background:new 0 0 174 174;" xml:space="preserve">
<style type="text/css">
	.st0{fill:#0047BF;}
	.st1{fill:#003FC1;}
	.st2{fill:#FFFFFF;}
	.st3{fill:none;stroke:#96D5CE;stroke-width:2;stroke-linecap:round;stroke-linejoin:round;stroke-miterlimit:10;}
	.st4{fill:none;stroke:#FF704C;stroke-width:2;stroke-linecap:round;stroke-linejoin:round;stroke-miterlimit:10;}
	.st5{fill:none;stroke:#FFFFFF;stroke-width:2;stroke-linecap:round;stroke-linejoin:round;stroke-miterlimit:10;}
	.st6{fill:none;stroke:#FF804C;stroke-width:2;stroke-linecap:round;stroke-linejoin:round;stroke-miterlimit:10;}
	.st7{fill:none;stroke:#0047BF;stroke-width:2;stroke-linecap:round;stroke-linejoin:round;stroke-miterlimit:10;}
	.st8{fill:#F1D439;}
	.st9{fill:#0047BF;stroke:#BEC8C8;stroke-width:2;stroke-linecap:round;stroke-linejoin:round;stroke-miterlimit:10;}
	.st10{fill:none;stroke:#FF7E51;stroke-width:2;stroke-linecap:round;stroke-linejoin:round;stroke-miterlimit:10;}
	.st11{fill:none;stroke:#A3D5D0;stroke-width:2;stroke-linecap:round;stroke-linejoin:round;stroke-miterlimit:10;}
	.st12{fill:none;stroke:#F1D439;stroke-width:2;stroke-linecap:round;stroke-linejoin:round;stroke-miterlimit:10;}
	.st13{fill:none;stroke:#E2E6E6;stroke-width:2;stroke-linecap:round;stroke-linejoin:round;stroke-miterlimit:10;}
	.st14{fill:#A3D5D0;}
	.st15{fill:#FF804C;}
	.st16{fill:none;stroke:#BEC8C8;stroke-width:2;stroke-linecap:round;stroke-linejoin:round;stroke-miterlimit:10;}
	.st17{fill:#0047BF;stroke:#0047BF;stroke-width:2;stroke-linecap:round;stroke-linejoin:round;stroke-miterlimit:10;}
	.st18{fill:#0041BD;}
	.st19{fill:#0041BD;stroke:#A3D5D0;stroke-width:2;stroke-linecap:round;stroke-linejoin:round;stroke-miterlimit:10;}
	.st20{fill:#0041BD;stroke:#FFFFFF;stroke-width:2;stroke-linecap:round;stroke-linejoin:round;stroke-miterlimit:10;}
	.st21{fill:#0041BD;stroke:#FF804C;stroke-width:2;stroke-linecap:round;stroke-linejoin:round;stroke-miterlimit:10;}
	.st22{fill:#0041BD;stroke:#F1D439;stroke-width:2;stroke-linecap:round;stroke-linejoin:round;stroke-miterlimit:10;}
	.st23{fill:#FF804C;stroke:#FF804C;stroke-width:2;stroke-linecap:round;stroke-linejoin:round;stroke-miterlimit:10;}
	.st24{fill:none;stroke:#FFFFFF;stroke-width:1.5;stroke-linecap:round;stroke-linejoin:round;stroke-miterlimit:10;}
	.st25{fill:#0041BD;stroke:#FF804C;stroke-width:1.5;stroke-linecap:round;stroke-linejoin:round;stroke-miterlimit:10;}
	.st26{fill:none;stroke:#FF704C;stroke-width:1.5;stroke-linecap:round;stroke-linejoin:round;stroke-miterlimit:10;}
	.st27{fill:none;stroke:#FF804C;stroke-width:1.5;stroke-linecap:round;stroke-linejoin:round;stroke-miterlimit:10;}
	.st28{fill:none;stroke:#A3D5D0;stroke-width:1.4377;stroke-linecap:round;stroke-linejoin:round;stroke-miterlimit:10;}
	.st29{fill:#0041BD;stroke:#A3D5D0;stroke-width:1.5;stroke-linecap:round;stroke-linejoin:round;stroke-miterlimit:10;}
	.st30{fill:#0041BD;stroke:#F1D439;stroke-width:1.5;stroke-linecap:round;stroke-linejoin:round;stroke-miterlimit:10;}
	.st31{fill:none;stroke:#F1D439;stroke-width:1.5;stroke-linecap:round;stroke-linejoin:round;stroke-miterlimit:10;}
	.st32{fill:none;stroke:#FFFFFF;stroke-width:2.5;stroke-linecap:round;stroke-linejoin:round;stroke-miterlimit:10;}
	.st33{fill:none;}
	.st34{fill:none;stroke:#A3D5D0;stroke-width:1.5;stroke-linecap:round;stroke-linejoin:round;stroke-miterlimit:10;}
	.st35{fill:none;stroke:#96D5CE;stroke-width:1.4377;stroke-linecap:round;stroke-linejoin:round;stroke-miterlimit:10;}
	.st36{fill:none;stroke:#0047BF;stroke-width:1.5;stroke-linecap:round;stroke-linejoin:round;stroke-miterlimit:10;}
	.st37{fill:#0047BF;stroke:#FF704C;stroke-width:2;stroke-linecap:round;stroke-linejoin:round;stroke-miterlimit:10;}
	.st38{fill:#0047BF;stroke:#FF804C;stroke-width:2;stroke-linecap:round;stroke-linejoin:round;stroke-miterlimit:10;}
	.st39{fill:#0047BF;stroke:#E2E6E6;stroke-width:2;stroke-linecap:round;stroke-linejoin:round;stroke-miterlimit:10;}
	.st40{fill:#0047BF;stroke:#A3D5D0;stroke-width:2;stroke-linecap:round;stroke-linejoin:round;stroke-miterlimit:10;}
	.st41{fill:#0047BF;stroke:#F1D439;stroke-width:2;stroke-linecap:round;stroke-linejoin:round;stroke-miterlimit:10;}
	.st42{fill:#0041BD;stroke:#E2E6E6;stroke-width:2;stroke-linecap:round;stroke-linejoin:round;stroke-miterlimit:10;}
	.st43{fill:#E2E6E6;}
	.st44{fill:none;stroke:#0047BF;stroke-width:1.4377;stroke-linecap:round;stroke-linejoin:round;stroke-miterlimit:10;}
	.st45{fill:#0047BF;stroke:#A3D5D0;stroke-width:1.5;stroke-linecap:round;stroke-linejoin:round;stroke-miterlimit:10;}
	.st46{fill:none;stroke:#E2E6E6;stroke-width:1.5;stroke-linecap:round;stroke-linejoin:round;stroke-miterlimit:10;}
	.st47{fill:#0047BF;stroke:#FF704C;stroke-width:1.5;stroke-linecap:round;stroke-linejoin:round;stroke-miterlimit:10;}
	.st48{fill:#0047BF;stroke:#FF804C;stroke-width:1.5;stroke-linecap:round;stroke-linejoin:round;stroke-miterlimit:10;}
	.st49{fill:#0047BF;stroke:#F1D439;stroke-width:1.5;stroke-linecap:round;stroke-linejoin:round;stroke-miterlimit:10;}
	.st50{fill:#0041BD;stroke:#0047BF;stroke-width:2;stroke-linecap:round;stroke-linejoin:round;stroke-miterlimit:10;}
	.st51{fill:#FF7E51;}
	.st52{fill:#96D5CE;}
	.st53{fill:#B5C0C0;}
	.st54{fill:#FFDD20;}
	
		.st55{fill:none;stroke:#FFFFFF;stroke-width:2;stroke-linecap:round;stroke-linejoin:round;stroke-miterlimit:10;stroke-dasharray:15,5;}
	.st56{opacity:0.74;fill:#0041BD;}
	.st57{fill:none;stroke:#FFFFFF;stroke-width:2;stroke-linecap:round;stroke-linejoin:round;stroke-dasharray:14.7582,4.9194;}
	.st58{fill:none;stroke:#B5C0C0;stroke-width:2;stroke-linecap:round;stroke-linejoin:round;stroke-miterlimit:10;}
	.st59{fill:#0047BF;stroke:#B5C0C0;stroke-width:2;stroke-linecap:round;stroke-linejoin:round;stroke-miterlimit:10;}
	.st60{fill:#0047BF;stroke:#96D5CE;stroke-width:2;stroke-linecap:round;stroke-linejoin:round;stroke-miterlimit:10;}
	.st61{fill:#0047BF;stroke:#FFFFFF;stroke-width:2;stroke-linecap:round;stroke-linejoin:round;stroke-miterlimit:10;}
	.st62{fill:none;stroke:#FFFFFF;stroke-width:0.75;stroke-linecap:round;stroke-linejoin:round;stroke-miterlimit:10;}
	.st63{fill:none;stroke:#FF7E51;stroke-width:1.5;stroke-linecap:round;stroke-linejoin:round;stroke-miterlimit:10;}
	.st64{fill:#0B0069;stroke:#FFFFFF;stroke-width:1.5;stroke-linecap:round;stroke-linejoin:round;stroke-miterlimit:10;}
	.st65{fill:none;stroke:#FF804C;stroke-width:1.9599;stroke-linecap:round;stroke-linejoin:round;stroke-miterlimit:10;}
</style>
<rect x="0" y="0" class="st18" width="174" height="174"/>
<path class="st5" d="M53.5,93c-5.5-3.8-7.3-9.6-7.4-13c-0.1-2.4,0-6.3,0-6.3h7.9l3-2.6l-0.8-13.6h3.8l7.4,13.6h6.3l3.5,3.8h9.9
	l4.4-5.8h4.6l3.7-4.4h10.6h6.8l5.3,3.5h8.3l-0.4,2.6c0,0,2.6,3.1,5,6c3.5,4.2,2.3,8.1,1.9,8.9c-1.5,3.6-2.2,4.4-2.2,4.4"/>
<polyline class="st5" points="52.2,79.8 112.3,79.8 103,91.1 "/>
<polyline class="st5" points="108,93 123.1,75.1 96,75.1 "/>
<polyline class="st5" points="100,64.8 97.7,59.4 115.1,59.4 113,64.8 "/>
<line class="st12" x1="101.5" y1="49.9" x2="107.2" y2="49.9"/>
<line class="st12" x1="105.5" y1="54.1" x2="103" y2="46.6"/>
<line class="st12" x1="103" y1="45.8" x2="103" y2="42.8"/>
<g>
	<path class="st11" d="M43.8,90.5c4.6,0,4.6,2.7,9.2,2.7c4.6,0,4.6-2.7,9.2-2.7c4.6,0,4.6,2.7,9.2,2.7c4.6,0,4.6-2.7,9.2-2.7
		c4.6,0,4.6,2.7,9.2,2.7c4.6,0,4.6-2.7,9.2-2.7c4.6,0,4.6,2.7,9.2,2.7c4.6,0,4.6-2.7,9.2-2.7c4.6,0,4.6,2.7,9.2,2.7
		c4.6,0,4.6-2.7,9.2-2.7c4.6,0,4.6,2.7,9.2,2.7"/>
</g>
<g>
	<path class="st11" d="M43.8,101.5c4.6,0,4.6,2.7,9.2,2.7c4.6,0,4.6-2.7,9.2-2.7c4.6,0,4.6,2.7,9.2,2.7c4.6,0,4.6-2.7,9.2-2.7
		c4.6,0,4.6,2.7,9.2,2.7c4.6,0,4.6-2.7,9.2-2.7c4.6,0,4.6,2.7,9.2,2.7c4.6,0,4.6-2.7,9.2-2.7c4.6,0,4.6,2.7,9.2,2.7
		c4.6,0,4.6-2.7,9.2-2.7c4.6,0,4.6,2.7,9.2,2.7"/>
</g>
<g>
	<path class="st11" d="M43.8,112.4c4.6,0,4.6,2.7,9.2,2.7c4.6,0,4.6-2.7,9.2-2.7c4.6,0,4.6,2.7,9.2,2.7c4.6,0,4.6-2.7,9.2-2.7
		c4.6,0,4.6,2.7,9.2,2.7c4.6,0,4.6-2.7,9.2-2.7c4.6,0,4.6,2.7,9.2,2.7c4.6,0,4.6-2.7,9.2-2.7c4.6,0,4.6,2.7,9.2,2.7
		c4.6,0,4.6-2.7,9.2-2.7c4.6,0,4.6,2.7,9.2,2.7"/>
</g>
<g>
	<path class="st11" d="M43.8,137.3c4.6,0,4.6,2.7,9.2,2.7c4.6,0,4.6-2.7,9.2-2.7c4.6,0,4.6,2.7,9.2,2.7c4.6,0,4.6-2.7,9.2-2.7
		c4.6,0,4.6,2.7,9.2,2.7c4.6,0,4.6-2.7,9.2-2.7c4.6,0,4.6,2.7,9.2,2.7c4.6,0,4.6-2.7,9.2-2.7c4.6,0,4.6,2.7,9.2,2.7
		c4.6,0,4.6-2.7,9.2-2.7c4.6,0,4.6,2.7,9.2,2.7"/>
</g>
<path class="st8" d="M103,37.4c-1.7,0-3,1.3-3,3s1.3,3,3,3c1.7,0,3-1.3,3-3S104.7,37.4,103,37.4z M103,41.9c-0.8,0-1.5-0.7-1.5-1.5
	c0-0.8,0.7-1.5,1.5-1.5c0.8,0,1.5,0.7,1.5,1.5C104.5,41.2,103.8,41.9,103,41.9z"/>
<line class="st5" x1="101.4" y1="54.1" x2="111.1" y2="54.1"/>
<line class="st12" x1="100.5" y1="46.4" x2="106.3" y2="46.4"/>
<line class="st5" x1="103.6" y1="59.8" x2="104" y2="64.1"/>
<line class="st5" x1="109.4" y1="59.8" x2="108.9" y2="64.1"/>
<line class="st5" x1="103.6" y1="54.4" x2="104" y2="58.7"/>
<line class="st5" x1="109.4" y1="54.4" x2="108.9" y2="58.7"/>
<polyline class="st5" points="50.8,73.8 50.8,66.4 38.1,58.7 "/>
<polyline class="st6" points="38.1,58.7 38.1,107.6 18.7,131.8 39.8,131.8 30.7,125.6 38.1,107.6 "/>
<g>
	<g>
		<path class="st63" d="M50.2,125.4c-0.6-0.3-3.8-1.1-3.8-1.1v3.8c0,0,3.1-0.8,3.7-1.1"/>
	</g>
	<path class="st63" d="M60.6,123.1c0,0-0.2-1.8-1.9-1.4c-0.7,0.1-1.9,0.5-2.6,0.8c-0.8,0.3-1.3,0.9-1.3,0.9s-1.4-0.2-2.1-0.4
		c-0.6-0.2-0.9,0.5-1.1,1"/>
	<path class="st63" d="M55.2,128.5c-0.1,0-0.1,0.3-0.5,0.4c-0.9,0-1.1,0.1-1.9,0.1c-0.7,0.1-1-0.3-1.2-0.7"/>
	<path class="st24" d="M65,125.6c0.5,0.3,0.5,0.9,0.1,1.3c-1.1,0.9-3.2,2-5.9,2c-5.6,0-9.8-2.2-9.8-2.6c0-0.4,4.9-3.1,9.9-3.1
		C60.7,123.1,63.6,124.7,65,125.6z"/>
</g>
<g>
	<g>
		<path class="st63" d="M75.2,125.4c-0.6-0.3-3.8-1.1-3.8-1.1v3.8c0,0,3.1-0.8,3.7-1.1"/>
	</g>
	<path class="st63" d="M85.5,123.1c0,0-0.2-1.8-1.9-1.4c-0.7,0.1-1.9,0.5-2.6,0.8c-0.8,0.3-1.3,0.9-1.3,0.9s-1.4-0.2-2.1-0.4
		c-0.6-0.2-0.9,0.5-1.1,1"/>
	<path class="st63" d="M80.2,128.5c-0.1,0-0.1,0.3-0.5,0.4c-0.9,0-1.1,0.1-1.9,0.1c-0.7,0.1-1-0.3-1.2-0.7"/>
	<path class="st24" d="M90,125.6c0.5,0.3,0.5,0.9,0.1,1.3c-1.1,0.9-3.2,2-5.9,2c-5.6,0-9.8-2.2-9.8-2.6c0-0.4,4.9-3.1,9.9-3.1
		C85.7,123.1,88.5,124.7,90,125.6z"/>
</g>
<g>
	<g>
		<path class="st63" d="M100.2,125.4c-0.6-0.3-3.8-1.1-3.8-1.1v3.8c0,0,3.1-0.8,3.7-1.1"/>
	</g>
	<path class="st63" d="M110.5,123.1c0,0-0.2-1.8-1.9-1.4c-0.7,0.1-1.9,0.5-2.6,0.8c-0.8,0.3-1.3,0.9-1.3,0.9s-1.4-0.2-2.1-0.4
		c-0.6-0.2-0.9,0.5-1.1,1"/>
	<path class="st63" d="M105.2,128.5c-0.1,0-0.1,0.3-0.5,0.4c-0.9,0-1.1,0.1-1.9,0.1c-0.7,0.1-1-0.3-1.2-0.7"/>
	<path class="st24" d="M114.9,125.6c0.5,0.3,0.5,0.9,0.1,1.3c-1.1,0.9-3.2,2-5.9,2c-5.6,0-9.8-2.2-9.8-2.6c0-0.4,4.9-3.1,9.9-3.1
		C110.6,123.1,113.5,124.7,114.9,125.6z"/>
</g>
<g>
	<g>
		<path class="st63" d="M125.1,125.4c-0.6-0.3-3.8-1.1-3.8-1.1v3.8c0,0,3.1-0.8,3.7-1.1"/>
	</g>
	<path class="st63" d="M135.4,123.1c0,0-0.2-1.8-1.9-1.4c-0.7,0.1-1.9,0.5-2.6,0.8c-0.8,0.3-1.3,0.9-1.3,0.9s-1.4-0.2-2.1-0.4
		c-0.6-0.2-0.9,0.5-1.1,1"/>
	<path class="st63" d="M130.1,128.5c-0.1,0-0.1,0.3-0.5,0.4c-0.9,0-1.1,0.1-1.9,0.1c-0.7,0.1-1-0.3-1.2-0.7"/>
	<path class="st24" d="M139.9,125.6c0.5,0.3,0.5,0.9,0.1,1.3c-1.1,0.9-3.2,2-5.9,2c-5.6,0-9.8-2.2-9.8-2.6c0-0.4,4.9-3.1,9.9-3.1
		C135.6,123.1,138.4,124.7,139.9,125.6z"/>
</g>
</svg>
