<?xml version="1.0" encoding="utf-8"?>
<!-- Generator: Adobe Illustrator 26.0.1, SVG Export Plug-In . SVG Version: 6.00 Build 0)  -->
<svg version="1.1" id="Layer_1" xmlns="http://www.w3.org/2000/svg" xmlns:xlink="http://www.w3.org/1999/xlink" x="0px" y="0px"
	 viewBox="0 0 174 174" style="enable-background:new 0 0 174 174;" xml:space="preserve">
<style type="text/css">
	.st0{fill:#0047BF;}
	.st1{fill:#003FC1;}
	.st2{fill:#FFFFFF;}
	.st3{fill:none;stroke:#96D5CE;stroke-width:2;stroke-linecap:round;stroke-linejoin:round;stroke-miterlimit:10;}
	.st4{fill:none;stroke:#FF704C;stroke-width:2;stroke-linecap:round;stroke-linejoin:round;stroke-miterlimit:10;}
	.st5{fill:none;stroke:#FFFFFF;stroke-width:2;stroke-linecap:round;stroke-linejoin:round;stroke-miterlimit:10;}
	.st6{fill:none;stroke:#FF804C;stroke-width:2;stroke-linecap:round;stroke-linejoin:round;stroke-miterlimit:10;}
	.st7{fill:none;stroke:#0047BF;stroke-width:2;stroke-linecap:round;stroke-linejoin:round;stroke-miterlimit:10;}
	.st8{fill:#F1D439;}
	.st9{fill:#0047BF;stroke:#BEC8C8;stroke-width:2;stroke-linecap:round;stroke-linejoin:round;stroke-miterlimit:10;}
	.st10{fill:none;stroke:#FF7E51;stroke-width:2;stroke-linecap:round;stroke-linejoin:round;stroke-miterlimit:10;}
	.st11{fill:none;stroke:#A3D5D0;stroke-width:2;stroke-linecap:round;stroke-linejoin:round;stroke-miterlimit:10;}
	.st12{fill:none;stroke:#F1D439;stroke-width:2;stroke-linecap:round;stroke-linejoin:round;stroke-miterlimit:10;}
	.st13{fill:none;stroke:#E2E6E6;stroke-width:2;stroke-linecap:round;stroke-linejoin:round;stroke-miterlimit:10;}
	.st14{fill:#A3D5D0;}
	.st15{fill:#FF804C;}
	.st16{fill:none;stroke:#BEC8C8;stroke-width:2;stroke-linecap:round;stroke-linejoin:round;stroke-miterlimit:10;}
	.st17{fill:#0047BF;stroke:#0047BF;stroke-width:2;stroke-linecap:round;stroke-linejoin:round;stroke-miterlimit:10;}
	.st18{fill:#0041BD;}
	.st19{fill:#0041BD;stroke:#A3D5D0;stroke-width:2;stroke-linecap:round;stroke-linejoin:round;stroke-miterlimit:10;}
	.st20{fill:#0041BD;stroke:#FFFFFF;stroke-width:2;stroke-linecap:round;stroke-linejoin:round;stroke-miterlimit:10;}
	.st21{fill:#0041BD;stroke:#FF804C;stroke-width:2;stroke-linecap:round;stroke-linejoin:round;stroke-miterlimit:10;}
	.st22{fill:#0041BD;stroke:#F1D439;stroke-width:2;stroke-linecap:round;stroke-linejoin:round;stroke-miterlimit:10;}
	.st23{fill:#FF804C;stroke:#FF804C;stroke-width:2;stroke-linecap:round;stroke-linejoin:round;stroke-miterlimit:10;}
	.st24{fill:none;stroke:#FFFFFF;stroke-width:1.5;stroke-linecap:round;stroke-linejoin:round;stroke-miterlimit:10;}
	.st25{fill:#0041BD;stroke:#FF804C;stroke-width:1.5;stroke-linecap:round;stroke-linejoin:round;stroke-miterlimit:10;}
	.st26{fill:none;stroke:#FF704C;stroke-width:1.5;stroke-linecap:round;stroke-linejoin:round;stroke-miterlimit:10;}
	.st27{fill:none;stroke:#FF804C;stroke-width:1.5;stroke-linecap:round;stroke-linejoin:round;stroke-miterlimit:10;}
	.st28{fill:none;stroke:#A3D5D0;stroke-width:1.4377;stroke-linecap:round;stroke-linejoin:round;stroke-miterlimit:10;}
	.st29{fill:#0041BD;stroke:#A3D5D0;stroke-width:1.5;stroke-linecap:round;stroke-linejoin:round;stroke-miterlimit:10;}
	.st30{fill:#0041BD;stroke:#F1D439;stroke-width:1.5;stroke-linecap:round;stroke-linejoin:round;stroke-miterlimit:10;}
	.st31{fill:none;stroke:#F1D439;stroke-width:1.5;stroke-linecap:round;stroke-linejoin:round;stroke-miterlimit:10;}
	.st32{fill:none;stroke:#FFFFFF;stroke-width:2.5;stroke-linecap:round;stroke-linejoin:round;stroke-miterlimit:10;}
	.st33{fill:none;}
	.st34{fill:none;stroke:#A3D5D0;stroke-width:1.5;stroke-linecap:round;stroke-linejoin:round;stroke-miterlimit:10;}
	.st35{fill:none;stroke:#96D5CE;stroke-width:1.4377;stroke-linecap:round;stroke-linejoin:round;stroke-miterlimit:10;}
	.st36{fill:none;stroke:#0047BF;stroke-width:1.5;stroke-linecap:round;stroke-linejoin:round;stroke-miterlimit:10;}
	.st37{fill:#0047BF;stroke:#FF704C;stroke-width:2;stroke-linecap:round;stroke-linejoin:round;stroke-miterlimit:10;}
	.st38{fill:#0047BF;stroke:#FF804C;stroke-width:2;stroke-linecap:round;stroke-linejoin:round;stroke-miterlimit:10;}
	.st39{fill:#0047BF;stroke:#E2E6E6;stroke-width:2;stroke-linecap:round;stroke-linejoin:round;stroke-miterlimit:10;}
	.st40{fill:#0047BF;stroke:#A3D5D0;stroke-width:2;stroke-linecap:round;stroke-linejoin:round;stroke-miterlimit:10;}
	.st41{fill:#0047BF;stroke:#F1D439;stroke-width:2;stroke-linecap:round;stroke-linejoin:round;stroke-miterlimit:10;}
	.st42{fill:#0041BD;stroke:#E2E6E6;stroke-width:2;stroke-linecap:round;stroke-linejoin:round;stroke-miterlimit:10;}
	.st43{fill:#E2E6E6;}
	.st44{fill:none;stroke:#0047BF;stroke-width:1.4377;stroke-linecap:round;stroke-linejoin:round;stroke-miterlimit:10;}
	.st45{fill:#0047BF;stroke:#A3D5D0;stroke-width:1.5;stroke-linecap:round;stroke-linejoin:round;stroke-miterlimit:10;}
	.st46{fill:none;stroke:#E2E6E6;stroke-width:1.5;stroke-linecap:round;stroke-linejoin:round;stroke-miterlimit:10;}
	.st47{fill:#0047BF;stroke:#FF704C;stroke-width:1.5;stroke-linecap:round;stroke-linejoin:round;stroke-miterlimit:10;}
	.st48{fill:#0047BF;stroke:#FF804C;stroke-width:1.5;stroke-linecap:round;stroke-linejoin:round;stroke-miterlimit:10;}
	.st49{fill:#0047BF;stroke:#F1D439;stroke-width:1.5;stroke-linecap:round;stroke-linejoin:round;stroke-miterlimit:10;}
	.st50{fill:#0041BD;stroke:#0047BF;stroke-width:2;stroke-linecap:round;stroke-linejoin:round;stroke-miterlimit:10;}
	.st51{fill:#FF7E51;}
	.st52{fill:#96D5CE;}
	.st53{fill:#B5C0C0;}
	.st54{fill:#FFDD20;}
	
		.st55{fill:none;stroke:#FFFFFF;stroke-width:2;stroke-linecap:round;stroke-linejoin:round;stroke-miterlimit:10;stroke-dasharray:15,5;}
	.st56{opacity:0.74;fill:#0041BD;}
	.st57{fill:none;stroke:#FFFFFF;stroke-width:2;stroke-linecap:round;stroke-linejoin:round;stroke-dasharray:14.7582,4.9194;}
	.st58{fill:none;stroke:#B5C0C0;stroke-width:2;stroke-linecap:round;stroke-linejoin:round;stroke-miterlimit:10;}
	.st59{fill:#0047BF;stroke:#B5C0C0;stroke-width:2;stroke-linecap:round;stroke-linejoin:round;stroke-miterlimit:10;}
	.st60{fill:#0047BF;stroke:#96D5CE;stroke-width:2;stroke-linecap:round;stroke-linejoin:round;stroke-miterlimit:10;}
	.st61{fill:#0047BF;stroke:#FFFFFF;stroke-width:2;stroke-linecap:round;stroke-linejoin:round;stroke-miterlimit:10;}
	.st62{fill:none;stroke:#FFFFFF;stroke-width:0.75;stroke-linecap:round;stroke-linejoin:round;stroke-miterlimit:10;}
	.st63{fill:none;stroke:#FF7E51;stroke-width:1.5;stroke-linecap:round;stroke-linejoin:round;stroke-miterlimit:10;}
	.st64{fill:#0B0069;stroke:#FFFFFF;stroke-width:1.5;stroke-linecap:round;stroke-linejoin:round;stroke-miterlimit:10;}
	.st65{fill:none;stroke:#FF804C;stroke-width:1.9599;stroke-linecap:round;stroke-linejoin:round;stroke-miterlimit:10;}
</style>
<rect class="st18" width="174" height="174"/>
<polyline class="st5" points="81.9,84.3 117.9,84.3 111.6,92.4 "/>
<g>
	<path class="st34" d="M74,117.8c0.4-0.5-0.1-1.7-0.1-1.7l3,1.7"/>
	<path class="st34" d="M67.3,118.8c-0.3-0.2-1.3-0.6-1.3-0.6l-1.2,1.1"/>
	<path class="st34" d="M72.6,118l-2.6-1.2c0,0,0.7,0.9,0.1,1.5"/>
	<path class="st34" d="M68.3,121.4c3.2,1.4,6.5,1.7,6.5,1.7c0.1,0,0.3,0,0.4-0.1l1.3-0.8"/>
	<path class="st34" d="M63.4,119.6c-0.5-0.5-1.8-0.9-3.3-0.9v0v3v0c1.3,0,2.6-0.3,3.6-1.2"/>
	<polyline class="st34" points="67.6,121.5 66.8,122 65.2,120.8 	"/>
	<path class="st24" d="M83.8,120.1c0,0.1-3.3,1.1-3.6,1.2c-1.2,0.3-3,0.8-5.7,0.8c-3.5,0-9.4-1.3-11.5-1.9c-0.2-0.1-0.2-0.4,0-0.4
		c2.2-0.5,8-1.9,11.5-1.9C79.3,118,83.8,120.1,83.8,120.1z"/>
</g>
<g>
	<path class="st34" d="M93.4,108c0.4-0.5-0.1-1.7-0.1-1.7l3,1.7"/>
	<path class="st34" d="M86.7,109c-0.3-0.2-1.3-0.6-1.3-0.6l-1.2,1.1"/>
	<path class="st34" d="M92,108.2l-2.6-1.2c0,0,0.7,0.9,0.1,1.5"/>
	<path class="st34" d="M87.6,111.6c3.2,1.4,6.5,1.7,6.5,1.7c0.1,0,0.3,0,0.4-0.1l1.3-0.8"/>
	<path class="st34" d="M82.7,109.7c-0.5-0.5-1.8-0.9-3.3-0.9v0v3v0c1.3,0,2.6-0.3,3.6-1.2"/>
	<polyline class="st34" points="86.9,111.7 86.1,112.2 84.5,111 	"/>
	<path class="st24" d="M103.1,110.3c0,0.1-3.3,1.1-3.6,1.2c-1.2,0.3-3,0.8-5.7,0.8c-3.5,0-9.4-1.3-11.5-1.9c-0.2-0.1-0.2-0.4,0-0.4
		c2.2-0.5,8-1.9,11.5-1.9C98.6,108.2,103.1,110.3,103.1,110.3z"/>
</g>
<g>
	<path class="st34" d="M104.8,117.8c0.4-0.5-0.1-1.7-0.1-1.7l3,1.7"/>
	<path class="st34" d="M98.1,118.8c-0.3-0.2-1.3-0.6-1.3-0.6l-1.2,1.1"/>
	<path class="st34" d="M103.4,118l-2.6-1.2c0,0,0.7,0.9,0.1,1.5"/>
	<path class="st34" d="M99.1,121.4c3.2,1.4,6.5,1.7,6.5,1.7c0.1,0,0.3,0,0.4-0.1l1.3-0.8"/>
	<path class="st34" d="M94.1,119.6c-0.5-0.5-1.8-0.9-3.3-0.9v0v3v0c1.3,0,2.6-0.3,3.6-1.2"/>
	<polyline class="st34" points="98.4,121.5 97.5,122 96,120.8 	"/>
	<path class="st24" d="M114.6,120.1c0,0.1-3.3,1.1-3.6,1.2c-1.2,0.3-3,0.8-5.7,0.8c-3.5,0-9.4-1.3-11.5-1.9c-0.2-0.1-0.2-0.4,0-0.4
		c2.2-0.5,8-1.9,11.5-1.9C110.1,118,114.6,120.1,114.6,120.1z"/>
</g>
<line class="st12" x1="79.2" y1="61.2" x2="76.8" y2="50.2"/>
<line class="st12" x1="75.6" y1="57.5" x2="81.2" y2="57.5"/>
<line class="st5" x1="112.9" y1="65.7" x2="117.7" y2="65.7"/>
<line class="st5" x1="76.6" y1="67.2" x2="77.1" y2="71.6"/>
<line class="st5" x1="81.5" y1="67.2" x2="81" y2="71.6"/>
<line class="st5" x1="63.4" y1="72.8" x2="84.4" y2="72.8"/>
<line class="st12" x1="75.6" y1="54.1" x2="79.6" y2="54.1"/>
<path class="st8" d="M76.3,44.9c-1.6,0-2.9,1.3-2.9,3s1.3,3,2.9,3c1.6,0,2.9-1.3,2.9-3S77.9,44.9,76.3,44.9z M76.3,49.3
	c-0.8,0-1.4-0.7-1.4-1.5c0-0.8,0.6-1.5,1.4-1.5c0.8,0,1.4,0.7,1.4,1.5C77.7,48.7,77.1,49.3,76.3,49.3z"/>
<polyline class="st5" points="120.1,95.1 137.7,76 112.6,79.1 54.2,79.2 51.8,77.2 42.8,77.2 42.8,88.7 49.7,94.5 "/>
<line class="st5" x1="114.5" y1="62" x2="117.1" y2="74"/>
<line class="st5" x1="113.7" y1="69.6" x2="118.4" y2="69.6"/>
<line class="st5" x1="84.4" y1="72.3" x2="86.5" y2="79"/>
<polyline class="st5" points="62.7,78.1 62.7,64.8 65.6,64.8 68.5,72.3 "/>
<polyline class="st5" points="124.9,77.6 123.6,74 109.6,74 109.6,79.1 "/>
<polyline class="st5" points="73.7,72.3 71.4,66.8 86.5,66.8 84.4,72.3 "/>
<polyline class="st5" points="45.8,76.7 43,70.6 43,62 48.6,62 48.6,65.7 46.8,70.9 49.3,76.6 "/>
<line class="st5" x1="73.5" y1="61.4" x2="83.2" y2="61.4"/>
<line class="st5" x1="75.7" y1="61.8" x2="76.1" y2="66.1"/>
<line class="st5" x1="81.5" y1="61.8" x2="81" y2="66.1"/>
<path class="st65" d="M67,103.3c-2.1,0.8-4.2,1.8-6.1,3l-1.7,1.1c-3.6,2.2-6.1,5.9-6.3,10.1c-0.4,6.9,6.3,12.7,13.4,12.7h8h27.9
	l7.6,0c6.9,0,14-5.4,13.9-12.1c-0.1-4.2-2.3-8.1-6-10.4l0,0c-6.8-4.2-15.2-6.5-23-6.5H84.4"/>
<path class="st11" d="M29.2,95.1c4.6,0,4.6-2.7,9.2-2.7c4.6,0,4.6,2.7,9.2,2.7c4.6,0,4.6-2.7,9.2-2.7c4.6,0,4.6,2.7,9.2,2.7
	c4.6,0,4.6-2.7,9.2-2.7s4.6,2.7,9.2,2.7c4.6,0,4.6-2.7,9.2-2.7c4.6,0,4.6,2.7,9.2,2.7c4.6,0,4.6-2.7,9.2-2.7c4.6,0,4.6,2.7,9.2,2.7
	c4.6,0,4.6-2.7,9.2-2.7s4.6,2.7,9.2,2.7"/>
<path class="st11" d="M29.2,140.1c4.6,0,4.6-2.7,9.2-2.7c4.6,0,4.6,2.7,9.2,2.7c4.6,0,4.6-2.7,9.2-2.7c4.6,0,4.6,2.7,9.2,2.7
	c4.6,0,4.6-2.7,9.2-2.7s4.6,2.7,9.2,2.7c4.6,0,4.6-2.7,9.2-2.7c4.6,0,4.6,2.7,9.2,2.7c4.6,0,4.6-2.7,9.2-2.7c4.6,0,4.6,2.7,9.2,2.7
	c4.6,0,4.6-2.7,9.2-2.7s4.6,2.7,9.2,2.7"/>
<path class="st11" d="M126.2,127.4c1.1-0.6,2.2-1.2,4.3-1.2c4.6,0,4.6,2.7,9.2,2.7"/>
<path class="st11" d="M29.2,128.9c4.6,0,4.6-2.7,9.2-2.7c4.6,0,4.6,2.7,9.2,2.7c1.2,0,2-0.2,2.7-0.4"/>
<path class="st11" d="M129.1,115.1c0.4-0.1,0.9-0.1,1.4-0.1c4.6,0,4.6,2.7,9.2,2.7"/>
<path class="st11" d="M29.2,117.6c4.6,0,4.6-2.7,9.2-2.7c4.1,0,4.6,2.2,8,2.6"/>
<path class="st11" d="M125.7,105.1c1.2-0.7,2.4-1.4,4.8-1.4c4.6,0,4.6,2.7,9.2,2.7"/>
<path class="st11" d="M29.2,106.4c4.6,0,4.6-2.7,9.2-2.7c4.6,0,4.6,2.7,9.2,2.7c2,0,3.2-0.5,4.2-1.1"/>
<line class="st5" x1="63.1" y1="80" x2="84" y2="101.1"/>
</svg>
