<?xml version="1.0" encoding="utf-8"?>
<!-- Generator: Adobe Illustrator 26.0.1, SVG Export Plug-In . SVG Version: 6.00 Build 0)  -->
<svg version="1.1" id="Layer_1" xmlns="http://www.w3.org/2000/svg" xmlns:xlink="http://www.w3.org/1999/xlink" x="0px" y="0px"
	 viewBox="0 0 174 174" style="enable-background:new 0 0 174 174;" xml:space="preserve">
<style type="text/css">
	.st0{fill:#0047BF;}
	.st1{fill:#003FC1;}
	.st2{fill:#FFFFFF;}
	.st3{fill:none;stroke:#96D5CE;stroke-width:2;stroke-linecap:round;stroke-linejoin:round;stroke-miterlimit:10;}
	.st4{fill:none;stroke:#FF704C;stroke-width:2;stroke-linecap:round;stroke-linejoin:round;stroke-miterlimit:10;}
	.st5{fill:none;stroke:#FFFFFF;stroke-width:2;stroke-linecap:round;stroke-linejoin:round;stroke-miterlimit:10;}
	.st6{fill:none;stroke:#FF804C;stroke-width:2;stroke-linecap:round;stroke-linejoin:round;stroke-miterlimit:10;}
	.st7{fill:none;stroke:#0047BF;stroke-width:2;stroke-linecap:round;stroke-linejoin:round;stroke-miterlimit:10;}
	.st8{fill:#F1D439;}
	.st9{fill:#0047BF;stroke:#BEC8C8;stroke-width:2;stroke-linecap:round;stroke-linejoin:round;stroke-miterlimit:10;}
	.st10{fill:none;stroke:#FF7E51;stroke-width:2;stroke-linecap:round;stroke-linejoin:round;stroke-miterlimit:10;}
	.st11{fill:none;stroke:#A3D5D0;stroke-width:2;stroke-linecap:round;stroke-linejoin:round;stroke-miterlimit:10;}
	.st12{fill:none;stroke:#F1D439;stroke-width:2;stroke-linecap:round;stroke-linejoin:round;stroke-miterlimit:10;}
	.st13{fill:none;stroke:#E2E6E6;stroke-width:2;stroke-linecap:round;stroke-linejoin:round;stroke-miterlimit:10;}
	.st14{fill:#A3D5D0;}
	.st15{fill:#FF804C;}
	.st16{fill:none;stroke:#BEC8C8;stroke-width:2;stroke-linecap:round;stroke-linejoin:round;stroke-miterlimit:10;}
	.st17{fill:#0047BF;stroke:#0047BF;stroke-width:2;stroke-linecap:round;stroke-linejoin:round;stroke-miterlimit:10;}
	.st18{fill:#0041BD;}
	.st19{fill:#0041BD;stroke:#A3D5D0;stroke-width:2;stroke-linecap:round;stroke-linejoin:round;stroke-miterlimit:10;}
	.st20{fill:#0041BD;stroke:#FFFFFF;stroke-width:2;stroke-linecap:round;stroke-linejoin:round;stroke-miterlimit:10;}
	.st21{fill:#0041BD;stroke:#FF804C;stroke-width:2;stroke-linecap:round;stroke-linejoin:round;stroke-miterlimit:10;}
	.st22{fill:#0041BD;stroke:#F1D439;stroke-width:2;stroke-linecap:round;stroke-linejoin:round;stroke-miterlimit:10;}
	.st23{fill:#FF804C;stroke:#FF804C;stroke-width:2;stroke-linecap:round;stroke-linejoin:round;stroke-miterlimit:10;}
	.st24{fill:none;stroke:#FFFFFF;stroke-width:1.5;stroke-linecap:round;stroke-linejoin:round;stroke-miterlimit:10;}
	.st25{fill:#0041BD;stroke:#FF804C;stroke-width:1.5;stroke-linecap:round;stroke-linejoin:round;stroke-miterlimit:10;}
	.st26{fill:none;stroke:#FF704C;stroke-width:1.5;stroke-linecap:round;stroke-linejoin:round;stroke-miterlimit:10;}
	.st27{fill:none;stroke:#FF804C;stroke-width:1.5;stroke-linecap:round;stroke-linejoin:round;stroke-miterlimit:10;}
	.st28{fill:none;stroke:#A3D5D0;stroke-width:1.4377;stroke-linecap:round;stroke-linejoin:round;stroke-miterlimit:10;}
	.st29{fill:#0041BD;stroke:#A3D5D0;stroke-width:1.5;stroke-linecap:round;stroke-linejoin:round;stroke-miterlimit:10;}
	.st30{fill:#0041BD;stroke:#F1D439;stroke-width:1.5;stroke-linecap:round;stroke-linejoin:round;stroke-miterlimit:10;}
	.st31{fill:none;stroke:#F1D439;stroke-width:1.5;stroke-linecap:round;stroke-linejoin:round;stroke-miterlimit:10;}
	.st32{fill:none;stroke:#FFFFFF;stroke-width:2.5;stroke-linecap:round;stroke-linejoin:round;stroke-miterlimit:10;}
	.st33{fill:none;}
	.st34{fill:none;stroke:#A3D5D0;stroke-width:1.5;stroke-linecap:round;stroke-linejoin:round;stroke-miterlimit:10;}
	.st35{fill:none;stroke:#96D5CE;stroke-width:1.4377;stroke-linecap:round;stroke-linejoin:round;stroke-miterlimit:10;}
	.st36{fill:none;stroke:#0047BF;stroke-width:1.5;stroke-linecap:round;stroke-linejoin:round;stroke-miterlimit:10;}
	.st37{fill:#0047BF;stroke:#FF704C;stroke-width:2;stroke-linecap:round;stroke-linejoin:round;stroke-miterlimit:10;}
	.st38{fill:#0047BF;stroke:#FF804C;stroke-width:2;stroke-linecap:round;stroke-linejoin:round;stroke-miterlimit:10;}
	.st39{fill:#0047BF;stroke:#E2E6E6;stroke-width:2;stroke-linecap:round;stroke-linejoin:round;stroke-miterlimit:10;}
	.st40{fill:#0047BF;stroke:#A3D5D0;stroke-width:2;stroke-linecap:round;stroke-linejoin:round;stroke-miterlimit:10;}
	.st41{fill:#0047BF;stroke:#F1D439;stroke-width:2;stroke-linecap:round;stroke-linejoin:round;stroke-miterlimit:10;}
	.st42{fill:#0041BD;stroke:#E2E6E6;stroke-width:2;stroke-linecap:round;stroke-linejoin:round;stroke-miterlimit:10;}
	.st43{fill:#E2E6E6;}
	.st44{fill:none;stroke:#0047BF;stroke-width:1.4377;stroke-linecap:round;stroke-linejoin:round;stroke-miterlimit:10;}
	.st45{fill:#0047BF;stroke:#A3D5D0;stroke-width:1.5;stroke-linecap:round;stroke-linejoin:round;stroke-miterlimit:10;}
	.st46{fill:none;stroke:#E2E6E6;stroke-width:1.5;stroke-linecap:round;stroke-linejoin:round;stroke-miterlimit:10;}
	.st47{fill:#0047BF;stroke:#FF704C;stroke-width:1.5;stroke-linecap:round;stroke-linejoin:round;stroke-miterlimit:10;}
	.st48{fill:#0047BF;stroke:#FF804C;stroke-width:1.5;stroke-linecap:round;stroke-linejoin:round;stroke-miterlimit:10;}
	.st49{fill:#0047BF;stroke:#F1D439;stroke-width:1.5;stroke-linecap:round;stroke-linejoin:round;stroke-miterlimit:10;}
	.st50{fill:#0041BD;stroke:#0047BF;stroke-width:2;stroke-linecap:round;stroke-linejoin:round;stroke-miterlimit:10;}
	.st51{fill:#FF7E51;}
	.st52{fill:#96D5CE;}
	.st53{fill:#B5C0C0;}
	.st54{fill:#FFDD20;}
	
		.st55{fill:none;stroke:#FFFFFF;stroke-width:2;stroke-linecap:round;stroke-linejoin:round;stroke-miterlimit:10;stroke-dasharray:15,5;}
	.st56{opacity:0.74;fill:#0041BD;}
	.st57{fill:none;stroke:#FFFFFF;stroke-width:2;stroke-linecap:round;stroke-linejoin:round;stroke-dasharray:14.7582,4.9194;}
	.st58{fill:none;stroke:#B5C0C0;stroke-width:2;stroke-linecap:round;stroke-linejoin:round;stroke-miterlimit:10;}
	.st59{fill:#0047BF;stroke:#B5C0C0;stroke-width:2;stroke-linecap:round;stroke-linejoin:round;stroke-miterlimit:10;}
	.st60{fill:#0047BF;stroke:#96D5CE;stroke-width:2;stroke-linecap:round;stroke-linejoin:round;stroke-miterlimit:10;}
	.st61{fill:#0047BF;stroke:#FFFFFF;stroke-width:2;stroke-linecap:round;stroke-linejoin:round;stroke-miterlimit:10;}
	.st62{fill:none;stroke:#FFFFFF;stroke-width:0.75;stroke-linecap:round;stroke-linejoin:round;stroke-miterlimit:10;}
	.st63{fill:none;stroke:#FF7E51;stroke-width:1.5;stroke-linecap:round;stroke-linejoin:round;stroke-miterlimit:10;}
	.st64{fill:#0B0069;stroke:#FFFFFF;stroke-width:1.5;stroke-linecap:round;stroke-linejoin:round;stroke-miterlimit:10;}
	.st65{fill:none;stroke:#FF804C;stroke-width:1.9599;stroke-linecap:round;stroke-linejoin:round;stroke-miterlimit:10;}
</style>
<rect class="st18" width="174" height="174"/>
<g>
	<g>
		<path class="st63" d="M66.2,127.2c-0.6-0.3-3.8-1.1-3.8-1.1v3.8c0,0,3.1-0.8,3.7-1.1"/>
	</g>
	<path class="st63" d="M76.5,124.9c0,0-0.2-1.8-1.9-1.4c-0.7,0.1-1.9,0.5-2.6,0.8c-0.8,0.3-1.3,0.9-1.3,0.9s-1.4-0.2-2.1-0.4
		c-0.6-0.2-0.9,0.5-1.1,1"/>
	<path class="st63" d="M71.2,130.3c-0.1,0-0.1,0.3-0.5,0.4c-0.9,0-1.1,0.1-1.9,0.1c-0.7,0.1-1-0.3-1.2-0.7"/>
	<path class="st24" d="M80.9,127.4c0.5,0.3,0.5,0.9,0.1,1.3c-1.1,0.9-3.2,2-5.9,2c-5.6,0-9.8-2.2-9.8-2.6s4.9-3.1,9.9-3.1
		C76.6,124.9,79.5,126.5,80.9,127.4z"/>
</g>
<g>
	<g>
		<path class="st63" d="M93.6,127.5c-0.6-0.3-3.8-1.1-3.8-1.1v3.8c0,0,3.1-0.8,3.7-1.1"/>
	</g>
	<path class="st63" d="M103.9,125.2c0,0-0.2-1.8-1.9-1.4c-0.7,0.1-1.9,0.5-2.6,0.8c-0.8,0.3-1.3,0.9-1.3,0.9s-1.4-0.2-2.1-0.4
		c-0.6-0.2-0.9,0.5-1.1,1"/>
	<path class="st63" d="M98.6,130.6c-0.1,0-0.1,0.3-0.5,0.4c-0.9,0-1.1,0.1-1.9,0.1c-0.7,0.1-1-0.3-1.2-0.7"/>
	<path class="st24" d="M108.4,127.7c0.5,0.3,0.5,0.9,0.1,1.3c-1.1,0.9-3.2,2-5.9,2c-5.6,0-9.8-2.2-9.8-2.6c0-0.4,4.9-3.1,9.9-3.1
		C104.1,125.2,107,126.8,108.4,127.7z"/>
</g>
<path class="st11" d="M108.8,101.1c4.6,0,4.6,2.7,9.2,2.7c4.6,0,4.6-2.7,9.2-2.7s4.6,2.7,9.2,2.7"/>
<path class="st11" d="M35.4,101.1c4.6,0,4.6,2.7,9.2,2.7c4.6,0,4.6-2.7,9.2-2.7c4.6,0,4.6,2.7,9.2,2.7"/>
<path class="st11" d="M118,129.8c4.6,0,4.6-2.7,9.2-2.7s4.6,2.7,9.2,2.7"/>
<path class="st11" d="M35.4,127.1c4.6,0,4.6,2.7,9.2,2.7c2.3,0,3.4-0.7,4.6-1.3"/>
<polyline class="st6" points="29.7,81.9 29.7,98.4 11.7,130.3 27,130.3 22.8,117.8 29.7,98.4 "/>
<g>
	<path class="st34" d="M55.9,113.9c0.5-0.5-0.1-1.9-0.1-1.9l3.3,1.9"/>
	<path class="st34" d="M48.6,114.9c-0.4-0.2-1.4-0.7-1.4-0.7l-1.3,1.2"/>
	<path class="st34" d="M54.4,114l-2.8-1.3c0,0,0.7,1,0.1,1.7"/>
	<path class="st34" d="M49.7,117.8c3.5,1.6,7.1,1.9,7.1,1.9c0.2,0,0.3,0,0.5-0.1l1.4-0.9"/>
	<path class="st34" d="M44.3,115.7c-0.6-0.6-2-1-3.6-1v0v3.3v0c1.4,0,2.9-0.3,3.9-1.3"/>
	<polyline class="st34" points="48.9,117.9 48,118.4 46.3,117.1 	"/>
	<path class="st24" d="M66.7,116.3c0,0.1-3.6,1.2-4,1.3c-1.3,0.3-3.3,0.9-6.2,0.9c-3.9,0-10.3-1.5-12.6-2c-0.2-0.1-0.2-0.4,0-0.5
		c2.4-0.6,8.8-2,12.6-2C61.7,114.1,66.7,116.3,66.7,116.3z"/>
</g>
<g>
	<path class="st34" d="M88.5,113.9c0.5-0.5-0.1-1.9-0.1-1.9l3.3,1.9"/>
	<path class="st34" d="M81.1,114.9c-0.4-0.2-1.4-0.7-1.4-0.7l-1.3,1.2"/>
	<path class="st34" d="M86.9,114l-2.8-1.3c0,0,0.7,1,0.1,1.7"/>
	<path class="st34" d="M82.2,117.8c3.5,1.6,7.1,1.9,7.1,1.9c0.2,0,0.3,0,0.5-0.1l1.4-0.9"/>
	<path class="st34" d="M76.8,115.7c-0.6-0.6-2-1-3.6-1v0v3.3v0c1.4,0,2.9-0.3,3.9-1.3"/>
	<polyline class="st34" points="81.4,117.9 80.5,118.4 78.8,117.1 	"/>
	<path class="st24" d="M99.2,116.3c0,0.1-3.6,1.2-4,1.3c-1.3,0.3-3.3,0.9-6.2,0.9c-3.9,0-10.3-1.5-12.6-2c-0.2-0.1-0.2-0.4,0-0.5
		c2.4-0.6,8.8-2,12.6-2C94.2,114.1,99.2,116.3,99.2,116.3z"/>
</g>
<g>
	<path class="st34" d="M88.5,100.1c0.5-0.5-0.1-1.9-0.1-1.9l3.3,1.9"/>
	<path class="st34" d="M81.1,101.2c-0.4-0.2-1.4-0.7-1.4-0.7l-1.3,1.2"/>
	<path class="st34" d="M86.9,100.3L84.1,99c0,0,0.7,1,0.1,1.7"/>
	<path class="st34" d="M82.2,104.1c3.5,1.6,7.1,1.9,7.1,1.9c0.2,0,0.3,0,0.5-0.1l1.4-0.9"/>
	<path class="st34" d="M76.8,102c-0.6-0.6-2-1-3.6-1v0v3.3v0c1.4,0,2.9-0.3,3.9-1.3"/>
	<polyline class="st34" points="81.4,104.2 80.5,104.7 78.8,103.4 	"/>
	<path class="st24" d="M99.2,102.6c0,0.1-3.6,1.2-4,1.3c-1.3,0.3-3.3,0.9-6.2,0.9c-3.9,0-10.3-1.5-12.6-2c-0.2-0.1-0.2-0.4,0-0.5
		c2.4-0.6,8.8-2,12.6-2C94.2,100.4,99.2,102.6,99.2,102.6z"/>
</g>
<g>
	<path class="st34" d="M121.9,113.9c0.5-0.5-0.1-1.9-0.1-1.9l3.3,1.9"/>
	<path class="st34" d="M114.5,114.9c-0.4-0.2-1.4-0.7-1.4-0.7l-1.3,1.2"/>
	<path class="st34" d="M120.3,114l-2.8-1.3c0,0,0.7,1,0.1,1.7"/>
	<path class="st34" d="M115.6,117.8c3.5,1.6,7.1,1.9,7.1,1.9c0.2,0,0.3,0,0.5-0.1l1.4-0.9"/>
	<path class="st34" d="M110.2,115.7c-0.6-0.6-2-1-3.6-1v0v3.3v0c1.4,0,2.9-0.3,3.9-1.3"/>
	<polyline class="st34" points="114.8,117.9 113.9,118.4 112.2,117.1 	"/>
	<path class="st24" d="M132.6,116.3c0,0.1-3.6,1.2-4,1.3c-1.3,0.3-3.3,0.9-6.2,0.9c-3.9,0-10.3-1.5-12.6-2c-0.2-0.1-0.2-0.4,0-0.5
		c2.4-0.6,8.8-2,12.6-2C127.6,114.1,132.6,116.3,132.6,116.3z"/>
</g>
<polyline class="st5" points="128.8,91.8 141,78 119.7,80 115,81.8 42.7,81.9 42.7,93.8 "/>
<path class="st8" d="M53.6,51.4c-1.4,0-2.5,1.2-2.5,2.6c0,1.4,1.1,2.6,2.5,2.6c1.4,0,2.5-1.2,2.5-2.6C56.2,52.5,55,51.4,53.6,51.4z
	 M53.6,55.1c-0.6,0-1.1-0.5-1.1-1.1c0-0.6,0.5-1.1,1.1-1.1c0.6,0,1.1,0.5,1.1,1.1C54.7,54.6,54.2,55.1,53.6,55.1z"/>
<line class="st12" x1="53.6" y1="56.5" x2="53.6" y2="63.1"/>
<line class="st12" x1="51.6" y1="59.2" x2="55.6" y2="59.2"/>
<polyline class="st5" points="58.9,80.9 56.2,63.7 51.6,63.7 53.4,74.4 49.7,81.9 "/>
<polyline class="st5" points="119.7,80 116.8,73.7 118.4,70.3 116.4,68.2 99.9,70.5 100.5,73.4 96.5,81.9 "/>
<polyline class="st5" points="51,87 117.5,87 113.1,92.4 "/>
<line class="st5" x1="100.5" y1="73.4" x2="116.7" y2="73.4"/>
<line class="st5" x1="108.6" y1="69.7" x2="108.6" y2="73.4"/>
<line class="st5" x1="113.6" y1="68.6" x2="112.6" y2="73.1"/>
<line class="st5" x1="104" y1="69.9" x2="104.5" y2="73.1"/>
<g>
	<path class="st11" d="M35.4,91.7c4.6,0,4.6,2.7,9.2,2.7c4.6,0,4.6-2.7,9.2-2.7c4.6,0,4.6,2.7,9.2,2.7c4.6,0,4.6-2.7,9.2-2.7
		s4.6,2.7,9.2,2.7c4.6,0,4.6-2.7,9.2-2.7c4.6,0,4.6,2.7,9.2,2.7c4.6,0,4.6-2.7,9.2-2.7c4.6,0,4.6,2.7,9.2,2.7c4.6,0,4.6-2.7,9.2-2.7
		s4.6,2.7,9.2,2.7"/>
</g>
<g>
	<path class="st11" d="M35.4,137.3c4.6,0,4.6,2.7,9.2,2.7c4.6,0,4.6-2.7,9.2-2.7c4.6,0,4.6,2.7,9.2,2.7c4.6,0,4.6-2.7,9.2-2.7
		s4.6,2.7,9.2,2.7c4.6,0,4.6-2.7,9.2-2.7c4.6,0,4.6,2.7,9.2,2.7c4.6,0,4.6-2.7,9.2-2.7c4.6,0,4.6,2.7,9.2,2.7c4.6,0,4.6-2.7,9.2-2.7
		s4.6,2.7,9.2,2.7"/>
</g>
<line class="st5" x1="104.2" y1="60.5" x2="109" y2="60.5"/>
<line class="st5" x1="105.8" y1="56.8" x2="108.4" y2="68.7"/>
<line class="st5" x1="105" y1="64.3" x2="109.7" y2="64.3"/>
<g>
	<circle class="st60" cx="129" cy="50.1" r="11"/>
	<g>
		<g>
			<line class="st24" x1="129" y1="42.6" x2="129" y2="57.5"/>
			<g>
				<line class="st24" x1="126.8" y1="44.4" x2="129" y2="45.7"/>
				<line class="st24" x1="131.2" y1="44.4" x2="129" y2="45.7"/>
			</g>
			<g>
				<line class="st24" x1="131.2" y1="55.7" x2="129" y2="54.4"/>
				<line class="st24" x1="126.8" y1="55.7" x2="129" y2="54.4"/>
			</g>
		</g>
	</g>
	<g>
		<g>
			<line class="st24" x1="126.7" y1="47.7" x2="131.4" y2="52.4"/>
		</g>
	</g>
	<g>
		<g>
			<line class="st64" x1="131.3" y1="47.7" x2="126.7" y2="52.4"/>
		</g>
	</g>
	<g>
		<g>
			<line class="st24" x1="121.5" y1="50.1" x2="136.5" y2="50.1"/>
			<g>
				<line class="st24" x1="123.3" y1="52.3" x2="124.6" y2="50.1"/>
				<line class="st24" x1="123.3" y1="47.9" x2="124.6" y2="50.1"/>
			</g>
			<g>
				<line class="st24" x1="134.6" y1="47.9" x2="133.4" y2="50.1"/>
				<line class="st24" x1="134.6" y1="52.3" x2="133.4" y2="50.1"/>
			</g>
		</g>
	</g>
</g>
<line class="st5" x1="51.6" y1="63.7" x2="29.7" y2="81.9"/>
</svg>
