<?xml version="1.0" encoding="utf-8"?>
<!-- Generator: Adobe Illustrator 26.0.1, SVG Export Plug-In . SVG Version: 6.00 Build 0)  -->
<svg version="1.1" id="Layer_1" xmlns="http://www.w3.org/2000/svg" xmlns:xlink="http://www.w3.org/1999/xlink" x="0px" y="0px"
	 viewBox="0 0 174 174" style="enable-background:new 0 0 174 174;" xml:space="preserve">
<style type="text/css">
	.st0{fill:#0047BF;}
	.st1{fill:#003FC1;}
	.st2{fill:#FFFFFF;}
	.st3{fill:none;stroke:#96D5CE;stroke-width:2;stroke-linecap:round;stroke-linejoin:round;stroke-miterlimit:10;}
	.st4{fill:none;stroke:#FF704C;stroke-width:2;stroke-linecap:round;stroke-linejoin:round;stroke-miterlimit:10;}
	.st5{fill:none;stroke:#FFFFFF;stroke-width:2;stroke-linecap:round;stroke-linejoin:round;stroke-miterlimit:10;}
	.st6{fill:none;stroke:#FF804C;stroke-width:2;stroke-linecap:round;stroke-linejoin:round;stroke-miterlimit:10;}
	.st7{fill:none;stroke:#0047BF;stroke-width:2;stroke-linecap:round;stroke-linejoin:round;stroke-miterlimit:10;}
	.st8{fill:#F1D439;}
	.st9{fill:#0047BF;stroke:#BEC8C8;stroke-width:2;stroke-linecap:round;stroke-linejoin:round;stroke-miterlimit:10;}
	.st10{fill:none;stroke:#FF7E51;stroke-width:2;stroke-linecap:round;stroke-linejoin:round;stroke-miterlimit:10;}
	.st11{fill:none;stroke:#A3D5D0;stroke-width:2;stroke-linecap:round;stroke-linejoin:round;stroke-miterlimit:10;}
	.st12{fill:none;stroke:#F1D439;stroke-width:2;stroke-linecap:round;stroke-linejoin:round;stroke-miterlimit:10;}
	.st13{fill:none;stroke:#E2E6E6;stroke-width:2;stroke-linecap:round;stroke-linejoin:round;stroke-miterlimit:10;}
	.st14{fill:#A3D5D0;}
	.st15{fill:#FF804C;}
	.st16{fill:none;stroke:#BEC8C8;stroke-width:2;stroke-linecap:round;stroke-linejoin:round;stroke-miterlimit:10;}
	.st17{fill:#0047BF;stroke:#0047BF;stroke-width:2;stroke-linecap:round;stroke-linejoin:round;stroke-miterlimit:10;}
	.st18{fill:#0041BD;}
	.st19{fill:#0041BD;stroke:#A3D5D0;stroke-width:2;stroke-linecap:round;stroke-linejoin:round;stroke-miterlimit:10;}
	.st20{fill:#0041BD;stroke:#FFFFFF;stroke-width:2;stroke-linecap:round;stroke-linejoin:round;stroke-miterlimit:10;}
	.st21{fill:#0041BD;stroke:#FF804C;stroke-width:2;stroke-linecap:round;stroke-linejoin:round;stroke-miterlimit:10;}
	.st22{fill:#0041BD;stroke:#F1D439;stroke-width:2;stroke-linecap:round;stroke-linejoin:round;stroke-miterlimit:10;}
	.st23{fill:#FF804C;stroke:#FF804C;stroke-width:2;stroke-linecap:round;stroke-linejoin:round;stroke-miterlimit:10;}
	.st24{fill:none;stroke:#FFFFFF;stroke-width:1.5;stroke-linecap:round;stroke-linejoin:round;stroke-miterlimit:10;}
	.st25{fill:#0041BD;stroke:#FF804C;stroke-width:1.5;stroke-linecap:round;stroke-linejoin:round;stroke-miterlimit:10;}
	.st26{fill:none;stroke:#FF704C;stroke-width:1.5;stroke-linecap:round;stroke-linejoin:round;stroke-miterlimit:10;}
	.st27{fill:none;stroke:#FF804C;stroke-width:1.5;stroke-linecap:round;stroke-linejoin:round;stroke-miterlimit:10;}
	.st28{fill:none;stroke:#A3D5D0;stroke-width:1.4377;stroke-linecap:round;stroke-linejoin:round;stroke-miterlimit:10;}
	.st29{fill:#0041BD;stroke:#A3D5D0;stroke-width:1.5;stroke-linecap:round;stroke-linejoin:round;stroke-miterlimit:10;}
	.st30{fill:#0041BD;stroke:#F1D439;stroke-width:1.5;stroke-linecap:round;stroke-linejoin:round;stroke-miterlimit:10;}
	.st31{fill:none;stroke:#F1D439;stroke-width:1.5;stroke-linecap:round;stroke-linejoin:round;stroke-miterlimit:10;}
	.st32{fill:none;stroke:#FFFFFF;stroke-width:2.5;stroke-linecap:round;stroke-linejoin:round;stroke-miterlimit:10;}
	.st33{fill:none;}
	.st34{fill:none;stroke:#A3D5D0;stroke-width:1.5;stroke-linecap:round;stroke-linejoin:round;stroke-miterlimit:10;}
	.st35{fill:none;stroke:#96D5CE;stroke-width:1.4377;stroke-linecap:round;stroke-linejoin:round;stroke-miterlimit:10;}
	.st36{fill:none;stroke:#0047BF;stroke-width:1.5;stroke-linecap:round;stroke-linejoin:round;stroke-miterlimit:10;}
	.st37{fill:#0047BF;stroke:#FF704C;stroke-width:2;stroke-linecap:round;stroke-linejoin:round;stroke-miterlimit:10;}
	.st38{fill:#0047BF;stroke:#FF804C;stroke-width:2;stroke-linecap:round;stroke-linejoin:round;stroke-miterlimit:10;}
	.st39{fill:#0047BF;stroke:#E2E6E6;stroke-width:2;stroke-linecap:round;stroke-linejoin:round;stroke-miterlimit:10;}
	.st40{fill:#0047BF;stroke:#A3D5D0;stroke-width:2;stroke-linecap:round;stroke-linejoin:round;stroke-miterlimit:10;}
	.st41{fill:#0047BF;stroke:#F1D439;stroke-width:2;stroke-linecap:round;stroke-linejoin:round;stroke-miterlimit:10;}
	.st42{fill:#0041BD;stroke:#E2E6E6;stroke-width:2;stroke-linecap:round;stroke-linejoin:round;stroke-miterlimit:10;}
	.st43{fill:#E2E6E6;}
	.st44{fill:none;stroke:#0047BF;stroke-width:1.4377;stroke-linecap:round;stroke-linejoin:round;stroke-miterlimit:10;}
	.st45{fill:#0047BF;stroke:#A3D5D0;stroke-width:1.5;stroke-linecap:round;stroke-linejoin:round;stroke-miterlimit:10;}
	.st46{fill:none;stroke:#E2E6E6;stroke-width:1.5;stroke-linecap:round;stroke-linejoin:round;stroke-miterlimit:10;}
	.st47{fill:#0047BF;stroke:#FF704C;stroke-width:1.5;stroke-linecap:round;stroke-linejoin:round;stroke-miterlimit:10;}
	.st48{fill:#0047BF;stroke:#FF804C;stroke-width:1.5;stroke-linecap:round;stroke-linejoin:round;stroke-miterlimit:10;}
	.st49{fill:#0047BF;stroke:#F1D439;stroke-width:1.5;stroke-linecap:round;stroke-linejoin:round;stroke-miterlimit:10;}
	.st50{fill:#0041BD;stroke:#0047BF;stroke-width:2;stroke-linecap:round;stroke-linejoin:round;stroke-miterlimit:10;}
	.st51{fill:#FF7E51;}
	.st52{fill:#96D5CE;}
	.st53{fill:#B5C0C0;}
	.st54{fill:#FFDD20;}
	
		.st55{fill:none;stroke:#FFFFFF;stroke-width:2;stroke-linecap:round;stroke-linejoin:round;stroke-miterlimit:10;stroke-dasharray:15,5;}
	.st56{opacity:0.74;fill:#0041BD;}
	.st57{fill:none;stroke:#FFFFFF;stroke-width:2;stroke-linecap:round;stroke-linejoin:round;stroke-dasharray:14.7582,4.9194;}
	.st58{fill:none;stroke:#B5C0C0;stroke-width:2;stroke-linecap:round;stroke-linejoin:round;stroke-miterlimit:10;}
	.st59{fill:#0047BF;stroke:#B5C0C0;stroke-width:2;stroke-linecap:round;stroke-linejoin:round;stroke-miterlimit:10;}
	.st60{fill:#0047BF;stroke:#96D5CE;stroke-width:2;stroke-linecap:round;stroke-linejoin:round;stroke-miterlimit:10;}
	.st61{fill:#0047BF;stroke:#FFFFFF;stroke-width:2;stroke-linecap:round;stroke-linejoin:round;stroke-miterlimit:10;}
	.st62{fill:none;stroke:#FFFFFF;stroke-width:0.75;stroke-linecap:round;stroke-linejoin:round;stroke-miterlimit:10;}
	.st63{fill:none;stroke:#FF7E51;stroke-width:1.5;stroke-linecap:round;stroke-linejoin:round;stroke-miterlimit:10;}
	.st64{fill:#0B0069;stroke:#FFFFFF;stroke-width:1.5;stroke-linecap:round;stroke-linejoin:round;stroke-miterlimit:10;}
	.st65{fill:none;stroke:#FF804C;stroke-width:1.9599;stroke-linecap:round;stroke-linejoin:round;stroke-miterlimit:10;}
</style>
<rect x="-4.3" y="-4.3" class="st18" width="182.7" height="182.7"/>
<line class="st12" x1="85" y1="37.6" x2="85" y2="58.3"/>
<line class="st5" x1="72" y1="66.3" x2="72.8" y2="70.9"/>
<line class="st5" x1="78.5" y1="66.3" x2="79" y2="70.9"/>
<line class="st5" x1="98.2" y1="66.3" x2="97.5" y2="70.9"/>
<line class="st5" x1="91.8" y1="66.3" x2="91.2" y2="70.9"/>
<line class="st5" x1="75.2" y1="59.3" x2="75.9" y2="65.5"/>
<line class="st5" x1="94.8" y1="59.3" x2="94" y2="65.5"/>
<polyline class="st5" points="113.6,84.9 115.7,77.9 84.5,76.7 54.3,77.9 56.5,84.9 "/>
<line class="st5" x1="99.6" y1="58.3" x2="70.5" y2="58.3"/>
<line class="st12" x1="88.6" y1="52.5" x2="81.4" y2="52.5"/>
<line class="st12" x1="88.6" y1="47.5" x2="81.4" y2="47.5"/>
<line class="st12" x1="88.6" y1="42.5" x2="81.4" y2="42.5"/>
<line class="st5" x1="85.1" y1="66.3" x2="85.1" y2="71"/>
<line class="st5" x1="66.5" y1="71.4" x2="103.3" y2="71.4"/>
<path class="st8" d="M85,30.8c-2,0-3.6,1.6-3.6,3.6s1.6,3.6,3.6,3.6c2,0,3.6-1.6,3.6-3.6S87,30.8,85,30.8z M85,36.1
	c-1,0-1.8-0.8-1.8-1.8c0-1,0.8-1.8,1.8-1.8c1,0,1.8,0.8,1.8,1.8C86.8,35.3,86,36.1,85,36.1z"/>
<polyline class="st5" points="66.4,107.1 71.7,89.5 51.9,93.1 "/>
<polyline class="st5" points="59.9,108.8 64.2,96.5 52.4,98.7 "/>
<polyline class="st5" points="104.3,106.4 99.1,89.5 119,93.1 "/>
<polyline class="st5" points="110.3,106.7 106.6,96.5 117.8,98.6 "/>
<polyline class="st5" points="102.8,77.1 104.6,66 65.4,66 67.2,77.1 "/>
<line class="st5" x1="84.5" y1="83.2" x2="84.5" y2="107.1"/>
<polyline class="st5" points="115.1,109.3 120.9,86.2 84.5,82 49,86.2 54.1,106.7 "/>
<g>
	<path class="st6" d="M65.3,115.7l1.3,3.5c0.2,0.6,0.7,1,1.2,1.2l5,1.9c0.6,0.2,1,0.7,1.2,1.2l1.9,5c0.2,0.6,0.7,1,1.2,1.2l5,1.9
		c0.6,0.2,1,0.7,1.2,1.2l1.9,5c0.2,0.6,0.7,1,1.2,1.2l5,1.9c0.6,0.2,1,0.7,1.2,1.2l1.1,2.9"/>
	<line class="st6" x1="66.4" y1="120.3" x2="62.7" y2="124.1"/>
	<line class="st6" x1="76.2" y1="130" x2="72.4" y2="133.8"/>
	<line class="st6" x1="85.5" y1="139.4" x2="81.8" y2="143.2"/>
</g>
<g>
	<path class="st6" d="M81.7,115.7l1.3,3.5c0.2,0.6,0.7,1,1.2,1.2l5,1.9c0.6,0.2,1,0.7,1.2,1.2l1.9,5c0.2,0.6,0.7,1,1.2,1.2l5,1.9
		c0.6,0.2,1,0.7,1.2,1.2l1.9,5c0.2,0.6,0.7,1,1.2,1.2l5,1.9c0.6,0.2,1,0.7,1.2,1.2l1.1,2.9"/>
	<line class="st6" x1="82.9" y1="120.3" x2="79.1" y2="124.1"/>
	<line class="st6" x1="92.7" y1="130" x2="88.9" y2="133.8"/>
	<line class="st6" x1="102" y1="139.4" x2="98.2" y2="143.2"/>
</g>
<g>
	<path class="st6" d="M98.3,115.7l1.3,3.5c0.2,0.6,0.7,1,1.2,1.2l5,1.9c0.6,0.2,1,0.7,1.2,1.2l1.9,5c0.2,0.6,0.7,1,1.2,1.2l5,1.9
		c0.6,0.2,1,0.7,1.2,1.2l1.9,5c0.2,0.6,0.7,1,1.2,1.2l5,1.9c0.6,0.2,1,0.7,1.2,1.2l1.1,2.9"/>
	<line class="st6" x1="99.4" y1="120.3" x2="95.7" y2="124.1"/>
	<line class="st6" x1="109.2" y1="130" x2="105.4" y2="133.8"/>
	<line class="st6" x1="118.5" y1="139.4" x2="114.8" y2="143.2"/>
</g>
<g>
	<path class="st6" d="M58.4,125.1l1.4,3.8c0.1,0.3,0.3,0.5,0.6,0.6l5.9,2.2c0.3,0.1,0.5,0.3,0.6,0.6l2.2,5.9
		c0.1,0.3,0.3,0.5,0.6,0.6l5.9,2.2c0.3,0.1,0.5,0.3,0.6,0.6l1.2,3.3"/>
	<line class="st6" x1="59.9" y1="130" x2="56.1" y2="133.8"/>
	<line class="st6" x1="69.2" y1="139.4" x2="65.5" y2="143.2"/>
</g>
<g>
	<path class="st6" d="M51.4,134.2l1.5,4.1c0.1,0.3,0.3,0.5,0.6,0.6l5.9,2.2c0.3,0.1,0.5,0.3,0.6,0.6l1.3,3.6"/>
	<line class="st6" x1="53" y1="139.4" x2="49.2" y2="143.2"/>
</g>
<g>
	<path class="st11" d="M32.7,107.1c4.7,0,4.7,2.7,9.4,2.7c4.7,0,4.7-2.7,9.4-2.7c4.7,0,4.7,2.7,9.4,2.7c4.7,0,4.7-2.7,9.4-2.7
		c4.7,0,4.7,2.7,9.4,2.7c4.7,0,4.7-2.7,9.4-2.7c4.7,0,4.7,2.7,9.4,2.7c4.7,0,4.7-2.7,9.4-2.7c4.7,0,4.7,2.7,9.4,2.7
		c4.7,0,4.7-2.7,9.4-2.7c4.7,0,4.7,2.7,9.4,2.7"/>
</g>
<path class="st11" d="M32.6,118.6c4.7,0,4.7,2.7,9.4,2.7c4.7,0,4.7-2.7,9.4-2.7"/>
<path class="st11" d="M32.6,131.9c4.7,0,4.7,2.7,9.4,2.7"/>
<path class="st11" d="M116.3,121.3c4.7,0,4.7-2.7,9.4-2.7c4.7,0,4.7,2.7,9.4,2.7"/>
<path class="st11" d="M125.7,131.9c4.7,0,4.7,2.7,9.4,2.7"/>
</svg>
