<?xml version="1.0" encoding="utf-8"?>
<!-- Generator: Adobe Illustrator 26.0.1, SVG Export Plug-In . SVG Version: 6.00 Build 0)  -->
<svg version="1.1" id="Layer_1" xmlns="http://www.w3.org/2000/svg" xmlns:xlink="http://www.w3.org/1999/xlink" x="0px" y="0px"
	 viewBox="0 0 174 174" style="enable-background:new 0 0 174 174;" xml:space="preserve">
<style type="text/css">
	.st0{fill:#0047BF;}
	.st1{fill:#003FC1;}
	.st2{fill:#FFFFFF;}
	.st3{fill:none;stroke:#96D5CE;stroke-width:2;stroke-linecap:round;stroke-linejoin:round;stroke-miterlimit:10;}
	.st4{fill:none;stroke:#FF704C;stroke-width:2;stroke-linecap:round;stroke-linejoin:round;stroke-miterlimit:10;}
	.st5{fill:none;stroke:#FFFFFF;stroke-width:2;stroke-linecap:round;stroke-linejoin:round;stroke-miterlimit:10;}
	.st6{fill:none;stroke:#FF804C;stroke-width:2;stroke-linecap:round;stroke-linejoin:round;stroke-miterlimit:10;}
	.st7{fill:none;stroke:#0047BF;stroke-width:2;stroke-linecap:round;stroke-linejoin:round;stroke-miterlimit:10;}
	.st8{fill:#F1D439;}
	.st9{fill:#0047BF;stroke:#BEC8C8;stroke-width:2;stroke-linecap:round;stroke-linejoin:round;stroke-miterlimit:10;}
	.st10{fill:none;stroke:#FF7E51;stroke-width:2;stroke-linecap:round;stroke-linejoin:round;stroke-miterlimit:10;}
	.st11{fill:none;stroke:#A3D5D0;stroke-width:2;stroke-linecap:round;stroke-linejoin:round;stroke-miterlimit:10;}
	.st12{fill:none;stroke:#F1D439;stroke-width:2;stroke-linecap:round;stroke-linejoin:round;stroke-miterlimit:10;}
	.st13{fill:none;stroke:#E2E6E6;stroke-width:2;stroke-linecap:round;stroke-linejoin:round;stroke-miterlimit:10;}
	.st14{fill:#A3D5D0;}
	.st15{fill:#FF804C;}
	.st16{fill:none;stroke:#BEC8C8;stroke-width:2;stroke-linecap:round;stroke-linejoin:round;stroke-miterlimit:10;}
	.st17{fill:#0047BF;stroke:#0047BF;stroke-width:2;stroke-linecap:round;stroke-linejoin:round;stroke-miterlimit:10;}
	.st18{fill:#0041BD;}
	.st19{fill:#0041BD;stroke:#A3D5D0;stroke-width:2;stroke-linecap:round;stroke-linejoin:round;stroke-miterlimit:10;}
	.st20{fill:#0041BD;stroke:#FFFFFF;stroke-width:2;stroke-linecap:round;stroke-linejoin:round;stroke-miterlimit:10;}
	.st21{fill:#0041BD;stroke:#FF804C;stroke-width:2;stroke-linecap:round;stroke-linejoin:round;stroke-miterlimit:10;}
	.st22{fill:#0041BD;stroke:#F1D439;stroke-width:2;stroke-linecap:round;stroke-linejoin:round;stroke-miterlimit:10;}
	.st23{fill:#FF804C;stroke:#FF804C;stroke-width:2;stroke-linecap:round;stroke-linejoin:round;stroke-miterlimit:10;}
	.st24{fill:none;stroke:#FFFFFF;stroke-width:1.5;stroke-linecap:round;stroke-linejoin:round;stroke-miterlimit:10;}
	.st25{fill:#0041BD;stroke:#FF804C;stroke-width:1.5;stroke-linecap:round;stroke-linejoin:round;stroke-miterlimit:10;}
	.st26{fill:none;stroke:#FF704C;stroke-width:1.5;stroke-linecap:round;stroke-linejoin:round;stroke-miterlimit:10;}
	.st27{fill:none;stroke:#FF804C;stroke-width:1.5;stroke-linecap:round;stroke-linejoin:round;stroke-miterlimit:10;}
	.st28{fill:none;stroke:#A3D5D0;stroke-width:1.4377;stroke-linecap:round;stroke-linejoin:round;stroke-miterlimit:10;}
	.st29{fill:#0041BD;stroke:#A3D5D0;stroke-width:1.5;stroke-linecap:round;stroke-linejoin:round;stroke-miterlimit:10;}
	.st30{fill:#0041BD;stroke:#F1D439;stroke-width:1.5;stroke-linecap:round;stroke-linejoin:round;stroke-miterlimit:10;}
	.st31{fill:none;stroke:#F1D439;stroke-width:1.5;stroke-linecap:round;stroke-linejoin:round;stroke-miterlimit:10;}
	.st32{fill:none;stroke:#FFFFFF;stroke-width:2.5;stroke-linecap:round;stroke-linejoin:round;stroke-miterlimit:10;}
	.st33{fill:none;}
	.st34{fill:none;stroke:#A3D5D0;stroke-width:1.5;stroke-linecap:round;stroke-linejoin:round;stroke-miterlimit:10;}
	.st35{fill:none;stroke:#96D5CE;stroke-width:1.4377;stroke-linecap:round;stroke-linejoin:round;stroke-miterlimit:10;}
	.st36{fill:none;stroke:#0047BF;stroke-width:1.5;stroke-linecap:round;stroke-linejoin:round;stroke-miterlimit:10;}
	.st37{fill:#0047BF;stroke:#FF704C;stroke-width:2;stroke-linecap:round;stroke-linejoin:round;stroke-miterlimit:10;}
	.st38{fill:#0047BF;stroke:#FF804C;stroke-width:2;stroke-linecap:round;stroke-linejoin:round;stroke-miterlimit:10;}
	.st39{fill:#0047BF;stroke:#E2E6E6;stroke-width:2;stroke-linecap:round;stroke-linejoin:round;stroke-miterlimit:10;}
	.st40{fill:#0047BF;stroke:#A3D5D0;stroke-width:2;stroke-linecap:round;stroke-linejoin:round;stroke-miterlimit:10;}
	.st41{fill:#0047BF;stroke:#F1D439;stroke-width:2;stroke-linecap:round;stroke-linejoin:round;stroke-miterlimit:10;}
	.st42{fill:#0041BD;stroke:#E2E6E6;stroke-width:2;stroke-linecap:round;stroke-linejoin:round;stroke-miterlimit:10;}
	.st43{fill:#E2E6E6;}
	.st44{fill:none;stroke:#0047BF;stroke-width:1.4377;stroke-linecap:round;stroke-linejoin:round;stroke-miterlimit:10;}
	.st45{fill:#0047BF;stroke:#A3D5D0;stroke-width:1.5;stroke-linecap:round;stroke-linejoin:round;stroke-miterlimit:10;}
	.st46{fill:none;stroke:#E2E6E6;stroke-width:1.5;stroke-linecap:round;stroke-linejoin:round;stroke-miterlimit:10;}
	.st47{fill:#0047BF;stroke:#FF704C;stroke-width:1.5;stroke-linecap:round;stroke-linejoin:round;stroke-miterlimit:10;}
	.st48{fill:#0047BF;stroke:#FF804C;stroke-width:1.5;stroke-linecap:round;stroke-linejoin:round;stroke-miterlimit:10;}
	.st49{fill:#0047BF;stroke:#F1D439;stroke-width:1.5;stroke-linecap:round;stroke-linejoin:round;stroke-miterlimit:10;}
	.st50{fill:#0041BD;stroke:#0047BF;stroke-width:2;stroke-linecap:round;stroke-linejoin:round;stroke-miterlimit:10;}
	.st51{fill:#FF7E51;}
	.st52{fill:#96D5CE;}
	.st53{fill:#B5C0C0;}
	.st54{fill:#FFDD20;}
	
		.st55{fill:none;stroke:#FFFFFF;stroke-width:2;stroke-linecap:round;stroke-linejoin:round;stroke-miterlimit:10;stroke-dasharray:15,5;}
	.st56{opacity:0.74;fill:#0041BD;}
	.st57{fill:none;stroke:#FFFFFF;stroke-width:2;stroke-linecap:round;stroke-linejoin:round;stroke-dasharray:14.7582,4.9194;}
	.st58{fill:none;stroke:#B5C0C0;stroke-width:2;stroke-linecap:round;stroke-linejoin:round;stroke-miterlimit:10;}
	.st59{fill:#0047BF;stroke:#B5C0C0;stroke-width:2;stroke-linecap:round;stroke-linejoin:round;stroke-miterlimit:10;}
	.st60{fill:#0047BF;stroke:#96D5CE;stroke-width:2;stroke-linecap:round;stroke-linejoin:round;stroke-miterlimit:10;}
	.st61{fill:#0047BF;stroke:#FFFFFF;stroke-width:2;stroke-linecap:round;stroke-linejoin:round;stroke-miterlimit:10;}
	.st62{fill:none;stroke:#FFFFFF;stroke-width:0.75;stroke-linecap:round;stroke-linejoin:round;stroke-miterlimit:10;}
	.st63{fill:none;stroke:#FF7E51;stroke-width:1.5;stroke-linecap:round;stroke-linejoin:round;stroke-miterlimit:10;}
	.st64{fill:#0B0069;stroke:#FFFFFF;stroke-width:1.5;stroke-linecap:round;stroke-linejoin:round;stroke-miterlimit:10;}
	.st65{fill:none;stroke:#FF804C;stroke-width:1.9599;stroke-linecap:round;stroke-linejoin:round;stroke-miterlimit:10;}
</style>
<rect x="-4.3" y="-4.3" class="st18" width="182.7" height="182.7"/>
<g>
	<path class="st23" d="M66.6,91.1c0.5-1-0.2-3.5-0.2-3.5l3.8,3.5"/>
	<path class="st23" d="M62.5,91.5l-3.6-2c0,0,1.1,1.8,0.6,3.1"/>
	<path class="st23" d="M53.6,94.5c-0.9-1.3-3-2.2-5.6-2.2v0c1.6,0.6,2.5,2.2,2.5,3.5c0,1.3-0.9,2.9-2.5,3.5v0c2.2,0,4.5-0.6,6.1-2.7
		"/>
	<path class="st5" d="M73.2,92.1c2.8,0.7,5.3,1.6,5.3,1.7c0.1,0.1-2.4,2.3-2.4,2.3"/>
	<path class="st5" d="M76.8,95.6c0.5,0.2,1.9,0.6,1.9,0.7c0,0.2-2.7,1.4-3.2,1.5c-1.5,0.6-3.8,1.7-7.1,1.7c-4.4,0-11.7-2.6-14.3-3.6
		c-0.3-0.1-0.3-0.7,0-0.8c2.7-1,9.9-3.6,14.3-3.6c1.5,0,3.1,0.3,4.7,0.6"/>
</g>
<g>
	<path class="st23" d="M57.8,74.7c0.7-0.2,1.4-1.7,1.4-1.7l0.2,3.2"/>
	<path class="st23" d="M52.7,76.5c-0.2,0.7-1.9,1.5-1.9,1.5l3.6,0.6"/>
	<path class="st23" d="M55.8,73.2L55,70.9c0,0-0.2,1.3-1,1.6"/>
	<path class="st23" d="M50.6,70.8c0.1-0.9-0.5-2.2-1.6-3.3l0,0c0.5,1,0.2,2-0.3,2.6c-0.5,0.6-1.6,0.9-2.6,0.5l0,0
		c1,0.9,2.3,1.6,3.9,1.3"/>
	<path class="st5" d="M60.4,78c1,1.5,1.7,2.9,1.7,3c0,0.1-2,0-2,0"/>
	<path class="st5" d="M60.5,81.1c0.1,0.3,0.6,1,0.6,1.1c-0.1,0.1-1.8-0.5-2.1-0.6c-0.9-0.3-2.4-0.8-3.9-2.2c-2-1.8-4.2-6.1-5-7.6
		c-0.1-0.2,0.2-0.4,0.3-0.4c1.6,0.7,6,2.5,8,4.4c0.7,0.6,1.3,1.4,1.9,2.3"/>
</g>
<g>
	<path class="st23" d="M41.4,58.5c0.7-0.2,1.4-1.7,1.4-1.7L43,60"/>
	<path class="st23" d="M36.2,60.2c-0.2,0.7-1.9,1.5-1.9,1.5l3.6,0.6"/>
	<path class="st23" d="M39.4,57l-0.8-2.4c0,0-0.2,1.3-1,1.6"/>
	<path class="st23" d="M34.1,54.6c0.1-0.9-0.5-2.2-1.6-3.3l0,0c0.5,1,0.2,2-0.3,2.6c-0.5,0.6-1.6,0.9-2.6,0.5l0,0
		c1,0.9,2.3,1.6,3.9,1.3"/>
	<path class="st5" d="M43.9,61.7c1,1.5,1.7,2.9,1.7,3c0,0.1-2,0-2,0"/>
	<path class="st5" d="M44.1,64.8c0.1,0.3,0.6,1,0.6,1.1c-0.1,0.1-1.8-0.5-2.1-0.6c-0.9-0.3-2.4-0.8-3.9-2.2c-2-1.8-4.2-6.1-5-7.6
		c-0.1-0.2,0.2-0.4,0.3-0.4c1.6,0.7,6,2.5,8,4.4c0.7,0.6,1.3,1.4,1.9,2.3"/>
</g>
<line class="st5" x1="58.4" y1="65.1" x2="64" y2="70.6"/>
<line class="st5" x1="67.7" y1="74.4" x2="76.2" y2="82.8"/>
<line class="st5" x1="43.9" y1="78.3" x2="53" y2="87.4"/>
<line class="st5" x1="34.2" y1="68.5" x2="40" y2="74.3"/>
<g>
	<path class="st5" d="M120.3,66.8c-1.8,2.8-5,4.7-8.6,4.7c-3.7,0-7-2-8.7-5"/>
	<path class="st5" d="M134.1,89.1c0-2.9,0-3.7,0-3.8c0-3.1-0.7-6-2-8.7"/>
	<path class="st5" d="M132.1,76.6c-3.5-7.3-11.3-12.4-20.4-12.4c-12.3,0-22.3,9.5-22.3,21.1c0,0.1,0-0.7,0,3.8"/>
	<polyline class="st11" points="134.2,101.9 134.2,89.1 123,77.4 100.6,77.4 89.3,89.1 89.3,101.9 	"/>
	<line class="st11" x1="101.2" y1="64.7" x2="101.2" y2="76.9"/>
	<line class="st11" x1="122.5" y1="64.7" x2="122.5" y2="76.9"/>
	<line class="st11" x1="104.4" y1="86.4" x2="119.6" y2="86.4"/>
	<path class="st5" d="M121.2,44c0.7,1.5,1.2,3.2,1.2,5c0,6.2-5,11.3-11.3,11.3s-11.3-5-11.3-11.3c0-1.8,0.4-3.5,1.1-5"/>
	<path class="st11" d="M111.1,35.1c-5.6,0-10.4,3.7-12,8.8h24C121.5,38.8,116.7,35.1,111.1,35.1z"/>
	<polyline class="st11" points="104.8,37.4 111,43.3 117.5,37.1 	"/>
</g>
<path class="st5" d="M138.6,122H41.9c-5.5,0-10-4.5-10-10v0c0-5.5,4.5-10,10-10h96.8c5.5,0,10,4.5,10,10v0
	C148.7,117.5,144.2,122,138.6,122z"/>
<circle class="st12" cx="43.6" cy="111.9" r="3.2"/>
<circle class="st12" cx="57" cy="111.9" r="3.2"/>
<circle class="st12" cx="70.4" cy="111.9" r="3.2"/>
<circle class="st12" cx="83.8" cy="111.9" r="3.2"/>
<circle class="st12" cx="97.2" cy="111.9" r="3.2"/>
<circle class="st12" cx="110.6" cy="111.9" r="3.2"/>
<circle class="st12" cx="124" cy="111.9" r="3.2"/>
<circle class="st12" cx="137.4" cy="111.9" r="3.2"/>
<polyline class="st5" points="134.2,123 134.2,141.1 46.8,141.1 46.8,123 "/>
<line class="st5" x1="44" y1="50.7" x2="54.4" y2="61"/>
</svg>
