<?xml version="1.0" encoding="utf-8"?>
<!-- Generator: Adobe Illustrator 26.0.1, SVG Export Plug-In . SVG Version: 6.00 Build 0)  -->
<svg version="1.1" id="Layer_1" xmlns="http://www.w3.org/2000/svg" xmlns:xlink="http://www.w3.org/1999/xlink" x="0px" y="0px"
	 viewBox="0 0 174 174" style="enable-background:new 0 0 174 174;" xml:space="preserve">
<style type="text/css">
	.st0{fill:#0047BF;}
	.st1{fill:#003FC1;}
	.st2{fill:#FFFFFF;}
	.st3{fill:none;stroke:#96D5CE;stroke-width:2;stroke-linecap:round;stroke-linejoin:round;stroke-miterlimit:10;}
	.st4{fill:none;stroke:#FF704C;stroke-width:2;stroke-linecap:round;stroke-linejoin:round;stroke-miterlimit:10;}
	.st5{fill:none;stroke:#FFFFFF;stroke-width:2;stroke-linecap:round;stroke-linejoin:round;stroke-miterlimit:10;}
	.st6{fill:none;stroke:#FF804C;stroke-width:2;stroke-linecap:round;stroke-linejoin:round;stroke-miterlimit:10;}
	.st7{fill:none;stroke:#0047BF;stroke-width:2;stroke-linecap:round;stroke-linejoin:round;stroke-miterlimit:10;}
	.st8{fill:#F1D439;}
	.st9{fill:#0047BF;stroke:#BEC8C8;stroke-width:2;stroke-linecap:round;stroke-linejoin:round;stroke-miterlimit:10;}
	.st10{fill:none;stroke:#FF7E51;stroke-width:2;stroke-linecap:round;stroke-linejoin:round;stroke-miterlimit:10;}
	.st11{fill:none;stroke:#A3D5D0;stroke-width:2;stroke-linecap:round;stroke-linejoin:round;stroke-miterlimit:10;}
	.st12{fill:none;stroke:#F1D439;stroke-width:2;stroke-linecap:round;stroke-linejoin:round;stroke-miterlimit:10;}
	.st13{fill:none;stroke:#E2E6E6;stroke-width:2;stroke-linecap:round;stroke-linejoin:round;stroke-miterlimit:10;}
	.st14{fill:#A3D5D0;}
	.st15{fill:#FF804C;}
	.st16{fill:none;stroke:#BEC8C8;stroke-width:2;stroke-linecap:round;stroke-linejoin:round;stroke-miterlimit:10;}
	.st17{fill:#0047BF;stroke:#0047BF;stroke-width:2;stroke-linecap:round;stroke-linejoin:round;stroke-miterlimit:10;}
	.st18{fill:#0041BD;}
	.st19{fill:#0041BD;stroke:#A3D5D0;stroke-width:2;stroke-linecap:round;stroke-linejoin:round;stroke-miterlimit:10;}
	.st20{fill:#0041BD;stroke:#FFFFFF;stroke-width:2;stroke-linecap:round;stroke-linejoin:round;stroke-miterlimit:10;}
	.st21{fill:#0041BD;stroke:#FF804C;stroke-width:2;stroke-linecap:round;stroke-linejoin:round;stroke-miterlimit:10;}
	.st22{fill:#0041BD;stroke:#F1D439;stroke-width:2;stroke-linecap:round;stroke-linejoin:round;stroke-miterlimit:10;}
	.st23{fill:#FF804C;stroke:#FF804C;stroke-width:2;stroke-linecap:round;stroke-linejoin:round;stroke-miterlimit:10;}
	.st24{fill:none;stroke:#FFFFFF;stroke-width:1.5;stroke-linecap:round;stroke-linejoin:round;stroke-miterlimit:10;}
	.st25{fill:#0041BD;stroke:#FF804C;stroke-width:1.5;stroke-linecap:round;stroke-linejoin:round;stroke-miterlimit:10;}
	.st26{fill:none;stroke:#FF704C;stroke-width:1.5;stroke-linecap:round;stroke-linejoin:round;stroke-miterlimit:10;}
	.st27{fill:none;stroke:#FF804C;stroke-width:1.5;stroke-linecap:round;stroke-linejoin:round;stroke-miterlimit:10;}
	.st28{fill:none;stroke:#A3D5D0;stroke-width:1.4377;stroke-linecap:round;stroke-linejoin:round;stroke-miterlimit:10;}
	.st29{fill:#0041BD;stroke:#A3D5D0;stroke-width:1.5;stroke-linecap:round;stroke-linejoin:round;stroke-miterlimit:10;}
	.st30{fill:#0041BD;stroke:#F1D439;stroke-width:1.5;stroke-linecap:round;stroke-linejoin:round;stroke-miterlimit:10;}
	.st31{fill:none;stroke:#F1D439;stroke-width:1.5;stroke-linecap:round;stroke-linejoin:round;stroke-miterlimit:10;}
	.st32{fill:none;stroke:#FFFFFF;stroke-width:2.5;stroke-linecap:round;stroke-linejoin:round;stroke-miterlimit:10;}
	.st33{fill:none;}
	.st34{fill:none;stroke:#A3D5D0;stroke-width:1.5;stroke-linecap:round;stroke-linejoin:round;stroke-miterlimit:10;}
	.st35{fill:none;stroke:#96D5CE;stroke-width:1.4377;stroke-linecap:round;stroke-linejoin:round;stroke-miterlimit:10;}
	.st36{fill:none;stroke:#0047BF;stroke-width:1.5;stroke-linecap:round;stroke-linejoin:round;stroke-miterlimit:10;}
	.st37{fill:#0047BF;stroke:#FF704C;stroke-width:2;stroke-linecap:round;stroke-linejoin:round;stroke-miterlimit:10;}
	.st38{fill:#0047BF;stroke:#FF804C;stroke-width:2;stroke-linecap:round;stroke-linejoin:round;stroke-miterlimit:10;}
	.st39{fill:#0047BF;stroke:#E2E6E6;stroke-width:2;stroke-linecap:round;stroke-linejoin:round;stroke-miterlimit:10;}
	.st40{fill:#0047BF;stroke:#A3D5D0;stroke-width:2;stroke-linecap:round;stroke-linejoin:round;stroke-miterlimit:10;}
	.st41{fill:#0047BF;stroke:#F1D439;stroke-width:2;stroke-linecap:round;stroke-linejoin:round;stroke-miterlimit:10;}
	.st42{fill:#0041BD;stroke:#E2E6E6;stroke-width:2;stroke-linecap:round;stroke-linejoin:round;stroke-miterlimit:10;}
	.st43{fill:#E2E6E6;}
	.st44{fill:none;stroke:#0047BF;stroke-width:1.4377;stroke-linecap:round;stroke-linejoin:round;stroke-miterlimit:10;}
	.st45{fill:#0047BF;stroke:#A3D5D0;stroke-width:1.5;stroke-linecap:round;stroke-linejoin:round;stroke-miterlimit:10;}
	.st46{fill:none;stroke:#E2E6E6;stroke-width:1.5;stroke-linecap:round;stroke-linejoin:round;stroke-miterlimit:10;}
	.st47{fill:#0047BF;stroke:#FF704C;stroke-width:1.5;stroke-linecap:round;stroke-linejoin:round;stroke-miterlimit:10;}
	.st48{fill:#0047BF;stroke:#FF804C;stroke-width:1.5;stroke-linecap:round;stroke-linejoin:round;stroke-miterlimit:10;}
	.st49{fill:#0047BF;stroke:#F1D439;stroke-width:1.5;stroke-linecap:round;stroke-linejoin:round;stroke-miterlimit:10;}
	.st50{fill:#0041BD;stroke:#0047BF;stroke-width:2;stroke-linecap:round;stroke-linejoin:round;stroke-miterlimit:10;}
	.st51{fill:#FF7E51;}
	.st52{fill:#96D5CE;}
	.st53{fill:#B5C0C0;}
	.st54{fill:#FFDD20;}
	
		.st55{fill:none;stroke:#FFFFFF;stroke-width:2;stroke-linecap:round;stroke-linejoin:round;stroke-miterlimit:10;stroke-dasharray:15,5;}
	.st56{opacity:0.74;fill:#0041BD;}
	.st57{fill:none;stroke:#FFFFFF;stroke-width:2;stroke-linecap:round;stroke-linejoin:round;stroke-dasharray:14.7582,4.9194;}
	.st58{fill:none;stroke:#B5C0C0;stroke-width:2;stroke-linecap:round;stroke-linejoin:round;stroke-miterlimit:10;}
	.st59{fill:#0047BF;stroke:#B5C0C0;stroke-width:2;stroke-linecap:round;stroke-linejoin:round;stroke-miterlimit:10;}
	.st60{fill:#0047BF;stroke:#96D5CE;stroke-width:2;stroke-linecap:round;stroke-linejoin:round;stroke-miterlimit:10;}
	.st61{fill:#0047BF;stroke:#FFFFFF;stroke-width:2;stroke-linecap:round;stroke-linejoin:round;stroke-miterlimit:10;}
	.st62{fill:none;stroke:#FFFFFF;stroke-width:0.75;stroke-linecap:round;stroke-linejoin:round;stroke-miterlimit:10;}
	.st63{fill:none;stroke:#FF7E51;stroke-width:1.5;stroke-linecap:round;stroke-linejoin:round;stroke-miterlimit:10;}
	.st64{fill:#0B0069;stroke:#FFFFFF;stroke-width:1.5;stroke-linecap:round;stroke-linejoin:round;stroke-miterlimit:10;}
	.st65{fill:none;stroke:#FF804C;stroke-width:1.9599;stroke-linecap:round;stroke-linejoin:round;stroke-miterlimit:10;}
</style>
<rect x="-4.3" y="-4.3" class="st18" width="182.7" height="182.7"/>
<path class="st5" d="M36.9,120.1V91.2c0,0,4.6-2.3,14.3-2.3s14.3,2.3,14.3,2.3"/>
<path class="st5" d="M36.9,91.2v-5.4c0,0,4.6-2.3,14.3-2.3s14.3,2.3,14.3,2.3v5.4"/>
<line class="st5" x1="42.6" y1="84.7" x2="42.6" y2="88.7"/>
<line class="st5" x1="60.1" y1="84.3" x2="60.1" y2="89.4"/>
<line class="st5" x1="54.3" y1="83.8" x2="54.3" y2="87.9"/>
<line class="st5" x1="48.4" y1="84.2" x2="48.4" y2="88.1"/>
<path class="st5" d="M107.2,91.2c0,0,4.6-2.3,14.3-2.3s14.3,2.3,14.3,2.3v28.9"/>
<path class="st5" d="M107.2,91.2v-5.4c0,0,4.6-2.3,14.3-2.3s14.3,2.3,14.3,2.3v5.4"/>
<line class="st5" x1="112.9" y1="84.7" x2="112.9" y2="88.7"/>
<line class="st5" x1="130.5" y1="84.3" x2="130.5" y2="89.4"/>
<line class="st5" x1="124.6" y1="83.8" x2="124.6" y2="87.9"/>
<line class="st5" x1="118.7" y1="84.2" x2="118.7" y2="88.1"/>
<path class="st5" d="M65.7,119.7V81.9c0,0,6.6-3.3,20.6-3.3s20.6,3.3,20.6,3.3v38.3"/>
<path class="st5" d="M65.7,83.3v-7.7c0,0,6.6-3.3,20.6-3.3s20.6,3.3,20.6,3.3v7.7"/>
<line class="st5" x1="71.6" y1="74.9" x2="71.6" y2="79.6"/>
<line class="st5" x1="101" y1="74.9" x2="101" y2="79.9"/>
<line class="st5" x1="95.1" y1="73.7" x2="95.1" y2="79.1"/>
<line class="st5" x1="89.3" y1="73.6" x2="89.3" y2="78.6"/>
<line class="st5" x1="83.4" y1="73.6" x2="83.4" y2="78.6"/>
<line class="st5" x1="77.5" y1="74.2" x2="77.5" y2="78.8"/>
<line class="st5" x1="28.5" y1="120.4" x2="143.9" y2="120.4"/>
<line class="st5" x1="76.1" y1="127.6" x2="125.1" y2="127.6"/>
<line class="st5" x1="44.1" y1="134.3" x2="106" y2="134.3"/>
<line class="st5" x1="79.1" y1="141.1" x2="111.2" y2="141.1"/>
<line class="st11" x1="30.5" y1="63.4" x2="60.3" y2="63.4"/>
<line class="st11" x1="122.1" y1="63.4" x2="139.6" y2="63.4"/>
<line class="st11" x1="38.8" y1="55.8" x2="47" y2="55.8"/>
<line class="st11" x1="124.8" y1="55.8" x2="132.9" y2="55.8"/>
<line class="st11" x1="41.8" y1="71" x2="51.9" y2="71"/>
<line class="st11" x1="113.2" y1="71" x2="123.4" y2="71"/>
<path class="st8" d="M55.4,34.2c-4.2,0-7.5,3.4-7.5,7.5s3.4,7.5,7.5,7.5c4.2,0,7.5-3.4,7.5-7.5S59.6,34.2,55.4,34.2z M55.4,45.4
	c-2,0-3.7-1.7-3.7-3.7c0-2,1.7-3.7,3.7-3.7c2,0,3.7,1.7,3.7,3.7C59.1,43.7,57.5,45.4,55.4,45.4z"/>
<path class="st11" d="M72.9,48.8c0.2,0,0.5-0.4,0.4-0.6c-0.3-0.9-0.4-1.8-0.4-2.7c0-5.1,4.2-9.3,9.3-9.3c5.1,0,9.3,4.2,9.3,9.3
	c0,0.4,0.5,0.8,0.8,0.5c1.6-1.3,3.6-2.1,5.8-2.1c3.7,0,6.8,2.1,8.4,5.2h0.2c0.7-0.3,1.6-0.4,2.4-0.4c3.8,0,6.9,3.1,6.9,6.9
	c0,3.8-3.1,6.9-6.9,6.9c-0.2,0-35.9,0-36.1,0c-3.8,0-6.9-3.1-6.9-6.9C66,51.9,69.1,48.8,72.9,48.8z"/>
</svg>
