<?xml version="1.0" encoding="utf-8"?>
<!-- Generator: Adobe Illustrator 26.0.1, SVG Export Plug-In . SVG Version: 6.00 Build 0)  -->
<svg version="1.1" id="Layer_1" xmlns="http://www.w3.org/2000/svg" xmlns:xlink="http://www.w3.org/1999/xlink" x="0px" y="0px"
	 viewBox="0 0 174 174" style="enable-background:new 0 0 174 174;" xml:space="preserve">
<style type="text/css">
	.st0{fill:#0047BF;}
	.st1{fill:#003FC1;}
	.st2{fill:#FFFFFF;}
	.st3{fill:none;stroke:#96D5CE;stroke-width:2;stroke-linecap:round;stroke-linejoin:round;stroke-miterlimit:10;}
	.st4{fill:none;stroke:#FF704C;stroke-width:2;stroke-linecap:round;stroke-linejoin:round;stroke-miterlimit:10;}
	.st5{fill:none;stroke:#FFFFFF;stroke-width:2;stroke-linecap:round;stroke-linejoin:round;stroke-miterlimit:10;}
	.st6{fill:none;stroke:#FF804C;stroke-width:2;stroke-linecap:round;stroke-linejoin:round;stroke-miterlimit:10;}
	.st7{fill:none;stroke:#0047BF;stroke-width:2;stroke-linecap:round;stroke-linejoin:round;stroke-miterlimit:10;}
	.st8{fill:#F1D439;}
	.st9{fill:#0047BF;stroke:#BEC8C8;stroke-width:2;stroke-linecap:round;stroke-linejoin:round;stroke-miterlimit:10;}
	.st10{fill:none;stroke:#FF7E51;stroke-width:2;stroke-linecap:round;stroke-linejoin:round;stroke-miterlimit:10;}
	.st11{fill:none;stroke:#A3D5D0;stroke-width:2;stroke-linecap:round;stroke-linejoin:round;stroke-miterlimit:10;}
	.st12{fill:none;stroke:#F1D439;stroke-width:2;stroke-linecap:round;stroke-linejoin:round;stroke-miterlimit:10;}
	.st13{fill:none;stroke:#E2E6E6;stroke-width:2;stroke-linecap:round;stroke-linejoin:round;stroke-miterlimit:10;}
	.st14{fill:#A3D5D0;}
	.st15{fill:#FF804C;}
	.st16{fill:none;stroke:#BEC8C8;stroke-width:2;stroke-linecap:round;stroke-linejoin:round;stroke-miterlimit:10;}
	.st17{fill:#0047BF;stroke:#0047BF;stroke-width:2;stroke-linecap:round;stroke-linejoin:round;stroke-miterlimit:10;}
	.st18{fill:#0041BD;}
	.st19{fill:#0041BD;stroke:#A3D5D0;stroke-width:2;stroke-linecap:round;stroke-linejoin:round;stroke-miterlimit:10;}
	.st20{fill:#0041BD;stroke:#FFFFFF;stroke-width:2;stroke-linecap:round;stroke-linejoin:round;stroke-miterlimit:10;}
	.st21{fill:#0041BD;stroke:#FF804C;stroke-width:2;stroke-linecap:round;stroke-linejoin:round;stroke-miterlimit:10;}
	.st22{fill:#0041BD;stroke:#F1D439;stroke-width:2;stroke-linecap:round;stroke-linejoin:round;stroke-miterlimit:10;}
	.st23{fill:#FF804C;stroke:#FF804C;stroke-width:2;stroke-linecap:round;stroke-linejoin:round;stroke-miterlimit:10;}
	.st24{fill:none;stroke:#FFFFFF;stroke-width:1.5;stroke-linecap:round;stroke-linejoin:round;stroke-miterlimit:10;}
	.st25{fill:#0041BD;stroke:#FF804C;stroke-width:1.5;stroke-linecap:round;stroke-linejoin:round;stroke-miterlimit:10;}
	.st26{fill:none;stroke:#FF704C;stroke-width:1.5;stroke-linecap:round;stroke-linejoin:round;stroke-miterlimit:10;}
	.st27{fill:none;stroke:#FF804C;stroke-width:1.5;stroke-linecap:round;stroke-linejoin:round;stroke-miterlimit:10;}
	.st28{fill:none;stroke:#A3D5D0;stroke-width:1.4377;stroke-linecap:round;stroke-linejoin:round;stroke-miterlimit:10;}
	.st29{fill:#0041BD;stroke:#A3D5D0;stroke-width:1.5;stroke-linecap:round;stroke-linejoin:round;stroke-miterlimit:10;}
	.st30{fill:#0041BD;stroke:#F1D439;stroke-width:1.5;stroke-linecap:round;stroke-linejoin:round;stroke-miterlimit:10;}
	.st31{fill:none;stroke:#F1D439;stroke-width:1.5;stroke-linecap:round;stroke-linejoin:round;stroke-miterlimit:10;}
	.st32{fill:none;stroke:#FFFFFF;stroke-width:2.5;stroke-linecap:round;stroke-linejoin:round;stroke-miterlimit:10;}
	.st33{fill:none;}
	.st34{fill:none;stroke:#A3D5D0;stroke-width:1.5;stroke-linecap:round;stroke-linejoin:round;stroke-miterlimit:10;}
	.st35{fill:none;stroke:#96D5CE;stroke-width:1.4377;stroke-linecap:round;stroke-linejoin:round;stroke-miterlimit:10;}
	.st36{fill:none;stroke:#0047BF;stroke-width:1.5;stroke-linecap:round;stroke-linejoin:round;stroke-miterlimit:10;}
	.st37{fill:#0047BF;stroke:#FF704C;stroke-width:2;stroke-linecap:round;stroke-linejoin:round;stroke-miterlimit:10;}
	.st38{fill:#0047BF;stroke:#FF804C;stroke-width:2;stroke-linecap:round;stroke-linejoin:round;stroke-miterlimit:10;}
	.st39{fill:#0047BF;stroke:#E2E6E6;stroke-width:2;stroke-linecap:round;stroke-linejoin:round;stroke-miterlimit:10;}
	.st40{fill:#0047BF;stroke:#A3D5D0;stroke-width:2;stroke-linecap:round;stroke-linejoin:round;stroke-miterlimit:10;}
	.st41{fill:#0047BF;stroke:#F1D439;stroke-width:2;stroke-linecap:round;stroke-linejoin:round;stroke-miterlimit:10;}
	.st42{fill:#0041BD;stroke:#E2E6E6;stroke-width:2;stroke-linecap:round;stroke-linejoin:round;stroke-miterlimit:10;}
	.st43{fill:#E2E6E6;}
	.st44{fill:none;stroke:#0047BF;stroke-width:1.4377;stroke-linecap:round;stroke-linejoin:round;stroke-miterlimit:10;}
	.st45{fill:#0047BF;stroke:#A3D5D0;stroke-width:1.5;stroke-linecap:round;stroke-linejoin:round;stroke-miterlimit:10;}
	.st46{fill:none;stroke:#E2E6E6;stroke-width:1.5;stroke-linecap:round;stroke-linejoin:round;stroke-miterlimit:10;}
	.st47{fill:#0047BF;stroke:#FF704C;stroke-width:1.5;stroke-linecap:round;stroke-linejoin:round;stroke-miterlimit:10;}
	.st48{fill:#0047BF;stroke:#FF804C;stroke-width:1.5;stroke-linecap:round;stroke-linejoin:round;stroke-miterlimit:10;}
	.st49{fill:#0047BF;stroke:#F1D439;stroke-width:1.5;stroke-linecap:round;stroke-linejoin:round;stroke-miterlimit:10;}
	.st50{fill:#0041BD;stroke:#0047BF;stroke-width:2;stroke-linecap:round;stroke-linejoin:round;stroke-miterlimit:10;}
	.st51{fill:#FF7E51;}
	.st52{fill:#96D5CE;}
	.st53{fill:#B5C0C0;}
	.st54{fill:#FFDD20;}
	
		.st55{fill:none;stroke:#FFFFFF;stroke-width:2;stroke-linecap:round;stroke-linejoin:round;stroke-miterlimit:10;stroke-dasharray:15,5;}
	.st56{opacity:0.74;fill:#0041BD;}
	.st57{fill:none;stroke:#FFFFFF;stroke-width:2;stroke-linecap:round;stroke-linejoin:round;stroke-dasharray:14.7582,4.9194;}
	.st58{fill:none;stroke:#B5C0C0;stroke-width:2;stroke-linecap:round;stroke-linejoin:round;stroke-miterlimit:10;}
	.st59{fill:#0047BF;stroke:#B5C0C0;stroke-width:2;stroke-linecap:round;stroke-linejoin:round;stroke-miterlimit:10;}
	.st60{fill:#0047BF;stroke:#96D5CE;stroke-width:2;stroke-linecap:round;stroke-linejoin:round;stroke-miterlimit:10;}
	.st61{fill:#0047BF;stroke:#FFFFFF;stroke-width:2;stroke-linecap:round;stroke-linejoin:round;stroke-miterlimit:10;}
	.st62{fill:none;stroke:#FFFFFF;stroke-width:0.75;stroke-linecap:round;stroke-linejoin:round;stroke-miterlimit:10;}
	.st63{fill:none;stroke:#FF7E51;stroke-width:1.5;stroke-linecap:round;stroke-linejoin:round;stroke-miterlimit:10;}
	.st64{fill:#0B0069;stroke:#FFFFFF;stroke-width:1.5;stroke-linecap:round;stroke-linejoin:round;stroke-miterlimit:10;}
	.st65{fill:none;stroke:#FF804C;stroke-width:1.9599;stroke-linecap:round;stroke-linejoin:round;stroke-miterlimit:10;}
</style>
<rect x="-4.3" y="-4.3" class="st18" width="182.7" height="182.7"/>
<path class="st12" d="M31.9,118.7c0,0,0,16.3,0,16.6h30.1"/>
<line class="st12" x1="49.2" y1="135.1" x2="49.2" y2="118.7"/>
<line class="st6" x1="116.6" y1="96.8" x2="126.3" y2="96.8"/>
<line class="st6" x1="121.1" y1="134.8" x2="121.1" y2="121.5"/>
<path class="st5" d="M93.4,67.2c-1.8,2.8-5,4.7-8.6,4.7c-3.7,0-7-2-8.7-5"/>
<path class="st5" d="M107.2,82.7c3.4-3.7,8.5-6,14.3-6c10.3,0,18.7,7.6,18.7,17v6"/>
<path class="st6" d="M107.8,135.4l32.4,0c0,0,0-32.6,0-36.3"/>
<polyline class="st6" points="107.6,92.2 112.2,88.3 130.3,88.3 140.2,99.2 "/>
<path class="st5" d="M107.2,89.5c0-2.9,0-3.7,0-3.8c0-3.1-0.7-6-2-8.7"/>
<path class="st5" d="M105.3,77c-3.5-7.3-11.3-12.4-20.4-12.4c-12.3,0-22.3,9.5-22.3,21.2c0,0.1,0-0.8,0,3.7"/>
<line class="st6" x1="112.9" y1="77.3" x2="112.9" y2="88.3"/>
<line class="st6" x1="129.9" y1="77.3" x2="129.9" y2="87.9"/>
<path class="st5" d="M62.7,82.7c-3.4-3.7-8.5-6-14.3-6c-10.3,0-18.7,7.6-18.7,17v3.5l0,0c0,3.3,0,21.2,0,21.5h32.4"/>
<path class="st6" d="M121.1,50.4c-4.5,0-8.4,2.7-9.7,6.5h19.4C129.5,53.2,125.6,50.4,121.1,50.4z"/>
<polyline class="st5" points="54.5,98.5 41.7,88 42.7,83.3 40,79.6 "/>
<polygon class="st11" points="96.1,77.8 73.7,77.8 62.6,89.5 62.6,140 107.2,140 107.2,89.5 "/>
<line class="st11" x1="74.3" y1="65.1" x2="74.3" y2="77.7"/>
<line class="st11" x1="95.7" y1="65.1" x2="95.7" y2="77.7"/>
<line class="st11" x1="77.5" y1="86.8" x2="92.7" y2="86.8"/>
<line class="st5" x1="54.5" y1="98.5" x2="54.5" y2="117.9"/>
<path class="st12" d="M38.8,66.6h-2.6c-0.3-1.2-0.5-2.4-0.5-3.7c0-7.2,5.8-13,13-13s13,5.8,13,13c0,1.2-0.2,2.4-0.5,3.6h-2.6"/>
<path class="st5" d="M56.4,58.5c0.8,1.4,1.3,3,1.3,4.7c0,5-4,9-9,9s-9-4-9-9c0-1.8,0.5-3.5,1.5-4.9"/>
<path class="st5" d="M130.2,61c0.2,0.7,0.3,1.4,0.3,2.2c0,5-4,9-9,9c-5,0-9-4-9-9c0-0.7,0.1-1.4,0.2-2"/>
<path class="st5" d="M94.3,43.8c0.7,1.5,1.2,3.2,1.2,5c0,6.2-5,11.3-11.3,11.3c-6.2,0-11.3-5-11.3-11.3c0-1.8,0.4-3.5,1.1-5"/>
<line class="st12" x1="38.3" y1="57.3" x2="60.2" y2="57.3"/>
<polyline class="st5" points="50.2,93.7 55.8,88 54.7,83.3 56.9,80.3 "/>
<line class="st5" x1="45" y1="77.6" x2="48.7" y2="85.3"/>
<line class="st5" x1="52.5" y1="77.6" x2="48.9" y2="85.3"/>
<line class="st6" x1="130.2" y1="60.9" x2="131.5" y2="60.9"/>
<line class="st6" x1="110.6" y1="60.9" x2="130.2" y2="60.9"/>
<path class="st11" d="M84.2,34.1c-5.7,0-10.5,3.7-12.1,8.9h24.3C94.7,37.8,89.9,34.1,84.2,34.1z"/>
<polyline class="st11" points="77.9,36.5 84.1,42.4 90.7,36.1 "/>
<path class="st8" d="M47.9,98.7c-1.5-0.5-3.1,0.2-3.7,1.7c-0.5,1.5,0.2,3.1,1.7,3.7c1.5,0.5,3.1-0.2,3.7-1.7
	C50.2,100.9,49.4,99.3,47.9,98.7z M46.5,102.7c-0.7-0.3-1.1-1.1-0.8-1.8c0.3-0.7,1.1-1.1,1.8-0.8c0.7,0.3,1.1,1.1,0.8,1.8
	C48,102.6,47.2,103,46.5,102.7z"/>
<path class="st8" d="M47.9,107c-1.5-0.5-3.1,0.2-3.7,1.7c-0.5,1.5,0.2,3.1,1.7,3.7c1.5,0.5,3.1-0.2,3.7-1.7
	C50.2,109.2,49.4,107.6,47.9,107z M46.5,111c-0.7-0.3-1.1-1.1-0.8-1.8c0.3-0.7,1.1-1.1,1.8-0.8c0.7,0.3,1.1,1.1,0.8,1.8
	C48,110.9,47.2,111.3,46.5,111z"/>
<line class="st11" x1="84.9" y1="139.6" x2="84.9" y2="116.3"/>
</svg>
