<?xml version="1.0" encoding="utf-8"?>
<!-- Generator: Adobe Illustrator 26.0.1, SVG Export Plug-In . SVG Version: 6.00 Build 0)  -->
<svg version="1.1" id="Layer_1" xmlns="http://www.w3.org/2000/svg" xmlns:xlink="http://www.w3.org/1999/xlink" x="0px" y="0px"
	 viewBox="0 0 174 174" style="enable-background:new 0 0 174 174;" xml:space="preserve">
<style type="text/css">
	.st0{fill:#0047BF;}
	.st1{fill:#003FC1;}
	.st2{fill:#FFFFFF;}
	.st3{fill:none;stroke:#96D5CE;stroke-width:2;stroke-linecap:round;stroke-linejoin:round;stroke-miterlimit:10;}
	.st4{fill:none;stroke:#FF704C;stroke-width:2;stroke-linecap:round;stroke-linejoin:round;stroke-miterlimit:10;}
	.st5{fill:none;stroke:#FFFFFF;stroke-width:2;stroke-linecap:round;stroke-linejoin:round;stroke-miterlimit:10;}
	.st6{fill:none;stroke:#FF804C;stroke-width:2;stroke-linecap:round;stroke-linejoin:round;stroke-miterlimit:10;}
	.st7{fill:none;stroke:#0047BF;stroke-width:2;stroke-linecap:round;stroke-linejoin:round;stroke-miterlimit:10;}
	.st8{fill:#F1D439;}
	.st9{fill:#0047BF;stroke:#BEC8C8;stroke-width:2;stroke-linecap:round;stroke-linejoin:round;stroke-miterlimit:10;}
	.st10{fill:none;stroke:#FF7E51;stroke-width:2;stroke-linecap:round;stroke-linejoin:round;stroke-miterlimit:10;}
	.st11{fill:none;stroke:#A3D5D0;stroke-width:2;stroke-linecap:round;stroke-linejoin:round;stroke-miterlimit:10;}
	.st12{fill:none;stroke:#F1D439;stroke-width:2;stroke-linecap:round;stroke-linejoin:round;stroke-miterlimit:10;}
	.st13{fill:none;stroke:#E2E6E6;stroke-width:2;stroke-linecap:round;stroke-linejoin:round;stroke-miterlimit:10;}
	.st14{fill:#A3D5D0;}
	.st15{fill:#FF804C;}
	.st16{fill:none;stroke:#BEC8C8;stroke-width:2;stroke-linecap:round;stroke-linejoin:round;stroke-miterlimit:10;}
	.st17{fill:#0047BF;stroke:#0047BF;stroke-width:2;stroke-linecap:round;stroke-linejoin:round;stroke-miterlimit:10;}
	.st18{fill:#0041BD;}
	.st19{fill:#0041BD;stroke:#A3D5D0;stroke-width:2;stroke-linecap:round;stroke-linejoin:round;stroke-miterlimit:10;}
	.st20{fill:#0041BD;stroke:#FFFFFF;stroke-width:2;stroke-linecap:round;stroke-linejoin:round;stroke-miterlimit:10;}
	.st21{fill:#0041BD;stroke:#FF804C;stroke-width:2;stroke-linecap:round;stroke-linejoin:round;stroke-miterlimit:10;}
	.st22{fill:#0041BD;stroke:#F1D439;stroke-width:2;stroke-linecap:round;stroke-linejoin:round;stroke-miterlimit:10;}
	.st23{fill:#FF804C;stroke:#FF804C;stroke-width:2;stroke-linecap:round;stroke-linejoin:round;stroke-miterlimit:10;}
	.st24{fill:none;stroke:#FFFFFF;stroke-width:1.5;stroke-linecap:round;stroke-linejoin:round;stroke-miterlimit:10;}
	.st25{fill:#0041BD;stroke:#FF804C;stroke-width:1.5;stroke-linecap:round;stroke-linejoin:round;stroke-miterlimit:10;}
	.st26{fill:none;stroke:#FF704C;stroke-width:1.5;stroke-linecap:round;stroke-linejoin:round;stroke-miterlimit:10;}
	.st27{fill:none;stroke:#FF804C;stroke-width:1.5;stroke-linecap:round;stroke-linejoin:round;stroke-miterlimit:10;}
	.st28{fill:none;stroke:#A3D5D0;stroke-width:1.4377;stroke-linecap:round;stroke-linejoin:round;stroke-miterlimit:10;}
	.st29{fill:#0041BD;stroke:#A3D5D0;stroke-width:1.5;stroke-linecap:round;stroke-linejoin:round;stroke-miterlimit:10;}
	.st30{fill:#0041BD;stroke:#F1D439;stroke-width:1.5;stroke-linecap:round;stroke-linejoin:round;stroke-miterlimit:10;}
	.st31{fill:none;stroke:#F1D439;stroke-width:1.5;stroke-linecap:round;stroke-linejoin:round;stroke-miterlimit:10;}
	.st32{fill:none;stroke:#FFFFFF;stroke-width:2.5;stroke-linecap:round;stroke-linejoin:round;stroke-miterlimit:10;}
	.st33{fill:none;}
	.st34{fill:none;stroke:#A3D5D0;stroke-width:1.5;stroke-linecap:round;stroke-linejoin:round;stroke-miterlimit:10;}
	.st35{fill:none;stroke:#96D5CE;stroke-width:1.4377;stroke-linecap:round;stroke-linejoin:round;stroke-miterlimit:10;}
	.st36{fill:none;stroke:#0047BF;stroke-width:1.5;stroke-linecap:round;stroke-linejoin:round;stroke-miterlimit:10;}
	.st37{fill:#0047BF;stroke:#FF704C;stroke-width:2;stroke-linecap:round;stroke-linejoin:round;stroke-miterlimit:10;}
	.st38{fill:#0047BF;stroke:#FF804C;stroke-width:2;stroke-linecap:round;stroke-linejoin:round;stroke-miterlimit:10;}
	.st39{fill:#0047BF;stroke:#E2E6E6;stroke-width:2;stroke-linecap:round;stroke-linejoin:round;stroke-miterlimit:10;}
	.st40{fill:#0047BF;stroke:#A3D5D0;stroke-width:2;stroke-linecap:round;stroke-linejoin:round;stroke-miterlimit:10;}
	.st41{fill:#0047BF;stroke:#F1D439;stroke-width:2;stroke-linecap:round;stroke-linejoin:round;stroke-miterlimit:10;}
	.st42{fill:#0041BD;stroke:#E2E6E6;stroke-width:2;stroke-linecap:round;stroke-linejoin:round;stroke-miterlimit:10;}
	.st43{fill:#E2E6E6;}
	.st44{fill:none;stroke:#0047BF;stroke-width:1.4377;stroke-linecap:round;stroke-linejoin:round;stroke-miterlimit:10;}
	.st45{fill:#0047BF;stroke:#A3D5D0;stroke-width:1.5;stroke-linecap:round;stroke-linejoin:round;stroke-miterlimit:10;}
	.st46{fill:none;stroke:#E2E6E6;stroke-width:1.5;stroke-linecap:round;stroke-linejoin:round;stroke-miterlimit:10;}
	.st47{fill:#0047BF;stroke:#FF704C;stroke-width:1.5;stroke-linecap:round;stroke-linejoin:round;stroke-miterlimit:10;}
	.st48{fill:#0047BF;stroke:#FF804C;stroke-width:1.5;stroke-linecap:round;stroke-linejoin:round;stroke-miterlimit:10;}
	.st49{fill:#0047BF;stroke:#F1D439;stroke-width:1.5;stroke-linecap:round;stroke-linejoin:round;stroke-miterlimit:10;}
	.st50{fill:#0041BD;stroke:#0047BF;stroke-width:2;stroke-linecap:round;stroke-linejoin:round;stroke-miterlimit:10;}
	.st51{fill:#FF7E51;}
	.st52{fill:#96D5CE;}
	.st53{fill:#B5C0C0;}
	.st54{fill:#FFDD20;}
	
		.st55{fill:none;stroke:#FFFFFF;stroke-width:2;stroke-linecap:round;stroke-linejoin:round;stroke-miterlimit:10;stroke-dasharray:15,5;}
	.st56{opacity:0.74;fill:#0041BD;}
	.st57{fill:none;stroke:#FFFFFF;stroke-width:2;stroke-linecap:round;stroke-linejoin:round;stroke-dasharray:14.7582,4.9194;}
	.st58{fill:none;stroke:#B5C0C0;stroke-width:2;stroke-linecap:round;stroke-linejoin:round;stroke-miterlimit:10;}
	.st59{fill:#0047BF;stroke:#B5C0C0;stroke-width:2;stroke-linecap:round;stroke-linejoin:round;stroke-miterlimit:10;}
	.st60{fill:#0047BF;stroke:#96D5CE;stroke-width:2;stroke-linecap:round;stroke-linejoin:round;stroke-miterlimit:10;}
	.st61{fill:#0047BF;stroke:#FFFFFF;stroke-width:2;stroke-linecap:round;stroke-linejoin:round;stroke-miterlimit:10;}
	.st62{fill:none;stroke:#FFFFFF;stroke-width:0.75;stroke-linecap:round;stroke-linejoin:round;stroke-miterlimit:10;}
	.st63{fill:none;stroke:#FF7E51;stroke-width:1.5;stroke-linecap:round;stroke-linejoin:round;stroke-miterlimit:10;}
	.st64{fill:#0B0069;stroke:#FFFFFF;stroke-width:1.5;stroke-linecap:round;stroke-linejoin:round;stroke-miterlimit:10;}
	.st65{fill:none;stroke:#FF804C;stroke-width:1.9599;stroke-linecap:round;stroke-linejoin:round;stroke-miterlimit:10;}
</style>
<rect x="-4.3" y="-4.3" class="st18" width="182.7" height="182.7"/>
<line class="st5" x1="116.8" y1="66.2" x2="129.5" y2="62.2"/>
<line class="st5" x1="94.7" y1="47" x2="100.8" y2="45.2"/>
<path class="st11" d="M102.9,42.4c0.7-1.5,2.5-2,3.9-1.2c1,0.6,1.5,1.9,1.2,3c-0.5,1.7-2.3,2.5-3.8,1.8"/>
<line class="st5" x1="85.7" y1="44.5" x2="81.6" y2="39.6"/>
<path class="st11" d="M78.2,38.8c-1.6-0.1-2.8-1.6-2.5-3.2c0.2-1.1,1.2-2.1,2.3-2.2c1.7-0.2,3.2,1.2,3.1,2.9"/>
<path class="st11" d="M93.5,106.3c-0.3,1.5-1.7,2.5-3.2,2.2c-1.5-0.3-2.5-1.7-2.2-3.2c0.3-1.5,1.7-2.5,3.2-2.2"/>
<line class="st5" x1="109.6" y1="98.5" x2="113.9" y2="102.2"/>
<line class="st5" x1="101.6" y1="98.8" x2="95.3" y2="102.7"/>
<line class="st5" x1="106.6" y1="80.6" x2="105.9" y2="92.9"/>
<path class="st11" d="M117.3,102.3c1.5-0.2,2.9,0.9,3.1,2.4s-0.9,2.9-2.4,3.1s-2.9-0.9-3.1-2.4"/>
<path class="st11" d="M126.5,59.2c1.4-2.6,4.7-3.5,7.3-2.1c2.6,1.4,3.5,4.7,2.1,7.3c-1.4,2.6-4.7,3.5-7.3,2.1"/>
<path class="st11" d="M109.8,91.3c1.9,2.3,1.5,5.7-0.8,7.6s-5.7,1.5-7.6-0.8c-1.9-2.3-1.5-5.7,0.8-7.6"/>
<line class="st5" x1="100" y1="60.9" x2="90.6" y2="51.2"/>
<path class="st11" d="M89.2,55.2c-3.3-0.2-5.8-3.4-4.8-6.8c0.5-2,2.3-3.5,4.3-3.8c3.5-0.5,6.4,2.3,6.2,5.7"/>
<path class="st8" d="M110.9,57.5c-6.6-2.3-13.8,1.1-16.2,7.7c-2.3,6.6,1.1,13.8,7.7,16.2c6.6,2.3,13.8-1.1,16.2-7.7
	C120.9,67.1,117.5,59.9,110.9,57.5z M104.6,75.3c-3.2-1.2-4.9-4.7-3.8-7.9c1.2-3.2,4.7-4.9,7.9-3.8c3.2,1.2,4.9,4.7,3.8,7.9
	C111.4,74.7,107.8,76.4,104.6,75.3z"/>
<path class="st11" d="M60.5,130.7c-6,4.2-15.7,8.8-23.4,8.8v0c6.2-1.5,9.7-5.7,9.7-8.8c0-3.2-3.4-7.3-9.7-8.8v0
	C46.8,121.9,57.1,127.5,60.5,130.7"/>
<path class="st20" d="M120.5,141.1c-4,0-6.2-4.7-6.2-10.4c0-5.7,2.2-10.4,6.2-10.4s16.5,10.4,16.5,10.4S124.5,141.1,120.5,141.1z"/>
<path class="st11" d="M70.7,91.8c0,2.1-6.2,3.7-13.8,3.7h-2.6c-7.6,0-13.8-1.7-13.8-3.7"/>
<path class="st11" d="M70.7,71.1c0,2.1-6.2,3.7-13.8,3.7h-2.6c-7.6,0-13.8-1.7-13.8-3.7"/>
<path class="st11" d="M70.7,78c0,2.1-6.2,3.7-13.8,3.7h-2.6c-7.6,0-13.8-1.7-13.8-3.7"/>
<path class="st11" d="M70.7,84.9c0,2.1-6.2,3.7-13.8,3.7h-2.6c-7.6,0-13.8-1.7-13.8-3.7"/>
<line class="st20" x1="113.2" y1="130.7" x2="59" y2="130.7"/>
<line class="st5" x1="66" y1="125.3" x2="66" y2="136.1"/>
<line class="st5" x1="97.6" y1="123.3" x2="97.6" y2="138.1"/>
<line class="st5" x1="105.5" y1="125.3" x2="105.5" y2="136.1"/>
<line class="st5" x1="73.9" y1="119" x2="73.9" y2="142.4"/>
<line class="st5" x1="89.7" y1="119" x2="89.7" y2="142.4"/>
<line class="st5" x1="81.8" y1="116.8" x2="81.8" y2="144.6"/>
<path class="st8" d="M125.5,127.2c-1.6-0.7-3.5,0-4.2,1.6s0,3.5,1.6,4.2c1.6,0.7,3.5,0,4.2-1.6S127.1,128,125.5,127.2z M123.5,131.6
	c-0.8-0.4-1.1-1.3-0.8-2.1c0.4-0.8,1.3-1.1,2.1-0.8c0.8,0.4,1.1,1.3,0.8,2.1C125.2,131.6,124.3,131.9,123.5,131.6z"/>
<path class="st5" d="M64,57.7c7.3,3.5,6.7,14.7,6.7,14.7V99c0,2.1-6.2,3.7-13.8,3.7h-2.6c-7.6,0-13.8-1.7-13.8-3.7V72.4
	c0,0-0.6-11,6.5-14.6"/>
<g>
	<ellipse class="st6" cx="55.6" cy="50.1" rx="10.9" ry="2.9"/>
	<path class="st6" d="M64.2,57.3c1.4-0.5,2.3-1.1,2.3-1.8v-5.3"/>
	<path class="st6" d="M44.7,50.1v5.3c0,1.6,4.9,2.9,10.9,2.9c3.5,0,6.6-0.4,8.6-1.1"/>
</g>
<path class="st19" d="M62.1,87.2c0,3.2-2.6,5.9-5.9,5.9c-3.2,0-5.9-2.6-5.9-5.9c0-3.2,5.9-10.1,5.9-10.1S62.1,83.9,62.1,87.2z"/>
</svg>
