<?xml version="1.0" encoding="utf-8"?>
<!-- Generator: Adobe Illustrator 26.0.1, SVG Export Plug-In . SVG Version: 6.00 Build 0)  -->
<svg version="1.1" id="Layer_1" xmlns="http://www.w3.org/2000/svg" xmlns:xlink="http://www.w3.org/1999/xlink" x="0px" y="0px"
	 viewBox="0 0 174 174" style="enable-background:new 0 0 174 174;" xml:space="preserve">
<style type="text/css">
	.st0{fill:#0047BF;}
	.st1{fill:#003FC1;}
	.st2{fill:#FFFFFF;}
	.st3{fill:none;stroke:#96D5CE;stroke-width:2;stroke-linecap:round;stroke-linejoin:round;stroke-miterlimit:10;}
	.st4{fill:none;stroke:#FF704C;stroke-width:2;stroke-linecap:round;stroke-linejoin:round;stroke-miterlimit:10;}
	.st5{fill:none;stroke:#FFFFFF;stroke-width:2;stroke-linecap:round;stroke-linejoin:round;stroke-miterlimit:10;}
	.st6{fill:none;stroke:#FF804C;stroke-width:2;stroke-linecap:round;stroke-linejoin:round;stroke-miterlimit:10;}
	.st7{fill:none;stroke:#0047BF;stroke-width:2;stroke-linecap:round;stroke-linejoin:round;stroke-miterlimit:10;}
	.st8{fill:#F1D439;}
	.st9{fill:#0047BF;stroke:#BEC8C8;stroke-width:2;stroke-linecap:round;stroke-linejoin:round;stroke-miterlimit:10;}
	.st10{fill:none;stroke:#FF7E51;stroke-width:2;stroke-linecap:round;stroke-linejoin:round;stroke-miterlimit:10;}
	.st11{fill:none;stroke:#A3D5D0;stroke-width:2;stroke-linecap:round;stroke-linejoin:round;stroke-miterlimit:10;}
	.st12{fill:none;stroke:#F1D439;stroke-width:2;stroke-linecap:round;stroke-linejoin:round;stroke-miterlimit:10;}
	.st13{fill:none;stroke:#E2E6E6;stroke-width:2;stroke-linecap:round;stroke-linejoin:round;stroke-miterlimit:10;}
	.st14{fill:#A3D5D0;}
	.st15{fill:#FF804C;}
	.st16{fill:none;stroke:#BEC8C8;stroke-width:2;stroke-linecap:round;stroke-linejoin:round;stroke-miterlimit:10;}
	.st17{fill:#0047BF;stroke:#0047BF;stroke-width:2;stroke-linecap:round;stroke-linejoin:round;stroke-miterlimit:10;}
	.st18{fill:#0041BD;}
	.st19{fill:#0041BD;stroke:#A3D5D0;stroke-width:2;stroke-linecap:round;stroke-linejoin:round;stroke-miterlimit:10;}
	.st20{fill:#0041BD;stroke:#FFFFFF;stroke-width:2;stroke-linecap:round;stroke-linejoin:round;stroke-miterlimit:10;}
	.st21{fill:#0041BD;stroke:#FF804C;stroke-width:2;stroke-linecap:round;stroke-linejoin:round;stroke-miterlimit:10;}
	.st22{fill:#0041BD;stroke:#F1D439;stroke-width:2;stroke-linecap:round;stroke-linejoin:round;stroke-miterlimit:10;}
	.st23{fill:#FF804C;stroke:#FF804C;stroke-width:2;stroke-linecap:round;stroke-linejoin:round;stroke-miterlimit:10;}
	.st24{fill:none;stroke:#FFFFFF;stroke-width:1.5;stroke-linecap:round;stroke-linejoin:round;stroke-miterlimit:10;}
	.st25{fill:#0041BD;stroke:#FF804C;stroke-width:1.5;stroke-linecap:round;stroke-linejoin:round;stroke-miterlimit:10;}
	.st26{fill:none;stroke:#FF704C;stroke-width:1.5;stroke-linecap:round;stroke-linejoin:round;stroke-miterlimit:10;}
	.st27{fill:none;stroke:#FF804C;stroke-width:1.5;stroke-linecap:round;stroke-linejoin:round;stroke-miterlimit:10;}
	.st28{fill:none;stroke:#A3D5D0;stroke-width:1.4377;stroke-linecap:round;stroke-linejoin:round;stroke-miterlimit:10;}
	.st29{fill:#0041BD;stroke:#A3D5D0;stroke-width:1.5;stroke-linecap:round;stroke-linejoin:round;stroke-miterlimit:10;}
	.st30{fill:#0041BD;stroke:#F1D439;stroke-width:1.5;stroke-linecap:round;stroke-linejoin:round;stroke-miterlimit:10;}
	.st31{fill:none;stroke:#F1D439;stroke-width:1.5;stroke-linecap:round;stroke-linejoin:round;stroke-miterlimit:10;}
	.st32{fill:none;stroke:#FFFFFF;stroke-width:2.5;stroke-linecap:round;stroke-linejoin:round;stroke-miterlimit:10;}
	.st33{fill:none;}
	.st34{fill:none;stroke:#A3D5D0;stroke-width:1.5;stroke-linecap:round;stroke-linejoin:round;stroke-miterlimit:10;}
	.st35{fill:none;stroke:#96D5CE;stroke-width:1.4377;stroke-linecap:round;stroke-linejoin:round;stroke-miterlimit:10;}
	.st36{fill:none;stroke:#0047BF;stroke-width:1.5;stroke-linecap:round;stroke-linejoin:round;stroke-miterlimit:10;}
	.st37{fill:#0047BF;stroke:#FF704C;stroke-width:2;stroke-linecap:round;stroke-linejoin:round;stroke-miterlimit:10;}
	.st38{fill:#0047BF;stroke:#FF804C;stroke-width:2;stroke-linecap:round;stroke-linejoin:round;stroke-miterlimit:10;}
	.st39{fill:#0047BF;stroke:#E2E6E6;stroke-width:2;stroke-linecap:round;stroke-linejoin:round;stroke-miterlimit:10;}
	.st40{fill:#0047BF;stroke:#A3D5D0;stroke-width:2;stroke-linecap:round;stroke-linejoin:round;stroke-miterlimit:10;}
	.st41{fill:#0047BF;stroke:#F1D439;stroke-width:2;stroke-linecap:round;stroke-linejoin:round;stroke-miterlimit:10;}
	.st42{fill:#0041BD;stroke:#E2E6E6;stroke-width:2;stroke-linecap:round;stroke-linejoin:round;stroke-miterlimit:10;}
	.st43{fill:#E2E6E6;}
	.st44{fill:none;stroke:#0047BF;stroke-width:1.4377;stroke-linecap:round;stroke-linejoin:round;stroke-miterlimit:10;}
	.st45{fill:#0047BF;stroke:#A3D5D0;stroke-width:1.5;stroke-linecap:round;stroke-linejoin:round;stroke-miterlimit:10;}
	.st46{fill:none;stroke:#E2E6E6;stroke-width:1.5;stroke-linecap:round;stroke-linejoin:round;stroke-miterlimit:10;}
	.st47{fill:#0047BF;stroke:#FF704C;stroke-width:1.5;stroke-linecap:round;stroke-linejoin:round;stroke-miterlimit:10;}
	.st48{fill:#0047BF;stroke:#FF804C;stroke-width:1.5;stroke-linecap:round;stroke-linejoin:round;stroke-miterlimit:10;}
	.st49{fill:#0047BF;stroke:#F1D439;stroke-width:1.5;stroke-linecap:round;stroke-linejoin:round;stroke-miterlimit:10;}
	.st50{fill:#0041BD;stroke:#0047BF;stroke-width:2;stroke-linecap:round;stroke-linejoin:round;stroke-miterlimit:10;}
	.st51{fill:#FF7E51;}
	.st52{fill:#96D5CE;}
	.st53{fill:#B5C0C0;}
	.st54{fill:#FFDD20;}
	
		.st55{fill:none;stroke:#FFFFFF;stroke-width:2;stroke-linecap:round;stroke-linejoin:round;stroke-miterlimit:10;stroke-dasharray:15,5;}
	.st56{opacity:0.74;fill:#0041BD;}
	.st57{fill:none;stroke:#FFFFFF;stroke-width:2;stroke-linecap:round;stroke-linejoin:round;stroke-dasharray:14.7582,4.9194;}
	.st58{fill:none;stroke:#B5C0C0;stroke-width:2;stroke-linecap:round;stroke-linejoin:round;stroke-miterlimit:10;}
	.st59{fill:#0047BF;stroke:#B5C0C0;stroke-width:2;stroke-linecap:round;stroke-linejoin:round;stroke-miterlimit:10;}
	.st60{fill:#0047BF;stroke:#96D5CE;stroke-width:2;stroke-linecap:round;stroke-linejoin:round;stroke-miterlimit:10;}
	.st61{fill:#0047BF;stroke:#FFFFFF;stroke-width:2;stroke-linecap:round;stroke-linejoin:round;stroke-miterlimit:10;}
	.st62{fill:none;stroke:#FFFFFF;stroke-width:0.75;stroke-linecap:round;stroke-linejoin:round;stroke-miterlimit:10;}
	.st63{fill:none;stroke:#FF7E51;stroke-width:1.5;stroke-linecap:round;stroke-linejoin:round;stroke-miterlimit:10;}
	.st64{fill:#0B0069;stroke:#FFFFFF;stroke-width:1.5;stroke-linecap:round;stroke-linejoin:round;stroke-miterlimit:10;}
	.st65{fill:none;stroke:#FF804C;stroke-width:1.9599;stroke-linecap:round;stroke-linejoin:round;stroke-miterlimit:10;}
</style>
<rect x="-4.3" y="-4.3" class="st18" width="182.7" height="182.7"/>
<g>
	<g>
		<path class="st11" d="M110.3,46.3c2.1,1.8,12.4,1.9,12.4,1.9s-2.7,4.1-6.3,8.8"/>
		<polyline class="st11" points="84.2,50 83.6,55.6 77,55.7 		"/>
		<path class="st11" d="M72.7,41.2c-1.3,0.6-4.5,2.4-4.5,2.4l2.5,5.2"/>
		<path class="st11" d="M69.2,56.7c-6.1,0.6-12,4.6-13.6,7.4c0,0,8.2-2.2,12.6-0.4c3.6,1.4,7.4,5.4,8.2,7.4l0.3-1.2
			c0.5-3.5,0.1-7.7-3.2-11.2"/>
		<path class="st5" d="M83.5,50.2c6.3-5.1,17.5-13.9,17.5-13.9C97.8,36.3,83,36.4,83,36.4s-1.4,0-1.8,0c-4.5,0.2-8.2,2.9-9,7
			c-1.9,8.7-2.7,13-3.3,16.2c-0.1,0.7,1.3,1.4,1.9,0.8c1.8-1.6,7.1-5.8,13.4-10.8c1.4-1.1,3-0.7,3.9,1.1l8.4,14.4
			c0,0,5,8.4,7.2,10.7c3.9,4.1,10.6,8.1,10.7,8.1c0.1,0,0.5-1.7,0.6-2.7"/>
		<line class="st5" x1="108.9" y1="56.6" x2="115.6" y2="56.6"/>
		<line class="st5" x1="92.2" y1="56.7" x2="102.9" y2="56.7"/>
		<line class="st5" x1="95.2" y1="63.2" x2="103.5" y2="63.2"/>
		<line class="st5" x1="88" y1="50.2" x2="112.3" y2="50.2"/>
		<line class="st5" x1="92" y1="43.7" x2="108.5" y2="43.7"/>
		<path class="st19" d="M103.6,63c-0.6-3.9,1.4-11.8,1.4-11.8s3.9,4.2,5.8,9.4"/>
		<path class="st5" d="M114.2,79.9c0,0,3.6,4.6,3.6,4.4c0.4-2,4.4-10.6-0.8-25c-0.2-0.5-0.8-2.5-1.5-3.8c-1.3-2.4-7.3-12.7-8.7-15.3
			c0,0-2-4.1-4.3-3.9h-2.1"/>
		<path class="st5" d="M101.4,73c-2.9-4.3,0.9-9.8,4.8-11.5c3.8-1.8,11.6-0.3,12.7,4.4"/>
		<path class="st8" d="M119.3,72.5c-0.9-1.9-3.1-2.7-5-1.8s-2.7,3.1-1.8,5c0.9,1.9,3.1,2.7,5,1.8C119.4,76.6,120.2,74.4,119.3,72.5z
			 M114.3,74.8c-0.4-0.9,0-2,0.9-2.4c0.9-0.4,2,0,2.4,0.9c0.4,0.9,0,2-0.9,2.4C115.8,76.1,114.7,75.7,114.3,74.8z"/>
		<line class="st5" x1="73.9" y1="39.8" x2="80.2" y2="52.8"/>
		<line class="st5" x1="70.9" y1="49.4" x2="74.7" y2="57.2"/>
		<line class="st5" x1="80.1" y1="36.7" x2="85.9" y2="48.6"/>
		<line class="st5" x1="87.9" y1="36.4" x2="91.5" y2="43.9"/>
	</g>
</g>
<g>
	<g>
		<path class="st11" d="M37.9,96.6c0.5-2.7-4.6-11.7-4.6-11.7S38.2,85.2,44,86"/>
		<polyline class="st11" points="54.2,117.4 59.3,115 62.7,120.7 		"/>
		<path class="st11" d="M52.3,131.7c1.2,0.8,4.4,2.7,4.4,2.7l3.2-4.7"/>
		<path class="st11" d="M67.5,127c3.5,4.9,10,8.1,13.2,8.1c0,0-6-6-6.7-10.7c-0.6-3.8,1-9.1,2.3-10.8l-1.2,0.3
			c-3.3,1.3-6.7,3.8-8.1,8.4"/>
		<path class="st5" d="M54.7,117.8c-7.6-3-20.8-8.1-20.8-8.1c1.6,2.7,9,15.5,9,15.5s0.7,1.2,0.9,1.5c2.4,3.8,6.6,5.6,10.6,4.3
			c8.5-2.7,12.7-4.2,15.7-5.2c0.7-0.2,0.5-1.8-0.3-2.1c-2.3-0.8-8.6-3.2-16.1-6.2c-1.6-0.6-2.1-2.2-1-4l8.3-14.4
			c0,0,4.7-8.5,5.6-11.6c1.6-5.4,1.7-13.3,1.7-13.3c0-0.1-1.7,0.4-2.6,0.8"/>
		<line class="st5" x1="47.5" y1="92.6" x2="44.2" y2="86.9"/>
		<line class="st5" x1="55.9" y1="107.1" x2="50.6" y2="97.8"/>
		<line class="st5" x1="60" y1="101.2" x2="55.9" y2="94"/>
		<line class="st5" x1="52.4" y1="114" x2="40.3" y2="92.9"/>
		<line class="st5" x1="44.8" y1="113.7" x2="36.5" y2="99.4"/>
		<path class="st19" d="M55.7,94c-3.1,2.5-10.9,4.7-10.9,4.7s1.7-5.5,5.2-9.7"/>
		<path class="st5" d="M65.1,76.4c0,0,2.2-5.4,2-5.3c-1.9,0.6-11.4,1.5-21.3,13.2c-0.4,0.4-1.8,1.9-2.6,3.2
			c-1.4,2.3-7.4,12.7-8.9,15.2c0,0-2.6,3.8-1.2,5.7l1.1,1.8"/>
		<path class="st5" d="M65.5,91c-2.3,4.6-8.9,4.1-12.4,1.6c-3.5-2.4-6.1-9.9-2.5-13.2"/>
		<path class="st8" d="M56.1,75.7c-1.2,1.7-0.8,4,0.9,5.2c1.7,1.2,4,0.8,5.2-0.9c1.2-1.7,0.8-4-0.9-5.2S57.3,74,56.1,75.7z
			 M60.6,78.9c-0.6,0.8-1.7,1-2.6,0.4c-0.8-0.6-1-1.7-0.4-2.6c0.6-0.8,1.7-1,2.6-0.4C61,76.9,61.2,78,60.6,78.9z"/>
		<line class="st5" x1="50.4" y1="131.3" x2="58.5" y2="119.4"/>
		<line class="st5" x1="60.2" y1="129.2" x2="65.1" y2="121.9"/>
		<line class="st5" x1="44.6" y1="127.5" x2="52.1" y2="116.5"/>
		<line class="st5" x1="40.6" y1="120.9" x2="45.2" y2="114"/>
	</g>
</g>
<g>
	<g>
		<path class="st11" d="M117.6,134.1c-2.6,0.9-7.8,9.8-7.8,9.8s-2.2-4.4-4.5-9.8"/>
		<polyline class="st11" points="127.5,109.6 122.9,106.4 126.1,100.6 		"/>
		<path class="st11" d="M140.8,104.1c0.1-1.4,0.2-5.1,0.2-5.1l-5.7-0.4"/>
		<path class="st11" d="M129.2,93.3c2.5-5.5,2-12.7,0.4-15.5c0,0-2.2,8.2-5.9,11.1c-3,2.4-8.4,3.7-10.5,3.4l0.9,0.9
			c2.8,2.2,6.6,3.9,11.3,2.9"/>
		<path class="st5" d="M127.6,109c1.2,8,3.3,22.1,3.3,22.1c1.5-2.8,8.9-15.6,8.9-15.6s0.7-1.2,0.9-1.6c2.1-3.9,1.6-8.5-1.6-11.4
			c-6.6-6-9.9-8.9-12.4-11c-0.6-0.5-1.9,0.5-1.7,1.3c0.5,2.4,1.5,9,2.7,17c0.3,1.7-0.9,2.9-2.9,2.8l-16.7,0c0,0-9.7,0.1-12.8,0.9
			c-5.5,1.4-12.3,5.2-12.4,5.2c-0.1,0.1,1.2,1.3,2,1.9"/>
		<line class="st5" x1="109.4" y1="127.8" x2="106.1" y2="133.5"/>
		<line class="st5" x1="117.7" y1="113.3" x2="112.3" y2="122.5"/>
		<line class="st5" x1="110.6" y1="112.7" x2="106.4" y2="119.9"/>
		<line class="st5" x1="125.4" y1="112.8" x2="113.3" y2="133.9"/>
		<line class="st5" x1="129" y1="119.6" x2="120.8" y2="133.9"/>
		<path class="st19" d="M106.5,120c3.7,1.4,9.5,7.1,9.5,7.1s-5.6,1.3-11,0.4"/>
		<path class="st5" d="M86.5,120.7c0,0-5.8,0.8-5.6,1c1.5,1.4,7,9.1,22.1,11.8c0.6,0.1,2.6,0.6,4,0.6c2.7,0.1,14.7,0.1,17.6,0.1
			c0,0,4.6,0.3,5.6-1.8l1.1-1.8"/>
		<path class="st5" d="M99,113.1c5.1-0.3,8,5.7,7.6,9.9c-0.4,4.2-5.5,10.2-10.2,8.8"/>
		<path class="st8" d="M90.4,128.9c2.1,0.2,3.9-1.3,4.1-3.4s-1.3-3.9-3.4-4.1c-2.1-0.2-3.9,1.3-4.1,3.4
			C86.9,126.9,88.4,128.7,90.4,128.9z M90.9,123.3c1,0.1,1.7,1,1.7,2c-0.1,1-1,1.7-2,1.7c-1-0.1-1.7-1-1.7-2
			C89,124,89.9,123.3,90.9,123.3z"/>
		<line class="st5" x1="141.4" y1="105.9" x2="127.1" y2="104.9"/>
		<line class="st5" x1="134.7" y1="98.5" x2="125.9" y2="97.9"/>
		<line class="st5" x1="141" y1="112.8" x2="127.8" y2="111.9"/>
		<line class="st5" x1="137.4" y1="119.7" x2="129.1" y2="119.1"/>
	</g>
</g>
</svg>
