<?xml version="1.0" encoding="utf-8"?>
<!-- Generator: Adobe Illustrator 26.0.1, SVG Export Plug-In . SVG Version: 6.00 Build 0)  -->
<svg version="1.1" id="Layer_1" xmlns="http://www.w3.org/2000/svg" xmlns:xlink="http://www.w3.org/1999/xlink" x="0px" y="0px"
	 viewBox="0 0 174 174.3" style="enable-background:new 0 0 174 174.3;" xml:space="preserve">
<style type="text/css">
	.st0{fill:#0047BF;}
	.st1{fill:#003FC1;}
	.st2{fill:#FFFFFF;}
	.st3{fill:none;stroke:#96D5CE;stroke-width:2;stroke-linecap:round;stroke-linejoin:round;stroke-miterlimit:10;}
	.st4{fill:none;stroke:#FF704C;stroke-width:2;stroke-linecap:round;stroke-linejoin:round;stroke-miterlimit:10;}
	.st5{fill:none;stroke:#FFFFFF;stroke-width:2;stroke-linecap:round;stroke-linejoin:round;stroke-miterlimit:10;}
	.st6{fill:none;stroke:#FF804C;stroke-width:2;stroke-linecap:round;stroke-linejoin:round;stroke-miterlimit:10;}
	.st7{fill:none;stroke:#0047BF;stroke-width:2;stroke-linecap:round;stroke-linejoin:round;stroke-miterlimit:10;}
	.st8{fill:#F1D439;}
	.st9{fill:#0047BF;stroke:#BEC8C8;stroke-width:2;stroke-linecap:round;stroke-linejoin:round;stroke-miterlimit:10;}
	.st10{fill:none;stroke:#FF7E51;stroke-width:2;stroke-linecap:round;stroke-linejoin:round;stroke-miterlimit:10;}
	.st11{fill:none;stroke:#A3D5D0;stroke-width:2;stroke-linecap:round;stroke-linejoin:round;stroke-miterlimit:10;}
	.st12{fill:none;stroke:#F1D439;stroke-width:2;stroke-linecap:round;stroke-linejoin:round;stroke-miterlimit:10;}
	.st13{fill:none;stroke:#E2E6E6;stroke-width:2;stroke-linecap:round;stroke-linejoin:round;stroke-miterlimit:10;}
	.st14{fill:#A3D5D0;}
	.st15{fill:#FF804C;}
	.st16{fill:none;stroke:#BEC8C8;stroke-width:2;stroke-linecap:round;stroke-linejoin:round;stroke-miterlimit:10;}
	.st17{fill:#0047BF;stroke:#0047BF;stroke-width:2;stroke-linecap:round;stroke-linejoin:round;stroke-miterlimit:10;}
	.st18{fill:#0041BD;}
	.st19{fill:#0041BD;stroke:#A3D5D0;stroke-width:2;stroke-linecap:round;stroke-linejoin:round;stroke-miterlimit:10;}
	.st20{fill:#0041BD;stroke:#FFFFFF;stroke-width:2;stroke-linecap:round;stroke-linejoin:round;stroke-miterlimit:10;}
	.st21{fill:#0041BD;stroke:#FF804C;stroke-width:2;stroke-linecap:round;stroke-linejoin:round;stroke-miterlimit:10;}
	.st22{fill:#0041BD;stroke:#F1D439;stroke-width:2;stroke-linecap:round;stroke-linejoin:round;stroke-miterlimit:10;}
	.st23{fill:#FF804C;stroke:#FF804C;stroke-width:2;stroke-linecap:round;stroke-linejoin:round;stroke-miterlimit:10;}
	.st24{fill:none;stroke:#FFFFFF;stroke-width:1.5;stroke-linecap:round;stroke-linejoin:round;stroke-miterlimit:10;}
	.st25{fill:#0041BD;stroke:#FF804C;stroke-width:1.5;stroke-linecap:round;stroke-linejoin:round;stroke-miterlimit:10;}
	.st26{fill:none;stroke:#FF704C;stroke-width:1.5;stroke-linecap:round;stroke-linejoin:round;stroke-miterlimit:10;}
	.st27{fill:none;stroke:#FF804C;stroke-width:1.5;stroke-linecap:round;stroke-linejoin:round;stroke-miterlimit:10;}
	.st28{fill:none;stroke:#A3D5D0;stroke-width:1.4377;stroke-linecap:round;stroke-linejoin:round;stroke-miterlimit:10;}
	.st29{fill:#0041BD;stroke:#A3D5D0;stroke-width:1.5;stroke-linecap:round;stroke-linejoin:round;stroke-miterlimit:10;}
	.st30{fill:#0041BD;stroke:#F1D439;stroke-width:1.5;stroke-linecap:round;stroke-linejoin:round;stroke-miterlimit:10;}
	.st31{fill:none;stroke:#F1D439;stroke-width:1.5;stroke-linecap:round;stroke-linejoin:round;stroke-miterlimit:10;}
	.st32{fill:none;stroke:#FFFFFF;stroke-width:2.5;stroke-linecap:round;stroke-linejoin:round;stroke-miterlimit:10;}
	.st33{fill:none;}
	.st34{fill:none;stroke:#A3D5D0;stroke-width:1.5;stroke-linecap:round;stroke-linejoin:round;stroke-miterlimit:10;}
	.st35{fill:none;stroke:#96D5CE;stroke-width:1.4377;stroke-linecap:round;stroke-linejoin:round;stroke-miterlimit:10;}
	.st36{fill:none;stroke:#0047BF;stroke-width:1.5;stroke-linecap:round;stroke-linejoin:round;stroke-miterlimit:10;}
	.st37{fill:#0047BF;stroke:#FF704C;stroke-width:2;stroke-linecap:round;stroke-linejoin:round;stroke-miterlimit:10;}
	.st38{fill:#0047BF;stroke:#FF804C;stroke-width:2;stroke-linecap:round;stroke-linejoin:round;stroke-miterlimit:10;}
	.st39{fill:#0047BF;stroke:#E2E6E6;stroke-width:2;stroke-linecap:round;stroke-linejoin:round;stroke-miterlimit:10;}
	.st40{fill:#0047BF;stroke:#A3D5D0;stroke-width:2;stroke-linecap:round;stroke-linejoin:round;stroke-miterlimit:10;}
	.st41{fill:#0047BF;stroke:#F1D439;stroke-width:2;stroke-linecap:round;stroke-linejoin:round;stroke-miterlimit:10;}
	.st42{fill:#0041BD;stroke:#E2E6E6;stroke-width:2;stroke-linecap:round;stroke-linejoin:round;stroke-miterlimit:10;}
	.st43{fill:#E2E6E6;}
	.st44{fill:none;stroke:#0047BF;stroke-width:1.4377;stroke-linecap:round;stroke-linejoin:round;stroke-miterlimit:10;}
	.st45{fill:#0047BF;stroke:#A3D5D0;stroke-width:1.5;stroke-linecap:round;stroke-linejoin:round;stroke-miterlimit:10;}
	.st46{fill:none;stroke:#E2E6E6;stroke-width:1.5;stroke-linecap:round;stroke-linejoin:round;stroke-miterlimit:10;}
	.st47{fill:#0047BF;stroke:#FF704C;stroke-width:1.5;stroke-linecap:round;stroke-linejoin:round;stroke-miterlimit:10;}
	.st48{fill:#0047BF;stroke:#FF804C;stroke-width:1.5;stroke-linecap:round;stroke-linejoin:round;stroke-miterlimit:10;}
	.st49{fill:#0047BF;stroke:#F1D439;stroke-width:1.5;stroke-linecap:round;stroke-linejoin:round;stroke-miterlimit:10;}
	.st50{fill:#0041BD;stroke:#0047BF;stroke-width:2;stroke-linecap:round;stroke-linejoin:round;stroke-miterlimit:10;}
	.st51{fill:#FF7E51;}
	.st52{fill:#96D5CE;}
	.st53{fill:#B5C0C0;}
	.st54{fill:#FFDD20;}
	
		.st55{fill:none;stroke:#FFFFFF;stroke-width:2;stroke-linecap:round;stroke-linejoin:round;stroke-miterlimit:10;stroke-dasharray:15,5;}
	.st56{opacity:0.74;fill:#0041BD;}
	.st57{fill:none;stroke:#FFFFFF;stroke-width:2;stroke-linecap:round;stroke-linejoin:round;stroke-dasharray:14.7582,4.9194;}
	.st58{fill:none;stroke:#B5C0C0;stroke-width:2;stroke-linecap:round;stroke-linejoin:round;stroke-miterlimit:10;}
	.st59{fill:#0047BF;stroke:#B5C0C0;stroke-width:2;stroke-linecap:round;stroke-linejoin:round;stroke-miterlimit:10;}
	.st60{fill:#0047BF;stroke:#96D5CE;stroke-width:2;stroke-linecap:round;stroke-linejoin:round;stroke-miterlimit:10;}
	.st61{fill:#0047BF;stroke:#FFFFFF;stroke-width:2;stroke-linecap:round;stroke-linejoin:round;stroke-miterlimit:10;}
	.st62{fill:none;stroke:#FFFFFF;stroke-width:0.75;stroke-linecap:round;stroke-linejoin:round;stroke-miterlimit:10;}
	.st63{fill:none;stroke:#FF7E51;stroke-width:1.5;stroke-linecap:round;stroke-linejoin:round;stroke-miterlimit:10;}
	.st64{fill:#0B0069;stroke:#FFFFFF;stroke-width:1.5;stroke-linecap:round;stroke-linejoin:round;stroke-miterlimit:10;}
	.st65{fill:none;stroke:#FF804C;stroke-width:1.9599;stroke-linecap:round;stroke-linejoin:round;stroke-miterlimit:10;}
</style>
<rect x="0.3" y="0.3" class="st18" width="174.3" height="174.3"/>
<g>
	<g>
		<line class="st12" x1="95.1" y1="43" x2="101.3" y2="34.7"/>
		<line class="st12" x1="87.1" y1="39.3" x2="88.2" y2="35.5"/>
		<line class="st12" x1="101.5" y1="49.9" x2="106.3" y2="46.9"/>
		<line class="st12" x1="78.4" y1="38.4" x2="77.2" y2="30.2"/>
		<line class="st12" x1="63.6" y1="47.6" x2="55.3" y2="41.4"/>
		<line class="st12" x1="70.2" y1="41.8" x2="67.7" y2="37.8"/>
		<line class="st12" x1="60.3" y1="55.5" x2="52.6" y2="53.7"/>
	</g>
</g>
<circle class="st12" cx="82.1" cy="59.8" r="16"/>
<rect x="38.3" y="69.5" class="st5" width="48.7" height="60.2"/>
<rect x="87" y="69.5" class="st5" width="48.7" height="60.2"/>
<path class="st61" d="M87,128.8l4.9-1.6c10.3-3.3,21.2-5.8,32.5-7.2l3.4-0.4V60.4l-5.5,0.8c-11.1,1.5-21.7,4-31.8,7.3L87,69.7V128.8
	z"/>
<path class="st61" d="M87,129.7l3.8-3c8.1-6.5,16.7-12.1,25.6-16.9l2.7-1.5V48.1l-4.4,2.4c-8.7,4.8-17.1,10.5-25,16.9L87,69.5V129.7
	z"/>
<path class="st11" d="M110.4,64.3l-2.7,1.5c-3.7,2.1-7.4,4.4-10.9,6.9"/>
<path class="st11" d="M110.4,72l-2.7,1.5c-3.7,2.1-7.4,4.4-10.9,6.9"/>
<path class="st12" d="M109.9,103.5V83.4c0-0.5-0.6-0.7-1.1-0.4l-2.1,1.4c-0.3,0.2-0.4,0.4-0.4,0.7v20.8"/>
<path class="st4" d="M102.6,108V95.9c0-0.5-0.6-0.7-1.1-0.4L99.5,97c-0.3,0.2-0.4,0.4-0.4,0.7v12.8"/>
<path class="st5" d="M112.8,102.5c-4.5,2.4-13.4,8.3-18.3,12.2V89.4"/>
<path class="st61" d="M87,128.8l-4.9-1.6c-10.3-3.3-21.2-5.8-32.5-7.2l-3.4-0.4V60.4l5.5,0.8c11.1,1.5,21.7,4,31.8,7.3l3.4,1.1
	V128.8z"/>
<path class="st11" d="M78.3,116.3c-6.9-2.3-14.3-3.9-21.8-4.7l-2.3-0.3"/>
<path class="st11" d="M78.3,109.1c-6.9-2.3-14.3-3.9-21.8-4.7l-2.3-0.3"/>
<path class="st11" d="M78.3,102c-6.9-2.3-14.3-3.9-21.8-4.7L54.1,97"/>
<path class="st11" d="M78.3,94.9C71.3,92.6,64,91,56.4,90.2l-2.3-0.3"/>
<g>
	<path class="st12" d="M62.6,76.1c-0.5-0.4-2.3-1.4-2.9-1.7c-0.6-0.3-1,0.5-1.2,0.9c-0.2,0.3-0.3,0.6,0.1,0.9"/>
	<path class="st12" d="M69.5,76.2c-0.6-0.5-2.3-1.9-3-2.1c-0.8-0.2-2.3,0.5-3.1,0.9c-0.4,0.2-0.5,0.5,0,0.9"/>
	<path class="st12" d="M73.6,76.9c-0.5-0.5-2.3-2.5-3-2.8c-0.7-0.3-0.9,1.2-0.7,2.1"/>
	<path class="st12" d="M67.2,82.5c-0.8,0.2-2,0.5-2.5,0.3c-0.8-0.2-2.1-1.9-2.7-2.6"/>
	<path class="st12" d="M61.5,79.9c-0.5,0.2-1.3,0.5-1.6,0.4c-0.3-0.1-0.6-0.8-0.8-1.4"/>
	<path class="st12" d="M58,78.3l-5.2,1.5c-0.1,0-0.3-0.1-0.3-0.3l0.1-0.5c0.1-1.1,0.3-2.6,0.2-3.8l-0.1-0.5c0-0.2,0.2-0.3,0.3-0.2
		l4.5,2.5"/>
	<line class="st12" x1="81.7" y1="83" x2="81.6" y2="84.6"/>
	<line class="st12" x1="74.4" y1="84.2" x2="73.7" y2="85.5"/>
	<line class="st12" x1="72.4" y1="85.4" x2="74.2" y2="84.3"/>
	<path class="st5" d="M81.3,82.4c0.2,0.1,0.5,0.2,0.7,0.2c0.1,0,0.1,0.1,0.1,0.2c-0.1,0.1-2.6,1-3.4,1.2c-1.5,0.3-3,0.5-6.5-0.2
		c-4.5-0.9-8.1-4-16.1-6.1c-0.3-0.1-0.3-0.5,0-0.6c2.8-0.2,10.5-0.8,15.5-0.1c4.6,0.7,8.1,3.4,11,5l-2.1,0.2"/>
</g>
</svg>
