<?xml version="1.0" encoding="utf-8"?>
<!-- Generator: Adobe Illustrator 26.0.1, SVG Export Plug-In . SVG Version: 6.00 Build 0)  -->
<svg version="1.1" id="Layer_1" xmlns="http://www.w3.org/2000/svg" xmlns:xlink="http://www.w3.org/1999/xlink" x="0px" y="0px"
	 viewBox="0 0 174 174" style="enable-background:new 0 0 174 174;" xml:space="preserve">
<style type="text/css">
	.st0{fill:#0047BF;}
	.st1{fill:#003FC1;}
	.st2{fill:#FFFFFF;}
	.st3{fill:none;stroke:#96D5CE;stroke-width:2;stroke-linecap:round;stroke-linejoin:round;stroke-miterlimit:10;}
	.st4{fill:none;stroke:#FF704C;stroke-width:2;stroke-linecap:round;stroke-linejoin:round;stroke-miterlimit:10;}
	.st5{fill:none;stroke:#FFFFFF;stroke-width:2;stroke-linecap:round;stroke-linejoin:round;stroke-miterlimit:10;}
	.st6{fill:none;stroke:#FF804C;stroke-width:2;stroke-linecap:round;stroke-linejoin:round;stroke-miterlimit:10;}
	.st7{fill:none;stroke:#0047BF;stroke-width:2;stroke-linecap:round;stroke-linejoin:round;stroke-miterlimit:10;}
	.st8{fill:#F1D439;}
	.st9{fill:#0047BF;stroke:#BEC8C8;stroke-width:2;stroke-linecap:round;stroke-linejoin:round;stroke-miterlimit:10;}
	.st10{fill:none;stroke:#FF7E51;stroke-width:2;stroke-linecap:round;stroke-linejoin:round;stroke-miterlimit:10;}
	.st11{fill:none;stroke:#A3D5D0;stroke-width:2;stroke-linecap:round;stroke-linejoin:round;stroke-miterlimit:10;}
	.st12{fill:none;stroke:#F1D439;stroke-width:2;stroke-linecap:round;stroke-linejoin:round;stroke-miterlimit:10;}
	.st13{fill:none;stroke:#E2E6E6;stroke-width:2;stroke-linecap:round;stroke-linejoin:round;stroke-miterlimit:10;}
	.st14{fill:#A3D5D0;}
	.st15{fill:#FF804C;}
	.st16{fill:none;stroke:#BEC8C8;stroke-width:2;stroke-linecap:round;stroke-linejoin:round;stroke-miterlimit:10;}
	.st17{fill:#0047BF;stroke:#0047BF;stroke-width:2;stroke-linecap:round;stroke-linejoin:round;stroke-miterlimit:10;}
	.st18{fill:#0041BD;}
	.st19{fill:#0041BD;stroke:#A3D5D0;stroke-width:2;stroke-linecap:round;stroke-linejoin:round;stroke-miterlimit:10;}
	.st20{fill:#0041BD;stroke:#FFFFFF;stroke-width:2;stroke-linecap:round;stroke-linejoin:round;stroke-miterlimit:10;}
	.st21{fill:#0041BD;stroke:#FF804C;stroke-width:2;stroke-linecap:round;stroke-linejoin:round;stroke-miterlimit:10;}
	.st22{fill:#0041BD;stroke:#F1D439;stroke-width:2;stroke-linecap:round;stroke-linejoin:round;stroke-miterlimit:10;}
	.st23{fill:#FF804C;stroke:#FF804C;stroke-width:2;stroke-linecap:round;stroke-linejoin:round;stroke-miterlimit:10;}
	.st24{fill:none;stroke:#FFFFFF;stroke-width:1.5;stroke-linecap:round;stroke-linejoin:round;stroke-miterlimit:10;}
	.st25{fill:#0041BD;stroke:#FF804C;stroke-width:1.5;stroke-linecap:round;stroke-linejoin:round;stroke-miterlimit:10;}
	.st26{fill:none;stroke:#FF704C;stroke-width:1.5;stroke-linecap:round;stroke-linejoin:round;stroke-miterlimit:10;}
	.st27{fill:none;stroke:#FF804C;stroke-width:1.5;stroke-linecap:round;stroke-linejoin:round;stroke-miterlimit:10;}
	.st28{fill:none;stroke:#A3D5D0;stroke-width:1.4377;stroke-linecap:round;stroke-linejoin:round;stroke-miterlimit:10;}
	.st29{fill:#0041BD;stroke:#A3D5D0;stroke-width:1.5;stroke-linecap:round;stroke-linejoin:round;stroke-miterlimit:10;}
	.st30{fill:#0041BD;stroke:#F1D439;stroke-width:1.5;stroke-linecap:round;stroke-linejoin:round;stroke-miterlimit:10;}
	.st31{fill:none;stroke:#F1D439;stroke-width:1.5;stroke-linecap:round;stroke-linejoin:round;stroke-miterlimit:10;}
	.st32{fill:none;stroke:#FFFFFF;stroke-width:2.5;stroke-linecap:round;stroke-linejoin:round;stroke-miterlimit:10;}
	.st33{fill:none;}
	.st34{fill:none;stroke:#A3D5D0;stroke-width:1.5;stroke-linecap:round;stroke-linejoin:round;stroke-miterlimit:10;}
	.st35{fill:none;stroke:#96D5CE;stroke-width:1.4377;stroke-linecap:round;stroke-linejoin:round;stroke-miterlimit:10;}
	.st36{fill:none;stroke:#0047BF;stroke-width:1.5;stroke-linecap:round;stroke-linejoin:round;stroke-miterlimit:10;}
	.st37{fill:#0047BF;stroke:#FF704C;stroke-width:2;stroke-linecap:round;stroke-linejoin:round;stroke-miterlimit:10;}
	.st38{fill:#0047BF;stroke:#FF804C;stroke-width:2;stroke-linecap:round;stroke-linejoin:round;stroke-miterlimit:10;}
	.st39{fill:#0047BF;stroke:#E2E6E6;stroke-width:2;stroke-linecap:round;stroke-linejoin:round;stroke-miterlimit:10;}
	.st40{fill:#0047BF;stroke:#A3D5D0;stroke-width:2;stroke-linecap:round;stroke-linejoin:round;stroke-miterlimit:10;}
	.st41{fill:#0047BF;stroke:#F1D439;stroke-width:2;stroke-linecap:round;stroke-linejoin:round;stroke-miterlimit:10;}
	.st42{fill:#0041BD;stroke:#E2E6E6;stroke-width:2;stroke-linecap:round;stroke-linejoin:round;stroke-miterlimit:10;}
	.st43{fill:#E2E6E6;}
	.st44{fill:none;stroke:#0047BF;stroke-width:1.4377;stroke-linecap:round;stroke-linejoin:round;stroke-miterlimit:10;}
	.st45{fill:#0047BF;stroke:#A3D5D0;stroke-width:1.5;stroke-linecap:round;stroke-linejoin:round;stroke-miterlimit:10;}
	.st46{fill:none;stroke:#E2E6E6;stroke-width:1.5;stroke-linecap:round;stroke-linejoin:round;stroke-miterlimit:10;}
	.st47{fill:#0047BF;stroke:#FF704C;stroke-width:1.5;stroke-linecap:round;stroke-linejoin:round;stroke-miterlimit:10;}
	.st48{fill:#0047BF;stroke:#FF804C;stroke-width:1.5;stroke-linecap:round;stroke-linejoin:round;stroke-miterlimit:10;}
	.st49{fill:#0047BF;stroke:#F1D439;stroke-width:1.5;stroke-linecap:round;stroke-linejoin:round;stroke-miterlimit:10;}
	.st50{fill:#0041BD;stroke:#0047BF;stroke-width:2;stroke-linecap:round;stroke-linejoin:round;stroke-miterlimit:10;}
	.st51{fill:#FF7E51;}
	.st52{fill:#96D5CE;}
	.st53{fill:#B5C0C0;}
	.st54{fill:#FFDD20;}
	
		.st55{fill:none;stroke:#FFFFFF;stroke-width:2;stroke-linecap:round;stroke-linejoin:round;stroke-miterlimit:10;stroke-dasharray:15,5;}
	.st56{opacity:0.74;fill:#0041BD;}
	.st57{fill:none;stroke:#FFFFFF;stroke-width:2;stroke-linecap:round;stroke-linejoin:round;stroke-dasharray:14.7582,4.9194;}
	.st58{fill:none;stroke:#B5C0C0;stroke-width:2;stroke-linecap:round;stroke-linejoin:round;stroke-miterlimit:10;}
	.st59{fill:#0047BF;stroke:#B5C0C0;stroke-width:2;stroke-linecap:round;stroke-linejoin:round;stroke-miterlimit:10;}
	.st60{fill:#0047BF;stroke:#96D5CE;stroke-width:2;stroke-linecap:round;stroke-linejoin:round;stroke-miterlimit:10;}
	.st61{fill:#0047BF;stroke:#FFFFFF;stroke-width:2;stroke-linecap:round;stroke-linejoin:round;stroke-miterlimit:10;}
	.st62{fill:none;stroke:#FFFFFF;stroke-width:0.75;stroke-linecap:round;stroke-linejoin:round;stroke-miterlimit:10;}
	.st63{fill:none;stroke:#FF7E51;stroke-width:1.5;stroke-linecap:round;stroke-linejoin:round;stroke-miterlimit:10;}
	.st64{fill:#0B0069;stroke:#FFFFFF;stroke-width:1.5;stroke-linecap:round;stroke-linejoin:round;stroke-miterlimit:10;}
	.st65{fill:none;stroke:#FF804C;stroke-width:1.9599;stroke-linecap:round;stroke-linejoin:round;stroke-miterlimit:10;}
</style>
<rect x="-0.3" y="-0.3" class="st18" width="174" height="174.3"/>
<g>
	<line class="st5" x1="98.4" y1="61.4" x2="68.4" y2="119"/>
	<line class="st5" x1="76.1" y1="123.8" x2="106.7" y2="64.9"/>
	<line class="st5" x1="85.7" y1="66.4" x2="62.2" y2="111.6"/>
	<polyline class="st5" points="77.6,62.5 71.3,74.5 57.7,100.7 	"/>
	<path class="st5" d="M123.3,93.5c0-0.7,0-1.3-0.1-2l-15.8,30.4"/>
	<line class="st5" x1="119.8" y1="78.6" x2="94.9" y2="126.4"/>
	<line class="st5" x1="114" y1="70.4" x2="84.8" y2="126.4"/>
	<line class="st5" x1="84.8" y1="126.4" x2="114" y2="70.4"/>
</g>
<path class="st0" d="M122.3,102.1c-0.5-1.9-2.1-5.5-3.7-6.7c-0.5-0.4-1.8-0.9-2.4-1.3c-0.8-0.5-1.9-1.5-3-1.3
	c-0.2,0.4,0.8,3.1,1.9,4.7c0.9,1.3-2.7,2-3.7,1.1c-5.8-5.5-1.9,1.5-0.4,2.3c0.6,0.3,1.5-0.6,2-0.3c1.4,0.7-0.7,3.2-1.3,3.9
	c-1.9,2-3.6,2.7-4.2,5.5c-0.2,1.1-0.1,1.7-0.8,2.5c-0.5,0.6-1.4,0.6-1.8,1.3c0,0.6-0.1,1.1-0.4,1.6c-0.4,0.1-0.7,0.2-1.1,0.3
	c-0.7,0.6-1.1,1.2-1.9,1.7c-0.6,0.3-2.2-0.3-3-0.6c-1.2-0.5-0.9-0.4-1.2-1.6c-0.4-1.4-0.7-2.2-0.3-3.6c0.3-1.2,1-1.6,0.8-3.1
	c-0.2-1.4-0.5-4.7-1.1-5.5c-1-1.4-2.3-0.8-3.5-0.7c-2.6,0.3-3.2-0.8-4.3-3c-1-2-0.8-4-0.1-6.1c0.5-1.6,4.5-4.5,7-4.5
	c0.3,0,2-0.8,4,0.2c2.9,3.4,4,1.6,3.1-0.8c0,0-1-1.9-3.1-3.2c-0.1,0-4.3,3.4-6.4,0.6c-0.4-0.6-1.8-3.3,1.4-4.5
	c2.9,1.5,1.8-1.9,2.8-2.5c2.2-1.2,1-4.3,1.6-5.4c1.6-1.3,4-2.7,5.7-2.4c1.4,0.3,4.8,1.6,5.5,0.8c1.1-1.3,0.1-1.8,0.8-2.8
	c0,0,4.7,1.7,9.5,12.3C125,90.5,122.3,102.1,122.3,102.1z"/>
<path class="st41" d="M66.9,69.6l1.3-0.3c0,0,1.9-1.2,2.6-1.2c0.4,0,1.4,0.5,1.3,0.9c-0.1,0.3-1.1,0.3-1.1,0.3l-1.2,2.1l0.2,1.3
	l0.9,0.7l0.1,1.4l1.4-0.3l2.6-2.7l1.7,0.3c0.9-0.1,0.9,7-0.3,8.4c-1.2,1-1.2-1.3-4-0.1c-1.1,0.5,0.3,1.2,0.1,2
	c0,0.2-4.1,2.1-3.9,2.5c1,2.2,0.6,4.3,0.5,4.3c-0.6-1.2-1.3-2.7-1.3-2.7c-3.7-0.4-4.6,6.5-4.1,6.9c0.7,0.5,1.8,3.2,1.8,3.2
	c1.9,0.4,1.6-0.6,2.7-0.2c1.5,0.7,4,1.2,5.1,2.3c1.4,1.3,1.1,2.6,3,3.4c1.2,0.5,3,0.6,3.1,2.1c0.1,1-0.9,1.8-1.1,2.7
	c-0.1,0.7-1.8,1.5-2,2.2c-0.3,1.1-1.5,5.3-1.6,6.2c-0.1,1.1,1.8,2.9,2.9,3.3l0,0c0.3,0.2-2.4-0.5-3.1-0.9c-1-0.4-1.9-1.4-2.5-2.3
	c-1.1-1.9-1.4-4.2-2.2-6.2c-0.6-1.4-1-1.1-2.1-2.1c-0.7-0.7-1.8-2.5-2.2-3.4c-0.5-1-0.5-2.2-0.3-3.1c0.1-0.5,1-2.5,0.2-3
	c-0.5-0.3-0.8-0.4-1.1-0.6c-0.4-0.3-4.2-3.7-4.5-4.8c-0.4-1.2-2.1-5.6-2.4-6.1"/>
<path class="st41" d="M81.4,68.7c0,0,0.9-1.2,1.2-1.3c0.2-0.1,0.5-0.2,0.7-0.4c0.3-0.2,0.6-0.3,1-0.3c0.2,0,0.3,0,0.5-0.1
	c0.2-0.1,0.6-0.2,0.9-0.4c0.3-0.2,0.6-0.3,1-0.3l0.8-0.1c0.6-0.1,1.2-0.3,1.6-0.8c0.2-0.2,0.3-0.5,0.3-0.8c-0.2-0.8,0.4-1.2,0.9-1.3
	c0.4-0.1,2-1.2,1.1-1.6"/>
<path class="st41" d="M77.6,62.5c1.2,0.9,2.2,1,2.2,1.8c0,0.8-0.7-0.1-0.4,1.3c0.2,1.4,2.1,3.1,2.1,3.1"/>
<path class="st41" d="M121.6,101.7c-0.5-1.8-2-5.2-3.5-6.4c-0.5-0.4-1.7-0.9-2.3-1.2c-0.8-0.5-1.9-1.5-2.9-1.2
	c-0.2,0.4,0.7,3,1.8,4.5c0.9,1.2-2.5,1.9-3.5,1c-5.6-5.3-1.8,1.5-0.4,2.2c0.6,0.3,1.4-0.6,1.9-0.3c1.4,0.7-0.6,3.1-1.3,3.8
	c-1.8,1.9-3.4,2.6-4,5.3c-0.2,1-0.1,1.6-0.8,2.4c-0.5,0.6-1.3,0.5-1.8,1.2c0,0.5-0.1,1-0.4,1.5c-0.3,0.1-0.7,0.2-1,0.3
	c-0.6,0.5-1,1.2-1.8,1.6c-0.6,0.3-2,1-2.8,0.7c-1.2-0.5-1-1.6-1.3-2.8c-0.3-1.3-0.6-2.1-0.3-3.4c0.3-1.1,0.9-1.6,0.8-3
	c-0.2-1.4-0.5-4.5-1.1-5.3c-1-1.3-2.2-0.8-3.3-0.6c-2.5,0.3-3.1-0.8-4.1-2.9c-0.9-1.9-0.7-3.8-0.1-5.9c0.4-1.5,4.3-4.3,6.7-4.3
	c0.3,0,1.9-0.7,3.8,0.2c2.8,3.3,3.8,1.5,3-0.8c0,0-1-1.8-2.9-3.1c-0.1,0-4.1,3.3-6.1,0.5c-0.4-0.5-1.7-3.1,1.3-4.3
	c2.7,1.4,1.7-1.9,2.7-2.4c2.1-1.2,1-4.1,1.5-5.2c1.6-1.2,3.8-2.6,5.5-2.3c1.3,0.2,4.6,1.5,5.3,0.7c1-1.2,0.3-2.8,1-3.8"/>
<ellipse transform="matrix(0.2298 -0.9732 0.9732 0.2298 -21.6734 159.848)" class="st5" cx="90.2" cy="93.6" rx="33.3" ry="33.3"/>
<g id="OVDakJ_1_">
	<g>
		<path class="st41" d="M90.4,73.4c-0.3,2.5-6.2,3.1-5.4,1.6c0.2-0.1,0-1-0.7-1c-1.9-0.2,2.1-0.3,0.4-0.6c1.1-0.7-0.7-0.4-1.2-0.5
			c0.8-0.4,0.3-1.6,1.4-0.5c-0.6-1-0.4-1.2,0.4-0.4c0.6,0.9-0.3,1.5,0.7,0.9c0.3-1.7,0.5,0.3,0.7-0.4c0.2-1.1,0.9,0.5,0.8,0
			c-0.3-0.6,0.5-0.2,0.9-0.4c0.2-0.3,0-0.9,0.6-0.3c0.1,0.6,0.4-0.2,0.7,0C88.8,72.3,90.4,72.6,90.4,73.4z"/>
	</g>
</g>
<path class="st40" d="M57.9,66.3c3.5,1.4,9.3,1.7,11.8,1.7c4.6-0.1,9.1-1.1,13.3-2.9c3.4-1.5,6.5-3.3,9.3-5.7
	c5.4-4.5,9.4-9.9,12.4-16.2c0.4-0.8,0.7-1.7,1.2-2.6c-0.4,0-0.6,0-0.9,0c-1.2,0-2.5,0-3.7-0.1c-3.8-0.5-7.6-1.2-11.4-1.7
	c-3-0.4-6-0.6-9-0.4c-5.5,0.5-10.3,2.7-14.3,6.6c-3.7,3.6-6.2,7.8-7.2,12.9c-0.2,0.9-0.8,4.6-1,5.5"/>
<path class="st11" d="M50.6,53.7c0.2,6.1,1.2,11.6,3.9,15.5c2.3-2,4.5-10,4.1-14.4c-0.6-6.8-3.7-12.3-8.4-17
	c-0.6,1.2-1.1,2.4-1.8,3.5c-1.2,2.2-2.5,4.3-3.7,6.5c-1.3,2.3-2,4.8-1.9,7.5c0.2,4.1,1.8,7.6,4.7,10.5c2.1,1.9,5.3,3,6.7,3.6"/>
<path class="st11" d="M99.3,52.1c2.1,0.5,4.3,1.1,6.4,2c21.8,8.6,32.6,33.2,24,55c-8.6,21.8-33.2,32.6-55,24s-32.6-33.2-24-55
	c2.6-6.6,6.7-12.3,11.8-16.6c5.2-4.5,11.5-7.7,18.2-9.2"/>
</svg>
