<?xml version="1.0" encoding="utf-8"?>
<!-- Generator: Adobe Illustrator 26.0.1, SVG Export Plug-In . SVG Version: 6.00 Build 0)  -->
<svg version="1.1" id="Layer_1" xmlns="http://www.w3.org/2000/svg" xmlns:xlink="http://www.w3.org/1999/xlink" x="0px" y="0px"
	 viewBox="0 0 174 174" style="enable-background:new 0 0 174 174;" xml:space="preserve">
<style type="text/css">
	.st0{fill:#0047BF;}
	.st1{fill:#003FC1;}
	.st2{fill:#FFFFFF;}
	.st3{fill:none;stroke:#96D5CE;stroke-width:2;stroke-linecap:round;stroke-linejoin:round;stroke-miterlimit:10;}
	.st4{fill:none;stroke:#FF704C;stroke-width:2;stroke-linecap:round;stroke-linejoin:round;stroke-miterlimit:10;}
	.st5{fill:none;stroke:#FFFFFF;stroke-width:2;stroke-linecap:round;stroke-linejoin:round;stroke-miterlimit:10;}
	.st6{fill:none;stroke:#FF804C;stroke-width:2;stroke-linecap:round;stroke-linejoin:round;stroke-miterlimit:10;}
	.st7{fill:none;stroke:#0047BF;stroke-width:2;stroke-linecap:round;stroke-linejoin:round;stroke-miterlimit:10;}
	.st8{fill:#F1D439;}
	.st9{fill:#0047BF;stroke:#BEC8C8;stroke-width:2;stroke-linecap:round;stroke-linejoin:round;stroke-miterlimit:10;}
	.st10{fill:none;stroke:#FF7E51;stroke-width:2;stroke-linecap:round;stroke-linejoin:round;stroke-miterlimit:10;}
	.st11{fill:none;stroke:#A3D5D0;stroke-width:2;stroke-linecap:round;stroke-linejoin:round;stroke-miterlimit:10;}
	.st12{fill:none;stroke:#F1D439;stroke-width:2;stroke-linecap:round;stroke-linejoin:round;stroke-miterlimit:10;}
	.st13{fill:none;stroke:#E2E6E6;stroke-width:2;stroke-linecap:round;stroke-linejoin:round;stroke-miterlimit:10;}
	.st14{fill:#A3D5D0;}
	.st15{fill:#FF804C;}
	.st16{fill:none;stroke:#BEC8C8;stroke-width:2;stroke-linecap:round;stroke-linejoin:round;stroke-miterlimit:10;}
	.st17{fill:#0047BF;stroke:#0047BF;stroke-width:2;stroke-linecap:round;stroke-linejoin:round;stroke-miterlimit:10;}
	.st18{fill:#0041BD;}
	.st19{fill:#0041BD;stroke:#A3D5D0;stroke-width:2;stroke-linecap:round;stroke-linejoin:round;stroke-miterlimit:10;}
	.st20{fill:#0041BD;stroke:#FFFFFF;stroke-width:2;stroke-linecap:round;stroke-linejoin:round;stroke-miterlimit:10;}
	.st21{fill:#0041BD;stroke:#FF804C;stroke-width:2;stroke-linecap:round;stroke-linejoin:round;stroke-miterlimit:10;}
	.st22{fill:#0041BD;stroke:#F1D439;stroke-width:2;stroke-linecap:round;stroke-linejoin:round;stroke-miterlimit:10;}
	.st23{fill:#FF804C;stroke:#FF804C;stroke-width:2;stroke-linecap:round;stroke-linejoin:round;stroke-miterlimit:10;}
	.st24{fill:none;stroke:#FFFFFF;stroke-width:1.5;stroke-linecap:round;stroke-linejoin:round;stroke-miterlimit:10;}
	.st25{fill:#0041BD;stroke:#FF804C;stroke-width:1.5;stroke-linecap:round;stroke-linejoin:round;stroke-miterlimit:10;}
	.st26{fill:none;stroke:#FF704C;stroke-width:1.5;stroke-linecap:round;stroke-linejoin:round;stroke-miterlimit:10;}
	.st27{fill:none;stroke:#FF804C;stroke-width:1.5;stroke-linecap:round;stroke-linejoin:round;stroke-miterlimit:10;}
	.st28{fill:none;stroke:#A3D5D0;stroke-width:1.4377;stroke-linecap:round;stroke-linejoin:round;stroke-miterlimit:10;}
	.st29{fill:#0041BD;stroke:#A3D5D0;stroke-width:1.5;stroke-linecap:round;stroke-linejoin:round;stroke-miterlimit:10;}
	.st30{fill:#0041BD;stroke:#F1D439;stroke-width:1.5;stroke-linecap:round;stroke-linejoin:round;stroke-miterlimit:10;}
	.st31{fill:none;stroke:#F1D439;stroke-width:1.5;stroke-linecap:round;stroke-linejoin:round;stroke-miterlimit:10;}
	.st32{fill:none;stroke:#FFFFFF;stroke-width:2.5;stroke-linecap:round;stroke-linejoin:round;stroke-miterlimit:10;}
	.st33{fill:none;}
	.st34{fill:none;stroke:#A3D5D0;stroke-width:1.5;stroke-linecap:round;stroke-linejoin:round;stroke-miterlimit:10;}
	.st35{fill:none;stroke:#96D5CE;stroke-width:1.4377;stroke-linecap:round;stroke-linejoin:round;stroke-miterlimit:10;}
	.st36{fill:none;stroke:#0047BF;stroke-width:1.5;stroke-linecap:round;stroke-linejoin:round;stroke-miterlimit:10;}
	.st37{fill:#0047BF;stroke:#FF704C;stroke-width:2;stroke-linecap:round;stroke-linejoin:round;stroke-miterlimit:10;}
	.st38{fill:#0047BF;stroke:#FF804C;stroke-width:2;stroke-linecap:round;stroke-linejoin:round;stroke-miterlimit:10;}
	.st39{fill:#0047BF;stroke:#E2E6E6;stroke-width:2;stroke-linecap:round;stroke-linejoin:round;stroke-miterlimit:10;}
	.st40{fill:#0047BF;stroke:#A3D5D0;stroke-width:2;stroke-linecap:round;stroke-linejoin:round;stroke-miterlimit:10;}
	.st41{fill:#0047BF;stroke:#F1D439;stroke-width:2;stroke-linecap:round;stroke-linejoin:round;stroke-miterlimit:10;}
	.st42{fill:#0041BD;stroke:#E2E6E6;stroke-width:2;stroke-linecap:round;stroke-linejoin:round;stroke-miterlimit:10;}
	.st43{fill:#E2E6E6;}
	.st44{fill:none;stroke:#0047BF;stroke-width:1.4377;stroke-linecap:round;stroke-linejoin:round;stroke-miterlimit:10;}
	.st45{fill:#0047BF;stroke:#A3D5D0;stroke-width:1.5;stroke-linecap:round;stroke-linejoin:round;stroke-miterlimit:10;}
	.st46{fill:none;stroke:#E2E6E6;stroke-width:1.5;stroke-linecap:round;stroke-linejoin:round;stroke-miterlimit:10;}
	.st47{fill:#0047BF;stroke:#FF704C;stroke-width:1.5;stroke-linecap:round;stroke-linejoin:round;stroke-miterlimit:10;}
	.st48{fill:#0047BF;stroke:#FF804C;stroke-width:1.5;stroke-linecap:round;stroke-linejoin:round;stroke-miterlimit:10;}
	.st49{fill:#0047BF;stroke:#F1D439;stroke-width:1.5;stroke-linecap:round;stroke-linejoin:round;stroke-miterlimit:10;}
	.st50{fill:#0041BD;stroke:#0047BF;stroke-width:2;stroke-linecap:round;stroke-linejoin:round;stroke-miterlimit:10;}
	.st51{fill:#FF7E51;}
	.st52{fill:#96D5CE;}
	.st53{fill:#B5C0C0;}
	.st54{fill:#FFDD20;}
	
		.st55{fill:none;stroke:#FFFFFF;stroke-width:2;stroke-linecap:round;stroke-linejoin:round;stroke-miterlimit:10;stroke-dasharray:15,5;}
	.st56{opacity:0.74;fill:#0041BD;}
	.st57{fill:none;stroke:#FFFFFF;stroke-width:2;stroke-linecap:round;stroke-linejoin:round;stroke-dasharray:14.7582,4.9194;}
	.st58{fill:none;stroke:#B5C0C0;stroke-width:2;stroke-linecap:round;stroke-linejoin:round;stroke-miterlimit:10;}
	.st59{fill:#0047BF;stroke:#B5C0C0;stroke-width:2;stroke-linecap:round;stroke-linejoin:round;stroke-miterlimit:10;}
	.st60{fill:#0047BF;stroke:#96D5CE;stroke-width:2;stroke-linecap:round;stroke-linejoin:round;stroke-miterlimit:10;}
	.st61{fill:#0047BF;stroke:#FFFFFF;stroke-width:2;stroke-linecap:round;stroke-linejoin:round;stroke-miterlimit:10;}
	.st62{fill:none;stroke:#FFFFFF;stroke-width:0.75;stroke-linecap:round;stroke-linejoin:round;stroke-miterlimit:10;}
	.st63{fill:none;stroke:#FF7E51;stroke-width:1.5;stroke-linecap:round;stroke-linejoin:round;stroke-miterlimit:10;}
	.st64{fill:#0B0069;stroke:#FFFFFF;stroke-width:1.5;stroke-linecap:round;stroke-linejoin:round;stroke-miterlimit:10;}
	.st65{fill:none;stroke:#FF804C;stroke-width:1.9599;stroke-linecap:round;stroke-linejoin:round;stroke-miterlimit:10;}
</style>
<rect x="-4.3" y="-4.1" class="st18" width="182.7" height="182.7"/>
<line class="st24" x1="61.7" y1="62.5" x2="59.7" y2="66.1"/>
<line class="st24" x1="60.4" y1="53.7" x2="54.1" y2="65.3"/>
<line class="st24" x1="54.6" y1="54.1" x2="49" y2="64.4"/>
<line class="st24" x1="48.1" y1="55.9" x2="44.3" y2="62.9"/>
<line class="st24" x1="41.8" y1="58.2" x2="39.8" y2="61.9"/>
<path class="st25" d="M61.5,62.7c-1.4,0.2-3.4,0.7-4.6,0.2c-2.1-0.8-5-2-4.6-3c0.4-1,2.4-0.9,4-0.7c2.3,0.3,4.9,0.7,4.9,0.7"/>
<path class="st24" d="M68.4,65c-3.8,1.4-7.3-1.9-7.3-4.7c0-2.6,2.2-4.5,4.5-5.2"/>
<g>
	<path class="st26" d="M39.4,58.4c-1.3-0.6-3.2-1-5.3-1c-0.9,0-1.7,0.1-2.5,0.2c0.8,0.4,1.3,1.4,1.3,2.5c0,1.2-0.6,2.1-1.3,2.5
		c0.8,0.1,1.6,0.2,2.5,0.2c2.1,0,4-0.4,5.3-0.9"/>
</g>
<path class="st27" d="M49.3,55.5c-1.3-0.7-3.2-1.7-4.7-2.1c-1.4-0.4-2.1,1.1-2.6,2c-0.6,0.9-0.9,1.8,0.8,2.2"/>
<path class="st27" d="M62.5,53.6c0,0-0.5-3.7-4.3-2.9c-1.6,0.3-4.3,1-6,1.6c-1.9,0.6-1.7,2-2.1,2.9"/>
<path class="st26" d="M49.7,64.6c-0.1-0.1-0.2,0.7-1,0.8c-1.9,0.1-2.2,0.2-4.1,0.3c-1.5,0.1-2.1-0.6-2.6-1.4
	c-0.2-0.4-0.7-1.5,0.4-2.1"/>
<path class="st24" d="M68.8,61.8l3.8-3.5c-5.5-1.4-8-5.1-12.4-5.1C57.4,53.2,49.8,55,45,57c-1.2,0.5-2.1,0.8-3.2,1.2
	c-0.7,0.3-1.8,0.3-1.9,0.3c-1,0-2.3,0.8-2.3,1.7c0,0.9,1.3,1.9,2.3,1.7c1.2-0.2,1.8,0,2.2,0.2c7.9,3.5,16.4,4,17.6,4
	c8.3,0,9.4-0.8,14.2-5.4l-4.4,0.5"/>
<path class="st8" d="M67.3,56.3c-1.1,0-1.9,0.9-1.9,1.9s0.9,1.9,1.9,1.9c1.1,0,1.9-0.9,1.9-1.9S68.3,56.3,67.3,56.3z M67.3,59.2
	c-0.5,0-0.9-0.4-0.9-0.9c0-0.5,0.4-0.9,0.9-0.9c0.5,0,0.9,0.4,0.9,0.9C68.2,58.7,67.8,59.2,67.3,59.2z"/>
<g>
	<path class="st12" d="M64.1,122H37.7c-6.8,0-12.3-5.5-12.3-12.3v0c0-6.8,5.5-12.3,12.3-12.3h26.4c6.8,0,12.3,5.5,12.3,12.3v0
		C76.4,116.5,70.9,122,64.1,122z"/>
	<path class="st12" d="M63.5,117H38.3c-4.1,0-7.4-3.3-7.4-7.4v0c0-4.1,3.3-7.4,7.4-7.4h25.2c4.1,0,7.4,3.3,7.4,7.4v0
		C70.9,113.7,67.6,117,63.5,117z"/>
</g>
<path class="st20" d="M88.3,86.9H61.8c-6.8,0-12.3,5.5-12.3,12.3c0,6.8,5.5,12.3,12.3,12.3h26.4c6.8,0,12.3-5.5,12.3-12.3
	C100.6,92.4,95.1,86.9,88.3,86.9z M87.6,106.5H62.5c-4.1,0-7.4-3.3-7.4-7.4c0-4.1,3.3-7.4,7.4-7.4h25.2c4.1,0,7.4,3.3,7.4,7.4
	C95,103.2,91.7,106.5,87.6,106.5z"/>
<rect x="47.7" y="98.3" class="st18" width="10.1" height="3"/>
<line class="st12" x1="46.1" y1="102.3" x2="59.4" y2="102.3"/>
<line class="st12" x1="46.1" y1="97.4" x2="59.4" y2="97.4"/>
<path class="st19" d="M112.3,76.3H85.9c-6.8,0-12.3,5.5-12.3,12.3c0,6.8,5.5,12.3,12.3,12.3h26.4c6.8,0,12.3-5.5,12.3-12.3
	C124.6,81.9,119.1,76.3,112.3,76.3z M111.7,96H86.6c-4.1,0-7.4-3.3-7.4-7.4c0-4.1,3.3-7.4,7.4-7.4h25.2c4.1,0,7.4,3.3,7.4,7.4
	C119.1,92.7,115.8,96,111.7,96z"/>
<rect x="71.8" y="87.7" class="st18" width="10.1" height="3"/>
<line class="st5" x1="70.1" y1="91.8" x2="83.4" y2="91.8"/>
<line class="st5" x1="70.2" y1="86.9" x2="83.4" y2="86.9"/>
<path class="st20" d="M136.3,65.8h-26.4c-6.8,0-12.3,5.5-12.3,12.3c0,6.8,5.5,12.3,12.3,12.3h26.4c6.8,0,12.3-5.5,12.3-12.3
	C148.6,71.4,143.1,65.8,136.3,65.8z M135.7,85.5h-25.2c-4.1,0-7.4-3.3-7.4-7.4c0-4.1,3.3-7.4,7.4-7.4h25.2c4.1,0,7.4,3.3,7.4,7.4
	C143,82.2,139.7,85.5,135.7,85.5z"/>
<rect x="95.7" y="77.2" class="st18" width="10.1" height="3"/>
<line class="st11" x1="94.1" y1="81.3" x2="107.4" y2="81.3"/>
<line class="st11" x1="94.1" y1="76.3" x2="107.4" y2="76.3"/>
<path class="st28" d="M33.2,73.3c2.4,0,2.4-1.4,4.8-1.4c2.4,0,2.4,1.4,4.8,1.4c2.4,0,2.4-1.4,4.8-1.4c2.4,0,2.4,1.4,4.8,1.4
	c2.4,0,2.4-1.4,4.8-1.4c2.4,0,2.4,1.4,4.8,1.4c2.4,0,2.4-1.4,4.8-1.4c2.4,0,2.4,1.4,4.8,1.4"/>
<path class="st28" d="M33.2,46.5c2.4,0,2.4-1.4,4.8-1.4c2.4,0,2.4,1.4,4.8,1.4c2.4,0,2.4-1.4,4.8-1.4c2.4,0,2.4,1.4,4.8,1.4
	c2.4,0,2.4-1.4,4.8-1.4c2.4,0,2.4,1.4,4.8,1.4c2.4,0,2.4-1.4,4.8-1.4c2.4,0,2.4,1.4,4.8,1.4"/>
<path class="st28" d="M33.2,40.2c2.4,0,2.4-1.4,4.8-1.4c2.4,0,2.4,1.4,4.8,1.4c2.4,0,2.4-1.4,4.8-1.4c2.4,0,2.4,1.4,4.8,1.4
	c2.4,0,2.4-1.4,4.8-1.4c2.4,0,2.4,1.4,4.8,1.4c2.4,0,2.4-1.4,4.8-1.4c2.4,0,2.4,1.4,4.8,1.4"/>
<path class="st27" d="M114.5,115.2c0-1.9-1.4-1.9-1.4-3.8c0-1.9,1.4-1.9,1.4-3.8"/>
<path class="st27" d="M109.9,115.2c0-1.9-1.4-1.9-1.4-3.8c0-1.9,1.4-1.9,1.4-3.8"/>
<path class="st27" d="M119.5,115.2c0-1.9-1.4-1.9-1.4-3.8c0-1.9,1.4-1.9,1.4-3.8"/>
<g>
	<path class="st29" d="M96.4,132c-2.9,0.9-4.6,2.1-4.6,3.4c0,3,9.9,5.5,22,5.5s22-2.4,22-5.5c0-1.3-1.9-2.5-5.1-3.5"/>
	<path class="st29" d="M96.4,132l1.7-0.5C97.5,131.7,97,131.9,96.4,132z"/>
</g>
<line class="st24" x1="120.9" y1="131.2" x2="118.9" y2="134.9"/>
<line class="st24" x1="119.6" y1="122.1" x2="113.1" y2="134.1"/>
<line class="st24" x1="113.7" y1="122.5" x2="107.9" y2="133.1"/>
<line class="st24" x1="107" y1="124.4" x2="103.1" y2="131.6"/>
<line class="st24" x1="100.6" y1="126.8" x2="98.5" y2="130.6"/>
<path class="st25" d="M120.8,131.4c-1.4,0.2-3.5,0.7-4.8,0.2c-2.2-0.8-5.1-2-4.7-3.1c0.4-1,2.5-0.9,4.1-0.7c2.4,0.3,5,0.7,5,0.7"/>
<path class="st24" d="M127.8,133.8c-3.9,1.4-7.5-1.9-7.5-4.8c0-2.7,2.2-4.6,4.6-5.4"/>
<g>
	<path class="st26" d="M98,127c-1.3-0.6-3.3-1-5.5-1c-0.9,0-1.8,0.1-2.6,0.2c0.8,0.4,1.4,1.4,1.4,2.6c0,1.2-0.6,2.2-1.4,2.6
		c0.8,0.1,1.7,0.2,2.6,0.2c2.2,0,4.1-0.4,5.4-1"/>
</g>
<path class="st27" d="M108.2,124c-1.3-0.7-3.3-1.7-4.8-2.1c-1.5-0.4-2.1,1.2-2.7,2.1c-0.6,1-0.9,1.9,0.8,2.3"/>
<path class="st27" d="M121.8,122c0,0-0.5-3.8-4.5-3c-1.6,0.3-4.4,1.1-6.1,1.6c-1.9,0.6-1.8,2.1-2.2,3"/>
<path class="st26" d="M108.7,133.3c-0.1-0.1-0.2,0.8-1.1,0.8c-1.9,0.1-2.3,0.2-4.2,0.3c-1.6,0.1-2.1-0.6-2.7-1.4
	c-0.2-0.4-0.8-1.6,0.4-2.1"/>
<path class="st24" d="M128.2,130.5l3.9-3.6c-5.7-1.5-8.2-5.3-12.7-5.3c-2.9,0-10.6,1.9-15.6,3.9c-1.2,0.5-2.2,0.8-3.3,1.3
	c-0.7,0.3-1.8,0.3-1.9,0.3c-1.1,0-2.4,0.8-2.4,1.8c0,1,1.3,1.9,2.4,1.8c1.3-0.2,1.8,0,2.3,0.2c8.1,3.6,16.9,4.1,18.1,4.1
	c8.5,0,9.7-0.9,14.5-5.6l-4.5,0.5"/>
<path class="st8" d="M126.7,124.8c-1.1,0-2,0.9-2,2s0.9,2,2,2c1.1,0,2-0.9,2-2S127.8,124.8,126.7,124.8z M126.7,127.8
	c-0.5,0-1-0.4-1-1c0-0.5,0.4-1,1-1c0.5,0,1,0.4,1,1C127.7,127.3,127.2,127.8,126.7,127.8z"/>
<g>
	<path class="st30" d="M99.5,129.5c0,0.1-0.1,0.1-0.1,0.2c-1,3.1,0.8,6.3,3.8,7.3s6.3-0.8,7.3-3.8c0-0.1,0-0.2,0.1-0.2L99.5,129.5z"
		/>
	<line class="st31" x1="104.8" y1="131.2" x2="106" y2="137.2"/>
	<line class="st31" x1="104.9" y1="131.2" x2="100.7" y2="135.4"/>
</g>
</svg>
